<svg xmlns="http://www.w3.org/2000/svg" viewBox="0 0 448 512"><!--! Font Awesome Pro 6.3.0 by @fontawesome - https://fontawesome.com License - https://fontawesome.com/license (Commercial License) Copyright 2023 Fonticons, Inc. --><path d="M339 32H307 67 35V96H67 224.7L93.4 216.4 83 225.9V272h32H219c39.8 0 72 32.2 72 72s-32.2 72-72 72H146.4c-20 0-37.9-12.4-44.9-31.1L97 372.8 37 395.2l4.5 12.1C58 451 99.8 480 146.4 480H219c75.1 0 136-60.9 136-136s-60.9-136-136-136H197.3L328.6 87.6 339 78.1V32zm48 2.1l2.3-2.1H387v2.1z"/></svg>