<svg xmlns="http://www.w3.org/2000/svg" viewBox="0 0 576 512"><!--! Font Awesome Pro 6.3.0 by @fontawesome - https://fontawesome.com License - https://fontawesome.com/license (Commercial License) Copyright 2023 Fonticons, Inc. --><path d="M163.3 25.6C146.1 9.7 123.2 0 98 0C45 0 2 43 2 96c0 19 5.5 36.6 15 51.5L163.3 25.6zM258 512c50.3 0 96.8-16.6 134.2-44.6l19.2 19.2L434 509.3 479.3 464l-22.6-22.6-19.2-19.2c28-37.4 44.6-83.8 44.6-134.2C482 164.3 381.7 64 258 64S34 164.3 34 288c0 50.3 16.6 96.8 44.6 134.2L59.4 441.4 36.7 464 82 509.3l22.6-22.6 19.2-19.2c37.4 28 83.8 44.6 134.1 44.6zM500.3 147.5c9.5-14.9 15-32.6 15-51.5c0-53-43-96-96-96C394.1 0 371.1 9.7 354 25.6L500.3 147.5zM282 184v94.1l41 41 17 17L306 369.9l-17-17-48-48-7-7V288 184 160h48v24z"/></svg>