<svg xmlns="http://www.w3.org/2000/svg" viewBox="0 0 576 512"><!--! Font Awesome Pro 6.3.0 by @fontawesome - https://fontawesome.com License - https://fontawesome.com/license (Commercial License) Copyright 2023 Fonticons, Inc. --><path d="M17 147.5C7.5 132.6 2 115 2 96C2 43 45 0 98 0c25.2 0 48.1 9.7 65.3 25.6L17 147.5zM392.2 467.4C354.8 495.4 308.3 512 258 512s-96.8-16.6-134.1-44.6l-19.2 19.2L82 509.3 36.7 464l22.6-22.6 19.2-19.2C50.6 384.8 34 338.3 34 288C34 164.3 134.3 64 258 64s224 100.3 224 224c0 50.3-16.6 96.8-44.6 134.2l19.2 19.2L479.3 464 434 509.3l-22.6-22.6-19.2-19.2zM354 25.6C371.1 9.7 394.1 0 419.3 0c53 0 96 43 96 96c0 19-5.5 36.6-15 51.5L354 25.6zM282 176H234v24 64H170 146v48h24 64v64 24h48V376 312h64 24V264H346 282V200 176z"/></svg>