<svg xmlns="http://www.w3.org/2000/svg" viewBox="0 0 384 512"><!--! Font Awesome Pro 6.3.0 by @fontawesome - https://fontawesome.com License - https://fontawesome.com/license (Commercial License) Copyright 2023 Fonticons, Inc. --><path d="M162 96V80c0-44.2 35.8-80 80-80h16 16V16 32c0 44.2-35.8 80-80 80H178 162V96zM.2 155.3C17.2 138.4 39.1 128 66 128c48 0 112 32 112 32s64-32 112-32c26.9 0 48.8 10.4 65.8 27.3C306.6 186.5 274 241.4 274 304c0 60.4 30.5 113.8 76.9 145.5C321 488.6 281.5 512 242 512c-25.8 0-64-16-64-16s-38.2 16-64 16c-39.5 0-79-23.4-108.9-62.5C51.5 417.8 82 364.4 82 304C82 241.4 49.4 186.5 .2 155.3z"/></svg>