<svg xmlns="http://www.w3.org/2000/svg" viewBox="0 0 512 512"><!--! Font Awesome Pro 6.3.0 by @fontawesome - https://fontawesome.com License - https://fontawesome.com/license (Commercial License) Copyright 2023 Fonticons, Inc. --><path d="M46 2.7L68.6 25.4 158 114.7V80 48h64V80 192v32H190 78 46V160H78h34.7L23.4 70.6 .7 48 46 2.7zM507.3 48L484.6 70.6 395.3 160H430h32v64H430 318 286V192 80 48h64V80v34.7l89.4-89.4L462 2.7 507.3 48zM46 288H78 190h32v32V432v32H158V432 397.3L68.6 486.6 46 509.3 .7 464l22.6-22.6L112.7 352H78 46V288zm240 0h32H430h32v64H430 395.3l89.4 89.4L507.3 464 462 509.3l-22.6-22.6L350 397.3V432v32H286V432 320 288z"/></svg>