<svg xmlns="http://www.w3.org/2000/svg" viewBox="0 0 576 512"><!--! Font Awesome Pro 6.3.0 by @fontawesome - https://fontawesome.com License - https://fontawesome.com/license (Commercial License) Copyright 2023 Fonticons, Inc. --><path d="M406 152a32 32 0 1 0 0-64 32 32 0 1 0 0 64zm-88-32c0-48.6 39.4-88 88-88s88 39.4 88 88c0 22.6-6.2 44.8-18 64.1L432.3 256H357.4l5.2-8.6 25.1-41.3C347.9 197.7 318 162.3 318 120zM134 32.6l23.6 25.7 88 96L267.2 178 220 221.2l-21.6-23.6L166 162.3V448v32H102V448 162.3L69.6 197.6 48 221.2 .8 178l21.6-23.6 88-96L134 32.6zM326 288h32 48 32v32 96h16 32v64H454 406 358 326V416h32 16V352H358 326V288z"/></svg>