<svg xmlns="http://www.w3.org/2000/svg" viewBox="0 0 640 512"><!--! Font Awesome Pro 6.3.0 by @fontawesome - https://fontawesome.com License - https://fontawesome.com/license (Commercial License) Copyright 2023 Fonticons, Inc. --><path d="M148.6 73.4L126 50.7 103.4 73.4l-80 80L.7 176 46 221.3l22.6-22.6L94 173.3V384v32h32H302h32V352H302 158V173.3l25.4 25.4L206 221.3 251.3 176l-22.6-22.6-80-80zM334 96H302v64h32H478V338.7l-25.4-25.4L430 290.7 384.7 336l22.6 22.6 80 80L510 461.3l22.6-22.6 80-80L635.3 336 590 290.7l-22.6 22.6L542 338.7V128 96H510 334z"/></svg>