<svg xmlns="http://www.w3.org/2000/svg" viewBox="0 0 576 512"><!--! Font Awesome Pro 6.3.0 by @fontawesome - https://fontawesome.com License - https://fontawesome.com/license (Commercial License) Copyright 2023 Fonticons, Inc. --><path d="M326 32h32 48 32V64v96h16 32v64H454 406 358 326V160h32 16V96H358 326V32zm-192 .6l23.6 25.7 88 96L267.2 178 220 221.2l-21.6-23.6L166 162.3V448v32H102V448 162.3L69.6 197.6 48 221.2 .8 178l21.6-23.6 88-96L134 32.6zM406 368a32 32 0 1 0 0-64 32 32 0 1 0 0 64zm-88-32c0-48.6 39.4-88 88-88s88 39.4 88 88c0 22.6-6.2 44.8-18 64.1L427.5 480H352.5l10.1-16.6 25.1-41.3C347.9 413.7 318 378.3 318 336z"/></svg>