<svg xmlns="http://www.w3.org/2000/svg" viewBox="0 0 576 512"><!--! Font Awesome Pro 6.3.0 by @fontawesome - https://fontawesome.com License - https://fontawesome.com/license (Commercial License) Copyright 2023 Fonticons, Inc. --><path d="M134 479.4l23.6-25.7 88-96L267.2 334 220 290.8l-21.6 23.6L166 349.7V64 32H102V64 349.7L69.6 314.4 48 290.8 .8 334l21.6 23.6 88 96L134 479.4zM388.3 309.3a32 32 0 1 1 35.3 53.4 32 32 0 1 1 -35.3-53.4zm-.6 112.8l-25.1 41.3L352.5 480h74.9L476 400.1c11.7-19.3 18-41.5 18-64.1c0-48.6-39.4-88-88-88s-88 39.4-88 88c0 42.3 29.9 77.7 69.8 86.1zM358 32H326V96h32 16v64H358 326v64h32 48 48 32V160H454 438V64 32H406 358z"/></svg>