<svg xmlns="http://www.w3.org/2000/svg" viewBox="0 0 576 512"><!--! Font Awesome Pro 6.3.0 by @fontawesome - https://fontawesome.com License - https://fontawesome.com/license (Commercial License) Copyright 2023 Fonticons, Inc. --><path d="M134 479.4l23.6-25.7 88-96L267.2 334 220 290.8l-21.6 23.6L166 349.7V64 32H102V64 349.7L69.6 314.4 48 290.8 .8 334l21.6 23.6 88 96L134 479.4zM326 288v64h32 16v64H358 326v64h32 48 48 32V416H454 438V320 288H406 358 326zM406 88a32 32 0 1 1 0 64 32 32 0 1 1 0-64zm-88 32c0 42.3 29.9 77.7 69.8 86.1l-25.1 41.3-5.2 8.6h74.9L476 184.1c11.7-19.3 18-41.5 18-64.1c0-48.6-39.4-88-88-88s-88 39.4-88 88z"/></svg>