<svg xmlns="http://www.w3.org/2000/svg" viewBox="0 0 576 512"><!--! Font Awesome Pro 6.3.0 by @fontawesome - https://fontawesome.com License - https://fontawesome.com/license (Commercial License) Copyright 2023 Fonticons, Inc. --><path d="M420.6 454.6l96-96L539.3 336 494 290.7l-22.6 22.6L430 354.7V64 32H366V64 354.7l-41.4-41.4L302 290.7 256.7 336l22.6 22.6 96 96L398 477.3l22.6-22.6zM164.6 57.4L142 34.7 119.4 57.4l-96 96L.7 176 46 221.3l22.6-22.6L110 157.3V448v32h64V448 157.3l41.4 41.4L238 221.3 283.3 176l-22.6-22.6-96-96z"/></svg>