<svg xmlns="http://www.w3.org/2000/svg" viewBox="0 0 640 512"><!--! Font Awesome Pro 6.3.0 by @fontawesome - https://fontawesome.com License - https://fontawesome.com/license (Commercial License) Copyright 2023 Fonticons, Inc. --><path d="M113 0h48V24 142.1l23-23 17-17L234.9 136l-17 17-64 64-17 17-17-17L56 153l-17-17L73 102.1l17 17 23 23V24 0zM273 200a40 40 0 1 1 80 0 40 40 0 1 1 -80 0zM97 296a40 40 0 1 1 80 0 40 40 0 1 1 -80 0zm392-40a40 40 0 1 1 0 80 40 40 0 1 1 0-80zM74.9 352H89h96 14l44.9-83.4 6.8-12.6H265h96 14.3l6.8 12.6L427 352h14 96 14.1l6.9 12.3 56 100.8 11.7 21-42 23.3-11.7-21-27-48.6V512H433V439.8l-27 48.6-11.7 21-42-23.3 11.7-21 35.2-63.4-3.4-6.3L369 345.5V432H257V345.5l-26.9 49.9-3.4 6.3L262 465.1l11.7 21-42 23.3-11.7-21-27-48.6V512H81V439.8L54 488.5l-11.7 21L.4 486.1l11.7-21L68 364.3 74.9 352zM408 153l-17-17L425 102.1l17 17 23 23V24 0h48V24 142.1l23-23 17-17L586.9 136l-17 17-64 64-17 17-17-17-64-64z"/></svg>