<svg xmlns="http://www.w3.org/2000/svg" viewBox="0 0 512 512"><!--! Font Awesome Pro 6.3.0 by @fontawesome - https://fontawesome.com License - https://fontawesome.com/license (Commercial License) Copyright 2023 Fonticons, Inc. --><path d="M372.6 25.4L350 2.7 304.7 48l22.6 22.6L352.7 96H46 14v32V256v32H78V256 160H352.7l-25.4 25.4L304.7 208 350 253.3l22.6-22.6 80-80L475.3 128l-22.6-22.6-80-80zm-96 256L254 258.7 208.7 304l22.6 22.6L256.7 352H46 14v32 96 32H78V480 416H256.7l-25.4 25.4L208.7 464 254 509.3l22.6-22.6 80-80L379.3 384l-22.6-22.6-80-80z"/></svg>