<svg xmlns="http://www.w3.org/2000/svg" viewBox="0 0 576 512"><!--! Font Awesome Pro 6.3.0 by @fontawesome - https://fontawesome.com License - https://fontawesome.com/license (Commercial License) Copyright 2023 Fonticons, Inc. --><path d="M369.5 32l-8.6 18.7-88 192L266.8 256h70.4l14.7-32h76.3l14.7 32h70.4l-6.1-13.3-88-192L410.5 32H369.5zm4.4 144L390 140.8 406.1 176H373.9zM157.6 58.4L134 32.6 110.4 58.4l-88 96L.8 178 48 221.2l21.6-23.6L102 162.3V448v32h64V448 162.3l32.4 35.4L220 221.2 267.2 178l-21.6-23.6-88-96zM326 288H294v64h32 52l-73 63.9L294 425.5V440v8 32h32H454h32V416H454 402l73-63.9 10.9-9.6V328v-8V288H454 326z"/></svg>