<svg xmlns="http://www.w3.org/2000/svg" viewBox="0 0 640 512"><!--! Font Awesome Pro 6.3.0 by @fontawesome - https://fontawesome.com License - https://fontawesome.com/license (Commercial License) Copyright 2023 Fonticons, Inc. --><path d="M46 2.7L68.6 25.4 158 114.7V96 64h64V96v96 32H190 94 62V160H94h18.7L23.4 70.6 .7 48 46 2.7zM254 256a64 64 0 1 1 128 0 64 64 0 1 1 -128 0zM94 288h96 32v32 96 32H158V416 397.3L68.6 486.6 46 509.3 .7 464l22.6-22.6L112.7 352H94 62V288H94zM635.3 48L612.6 70.6 523.3 160H542h32v64H542 446 414V192 96 64h64V96v18.7l89.4-89.4L590 2.7 635.3 48zM446 288h96 32v64H542 523.3l89.4 89.4L635.3 464 590 509.3l-22.6-22.6L478 397.3V416v32H414V416 320 288h32z"/></svg>