<svg xmlns="http://www.w3.org/2000/svg" viewBox="0 0 512 512"><!--! Font Awesome Pro 6.3.0 by @fontawesome - https://fontawesome.com License - https://fontawesome.com/license (Commercial License) Copyright 2023 Fonticons, Inc. --><path d="M276.6 25.4L254 2.7 231.4 25.4l-56 56L152.7 104 198 149.3l22.6-22.6 1.4-1.4V224H123.3l1.4-1.4L147.3 200 102 154.7 79.4 177.4l-56 56L.7 256l22.6 22.6 56 56L102 357.3 147.3 312l-22.6-22.6-1.4-1.4H222v98.7l-1.4-1.4L198 362.7 152.7 408l22.6 22.6 56 56L254 509.3l22.6-22.6 56-56L355.3 408 310 362.7l-22.6 22.6-1.4 1.4V288h98.7l-1.4 1.4L360.7 312 406 357.3l22.6-22.6 56-56L507.3 256l-22.6-22.6-56-56L406 154.7 360.7 200l22.6 22.6 1.4 1.4H286V125.3l1.4 1.4L310 149.3 355.3 104 332.6 81.4l-56-56z"/></svg>