<svg xmlns="http://www.w3.org/2000/svg" viewBox="0 0 576 512"><!--! Font Awesome Pro 6.3.0 by @fontawesome - https://fontawesome.com License - https://fontawesome.com/license (Commercial License) Copyright 2023 Fonticons, Inc. --><path d="M516.6 278.6L539.3 256l-22.6-22.6-128-128L366 82.7 320.7 128l22.6 22.6L416.7 224 206 224l-32 0 0 64 32 0 210.7 0-73.4 73.4L320.7 384 366 429.3l22.6-22.6 128-128zM174 96l32 0 0-64-32 0L46 32 14 32l0 32 0 384 0 32 32 0 128 0 32 0 0-64-32 0-96 0L78 96l96 0z"/></svg>