<svg xmlns="http://www.w3.org/2000/svg" viewBox="0 0 576 512"><!--! Font Awesome Pro 6.3.0 by @fontawesome - https://fontawesome.com License - https://fontawesome.com/license (Commercial License) Copyright 2023 Fonticons, Inc. --><path d="M134 479.4l23.6-25.7 88-96L267.2 334 220 290.8l-21.6 23.6L166 349.7V64 32H102V64 349.7L69.6 314.4 48 290.8 .8 334l21.6 23.6 88 96L134 479.4zM294 32V96h32 52l-73 63.9L294 169.5V184v8 32h32H454h32V160H454 402l73-63.9L486 86.5V72 64 32H454 326 294zm75.5 224l-8.6 18.7-88 192L266.8 480h70.4l14.7-32h76.3l14.7 32h70.4l-6.1-13.3-88-192L410.5 256H369.5zM390 364.8L406.1 400H373.9L390 364.8z"/></svg>