<svg xmlns="http://www.w3.org/2000/svg" viewBox="0 0 576 512"><!--! Font Awesome Pro 6.3.0 by @fontawesome - https://fontawesome.com License - https://fontawesome.com/license (Commercial License) Copyright 2023 Fonticons, Inc. --><path d="M157.6 453.6L134 479.4l-23.6-25.7-88-96L.8 334 48 290.8l21.6 23.6L102 349.7V64 32h64V64 349.7l32.4-35.4L220 290.8 267.2 334l-21.6 23.6-88 96zM326 288H454h32v32 8 14.5l-10.9 9.6L402 416h52 32v64H454 326 294V448v-8V425.5l10.9-9.6L378 352H326 294V288h32zM369.5 32h41.1l8.6 18.7 88 192 6.1 13.3H442.8l-14.7-32H351.9l-14.7 32H266.8l6.1-13.3 88-192L369.5 32zm4.4 144h32.3L390 140.8 373.9 176z"/></svg>