<svg xmlns="http://www.w3.org/2000/svg" viewBox="0 0 576 512"><!--! Font Awesome Pro 6.3.0 by @fontawesome - https://fontawesome.com License - https://fontawesome.com/license (Commercial License) Copyright 2023 Fonticons, Inc. --><path d="M294 32h32H454h32V64v8V86.5l-10.9 9.6L402 160h52 32v64H454 326 294V192v-8V169.5l10.9-9.6L378 96H326 294V32zm-160 .6l23.6 25.7 88 96L267.2 178 220 221.2l-21.6-23.6L166 162.3V448v32H102V448 162.3L69.6 197.6 48 221.2 .8 178l21.6-23.6 88-96L134 32.6zM369.5 256h41.1l8.6 18.7 88 192 6.1 13.3H442.8l-14.7-32H351.9l-14.7 32H266.8l6.1-13.3 88-192 8.6-18.7zM390 364.8L373.9 400h32.3L390 364.8z"/></svg>