<svg xmlns="http://www.w3.org/2000/svg" viewBox="0 0 576 512"><!--! Font Awesome Pro 6.3.0 by @fontawesome - https://fontawesome.com License - https://fontawesome.com/license (Commercial License) Copyright 2023 Fonticons, Inc. --><path d="M420.6 57.4L398 34.7 375.4 57.4l-96 96L256.7 176 302 221.3l22.6-22.6L366 157.3V448v32h64V448 157.3l41.4 41.4L494 221.3 539.3 176l-22.6-22.6-96-96zm-256 397.3l96-96L283.3 336 238 290.7l-22.6 22.6L174 354.7V64 32H110V64 354.7L68.6 313.4 46 290.7 .7 336l22.6 22.6 96 96L142 477.3l22.6-22.6z"/></svg>