<svg xmlns="http://www.w3.org/2000/svg" viewBox="0 0 640 512"><!--! Font Awesome Pro 6.3.0 by @fontawesome - https://fontawesome.com License - https://fontawesome.com/license (Commercial License) Copyright 2023 Fonticons, Inc. --><path d="M320 15L286 3l-6 17-1.5 4.2c-8-.5-16.2 .1-24.4 2c-9 2.1-17.8 4.4-26.2 7l-4.4-10.3L216.5 6.4 183.4 20.5l7.1 16.5 3.6 8.5c-16.5 7.1-31.5 15.1-45.2 23.9L144 62 134 47 104 67l10 15 5.8 8.7c-13.5 11.2-25.3 23.1-35.5 35.3l-10.1-8.1L60.2 106.7 37.7 134.8l14.1 11.2L63 155c-1.6 2.4-3.1 4.8-4.5 7.3c-7.1 11.8-12.8 23.2-17.4 34l-7.4-3L17 186.6 3.6 220l16.7 6.7 8.7 3.5c-.2 .8-.4 1.6-.7 2.3c-2.6 9.4-4.2 17.4-5.3 23.5c-.5 3.1-.9 5.7-1.2 7.7c-.1 1-.2 2-.3 2.7l-.1 1.1 0 .5 0 .2 0 .1c0 0 0 .1 29.5 2.8l0 0-29.5-2.7c-.4 4.4-.5 8.8-.2 13.2L17 283 0 289 12 323l17-6 2.2-.8c8 14.7 20.3 26.8 35.4 34.6L63.7 361l-4.9 17.3 34.6 9.9 4.9-17.3 3.1-11c17.8 .8 34.7-4.1 48.8-13.2l8 8L171 367.5 196.5 342l-12.7-12.7-8-8c6.8-10.6 11.3-22.9 12.7-36.2l.1-.6c.2-1.3 .7-3.8 1.7-7.4l.2-.6 9.4 4 16.5 7.1 14.2-33.1-16.5-7.1-8.5-3.6c7.5-11.1 18.7-23.7 36.5-34.5l1.6 5.6 4.9 17.3 34.6-9.9-4.9-17.3-3-10.6c5.2-1.7 10.7-3.2 16.6-4.6c9.7-2.2 18.5-6 26.4-11.1l8 8L339 199.5 364.4 174l-12.7-12.7-8-8c9.1-14.3 14-31.2 13.2-48.8l11-3.1 17.3-4.9-9.9-34.6L358 66.7l-10.3 2.9c-7.8-15.2-20-27.5-34.6-35.4L314 32l6-17zM103.2 275.8l-32.4-2.9 0 0 32.4 3zM125 192a32 32 0 1 1 0 64 32 32 0 1 1 0-64zm64-48a16 16 0 1 1 32 0 16 16 0 1 1 -32 0zM320 480l-6 17L348 509l6-17 1.5-4.2c8 .5 16.2-.1 24.4-2c9-2.1 17.8-4.4 26.2-7l4.4 10.3 7.1 16.5 33.1-14.2-7.1-16.5-3.6-8.5c16.5-7.1 31.5-15.1 45.2-23.9l5 7.4 10 15 30-20-10-15-5.8-8.7c13.5-11.2 25.3-23.1 35.5-35.3l10.1 8.1 14.1 11.2 22.5-28.1-14.1-11.2L571 357c1.6-2.4 3.1-4.8 4.5-7.3c7.1-11.8 12.8-23.2 17.4-34l7.4 3 16.7 6.7L630.4 292l-16.7-6.7-8.7-3.5c.2-.8 .4-1.6 .7-2.3c2.6-9.4 4.2-17.4 5.3-23.5c.5-3.1 .9-5.7 1.2-7.7c.1-1 .2-2 .3-2.7l.1-1.1 0-.5 0-.2 0-.1c0 0 0-.1-29.5-2.8l0 0 29.5 2.7c.4-4.4 .5-8.8 .2-13.2L617 229l17-6L622 189l-17 6-2.2 .8c-8-14.7-20.3-26.8-35.4-34.6l2.9-10.3 4.9-17.3-34.6-9.9-4.9 17.3-3.1 11c-17.8-.8-34.7 4.1-48.8 13.2l-8-8L463 144.5 437.5 170l12.7 12.7 8 8c-6.8 10.6-11.3 22.9-12.7 36.2l-.1 .6c-.2 1.3-.7 3.8-1.7 7.4l-.2 .6-9.4-4-16.5-7.1-14.2 33.1 16.5 7.1 8.5 3.6c-7.5 11.1-18.7 23.7-36.5 34.5l-1.6-5.6-4.9-17.3-34.6 9.9 4.9 17.3 3 10.6c-5.2 1.7-10.7 3.2-16.6 4.6c-9.7 2.2-18.5 6-26.4 11.1l-8-8L295 312.5 269.5 338l12.7 12.7 8 8c-9.1 14.2-14 31.2-13.2 48.8l-11 3.1-17.3 4.9 9.9 34.6 17.3-4.9 10.3-2.9c7.8 15.2 20 27.5 34.6 35.4L320 480zM563.2 239.1l0 0-32.4-3 32.4 2.9zM445 384a32 32 0 1 1 -64 0 32 32 0 1 1 64 0z"/></svg>