<svg xmlns="http://www.w3.org/2000/svg" viewBox="0 0 640 512"><!--! Font Awesome Pro 6.3.0 by @fontawesome - https://fontawesome.com License - https://fontawesome.com/license (Commercial License) Copyright 2023 Fonticons, Inc. --><path d="M0 30.1H30.1 391.5h30.1V60.2 112c-29.7 24.1-57.9 49.2-83 78.2c-20.5 23.6-41.1 51-54 80.9H60.2v60.2 60.2H281.3c7.9 22.4 20.1 42.8 35.7 60.2H30.1 0V421.6 331.3 240.9 210.8 60.2 30.1zM271.1 331.4c0 10.2 .8 20.2 2.5 30H120.5 90.4V301.2h30.1H274.6c-2.3 9.9-3.5 20-3.5 30.3zM482.8 210.9C499 192.6 512 180.8 512 180.8s90.4 81.3 90.4 150.6c0 83.2-67.4 150.6-150.6 150.6s-150.6-67.4-150.6-150.6s120.5-180.7 120.5-180.7s30.7 24.9 61.1 60.2zm16 196.6c28.2-19.8 35.8-59.3 18.8-90.4c-1.9-3.8-3.8-7.5-6.6-11.3l-33.9 39.5s-54.6-69.6-58.4-74.4c-28.2 34.8-42.4 54.6-42.4 77.2c0 46.1 33.9 73.4 76.2 73.4c16.9 0 32-4.7 46.1-14.1z"/></svg>