<svg xmlns="http://www.w3.org/2000/svg" viewBox="0 0 384 512"><!--! Font Awesome Pro 6.3.0 by @fontawesome - https://fontawesome.com License - https://fontawesome.com/license (Commercial License) Copyright 2023 Fonticons, Inc. --><path d="M150 0l51.2 38.4 128 96L363.3 160l-34.1 25.6L235.3 256l93.9 70.4L363.3 352l-34.1 25.6-128 96L150 512V448 320L73.2 377.6 47.6 396.8 9.2 345.6l25.6-19.2L128.7 256 34.8 185.6 9.2 166.4l38.4-51.2 25.6 19.2L150 192V64 0zm64 320v64l42.7-32L214 320zm0-128l42.7-32L214 128v64z"/></svg>