<svg xmlns="http://www.w3.org/2000/svg" viewBox="0 0 512 512"><!--! Font Awesome Pro 6.3.0 by @fontawesome - https://fontawesome.com License - https://fontawesome.com/license (Commercial License) Copyright 2023 Fonticons, Inc. --><path d="M138 273.1c-19.5 11.3-35.7 27.5-46.9 46.9H312.9c-11.2-19.4-27.4-35.6-46.9-46.9l-32-18.5V217.7 64H170V217.7v36.9l-32 18.5zm228.6 12.2C384 314.1 394 347.9 394 384c0 49.2-18.5 94-48.9 128H58.9C28.5 478 10 433.2 10 384c0-71.1 38.6-133.1 96-166.3V64H74V0h32 64 64 64 32V64H298V217.7c14.2 8.2 27.2 18.2 38.8 29.6L376.1 208l-7-7-17-17L386 150.1l17 17 24 24 24 24 17 17L434 265.9l-17-17-7-7-43.3 43.3z"/></svg>