<svg xmlns="http://www.w3.org/2000/svg" viewBox="0 0 448 512"><!--! Font Awesome Pro 6.3.0 by @fontawesome - https://fontawesome.com License - https://fontawesome.com/license (Commercial License) Copyright 2023 Fonticons, Inc. --><path d="M176 48v64h64V48H176zM80 82.7L34.7 128 80 173.3 125.3 128 80 82.7zM0 224v64H64l0-64H0zM125.3 384L80 338.7 34.7 384 80 429.3 125.3 384zM240 464V400H176v64h64zm50.7-80L336 429.3 381.3 384 336 338.7 290.7 384zM416 224H352v64h64V224zm-34.7-96L336 82.7 290.7 128 336 173.3 381.3 128zM208 352a96 96 0 1 0 0-192 96 96 0 1 0 0 192z"/></svg>