<svg xmlns="http://www.w3.org/2000/svg" viewBox="0 0 512 512"><!--! Font Awesome Pro 6.3.0 by @fontawesome - https://fontawesome.com License - https://fontawesome.com/license (Commercial License) Copyright 2023 Fonticons, Inc. --><path d="M28 192v32H476V192s0-160-224-160S28 192 28 192zm96-80a16 16 0 1 1 0 32 16 16 0 1 1 0-32zm240 16a16 16 0 1 1 32 0 16 16 0 1 1 -32 0zM252 80a16 16 0 1 1 0 32 16 16 0 1 1 0-32zM476 384H28v96H476V384zM174.9 257.9L164 254l-10.9 4-76.9 28L23.2 266 .8 326l64 24 11.1 4.2 11.1-4 77.1-28 77.1 28 10.9 4 10.9-4 77.1-28 77.1 28 11.1 4 11.1-4.2 64-24L480.8 266l-52.9 19.9-76.9-28L340 254l-10.9 4L252 286l-77.1-28z"/></svg>