<svg xmlns="http://www.w3.org/2000/svg" viewBox="0 0 512 512"><!--! Font Awesome Pro 6.3.0 by @fontawesome - https://fontawesome.com License - https://fontawesome.com/license (Commercial License) Copyright 2023 Fonticons, Inc. --><path d="M256 0C380.8 0 480 48 480 48V96v32h32V256H480l0 192H448v64H352V448H160v64H64V448H32V96h0V48s99.2-48 224-48zM32 256H0V128H32l0 128zM272 128V288H416V128H272zm-32 0H96V288H240V128zM112 400a32 32 0 1 0 0-64 32 32 0 1 0 0 64zm288 0a32 32 0 1 0 0-64 32 32 0 1 0 0 64zM352 96V64H336 176 160V96h16H336h16z"/></svg>