<svg xmlns="http://www.w3.org/2000/svg" viewBox="0 0 640 512"><!--! Font Awesome Pro 6.3.0 by @fontawesome - https://fontawesome.com License - https://fontawesome.com/license (Commercial License) Copyright 2023 Fonticons, Inc. --><path d="M58.1 75.8l21.1-5.7L311.1 8l21.1-5.7L345.2 20 423.6 127l40.7-10.9L514 301.5l20.7 77.3-92.7 24.8-20.7-77.3L143 400.9l20.7 77.3L71 503 50.3 425.8 .6 240.3l40.7-10.9L55.7 97.6l2.4-21.8zm248.4-.3L117 126.3l-9.3 85.3 249.6-66.9L306.5 75.5zm-180 263.6a32 32 0 1 0 -16.6-61.8 32 32 0 1 0 16.6 61.8zM427.3 225.4a32 32 0 1 0 -61.8 16.6 32 32 0 1 0 61.8-16.6zM503.9 416c56.4 0 103.1 41.7 110.9 96H393c7.8-54.3 54.4-96 110.9-96z"/></svg>