<svg xmlns="http://www.w3.org/2000/svg" viewBox="0 0 512 512"><!--! Font Awesome Pro 6.3.0 by @fontawesome - https://fontawesome.com License - https://fontawesome.com/license (Commercial License) Copyright 2023 Fonticons, Inc. --><path d="M258 24v80 24H210V104 24 0h48V24zM116.9 160H138 330h21.1l8.3 19.4L406 288h36v96 64 64H362V448H106v64H26V448 384 288H62l46.5-108.6 8.3-19.4zm192 64H159.1l-27.4 64H336.3l-27.4-64zM106 392a24 24 0 1 0 0-48 24 24 0 1 0 0 48zm280-24a24 24 0 1 0 -48 0 24 24 0 1 0 48 0zM34 22.1L51 39 99 87l17 17L82 137.9 65 121 17 73 .1 56 34 22.1zM417 39l17-17L467.9 56 451 73l-48 48-17 17L352.1 104l17-17 48-48z"/></svg>