<svg xmlns="http://www.w3.org/2000/svg" viewBox="0 0 640 512"><!--! Font Awesome Pro 6.3.0 by @fontawesome - https://fontawesome.com License - https://fontawesome.com/license (Commercial License) Copyright 2023 Fonticons, Inc. --><path d="M331 11.7l272 144 28.3 15-29.9 56.6-28.3-15L316 76.2 59 212.3l-28.3 15L.7 170.7l28.3-15 272-144 15-7.9 15 7.9zM198.9 160H220 412h21.1l8.3 19.4L488 288h36v96 64 64H444V448H188v64H108V448 384 288h36l46.5-108.6 8.3-19.4zm192 64H241.1l-27.4 64H418.3l-27.4-64zM188 392a24 24 0 1 0 0-48 24 24 0 1 0 0 48zm280-24a24 24 0 1 0 -48 0 24 24 0 1 0 48 0z"/></svg>