<svg xmlns="http://www.w3.org/2000/svg" viewBox="0 0 448 512"><!--! Font Awesome Pro 6.3.0 by @fontawesome - https://fontawesome.com License - https://fontawesome.com/license (Commercial License) Copyright 2023 Fonticons, Inc. --><path d="M48 128C21.5 128 0 106.5 0 80C0 48 48 0 48 0s48 48 48 80s-21.5 48-48 48zm160 0c-26.5 0-48-21.5-48-48c0-32 48-80 48-80s48 48 48 80s-21.5 48-48 48zM416 80c0 32-21.5 48-48 48s-48-21.5-48-48c0-32 48-80 48-80s48 48 48 80zM90.9 160H112 304h21.1l8.3 19.4L380 288h36v96 64 64H336V448H80v64H0V448 384 288H36L82.6 179.4 90.9 160zm192 64H133.1l-27.4 64H310.3l-27.4-64zM80 392a24 24 0 1 0 0-48 24 24 0 1 0 0 48zm280-24a24 24 0 1 0 -48 0 24 24 0 1 0 48 0z"/></svg>