<svg xmlns="http://www.w3.org/2000/svg" viewBox="0 0 576 512"><!--! Font Awesome Pro 6.3.0 by @fontawesome - https://fontawesome.com License - https://fontawesome.com/license (Commercial License) Copyright 2023 Fonticons, Inc. --><path d="M77 0c32.8 0 61 19.7 73.3 48H387.7C400 19.7 428.2 0 461 0c12.5 0 24.4 2.9 34.9 8c19.6 9.5 34.8 26.9 41.4 48H509 482.2 461v48h21.2H509h28.3c-6.6 21.1-21.8 38.5-41.4 48c-10.6 5.1-22.4 8-34.9 8c-32.8 0-61-19.7-73.3-48H150.3C138 140.3 109.8 160 77 160c-12.5 0-24.4-2.9-34.9-8C22.4 142.5 7.3 125.1 .7 104H29 55.8 77V56H55.8 29 .7C7.3 34.9 22.4 17.5 42.1 8C52.6 2.9 64.5 0 77 0zm65.4 160H165 373h22.6l7.6 21.2L441.3 288H477v96 64 64H397V448H141v64H61V448 384 288H96.7l38.1-106.8 7.6-21.2zm208 64H187.6l-22.9 64H373.3l-22.9-64zM141 392a24 24 0 1 0 0-48 24 24 0 1 0 0 48zm280-24a24 24 0 1 0 -48 0 24 24 0 1 0 48 0z"/></svg>