<svg xmlns="http://www.w3.org/2000/svg" viewBox="0 0 384 512"><!--! Font Awesome Pro 6.3.0 by @fontawesome - https://fontawesome.com License - https://fontawesome.com/license (Commercial License) Copyright 2023 Fonticons, Inc. --><path d="M250 32V0H186V32 66.7C95.2 81.9 26 160.9 26 256s69.2 174.1 160 189.3V480v32h64V480 445.3c49.6-8.3 92.7-35.6 121.6-74.1l-51.2-38.4c-17.2 22.9-41.9 39.8-70.4 47.2V132c28.5 7.3 53.2 24.2 70.4 47.2l51.2-38.4C342.7 102.3 299.6 75 250 66.7V32zM186 132V380c-55.2-14.2-96-64.3-96-124s40.8-109.8 96-124z"/></svg>