<svg xmlns="http://www.w3.org/2000/svg" viewBox="0 0 640 512"><!--! Font Awesome Pro 6.3.0 by @fontawesome - https://fontawesome.com License - https://fontawesome.com/license (Commercial License) Copyright 2023 Fonticons, Inc. --><path d="M157 128A64 64 0 1 0 157 0a64 64 0 1 0 0 128zm-41.5 32H99.3l-9.6 13.1-70.5 96L.3 294.9l51.6 37.9 18.9-25.8L85 287.6v.4 2.3L53 400H85v80 32h64V480 400h16v80 32h64V480 400h32L229 290.3V288v-.4l14.2 19.3 18.9 25.8 51.6-37.9-18.9-25.8-70.5-96L214.7 160H198.5h-83zM477 128A64 64 0 1 0 477 0a64 64 0 1 0 0 128zm-41.5 32H419.3l-9.6 13.1-70.5 96-18.9 25.8 51.6 37.9 18.9-25.8L405 287.6V480v32h64V480 384h16v96 32h64V480 287.6l14.2 19.3 18.9 25.8 51.6-37.9-18.9-25.8-70.5-96L534.7 160H518.5h-83z"/></svg>