<svg xmlns="http://www.w3.org/2000/svg" viewBox="0 0 576 512"><!--! Font Awesome Pro 6.3.0 by @fontawesome - https://fontawesome.com License - https://fontawesome.com/license (Commercial License) Copyright 2023 Fonticons, Inc. --><path d="M160 128A64 64 0 1 0 160 0a64 64 0 1 0 0 128zm-43.1 32h-16l-9.6 12.8-72.1 96L0 294.4l51.2 38.4 19.2-25.6L80 294.4V480v32h64V480 384h32v96 32h64V480 294.4l9.6 12.8 19.2 25.6L320 294.4l-19.2-25.6-72.1-96L219.1 160h-16H116.9zM448 0H432 400 384V32h16v96H384v64H352V400h48V512h96L468 400h60V352H464V325.3L528 304V192H480v72l-16 5.3V128H448V0z"/></svg>