<svg xmlns="http://www.w3.org/2000/svg" viewBox="0 0 640 512"><!--! Font Awesome Pro 6.3.0 by @fontawesome - https://fontawesome.com License - https://fontawesome.com/license (Commercial License) Copyright 2023 Fonticons, Inc. --><path d="M224 96h16 32 96 96 32 16v32H496 480v32h91.2l44-29.3L640 114.1V144 336v29.9l-24.9-16.6-44-29.3H96 92.9l-2.9-1.1-80-32L0 282.8V272 208 197.2l10.1-4 80-32 2.9-1.1H96 256V128H240 224V96zm224 32H384v32h64V128zm-96 0H288v32h64V128zM272 264a24 24 0 1 0 0-48 24 24 0 1 0 0 48zm120-24a24 24 0 1 0 -48 0 24 24 0 1 0 48 0zm72 24a24 24 0 1 0 0-48 24 24 0 1 0 0 48z"/></svg>