<svg xmlns="http://www.w3.org/2000/svg" viewBox="0 0 576 512"><!--! Font Awesome Pro 6.3.0 by @fontawesome - https://fontawesome.com License - https://fontawesome.com/license (Commercial License) Copyright 2023 Fonticons, Inc. --><path d="M78 2.7l22.6 22.6 80 80 64 64 160 160 64 64 48 48L539.3 464 494 509.3l-22.6-22.6L432.7 448H382 350V416 365.3L208.7 224H158 126V192 141.3L55.4 70.6 32.7 48 78 2.7zm0 224l22.6 22.6 48 48 96 96 48 48L315.3 464 270 509.3l-22.6-22.6L208.7 448H126 94V416 333.3L55.4 294.6 32.7 272 78 226.7zM324.6 25.4l16 16 64 64 64 64 64 64 16 16L571.3 272 526 317.3l-22.6-22.6-6.6-6.6H446 414V256 205.3L368.7 160H318 286V128 77.3l-6.6-6.6L256.7 48 302 2.7l22.6 22.6z"/></svg>