<svg xmlns="http://www.w3.org/2000/svg" viewBox="0 0 640 512"><!--! Font Awesome Pro 6.3.0 by @fontawesome - https://fontawesome.com License - https://fontawesome.com/license (Commercial License) Copyright 2023 Fonticons, Inc. --><path d="M550 11.4c-49 4.4-87.4 45.5-87.4 95.6c0 53 43 96 96 96c18.9 0 36.5-5.5 51.4-14.9C588.5 228.5 546 256 497 256l-1.3 0c-5.4-37.8-29.7-69.5-63-85.3c-1.8-38.6-23.1-72.1-54.4-90.9C397.4 33 443.4 0 497 0c18.9 0 36.9 4.1 53 11.5zM464.9 351.9l-80 0H369V320H292.5l40-128h-51L81 344.3v7.6H17v-96c0-47.6 34.6-87 80-94.6l0-1.3c0-53 43-96 96-96c34.9 0 65.4 18.6 82.2 46.4c13-9.1 28.8-14.4 45.8-14.4c44.2 0 80 35.8 80 80c0 5.9-.6 11.7-1.9 17.2c37.4 6.7 65.8 39.4 65.8 78.7v80zM161 512l40-128H113V360L289 224 249 352h88v24L161 512z"/></svg>