<svg xmlns="http://www.w3.org/2000/svg" viewBox="0 0 512 512"><!--! Font Awesome Pro 6.3.0 by @fontawesome - https://fontawesome.com License - https://fontawesome.com/license (Commercial License) Copyright 2023 Fonticons, Inc. --><path d="M401 71.7c1 .9 1.9 1.8 2.9 2.8c74.2 74.2 54.2 214.6-44.8 313.6C272 475.3 152.7 501.2 74.7 455.5l68.4-124.3L331.9 205.3l3.5-2.4 1.9-3.8L401 71.7zM48.9 436.1c-1.1-1.1-2.2-2.1-3.3-3.2C-28.7 358.7-8.6 218.3 90.3 119.3C177.6 32 297.1 6.1 375 52.2L310.6 181 122.1 306.7l-3.3 2.2-1.9 3.4L48.9 436.1z"/></svg>