<svg xmlns="http://www.w3.org/2000/svg" viewBox="0 0 576 512"><!--! Font Awesome Pro 6.3.0 by @fontawesome - https://fontawesome.com License - https://fontawesome.com/license (Commercial License) Copyright 2023 Fonticons, Inc. --><path d="M298.3 82.7l-30-60.1C319.7-16.7 403.1-4 461.4 54.4c56.4 56.4 70.2 136.2 35.5 188L468 184.5 298.3 82.7zm-24.5 22.6L443.5 207.1l30 60.1c-51.5 39.2-134.8 26.5-193.2-31.8C224 179 210.2 99.2 244.9 47.4l28.9 57.9zM90.8 250.9l-1.5 4.4 1.1 4.5 46.9 187.5-21.2 63.7C52 502.4 2 434.5 2 352c0-79.8 46.7-145.9 107.8-158l-19 57zm31.8 5.7l21.2-63.7C208 201.6 258 269.5 258 352c0 79.8-46.7 145.9-107.8 158l19-57 1.5-4.4-1.1-4.5L122.7 256.6z"/></svg>