<svg xmlns="http://www.w3.org/2000/svg" viewBox="0 0 384 512"><!--! Font Awesome Pro 6.3.0 by @fontawesome - https://fontawesome.com License - https://fontawesome.com/license (Commercial License) Copyright 2023 Fonticons, Inc. --><path d="M249.2 23.3l-9.8 41.9c9.9 1.1 19.6 3 29 5.5l14.5-62 62.3 14.5L327.6 98.4c16.8 11.7 31.7 26 43.9 42.4l-51.2 38.4c-2.8-3.8-5.9-7.4-9.1-10.8L262.9 375.9c23.1-8.6 43-23.7 57.5-43.1l51.2 38.4c-29.6 39.4-74 67-125 74.6l-13.4 57.4-62.3-14.5 10.3-44.3c-9.8-1.9-19.3-4.5-28.4-7.9l-15.6 66.7L74.8 488.7l19.9-85.5C52.7 368 26 315.1 26 256C26 165.6 88.5 89.7 172.7 69.4L186.8 8.7l62.3 14.5zM195.7 382.1l58.1-249c-9.3-2.7-19.1-4.4-29.1-4.9L167.4 373.6c9 3.9 18.4 6.7 28.3 8.5zM90 256c0 26.8 8.2 51.6 22.3 72.2l42.9-183.7C116.3 166.4 90 208.1 90 256z"/></svg>