<svg xmlns="http://www.w3.org/2000/svg" viewBox="0 0 576 512"><!--! Font Awesome Pro 6.3.0 by @fontawesome - https://fontawesome.com License - https://fontawesome.com/license (Commercial License) Copyright 2023 Fonticons, Inc. --><path d="M134 0C63.3 0 6 57.3 6 128l0 64v15.4l13.9 6.4 85 39.2c-3.7 6-6.9 12.4-9.6 19H57.8L29.2 257.7l-14.3-7.2L.5 279.2l14.3 7.2 32 16 3.4 1.7H54 87c-.7 5.2-1 10.6-1 16v9.8l-21.1 7L61.4 338l-2.7 2.7-32 32L15.4 384 38 406.6l11.3-11.3L78.6 366l28-9.3 30.7 30.7L96.9 400.8 93.4 402l-2.7 2.7-32 32L47.4 448 70 470.6l11.3-11.3L110.6 430l52-17.3 15.7 15.7-36.6 21.9-7.8 4.7V464v32 16h32V496 473.1L207.8 448H316.2L358 473.1V496v16h32V496 464v-9.1l-7.8-4.7-36.6-21.9 15.7-15.7 52 17.3 29.3 29.3L454 470.6 476.6 448l-11.3-11.3-32-32-2.7-2.7-3.6-1.2-40.4-13.5 30.7-30.7 28 9.3 29.3 29.3L486 406.6 508.6 384l-11.3-11.3-32-32-2.7-2.7-3.6-1.2-21.1-7V320c0-5.4-.3-10.8-1-16h33 3.8l3.4-1.7 32-16 14.3-7.2-14.3-28.6-14.3 7.2L466.2 272H428.7c-2.7-6.6-5.9-13-9.6-19l85-39.2 13.9-6.4V192 128C518 57.3 460.7 0 390 0H326l64 64H326c0 35.3 28.7 64 64 64h80v48.6L384.7 216c-16.9-12.2-37-20.3-58.7-23V144 128H294v16 48H230V144 128H198v16 49c-21.7 2.7-41.7 10.9-58.7 23L54 176.6V128h80c35.3 0 64-28.7 64-64H134L198 0H134z"/></svg>