<svg xmlns="http://www.w3.org/2000/svg" viewBox="0 0 640 512"><!--! Font Awesome Pro 6.3.0 by @fontawesome - https://fontawesome.com License - https://fontawesome.com/license (Commercial License) Copyright 2023 Fonticons, Inc. --><path d="M258 16V0H226V16 40c0 30.9 25.1 56 56 56h16 24l-48 16v32h40l-9.6 32H226 198.3 130 115.9h-7.9C53.7 176 8.6 217.8 4.4 272L2.1 302.2 .2 326.1l47.9 3.7 1.8-23.3c2.4 3.3 5.2 6.5 8.1 9.5L74.1 332 48.1 358.1 26.7 379.4 36.7 408 73.5 512H175.3L137.3 404.6l26.6-26.6L178 363.9V344v-1.9c20.9 16.2 47.2 25.9 75.7 25.9H290V512h96V368 304l26.7-80H418h96V175.2c2.6 .5 5.3 .8 8 .8c22.1 0 40-17.9 40-40s-17.9-40-40-40c-19.6 0-35.9 14.1-39.3 32.7L445.4 91.4c-.6-.6-1.1-1.1-1.7-1.6C461.7 80.4 474 61.7 474 40V16 0H442V16 40c0 13.3-10.7 24-24 24H379.2 348.6c3.5-7.3 5.4-15.4 5.4-24V16 0H322V16 40c0 13.3-10.7 24-24 24H282c-13.3 0-24-10.7-24-24V16zM386 144a16 16 0 1 1 32 0 16 16 0 1 1 -32 0z"/></svg>