<svg xmlns="http://www.w3.org/2000/svg" viewBox="0 0 512 512"><!--! Font Awesome Pro 6.3.0 by @fontawesome - https://fontawesome.com License - https://fontawesome.com/license (Commercial License) Copyright 2023 Fonticons, Inc. --><path d="M507.3 48L484.6 70.6l-24 24L438 117.3 392.7 72l22.6-22.6 24-24L462 2.7 507.3 48zm-304 304l-22.6 22.6-112 112L46 509.3 .7 464l22.6-22.6 112-112L158 306.7 203.3 352zM238 128c-61.9 0-112 50.1-112 112H62c0-97.2 78.8-176 176-176s176 78.8 176 176c0 54.7-25 103.5-64 135.8V400c0 61.9-50.1 112-112 112H206V448h32c26.5 0 48-21.5 48-48V359.8 342.7l14.2-9.5C330.3 313 350 278.8 350 240c0-61.9-50.1-112-112-112zM206 240H158c0-44.2 35.8-80 80-80s80 35.8 80 80H270c0-17.7-14.3-32-32-32s-32 14.3-32 32z"/></svg>