<svg xmlns="http://www.w3.org/2000/svg" viewBox="0 0 448 512"><!--! Font Awesome Pro 6.3.0 by @fontawesome - https://fontawesome.com License - https://fontawesome.com/license (Commercial License) Copyright 2023 Fonticons, Inc. --><path d="M48 240l32 0 0 32-32 0 0-32zM0 272l0 48 48 0 32 0 48 0 0-48 0-32 0-48-48 0-32 0L0 192l0 48 0 32zm208-32l32 0 0 32-32 0 0-32zm-48 32l0 48 48 0 32 0 48 0 0-48 0-32 0-48-48 0-32 0-48 0 0 48 0 32zm208 0l0-32 32 0 0 32-32 0zm-48 48l48 0 32 0 48 0 0-48 0-32 0-48-48 0-32 0-48 0 0 48 0 32 0 48z"/></svg>