<svg xmlns="http://www.w3.org/2000/svg" viewBox="0 0 512 512"><!--! Font Awesome Pro 6.3.0 by @fontawesome - https://fontawesome.com License - https://fontawesome.com/license (Commercial License) Copyright 2023 Fonticons, Inc. --><path d="M426.4 121.9l67.2-67.2L448.4 9.4 381.2 76.6C343.8 48.6 297.3 32 247 32C123.3 32 23 132.3 23 256c0 50.3 16.6 96.8 44.6 134.2L.4 457.4l45.3 45.3 67.2-67.2c37.4 28 83.8 44.6 134.1 44.6c123.7 0 224-100.3 224-224c0-50.3-16.6-96.8-44.6-134.1zm-91.2 .7L113.5 344.2C96.8 318.9 87 288.6 87 256c0-88.4 71.6-160 160-160c32.6 0 62.9 9.8 88.2 26.5zm-176.5 267L380.5 167.8C397.2 193.1 407 223.4 407 256c0 88.4-71.6 160-160 160c-32.6 0-62.9-9.8-88.2-26.5z"/></svg>