<svg xmlns="http://www.w3.org/2000/svg" viewBox="0 0 576 512"><!--! Font Awesome Pro 6.3.0 by @fontawesome - https://fontawesome.com License - https://fontawesome.com/license (Commercial License) Copyright 2023 Fonticons, Inc. --><path d="M530 315.8c4.6-19.2 7-39.2 7-59.8C537 114.6 422.4 0 281 0S25 114.6 25 256c0 20.6 2.4 40.7 7 59.9L43.3 306l20.6-18 21 17.5c57.5 48 87.8 118 98 187C213.1 505.1 246.2 512 281 512c34.8 0 68-6.9 98.2-19.5c10.2-69 40.4-139 98-187l21-17.5 20.6 18 11.3 9.8zM281 320c26.5 0 48 21.5 48 48v32c0 26.5-21.5 48-48 48s-48-21.5-48-48V368c0-26.5 21.5-48 48-48zm-46.6-77c-22.5 36.9-62.8 54.7-90.1 39.8s-31.1-56.9-8.7-93.7s62.8-54.7 90.1-39.8s31.1 56.9 8.7 93.7zm183.4 39.8c-27.3 14.9-67.6-2.9-90.1-39.8s-18.6-78.8 8.6-93.7s67.6 2.9 90.1 39.8s18.6 78.8-8.6 93.7zM153 512c-7-68.4-34.8-137-88.7-181.9L.1 386.2c26.4 40 43.6 75.3 43.2 125.7L153 512zm365.7 0c-.4-50.5 16.7-85.7 43.2-125.7l-64.3-56.2C443.8 375 416 443.6 409 512l109.8 0z"/></svg>