<svg xmlns="http://www.w3.org/2000/svg" viewBox="0 0 576 512"><!--! Font Awesome Pro 6.3.0 by @fontawesome - https://fontawesome.com License - https://fontawesome.com/license (Commercial License) Copyright 2023 Fonticons, Inc. --><path d="M512.4 273.6C503.4 406.8 392.5 512 257 512C115.6 512 1 397.4 1 256S115.6 0 257 0C360.8 0 450.2 61.8 490.4 150.7l-6 5.8L307 328.5c-14.7-5.2-31.3-8.5-50-8.5c-71.6 0-113.7 47.7-126.3 72.8l28.6 14.3c8.7-17.5 41.3-55.2 97.7-55.2s88.9 37.7 97.7 55.2l28.6-14.3c-2-4-4.8-8.7-8.3-13.6l10.3-10-24.8-24.8L352 336l17-17 8.5 8.5 25.1 25.1 15.3-14.8-25.4-25.4L384 304l17-17 8.5 8.5 25.7 25.7 15.3-14.8-25.9-25.9L416 272l17-17 8.5 8.5 26.2 26.2L483 275l-26.5-26.5L448 240l17-17 8.5 8.5 26.8 26.8 12.6-12.1c.1 3.3 .2 6.6 .2 9.9c0 4.9-.1 9.8-.4 14.6L514 272l-1.6 1.6zM177.4 240a32 32 0 1 0 0-64 32 32 0 1 0 0 64zm192-32a32 32 0 1 0 -64 0 32 32 0 1 0 64 0z"/></svg>