<svg xmlns="http://www.w3.org/2000/svg" viewBox="0 0 576 512"><!--! Font Awesome Pro 6.3.0 by @fontawesome - https://fontawesome.com License - https://fontawesome.com/license (Commercial License) Copyright 2023 Fonticons, Inc. --><path d="M361.7 479.7c115.2-66.5 154.7-213.9 88.2-329.1S236-4.1 120.8 62.4S-34 276.3 32.6 391.5c34.1 59 89.3 98.2 150.6 113.4c-10.9-14.9-17.3-33.3-17.3-53.1V409.9c-15-9.9-28.5-22.6-39.4-37.8L386.1 222.2c27.7 61.3 11 133.3-39.4 176.4v53.2c0 14.5-3.4 28.2-9.5 40.3c8.3-3.6 16.5-7.7 24.5-12.4zm-241-299a60.2 60.2 0 1 1 0 120.5 60.2 60.2 0 1 1 0-120.5zm105.4-7.5a67.8 67.8 0 1 1 135.5 0 67.8 67.8 0 1 1 -135.5 0zm90.4 278.6V391.5H271.3v22.6H241.2V391.5H196v60.2c0 33.3 27 60.2 60.2 60.2s60.2-27 60.2-60.2zM143.3 240.9a22.6 22.6 0 1 0 -45.2 0 22.6 22.6 0 1 0 45.2 0zm135.5-52.7a30.1 30.1 0 1 0 0-60.2 30.1 30.1 0 1 0 0 60.2z"/></svg>