<svg xmlns="http://www.w3.org/2000/svg" viewBox="0 0 640 512"><!--! Font Awesome Pro 6.3.0 by @fontawesome - https://fontawesome.com License - https://fontawesome.com/license (Commercial License) Copyright 2023 Fonticons, Inc. --><path d="M319 512c-32.1 0-62.8-5.9-91.1-16.7c17-21.6 27.1-48.9 27.1-78.5V386c18.1 8.4 39.4 14 64 14s45.9-5.6 64-14v30.8c0 29.6 10.1 56.9 27.1 78.5c-28.3 10.8-59 16.7-91.1 16.7zM319 0C459.1 0 572.9 112.5 575 252.1l-1.3-1.3L551 228.1l-22.6 22.6-51.7 51.7H455 415 383v32 15.2c-16.8 10.6-38.1 18.4-64 18.4s-47.2-7.7-64-18.4V334.4v-32H223 183 161.3l-51.7-51.7L87 228.1 64.4 250.7 63 252.1C65.1 112.5 178.9 0 319 0zM239 152c-28 0-56 40-56 80c0 0 28-32 56-32s56 32 56 32c0-40-28-80-56-80zm104 80s28-32 56-32s56 32 56 32c0-40-28-80-56-80s-56 40-56 80zM75.7 307.3L64.4 296 87 273.4l11.3 11.3L183 369.4v-15-20h40v20V384v20 12.8c0 52.6-42.6 95.2-95.2 95.2c-25.2 0-49.5-10-67.3-27.9L11.7 435.3 .4 424 23 401.4l11.3 11.3 24 24 9.4-9.4-56-56L.4 360 23 337.4l11.3 11.3 56 56 9.4-9.4-72-72L16.4 312 39 289.4l11.3 11.3 72 72 9.4-9.4-56-56zm486.6 0l-56 56 9.4 9.4 72-72L599 289.4 621.6 312l-11.3 11.3-72 72 9.4 9.4 56-56L615 337.4 637.6 360l-11.3 11.3-56 56 9.4 9.4 24-24L615 401.4 637.6 424l-11.3 11.3-48.8 48.8C559.7 502 535.4 512 510.2 512c-52.6 0-95.2-42.6-95.2-95.2V404 384 354.4v-20h40v20 15l84.7-84.7L551 273.4 573.6 296l-11.3 11.3z"/></svg>