<svg xmlns="http://www.w3.org/2000/svg" viewBox="0 0 640 512"><!--! Font Awesome Pro 6.3.0 by @fontawesome - https://fontawesome.com License - https://fontawesome.com/license (Commercial License) Copyright 2023 Fonticons, Inc. --><path d="M528.4 363.5c-10.1 3.5-20.7 5.4-31.6 5.4H488 464h-8H432h-8v-32h8 24V328H432h-8l-8 0-16 0-16 0V296h34.6H424h32v-8H428.4 384V256l58.6 0 7.4 0 6 0h2.7l8.7 0V243.8l-12.1-8.7-4.9-3.5L390.7 189l18.6-26 40.1 27.5 24 16.4 19.5 13.4 17 11.6 11.6 8V220.4l-8.2-8.2-22.6-22.6 5.6-5.6 0 0 17-17 5.7-5.7 22.6 22.6 .1 .1 22.4 22.4 .8 .8c36.4 37.2 36.1 96.9-.8 133.8c-10.2 10.2-22.4 17.8-35.7 22.5zm-31.6 37.4c3.5 0 7.1-.1 10.6-.4C461.3 467.8 383.8 512 296 512C190.1 512 99.2 447.7 60.3 356c11.3 3.2 23 4.9 34.9 4.9H168h32v-32V320h16 32V288v-8V256v-8-8V224v-8-8V184v-8V144H216 152.1l10.4-10.4L139.9 111 111.6 82.7l-2.1-2.1C156.2 31 222.5 0 296 0c92 0 172.6 48.5 217.7 121.3l-17.4 17.4-26.9 26.8-42.1-28.9-25.9-17.8-13.8 19.4c-6.3-1.4-12.9-2.2-19.7-2.2c-48.6 0-88 39.4-88 88c0 43.1 31 79 72 86.5V328v32h32 16v8.9 32h32 64.8zm-401.6-72c-17.1 0-33.7-4.6-48.2-13.1c-6.9-4.1-13.4-9-19.1-14.8C-9 264.1-9.3 204.4 27.1 167.2l.8-.8L89 105.3l0 0 5.6 5.6 17 17 5.7 5.7L106.8 144 94.6 156.2l-6.1 6.1L74.8 176H94.2 104h16.1H136h48 32 0v32h0H184 168 136v8l32 0h16 32 0v8 16 8h0H184l-16 0H136v8l32 0h16 32v0l.3 32H216l-16 0-16 0H168l0 0-32 0v8.9h32V320v8.9H136h0l-32 0-8.8 0zM360 400c0-26.5-28.7-48-64-48s-64 21.5-64 48s28.7 48 64 48s64-21.5 64-48zm32.4-176c0 6.1-2.3 11.8-6.1 16H350.5c-3.8-4.2-6.1-9.9-6.1-16c0-13.3 10.7-24 24-24s24 10.7 24 24z"/></svg>