<svg xmlns="http://www.w3.org/2000/svg" viewBox="0 0 512 512"><!--! Font Awesome Pro 6.3.0 by @fontawesome - https://fontawesome.com License - https://fontawesome.com/license (Commercial License) Copyright 2023 Fonticons, Inc. --><path d="M477.8 384c21.8-37.7 34.2-81.4 34.2-128c0-2.2 0-4.5-.1-6.7L384 284.2V384h93.8zm-21.9 32H384v0l-32 32H160l-32-32v0H56.1c46.9 58.5 119 96 199.9 96s152.9-37.5 199.9-96zM34.2 384H128V284.2L.1 249.3C0 251.5 0 253.8 0 256c0 46.6 12.5 90.3 34.2 128zM3 216.9l143.2 39H365.9l143.2-39C490.2 94.1 384.1 0 256 0S21.8 94.1 3 216.9zM208 176c-47 0-77.1 19.7-84.7 27.3l-22.6-22.6C114.4 167 152.6 144 208 144h16v32H208zm80-32h16c55.4 0 93.6 23 107.3 36.7l-22.6 22.6C381.1 195.7 351 176 304 176H288V144zM176 304H160v32h16H336h16V304H336 176zm0 64H160v32h16H336h16V368H336 176z"/></svg>