<svg xmlns="http://www.w3.org/2000/svg" viewBox="0 0 512 512"><!--! Font Awesome Pro 6.3.0 by @fontawesome - https://fontawesome.com License - https://fontawesome.com/license (Commercial License) Copyright 2023 Fonticons, Inc. --><path d="M104 128A64 64 0 1 0 104 0a64 64 0 1 0 0 128zm48 48c0-5.5 .6-10.8 1.6-16H8L0 352H40V512H152V448H120V416 256 224h32 16c-10-13.4-16-30-16-48zM312 448v64H424V352h40l-8-192H310.4c1 5.2 1.6 10.5 1.6 16c0 18-6 34.6-16 48h16 32v32V416v32H312zm48-320A64 64 0 1 0 360 0a64 64 0 1 0 0 128zM232 224a48 48 0 1 0 0-96 48 48 0 1 0 0 96zm80 192V256H152V416h32v96h96V416h32z"/></svg>