<svg xmlns="http://www.w3.org/2000/svg" viewBox="0 0 448 512"><!--! Font Awesome Pro 6.3.0 by @fontawesome - https://fontawesome.com License - https://fontawesome.com/license (Commercial License) Copyright 2023 Fonticons, Inc. --><path d="M240 413.6C339.7 398.2 416 312 416 208C416 93.1 322.9 0 208 0S0 93.1 0 208C0 312 76.3 398.2 176 413.6V448H80 48v64H80 208 336h32V448H336 240V413.6zM162.9 53.7L208.3 166c18.5-25.3 50-39.8 83.3-35.1c48.1 6.8 81.7 51.3 74.9 99.4l-2.2 15.8-120-16.9c12.6 28.7 9.5 63.2-11.2 89.7c-29.9 38.3-85.2 45.1-123.5 15.2l-12.6-9.8 74.6-95.5c-31.2-3.4-59.5-23.4-72.1-54.5C81.2 129.1 103 77.9 148.1 59.7l14.8-6zM208 224a16 16 0 1 0 0-32 16 16 0 1 0 0 32z"/></svg>