<svg xmlns="http://www.w3.org/2000/svg" viewBox="0 0 576 512"><!--! Font Awesome Pro 6.3.0 by @fontawesome - https://fontawesome.com License - https://fontawesome.com/license (Commercial License) Copyright 2023 Fonticons, Inc. --><path d="M358 0H134V134.7l23.6-9.7 22.5-9.2L195 135.1l15.6 20.2 25.3 3.4 24.1 3.3 3.3 24.1 3.4 25.3L286.9 227l19.2 14.9L297 264.4 287.3 288l9.7 23.6 9.2 22.5L286.9 349l-20.2 15.6-3.4 25.3L260 414l-24.1 3.3-5.9 .8V512v0H518V160H358V0zm32 0V128H518L390 0zM98.3 154.6l-3.7 4.8L74.6 185.2l-32.2 4.4-6 .8-.8 6-4.4 32.2L5.5 248.5 .7 252.3 3 257.9 15.3 288 3 318.1 .7 323.7l4.8 3.7 25.7 19.9 4.4 32.2 .8 6 6 .8L70 390.2V512l64-40 64 40V390.2l27.6-3.8 6-.8 .8-6 4.4-32.2 25.7-19.9 4.8-3.7-2.3-5.6L252.7 288 265 257.9l2.3-5.6-4.8-3.7-25.7-19.9-4.4-32.2-.8-6-6-.8-32.2-4.4-19.9-25.7-3.7-4.8-5.6 2.3L134 169.3 103.9 157l-5.6-2.3zM70 288a64 64 0 1 1 128 0A64 64 0 1 1 70 288z"/></svg>