<svg xmlns="http://www.w3.org/2000/svg" viewBox="0 0 512 512"><!--! Font Awesome Pro 6.3.0 by @fontawesome - https://fontawesome.com License - https://fontawesome.com/license (Commercial License) Copyright 2023 Fonticons, Inc. --><path d="M256 0c86.8 0 163.5 43.2 209.8 109.3l-42.2 23.5C385.7 81.4 324.8 48 256 48C141.1 48 48 141.1 48 256v24.9c0 13.1-.8 26.1-2.5 39.1H0V256C0 114.6 114.6 0 256 0zM447.4 174.5L489.6 151c14.4 32 22.4 67.6 22.4 105v64H462.9c.7-13 1.1-26 1.1-39.1V256c0-28.9-5.9-56.5-16.6-81.5zM256 80c97.2 0 176 78.8 176 176v24.9c0 34.6-2.6 69-7.8 103.1H375.6c5.5-34 8.4-68.5 8.4-103.1V256c0-70.7-57.3-128-128-128c-22.2 0-43.1 5.7-61.3 15.6l-31.7-37C190 89.7 221.8 80 256 80zM126.1 137.3l31.6 36.8C139.1 196.3 128 224.9 128 256v24.9c0 34.9-4.8 69.6-14.1 103.1H63.8C74.5 350.7 80 316 80 280.9V256c0-45.7 17.5-87.4 46.1-118.7zM256 160c53 0 96 43 96 96v24.9c0 45.5-5.1 90.8-15.2 135.1H291.6c10.9-44.1 16.4-89.5 16.4-135.1V256c0-28.7-23.3-52-52-52s-52 23.3-52 52v24.9c0 45.8-6.9 91.4-20.3 135.1H137.5c14.9-43.4 22.5-89.1 22.5-135.1V256c0-53 43-96 96-96zm24 96v24.9c0 65.8-12.1 131-35.7 192.4l-2.6 6.7H190.3l3.3-8.6 5.9-15.3C221 400.2 232 340.8 232 280.9V256h48z"/></svg>