<svg xmlns="http://www.w3.org/2000/svg" viewBox="0 0 640 512"><!--! Font Awesome Pro 6.3.0 by @fontawesome - https://fontawesome.com License - https://fontawesome.com/license (Commercial License) Copyright 2023 Fonticons, Inc. --><path d="M0 0V90.4H602.4V0H0zM572.2 120.5H30.1V481.9H150.6V331.3c0-83.2 67.4-150.6 150.6-150.6s150.6 67.4 150.6 150.6V481.9H572.2V120.5zM323.6 284.8c-22.1-25.7-44.5-43.8-44.5-43.8s-87.6 70.9-87.6 131.4s49 109.5 109.5 109.5s109.5-49 109.5-109.5c0-50.4-65.7-109.5-65.7-109.5s-9.5 8.5-21.3 21.9zm11.7 143c-10.3 6.8-21.2 10.3-33.5 10.3c-30.8 0-55.4-19.9-55.4-53.4c0-16.4 10.3-30.8 30.8-56.1c2.7 3.4 42.4 54.1 42.4 54.1l24.6-28.7c2.1 2.7 3.4 5.5 4.8 8.2c12.3 22.6 6.8 51.3-13.7 65.7z"/></svg>