<svg xmlns="http://www.w3.org/2000/svg" viewBox="0 0 448 512"><!--! Font Awesome Pro 6.3.0 by @fontawesome - https://fontawesome.com License - https://fontawesome.com/license (Commercial License) Copyright 2023 Fonticons, Inc. --><path d="M304 167.4C370.6 202.1 416 271.8 416 352c0 64.3-29.2 121.8-75.1 160H75.1C29.2 473.8 0 416.3 0 352c0-80.2 45.4-149.9 112-184.6V64H80V0h32 64 64 64 32V64H304V167.4zM320 312c0-48.6-50.1-88-112-88s-112 39.4-112 88c0 29.9 19 56.3 48 72.2V432H272V384.2c29-15.9 48-42.3 48-72.2zM168 288a24 24 0 1 1 0 48 24 24 0 1 1 0-48zm56 24a24 24 0 1 1 48 0 24 24 0 1 1 -48 0z"/></svg>