<svg xmlns="http://www.w3.org/2000/svg" viewBox="0 0 576 512"><!--! Font Awesome Pro 6.3.0 by @fontawesome - https://fontawesome.com License - https://fontawesome.com/license (Commercial License) Copyright 2023 Fonticons, Inc. --><path d="M333.6 53.2L242.9 3.4 172.1 78.8 70.6 98.9 64.8 202.2 0 282.9 62 365.7l.5 25.5L120.8 333C107.1 313.5 99 289.7 99 264c0-66.3 53.7-120 120-120c25.7 0 49.5 8.1 69 21.8L409.5 44.2l-75.9 9zM219 176c-48.6 0-88 39.4-88 88c0 16.8 4.7 32.5 12.9 45.9l121-121C251.5 180.7 235.8 176 219 176zM451.3 432.3c106.2-106.2 106.2-278.4 0-384.7L66.7 432.3c106.2 106.2 278.4 106.2 384.7 0zM243 432a16 16 0 1 1 32 0 16 16 0 1 1 -32 0zm80-16a16 16 0 1 1 0 32 16 16 0 1 1 0-32zm-48-48a16 16 0 1 1 32 0 16 16 0 1 1 -32 0z"/></svg>