<svg xmlns="http://www.w3.org/2000/svg" viewBox="0 0 448 512"><!--! Font Awesome Pro 6.3.0 by @fontawesome - https://fontawesome.com License - https://fontawesome.com/license (Commercial License) Copyright 2023 Fonticons, Inc. --><path d="M304 96c0 33.4-17 62.8-42.9 80H352h64V304H352 304v24.8l80 96V512H290l-82-98.4L126 512H32V424.8l80-96V304H64 0V176H64h90.9C129 158.8 112 129.4 112 96c0-53 43-96 96-96s96 43 96 96zM176 96a16 16 0 1 0 0-32 16 16 0 1 0 0 32zm80-16a16 16 0 1 0 -32 0 16 16 0 1 0 32 0zM208 240a16 16 0 1 0 0-32 16 16 0 1 0 0 32zm16 112a16 16 0 1 0 -32 0 16 16 0 1 0 32 0zm-16-48a16 16 0 1 0 0-32 16 16 0 1 0 0 32z"/></svg>