<svg xmlns="http://www.w3.org/2000/svg" viewBox="0 0 448 512"><!--! Font Awesome Pro 6.3.0 by @fontawesome - https://fontawesome.com License - https://fontawesome.com/license (Commercial License) Copyright 2023 Fonticons, Inc. --><path d="M2.9 0h35H354.3h35l-3.1 34.8-39.6 448L344.1 512H314.8 77.4 48.1l-2.6-29.2L6 34.8 2.9 0zM72.8 64l21 237.4L99 304c20.1 10.1 43.9 10.1 64 0s43.9-10.1 64 0s43.9 10.1 64 0l7.5-3.8L319.4 64H72.8zM195 96l47.9 53.9c10.4 11.7 16.1 26.7 16.1 42.4c0 35.2-28.8 63.8-64 63.8s-64-28.5-64-63.8c0-15.6 5.7-30.7 16.1-42.4L195 96z"/></svg>