<svg xmlns="http://www.w3.org/2000/svg" viewBox="0 0 576 512"><!--! Font Awesome Pro 6.3.0 by @fontawesome - https://fontawesome.com License - https://fontawesome.com/license (Commercial License) Copyright 2023 Fonticons, Inc. --><path d="M346 16V80 96H314V80 16 0h32V16zm-98.7 7.1l32 48 8.9 13.3-26.6 17.8-8.9-13.3-32-48-8.9-13.3L238.4 9.8l8.9 13.3zM162 102.1l17 17 151 151V184 160h24 16 24v24V345.6c0 57.1-30 110-78.9 139.4c-63.9 38.4-145.8 28.3-198.5-24.4L17 361 .1 344 34 310.1l17 17 64 64L137 369 33 265l-17-17L50 214.1l17 17L171 335 193 313 65 185l-17-17L82 134.1l17 17L227 279 249 257 145 153l-17-17L162 102.1zM443.1 484.9c-24.2 14.5-50.9 22.1-77.7 23.1c48.1-39.6 76.6-99 76.6-162.4l0-91.5 16 16V184 160h24 16 24v24V345.6c0 57.1-30 110-78.9 139.4zM421.6 9.8l26.6 17.8-8.9 13.3-32 48-8.9 13.3L371.8 84.4l8.9-13.3 32-48 8.9-13.3z"/></svg>