<svg xmlns="http://www.w3.org/2000/svg" viewBox="0 0 640 512"><!--! Font Awesome Pro 6.3.0 by @fontawesome - https://fontawesome.com License - https://fontawesome.com/license (Commercial License) Copyright 2023 Fonticons, Inc. --><path d="M180 74c0 20.1 8.2 39.4 22.7 53.3l103.4 99.5L320 240.2l13.9-13.3 103.4-99.5C451.8 113.4 460 94.1 460 74c0-40.9-33.1-74-74-74h-3c-19.9 0-39 7.7-53.4 21.5L320 30.7l-9.6-9.2C296.1 7.7 276.9 0 257 0h-3c-40.9 0-74 33.1-74 74zM80 64H0v40 24 32 64V352v13.3l9.4 9.4 128 128 9.4 9.4H160h96 32V480 448 416 352 338.7l-9.4-9.4-64-64L192 242.7l-9.4-9.4L160 210.7 114.7 256l22.6 22.6 9.4 9.4 22.6 22.6L205.8 347l-41.7 27.8L80 290.7V224 144 112v-8V64zm480 0v40 8 32 80 66.7l-84.1 84.1L434.2 347l36.4-36.4L493.3 288l9.4-9.4L525.3 256 480 210.7l-22.6 22.6-9.4 9.4-22.6 22.6-64 64-9.4 9.4V352v64 32 32 32h32 96 13.3l9.4-9.4 128-128 9.4-9.4V352 224 160 128 104 64H560z"/></svg>