<svg xmlns="http://www.w3.org/2000/svg" viewBox="0 0 576 512"><!--! Font Awesome Pro 6.3.0 by @fontawesome - https://fontawesome.com License - https://fontawesome.com/license (Commercial License) Copyright 2023 Fonticons, Inc. --><path d="M482.1 150.6l0 30.1L482 249c0 49.1-22.5 95-60.2 125.2c-.8-76.1-40.3-146.7-104.9-187.1l-43.9-27.4-32.2-20.1L204.2 76 192.9 56.5 232 33.9l11.3 19.6 79.1 136.9 19.6-11.3-64-110.9L266.6 48.7l39.1-22.6 11.3 19.6 64 110.9 0 0 40.8 70.6 0-46.4 0-30.1 60.2 .1zM214.7 139.5l-27.1 43.4L160.6 136l-11.3-19.6 39.1-22.6 11.3 19.6 15.1 26.1zm-40.7 65.1l-15.7 25.1h-22L116.9 196l-11.3-19.6 39.1-22.6 11.3 19.6 18 31.2zm57.5-35.2l25.5 16 56.6 35.4c48.5 30.3 78 83.5 78 140.7V369c0 79-64 143.1-143.1 143.1H83.1 60.5V466.8H83.1h97.9V444.2H52.9 30.4V399.1H52.9h128V376.5H22.8 .2V331.3H22.8 180.9V308.7H52.9 30.4V263.5H52.9h128v0h87.7l-43.5-27.2-25.5-16 31.9-51.1z"/></svg>