<svg xmlns="http://www.w3.org/2000/svg" viewBox="0 0 576 512"><!--! Font Awesome Pro 6.3.0 by @fontawesome - https://fontawesome.com License - https://fontawesome.com/license (Commercial License) Copyright 2023 Fonticons, Inc. --><path d="M227.2 39.7L218.9 8.8 157.1 25.4l8.3 30.9L218.9 256H189.3L142.6 102.7l-9.3-30.6L72.1 90.7l9.3 30.6 71.7 235.5L91.5 298.2l-29-27.6L7.4 328.5l29 27.6L132.8 448c43.1 41.1 100.4 64 160 64h10.9H312v-.2c58.3-3.5 108.7-43.1 125.5-99.7l81.2-275 9.1-30.7L466.4 88.2l-9.1 30.7L416.8 256H392.1L431.3 70.6l6.6-31.3L375.3 26.1l-6.6 31.3L326.7 256H285.1L227.2 39.7z"/></svg>