<svg xmlns="http://www.w3.org/2000/svg" viewBox="0 0 512 512"><!--! Font Awesome Pro 6.3.0 by @fontawesome - https://fontawesome.com License - https://fontawesome.com/license (Commercial License) Copyright 2023 Fonticons, Inc. --><path d="M226 0V240H162V0h64zm96 160V288H258V160h64zm32 32h64V320H354V192zM71.5 69.8L145.9 240H76.1L12.8 95.4 0 66.1 58.6 40.5 71.5 69.8zM34 363V272H90.1h69.9H226v48 32H130 114v32h16H242h16V368 320h64v32h96c0 88.4-71.6 160-160 160H196.3c-42.4 0-83.1-16.9-113.1-46.9L71.5 453.5C47.5 429.5 34 396.9 34 363z"/></svg>