<svg xmlns="http://www.w3.org/2000/svg" viewBox="0 0 576 512"><!--! Font Awesome Pro 6.3.0 by @fontawesome - https://fontawesome.com License - https://fontawesome.com/license (Commercial License) Copyright 2023 Fonticons, Inc. --><path d="M.2 150.6l0 30.1L.3 249c0 49.1 22.5 95 60.2 125.2c.8-76.1 40.3-146.7 104.9-187.1l43.9-27.4 32.2-20.1L278.2 76l11.3-19.6L250.3 33.9 239 53.4 160 190.4l-19.6-11.3 64-110.9 11.3-19.6L176.6 26.1 165.3 45.7l-64 110.9 0 0L60.5 227.1l0-46.4 0-30.1L.2 150.6zm267.4-11.1l27.1 43.4L321.8 136l11.3-19.6L294 93.9l-11.3 19.6-15.1 26.1zm40.7 65.1L324 229.7h22L365.4 196l11.3-19.6-39.1-22.6-11.3 19.6-18 31.2zm-57.5-35.2l-25.5 16-56.6 35.4c-48.5 30.3-78 83.5-78 140.7V369c0 8.4 .7 16.6 2.1 24.5c33.3 7.8 58.1 37.7 58.1 73.3c0 6-.7 11.8-2 17.3c23.7 17.5 53.1 27.8 84.8 27.8H399.3h22.6V466.8H399.3 301.4V444.2h128H452V399.1H429.4h-128V376.5H459.5h22.6V331.3H459.5 301.4V308.7h128H452V263.5H429.4h-128v0H213.7l43.5-27.2 25.5-16-31.9-51.1zm110.9-79a30.1 30.1 0 1 0 0-60.2 30.1 30.1 0 1 0 0 60.2zm120.5 90.4a30.1 30.1 0 1 0 -60.2 0 30.1 30.1 0 1 0 60.2 0zM75.5 512a45.2 45.2 0 1 0 0-90.4 45.2 45.2 0 1 0 0 90.4z"/></svg>