<svg xmlns="http://www.w3.org/2000/svg" viewBox="0 0 448 512"><!--! Font Awesome Pro 6.3.0 by @fontawesome - https://fontawesome.com License - https://fontawesome.com/license (Commercial License) Copyright 2023 Fonticons, Inc. --><path d="M305.9 32h64.9l-16 96H429h12.9l-10.7 64H429 344.1L322.8 320H397h12.9l-10.7 64H397 312.1l-16 96H231.2l16-96H152.1l-16 96H71.2l16-96H13 .1l10.7-64H13 97.9l21.3-128H45 32.1l10.7-64H45h84.9l16-96h64.9l-16 96h95.1l16-96zM162.8 320h95.1l21.3-128H184.1L162.8 320z"/></svg>