<svg xmlns="http://www.w3.org/2000/svg" viewBox="0 0 512 512"><!--! Font Awesome Pro 6.3.0 by @fontawesome - https://fontawesome.com License - https://fontawesome.com/license (Commercial License) Copyright 2023 Fonticons, Inc. --><path d="M0 224.2c0-22.2 3.2-43.6 9.2-63.9L224 316.5V512H96 64V480 381.2c-41-41.9-64-98.3-64-157zM239.2 288L21 129.3C56.7 53 134.2 0 224 0h32C358.1 0 441.6 79.7 447.7 180.3L505 252l7 8.8V272v16 0H240h-.8zM352 224a32 32 0 1 0 0-64 32 32 0 1 0 0 64zM256 512V320H512l-16 48H336 320v32h16H485.3l-10.7 32H336 320v32h16H464l-16 48H256z"/></svg>