<svg xmlns="http://www.w3.org/2000/svg" viewBox="0 0 512 512"><!--! Font Awesome Pro 6.3.0 by @fontawesome - https://fontawesome.com License - https://fontawesome.com/license (Commercial License) Copyright 2023 Fonticons, Inc. --><path d="M240 96a48 48 0 1 0 0-96 48 48 0 1 0 0 96zm-32 48a48 48 0 1 0 -96 0 48 48 0 1 0 96 0zm160 0a48 48 0 1 0 -96 0 48 48 0 1 0 96 0zM96 343.1L0 353.8l33.8 69.3L16 512l81.8-39.1 75.5 15.7L160 392.9l94.7-9L224 310.6 240 224l-80 36.8L81.4 249.1l14.6 94zm222.7 49.8l-13.3 95.7 75.5-15.7L462.7 512l-17.8-88.9 33.8-69.3-96-10.7 14.6-94-78.6 11.7-48.8-22.5-12.7 68.7 27 64.5 7.9 18.8 26.6 2.5z"/></svg>