<svg xmlns="http://www.w3.org/2000/svg" viewBox="0 0 576 512"><!--! Font Awesome Pro 6.3.0 by @fontawesome - https://fontawesome.com License - https://fontawesome.com/license (Commercial License) Copyright 2023 Fonticons, Inc. --><path d="M288 64C182 64 96 150 96 256s86 192 192 192c40.8 0 78.6-12.7 109.7-34.4l36.6 52.5C392.8 495 342.3 512 288 512C146.6 512 32 397.4 32 256S146.6 0 288 0S544 114.6 544 256v96h8 24v48H552h-2.3l-11.4 80H552v32H536 488 472V480h13.7l-11.4-80H472 448V352h24 8V256c0-106-86-192-192-192zM192 256a96 96 0 1 0 192 0 96 96 0 1 0 -192 0zm96 160a160 160 0 1 1 0-320 160 160 0 1 1 0 320zM224 256a64 64 0 1 1 128 0 64 64 0 1 1 -128 0z"/></svg>