<svg xmlns="http://www.w3.org/2000/svg" viewBox="0 0 640 512"><!--! Font Awesome Pro 6.3.0 by @fontawesome - https://fontawesome.com License - https://fontawesome.com/license (Commercial License) Copyright 2023 Fonticons, Inc. --><path d="M413.6 118.6L271.5 0 0 225.9v44.8H60.3v65.6c-.1 .9-.1 1.7-.1 2.6V444.2c0 .9 0 1.8 .1 2.6v35H97.9h15.1 97.9V331.3h60.2c.1-53.4 34-102.3 67.6-141.1c22.8-26.4 48.2-49.5 74.9-71.6zm8.1 32.1s-120.5 97.5-120.5 180.7s67.4 150.6 150.6 150.6s150.6-67.4 150.6-150.6c0-69.3-90.4-150.6-90.4-150.6s-13 11.7-29.2 30.1c-30.4-35.3-61.1-60.2-61.1-60.2zm31.1 270.9c-42.4 0-76.2-27.3-76.2-73.4c0-22.6 14.1-42.4 42.4-77.2c3.8 4.7 58.4 74.4 58.4 74.4l33.9-39.5c2.8 3.8 4.7 7.5 6.6 11.3c16.9 31.1 9.4 70.6-18.8 90.4c-14.1 9.4-29.2 14.1-46.1 14.1z"/></svg>