<svg xmlns="http://www.w3.org/2000/svg" viewBox="0 0 576 512"><!--! Font Awesome Pro 6.3.0 by @fontawesome - https://fontawesome.com License - https://fontawesome.com/license (Commercial License) Copyright 2023 Fonticons, Inc. --><path d="M64 64C28.7 64 0 92.7 0 128V384c0 35.3 28.7 64 64 64H512c35.3 0 64-28.7 64-64V128c0-35.3-28.7-64-64-64H64zm80 128a32 32 0 1 1 64 0 32 32 0 1 1 -64 0zm184-16l19.6 27.8 96 136L448 346v7.6 8 24H424 304 280 232 208 152 128v-24-8-9.1l6.1-6.8 64-72L216 245.5l17.9 20.2L251.1 285l57.3-81.2L328 176z"/></svg>