<svg xmlns="http://www.w3.org/2000/svg" viewBox="0 0 320 512"><!--! Font Awesome Pro 6.3.0 by @fontawesome - https://fontawesome.com License - https://fontawesome.com/license (Commercial License) Copyright 2023 Fonticons, Inc. --><path d="M128 96c-35.3 0-64 28.7-64 64v16H0V160C0 89.3 57.3 32 128 32h32c70.7 0 128 57.3 128 128v9.3c0 39.3-18 76.4-48.9 100.6L176 319.6v.4 32H112V320 304 288.4 176 144h64v32 62.2l23.5-18.5C215 207.5 224 189 224 169.3V160c0-35.3-28.7-64-64-64H128zM104 400h80v80H104V400z"/></svg>