<svg xmlns="http://www.w3.org/2000/svg" viewBox="0 0 576 512"><!--! Font Awesome Pro 6.3.0 by @fontawesome - https://fontawesome.com License - https://fontawesome.com/license (Commercial License) Copyright 2023 Fonticons, Inc. --><path d="M229.2 318.3l-25.1-50.2 50.1 25.1L264 0h16l9.8 293.2 50.1-25.1-25.1 50.2L368 336l-53.2 17.7 25.1 50.2-47.2-23.6 2.2 65.7C354.6 435.2 400 382.9 400 320c0-38.3-16.8-72.7-43.5-96.1C401.8 195.6 432 145.3 432 88c0-30.5-8.5-59-23.3-83.2c64.9 37.8 112.8 101.7 129.2 177.4L496 224h47.5c.3 5.3 .5 10.6 .5 16c0 18.2-1.8 36-5.2 53.2L480 352h39.9C477.3 446.4 382.3 512 272 512S66.7 446.4 24.1 352H64L5.2 293.2C1.8 276 0 258.2 0 240c0-5.4 .2-10.7 .5-16H48L6.2 182.2C22.5 106.5 70.4 42.6 135.3 4.8C120.5 29 112 57.5 112 88c0 57.3 30.2 107.6 75.5 135.9C160.8 247.3 144 281.7 144 320c0 62.9 45.4 115.2 105.1 126l2.2-65.7-47.2 23.6 25.1-50.2L176 336l53.2-17.7z"/></svg>