<svg xmlns="http://www.w3.org/2000/svg" viewBox="0 0 384 512"><!--! Font Awesome Pro 6.3.0 by @fontawesome - https://fontawesome.com License - https://fontawesome.com/license (Commercial License) Copyright 2023 Fonticons, Inc. --><path d="M113 159.2c0-34.9 28.3-63.2 63.2-63.2c7.4 0 14.7 1.3 21.6 3.8l72.2 26.3L300.1 137 322 76.9 291.9 65.9 219.7 39.7c-13.9-5.1-28.6-7.7-43.5-7.7C106 32 49 89 49 159.2V192H1v64H49v32H1v64H41.2L4.4 425.7 1 432.4V440v8 32H33 289h32V416H289 80.8l28.8-57.7 3.2-6.3H257V288H113V256H257V192H113V159.2z"/></svg>