<svg xmlns="http://www.w3.org/2000/svg" viewBox="0 0 576 512"><!--! Font Awesome Pro 6.3.0 by @fontawesome - https://fontawesome.com License - https://fontawesome.com/license (Commercial License) Copyright 2023 Fonticons, Inc. --><path d="M179.9 54.2L163.8 72.1l-72 80L74.9 170.9 57 153 17 113 .1 96 34 62.1 51 79l22.1 22.1 55.1-61.2 16.1-17.8 35.7 32.1zm0 160l-16.1 17.8-72 80L74.9 330.9 57 313 17 273 .1 256 34 222.1l17 17 22.1 22.1 55.1-61.2 16.1-17.8 35.7 32.1zM234 64h32H490h32v64H490 266 234V64zm0 160h32H490h32v64H490 266 234V224zM170 384h32H490h32v64H490 202 170V384zM58 368a48 48 0 1 1 0 96 48 48 0 1 1 0-96z"/></svg>