<svg xmlns="http://www.w3.org/2000/svg" viewBox="0 0 384 512"><!--! Font Awesome Pro 6.3.0 by @fontawesome - https://fontawesome.com License - https://fontawesome.com/license (Commercial License) Copyright 2023 Fonticons, Inc. --><path d="M23.3 0c9.8 31.3 29 58.4 54.2 78.1C30.7 109.7 0 163.3 0 224c0 89.1 66.2 162.7 152 174.4V424H120 96v48h24 32v16 24h48V488 472h32 24V424H232 200V398.4c85.8-11.7 152-85.3 152-174.4c0-60.7-30.7-114.3-77.5-145.9C299.7 58.4 318.9 31.3 328.7 0H259.2C242.6 28.7 211.5 48 176 48s-66.6-19.3-83.2-48H23.3zM288 224A112 112 0 1 1 64 224a112 112 0 1 1 224 0z"/></svg>