<svg xmlns="http://www.w3.org/2000/svg" viewBox="0 0 640 512"><!--! Font Awesome Pro 6.3.0 by @fontawesome - https://fontawesome.com License - https://fontawesome.com/license (Commercial License) Copyright 2023 Fonticons, Inc. --><path d="M240.9 481.9c31.4 0 61.5-6 89-17c-36.2-33-58.9-80.6-58.9-133.5c0-44.4 23.4-85.7 50.6-120.6H301.2V180.7 150.6 120.5h60.2v30.1 15.1c18.9-19.1 39.2-36.7 60.2-53.7c14.1 11.4 28 23.1 41.4 35.3C426.5 60.7 340.8 0 240.9 0C107.9 0 0 107.9 0 240.9S107.9 481.9 240.9 481.9zM180.7 150.6v30.1 30.1H120.5V180.7 150.6 120.5h60.2v30.1zm90.4 0v30.1 30.1H210.8V180.7 150.6 120.5h60.2v30.1zm211.7 60.3c-30.4-35.3-61.1-60.2-61.1-60.2s-120.5 97.5-120.5 180.7s67.4 150.6 150.6 150.6s150.6-67.4 150.6-150.6c0-69.3-90.4-150.6-90.4-150.6s-13 11.7-29.2 30.1zm16 196.6c-14.1 9.4-29.2 14.1-46.1 14.1c-42.4 0-76.2-27.3-76.2-73.4c0-22.6 14.1-42.4 42.4-77.2c3.8 4.7 58.4 74.4 58.4 74.4l33.9-39.5c2.8 3.8 4.7 7.5 6.6 11.3c16.9 31.1 9.4 70.6-18.8 90.4z"/></svg>