<svg xmlns="http://www.w3.org/2000/svg" viewBox="0 0 512 512"><!--! Font Awesome Pro 6.3.0 by @fontawesome - https://fontawesome.com License - https://fontawesome.com/license (Commercial License) Copyright 2023 Fonticons, Inc. --><path d="M0 272C0 139.5 107.5 32 240 32s240 107.5 240 240v24 24H456 24 0V296 272zM397.3 161.9c-4.2-1.2-8.7-1.9-13.3-1.9c-26.5 0-48 21.5-48 48s21.5 48 48 48c19 0 35.4-11 43.2-27c-5.6-24.5-15.9-47.2-29.9-67.1zM130.2 114.5c8.4 35.3 40 61.5 77.8 61.5c44.2 0 80-35.8 80-80c0-3.4-.2-6.8-.6-10.1C272.2 82 256.3 80 240 80c-40.9 0-78.7 12.8-109.8 34.5zM144 480l32-128H304l32 128H144zm0-256a32 32 0 1 0 -64 0 32 32 0 1 0 64 0z"/></svg>