<svg xmlns="http://www.w3.org/2000/svg" viewBox="0 0 640 512"><!--! Font Awesome Pro 6.3.0 by @fontawesome - https://fontawesome.com License - https://fontawesome.com/license (Commercial License) Copyright 2023 Fonticons, Inc. --><path d="M0 30.1H421.6V112c-21 17-41.3 34.6-60.2 53.7V90.4H60.2V210.8H321.6c-16 20.6-30.7 43.4-40.1 67.8h-33v45.2h22.8c-.2 2.5-.2 5.1-.2 7.7c0 46.2 17.3 88.4 45.9 120.3H0V30.1zM158.1 278.6v45.2h45.2V278.6H158.1zm-90.4 0v45.2h45.2V278.6H67.8zm415-67.7C499 192.6 512 180.8 512 180.8s90.4 81.3 90.4 150.6c0 83.2-67.4 150.6-150.6 150.6s-150.6-67.4-150.6-150.6s120.5-180.7 120.5-180.7s30.7 24.9 61.1 60.2zm16 196.6c28.2-19.8 35.8-59.3 18.8-90.4c-1.9-3.8-3.8-7.5-6.6-11.3l-33.9 39.5s-54.6-69.6-58.4-74.4c-28.2 34.8-42.4 54.6-42.4 77.2c0 46.1 33.9 73.4 76.2 73.4c16.9 0 32-4.7 46.1-14.1z"/></svg>