<svg xmlns="http://www.w3.org/2000/svg" viewBox="0 0 512 512"><!--! Font Awesome Pro 6.3.0 by @fontawesome - https://fontawesome.com License - https://fontawesome.com/license (Commercial License) Copyright 2023 Fonticons, Inc. --><path d="M329.5 60c-16.6 0-32.5 6.6-44.2 18.3L95.6 268C75.4 288.2 64 315.7 64 344.2C64 403.8 112.2 452 171.8 452c28.6 0 56-11.4 76.2-31.6L416.2 252.2l39.6 39.6L287.6 460c-30.7 30.7-72.4 48-115.8 48C81.3 508 8 434.7 8 344.2c0-43.4 17.3-85.1 48-115.8L245.7 38.7C267.9 16.5 298.1 4 329.5 4C394.9 4 448 57.1 448 122.5c0 31.4-12.5 61.6-34.7 83.8L229.1 390.5c-13.7 13.7-32.4 21.5-51.8 21.5c-40.5 0-73.3-32.8-73.3-73.3c0-19.4 7.7-38.1 21.5-51.8L288.2 124.2l39.6 39.6L165.1 326.5c-3.2 3.2-5.1 7.6-5.1 12.2c0 9.5 7.7 17.3 17.3 17.3c4.6 0 9-1.8 12.2-5.1L373.7 166.7C385.4 155 392 139.1 392 122.5C392 88 364 60 329.5 60z"/></svg>