<svg xmlns="http://www.w3.org/2000/svg" viewBox="0 0 640 512"><!--! Font Awesome Pro 6.3.0 by @fontawesome - https://fontawesome.com License - https://fontawesome.com/license (Commercial License) Copyright 2023 Fonticons, Inc. --><path d="M175 48A48 48 0 1 0 79 48a48 48 0 1 0 96 0zM79 128H47v32V274.7c0 17 6.7 33.3 18.7 45.3l22.6 22.6 56.7 56.7 6.3 37.9 8 48 4 24 .5 2.7h64.9l-2.2-13.3-4-24-8-48-8-48-1.7-10.1-7.3-7.3L143 306.7V241.7l21.4 32.1 3.7 5.5 5.6 3.6 49.6 32 7.9 5.1h9.4H255V288h0v32H382.8h.2 14.2 9.4l7.9-5.1 49.6-32 5.6-3.6 3.7-5.5 21.4-32.1v65.1l-54.6 54.6-7.3 7.3-1.7 10.1-8 48-8 48-4 24L409 512h64.9l.5-2.7 4-24 8-48 6.3-37.9 56.8-56.7L572.1 320c12-12 18.7-28.3 18.7-45.3V160 128h-32-48H493.7l-9.5 14.3-60.3 90.5-8.9 5.7V128H223V238.6l-9.1-5.8-60.3-90.5L144.1 128H127 79zM51.5 351L8.5 486.3 .3 512H67.5l2-6.3 33-103.7L51.5 351zM462.8 48a48 48 0 1 0 96 0 48 48 0 1 0 -96 0zM586.3 351l-51 50.9 33 103.7 2 6.3h67.2l-8.2-25.7L586.3 351z"/></svg>