<svg xmlns="http://www.w3.org/2000/svg" viewBox="0 0 640 512"><!--! Font Awesome Pro 6.3.0 by @fontawesome - https://fontawesome.com License - https://fontawesome.com/license (Commercial License) Copyright 2023 Fonticons, Inc. --><path d="M331.6 12.1L316 3.3l-15.6 8.7-272 152L.5 179.7l31.2 55.9 27.9-15.6L316 76.7 572.4 219.9l27.9 15.6 31.2-55.9-27.9-15.6-272-152zM316 240a40 40 0 1 0 0-80 40 40 0 1 0 0 80zM140 336a40 40 0 1 0 0-80 40 40 0 1 0 0 80zm392-40a40 40 0 1 0 -80 0 40 40 0 1 0 80 0zM92 352H77.9L71 364.3 15 465.1l-11.7 21 42 23.3 11.7-21 27-48.6V512H196V439.8l27 48.6 11.7 21 42-23.3-11.7-21-35.2-63.4 3.4-6.3L260 345.5V432H372V345.5l26.9 49.9 3.4 6.3L367 465.1l-11.7 21 42 23.3 11.7-21 27-48.6V512H548V439.8l27 48.6 11.7 21 42-23.3-11.7-21L561 364.3 554.1 352H540 444 430l-44.9-83.4L378.3 256H364 268 253.7l-6.8 12.6L202 352H188 92z"/></svg>