<svg xmlns="http://www.w3.org/2000/svg" viewBox="0 0 576 512"><!--! Font Awesome Pro 6.3.0 by @fontawesome - https://fontawesome.com License - https://fontawesome.com/license (Commercial License) Copyright 2023 Fonticons, Inc. --><path d="M72 96A48 48 0 1 0 72 0a48 48 0 1 0 0 96zM32 128H0v32V288v32H0V480v32H64V480 352H80V480v32h64V480 252.7l13 20.5 9.4 14.9H184h48 32V224H232 201.6l-51.5-81.1L140.7 128H123.1 32zM392 96a48 48 0 1 0 0-96 48 48 0 1 0 0 96zM265.1 168.2l6.3 23.8H296h24V480v32h64V480 352h16V480v32h64V480 192h24 24.6l6.3-23.8 32-120 8.2-30.9L497.3 .8l-8.2 30.9L463.4 128H400v0H384v0H320.6L294.9 31.8 286.7 .8 224.8 17.3l8.2 30.9 32 120z"/></svg>