<svg xmlns="http://www.w3.org/2000/svg" viewBox="0 0 640 512"><!--! Font Awesome Pro 6.3.0 by @fontawesome - https://fontawesome.com License - https://fontawesome.com/license (Commercial License) Copyright 2023 Fonticons, Inc. --><path d="M104 128A64 64 0 1 0 104 0a64 64 0 1 0 0 128zm9.4 198.6L90.7 304l22.6-22.6 88-88L200 160H8L0 352H40V512H168V381.3l-54.6-54.6zM488 128A64 64 0 1 0 488 0a64 64 0 1 0 0 128zM592 352l-8-192H392l-1.4 33.4 88 88L501.3 304l-22.6 22.6L424 381.3V512H552V352h40zM248 192L136 304 248 416V336h96v80L456 304 344 192v80H248V192z"/></svg>