<svg xmlns="http://www.w3.org/2000/svg" viewBox="0 0 512 512"><!--! Font Awesome Pro 6.3.0 by @fontawesome - https://fontawesome.com License - https://fontawesome.com/license (Commercial License) Copyright 2023 Fonticons, Inc. --><path d="M301 0l0 32 0 96 0 19.8-17.7 8.8L233 181.8 285.5 256l95.5 0 16 0 9.6 12.8 48 64 19.2 25.6-51.2 38.4-19.2-25.6L365 320l-96 0h-1.4l84.2 130.1L369.2 477l-53.7 34.8-17.4-26.9L141 242.2 141 352v32H77l0-32V208 188.2l17.7-8.8L237 108.2 237 32V0h64zM93 32a48 48 0 1 1 0 96 48 48 0 1 1 0-96z"/></svg>