<svg xmlns="http://www.w3.org/2000/svg" viewBox="0 0 512 512"><!--! Font Awesome Pro 6.3.0 by @fontawesome - https://fontawesome.com License - https://fontawesome.com/license (Commercial License) Copyright 2023 Fonticons, Inc. --><path d="M143 16V64H335V0L143 16zm17.6 80c-1 5.2-1.6 10.5-1.6 16c0 44.2 35.8 80 80 80s80-35.8 80-80c0-5.5-.6-10.8-1.6-16H160.6zM159 224h-6.1L335 484.1V369.7l53.6 90.6 20.3 34.4 68.9-40.7-20.3-34.4-81.6-138 52.4-90.8L399 173.9 462.4 64l-13.9-8L420.9 40 407 32 391 59.7l13.9 8L314.6 224H159zm-34.4 19.7l-104 176L.2 454.1l68.9 40.7 20.3-34.4L143 369.7V512H315.5L126 241.3l-1.4 2.4zM279 272a24 24 0 1 1 0 48 24 24 0 1 1 0-48z"/></svg>