<svg xmlns="http://www.w3.org/2000/svg" viewBox="0 0 512 512"><!--! Font Awesome Pro 6.3.0 by @fontawesome - https://fontawesome.com License - https://fontawesome.com/license (Commercial License) Copyright 2023 Fonticons, Inc. --><path d="M250 96a48 48 0 1 0 0-96 48 48 0 1 0 0 96zm-51.1 32H181.4L172 142.8l-81.7 128 53.9 34.4 33.8-53V480v32h64V480 352h16V480v32h64V480 252.2l33.8 53 53.9-34.4L328 142.8 318.6 128H301.1 198.9zM51 23L34 6.1 .1 40 17 57l64 64 17 17L131.9 104 115 87 51 23zM483 57l17-17L466 6.1 449 23 385 87l-17 17L402 137.9l17-17 64-64zM115 425l17-17L98 374.1 81 391 17 455 .1 472 34 505.9l17-17 64-64zM419 391l-17-17L368.1 408l17 17 64 64 17 17L499.9 472l-17-17-64-64z"/></svg>