<svg xmlns="http://www.w3.org/2000/svg" viewBox="0 0 640 512"><!--! Font Awesome Pro 6.3.0 by @fontawesome - https://fontawesome.com License - https://fontawesome.com/license (Commercial License) Copyright 2023 Fonticons, Inc. --><path d="M206 0a48 48 0 1 1 0 96 48 48 0 1 1 0-96zM130.3 126.6l10 2 80 16 15.3 3.1 7 14 35.2 70.5 38.5 19.2-28.6 57.2-48-24-9.5-4.8-4.8-9.5-13.7-27.4-18.4 62.4 52.3 57 5.2 5.7 2 7.5 24 88 8.4 30.9-61.7 16.8-8.4-30.9-22-80.5-70.9-77.4c-14.8-16.1-20.3-38.6-14.7-59.7l17-63.6L87.9 215.5 76.4 250.1 66.2 280.5 5.5 260.2l10.1-30.4 16-48 4.5-13.4L49 162.8l72-32 9.3-4.1zm-38.6 209c2.1 3 4.5 5.8 7 8.6l40.7 44.4-15.7 39.3-2.4 6.1-4.6 4.6-48 48L46 509.3 .7 464l22.6-22.6L66.7 398l25-62.4zM414 24V72 96H366V72 24 0h48V24zM532.6 153.4l80 80L635.3 256l-22.6 22.6-80 80L510 381.3 464.7 336l22.6-22.6L512.7 288H382 350V224h32H512.7l-25.4-25.4L464.7 176 510 130.7l22.6 22.6zM414 128v24 16 24H366V168 152 128h48zm0 216v16 24H366V360 344 320h48v24zm0 72v24 48 24H366V488 440 416h48z"/></svg>