<svg xmlns="http://www.w3.org/2000/svg" viewBox="0 0 512 512"><!--! Font Awesome Pro 6.3.0 by @fontawesome - https://fontawesome.com License - https://fontawesome.com/license (Commercial License) Copyright 2023 Fonticons, Inc. --><path d="M150 128a48 48 0 1 0 0-96 48 48 0 1 0 0 96zm0 32H109l9.9 39.8 25.9 103.8C152 332 177.6 352 207 352h7 89.9l37.5 99.3 10.7 28.3 28.8-9 48-15.1 30.5-9.6-19.1-61.1-30.5 9.6-19.2 6-34.7-91.7L348.1 288H326 239l-8-32h63 32V192H294 215l-1.9-7.8L207 160H182 150zm-80.5-5.9l-5.9-31.5L.7 134.4l5.9 31.5 48 256L59.4 448H86 246h32V384H246 112.6L69.5 154.1z"/></svg>