<svg xmlns="http://www.w3.org/2000/svg" viewBox="0 0 512 512"><!--! Font Awesome Pro 6.3.0 by @fontawesome - https://fontawesome.com License - https://fontawesome.com/license (Commercial License) Copyright 2023 Fonticons, Inc. --><path d="M155 96a48 48 0 1 0 0-96 48 48 0 1 0 0 96zm-48 32H87.2l-8.8 17.7-64 128L.1 302.3l57.2 28.6 14.3-28.6L107 231.6v43.2c0 17 6.7 33.3 18.7 45.3L203 397.3V480v32h64V480 384 370.7l-9.4-9.4L203 306.7V288 213.3l70.4 93.9 19.2 25.6 51.2-38.4-19.2-25.6-96-128L219 128H203 107zm-7 248.2l-12 48-6 24-6 24-6 24L66 512h66l.1-.2 6-24 6-24 6-24 10-40.2-52.8-52.8L100 376.2zM425.5 498.8l9.1 13.2 26.3-18.2-9.1-13.2L339.2 317.9l-25.6 19.2 112 161.7z"/></svg>