<svg xmlns="http://www.w3.org/2000/svg" viewBox="0 0 512 512"><!--! Font Awesome Pro 6.3.0 by @fontawesome - https://fontawesome.com License - https://fontawesome.com/license (Commercial License) Copyright 2023 Fonticons, Inc. --><path d="M146 80a80 80 0 1 1 160 0A80 80 0 1 1 146 80zM271.2 443.8l23-32.9-52.8-8.8L194 354.7V312H130l0 20.4 0 35.6c0 .7 0 1.4 .1 2.1l69.2 34.3 43 21.3-42.6 86-43-21.3L28.7 427 2 413.8 2 384l0-32 0-17.8 11.6-13.5 96-112L123.9 192H146 322h26.2l14.2 22 72 112 17.4 27.1-18.5 26.4-56 80-27.5 39.3-78.6-55zM278 376a44 44 0 1 0 0-88 44 44 0 1 0 0 88z"/></svg>