<svg xmlns="http://www.w3.org/2000/svg" viewBox="0 0 448 512"><!--! Font Awesome Pro 6.3.0 by @fontawesome - https://fontawesome.com License - https://fontawesome.com/license (Commercial License) Copyright 2023 Fonticons, Inc. --><path d="M252 48a48 48 0 1 0 -96 0 48 48 0 1 0 96 0zm-8 187.3l47.4 57.1 20.4 24.6 49.3-40.9-20.4-24.6-92.9-112L238.1 128h-15H120.9 102.8l-9.3 15.5-76.9 128L.1 298.9l54.9 33 16.5-27.4L100 256.9V480v32h64V480 352h16V480v32h64V480 235.3zM332 376c0-4.4 3.6-8 8-8s8 3.6 8 8V488v24h48V488 376c0-30.9-25.1-56-56-56s-56 25.1-56 56v8 24h48V384v-8z"/></svg>