<svg xmlns="http://www.w3.org/2000/svg" viewBox="0 0 576 512"><!--! Font Awesome Pro 6.3.0 by @fontawesome - https://fontawesome.com License - https://fontawesome.com/license (Commercial License) Copyright 2023 Fonticons, Inc. --><path d="M399 0L207 16V64H399V0zM223 112c0 44.2 35.8 80 80 80s80-35.8 80-80c0-5.5-.6-10.8-1.6-16H224.6c-1 5.2-1.6 10.5-1.6 16zM55 224H15v80H55 207v89.4L376.4 224H223 55zm356.7 9.9L229.6 416H399V369.7l53.6 90.6 20.3 34.4 68.9-40.7-20.4-34.4-104-176-5.7-9.7zM207 448v64H399V448H207z"/></svg>