<svg xmlns="http://www.w3.org/2000/svg" viewBox="0 0 640 512"><!--! Font Awesome Pro 6.3.0 by @fontawesome - https://fontawesome.com License - https://fontawesome.com/license (Commercial License) Copyright 2023 Fonticons, Inc. --><path d="M602.4 0H180.7V301.2H346.4V240.9H331.3 271.1V210.8l67.8-75.3 26.4 30.1 56.5-75.3 48 64 132.7-44.2V0zM150.6 368.9V90.4H0V421.6H272.8c4.1-17.2 14.9-31.2 27.9-41c6.3-4.8 13.4-8.7 21-11.7H150.6zM271.1 60.2a30.1 30.1 0 1 1 0 60.2 30.1 30.1 0 1 1 0-60.2zM52.7 143.1H97.9v45.2H52.7V143.1zm45.2 90.4v45.2H52.7V233.4H97.9zM52.7 323.8H97.9v45.2H52.7V323.8zM602.4 143.1L572.6 153 391.9 213.2l-15.4 5.1v16.3 45.2V394.2c-4.8-.9-9.9-1.4-15.1-1.4c-33.3 0-60.2 20.2-60.2 45.2s27 45.2 60.2 45.2s60.2-20.2 60.2-45.2V296.1l135.5-45.2v83c-4.8-.9-9.9-1.4-15.1-1.4c-33.3 0-60.2 20.2-60.2 45.2s27 45.2 60.2 45.2s60.2-20.2 60.2-45.2c0-1.4-.1-2.8-.3-4.2c.2-1.1 .3-2.2 .3-3.4V219.6 174.4 143.1z"/></svg>