<svg xmlns="http://www.w3.org/2000/svg" viewBox="0 0 512 512"><!--! Font Awesome Pro 6.3.0 by @fontawesome - https://fontawesome.com License - https://fontawesome.com/license (Commercial License) Copyright 2023 Fonticons, Inc. --><path d="M311.7 319.7C504 127.4 495.9 8.1 495.9 8.1s-58.4-4-159.4 59.6C309.6 55.1 279.6 48 248 48C133.1 48 40 141.1 40 256c0 31.6 7.1 61.6 19.7 88.5C-3.9 445.5 .1 503.9 .1 503.9s119.3 8.1 311.6-184.2zM248 464c114.9 0 208-93.1 208-208c0-17.5-2.2-34.4-6.2-50.6c-27.7 40.6-65 86.5-115.5 137s-96.3 87.8-137 115.5c16.2 4.1 33.2 6.2 50.6 6.2z"/></svg>