<svg xmlns="http://www.w3.org/2000/svg" viewBox="0 0 640 512"><!--! Font Awesome Pro 6.3.0 by @fontawesome - https://fontawesome.com License - https://fontawesome.com/license (Commercial License) Copyright 2023 Fonticons, Inc. --><path d="M96 24V0H48V24c0 45.1 21.2 69 37.7 87.5l.4 .4C101.5 129.3 112 141.5 112 168v24h48V168c0-45.1-21.2-69-37.7-87.5l-.4-.4C106.5 62.7 96 50.5 96 24zm112 0V0H160V24c0 45.1 21.2 69 37.7 87.5l.4 .4C213.5 129.3 224 141.5 224 168v24h48V168c0-45.1-21.2-69-37.7-87.5l-.4-.4C218.5 62.7 208 50.5 208 24zm208 88c-50.7 0-93.6 33.7-107.4 80H523.4c-13.8-46.3-56.6-80-107.4-80zM560 224H48l1.9 32H32 0v64H32 56.4C71.1 387.5 116.1 443.2 176 472.9V512H432V472.9c59.9-29.7 104.9-85.4 119.6-152.9H576h32V256H576 558.1l1.9-32z"/></svg>