<svg xmlns="http://www.w3.org/2000/svg" viewBox="0 0 512 512"><!--! Font Awesome Pro 6.3.0 by @fontawesome - https://fontawesome.com License - https://fontawesome.com/license (Commercial License) Copyright 2023 Fonticons, Inc. --><path d="M67 256c0 88.4 71.6 160 160 160c25.3 0 49.2-5.9 70.5-16.3L197.9 256h77.9l72.4 104.5c24.2-28 38.8-64.5 38.8-104.5c0-88.4-71.6-160-160-160S67 167.6 67 256zM334.3 452.7C302.4 470.1 265.9 480 227 480C103.3 480 3 379.7 3 256S103.3 32 227 32s224 100.3 224 224c0 61.8-25 117.8-65.5 158.3l66.2 95.5 1.5 2.2H375.4l-41.1-59.3z"/></svg>