<svg xmlns="http://www.w3.org/2000/svg" viewBox="0 0 640 512"><!--! Font Awesome Pro 6.3.0 by @fontawesome - https://fontawesome.com License - https://fontawesome.com/license (Commercial License) Copyright 2023 Fonticons, Inc. --><path d="M79 48a48 48 0 1 1 96 0A48 48 0 1 1 79 48zM52.4 128H75.9 178.1h23.5l7 22.5 44.9 144-54.5 17V480v32H135V480 352H119V480v32H55V480 311.5L.5 294.5l44.9-144 7-22.5zM343 0V24 488v24H295V488 24 0h48zM463 48a48 48 0 1 1 96 0 48 48 0 1 1 -96 0zm-26.6 80h23.5H562.1h23.5l7 22.5 44.9 144L597.3 307 623 384H583v96 32H519V480 384H503v96 32H439V480 384H399l25.7-77-40.2-12.5 44.9-144 7-22.5z"/></svg>