<svg xmlns="http://www.w3.org/2000/svg" viewBox="0 0 512 512"><!--! Font Awesome Pro 6.3.0 by @fontawesome - https://fontawesome.com License - https://fontawesome.com/license (Commercial License) Copyright 2023 Fonticons, Inc. --><path d="M245.5 12.6L229 2.7l-16.5 9.9-4.7 2.8c-37.5 22.5-84 24.3-123.1 4.7l-1.4-.7L56.2 5.8l-15 26.3-32 56L.7 103l7.7 15.3 18.2 36.4C33.4 168.4 37 183.5 37 198.8c0 12.5-2.4 25-7.1 36.6L14.1 275C8.1 290.1 5 306.2 5 322.5c0 50 29.1 95.4 74.6 116.3l136.1 62.4 13.3 6.1 13.3-6.1 136.1-62.4c45.5-20.8 74.6-66.3 74.6-116.3c0-16.3-3.1-32.4-9.1-47.5l-15.8-39.5c-4.7-11.7-7.1-24.1-7.1-36.6c0-15.3 3.6-30.4 10.4-44.1l18.2-36.4 7.7-15.3-8.5-14.9-32-56-15-26.3L374.7 19.4l-1.4 .7c-39.1 19.6-85.6 17.8-123.1-4.7l-4.7-2.8zM100.9 192H357.1c-.1 2.3-.1 4.6-.1 6.8c0 20.7 3.9 41.2 11.6 60.4l15.8 39.5c3 7.5 4.6 15.6 4.6 23.7c0 25-14.6 47.7-37.3 58.1L229 436.8 106.3 380.5C83.6 370.1 69 347.4 69 322.5c0-8.1 1.6-16.2 4.6-23.7l15.8-39.5C97.1 240 101 219.5 101 198.8c0-2.3 0-4.6-.1-6.8z"/></svg>