<svg xmlns="http://www.w3.org/2000/svg" viewBox="0 0 512 512"><!--! Font Awesome Pro 6.3.0 by @fontawesome - https://fontawesome.com License - https://fontawesome.com/license (Commercial License) Copyright 2023 Fonticons, Inc. --><path d="M252 12.9L235 2.3 218 12.9c-29.7 18.6-53.7 28.5-78.3 32.6c-24.8 4.1-52.6 2.8-90.5-4.8L16.5 34.1 11.4 67.1C-4.8 172.4-6 260.3 25.8 333.1c32.6 74.4 96.8 127.1 196.9 168.5l12.9 5.4 12.7-5.9c97.3-44.9 161.1-97.3 194.1-170.4c32.5-71.9 32.3-158 16.1-263.6l-5.1-33.1-32.8 6.6c-37.9 7.6-65.7 8.9-90.5 4.8c-24.6-4.1-48.6-14-78.3-32.6zM64.2 192H405.3c-.3 44.7-7 81.2-21.1 112.3c-22.9 50.7-67.7 92.7-149.9 132.6c-83.2-36.6-127.5-78.3-149.9-129.5c-14-31.9-20.4-69.6-20.2-115.4z"/></svg>