<svg xmlns="http://www.w3.org/2000/svg" viewBox="0 0 512 512"><!--! Font Awesome Pro 6.3.0 by @fontawesome - https://fontawesome.com License - https://fontawesome.com/license (Commercial License) Copyright 2023 Fonticons, Inc. --><path d="M180 0h-8.7l-4.7 7.3-72 112-2.5 4V128v80 6.6l4.7 4.7 176 176 112 112 22.6-22.6L306.6 384 332 358.6 432.7 459.3l22.6-22.6L354.6 336 380 310.6 480.7 411.3l22.6-22.6-112-112L380 265.4l-9.4-9.4L252 137.4 210.6 96H252h41.4l-18.7 18.7L393.3 233.4l14.1-14.1 4.7-4.7V208 128v-4.7l-2.5-4-72-112L332.7 0H324 180zM.7 388.7l22.6 22.6 112-112-22.6-22.6L.7 388.7zm48 48l22.6 22.6 112-112-22.6-22.6-112 112zm48 48l22.6 22.6 112-112-22.6-22.6-112 112z"/></svg>