<svg xmlns="http://www.w3.org/2000/svg" viewBox="0 0 576 512"><!--! Font Awesome Pro 6.3.0 by @fontawesome - https://fontawesome.com License - https://fontawesome.com/license (Commercial License) Copyright 2023 Fonticons, Inc. --><path d="M171 23.3C187.5 8.3 209 0 231.3 0h1.1C281.3 0 321 39.7 321 88.6c0 23.5-9.3 46-25.9 62.6L104.2 342.1c-4.6 4.6-7.2 10.9-7.2 17.4C97 373 108 384 121.6 384c6.5 0 12.8-2.6 17.4-7.2L361.8 153.9c16.6-16.6 39.1-25.9 62.6-25.9c48.9 0 88.6 39.7 88.6 88.6c0 23.5-9.3 46-25.9 62.6l-88.2 88.2c-8.9 8.9-13.8 20.9-13.8 33.4c0 26.1 21.1 47.2 47.2 47.2h4.4c4.8 0 9.5-.8 14.1-2.3l12.2-4.1 30.4-10.1 20.2 60.7-30.4 10.1-12.2 4.1c-11.1 3.7-22.6 5.6-34.3 5.6h-4.4C370.8 512 321 462.2 321 400.8c0-29.5 11.7-57.8 32.6-78.6l88.2-88.2c4.6-4.6 7.2-10.9 7.2-17.4c0-13.6-11-24.6-24.6-24.6c-6.5 0-12.8 2.6-17.4 7.2L184.2 422.1c-16.6 16.6-39.1 25.9-62.6 25.9C72.7 448 33 408.3 33 359.4c0-23.5 9.3-46 25.9-62.6L249.8 105.9c4.6-4.6 7.2-10.9 7.2-17.4C257 75 246 64 232.4 64h-1.1c-6.4 0-12.6 2.4-17.3 6.7L54.5 215.7 11.5 168.3 171 23.3z"/></svg>