<svg xmlns="http://www.w3.org/2000/svg" viewBox="0 0 512 512"><!--! Font Awesome Pro 6.3.0 by @fontawesome - https://fontawesome.com License - https://fontawesome.com/license (Commercial License) Copyright 2023 Fonticons, Inc. --><path d="M226.2 0l10.9 4.2L432.4 80l18 7 1.1 19.3c2.7 47-4.6 118.8-35.1 189.1c-30.8 70.8-85.7 141.2-178.3 181.2l-12 5.2-12-5.2C121.6 436.6 66.7 366.3 35.9 295.5C5.4 225.2-1.9 153.4 .8 106.3L2 87l18-7L215.3 4.2 226.2 0zm92.2 180.7l-31.9-31.9-16 16L226.2 209l-44.3-44.3-16-16L134 180.7l16 16 44.3 44.3L150 285.2l-16 16 31.9 31.9 16-16 44.3-44.3 44.3 44.3 16 16 31.9-31.9-16-16-44.3-44.3 44.3-44.3 16-16z"/></svg>