<svg xmlns="http://www.w3.org/2000/svg" viewBox="0 0 512 512"><!--! Font Awesome Pro 6.3.0 by @fontawesome - https://fontawesome.com License - https://fontawesome.com/license (Commercial License) Copyright 2023 Fonticons, Inc. --><path d="M226.2 0l10.9 4.2L432.4 80l18 7 1.1 19.3c2.7 47-4.6 118.8-35.1 189.1c-30.8 70.8-85.7 141.2-178.3 181.2l-12 5.2-12-5.2C121.6 436.6 66.7 366.3 35.9 295.5C5.4 225.2-1.9 153.4 .8 106.3L2 87l18-7L215.3 4.2 226.2 0zm85.2 134.4l-10.6 10.6c-21.9 21.9-59.5 6.4-59.5-24.6V105.4H226.2 211.1v15.1c0 31-37.5 46.6-59.5 24.6L141 134.5l-10.6 10.6 0 0-10.6 10.6 10.6 10.6c21.9 21.9 6.4 59.5-24.6 59.5H90.6v15.1V256h15.1c31 0 46.6 37.5 24.6 59.5l-10.6 10.6 10.6 10.6 0 0L141 347.4l10.6-10.6c21.9-21.9 59.5-6.4 59.5 24.6v15.1h15.1 15.1V361.4c0-31 37.5-46.6 59.5-24.6l10.6 10.6L322 336.8l10.6-10.6L322 315.5c-21.9-21.9-6.4-59.5 24.6-59.5h15.1V240.9 225.9H346.6c-31 0-46.6-37.5-24.6-59.5l10.6-10.6L322 145.1l-10.6-10.6zM203.6 195.8a22.6 22.6 0 1 1 0 45.2 22.6 22.6 0 1 1 0-45.2zm37.6 75.3a15.1 15.1 0 1 1 30.1 0 15.1 15.1 0 1 1 -30.1 0z"/></svg>