<svg xmlns="http://www.w3.org/2000/svg" viewBox="0 0 512 512"><!--! Font Awesome Pro 6.3.0 by @fontawesome - https://fontawesome.com License - https://fontawesome.com/license (Commercial License) Copyright 2023 Fonticons, Inc. --><path d="M226.2 0l10.9 4.2L432.4 80l18 7 1.1 19.3c2.7 47-4.6 118.8-35.1 189.1c-30.8 70.8-85.7 141.2-178.3 181.2l-12 5.2-12-5.2C121.6 436.6 66.7 366.3 35.9 295.5C5.4 225.2-1.9 153.4 .8 106.3L2 87l18-7L215.3 4.2 226.2 0zM196.1 195.8l-60.2-60.2V256c0 49.9 40.5 90.4 90.4 90.4s90.4-40.5 90.4-90.4V135.5l-60.2 60.2H196.1zm-7.5 45.2a15.1 15.1 0 1 1 0 30.1 15.1 15.1 0 1 1 0-30.1zM248.8 256a15.1 15.1 0 1 1 30.1 0 15.1 15.1 0 1 1 -30.1 0z"/></svg>