<svg xmlns="http://www.w3.org/2000/svg" viewBox="0 0 512 512"><!--! Font Awesome Pro 6.3.0 by @fontawesome - https://fontawesome.com License - https://fontawesome.com/license (Commercial License) Copyright 2023 Fonticons, Inc. --><path d="M237.1 4.2L226.2 0 215.3 4.2 20 80 2 87 .8 106.3c-2.7 47 4.6 118.8 35.1 189.1c30.8 70.8 85.7 141.2 178.3 181.2l12 5.2 12-5.2c92.6-40.1 147.5-110.4 178.3-181.2c30.5-70.3 37.9-142.1 35.1-189.1L450.4 87l-18-7L237.1 4.2zM226.2 64.6l0 0 165.7 64.3c-.5 38.5-8.3 91.1-30.6 142.6c-24.7 56.8-66.5 111-135 144.5V64.6z"/></svg>