<svg xmlns="http://www.w3.org/2000/svg" viewBox="0 0 512 512"><!--! Font Awesome Pro 6.3.0 by @fontawesome - https://fontawesome.com License - https://fontawesome.com/license (Commercial License) Copyright 2023 Fonticons, Inc. --><path d="M226.2 0l10.9 4.2L432.4 80l18 7 1.1 19.3c2.7 47-4.6 118.8-35.1 189.1c-30.8 70.8-85.7 141.2-178.3 181.2l-12 5.2-12-5.2C121.6 436.6 66.7 366.3 35.9 295.5C5.4 225.2-1.9 153.4 .8 106.3L2 87l18-7L215.3 4.2 226.2 0zM203.6 346.4h45.2V323.8 263.5H309h22.6V218.4H309 248.8V158.1l0-22.6H203.6v22.6 60.2H143.4 120.8v45.2h22.6 60.2v60.2 22.6z"/></svg>