<svg xmlns="http://www.w3.org/2000/svg" viewBox="0 0 512 512"><!--! Font Awesome Pro 6.3.0 by @fontawesome - https://fontawesome.com License - https://fontawesome.com/license (Commercial License) Copyright 2023 Fonticons, Inc. --><path d="M226.2 0l10.9 4.2L432.4 80l18 7 1.1 19.3c2.7 47-4.6 118.8-35.1 189.1c-30.8 70.8-85.7 141.2-178.3 181.2l-12 5.2-12-5.2C121.6 436.6 66.7 366.3 35.9 295.5C5.4 225.2-1.9 153.4 .8 106.3L2 87l18-7L215.3 4.2 226.2 0zM120.8 206.3c0 15.1 6.2 29.6 17.1 40.1l77.9 74.9 10.4 10 10.4-10 77.9-74.9c10.9-10.5 17.1-25 17.1-40.1c0-30.8-24.9-55.7-55.7-55.7h-2.3c-15 0-29.4 5.8-40.2 16.2l-7.2 6.9-7.2-6.9c-10.8-10.4-25.2-16.2-40.2-16.2h-2.3c-30.8 0-55.7 24.9-55.7 55.7z"/></svg>