<svg xmlns="http://www.w3.org/2000/svg" viewBox="0 0 512 512"><!--! Font Awesome Pro 6.3.0 by @fontawesome - https://fontawesome.com License - https://fontawesome.com/license (Commercial License) Copyright 2023 Fonticons, Inc. --><path d="M226.2 0l10.9 4.2L432.4 80l18 7 1.1 19.3c2.7 47-4.6 118.8-35.1 189.1c-30.8 70.8-85.7 141.2-178.3 181.2l-12 5.2-12-5.2C121.6 436.6 66.7 366.3 35.9 295.5C5.4 225.2-1.9 153.4 .8 106.3L2 87l18-7L215.3 4.2 226.2 0zM136.7 269.4l-15.9 31.8 120.5 60.2V301.2h45.2c41.6 0 75.3-33.7 75.3-75.3V180.7H286.4l-15.1-30.1H211.1v60.2c0 33.3-27 60.2-60.2 60.2c-4.9 0-9.7-.6-14.2-1.7zM120.8 150.6v60.2c0 16.6 13.5 30.1 30.1 30.1s30.1-13.5 30.1-30.1V180.7 150.6h-7.5H120.8zm105.4 45.2a15.1 15.1 0 1 1 30.1 0 15.1 15.1 0 1 1 -30.1 0z"/></svg>