<svg xmlns="http://www.w3.org/2000/svg" viewBox="0 0 640 512"><!--! Font Awesome Pro 6.3.0 by @fontawesome - https://fontawesome.com License - https://fontawesome.com/license (Commercial License) Copyright 2023 Fonticons, Inc. --><path d="M45.5 13.9L27.7 .1 0 35.8 17.8 49.6 556.7 468l17.8 13.9 27.7-35.7-17.8-13.9L469 342.7c8.6-14.3 16-28.8 22.4-43.4C522 229.4 529.3 158 526.6 111.2l-1.1-19.4-18.1-7L312 9.5 301.2 5.4 290.3 9.5 123 74.1 45.5 13.9zM111 299.3c30.8 70.4 85.7 140.4 178.3 180.2l11.9 5.1 11.9-5.1c39.3-16.9 71.8-39.2 98.6-64.7L75.8 150.1C78.1 193.3 88 246.7 111 299.3z"/></svg>