<svg xmlns="http://www.w3.org/2000/svg" viewBox="0 0 512 512"><!--! Font Awesome Pro 6.3.0 by @fontawesome - https://fontawesome.com License - https://fontawesome.com/license (Commercial License) Copyright 2023 Fonticons, Inc. --><path d="M237.1 4.2L226.2 0 215.3 4.2 20 80 2 87 .8 106.3c-2.7 47 4.6 118.8 35.1 189.1c30.8 70.8 85.7 141.2 178.3 181.2l12 5.2 12-5.2c92.6-40.1 147.5-110.4 178.3-181.2c30.5-70.3 37.9-142.1 35.1-189.1L450.4 87l-18-7L237.1 4.2zm-41 72.1l30.1-11.7 30.1 11.7v74.3H390.9c-1.4 18.4-4.4 38.9-9.5 60.2h-125v188c-9.4 6.2-19.4 11.9-30.1 17.1c-10.7-5.2-20.7-10.9-30.1-17.1v-188H71c-5.1-21.4-8.1-41.8-9.5-60.2H196.1V76.3z"/></svg>