<svg xmlns="http://www.w3.org/2000/svg" viewBox="0 0 512 512"><!--! Font Awesome Pro 6.3.0 by @fontawesome - https://fontawesome.com License - https://fontawesome.com/license (Commercial License) Copyright 2023 Fonticons, Inc. --><path d="M379 128c0 44.4-25.4 83.5-64 106.4V288H155V234.4c-38.6-23-64-62.1-64-106.4C91 57.3 155.5 0 235 0s144 57.3 144 128zM179 176a32 32 0 1 0 0-64 32 32 0 1 0 0 64zm144-32a32 32 0 1 0 -64 0 32 32 0 1 0 64 0zM27.7 245.4l29 13.6L235 343l178.4-84 29-13.6 27.3 57.9-29 13.6L310.1 378.4l130.5 61.4 29 13.6-27.3 57.9-29-13.6L235 413.8l-178.4 84-29 13.6L.4 453.5l29-13.6 130.5-61.4L29.4 317 .4 303.3l27.3-57.9z"/></svg>