<svg xmlns="http://www.w3.org/2000/svg" viewBox="0 0 512 512"><!--! Font Awesome Pro 6.3.0 by @fontawesome - https://fontawesome.com License - https://fontawesome.com/license (Commercial License) Copyright 2023 Fonticons, Inc. --><path d="M112 0V32 64h48v48 64 48H112V480v32H48V480 224H0V176 112 64H48V32 0h64zM272 0V32 288h48v48 64 48H272v32 32H208V480 448H160V400 336 288h48V32 0h64zM432 32V96h48v48 64 48H432V480v32H368V480 256H320V208 144 96h48V32 0h64V32zM48 112v64h64V112H48zM272 336H208v64h64V336zm96-192v64h64V144H368z"/></svg>