<svg xmlns="http://www.w3.org/2000/svg" viewBox="0 0 384 512"><!--! Font Awesome Pro 6.3.0 by @fontawesome - https://fontawesome.com License - https://fontawesome.com/license (Commercial License) Copyright 2023 Fonticons, Inc. --><path d="M304 128c0 11.8-3.2 22.9-8.8 32.4c32 3.6 56.8 30.7 56.8 63.6v64H0V224c0-32.9 24.8-60 56.8-63.6C51.2 150.9 48 139.8 48 128c0-35.3 28.7-64 64-64h46.1C176.8 64 192 48.8 192 30.1c0-9-3.6-17.6-9.9-24L176 0c70.7 0 128 57.3 128 128zM32 384V320H320v64H286.2L272 512H80L65.8 384H32z"/></svg>