<svg xmlns="http://www.w3.org/2000/svg" viewBox="0 0 640 512"><!--! Font Awesome Pro 6.3.0 by @fontawesome - https://fontawesome.com License - https://fontawesome.com/license (Commercial License) Copyright 2023 Fonticons, Inc. --><path d="M149.3 0l8.2 19.7 66.7 160 26.7 64L256 256H186.7l-13.3-32H82.7L69.3 256H0l5.1-12.3 26.7-64 0 0 66.7-160L106.7 0h42.7zm-40 160h37.3L128 115.2 109.3 160zM272 0h32 64c44.2 0 80 35.8 80 80c0 13.6-3.4 26.4-9.4 37.6C454.2 132.2 464 152.9 464 176c0 44.2-35.8 80-80 80H304 272V224 128 32 0zm96 96c8.8 0 16-7.2 16-16s-7.2-16-16-16H336V96h32zm-32 64v32h48c8.8 0 16-7.2 16-16s-7.2-16-16-16H368 336zM605.3 272l-22.6 22.6-192 192L368 509.3l-22.6-22.6-96-96L226.7 368 272 322.7l22.6 22.6L368 418.7 537.4 249.4 560 226.7 605.3 272z"/></svg>