<svg xmlns="http://www.w3.org/2000/svg" viewBox="0 0 576 512"><!--! Font Awesome Pro 6.3.0 by @fontawesome - https://fontawesome.com License - https://fontawesome.com/license (Commercial License) Copyright 2023 Fonticons, Inc. --><path d="M174.4 19.1l-9.2 22.2-33.8 81.2L183 174.1V160c0-38.7 27.5-71 64-78.4V128h32V81.6c36.5 7.4 64 39.7 64 78.4v14.1l51.7-51.7L360.8 41.2l-9.2-22.2L395.9 .6l9.2 22.2 40 96 6.2 14.8L440 145l-72.1 72.1L452 189l20.2-60.6 7.6-22.8 45.5 15.2-7.6 22.8-24 72L490 227l-11.4 3.8L402.9 256l75.7 25.2L490 285l3.8 11.4 24 72 7.6 22.8-45.5 15.2-7.6-22.8L452 323l-84.2-28.1L440 367l11.4 11.4-6.2 14.8-40 96-9.2 22.2-44.3-18.5 9.2-22.2 33.8-81.2L359 353.9c-1 52.1-43.6 94.1-96 94.1s-95-41.9-96-94.1l-35.7 35.7 33.8 81.2 9.2 22.2-44.3 18.5-9.2-22.2-40-96-6.2-14.8L86 367l72.1-72.1L74 323 53.8 383.6l-7.6 22.8L.6 391.2l7.6-22.8 24-72L36 285l11.4-3.8L123.1 256 47.4 230.8 36 227l-3.8-11.4-24-72L.6 120.8l45.5-15.2 7.6 22.8L74 189l84.2 28.1L86 145 74.7 133.6l6.2-14.8 40-96L130.1 .6l44.3 18.5zM223 288v16l24 32-24 32v16h80V368l-24-32 24-32V288H223z"/></svg>