<svg xmlns="http://www.w3.org/2000/svg" viewBox="0 0 576 512"><!--! Font Awesome Pro 6.3.0 by @fontawesome - https://fontawesome.com License - https://fontawesome.com/license (Commercial License) Copyright 2023 Fonticons, Inc. --><path d="M165.2 41.2l9.2-22.2L130.1 .6l-9.2 22.2-40 96-6.2 14.8L86 145l72.1 72.1L74 189 53.8 128.4l-7.6-22.8L.6 120.8l7.6 22.8 24 72L36 227l11.4 3.8L123.1 256 47.4 281.2 36 285l-3.8 11.4-24 72L.6 391.2l45.5 15.2 7.6-22.8L74 323l84.2-28.1L86 367 74.7 378.4l6.2 14.8 40 96 9.2 22.2 44.3-18.5-9.2-22.2-33.8-81.2L167 353.9c1 52.1 43.6 94.1 96 94.1s95-41.9 96-94.1l35.7 35.7-33.8 81.2-9.2 22.2 44.3 18.5 9.2-22.2 40-96 6.2-14.8L440 367l-72.1-72.1L452 323l20.2 60.6 7.6 22.8 45.5-15.2-7.6-22.8-24-72L490 285l-11.4-3.8L402.9 256l75.7-25.2L490 227l3.8-11.4 24-72 7.6-22.8-45.5-15.2-7.6 22.8L452 189l-84.2 28.1L440 145l11.4-11.4-6.2-14.8-40-96L395.9 .6 351.6 19.1l9.2 22.2 33.8 81.2L343 174.1V160c0-38.7-27.5-71-64-78.4V128H247V81.6c-36.5 7.4-64 39.7-64 78.4v14.1l-51.7-51.7 33.8-81.2z"/></svg>