<svg xmlns="http://www.w3.org/2000/svg" viewBox="0 0 512 512"><!--! Font Awesome Pro 6.3.0 by @fontawesome - https://fontawesome.com License - https://fontawesome.com/license (Commercial License) Copyright 2023 Fonticons, Inc. --><path d="M0 400H56h91.3L216 512h48l68.7-112H424h56V352l-4.9-8-54-88 54-88 4.9-8V112H424 332.7L264 0H216L147.3 112H56 0v48l4.9 8 54 88-54 88L0 352v48zm91.8-90.5L112.9 344H70.6l21.1-34.5zM178.6 344l-54-88 54-88H301.4l54 88-54 88H178.6zM213 400h54l-27 44-27-44zm154.1-56l21.1-34.5L409.4 344H367.1zm21.1-141.5L367.1 168h42.3l-21.1 34.5zM267 112H213l27-44 27 44zM112.9 168L91.8 202.5 70.6 168h42.3z"/></svg>