<svg xmlns="http://www.w3.org/2000/svg" viewBox="0 0 576 512"><!--! Font Awesome Pro 6.3.0 by @fontawesome - https://fontawesome.com License - https://fontawesome.com/license (Commercial License) Copyright 2023 Fonticons, Inc. --><path d="M337 48c44.1 0 85 13.7 118.6 37.1C408.8 32.9 340.7 0 265 0C123.6 0 9 114.6 9 256S123.6 512 265 512c75.7 0 143.8-32.9 190.6-85.1C422 450.3 381.1 464 337 464c-114.9 0-208-93.1-208-208s93.1-208 208-208zm98.3 157.8L393 120l-42.3 85.8L256 219.5l68.5 66.7-16.2 94.2L393 336l84.6 44.5-16.2-94.2L530 219.5l-94.6-13.8z"/></svg>