<svg xmlns="http://www.w3.org/2000/svg" viewBox="0 0 512 512"><!--! Font Awesome Pro 6.3.0 by @fontawesome - https://fontawesome.com License - https://fontawesome.com/license (Commercial License) Copyright 2023 Fonticons, Inc. --><path d="M451.2 18.2L472 39l20.8 20.8 17 17-33.9 33.9-17-17L455 89.9 416.9 128l55 55 17 17L455 233.9l-17-17-72-72L294 73l-17-17L311 22.1l17 17 55 55L421.1 56l-3.8-3.8-17-17L434.2 1.3l17 17zM209.3 155.7l61.1-61.1c.3 .3 .6 .7 1 1l16 16 56 56 56 56 16 16c.3 .3 .6 .6 1 1L216 441l-7 7H199 96.9L51.2 493.8l-17 17L.3 476.8l17-17L63 414.1V312v-9.9l7-7 52.7-52.7 57 57L191 310.6 213.6 288l-11.3-11.3-57-57 41.4-41.4 57 57L255 246.6 277.6 224l-11.3-11.3-57-57z"/></svg>