<svg xmlns="http://www.w3.org/2000/svg" viewBox="0 0 640 512"><!--! Font Awesome Pro 6.3.0 by @fontawesome - https://fontawesome.com License - https://fontawesome.com/license (Commercial License) Copyright 2023 Fonticons, Inc. --><path d="M153 32V64 278.5l64-22.6V64 32h64V64 233.4l64-22.6V64 32h64V64 188.2l64-22.6V64 32h64V64v79l37.4-13.2 30.2-10.7 21.3 60.4-30.2 10.7L537 210.9V448v32H473V448 233.5l-64 22.6V448v32H345V448 278.6l-64 22.6V448v32H217V448 323.8l-64 22.6V448v32H89V448 369L51.6 382.2 21.5 392.8 .2 332.5l30.2-10.6L89 301.1V64 32h64z"/></svg>