<svg xmlns="http://www.w3.org/2000/svg" viewBox="0 0 320 512"><!--! Font Awesome Pro 6.3.0 by @fontawesome - https://fontawesome.com License - https://fontawesome.com/license (Commercial License) Copyright 2023 Fonticons, Inc. --><path d="M81.8 317.8L96 300.2V277.5 64h96V277.5v22.7l14.2 17.6C217.4 331.5 224 348.9 224 368c0 44.2-35.8 80-80 80s-80-35.8-80-80c0-19.1 6.6-36.5 17.8-50.3zM256 0H192 96 32V64 277.5C12 302.2 0 333.7 0 368c0 79.5 64.5 144 144 144s144-64.5 144-144c0-34.3-12-65.8-32-90.5V64 0zM144 416a48 48 0 1 0 0-96 48 48 0 1 0 0 96z"/></svg>