<svg xmlns="http://www.w3.org/2000/svg" viewBox="0 0 576 512"><!--! Font Awesome Pro 6.3.0 by @fontawesome - https://fontawesome.com License - https://fontawesome.com/license (Commercial License) Copyright 2023 Fonticons, Inc. --><path d="M195.9 136L162 102.1l-17 17-23 23L122 24V0H74V24l0 118.1L51 119l-17-17L.1 136l17 17 64 64 17 17 17-17 64-64 17-17zM82 288L50 512H274V352l96 160H498L466 288 274 160 82 288zM531 153l17-17L514 102.1l-17 17-23 23V24 0H426V24 142.1l-23-23-17-17L352.1 136l17 17 64 64 17 17 17-17 64-64z"/></svg>