<svg xmlns="http://www.w3.org/2000/svg" viewBox="0 0 512 512"><!--! Font Awesome Pro 6.3.0 by @fontawesome - https://fontawesome.com License - https://fontawesome.com/license (Commercial License) Copyright 2023 Fonticons, Inc. --><path d="M382 32V0h64V32 54.5c0 24.1 3.9 48 11.5 70.8l2.5 7.4c4.8 14.4 11.5 28.6 19.3 44.4c17.5 35.6 33.4 82.6 27.5 136.2c-5.3 48.6-28.1 99-76.8 148.7v50H366V488H334v24H270V488H238v24H174V488H142v24H78V462C29.3 412.3 6.6 361.9 1.2 313.3c-5.9-53.6 9.9-100.6 27.5-136.2c7.8-15.8 14.5-30 19.3-44.4l2.5-7.4C58.1 102.5 62 78.5 62 54.5V32 0h64V32 54.5c0 31-5 61.7-14.8 91.1l-2.5 7.4c-6.3 19-14.8 36.6-22.6 52.5c-14.7 29.7-25.3 64-21.3 100.9c3.7 34 20.4 74.1 65.7 117.7H377.4c45.3-43.6 62-83.7 65.7-117.7c4.1-36.9-6.6-71.1-21.3-100.9c-7.8-15.8-16.3-33.5-22.6-52.5l-2.5-7.4C387 116.2 382 85.4 382 54.5V32zM278 120V232v24H230V232 120 96h48v24zm0 168v48H230V288h48z"/></svg>