<svg xmlns="http://www.w3.org/2000/svg" viewBox="0 0 640 512"><!--! Font Awesome Pro 6.3.0 by @fontawesome - https://fontawesome.com License - https://fontawesome.com/license (Commercial License) Copyright 2023 Fonticons, Inc. --><path d="M436.2 0C389.2 49.6 376 126.5 376 192c0 109.9-8 217.7-50.7 320H0l18.4-44.2C52.1 382.6 56 281.9 56 192C56 86 99 0 152 0H436.2zM600 192c0 106-43 192-96 192s-96-86-96-192S451 0 504 0s96 86 96 192zm-64 0c0-35.3-14.3-64-32-64s-32 28.7-32 64s14.3 64 32 64s32-28.7 32-64z"/></svg>