<svg xmlns="http://www.w3.org/2000/svg" viewBox="0 0 640 512"><!--! Font Awesome Pro 6.3.0 by @fontawesome - https://fontawesome.com License - https://fontawesome.com/license (Commercial License) Copyright 2023 Fonticons, Inc. --><path d="M376 192c0-65.5 13.2-142.4 60.2-192H152C99 0 56 86 56 192c0 89.9-3.9 190.6-37.6 275.8L0 512H325.3C368 409.7 376 301.9 376 192zM504 384c53 0 96-86 96-192S557 0 504 0s-96 86-96 192s43 192 96 192zm0-128c-17.7 0-32-28.7-32-64s14.3-64 32-64s32 28.7 32 64s-14.3 64-32 64zM283.3 187.3l-72 72L200 270.6l-11.3-11.3-40-40L137.4 208 160 185.4l11.3 11.3L200 225.4l60.7-60.7L272 153.4 294.6 176l-11.3 11.3z"/></svg>