<svg xmlns="http://www.w3.org/2000/svg" viewBox="0 0 512 512"><!--! Font Awesome Pro 6.3.0 by @fontawesome - https://fontawesome.com License - https://fontawesome.com/license (Commercial License) Copyright 2023 Fonticons, Inc. --><path d="M185 0H161V48h24 16V96H145 129v16 16H41 0L10 167.8 48 320H17l0 64H49 81V512H369V384h32 32V320H402L440 167.8 450 128H409 321V112 96H305 249V48h16 24V0H265 225 185zM129 320H114l-1.9-7.8L82 192h47V320zm48 0V192h96V320H177zm159 0l-15 0V192h47L338 312.2 336 320z"/></svg>