<svg xmlns="http://www.w3.org/2000/svg" viewBox="0 0 448 512"><!--! Font Awesome Pro 6.3.0 by @fontawesome - https://fontawesome.com License - https://fontawesome.com/license (Commercial License) Copyright 2023 Fonticons, Inc. --><path d="M136 32V64 99.3L255.2 65.2 286 56.4 303.6 118l-30.8 8.8L136 165.9v29.4l119.2-34.1 30.8-8.8L303.6 214l-30.8 8.8L136 261.9V416h64c70.7 0 128-57.3 128-128V256h64v32c0 106-86 192-192 192H104 72V448 280.1l-23.2 6.6L18 295.6 .4 234l30.8-8.8L72 213.6V184.1l-23.2 6.6L18 199.6 .4 138l30.8-8.8L72 117.6V64 32h64z"/></svg>