<svg xmlns="http://www.w3.org/2000/svg" viewBox="0 0 640 512"><!--! Font Awesome Pro 6.3.0 by @fontawesome - https://fontawesome.com License - https://fontawesome.com/license (Commercial License) Copyright 2023 Fonticons, Inc. --><path d="M321 0V32 49.7C452.8 63.4 558.7 161 574.9 285.9l2.3 18.1H559h-6.5-7.2l-4.8-5.3C526 282.3 504.7 272 481 272c-44.2 0-80 35.8-80 80H385 369c0-44.2-35.8-80-80-80s-80 35.8-80 80H193 177c0-44.2-35.8-80-80-80c-23.7 0-45 10.3-59.6 26.7L32.6 304H25.4 19 .8l2.3-18.1C19.3 161 125.2 63.4 257 49.7V32 0h64zM257 316.2c8.5-7.6 19.7-12.2 32-12.2s23.5 4.6 32 12.2V430.6c0 45-36.5 81.4-81.4 81.4c-30.8 0-59-17.4-72.8-45l-2.3-4.7-14.3-28.6 57.2-28.6 14.3 28.6 2.3 4.7c3 5.9 9 9.6 15.6 9.6c9.6 0 17.4-7.8 17.4-17.4V316.2z"/></svg>