<svg xmlns="http://www.w3.org/2000/svg" viewBox="0 0 640 512"><!--! Font Awesome Pro 6.3.0 by @fontawesome - https://fontawesome.com License - https://fontawesome.com/license (Commercial License) Copyright 2023 Fonticons, Inc. --><path d="M34 6.1L.1 40 17 57l56 56 17 17L123.9 96 107 79 51 23 34 6.1zm560 0L577 23 521 79l-17 17L538 129.9l17-17 56-56 17-17L594 6.1zM51 489l56-56 17-17L90 382.1 73 399 17 455 .1 472 34 505.9l17-17zm543 17L627.9 472l-17-17-56-56-17-17L504.1 416l17 17 56 56 17 17zM217.8 176a48 48 0 1 0 -96 0 48 48 0 1 0 96 0zM114 256L90 336h94.3l19.4-58.1 7.3-21.9H114zm329.7 80H538l-24-80H417.1l7.3 21.9L443.7 336zM426 384l-16-48-16-48H376.4 251.6 234l-16 48-16 48H426zm80-208a48 48 0 1 0 -96 0 48 48 0 1 0 96 0zM314 256a64 64 0 1 0 0-128 64 64 0 1 0 0 128z"/></svg>