<svg xmlns="http://www.w3.org/2000/svg" viewBox="0 0 640 512"><!--! Font Awesome Pro 6.3.0 by @fontawesome - https://fontawesome.com License - https://fontawesome.com/license (Commercial License) Copyright 2023 Fonticons, Inc. --><path d="M210.8 0a120.5 120.5 0 1 1 0 240.9A120.5 120.5 0 1 1 210.8 0zm60.2 436.6c0 18 7.3 33.5 18 45.3H0L60.2 286.1H346.4v76.2c-16.9 2.3-32.8 8.6-45.6 18.2c-16.6 12.5-29.7 32-29.7 56zM602.4 143.1v31.3 45.2V370.2c0 1.1-.1 2.3-.3 3.4c.2 1.4 .3 2.8 .3 4.2c0 24.9-27 45.2-60.2 45.2s-60.2-20.2-60.2-45.2s27-45.2 60.2-45.2c5.2 0 10.2 .5 15.1 1.4v-83L421.6 296.1V437.9c0 24.9-27 45.2-60.2 45.2s-60.2-20.2-60.2-45.2s27-45.2 60.2-45.2c5.2 0 10.2 .5 15.1 1.4V279.8 234.6 218.4l15.4-5.1L572.6 153l29.7-9.9z"/></svg>