<svg xmlns="http://www.w3.org/2000/svg" viewBox="0 0 640 512"><!--! Font Awesome Pro 6.3.0 by @fontawesome - https://fontawesome.com License - https://fontawesome.com/license (Commercial License) Copyright 2023 Fonticons, Inc. --><path d="M421 64h38.5l4.3 28.4L492.2 282l20.4-95 5.8-27h30.4l9.5 22.8L592 264h8 24v48H600 576 560l-6.2-14.8-10.5-25.1L511.5 421l-5.8 27H468.5l-4.3-28.4L438.8 249.5 399.7 483.9 395 512H356.3l-4.1-28.6L312 201.7 271.8 483.4 267.7 512H229l-4.7-28.1L185.2 249.5 159.7 419.6 155.5 448H118.3l-5.8-27L80.6 272.1 70.2 297.2 64 312H48 24 0V264H24h8l33.8-81.2L75.3 160h30.4l5.8 27 20.4 95L160.3 92.4 164.5 64H203l4.7 28.1 38.5 231L288.2 28.6 292.3 0h39.3l4.1 28.6 42.1 294.5 38.5-231L421 64z"/></svg>