<svg xmlns="http://www.w3.org/2000/svg" viewBox="0 0 576 512"><!--! Font Awesome Pro 6.3.0 by @fontawesome - https://fontawesome.com License - https://fontawesome.com/license (Commercial License) Copyright 2023 Fonticons, Inc. --><path d="M193 0a48 48 0 1 1 0 96 48 48 0 1 1 0-96zM49 352c0 61.9 50.1 112 112 112c49.9 0 92.3-32.7 106.7-77.8l45.7 14.6C292.8 465.3 232.4 512 161 512C72.6 512 1 440.4 1 352c0-78.3 56.3-143.5 130.6-157.3l8.8 47.2C88.4 251.5 49 297.2 49 352zM154 128h39 32 26.2l5.1 25.7 4.5 22.3H337h32v64H337 273.6l9.6 48H385h22.2l7.8 20.8 37.1 99 10.7-3.6 30.3-10.2 20.5 60.6-30.3 10.2-40 13.5-29.3 9.9-10.9-29L362.8 352H257.6c-.4 0-.8 0-1.3 0H225 198.8l-5.1-25.7-32-160L154 128z"/></svg>