<svg xmlns="http://www.w3.org/2000/svg" viewBox="0 0 576 512"><!--! Font Awesome Pro 6.3.0 by @fontawesome - https://fontawesome.com License - https://fontawesome.com/license (Commercial License) Copyright 2023 Fonticons, Inc. --><path d="M144 32V56h24 24V80v48H384V80 56h24 24V32h48V56 80v24H456 432v48 8h24 24v24 56h8 40V152 128h48v24V264v24H552 512v72 24H488 448v72 24H424 344 320V432h24 56V384H176v48h56 24v48H232 152 128V456 384H88 64V360 288H24 0V264 152 128H48v24 88H88h8V184 160h24 24v-8V104H120 96V80 56 32h48zm48 144v8 24H168 144v56 24H120h-8v48h40H424h40V288h-8H432V264 208H408 384V184v-8H192zm0 48h64v80H192V224zm192 0v80H320V224h64z"/></svg>