<svg xmlns="http://www.w3.org/2000/svg" viewBox="0 0 384 512"><!--! Font Awesome Pro 6.3.0 by @fontawesome - https://fontawesome.com License - https://fontawesome.com/license (Commercial License) Copyright 2023 Fonticons, Inc. --><path d="M72 32H48V56v74c0 25.2 9.1 49.5 25.7 68.5L113.6 244 44.4 292.5C16.6 311.9 0 343.7 0 377.7V456v24H24 224h13l7.1-10.9 28.4-43.4L319.9 480h63.8l-2.4-2.8L299.8 384l80.3-122.9-40.2-26.3-73 111.6-82-93.8 58.7-41.1c27.8-19.5 44.4-51.3 44.4-85.2V56 32H264 72zM216.1 172.2l-63 44.1-43.3-49.5C100.9 156.6 96 143.5 96 130V80H240v46.3c0 18.3-8.9 35.4-23.9 45.9zM71.9 331.8l73.5-51.4 94.3 107.8L211 432H48V377.7c0-18.3 8.9-35.4 23.9-45.9z"/></svg>