<svg xmlns="http://www.w3.org/2000/svg" viewBox="0 0 576 512"><!--! Font Awesome Pro 6.3.0 by @fontawesome - https://fontawesome.com License - https://fontawesome.com/license (Commercial License) Copyright 2023 Fonticons, Inc. --><path d="M266 224h56.6H449.4 506l-30-48L414.3 77.3 386 32 357.7 77.3 296 176l-30 48zm86.6-48L386 122.6 419.4 176H352.6zM130 33.3l-17 17-96 96-17 17L34 197.1l17-17 55-55V456v24h48V456 125.1l55 55 17 17 33.9-33.9-17-17-96-96-17-17zM338 432V336h96v96H338zM290 288v48 96 48h48 96 48V432 336 288H434 338 290z"/></svg>