<svg xmlns="http://www.w3.org/2000/svg" viewBox="0 0 640 512"><!--! Font Awesome Pro 6.3.0 by @fontawesome - https://fontawesome.com License - https://fontawesome.com/license (Commercial License) Copyright 2023 Fonticons, Inc. --><path d="M161 0V24l0 118.1 23-23 17-17L234.9 136l-17 17-64 64-17 17-17-17L56 153l-17-17L73 102.1l17 17 23 23L113 24l0-24h48zM273 200a40 40 0 1 1 80 0 40 40 0 1 1 -80 0zm-22.3 56H265h96 14.3l6.8 12.6L427 352h14 96 14.1l6.9 12.3 56 100.8 11.7 21-42 23.3-11.7-21-19-34.2V488v24H529 449 425V488 454.2l-19 34.2-11.7 21-42-23.3 11.7-21 35.3-63.4-3.4-6.3-18.9-35V408v24H353 273 249V408 360.3l-18.9 35-3.4 6.3L262 465.1l11.7 21-42 23.3-11.7-21-19-34.2V488v24H177 97 73V488 454.2L54 488.5l-11.7 21L.4 486.1l11.7-21L68 364.3 74.9 352H89h96 14l44.9-83.4 6.8-12.6zM297 304v80h32V304H297zm152-8a40 40 0 1 1 80 0 40 40 0 1 1 -80 0zM137 256a40 40 0 1 1 0 80 40 40 0 1 1 0-80zM121 464h32V400H121v64zM513 24l0 118.1 23-23 17-17L586.9 136l-17 17-64 64-17 17-17-17-64-64-17-17L425 102.1l17 17 23 23L465 24V0h48V24zM473 400v64h32V400H473z"/></svg>