<svg xmlns="http://www.w3.org/2000/svg" viewBox="0 0 576 512"><!--! Font Awesome Pro 6.3.0 by @fontawesome - https://fontawesome.com License - https://fontawesome.com/license (Commercial License) Copyright 2023 Fonticons, Inc. --><path d="M338 208V80H466V208H338zm-48 48h48H466h48V208 80 32H466 338 290V80 208v48zM130 33.3l-17 17-96 96-17 17L34 197.1l17-17 55-55V456v24h48V456 125.1l55 55 17 17 33.9-33.9-17-17-96-96-17-17zM402 432H338V368h64v64zm-64 48h64 48V432 368 320H402 338 290v48 64 48h48z"/></svg>