<svg xmlns="http://www.w3.org/2000/svg" viewBox="0 0 448 512"><!--! Font Awesome Pro 6.3.0 by @fontawesome - https://fontawesome.com License - https://fontawesome.com/license (Commercial License) Copyright 2023 Fonticons, Inc. --><path d="M296 32H272V80h24 70.1L224 222.1 81.9 80H152h24V32H152 24 0V56 184v24H48V184 113.9L190.1 256 48 398.1V328 304H0v24V456v24H24 152h24V432H152 81.9L224 289.9 366.1 432H296 272v48h24H424h24V456 328 304H400v24 70.1L257.9 256 400 113.9V184v24h48V184 56 32H424 296z"/></svg>