<svg xmlns="http://www.w3.org/2000/svg" viewBox="0 0 576 512"><!--! Font Awesome Pro 6.3.0 by @fontawesome - https://fontawesome.com License - https://fontawesome.com/license (Commercial License) Copyright 2023 Fonticons, Inc. --><path d="M130 478.7l-17-17-96-96-17-17L34 314.9l17 17 55 55V56 32h48V56 386.9l55-55 17-17 33.9 33.9-17 17-96 96-17 17zM402 432V368H338v64h64zm-64 48H290V432 368 320h48 64 48v48 64 48H402 338zm0-272H466V80H338V208zm-48 48V208 80 32h48H466h48V80 208v48H466 338 290z"/></svg>