<svg xmlns="http://www.w3.org/2000/svg" viewBox="0 0 512 512"><!--! Font Awesome Pro 6.3.0 by @fontawesome - https://fontawesome.com License - https://fontawesome.com/license (Commercial License) Copyright 2023 Fonticons, Inc. --><path d="M17.5 379.2l87.3 87.3 16 16 31.9-31.9-16-16L88 385.8l311.4 0 22.6 0 0-45.2-22.6 0L88 340.6l51.8-51.8 16-16-31.9-31.9-16 16L17.5 347.3l-16 16 16 16zM404.8 138.3l16-16-16-16L314.5 16l-16-16L266.6 31.9l16 16 51.8 51.8-311.4 0L.4 99.7l0 45.2 22.6 0 311.4 0-51.8 51.8-16 16 31.9 31.9 16-16 90.3-90.4z"/></svg>