<svg xmlns="http://www.w3.org/2000/svg" viewBox="0 0 576 512"><!--! Font Awesome Pro 6.3.0 by @fontawesome - https://fontawesome.com License - https://fontawesome.com/license (Commercial License) Copyright 2023 Fonticons, Inc. --><path d="M130 478.7l-17-17-96-96-17-17L34 314.9l17 17 55 55V56 32h48V56 386.9l55-55 17-17 33.9 33.9-17 17-96 96-17 17zM330 32h24 48 24V56 176h24 24v48H450 402 354 330V176h24 24V80H354 330V32zm24 312a40 40 0 1 0 80 0 40 40 0 1 0 -80 0zm128 0c0 20.6-6.4 40.7-18.4 57.5L407.5 480h-59l10-13.9 24.8-34.7C339.7 426.1 306 389 306 344c0-48.6 39.4-88 88-88s88 39.4 88 88z"/></svg>