<svg xmlns="http://www.w3.org/2000/svg" viewBox="0 0 640 512"><!--! Font Awesome Pro 6.3.0 by @fontawesome - https://fontawesome.com License - https://fontawesome.com/license (Commercial License) Copyright 2023 Fonticons, Inc. --><path d="M113 461.8l17 17 17-17 96-96 17-17L226 314.9l-17 17-55 55V56 32H106V56 386.9l-55-55-17-17L.1 348.8l17 17 96 96zM314 480h48 24V432H362 314 290v48h24zm0-128H426h24V304H426 314 290v48h24zm0-128H490h24V176H490 314 290v48h24zm0-128H554h24V48H554 314 290V96h24z"/></svg>