<svg xmlns="http://www.w3.org/2000/svg" viewBox="0 0 576 512"><!--! Font Awesome Pro 6.3.0 by @fontawesome - https://fontawesome.com License - https://fontawesome.com/license (Commercial License) Copyright 2023 Fonticons, Inc. --><path d="M358.9 156.6l-16.6-15.4-30.7 33.1 16.6 15.4 63.3 58.7-218.1 0-22.6 0 0 45.2 22.6 0 218.1 0-63.3 58.7-16.6 15.4 30.7 33.1 16.6-15.4 105.4-97.9L482.2 271l-17.8-16.6L358.9 156.6zM45.4 271C45.4 162.9 133 75.3 241.1 75.3l22.6 0 0-45.2-22.6 0C108.1 30.1 .2 138 .2 271S108.1 512 241.1 512l22.6 0 0-45.2-22.6 0C133 466.8 45.4 379.1 45.4 271z"/></svg>