<svg xmlns="http://www.w3.org/2000/svg" viewBox="0 0 576 512"><!--! Font Awesome Pro 6.3.0 by @fontawesome - https://fontawesome.com License - https://fontawesome.com/license (Commercial License) Copyright 2023 Fonticons, Inc. --><path d="M402 80v64H338V80h64zM338 32H290V80v64 48h48 64 48V144 80 32H402 338zM130 33.3l-17 17-96 96-17 17L34 197.1l17-17 55-55V456v24h48V456 125.1l55 55 17 17 33.9-33.9-17-17-96-96-17-17zM338 432V304H466V432H338zM290 256v48V432v48h48H466h48V432 304 256H466 338 290z"/></svg>