<svg xmlns="http://www.w3.org/2000/svg" viewBox="0 0 448 512"><!--! Font Awesome Pro 6.3.0 by @fontawesome - https://fontawesome.com License - https://fontawesome.com/license (Commercial License) Copyright 2023 Fonticons, Inc. --><path d="M219.1 87.5c-11.3 0-22.4 1.1-33.1 3.3V42.1c10.8-1.7 21.9-2.5 33.1-2.5c55.4 0 105.9 20.9 144.2 55.2L410 48l16 16V192H298l-16-16 47.3-47.3c-29.5-25.6-68-41.2-110.2-41.2zm-216 168c0-55.2 20.7-105.5 54.7-143.7L10 64 26 48H154V176l-16 16L91.9 145.9c-25.4 29.4-40.7 67.8-40.7 109.7c0 11.1 1.1 22 3.1 32.5H5.6C4 277.4 3.1 266.6 3.1 255.5zM74.3 415.7L26 464 10 448l0-128H138l16 16-45.7 45.7c29.6 26 68.4 41.8 110.9 41.8c10.5 0 20.9-1 30.9-2.8v48.6c-10.1 1.4-20.4 2.2-30.9 2.2c-55.7 0-106.6-21.1-144.9-55.8zM298 320l46.9 46.9c26.3-29.6 42.2-68.7 42.2-111.4c0-10.8-1-21.3-3-31.5h48.7c1.5 10.3 2.3 20.8 2.3 31.5c0 56-21.3 107-56.2 145.4L426 448l-16 16H282V336l16-16z"/></svg>