<svg xmlns="http://www.w3.org/2000/svg" viewBox="0 0 576 512"><!--! Font Awesome Pro 6.3.0 by @fontawesome - https://fontawesome.com License - https://fontawesome.com/license (Commercial License) Copyright 2023 Fonticons, Inc. --><path d="M338 80h96v96H338V80zM290 32V80v96 48h48 96 48V176 80 32H434 338 290zM130 33.3l-17 17-96 96-17 17L34 197.1l17-17 55-55V456v24h48V456 125.1l55 55 17 17 33.9-33.9-17-17-96-96-17-17zM266 480h55.4H450.6 506l-27.7-48L413.7 320 386 272l-27.7 48L293.7 432 266 480zm156.9-48H349.1L386 368.1 422.9 432z"/></svg>