<svg xmlns="http://www.w3.org/2000/svg" viewBox="0 0 576 512"><!--! Font Awesome Pro 6.3.0 by @fontawesome - https://fontawesome.com License - https://fontawesome.com/license (Commercial License) Copyright 2023 Fonticons, Inc. --><path d="M330 32V80h24 24v96H354 330v48h24 48 48 24V176H450 426V56 32H402 354 330zM130 33.3l-17 17-96 96-17 17L34 197.1l17-17 55-55V456v24h48V456 125.1l55 55 17 17 33.9-33.9-17-17-96-96-17-17zM434 344a40 40 0 1 1 -80 0 40 40 0 1 1 80 0zm48 0c0-48.6-39.4-88-88-88s-88 39.4-88 88c0 45 33.7 82.1 77.3 87.4l-24.8 34.7-10 13.9h59l56.1-78.5c12-16.8 18.4-36.9 18.4-57.5z"/></svg>