<svg xmlns="http://www.w3.org/2000/svg" viewBox="0 0 640 512"><!--! Font Awesome Pro 6.3.0 by @fontawesome - https://fontawesome.com License - https://fontawesome.com/license (Commercial License) Copyright 2023 Fonticons, Inc. --><path d="M271.2 28.3l16 16 75.3 75.3 16 16-31.9 31.9-16-16-36.7-36.7V338.8v22.6H248.6V338.8 114.8l-36.7 36.7-16 16-31.9-31.9 16-16 75.3-75.3 16-16zM45.3 210.8H180.8V256H45.3V407.5c-2.2 1.2-4.5 2.4-6.9 3.4c-12.4 5.7-26.1 9.7-38.3 9.7V256 210.8H45.3zM542.2 420.7c-12.2 0-26-4.1-38.3-9.7c-2.4-1.1-4.6-2.2-6.9-3.4V256H361.5V210.8H497.1h45.2V256 420.7zM74.5 490.2C56.3 500.6 29.8 512 .1 512V466.8c18.5 0 37.1-7.4 52.1-15.9c14.5-8.2 25.6-18.2 37.9-29.1l.4-.4 .4 .3c12.3 10.9 23.4 20.9 37.9 29.1c15 8.5 33.5 15.9 52.1 15.9s37.1-7.4 52.1-15.9c14.5-8.2 25.4-18 37.6-28.9l.6-.6 .6 .6c12.2 10.9 23.1 20.7 37.6 28.9c15 8.5 33.5 15.9 52.1 15.9s37.1-7.4 52.1-15.9c14.5-8.2 25.4-18 37.6-28.9l.6-.6 .6 .6c12.2 10.9 23.2 20.7 37.6 28.9c15 8.5 33.6 15.9 52.1 15.9V512c-29.6 0-56.2-11.4-74.4-21.8c-6.1-3.5-11.5-6.9-16-10c-4.5 3.1-9.8 6.6-16 10c-18.2 10.3-44.8 21.8-74.4 21.8s-56.2-11.4-74.4-21.8c-6.1-3.5-11.5-6.9-15.9-10c-4.5 3.1-9.8 6.6-15.9 10C237 500.6 210.5 512 180.8 512s-56.2-11.4-74.4-21.8c-6.1-3.5-11.5-6.9-15.9-10c-4.5 3.1-9.8 6.6-15.9 10z"/></svg>