<svg xmlns="http://www.w3.org/2000/svg" viewBox="0 0 640 512"><!--! Font Awesome Pro 6.3.0 by @fontawesome - https://fontawesome.com License - https://fontawesome.com/license (Commercial License) Copyright 2023 Fonticons, Inc. --><path d="M113 461.8l17 17 17-17 96-96 17-17L226 314.9l-17 17-55 55V56 32H106V56 386.9l-55-55-17-17L.1 348.8l17 17 96 96zM314 48H290V96h24 48 24V48H362 314zm0 128H290v48h24H426h24V176H426 314zm0 128H290v48h24H490h24V304H490 314zm0 128H290v48h24H554h24V432H554 314z"/></svg>