<svg xmlns="http://www.w3.org/2000/svg" viewBox="0 0 640 512"><!--! Font Awesome Pro 6.3.0 by @fontawesome - https://fontawesome.com License - https://fontawesome.com/license (Commercial License) Copyright 2023 Fonticons, Inc. --><path d="M51.2 18.2l-17-17L.3 35.2l17 17L77.1 112H39 15v48H39h96 24V136 40 16H111V40 78.1L51.2 18.2zM223.6 310.8c-19-17.6-33.5-37.9-43.1-54.8c9.6-16.9 24.1-37.2 43.1-54.8C249.9 176.7 281.7 160 319 160s69.1 16.7 95.4 41.2c19 17.6 33.5 37.9 43.1 54.8c-9.6 16.9-24.1 37.2-43.1 54.8C388.1 335.3 356.3 352 319 352s-69.1-16.7-95.4-41.2zM319 400c105.6 0 172-96 192-144c-20-48-86.4-144-192-144s-172 96-192 144c20 48 86.4 144 192 144zM603.8 1.3l-17 17L527 78.1V40 16H479V40v96 24h24 96 24V112H599 560.9l59.8-59.8 17-17L603.8 1.3zM51.2 493.8L111 433.9V472v24h48V472 376 352H135 39 15v48H39 77.1L17.2 459.8l-17 17 33.9 33.9 17-17zm552.6 17l33.9-33.9-17-17L560.9 400H599h24V352H599 503 479v24 96 24h48V472 433.9l59.8 59.8 17 17zM319 320a64 64 0 1 0 2-128 64 64 0 1 0 -2 128z"/></svg>