<svg xmlns="http://www.w3.org/2000/svg" viewBox="0 0 576 512"><!--! Font Awesome Pro 6.3.0 by @fontawesome - https://fontawesome.com License - https://fontawesome.com/license (Commercial License) Copyright 2023 Fonticons, Inc. --><path d="M126.7 153.3l-15.4 16.6 33.1 30.7L159.8 184l58.7-63.3 0 218.1v22.6h45.2l0-22.6V120.8L322.5 184l15.4 16.6L371 169.8l-15.4-16.6L257.7 47.9 241.2 30 224.6 47.9 126.7 153.3zM241.2 466.8c-108.1 0-195.8-87.6-195.8-195.8H.2C.2 404.1 108.1 512 241.2 512s240.9-107.9 240.9-240.9V248.5H436.9v22.6c0 108.1-87.6 195.8-195.8 195.8z"/></svg>