<svg xmlns="http://www.w3.org/2000/svg" viewBox="0 0 512 512"><!--! Font Awesome Pro 6.3.0 by @fontawesome - https://fontawesome.com License - https://fontawesome.com/license (Commercial License) Copyright 2023 Fonticons, Inc. --><path d="M316.3 6.1L334 22.3 423.1 104H425v1.7l5 4.6L449.3 128 430 145.7l-5 4.6V152h-1.9L334 233.7l-17.7 16.2-32.4-35.4 17.7-16.2L352.1 152H49V264v24H1V264 128 104H25 352.1L301.6 57.7 283.9 41.5 316.3 6.1zm-84.8 256l17.7 16.2 96 88L364.5 384l-19.3 17.7-96 88-17.7 16.2-32.4-35.4 17.7-16.2L267.3 408H49v80 24H1V488 384 360H25 267.3l-50.5-46.3-17.7-16.2 32.4-35.4z"/></svg>