<svg xmlns="http://www.w3.org/2000/svg" viewBox="0 0 640 512"><!--! Font Awesome Pro 6.3.0 by @fontawesome - https://fontawesome.com License - https://fontawesome.com/license (Commercial License) Copyright 2023 Fonticons, Inc. --><path d="M113 50.2l17-17 17 17 96 96 17 17L226 197.1l-17-17-55-55V456v24H106V456 125.1l-55 55-17 17L.1 163.2l17-17 96-96zM314 48h48 24V96H362 314 290V48h24zm0 128H426h24v48H426 314 290V176h24zm0 128H490h24v48H490 314 290V304h24zm0 128H554h24v48H554 314 290V432h24z"/></svg>