<svg xmlns="http://www.w3.org/2000/svg" viewBox="0 0 576 512"><!--! Font Awesome Pro 6.3.0 by @fontawesome - https://fontawesome.com License - https://fontawesome.com/license (Commercial License) Copyright 2023 Fonticons, Inc. --><path d="M130 478.7l-17-17-96-96-17-17L34 314.9l17 17 55 55V56 32h48V56 386.9l55-55 17-17 33.9 33.9-17 17-96 96-17 17zM266 480l27.7-48 64.6-112L386 272l27.7 48 64.6 112L506 480H450.6 321.4 266zm156.9-48L386 368.1 349.1 432h73.8zM338 80v96h96V80H338zM290 32h48 96 48V80v96 48H434 338 290V176 80 32z"/></svg>