<svg xmlns="http://www.w3.org/2000/svg" viewBox="0 0 576 512"><!--! Font Awesome Pro 6.3.0 by @fontawesome - https://fontawesome.com License - https://fontawesome.com/license (Commercial License) Copyright 2023 Fonticons, Inc. --><path d="M130 478.7l-17-17-96-96-17-17L34 314.9l17 17 55 55V56 32h48V56 386.9l55-55 17-17 33.9 33.9-17 17-96 96-17 17zM402 80H338v64h64V80zM338 32h64 48V80v64 48H402 338 290V144 80 32h48zm0 400H466V304H338V432zM290 256h48H466h48v48V432v48H466 338 290V432 304 256z"/></svg>