<svg xmlns="http://www.w3.org/2000/svg" viewBox="0 0 512 512"><!--! Font Awesome Pro 6.3.0 by @fontawesome - https://fontawesome.com License - https://fontawesome.com/license (Commercial License) Copyright 2023 Fonticons, Inc. --><path d="M34 14.1L51 31l111 111V56 32h48V56 200v24H186 42 18V176H42h86.1L17 65 .1 48 34 14.1zM483.9 48L467 65l-111 111H442h24v48H442 298 274V200 56 32h48V56v86.1L433 31l17-17L483.9 48zM18 288H42 186h24v24V456v24H162V456 369.9L51 481l-17 17L.1 464l17-17 111-111H42 18V288zm256 0h24H442h24v48H442 355.9L467 447l17 17L450 497.9l-17-17-111-111V456v24H274V456 312 288z"/></svg>