<svg xmlns="http://www.w3.org/2000/svg" viewBox="0 0 576 512"><!--! Font Awesome Pro 6.3.0 by @fontawesome - https://fontawesome.com License - https://fontawesome.com/license (Commercial License) Copyright 2023 Fonticons, Inc. --><path d="M130 478.7l-17-17-96-96-17-17L34 314.9l17 17 55 55V56 32h48V56 386.9l55-55 17-17 33.9 33.9-17 17-96 96-17 17zM266 224l30-48 61.7-98.7L386 32l28.3 45.3L476 176l30 48H449.4 322.6 266zm86.6-48h66.8L386 122.6 352.6 176zM338 432h96V336H338v96zM290 288h48 96 48v48 96 48H434 338 290V432 336 288z"/></svg>