<svg xmlns="http://www.w3.org/2000/svg" viewBox="0 0 576 512"><!--! Font Awesome Pro 6.3.0 by @fontawesome - https://fontawesome.com License - https://fontawesome.com/license (Commercial License) Copyright 2023 Fonticons, Inc. --><path d="M130 478.7l-17-17-96-96-17-17L34 314.9l17 17 55 55V56 32h48V56 386.9l55-55 17-17 33.9 33.9-17 17-96 96-17 17zM298 288h24H450h24v24 8 9.9l-7 7-95 95H450h24v48H450 322 298V456v-8-9.9l7-7 95-95H322 298V288zM370.6 32h30.8l6.4 14 89.3 194H444.2l-14.8-32.2c-1.1 .2-2.2 .2-3.4 .2H342.5l-14.7 32H274.9L364.2 46l6.4-14zM386 113.4L364.6 160h42.8L386 113.4z"/></svg>