<svg xmlns="http://www.w3.org/2000/svg" viewBox="0 0 576 512"><!--! Font Awesome Pro 6.3.0 by @fontawesome - https://fontawesome.com License - https://fontawesome.com/license (Commercial License) Copyright 2023 Fonticons, Inc. --><path d="M256.1 17.2l-16-16-16 16L156.4 84.9l-16 16 31.9 31.9 16-16 29.2-29.2V218.4H86.9l29.2-29.2 16-16-31.9-31.9-16 16L16.4 225l-16 16 16 16 67.8 67.8 16 16 31.9-31.9-16-16L86.9 263.5H217.6v132l-28.9-30.1-15.6-16.3-32.6 31.2 15.6 16.3 67.8 70.8 16.3 17 16.3-17 67.8-70.8 15.6-16.3-32.6-31.2-15.6 16.3-28.9 30.1v-132H393.5l-29.2 29.2-16 16 31.9 31.9 16-16L464 256.9l16-16-16-16-67.8-67.8-16-16-31.9 31.9 16 16 29.2 29.2H262.8V87.7L292 116.9l16 16 31.9-31.9-16-16L256.1 17.2z"/></svg>