<svg xmlns="http://www.w3.org/2000/svg" viewBox="0 0 640 512"><!--! Font Awesome Pro 6.3.0 by @fontawesome - https://fontawesome.com License - https://fontawesome.com/license (Commercial License) Copyright 2023 Fonticons, Inc. --><path d="M51.2 18.2l-17-17L.3 35.2l17 17L125.1 160H87 63v48H87h96 24V184 88 64H159V88v38.1L51.2 18.2zM620.8 52.2l17-17L603.8 1.3l-17 17L479 126.1V88 64H431V88v96 24h24 96 24V160H551 512.9L620.8 52.2zM125.1 352L17.2 459.8l-17 17 33.9 33.9 17-17L159 385.9V424v24h48V424 328 304H183 87 63v48H87h38.1zM479 385.9L586.8 493.8l17 17 33.9-33.9-17-17L512.9 352H551h24V304H551 455 431v24 96 24h48V424 385.9zM319 320a64 64 0 1 0 2-128 64 64 0 1 0 -2 128z"/></svg>