<svg xmlns="http://www.w3.org/2000/svg" viewBox="0 0 640 512"><!--! Font Awesome Pro 6.3.0 by @fontawesome - https://fontawesome.com License - https://fontawesome.com/license (Commercial License) Copyright 2023 Fonticons, Inc. --><path d="M113 50.2l17-17 17 17 96 96 17 17L226 197.1l-17-17-55-55V456v24H106V456 125.1l-55 55-17 17L.1 163.2l17-17 96-96zM314 480H290V432h24 48 24v48H362 314zm0-128H290V304h24H426h24v48H426 314zm0-128H290V176h24H490h24v48H490 314zm0-128H290V48h24H554h24V96H554 314z"/></svg>