<svg xmlns="http://www.w3.org/2000/svg" viewBox="0 0 512 512"><!--! Font Awesome Pro 6.3.0 by @fontawesome - https://fontawesome.com License - https://fontawesome.com/license (Commercial License) Copyright 2023 Fonticons, Inc. --><path d="M480 224H456 312 288V176h24 86.1l-52.1-52.1C317.8 95.8 279.7 80 240 80c-72.7 0-135.2 44.1-162 107.1L33.8 168.3C67.9 88.2 147.4 32 240 32c52.5 0 102.8 20.8 139.9 57.9L432 142.1V56 32h48V56 200v24zM0 288H24 168h24v48H168 81.9l52.1 52.1C162.2 416.2 200.3 432 240 432c72.6 0 135-43.9 161.9-106.8L446 344.1C411.8 424 332.5 480 240 480c-52.5 0-102.8-20.8-139.9-57.9L48 369.9V456v24H0V456 312 288z"/></svg>