<svg xmlns="http://www.w3.org/2000/svg" viewBox="0 0 640 512"><!--! Font Awesome Pro 6.3.0 by @fontawesome - https://fontawesome.com License - https://fontawesome.com/license (Commercial License) Copyright 2023 Fonticons, Inc. --><path d="M529 135.5l-16-16L437.7 44.3l-16-16-16 16-75.3 75.3-16 16 31.9 31.9 16-16 36.7-36.7 0 156.3h-128V30.1H60.4V271.1H45.3 .1v45.2V420.7c12.2 0 26-4.1 38.3-9.7c2.4-1.1 4.6-2.2 6.9-3.4V316.2H497.1v91.3c2.2 1.2 4.5 2.4 6.9 3.4c12.4 5.7 26.1 9.7 38.3 9.7V316.2 271.1H497.1 444.4l0-156.3 36.7 36.7 16 16L529 135.5zM74.5 490.2c6.1-3.5 11.5-6.9 15.9-10c4.5 3.1 9.8 6.6 15.9 10c18.2 10.3 44.8 21.8 74.4 21.8s56.2-11.4 74.4-21.8c6.1-3.5 11.5-6.9 15.9-10c4.5 3.1 9.8 6.6 15.9 10c18.2 10.3 44.8 21.8 74.4 21.8s56.2-11.4 74.4-21.8c6.1-3.5 11.5-6.9 16-10c4.5 3.1 9.8 6.6 16 10C486 500.6 512.6 512 542.2 512V466.8c-18.5 0-37.1-7.4-52.1-15.9c-14.5-8.2-25.4-18-37.6-28.9l-.6-.6-.6 .6c-12.2 10.9-23.1 20.7-37.6 28.9c-15 8.5-33.5 15.9-52.1 15.9s-37.1-7.4-52.1-15.9c-14.5-8.2-25.4-18-37.6-28.9l-.6-.6-.6 .6c-12.2 10.9-23.1 20.7-37.6 28.9c-15 8.5-33.5 15.9-52.1 15.9s-37.1-7.4-52.1-15.9c-14.5-8.2-25.6-18.2-37.9-29.1l-.4-.3-.4 .4c-12.2 10.9-23.4 20.9-37.9 29.1c-14.9 8.5-33.5 15.9-52.1 15.9V512c29.6 0 56.2-11.4 74.4-21.8z"/></svg>