<svg xmlns="http://www.w3.org/2000/svg" viewBox="0 0 448 512"><!--! Font Awesome Pro 6.3.0 by @fontawesome - https://fontawesome.com License - https://fontawesome.com/license (Commercial License) Copyright 2023 Fonticons, Inc. --><path d="M219 112a32 32 0 1 0 0-64 32 32 0 1 0 0 64zM219 0a80 80 0 1 1 0 160A80 80 0 1 1 219 0zM91 101.5l17 17 28.3 28.3L181.5 192h75l45.3-45.3L330 118.5l17-17 17 17L420.5 175l17 17-17 17-28.3 28.3L331 298.5v1.3l44.4 63.5 11.8 16.9 7.1 10.2-4.2 11.7-7 19.5-24 67.2-8.1 22.6-22.6-8.1-75.3-26.9-22.6-8.1 8.1-22.6 12.9-36.1-6.7-9.6H193.1l-6.7 9.6 12.9 36.1 8.1 22.6-22.6 8.1-75.3 26.9-22.6 8.1-8.1-22.6-24-67.2-7-19.5-4.2-11.7 7.1-10.2 11.9-16.9L107 299.8v-1.3L45.7 237.3 17.5 209 .5 192l17-17L74 118.5l17-17zM79.7 203.3l64 64 4.3 4.3 7 7V288H283v-9.4l7-7 4.3-4.3 64-64L369.6 192 347 169.4l-11.3 11.3L283.4 233l-7 7h-9.9H171.6h-9.9l-7-7-52.3-52.3L91 169.4 68.4 192l11.3 11.3zM300.8 340.4l-24.2 21.2 .4 .6 21 30 7.1 10.2L301 414.1l-9 25.1L322.1 450l15.9-44.6 2.8-7.8-4.7-6.8-35.3-50.4zM161.4 361.6l-24.2-21.2-35.3 50.4-4.7 6.8 2.8 7.8L115.9 450 146 439.2l-9-25.1-4.2-11.7 7.1-10.2 21-30 .4-.6z"/></svg>