<svg xmlns="http://www.w3.org/2000/svg" viewBox="0 0 640 512"><!--! Font Awesome Pro 6.3.0 by @fontawesome - https://fontawesome.com License - https://fontawesome.com/license (Commercial License) Copyright 2023 Fonticons, Inc. --><path d="M231.9 100.9C196.7 136.1 179 180.4 179 221c0 31.9 10.9 61.1 32.4 82.6c48.2 48.2 138.8 43.5 202.7-20.5C449.3 247.9 467 203.6 467 163c0-31.9-10.9-61.1-32.4-82.6S383.8 48 352 48c-40.6 0-84.9 17.7-120.1 52.9zM197.9 66.9C241.5 23.4 297.8 0 352 0c42.8 0 84.9 14.8 116.6 46.5S515 120.2 515 163c0 54.2-23.4 110.5-66.9 154c-70.3 70.3-178.8 90.2-252.3 36.2L164 385l23 23-33.9 33.9-36.1 36.1L83 512 49.1 478.1 36.9 465.9 3 432l33.9-33.9 36.1-36.1L107 328l23 23 31.8-31.8C140.9 290.5 131 256 131 221c0-54.2 23.4-110.5 66.9-154zM119.1 408L107 395.9 70.9 432 83 444.1 119.1 408zM515 352c26.5 0 48 21.5 48 48v32H467V400c0-26.5 21.5-48 48-48zm-50.3 96h33.4l-14.4 48-4.6 15.3-30.7-9.2 4.6-15.3L464.7 448zm34.3 0h32v48 16H499V496 448zm32.9 0h33.4l11.6 38.8 4.6 15.3-30.6 9.2L546.3 496l-14.4-48z"/></svg>