<svg xmlns="http://www.w3.org/2000/svg" viewBox="0 0 640 512"><!--! Font Awesome Pro 6.3.0 by @fontawesome - https://fontawesome.com License - https://fontawesome.com/license (Commercial License) Copyright 2023 Fonticons, Inc. --><path d="M298.1 55c10.3 27.7 15.9 57.7 15.9 89c0 39.6-9 77.1-25 110.6l41.4 24.6C350.6 238.4 362 192.5 362 144c0-23.8-2.7-47-7.9-69.2l2.5-1.7C390 114.3 410 166.8 410 224c0 16-1.6 31.7-4.6 46.9l50.3-10.6c1.5-11.9 2.3-24 2.3-36.3c0-84.7-36.6-160.9-94.8-213.6L298.1 55zM430.3 347.4l43.9-9.2L545 409l17 17L595.9 392l-17-17-80-80-9.2-9.2-12.7 2.7-27.7 5.8L334.2 318.6l-60.9-36.1v0l-39.1-23.2-11.5-6.8-11.8 6.2-92 48L97.6 317.8l22.2 42.6 21.3-11.1 80.2-41.8 22.1 13.1C196.7 369.5 130.9 400 58 400H10v0 48 64 0H58l112 0c107 0 200.4-58.4 250.1-145c.7-1.2 1.3-2.3 2-3.5c2.9-5.3 5.7-10.6 8.3-16z"/></svg>