<svg xmlns="http://www.w3.org/2000/svg" viewBox="0 0 448 512"><!--! Font Awesome Pro 6.3.0 by @fontawesome - https://fontawesome.com License - https://fontawesome.com/license (Commercial License) Copyright 2023 Fonticons, Inc. --><path d="M0 80H42c22.1 0 40 17.9 40 40v56H2v48H82V392c0 48.6 39.4 88 88 88h32c101.6 0 184-82.4 184-184V264c0-48.6-39.4-88-88-88H282 258v48h24 16c22.1 0 40 17.9 40 40v32c0 75.1-60.9 136-136 136H170c-22.1 0-40-17.9-40-40V224h64V176H130V120c0-48.6-39.4-88-88-88H0V80z"/></svg>