<svg xmlns="http://www.w3.org/2000/svg" viewBox="0 0 640 512"><!--! Font Awesome Pro 6.3.0 by @fontawesome - https://fontawesome.com License - https://fontawesome.com/license (Commercial License) Copyright 2023 Fonticons, Inc. --><path d="M444.2 0h15.1 14l6.2 12.5 23.9 47.7h76.4 22.6v45.2H579.8 489.4h-14l-6.2-12.5L452.2 58.8 404.4 160.2l-6.1 13H384 368.9 354.3l-6-13.4-24.2-54.4H203.3 180.7V60.2h22.6H338.8h14.7l6 13.4 17.4 39.1 47-99.8 6.1-13h14.3zM293.6 150.6h17.6l9.5 21.4 10.6 23.8H316.2V346.4H557.2V263.5c0-37.4-30.3-67.8-67.8-67.8H421L431.7 173l10.6-22.4h47.2c62.4 0 112.9 50.6 112.9 112.9V368.9v97.9 22.6H557.2V466.8 391.5H293.6 45.2v67.8 22.6H0V459.3 368.9 82.8 60.2H45.2V82.8 346.4H271.1V173.2 150.6h22.6zm-97.9 82.8a37.6 37.6 0 1 0 -75.3 0 37.6 37.6 0 1 0 75.3 0zm-120.5 0a82.8 82.8 0 1 1 165.6 0 82.8 82.8 0 1 1 -165.6 0z"/></svg>