<svg xmlns="http://www.w3.org/2000/svg" viewBox="0 0 640 512"><!--! Font Awesome Pro 6.3.0 by @fontawesome - https://fontawesome.com License - https://fontawesome.com/license (Commercial License) Copyright 2023 Fonticons, Inc. --><path d="M352 0V48h24 32V176H376 352v48h24 56 56 24V176H488 456V24 0H432 376 352zM128 288v48h24 32V464H152 128v48h24 56 56 24V464H264 232V312 288H208 152 128zM152 0H128V24 76.6L48.4 14.8 29.4 .1 0 38 19 52.7 591.5 497.2l19 14.7L639.9 474l-19-14.7L512 374.7V312 288H488 400.3l-82.4-64H320V200 24 0H296 152zM256 176l-80-62.1V48h96V176H256zM462.1 336H464v1.5l-1.9-1.5zM320 348.1V488v24h24H488h24V499.4l-48-37.8V464H368V385.9l-48-37.8z"/></svg>