<svg xmlns="http://www.w3.org/2000/svg" viewBox="0 0 640 512"><!--! Font Awesome Pro 6.3.0 by @fontawesome - https://fontawesome.com License - https://fontawesome.com/license (Commercial License) Copyright 2023 Fonticons, Inc. --><path d="M157.5 3C130 31.5 113.1 70.2 113.1 112.9c0 24.6 5.6 47.9 15.6 68.6c-21 2.2-42 8.5-61.5 19.4C35.5 218.6 12.6 245.4 .1 276c53.7-45.2 144.8-50.6 192.4 29s-2.8 153-70.2 175.3c33.6 4.8 69.1-.9 100.9-18.6c19.4-10.8 35.5-25 47.9-41.5c12.4 16.4 28.5 30.6 47.9 41.5c31.7 17.7 67.2 23.4 100.9 18.6C352.6 458 302.2 384.5 349.8 305s138.7-74.2 192.4-29c-12.5-30.5-35.4-57.4-67.1-75c-19.5-10.9-40.4-17.2-61.5-19.4c10-20.8 15.6-44 15.6-68.6c0-42.7-16.9-81.5-44.5-109.9c23.6 70.3-14.3 162.6-113.7 162.6S133.9 73.4 157.5 3zM226 256a45.2 45.2 0 1 1 90.4 0A45.2 45.2 0 1 1 226 256zM271.2 60.2c-30.3 0-58.9 6.9-84.5 19.1c2 5.6 4.5 10.9 7.5 15.9c4.8 8.1 11 15.6 18.8 21.8c17.9-7.5 37.6-11.7 58.3-11.7s40.3 4.2 58.3 11.7c7.8-6.2 14-13.7 18.8-21.8c3-5 5.5-10.4 7.5-15.9c-25.6-12.3-54.3-19.1-84.5-19.1zM180.7 376.4c-30.4-22.9-51.8-57-58.2-96.2c-8.6-3.6-17.5-5.7-26.4-6.4c-6.6-.5-13.2-.4-19.9 .4c5.5 60.2 38.3 112.5 85.8 144.5c4.5-5.5 8.4-11.4 11.4-17.6c3.7-7.5 6.2-15.8 7.2-24.6zM466.1 274.1c-6.6-.8-13.3-1-19.9-.4c-8.9 .7-17.8 2.8-26.4 6.4c-6.3 39.2-27.8 73.4-58.2 96.2c1 8.8 3.6 17.1 7.2 24.6c3 6.2 6.8 12.1 11.4 17.6c47.6-32 80.3-84.3 85.8-144.5z"/></svg>