<svg xmlns="http://www.w3.org/2000/svg" viewBox="0 0 640 512"><!--! Font Awesome Pro 6.3.0 by @fontawesome - https://fontawesome.com License - https://fontawesome.com/license (Commercial License) Copyright 2023 Fonticons, Inc. --><path d="M22.6 0H0V22.6 210.8v22.6V256 399.1v22.6H22.6 295.2c-8.1-14-14.3-29.2-18.4-45.2H45.2V256H291.9c8.4-15.9 18.8-31.1 29.8-45.2H45.2V45.2H376.5V151c14.5-13.6 29.6-26.5 45.2-39.1V22.6 0H399.1 22.6zM271.1 331.4c0-12.9 2-25.5 5.4-37.8H112.9 90.4v45.2h22.6H271.2c-.1-2.5-.1-4.9-.1-7.4zM482.8 210.9c-30.4-35.3-61.1-60.2-61.1-60.2s-120.5 97.5-120.5 180.7s67.4 150.6 150.6 150.6s150.6-67.4 150.6-150.6c0-69.3-90.4-150.6-90.4-150.6s-13 11.7-29.2 30.1zm16 196.6c-14.1 9.4-29.2 14.1-46.1 14.1c-42.4 0-76.2-27.3-76.2-73.4c0-22.6 14.1-42.4 42.4-77.2c3.8 4.7 58.4 74.4 58.4 74.4l33.9-39.5c2.8 3.8 4.7 7.5 6.6 11.3c16.9 31.1 9.4 70.6-18.8 90.4z"/></svg>