<svg xmlns="http://www.w3.org/2000/svg" viewBox="0 0 640 512"><!--! Font Awesome Pro 6.3.0 by @fontawesome - https://fontawesome.com License - https://fontawesome.com/license (Commercial License) Copyright 2023 Fonticons, Inc. --><path d="M135.6 75.3v45.2h52.7 45.2 52.7V75.3H135.6zM90.5 120.5V75.3H45.3v45.2H90.5zM45.3 165.6v52.7H188.4V165.6H45.3zm0 150.6H90.5V263.5H45.3v52.7zm0 45.2v45.2H188.4V361.4H135.6 90.5 45.3zm90.4-45.2H242c-.6 5-.9 10.1-.9 15.2c0 10.2 .8 20.2 2.5 30h-10v45.2h23.8c7.6 16.6 17.6 31.8 29.6 45.2H45.3 .1V406.6 75.3 30.1H45.3 376.6h45.2V75.3v61.9c-9.8-8.6-19.9-17-30.1-25.2c-21 17-41.3 34.6-60.2 53.7H233.5v52.7h52.4c-10.5 14.2-20.2 29.3-27.9 45.2H135.6v52.7zM376.6 120.5V75.3H331.4v45.2h45.2zm76.2 90.5C469 192.6 482 180.8 482 180.8s90.4 81.3 90.4 150.6c0 83.2-67.4 150.6-150.6 150.6s-150.6-67.4-150.6-150.6s120.5-180.7 120.5-180.7s30.7 24.9 61.1 60.2zm16 196.6c28.2-19.8 35.8-59.3 18.8-90.4c-1.9-3.8-3.8-7.5-6.6-11.3l-33.9 39.5s-54.6-69.6-58.4-74.4c-28.2 34.8-42.4 54.6-42.4 77.2c0 46.1 33.9 73.4 76.2 73.4c16.9 0 32-4.7 46.1-14.1z"/></svg>