<svg xmlns="http://www.w3.org/2000/svg" viewBox="0 0 384 512"><!--! Font Awesome Pro 6.3.0 by @fontawesome - https://fontawesome.com License - https://fontawesome.com/license (Commercial License) Copyright 2023 Fonticons, Inc. --><path d="M142 0l38.4 28.8 128 96 23.7 17.8-22.3 19.5L202.4 256l107.4 93.9 22.3 19.5-23.7 17.8-128 96L142 512V464 308.9L53.8 386.1 35.7 401.9 4.1 365.7l18.1-15.8L129.6 256 22.2 162.1 4.1 146.3l31.6-36.1 18.1 15.8L142 203.1V48 0zm48 308.9V416l65.9-49.4L190 308.9zm0-105.8l65.9-57.7L190 96V203.1z"/></svg>