<svg xmlns="http://www.w3.org/2000/svg" viewBox="0 0 640 512"><!--! Font Awesome Pro 6.3.0 by @fontawesome - https://fontawesome.com License - https://fontawesome.com/license (Commercial License) Copyright 2023 Fonticons, Inc. --><path d="M407.6 161.7L436 48l.7-2.8 3.9-15.7L448 0H416L393.9 18.4l-164.4 137L48.4 14.8 29.4 .1 0 38 19 52.7 591.5 497.2l19 14.7L639.9 474l-19-14.7L448.2 325.2 512 272V224l-68.2-9.1-47.9-6.4 11.7-46.9zM409.4 295l-56.5-43.8 36.6 4.9 57.4 7.7L409.4 295zm-70.9-55l-70.2-54.5L374.2 97.3l-24.9 99.6L338.5 240zM128 240v48l68.2 9.1 47.9 6.4-11.7 46.9L204 464l-.7 2.8-3.9 15.7L192 512h32l22.1-18.4L371.7 388.9l-38.5-30.4-67.4 56.2 22.8-91.3-95.4-75.1-.2 0 .1-.1-38.5-30.4L128 240z"/></svg>