<svg xmlns="http://www.w3.org/2000/svg" viewBox="0 0 576 512"><!--! Font Awesome Pro 6.3.0 by @fontawesome - https://fontawesome.com License - https://fontawesome.com/license (Commercial License) Copyright 2023 Fonticons, Inc. --><path d="M301.5 73.8l-22 87.8-11.7 46.9 47.9 6.4L384 224v48L124.9 466.3 64 512l18.5-73.8 22-87.8 11.7-46.9-47.9-6.4L0 288V240L259.1 45.7 320 0 301.5 73.8zm-40 182.2L208.3 249l13-52.1 19.3-77.4L68.4 248.7l54.1 7.2 53.3 7.1-13 52.1-19.3 77.4L315.6 263.3l-54.1-7.2zM479.8 288l6.2 14.6L575.6 512H523.4l-17.1-40H421.7l-17.1 40H352.4l89.5-209.4 6.2-14.6h31.7zm5.9 136L464 373.1 442.2 424h43.5z"/></svg>