<svg xmlns="http://www.w3.org/2000/svg" viewBox="0 0 512 512"><!--! Font Awesome Pro 6.3.0 by @fontawesome - https://fontawesome.com License - https://fontawesome.com/license (Commercial License) Copyright 2023 Fonticons, Inc. --><path d="M130 259.2C105.5 273.4 85.6 294.6 73 320H331c-12.6-25.4-32.5-46.6-57.1-60.8l-24-13.9V217.7 48H154V217.7v27.7l-24 13.9zM298 48V217.7c14.2 8.2 27.2 18.2 38.8 29.6L376.1 208l-7-7-17-17L386 150.1l17 17 24 24 24 24 17 17L434 265.9l-17-17-7-7-43.3 43.3C384 314.1 394 347.9 394 384c0 49.2-18.5 94-48.9 128H58.9C28.5 478 10 433.2 10 384c0-71.1 38.6-133.1 96-166.3V48H98 74V0H98h8 48 96 48 8 24V48H306h-8z"/></svg>