<svg xmlns="http://www.w3.org/2000/svg" viewBox="0 0 512 512"><!--! Font Awesome Pro 6.3.0 by @fontawesome - https://fontawesome.com License - https://fontawesome.com/license (Commercial License) Copyright 2023 Fonticons, Inc. --><path d="M0 128V96L64 84V56 32h48V56 75v35.5 30V176v48h32V176 139.5v-34V69 40 16h48V40 60 98v40 38 48h32H463.9 512l-2.8 48-.8 13.2C503.5 368.1 454 438.2 384 472.9V512H336 176 128V472.9C58 438.2 8.5 368.1 3.6 285.2L2.8 272 0 224H48.1 64V176H0V144l64-2V118L0 128zM224 93V54L512 0V48L224 93zm0 44l288-9v48H224V137zM176 464H336V443.1l26.7-13.2c55.1-27.3 93.9-82.4 97.8-147.5l.6-10.3H50.9l.6 10.3c3.8 65.1 42.7 120.3 97.8 147.5L176 443.1V464z"/></svg>