<svg xmlns="http://www.w3.org/2000/svg" viewBox="0 0 512 512"><!--! Font Awesome Pro 6.3.0 by @fontawesome - https://fontawesome.com License - https://fontawesome.com/license (Commercial License) Copyright 2023 Fonticons, Inc. --><path d="M50 176L.7 367.9 41.9 512H186.1l41.2-144.1L178 176c1.6-7.1 3.3-13.6 4.8-19.9l0 0C188.9 131.2 194 110.8 194 82V80c0-44.2-35.8-80-80-80S34 35.8 34 80v2c0 28.9 5.1 49.3 11.2 74.1c1.6 6.3 3.2 12.9 4.8 19.9zM177.6 367.2L149.9 464H78.1L50.4 367.2 91.3 208h45.3l40.9 159.2zm-40.8-225c-1.3 5.4-2.7 11.2-4.3 17.7H95.6c-1.5-6.5-3-12.4-4.3-17.7C85.5 118.7 82 104.6 82 82V80c0-17.7 14.3-32 32-32s32 14.3 32 32v2c0 22.6-3.5 36.8-9.3 60.3l0 0zM306 176L256.7 367.9 297.9 512H442.1l41.2-144.1L434 176c1.6-7.1 3.3-13.6 4.8-19.9l0 0C444.9 131.2 450 110.8 450 82V80c0-44.2-35.8-80-80-80s-80 35.8-80 80v2c0 28.9 5.1 49.3 11.2 74.1c1.6 6.3 3.2 12.9 4.8 19.9zM433.6 367.2L405.9 464H334.1l-27.6-96.8L347.3 208h45.3l40.9 159.2zm-40.8-225c-1.3 5.4-2.7 11.2-4.3 17.7H351.6c-1.5-6.5-3-12.4-4.3-17.7c-5.8-23.6-9.3-37.7-9.3-60.3V80c0-17.7 14.3-32 32-32s32 14.3 32 32v2c0 22.6-3.5 36.8-9.3 60.3z"/></svg>