<svg xmlns="http://www.w3.org/2000/svg" viewBox="0 0 448 512"><!--! Font Awesome Pro 6.3.0 by @fontawesome - https://fontawesome.com License - https://fontawesome.com/license (Commercial License) Copyright 2023 Fonticons, Inc. --><path d="M176 48v64h64V48H176zm32 160a48 48 0 1 1 0 96 48 48 0 1 1 0-96zm0 144a96 96 0 1 0 0-192 96 96 0 1 0 0 192zM125.3 128L80 82.7 34.7 128 80 173.3 125.3 128zM0 288H64l0-64H0v64zM80 429.3L125.3 384 80 338.7 34.7 384 80 429.3zM240 400H176v64h64V400zm96-61.3L290.7 384 336 429.3 381.3 384 336 338.7zM352 224v64h64V224H352zm-16-50.7L381.3 128 336 82.7 290.7 128 336 173.3z"/></svg>