<svg xmlns="http://www.w3.org/2000/svg" viewBox="0 0 640 512"><!--! Font Awesome Pro 6.3.0 by @fontawesome - https://fontawesome.com License - https://fontawesome.com/license (Commercial License) Copyright 2023 Fonticons, Inc. --><path d="M60.6 195.8L79.4 436.7H240.9v45.2H37.6L3.5 45.2 0 0H45.3 316.1h45.3l-3.5 45.2-9.3 119.3c-23.2 8.2-41.9 19.3-56.9 31.3H60.6zm-3.5-45.2H304.3l8.2-105.4H48.8l8.2 105.4zM316.2 283.3v33H557.2v-33c-.6-1.3-1.5-2.9-2.6-4.8c-3.3-5.4-8.8-13-17.4-20.7c-3-2.6-6.3-5.3-10.2-8c-.7 7.7-7.1 13.7-15 13.7c-8.3 0-15.1-6.7-15.1-15.1c0-4.7 2.1-8.8 5.4-11.6c-13.8-5.4-31.1-9.5-52.4-10.6c1.2 2.1 1.8 4.6 1.8 7.2c0 8.3-6.7 15.1-15.1 15.1s-15.1-6.7-15.1-15.1c0-2.6 .7-5 1.8-7.2c-21.3 1.2-38.6 5.3-52.4 10.6c3.3 2.8 5.4 6.9 5.4 11.6c0 8.3-6.7 15.1-15.1 15.1c-7.9 0-14.3-6-15-13.7c-3.8 2.6-7.2 5.3-10.2 8c-8.6 7.7-14.1 15.3-17.4 20.7c-1.1 1.9-2 3.5-2.6 4.8zm0 108.3v45.2H557.2V391.6H316.2zM271.1 354v-7.5-7.5V278.7v-3.8l1.2-3.6 21.4 7.3c-21.4-7.3-21.4-7.4-21.4-7.4l0 0 0-.1 .1-.2 .1-.4c.1-.3 .3-.7 .4-1.1c.4-.9 .8-2 1.5-3.4c1.3-2.8 3.1-6.5 5.8-10.8c5.2-8.7 13.5-19.9 26-31.1c25.4-22.7 66.6-43.4 130.5-43.4s105.1 20.7 130.5 43.4c12.5 11.1 20.8 22.4 26 31.1c2.6 4.3 4.5 8.1 5.7 10.8c.6 1.4 1.1 2.5 1.5 3.4c.2 .4 .3 .8 .4 1.1l.1 .4 .1 .2 0 .1 0 0c0 0 0 0-21.4 7.4l21.4-7.3 1.2 3.6v3.8 60.2 7.5V354v7.5V369v90.4V482H579.8 293.6 271.1V459.4 369v-7.5V354z"/></svg>