<svg xmlns="http://www.w3.org/2000/svg" viewBox="0 0 640 512"><!--! Font Awesome Pro 6.3.0 by @fontawesome - https://fontawesome.com License - https://fontawesome.com/license (Commercial License) Copyright 2023 Fonticons, Inc. --><path d="M91.7 208.4L110.7 256h9.7V85.3L105.4 0 60.2 30.1 91.7 208.4zM56.2 180.7L39.4 85.1 0 75.3 17.6 180.7H56.2zm290.2-15.5l15-89.9L322.6 85l-16 95.7h6.9c9.8-5.8 20.7-11 32.9-15.5zm-73.7 35.7L301.2 30.1 240.9 45.2V256h3.7c2.1-4.9 4.4-9.7 7.2-14.4c2.9-5 6.6-10.6 11.2-16.7l9.6-24zM90.4 286.1L60.2 210.8h-14H0L10 256 60.2 481.9H240.9V436.7H96.5L73 331.3H90.4 240.9V286.1H90.4zM210.8 256V225.9 30.1L150.6 0V256h60.2zm105.4 27.3c.6-1.3 1.5-2.9 2.6-4.8c3.3-5.4 8.8-13 17.4-20.7c3-2.6 6.3-5.3 10.2-8c.7 7.7 7.1 13.7 15 13.7c8.3 0 15.1-6.7 15.1-15.1c0-4.7-2.1-8.8-5.4-11.6c13.8-5.4 31.1-9.5 52.4-10.6c-1.2 2.1-1.8 4.6-1.8 7.2c0 8.3 6.7 15.1 15.1 15.1s15.1-6.7 15.1-15.1c0-2.6-.7-5-1.8-7.2c21.3 1.2 38.6 5.3 52.4 10.6c-3.3 2.8-5.4 6.9-5.4 11.6c0 8.3 6.7 15.1 15.1 15.1c7.9 0 14.3-6 15-13.7c3.8 2.6 7.2 5.3 10.2 8c8.6 7.7 14.1 15.3 17.4 20.7c1.1 1.9 2 3.5 2.6 4.8v33H316.2v-33zm0 108.3H557.2v45.2H316.2V391.6zM271.1 354v7.5V369v90.4V482h22.6H579.8h22.6V459.4 369v-7.5V354v-7.5-7.5V278.7v-3.8l-1.2-3.6-21.4 7.3c21.4-7.3 21.4-7.4 21.4-7.4l0 0 0-.1-.1-.2-.1-.4c-.1-.3-.3-.7-.4-1.1c-.4-.9-.8-2-1.5-3.4c-1.3-2.8-3.1-6.5-5.7-10.8c-5.2-8.7-13.5-19.9-26-31.1c-25.4-22.7-66.6-43.4-130.5-43.4s-105.1 20.7-130.5 43.4c-12.5 11.1-20.8 22.4-26 31.1c-2.6 4.3-4.5 8.1-5.8 10.8c-.6 1.4-1.1 2.5-1.5 3.4c-.2 .4-.3 .8-.4 1.1l-.1 .4-.1 .2 0 .1 0 0c0 0 0 0 21.4 7.4l-21.4-7.3-1.2 3.6v3.8 60.2 7.5V354z"/></svg>