<svg xmlns="http://www.w3.org/2000/svg" viewBox="0 0 512 512"><!--! Font Awesome Pro 6.3.0 by @fontawesome - https://fontawesome.com License - https://fontawesome.com/license (Commercial License) Copyright 2023 Fonticons, Inc. --><path d="M80 272H432V400H400 332.2 112 80V272zm0-48V144H232v80H80zm352 0H280V144H432v80zM336 96V80L176 80V96H83.5c6.9-6.7 19.2-15.8 39-24.5C151.5 58.8 195 48 256 48c111.7 0 157.4 31 173.1 48H336zM56 448h8v40 24h48V488 448H332.2 400v40 24h48V488 448h8 24V424 256h32V128H480V92.1 85.8l-3.1-5.5C458.3 47 397.6 0 256 0C189.4 0 139.2 11.9 103.3 27.5C68.2 42.9 44.9 62.7 35.1 80.4L32 85.8v6.3V128H0V256H32V424v24H56zm88-80a32 32 0 1 0 0-64 32 32 0 1 0 0 64zm224 0a32 32 0 1 0 0-64 32 32 0 1 0 0 64z"/></svg>