<svg xmlns="http://www.w3.org/2000/svg" viewBox="0 0 512 512"><!--! Font Awesome Pro 6.3.0 by @fontawesome - https://fontawesome.com License - https://fontawesome.com/license (Commercial License) Copyright 2023 Fonticons, Inc. --><path d="M285 64a32 32 0 1 0 0-64 32 32 0 1 0 0 64zm-64-8a32 32 0 1 0 -64 0 32 32 0 1 0 64 0zM157 272v80H77V272h80zm48 0h96v80H205V272zm144 0h80v80H349V272zm80 128v64H77V400H181 325 429zM77 224H29v48V464v48H77 429h48V464 272 224H429 277V147.4l205-43.9 23.5-5L495.4 51.5l-23.5 5-224 48-224 48-23.5 5 10.1 46.9 23.5-5 195-41.8V224H77z"/></svg>