<svg xmlns="http://www.w3.org/2000/svg" viewBox="0 0 512 512"><!--! Font Awesome Pro 6.3.0 by @fontawesome - https://fontawesome.com License - https://fontawesome.com/license (Commercial License) Copyright 2023 Fonticons, Inc. --><path d="M373.3 96L352 32H160L138.7 96H48 0v48V432v48H48 464h48V432 144 96H464 373.3zM464 144V432H48V144h90.7 34.6l10.9-32.8L194.6 80H317.4l10.4 31.2L338.7 144h34.6H464zM144 384l16 16 23.9-23.9c20.7 15.4 46 23.9 72.1 23.9c32 0 62.6-12.7 85.3-35.3L361 345 327 311l-19.7 19.7C293.7 344.4 275.2 352 256 352c-13.3 0-26.3-3.7-37.5-10.5L240 320l-16-16H144v80zM368 272V192l-16-16-23.9 23.9c-20.7-15.4-46-23.9-72.1-23.9c-32 0-62.6 12.7-85.3 35.3L151 231 185 265l19.7-19.7C218.3 231.6 236.8 224 256 224c13.3 0 26.3 3.7 37.5 10.5L272 256l16 16h80z"/></svg>