<svg xmlns="http://www.w3.org/2000/svg" viewBox="0 0 448 512"><!--! Font Awesome Pro 6.3.0 by @fontawesome - https://fontawesome.com License - https://fontawesome.com/license (Commercial License) Copyright 2023 Fonticons, Inc. --><path d="M216 48a168 168 0 1 1 0 336 168 168 0 1 1 0-336zM334.3 396.7C393.2 358.1 432 291.6 432 216C432 96.7 335.3 0 216 0S0 96.7 0 216c0 75.6 38.8 142.1 97.7 180.7L45.3 464 8 512H68.8 363.2 424l-37.3-48-52.3-67.3zm-193 22c23.3 8.6 48.4 13.3 74.7 13.3s51.4-4.7 74.7-13.3L325.9 464H106.1l35.2-45.3zM216 144a72 72 0 1 1 0 144 72 72 0 1 1 0-144zm0 192a120 120 0 1 0 0-240 120 120 0 1 0 0 240z"/></svg>