<svg xmlns="http://www.w3.org/2000/svg" viewBox="0 0 512 512"><!--! Font Awesome Pro 6.3.0 by @fontawesome - https://fontawesome.com License - https://fontawesome.com/license (Commercial License) Copyright 2023 Fonticons, Inc. --><path d="M284.7 58.3C255.6 24.2 226.2 .1 226.2 .1s-115.2 94.2-115.2 174.5s64.5 145.5 144 145.5s144-65.1 144-145.5c0-66.9-86.4-145.5-86.4-145.5s-12.5 11.3-27.9 29.1zM300 248.2c-13.5 9.1-27.9 13.6-44.1 13.6c-40.5 0-72.9-26.4-72.9-70.9c0-21.8 13.5-40.9 40.5-74.5c3.6 4.5 55.8 71.8 55.8 71.8L311.7 150c2.7 3.6 4.5 7.3 6.3 10.9c16.2 30 9 68.2-18 87.3zM39.1 297.4l-22.6-8.1L.3 334.5l22.6 8.1L183.6 400 22.9 457.4 .3 465.5l16.1 45.2 22.6-8.1L255 425.5l215.9 77.1 22.6 8.1 16.1-45.2-22.6-8.1L326.4 400l160.7-57.4 22.6-8.1-16.1-45.2-22.6 8.1L255 374.5 39.1 297.4z"/></svg>