<svg xmlns="http://www.w3.org/2000/svg" viewBox="0 0 384 512"><!--! Font Awesome Pro 6.3.0 by @fontawesome - https://fontawesome.com License - https://fontawesome.com/license (Commercial License) Copyright 2023 Fonticons, Inc. --><path d="M304 434.3c-3.4 3-10.2 7.5-21.7 12.2C257.5 456.6 219.9 464 176 464s-81.5-7.4-106.3-17.5c-11.5-4.7-18.3-9.2-21.7-12.2V289.4c13.8 6 30 11 48 14.7V368H256V304.1c18-3.8 34.2-8.8 48-14.7V434.3zm48 5.7V240 72c0-39.8-78.8-72-176-72S0 32.2 0 72V240 440c0 39.8 78.8 72 176 72s176-32.2 176-72zM288 72c0 13.3-50.1 24-112 24S64 85.3 64 72s50.1-24 112-24s112 10.7 112 24zM208 320H144V256h64v64z"/></svg>