<svg xmlns="http://www.w3.org/2000/svg" viewBox="0 0 640 512"><!--! Font Awesome Pro 6.3.0 by @fontawesome - https://fontawesome.com License - https://fontawesome.com/license (Commercial License) Copyright 2023 Fonticons, Inc. --><path d="M188.4 42.1L161.6 0 134.9 42.1 116.2 71.3 81.7 67.6 32.1 62.4l16.2 47.2 11.3 32.8L35.2 167 .2 202.5l47 16.8 32.7 11.7 4.1 34.5 5.9 49.5 33.6-20.8 17.1-63.7-2.6 1.6-11.6 7.2-1.6-13.5-3.3-27.8L95 188.4l-12.8-4.6 9.6-9.7 19.7-19.9-9.1-26.5-4.4-12.9 13.5 1.4 27.8 3 15-23.6 7.3-11.5L169 95.6l5.3 8.3 .1-.2 29.1 7.8 15 4 2.5-.3 33.4-49-12.7 1.4-34.5 3.7L188.4 42.1zm358.4 69.3l-15.5-4.1L319.8 50.5l-15.5-4.1-9 13.2-62.1 91.1-37.5-10.1-11.7 43.6-23.3 86.9-11.7 43.6 0 0L132.3 377l37.3 10 16.7-62.2 6.3 1.7 310.9 83.3 6.3 1.7-16.7 62.2 37.3 10L552.3 402l0 0 6.5-24.1L582.1 291l11.7-43.6-37.5-10.1-8.2-110-1.2-16zm-223.2-13l180.6 48.4 5.9 78.2L279.4 163.1l44.2-64.8zm214.9 181l-23.3 86.9L204.3 282.9 227.6 196l310.9 83.3zm-80 25.1a25.8 25.8 0 1 0 49.8 13.3 25.8 25.8 0 1 0 -49.8-13.3zM252.7 276a25.8 25.8 0 1 0 13.3-49.8A25.8 25.8 0 1 0 252.7 276z"/></svg>