<svg xmlns="http://www.w3.org/2000/svg" viewBox="0 0 448 512"><!--! Font Awesome Pro 6.3.0 by @fontawesome - https://fontawesome.com License - https://fontawesome.com/license (Commercial License) Copyright 2023 Fonticons, Inc. --><path d="M208 128c-26.5 0-48-21.5-48-48c0-32 48-80 48-80s48 48 48 80s-21.5 48-48 48zM87.1 160H104 312h16.9l5.7 15.9L368.9 272H416v48 80 16 32 64H368V448H48v64H0V448 416 400 320 272H47.1l34.3-96.1L87.1 160zM352.6 320c-.4 0-.7 0-1.1 0H64.6c-.4 0-.7 0-1.1 0H48v80H368V320H352.6zM295.1 208H120.9L98.1 272H317.9l-22.9-64zM96 336a24 24 0 1 1 0 48 24 24 0 1 1 0-48zm200 24a24 24 0 1 1 48 0 24 24 0 1 1 -48 0zM96 80c0 32-21.5 48-48 48S0 106.5 0 80C0 48 48 0 48 0s48 48 48 80zm272 48c-26.5 0-48-21.5-48-48c0-32 48-80 48-80s48 48 48 80s-21.5 48-48 48z"/></svg>