<svg xmlns="http://www.w3.org/2000/svg" viewBox="0 0 512 512"><!--! Font Awesome Pro 6.3.0 by @fontawesome - https://fontawesome.com License - https://fontawesome.com/license (Commercial License) Copyright 2023 Fonticons, Inc. --><path d="M258 24v80 24H210V104 24 0h48V24zM113.1 160H130 338h16.9l5.7 15.9L394.9 272H442v48 80 16 32 64H394V448H74v64H26V448 416 400 320 272H73.1l34.3-96.1 5.7-15.9zm208 48H146.9l-22.9 64H343.9l-22.9-64zM394 320H74v80H394V320zM122 336a24 24 0 1 1 0 48 24 24 0 1 1 0-48zm200 24a24 24 0 1 1 48 0 24 24 0 1 1 -48 0zM34 22.1L51 39 99 87l17 17L82 137.9 65 121 17 73 .1 56 34 22.1zM417 39l17-17L467.9 56 451 73l-48 48-17 17L352.1 104l17-17 48-48z"/></svg>