<svg xmlns="http://www.w3.org/2000/svg" viewBox="0 0 640 512"><!--! Font Awesome Pro 6.3.0 by @fontawesome - https://fontawesome.com License - https://fontawesome.com/license (Commercial License) Copyright 2023 Fonticons, Inc. --><path d="M324 10.7l280 144 21.3 11-22 42.7-21.3-11L313 59 44 197.3l-21.3 11L.7 165.6l21.3-11 280-144L313 5l11 5.6zM192.1 160H209 417h16.9l5.7 15.9L473.9 272H521v48 80 16 32 64H473l0-64H153v64H105V448 416 400 320 272h47.1l34.3-96.1 5.7-15.9zm208 48H225.9l-22.9 64H422.9l-22.9-64zM473 320H153v80H473V320zM201 336a24 24 0 1 1 0 48 24 24 0 1 1 0-48zm200 24a24 24 0 1 1 48 0 24 24 0 1 1 -48 0z"/></svg>