<svg xmlns="http://www.w3.org/2000/svg" viewBox="0 0 640 512"><!--! Font Awesome Pro 6.3.0 by @fontawesome - https://fontawesome.com License - https://fontawesome.com/license (Commercial License) Copyright 2023 Fonticons, Inc. --><path d="M65.4 74.7l15.4-4.1 238-63.8 15-4 9.1 12.6 68.8 94.9 2.4-.6L457.8 98l11.7 43.6 29.1 108.7 11.7 43.6 0 0 18.8 70-42 11.3-18.8-70-1.6 .4L106 402.3l-1.6 .4 9.1 34H579.8h22.6v45.2H579.8 88.9L81.1 484l-.6-2.1h-58H0V436.7H22.6 68.4L62.3 414 56.5 392l-5.8-21.7L21.5 261.6 9.8 218l43.6-11.7 1.6-.4L64.2 90.6l1.3-15.9zM315.5 54.5L108 110.1l-6.6 83.4L365 122.8 315.5 54.5zM65.2 249.9L94.3 358.6 455 262 425.8 153.3 65.2 249.9zm40.9 47.3a29 29 0 1 1 56-15 29 29 0 1 1 -56 15zm272.5-103a29 29 0 1 1 15 56 29 29 0 1 1 -15-56z"/></svg>