<svg xmlns="http://www.w3.org/2000/svg" viewBox="0 0 576 512"><!--! Font Awesome Pro 6.3.0 by @fontawesome - https://fontawesome.com License - https://fontawesome.com/license (Commercial License) Copyright 2023 Fonticons, Inc. --><path d="M77 0c32.8 0 61 19.7 73.3 48H387.7C400 19.7 428.2 0 461 0c12.5 0 24.4 2.9 34.9 8c19.6 9.5 34.8 26.9 41.4 48H509 482.2 461v48h21.2H509h28.3c-6.6 21.1-21.8 38.5-41.4 48c-10.6 5.1-22.4 8-34.9 8c-32.8 0-61-19.7-73.3-48H150.3C138 140.3 109.8 160 77 160c-12.5 0-24.4-2.9-34.9-8C22.4 142.5 7.3 125.1 .7 104H29 55.8 77V56H55.8 29 .7C7.3 34.9 22.4 17.5 42.1 8C52.6 2.9 64.5 0 77 0zm71.1 160H165 373h16.9l5.7 15.9L429.9 272H477v48 80 16 32 64H429V448H109v64H61V448 416 400 320 272h47.1l34.3-96.1 5.7-15.9zM413.6 320c-.4 0-.7 0-1.1 0H125.6c-.4 0-.7 0-1.1 0H109v80H429V320H413.6zM356.1 208H181.9l-22.9 64H378.9l-22.9-64zM173 336a24 24 0 1 1 0 48 24 24 0 1 1 0-48zm168 24a24 24 0 1 1 48 0 24 24 0 1 1 -48 0z"/></svg>