<svg xmlns="http://www.w3.org/2000/svg" viewBox="0 0 640 512"><!--! Font Awesome Pro 6.3.0 by @fontawesome - https://fontawesome.com License - https://fontawesome.com/license (Commercial License) Copyright 2023 Fonticons, Inc. --><path d="M56.4 74.7l15.4-4.1 238-63.8 15-4 9.1 12.6 68.8 94.9 2.4-.6L448.8 98l11.7 43.6 29.1 108.7 11.7 43.6 0 0 18.8 70-42 11.3-18.8-70-1.6 .4L97 402.3l-1.6 .4 18.8 70L72.1 484 53.3 414 47.5 392l-5.8-21.7L12.5 261.6 .8 218l43.6-11.7 1.6-.4L55.2 90.6l1.3-15.9zM306.5 54.5L99 110.1l-6.6 83.4L356 122.8 306.5 54.5zM56.2 249.9L85.3 358.6 446 262 416.8 153.3 56.2 249.9zm40.9 47.3a29 29 0 1 1 56-15 29 29 0 1 1 -56 15zm272.5-103a29 29 0 1 1 15 56 29 29 0 1 1 -15-56zM471.8 391.5c53.1 0 97 39.3 104.3 90.4H367.5c7.3-51.1 51.2-90.4 104.3-90.4z"/></svg>