<svg xmlns="http://www.w3.org/2000/svg" viewBox="0 0 320 512"><!--! Font Awesome Pro 6.3.0 by @fontawesome - https://fontawesome.com License - https://fontawesome.com/license (Commercial License) Copyright 2023 Fonticons, Inc. --><path d="M208 0V24 72.5C245.9 75 281 88 309.9 108.4l-27.7 39.2c-20.9-14.8-46.3-24.5-74.1-27V391.4c27.8-2.5 53.2-12.2 74.1-27l27.7 39.2C281 424 245.9 437 208 439.5v.5 48 24H160V488 440v-2.8C70 422 0 347.7 0 256S70 90 160 74.8V24 0h48zM48 256c0 63.2 47 117.9 112 132.3V123.7C95 138.1 48 192.8 48 256z"/></svg>