<svg xmlns="http://www.w3.org/2000/svg" viewBox="0 0 320 512"><!--! Font Awesome Pro 6.3.0 by @fontawesome - https://fontawesome.com License - https://fontawesome.com/license (Commercial License) Copyright 2023 Fonticons, Inc. --><path d="M208 0V24 72.5C245.9 75 281 88 309.9 108.4l-27.7 39.2C257.7 130.3 227.2 120 194 120c-82 0-146 62.2-146 136s64 136 146 136c33.3 0 63.7-10.3 88.2-27.6l27.7 39.2C281 424 245.9 437 208 439.5V488v24H160V488 437.2C70 422 0 347.7 0 256S70 90 160 74.8V24 0h48z"/></svg>