<svg xmlns="http://www.w3.org/2000/svg" viewBox="0 0 448 512"><!--! Font Awesome Pro 6.3.0 by @fontawesome - https://fontawesome.com License - https://fontawesome.com/license (Commercial License) Copyright 2023 Fonticons, Inc. --><path d="M288 48V224h48V48 0H288 128 80V48 224h48V48H288zM48 152V128H0v24 48 24H48V200 152zm368 0V128H368v24 48 24h48V200 152zM232 400H352h48V368l-6.9-16L352 256H64L22.9 352 16 368v32H64 184v64H136 112v48h24 72 72 24V464H280 232V400zM95.7 304H320.3l20.6 48H232 184 75.1l20.6-48z"/></svg>