<svg xmlns="http://www.w3.org/2000/svg" viewBox="0 0 640 512"><!--! Font Awesome Pro 6.3.0 by @fontawesome - https://fontawesome.com License - https://fontawesome.com/license (Commercial License) Copyright 2023 Fonticons, Inc. --><path d="M121.9 183.4c-18.1 34.3-1.7 76.7 34.8 90s76.2-8.7 84.5-46.6l7.1-32.9L137.6 153.7l-15.7 29.8zm136-34L271.7 86 189 55.9l-30.2 57.4 99.1 36.1zm-176 13L167.4 0 301.2 48.7 434.9 0l85.5 162.4c27.2 51.7 8.6 114.1-38.8 143.6l33.5 92 50.6-18.4 21.2-7.7 15.5 42.5L581.1 422l-71.8 26.1-71.8 26.1L416.2 482l-15.5-42.5 21.2-7.7 50.6-18.4-33.5-92c-55.3 7.9-109.7-27.9-122-85L301.2 163l-15.9 73.4c-12.4 57.1-66.7 92.9-122 85l-33.5 92 50.6 18.4 21.2 7.7L186.1 482l-21.2-7.7L93.1 448.1 21.2 422 0 414.3l15.5-42.5 21.2 7.7L87.3 398l33.5-92c-47.5-29.5-66.1-91.9-38.8-143.6zm398.5 21l-15.7-29.8L354.1 194l7.1 32.9c8.2 37.9 48 59.9 84.5 46.6s52.8-55.7 34.8-90zm-136-34l99.1-36.1L413.3 55.9 330.7 86l13.7 63.4z"/></svg>