<svg xmlns="http://www.w3.org/2000/svg" viewBox="0 0 512 512"><!--! Font Awesome Pro 6.3.0 by @fontawesome - https://fontawesome.com License - https://fontawesome.com/license (Commercial License) Copyright 2023 Fonticons, Inc. --><path d="M482.5 73.4l17.4-16.5-33-34.8L449.5 38.6l-136.1 129L201.8 69.9 187.3 57.2 171.8 68.7l-152 112L.4 194.9l28.5 38.6 19.3-14.2L184.7 118.8l113.5 99.3 16.4 14.4 15.9-15 152-144zM194 264V440H178V264h16zm-16-40H138v40V440v40h40 16 40V440 264 224H194 178zM66 360v80H50V360H66zM50 320H10v40 80 40H50 66h40V440 360 320H66 50zm256 8h16V440H306V328zm-40-40v40V440v40h40 16 40V440 328 288H322 306 266zm184-24V440H434V264h16zm-16-40H394v40V440v40h40 16 40V440 264 224H450 434z"/></svg>