<svg xmlns="http://www.w3.org/2000/svg" viewBox="0 0 448 512"><!--! Font Awesome Pro 6.3.0 by @fontawesome - https://fontawesome.com License - https://fontawesome.com/license (Commercial License) Copyright 2023 Fonticons, Inc. --><path d="M72 0H48V24 56 68l9.6 7.2L64 80l-6.4 4.8L48 92l0 12-.4 151.6 0 12.4 10.1 7.2 19.3 13.8L59.5 299.5l-11.5 7L48 320l0 32H96l0-18.5 124.5-75.9L241 245.1l-25-41-20.5 12.5-74 45.1L95.6 243.3 96 116l22.4-16.8L144 80 118.4 60.8 101.3 48H210.6C288.7 48 352 111.3 352 189.4c0 8.3-.7 16.6-2.2 24.8L325.3 352h48.8l23-129.4c1.9-10.9 2.9-22 2.9-33.2C400 84.8 315.2 0 210.6 0H72zM52.7 464l16.6-32H346.8l16.6 32H52.7zM416 461.3L376 384H40L0 461.3V464v48H48 368h48V464v-2.7zM156 168a20 20 0 1 0 0-40 20 20 0 1 0 0 40z"/></svg>