<svg xmlns="http://www.w3.org/2000/svg" viewBox="0 0 384 512"><!--! Font Awesome Pro 6.3.0 by @fontawesome - https://fontawesome.com License - https://fontawesome.com/license (Commercial License) Copyright 2023 Fonticons, Inc. --><path d="M0 32H24 360h24V56 208v12l-9.6 7.2-53 39.8 9.4 85H282.5l-10.4-93.3L270.6 245l11-8.2L336 196V80H272v24 24H224V104 80H160v24 24H112V104 80H48V196l54.4 40.8 11 8.2-1.5 13.6L101.5 352H53.2l9.4-85-53-39.8L0 220V208 56 32zM69.2 432L52.7 464H331.3l-16.6-32H69.2zM384 464v48H336 48 0V464v-2.7L40 384H344l40 77.3V464zM160 288V224c0-17.7 14.3-32 32-32s32 14.3 32 32v64H160z"/></svg>