<svg xmlns="http://www.w3.org/2000/svg" viewBox="0 0 576 512"><!--! Font Awesome Pro 6.3.0 by @fontawesome - https://fontawesome.com License - https://fontawesome.com/license (Commercial License) Copyright 2023 Fonticons, Inc. --><path d="M265 96a48 48 0 1 0 0-96 48 48 0 1 0 0 96zM159.6 88h-20L136 107.7c-5.4 29.8-31.6 52.4-63 52.4c-10.1 0-19.6-2.3-28.1-6.5L33 147.8l-11.3 6.9-1.3 .8L.6 167.8 12.2 188l94.4 164H162l-83-144.1c40.5-2.2 75.3-25.9 93.1-59.8c22 26.8 55.4 43.9 92.8 43.9s70.8-17.1 92.8-43.9c17.8 34 52.6 57.7 93.1 59.8L368 352h55.4l94.4-164 11.6-20.2-19.9-12.2-1.3-.8L497 147.8l-11.9 5.8c-8.5 4.1-18 6.5-28.1 6.5c-31.4 0-57.5-22.6-63-52.4L390.4 88h-20H352.3 336.9l-6.4 14c-11.4 24.8-36.5 42-65.5 42s-54.1-17.2-65.5-42l-6.4-14H177.7 159.6zM125.7 464l16.6-32H387.8l16.6 32H125.7zM457 461.3L417 384H113L73 461.3V464v48h48H409h48V464v-2.7z"/></svg>