<svg xmlns="http://www.w3.org/2000/svg" viewBox="0 0 512 512"><!--! Font Awesome Pro 6.3.0 by @fontawesome - https://fontawesome.com License - https://fontawesome.com/license (Commercial License) Copyright 2023 Fonticons, Inc. --><path d="M128 64a16 16 0 1 1 32 0 16 16 0 1 1 -32 0zm80 0A64 64 0 1 0 80 64a64 64 0 1 0 128 0zM102.5 160H88.4l-6.9 12.3L19 284.3l-11.7 21 41.9 23.4 11.7-21 19-34.1V488v24h48V488 384h32V488v24h48V488 273.6l19 34.1 11.7 21 41.9-23.4-11.7-21-62.5-112L199.6 160H185.5h-83zM160 336H128V208h32V336zM384 0H368V32h16v96H368v16 32 16H320v48 96 48h16 32 16v48 32 48h46.5H432h48l-12-48-16-64h60V352H448V325.3L512 304V192H464v72l-16 5.3V176 128H432V0H416 384zm16 336H384 368V240h32v96z"/></svg>