<svg xmlns="http://www.w3.org/2000/svg" viewBox="0 0 320 512"><!--! Font Awesome Pro 6.3.0 by @fontawesome - https://fontawesome.com License - https://fontawesome.com/license (Commercial License) Copyright 2023 Fonticons, Inc. --><path d="M158 96a24 24 0 1 0 0-48 24 24 0 1 0 0 48zm0-96a72 72 0 1 1 0 144A72 72 0 1 1 158 0zM86.9 160h13.6H214h13.4l7 11.4 68.8 112 12.6 20.4L274.9 329l-12.6-20.4L238 268.9V488v24H190V488 384H126V488v24H78V488 268L53.8 308.4 41.4 328.9 .3 304.2l12.4-20.6 67.3-112 7-11.6zM126 336h64V208H126V336z"/></svg>