<svg xmlns="http://www.w3.org/2000/svg" viewBox="0 0 384 512"><!--! Font Awesome Pro 6.3.0 by @fontawesome - https://fontawesome.com License - https://fontawesome.com/license (Commercial License) Copyright 2023 Fonticons, Inc. --><path d="M169 48a24 24 0 1 1 0 48 24 24 0 1 1 0-48zm0 96A72 72 0 1 0 169 0a72 72 0 1 0 0 144zM73.5 224h14H89V488v24h48V488 384h64V488v24h48V488 224h13.8l6.9-11.9 56-96 12.1-20.7L296.4 71.2 284.3 91.9 235.2 176H101.5L53.9 92.2 42 71.3 .3 95l11.8 20.9 54.5 96L73.5 224zM201 336H137V224h64V336z"/></svg>