<svg xmlns="http://www.w3.org/2000/svg" viewBox="0 0 640 512"><!--! Font Awesome Pro 6.3.0 by @fontawesome - https://fontawesome.com License - https://fontawesome.com/license (Commercial License) Copyright 2023 Fonticons, Inc. --><path d="M159 96a24 24 0 1 0 0-48 24 24 0 1 0 0 48zm0-96a72 72 0 1 1 0 144A72 72 0 1 1 159 0zM103.7 160h12.2 9.8H143h32 17.3 9.8 12.2l7.2 9.9 81.7 112 14.1 19.4-38.8 28.3-14.1-19.4-40.6-55.7 38 113.9L272.3 400H239 223v88 24H175V488 400H143v88 24H95V488 400H79 45.7l10.5-31.6 38-113.9L53.6 310.1 39.4 329.5 .7 301.2l14.1-19.4 81.7-112 7.2-9.9zm8.6 192h93.4L159 211.9 112.3 352zM503 72a24 24 0 1 0 -48 0 24 24 0 1 0 48 0zm-96 0a72 72 0 1 1 144 0A72 72 0 1 1 407 72zm30.5 88h83 13.3l7.1 11.2 70.5 112 12.8 20.3-40.6 25.6-12.8-20.3-27.7-44V488v24H495V488 384H463V488v24H415V488 264.8l-27.7 44-12.8 20.3-40.6-25.6 12.8-20.3 70.5-112 7.1-11.2h13.3zM495 336V208H463V336h32z"/></svg>