<svg xmlns="http://www.w3.org/2000/svg" viewBox="0 0 512 512"><!--! Font Awesome Pro 6.3.0 by @fontawesome - https://fontawesome.com License - https://fontawesome.com/license (Commercial License) Copyright 2023 Fonticons, Inc. --><path d="M.1 232H48.4c4.5-39.5 20.1-75.6 43.6-105.1L57.8 92.7C25.9 131.3 5 179.3 .1 232zM125.9 92.9c29.6-23.4 65.7-39 105.1-43.6V1.1C178.3 6 130.3 26.9 91.7 58.8l34.1 34.1zM279 462.6v48.3c52.7-4.9 100.7-25.8 139.3-57.7l-34.1-34.1c-29.6 23.4-65.7 39-105.1 43.6zm139.1-77.5l34.1 34.1c31.9-38.5 52.8-86.6 57.7-139.3H461.6c-4.5 39.5-20.1 75.6-43.6 105.1zM91.7 453.2c38.5 31.9 86.6 52.8 139.3 57.7V462.6c-39.5-4.5-75.6-20.1-105.1-43.6L91.7 453.2zM57.8 419.3l34.1-34.1c-23.4-29.6-39-65.7-43.6-105.1H.1C5 332.7 25.9 380.7 57.8 419.3zM418.3 58.8C379.7 26.9 331.7 6 279 1.1V49.4c39.5 4.5 75.6 20.1 105.1 43.6l34.1-34.1zm-.2 68.1c23.4 29.6 39 65.7 43.6 105.1h48.3c-4.9-52.7-25.8-100.7-57.7-139.3l-34.1 34.1z"/></svg>