<svg xmlns="http://www.w3.org/2000/svg" viewBox="0 0 512 512"><!--! Font Awesome Pro 6.3.0 by @fontawesome - https://fontawesome.com License - https://fontawesome.com/license (Commercial License) Copyright 2023 Fonticons, Inc. --><path d="M34.2 1.3l17 17L160 127l7 7V144v40h40 9.9l7 7L352 319l7 7V336v40h40 9.9l7 7 76.8 76.8 17 17-33.9 33.9-17-17L389.1 424H335 311V400 345.9L197.1 232H143 119V208 153.9L17.2 52.2l-17-17L34.2 1.3zm0 224l17 17L128 319l7 7V336v40h40 9.9l7 7 76.8 76.8 17 17-33.9 33.9-17-17L165.1 424H111 87V400 345.9L17.2 276.2l-17-17 33.9-33.9zm241-207L288 31l7 7V48 88h40 9.9l7 7 64 64 7 7V176v40h40 9.9l7 7 12.8 12.8 17 17-33.9 33.9-17-17-5.8-5.8H399 375V240 185.9L325.1 136H271 247V112 57.9l-5.8-5.8-17-17L258.2 1.3l17 17z"/></svg>