<svg xmlns="http://www.w3.org/2000/svg" viewBox="0 0 640 512"><!--! Font Awesome Pro 6.3.0 by @fontawesome - https://fontawesome.com License - https://fontawesome.com/license (Commercial License) Copyright 2023 Fonticons, Inc. --><path d="M462.6 107c0 53 43 96 96 96c18.9 0 36.5-5.5 51.4-14.9C588.5 228.5 546 256 497 256c-3.7 0-7.5-.2-11.1-.5c-11.1-23.1-29.9-41.9-53.1-52.8c-1.9-41.7-26.7-77.5-62.1-95.1C380.4 46.6 433.3 0 497 0c18.9 0 36.9 4.1 53 11.5c-49 4.4-87.4 45.5-87.4 95.6zM81 416h56L73 512H17l64-96zm96 0h56l-64 96H113l64-96zm152 0l-64 96H209l64-96h56zm40 0h56l-64 96H305l64-96zM193.6 144c-26.5 0-48 21.5-48 48v24 24h-24H113c-26.5 0-48 21.5-48 48v48H97.6h31.8l0 0H265.6h0 88v0h24H385h32V304c0-17.7-14.3-32-32-32h-7.4-24V248 208c0-17.7-14.3-32-32-32c-14.9 0-27.5 10.2-31 24h-49v-8c0-26.5-21.5-48-48-48zm208 240v0h-24-112 0-144-24H65.8l0 0H41 17V360 288c0-47.8 34.9-87.4 80.6-94.8V192c0-53 43-96 96-96c34.9 0 65.4 18.6 82.2 46.4c13-9.1 28.7-14.4 45.8-14.4c44.2 0 80 35.8 80 80v17.7c36.2 7.6 63.4 39.8 63.4 78.3v56 24H441 401.6z"/></svg>