<svg xmlns="http://www.w3.org/2000/svg" viewBox="0 0 576 512"><!--! Font Awesome Pro 6.3.0 by @fontawesome - https://fontawesome.com License - https://fontawesome.com/license (Commercial License) Copyright 2023 Fonticons, Inc. --><path d="M258.6 52.1c40.2-12.4 67.6-7 81.6 7s19.4 41.4 7 81.6c-12.1 39.1-39.7 84.4-80.8 125.5S180.1 334.9 141 347c-40.2 12.4-67.6 7-81.6-7s-19.4-41.4-7-81.6C64.4 219.3 92 174 133.1 132.9s86.4-68.7 125.5-80.8zM372.2 27.2C340.5-4.5 291.6-5.4 245.3 8.9c-47.4 14.6-98.9 46.7-144.1 92s-77.4 96.7-92 144.1C-5.1 291.4-4.3 340.3 27.4 371.9l38.5 38.5c45.7 45.7 107.7 71.4 172.4 71.4c9.9 0 19.8-.6 29.4-1.8l3.6 3.6L276 479c104.5-16.2 187-98.7 203.2-203.2l4.7-4.7-3.6-3.6c1.2-9.6 1.8-19.4 1.8-29.4c0-64.7-25.7-126.7-71.4-172.4L372.2 27.2zm-122.6 371l-16-16-31.9 31.9 16 16 6.1 6.1c-37.6-2.8-73.5-16.2-103.6-38.5c11.3-1.5 22.8-4 34.1-7.5c47.4-14.6 98.9-46.7 144.1-92s77.4-96.7 92-144.1c3.5-11.3 6.1-22.8 7.5-34.1c22.3 30.1 35.7 66 38.5 103.6l-6.1-6.1-16-16-31.9 31.9 16 16 33.5 33.5c-6.7 29.3-19.9 56-38 78.8L355 322.9l-16-16-31.9 31.9 16 16 38.8 38.8c-22.7 18.1-49.5 31.3-78.8 38l-33.5-33.5zM241.2 241c58.8-58.8 87.4-125.6 63.9-149.1S214.8 97 156 155.8S68.6 281.3 92.1 304.9s90.3-5.1 149.1-63.9z"/></svg>