<svg xmlns="http://www.w3.org/2000/svg" viewBox="0 0 448 512"><!--! Font Awesome Pro 6.3.0 by @fontawesome - https://fontawesome.com License - https://fontawesome.com/license (Commercial License) Copyright 2023 Fonticons, Inc. --><path d="M48 48v64h64V48H48zM0 0H48h64 48V48v64 48H112h-8V352h8 48v48 64 48H112 48 0V464 400 352H48h8V160H48 0V112 48 0zM345 23l23 23 23-23 17-17L441.9 40 425 57l-23 23 23 23 17 17L408 153.9l-17-17-23-23-23 23-17 17L294.1 120l17-17 23-23L311 57l-17-17L328 6.1l17 17zm47 177v24V352h8 48v48 64 48H400 336 288V464 400 352h48 8V224 200h48zM48 400v64h64V400H48zm288 0v64h64V400H336z"/></svg>