<svg xmlns="http://www.w3.org/2000/svg" viewBox="0 0 640 512"><!--! Font Awesome Pro 6.3.0 by @fontawesome - https://fontawesome.com License - https://fontawesome.com/license (Commercial License) Copyright 2023 Fonticons, Inc. --><path d="M371.5 1.8l-7.3 22.8-144 448-7.3 22.8 45.7 14.7 7.3-22.8 144-448 7.3-22.8L371.5 1.8zm61.6 135.3l17.5 16.4L559.9 256 450.6 358.5l-17.5 16.4 32.8 35 17.5-16.4 128-120L630.1 256l-18.7-17.5-128-120-17.5-16.4-32.8 35zm-269-35l-17.5 16.4-128 120L-.1 256l18.7 17.5 128 120 17.5 16.4 32.8-35-17.5-16.4L70.1 256 179.4 153.5l17.5-16.4-32.8-35z"/></svg>