<svg xmlns="http://www.w3.org/2000/svg" viewBox="0 0 576 512"><!--! Font Awesome Pro 6.3.0 by @fontawesome - https://fontawesome.com License - https://fontawesome.com/license (Commercial License) Copyright 2023 Fonticons, Inc. --><path d="M308 96a48 48 0 1 0 -96 0 48 48 0 1 0 96 0zm-19.6 91.7c-9 2.8-18.5 4.3-28.4 4.3s-19.4-1.5-28.4-4.3L162.1 306.4C191.9 320.3 225 328 260 328c85.8 0 160.8-46.6 201-116l41.5 24C454.2 319.6 363.7 376 260 376c-43.8 0-85.3-10.1-122.2-28L54.2 490.7 42.1 511.4 .7 487.2l12.1-20.7L96.6 323.4C64.4 300.2 37.4 270.4 17.5 236L59 212c15.8 27.2 36.9 51 61.9 69.7l69.8-119.2C174.2 145.2 164 121.8 164 96c0-53 43-96 96-96s96 43 96 96c0 25.8-10.2 49.2-26.7 66.5l53.5 91.4c-12.6 9.8-26.4 18.1-41.1 24.7l-53.2-90.9zM507.1 466.4l12.1 20.7-41.4 24.2-12.1-20.7L398.4 375.7c14.4-7.1 28.2-15.4 41.2-24.6l67.5 115.3z"/></svg>