<svg xmlns="http://www.w3.org/2000/svg" viewBox="0 0 512 512"><!--! Font Awesome Pro 6.3.0 by @fontawesome - https://fontawesome.com License - https://fontawesome.com/license (Commercial License) Copyright 2023 Fonticons, Inc. --><path d="M102 121.7L202.5 68c19 52.5 62.4 93.4 116.4 109.1c15.4 53.2 55.2 95.9 106.5 115.5L378 390.3l-104.7 56L156 429.7 70.6 346.8 50 229.1 102 121.7zM473.9 255.2c-61.5-6.7-109.9-57.1-113.7-119.5C297.8 132 247.5 83.6 240.8 22.1L197.9 16 65.7 86.7 0 222.1 26 370.4 133.8 475l148.3 21 132.3-70.7L480 289.9l-6.1-34.7zM144 224l32-32-32-32-32 32 32 32zm96 32l32 32 32-32-32-32-32 32zm-96 96l32 32 32-32-32-32-32 32zm160 0l32 32 32-32-32-32-32 32z"/></svg>