<svg xmlns="http://www.w3.org/2000/svg" viewBox="0 0 512 512"><!--! Font Awesome Pro 6.3.0 by @fontawesome - https://fontawesome.com License - https://fontawesome.com/license (Commercial License) Copyright 2023 Fonticons, Inc. --><path d="M102 121.7L50 229.1 70.6 346.8 156 429.7l117.3 16.6 104.7-56L430 282.9 409.4 165.2 324 82.3 206.7 65.7 102 121.7zM197.9 16L346.2 37 454 141.6l26 148.3L414.3 425.3 282.1 496 133.8 475 26 370.4 0 222.1 65.7 86.7 197.9 16zM304 160l-32-32 32-32 32 32-32 32zM112 192l32-32 32 32-32 32-32-32zm160 96l-32-32 32-32 32 32-32 32zm-96 96l-32-32 32-32 32 32-32 32zm128-32l32-32 32 32-32 32-32-32z"/></svg>