<svg xmlns="http://www.w3.org/2000/svg" viewBox="0 0 576 512"><!--! Font Awesome Pro 6.3.0 by @fontawesome - https://fontawesome.com License - https://fontawesome.com/license (Commercial License) Copyright 2023 Fonticons, Inc. --><path d="M137 0C66.3 0 9 57.3 9 128v64 15.4l13.9 6.4 85 39.2c-2.2 3.6-4.2 7.2-6 11H70.7L43.7 250.5 22.3 239.8 .8 282.7l21.5 10.7 32 16 5.1 2.5H65 89.2c-.2 2.6-.2 5.3-.2 8v1.4l-23.6 7.9L60 331l-4 4L24 367l-17 17L41 417.9l17-17 28-28 30-10L134 381 97.4 393.2 92 395l-4 4L56 431l-17 17L73 481.9l17-17 28-28 54-18 2.2 2.2L149.3 435 137 441.9V456v32 24h48V488 470.1L223.1 449l-.5-1h85l-.5 1L345 470.1V488v24h48V488 456 441.9L380.7 435l-24.9-13.8L358 419l54 18 28 28 17 17L490.9 448l-17-17-32-32-4-4-5.4-1.8L396 381 414 363l30 10 28 28 17 17L522.9 384l-17-17-32-32-4-4-5.4-1.8L441 321.4V320c0-2.7-.1-5.4-.2-8H465h5.7l5.1-2.5 32-16 21.5-10.7-21.5-42.9-21.5 10.7L459.3 264H428.1c-1.8-3.8-3.9-7.4-6-11l85-39.2 13.9-6.4V192 128C521 57.3 463.7 0 393 0H329l64 64H329c0 35.3 28.7 64 64 64h80v48.6L387.7 216c-16.9-12.2-37-20.3-58.7-23V152 128H281v24 40H249V152 128H201v24 41c-21.7 2.7-41.7 10.9-58.7 23L57 176.6V128h80c35.3 0 64-28.7 64-64H137L201 0H137zM281 240h32c42.9 0 77.9 33.8 79.9 76.2L309.1 400H220.9l-83.8-83.8c2-42.4 37-76.2 79.9-76.2h32 32z"/></svg>