<svg xmlns="http://www.w3.org/2000/svg" viewBox="0 0 640 512"><!--! Font Awesome Pro 6.3.0 by @fontawesome - https://fontawesome.com License - https://fontawesome.com/license (Commercial License) Copyright 2023 Fonticons, Inc. --><path d="M373.8 408.7l85 85 17 17 33.9-33.9-17-17-63.4-63.4-55.5 12.3zM55 201.9L206.4 353.4l5.4-5.4 10.4-46.6L88.9 168 167 89.9l95.4 95.4 33.9-33.9L200.9 56l3.8-3.8 17-17L187.8 1.3l-17 17L17.2 171.8l-17 17 33.9 33.9 17-17 3.8-3.8zM450.2 1.3L416.3 35.2l17 17L586.8 205.8l17 17 33.9-33.9-17-17L467.2 18.2l-17-17zM414.4 78.6L278 215l-4.9 4.9-1.5 6.8L241.1 364l-95.9 95.9-17 17 33.9 33.9 17-17L275 397.9l137.2-30.5 6.8-1.5L424 361 560.4 224.6l-33.9-33.9L455 262.1 376.9 184l71.4-71.4L414.4 78.6zM343 217.9L421.1 296 395 322.1 294.6 344.4 316.9 244 343 217.9z"/></svg>