<svg xmlns="http://www.w3.org/2000/svg" viewBox="0 0 512 512"><!--! Font Awesome Pro 6.3.0 by @fontawesome - https://fontawesome.com License - https://fontawesome.com/license (Commercial License) Copyright 2023 Fonticons, Inc. --><path d="M339.2 18.2L492.8 171.8l17 17-33.9 33.9-17-17L305.2 52.2l-17-17L322.2 1.3l17 17zM150 215L286.4 78.6l33.9 33.9L248.9 184 327 262.1l71.4-71.4 33.9 33.9L296 361l-4.9 4.9-6.8 1.5L147 397.9 51.2 493.8l-17 17L.3 476.8l17-17L113.1 364l30.5-137.2 1.5-6.8L150 215zm143 81L215 217.9 188.9 244 166.6 344.4 267 322.1 293.1 296z"/></svg>