<svg xmlns="http://www.w3.org/2000/svg" viewBox="0 0 384 512"><!--! Font Awesome Pro 6.3.0 by @fontawesome - https://fontawesome.com License - https://fontawesome.com/license (Commercial License) Copyright 2023 Fonticons, Inc. --><path d="M48 256c0-97 79.3-176 177.6-176c45.6 0 87 17 118.5 44.9L375.9 89C336 53.5 283.3 32 225.6 32C101.2 32 0 132.1 0 256S101.2 480 225.6 480c57.7 0 110.4-21.5 150.3-57l-31.9-35.9C312.6 415 271.2 432 225.6 432c-5.9 0-11.8-.3-17.6-.9V320v-1.8c0-21.1 17.1-38.2 38.2-38.2c10.1 0 19.9 4 27 11.2L279 297 313 263l-5.8-5.8c-16.2-16.2-38.1-25.3-61-25.3c-13.7 0-26.7 3.2-38.2 8.9V224H160v94.2V320v99.6C94.3 393.7 48 330.1 48 256z"/></svg>