<svg xmlns="http://www.w3.org/2000/svg" viewBox="0 0 512 512"><!--! Font Awesome Pro 6.3.0 by @fontawesome - https://fontawesome.com License - https://fontawesome.com/license (Commercial License) Copyright 2023 Fonticons, Inc. --><path d="M240 24V0H195.2L220 37.3 240 24zM374.5 160l-23.4-5.2L344.6 184h29.9V160zM456 296v24h24V296H456zM24 296H0v24H24V296zm81.2-136v24h29.4l-5.8-28.8L105.2 160zM250.8 40.3l-20 13.3v0l20-13.3zM253.3 0H240V48h13.3V0zM400 146.7C400 65.7 334.3 0 253.3 0V48c54.5 0 98.7 44.2 98.7 98.7h48zm-2 18.5c1.3-6 2-12.2 2-18.5H352c0 2.8-.3 5.5-.9 8.1L398 165.2zM374.5 184H376V136h-1.5v48zm1.5 0c30.9 0 56 25.1 56 56h48c0-57.4-46.6-104-104-104v48zm56 56v56h48V240H432zm24 32H24v48H456V272zM48 296V240H0v56H48zm0-56c0-30.9 25.1-56 56-56V136C46.6 136 0 182.6 0 240H48zm56-56h1.2V136H104v48zM80 148c0 5.7 .6 11.3 1.7 16.8l47-9.5c-.5-2.3-.7-4.7-.7-7.2H80zm84-84c-46.4 0-84 37.6-84 84h48c0-19.9 16.1-36 36-36V64zm61.3 0H164v48h61.3V64zm6.7-6.7c0 3.7-3 6.7-6.7 6.7v48c30.2 0 54.7-24.5 54.7-54.7H232zm-1.1-3.7c.7 1.1 1.1 2.4 1.1 3.7h48c0-10.8-3.2-21.4-9.2-30.3L230.9 53.6zM220 37.3l10.8 16.3L270.8 27 260 10.7 220 37.3zM85.3 352L112 512h51.9l-20-160H85.3zm90.8 0l20 160h87.8l20-160H176.1zm160 0l-20 160H368l26.7-160H336.1z"/></svg>