<svg xmlns="http://www.w3.org/2000/svg" viewBox="0 0 576 512"><!--! Font Awesome Pro 6.3.0 by @fontawesome - https://fontawesome.com License - https://fontawesome.com/license (Commercial License) Copyright 2023 Fonticons, Inc. --><path d="M371 119l-17-17L320.1 136l17 17 64 64 17 17 17-17 64-64 17-17L482 102.1l-17 17-23 23L442 56l0-24-24 0L290 32l-80 0-24 0L2 32 2 224l288 0 0-144 104 0 0 62.1-23-23zm95 313L50 432l0-96 416 0 0 96zm48 48l0-48 0-96 0-48-48 0L50 288 2 288l0 48 0 96 0 48 48 0 416 0 48 0z"/></svg>