<svg xmlns="http://www.w3.org/2000/svg" viewBox="0 0 576 512"><!--! Font Awesome Pro 6.3.0 by @fontawesome - https://fontawesome.com License - https://fontawesome.com/license (Commercial License) Copyright 2023 Fonticons, Inc. --><path d="M371 119l-17-17L320.1 136l17 17 64 64 17 17 17-17 64-64 17-17L482 102.1l-17 17-23 23L442 56l0-24-24 0L290 32l-48 0-32 0L50 32 2 32 2 80l0 96 0 48 48 0 192 0 48 0 0-48 0-96 104 0 0 62.1-23-23zM514 288L2 288 2 480l512 0 0-192zM242 176L50 176l0-96 160 0 32 0 0 96z"/></svg>