<svg xmlns="http://www.w3.org/2000/svg" viewBox="0 0 448 512"><!--! Font Awesome Pro 6.3.0 by @fontawesome - https://fontawesome.com License - https://fontawesome.com/license (Commercial License) Copyright 2023 Fonticons, Inc. --><path d="M200 498.3L224 512l24-13.7L434.2 391.9 448 384V358.4 348 157.5 128l-22.9-13.1L251.7 15.8 237.9 7.9 224 0 210.1 7.9l-13.8 7.9L22.9 114.9 0 128v29.5V348v10.4V384l13.8 7.9L200 498.3zm-74.4-97.8l74.4 5.7V443l-74.4-42.5zM248 406.2l74.4-5.7L248 443V406.2zM400 268l-32-53.4 32-22.9V268zm-56.5-94.8L300.1 98.7l82 46.9-38.6 27.6zM147.9 98.7l-43.4 74.4L65.9 145.6l82-46.9zM80 214.7L48 268V191.8l32 22.9zM56.6 347l56-93.4L178 356.4 56.6 347zM270 356.4l65.4-102.7 56 93.4L270 356.4zm-46-17.1L155.7 232H292.3L224 339.3zM153.8 184L224 63.6 294.2 184H153.8z"/></svg>