<svg xmlns="http://www.w3.org/2000/svg" viewBox="0 0 384 512"><!--! Font Awesome Pro 6.3.0 by @fontawesome - https://fontawesome.com License - https://fontawesome.com/license (Commercial License) Copyright 2023 Fonticons, Inc. --><path d="M384 24V0H336V24c0 2.7-.1 5.4-.2 8H48.2c-.2-2.6-.2-5.3-.2-8V0H0V24C0 79.6 24.5 125.9 58.1 165.9c27.2 32.4 61.5 62 95.8 90.1c-34.3 28.1-68.6 57.7-95.8 90.1C24.5 386.1 0 432.4 0 488v24H48V488c0-2.7 .1-5.4 .2-8H335.8c.2 2.6 .2 5.3 .2 8v24h48V488c0-55.6-24.5-101.9-58.1-141.9c-20.6-24.5-45.2-47.3-70.8-69.2c-8.7 7.1-17.3 14.1-25.7 20.9l0 0-2.2 1.8c-3.4 2.7-6.7 5.5-10.1 8.1c11.2 9.4 22.1 18.8 32.3 28.3h-115c22-20.4 46.7-40.4 72.2-61c.3-.2 .5-.4 .8-.6l.7-.6c41.3-33.4 84.7-68.6 117.7-107.9C359.5 125.9 384 79.6 384 24zM89.1 384H294.9c12.4 15.7 22.4 31.6 29.4 48H59.7c7-16.4 17-32.3 29.4-48zM59.7 80H324.3c-7 16.4-17 32.3-29.4 48H89.1C76.7 112.3 66.8 96.4 59.7 80zm189.8 96c-17.8 16.4-37.2 32.6-57.5 49.1c-20.3-16.5-39.7-32.7-57.5-49.1h115z"/></svg>