<svg xmlns="http://www.w3.org/2000/svg" viewBox="0 0 640 512"><!--! Font Awesome Pro 6.3.0 by @fontawesome - https://fontawesome.com License - https://fontawesome.com/license (Commercial License) Copyright 2023 Fonticons, Inc. --><path d="M31 0H7V48H31h86.6l93.7 287.1C184.7 352.1 167 382 167 416c0 53 43 96 96 96s96-43 96-96c0-2.8-.1-5.5-.3-8.2L567 334.6l22.6-8-15.9-45.3-22.6 8L342.8 362.5C325.5 336.9 296.2 320 263 320c-2 0-4 .1-6 .2L157.8 16.6C154.6 6.7 145.4 0 135 0H31zM263 368a48 48 0 1 1 0 96 48 48 0 1 1 0-96zM453.5 87.7l-8.2-22.2L423 73.4 231.9 140.5l14.9 45.6 57.5-20.2 24.1 66.3 8.2 22.6 45.1-16.4-8.2-22.6L349.6 150l67-23.5 57.3 156 45.3-15.9L453.5 87.7z"/></svg>