<svg xmlns="http://www.w3.org/2000/svg" viewBox="0 0 576 512"><!--! Font Awesome Pro 6.3.0 by @fontawesome - https://fontawesome.com License - https://fontawesome.com/license (Commercial License) Copyright 2023 Fonticons, Inc. --><path d="M511.2 76.1l20.1-13.2L504.9 22.8 484.8 35.9 380.2 104.5C345.8 98.7 307 96 266 96C124.6 96 10 128 10 208V368c0 24.9 14.9 44.5 33.2 58.7c18.5 14.3 43.6 25.5 72 33.9C157.4 473 209.8 480 266 480s108.6-7 150.8-19.5c28.4-8.4 53.5-19.6 72-33.9C507.1 412.5 522 392.9 522 368V208c0-41.1-30.2-69.5-78.8-87.4l67.9-44.5zM317.4 145.6l-64.6 42.3-20.1 13.2 26.3 40.2 20.1-13.2 111.1-72.8c14.7 3.2 27.9 7 39.4 11.5C468.4 181.8 474 197.4 474 208c0 .8-2.7 17.2-46 35.9C389.1 260.7 332 272 266 272s-123.1-11.3-162-28.1C60.7 225.2 58 208.8 58 208c0-10.6 5.6-26.2 44.4-41.3C140.6 151.9 197.8 144 266 144c18 0 35.1 .5 51.4 1.6zM434 293.2c15-5.6 28.4-12 40-19V368c0 4.1-2.3 11.2-14.5 20.7c-6.5 5-15 10-25.5 14.6V293.2zM290 319.5c34.4-1.3 66.9-5.6 96-12.2V419.1c-27.9 6.7-60.5 11.1-96 12.5v-112zM146 307.4c29.1 6.6 61.6 10.8 96 12.2v112c-35.5-1.4-68.1-5.8-96-12.5V307.4zM58 274.2c11.6 7 25 13.4 40 19V403.3c-10.4-4.7-18.9-9.6-25.5-14.6C60.3 379.2 58 372.1 58 368V274.2z"/></svg>