<svg xmlns="http://www.w3.org/2000/svg" viewBox="0 0 512 512"><!--! Font Awesome Pro 6.3.0 by @fontawesome - https://fontawesome.com License - https://fontawesome.com/license (Commercial License) Copyright 2023 Fonticons, Inc. --><path d="M483 57l-48 48-17 17L384.1 88l17-17 48-48 17-17L499.9 40 483 57zM179 361L51 489l-17 17L.1 472l17-17L145 327l17-17L195.9 344l-17 17zm55-249c-70.7 0-128 57.3-128 128v24H58V240c0-97.2 78.8-176 176-176s176 78.8 176 176c0 50.8-21.6 96.6-56 128.7V376c0 75.1-60.9 136-136 136H194V464h24c48.6 0 88-39.4 88-88V357.9 346.5l8.8-7.2C343.7 315.7 362 280 362 240c0-70.7-57.3-128-128-128zm0 88c-22.1 0-40 17.9-40 40v24H146V240c0-48.6 39.4-88 88-88s88 39.4 88 88v24H274V240c0-22.1-17.9-40-40-40z"/></svg>