<svg xmlns="http://www.w3.org/2000/svg" viewBox="0 0 512 512"><!--! Font Awesome Pro 6.3.0 by @fontawesome - https://fontawesome.com License - https://fontawesome.com/license (Commercial License) Copyright 2023 Fonticons, Inc. --><path d="M423.5 115.5L498 41 464 7 389.5 81.5C351.1 50.6 302.2 32 249 32C125.3 32 25 132.3 25 256c0 53.2 18.6 102.1 49.5 140.5L0 471 34 505l74.5-74.5c38.4 31 87.3 49.5 140.5 49.5c123.7 0 224-100.3 224-224c0-53.2-18.6-102.1-49.5-140.5zm-68.1 .2L108.7 362.3C86.3 332.8 73 295.9 73 256c0-97.2 78.8-176 176-176c39.9 0 76.8 13.3 106.3 35.7zM142.7 396.3L389.3 149.7C411.7 179.2 425 216.1 425 256c0 97.2-78.8 176-176 176c-39.9 0-76.8-13.3-106.3-35.7z"/></svg>