<svg xmlns="http://www.w3.org/2000/svg" viewBox="0 0 576 512"><!--! Font Awesome Pro 6.3.0 by @fontawesome - https://fontawesome.com License - https://fontawesome.com/license (Commercial License) Copyright 2023 Fonticons, Inc. --><path d="M484.5 299.4c3-14 4.5-28.5 4.5-43.4c0-114.9-93.1-208-208-208S73 141.1 73 256c0 14.9 1.6 29.4 4.5 43.4L63.9 288 43.3 306 32 315.9c-4.6-19.2-7-39.3-7-59.9C25 114.6 139.6 0 281 0S537 114.6 537 256c0 20.6-2.4 40.6-7 59.8L518.7 306l-20.6-18-13.7 11.4zM394 430.7c-6.9 20.3-11.7 41.1-14.8 61.8C349 505.1 315.8 512 281 512c-34.8 0-67.9-6.9-98.1-19.5c-3.1-20.7-7.9-41.5-14.8-61.8C200.6 451.8 239.4 464 281 464c41.7 0 80.5-12.2 113-33.3zM144.3 282.7c-27.3-14.9-31.1-56.9-8.7-93.7s62.8-54.7 90.1-39.8s31.1 56.9 8.7 93.7s-62.8 54.7-90.1 39.8zm273.4 0c-27.3 14.9-67.6-2.9-90.1-39.8s-18.6-78.8 8.7-93.7s67.6 2.9 90.1 39.8s18.6 78.8-8.7 93.7zM281 304c26.5 0 48 21.5 48 48v32c0 26.5-21.5 48-48 48s-48-21.5-48-48V352c0-26.5 21.5-48 48-48zM153 512L43.3 512c.4-50.5-16.7-85.7-43.2-125.7l64.3-56.2C118.2 375 146 443.6 153 512zm365.7 0L409 512c7-68.5 34.8-137 88.6-181.9l64.3 56.2c-26.4 40-43.6 75.3-43.2 125.7z"/></svg>