<svg xmlns="http://www.w3.org/2000/svg" viewBox="0 0 576 512"><!--! Font Awesome Pro 6.3.0 by @fontawesome - https://fontawesome.com License - https://fontawesome.com/license (Commercial License) Copyright 2023 Fonticons, Inc. --><path d="M388.6 163.6C337.5 75.1 224.4 44.8 136 95.9S17.3 260 68.3 348.4c22.2 38.5 56.2 65.9 94.7 80.5c-3.7-9.5-5.7-19.9-5.7-30.7V387.1c-14.2-9.3-26.9-21.3-37.2-35.7L365.2 209.9c26.2 57.9 10.4 125.9-37.2 166.6v21.8c0 4.9-.4 9.7-1.2 14.3c83.8-52.6 111.7-162.6 61.8-249zM342.2 453.1c-24.8 14.3-51.1 23.4-77.8 27.7c-7 1.8-14.2 2.8-21.8 2.8c-1.7 0-3.3 0-5-.1c-81.8 3.3-162.6-37.8-206.3-113.6c-62.8-108.8-25.5-248 83.3-310.8s248-25.5 310.8 83.3s25.5 248-83.3 310.8zM264.3 170.7c-9.9 0-18.2-6.7-20.6-15.8c-.7 2.8-1.1 5.7-1.1 8.7c0 19.6 15.9 35.6 35.6 35.6s35.6-15.9 35.6-35.6s-15.9-35.6-35.6-35.6c-2.7 0-5.3 .3-7.8 .9c8.8 2.6 15.3 10.8 15.3 20.5c0 11.8-9.6 21.3-21.3 21.3zm13.9-71.1a64 64 0 1 1 0 128 64 64 0 1 1 0-128zm-120.9 128a28.4 28.4 0 1 0 -56.9 0 28.4 28.4 0 1 0 56.9 0zm-85.3 0a56.9 56.9 0 1 1 113.8 0A56.9 56.9 0 1 1 72 227.6zm42.7 0a14.2 14.2 0 1 1 28.4 0 14.2 14.2 0 1 1 -28.4 0zm128 227.6c31.4 0 56.9-25.5 56.9-56.9V355.6H256.9v21.3H228.4V355.6H185.8v42.7c0 31.4 25.5 56.9 56.9 56.9z"/></svg>