<svg xmlns="http://www.w3.org/2000/svg" viewBox="0 0 640 512"><!--! Font Awesome Pro 6.3.0 by @fontawesome - https://fontawesome.com License - https://fontawesome.com/license (Commercial License) Copyright 2023 Fonticons, Inc. --><path d="M296 464c58.5 0 111.4-24.2 149.2-63.1h51.6c3.5 0 7.1-.1 10.6-.4C461.3 467.8 383.8 512 296 512C190.1 512 99.2 447.7 60.3 356c11.3 3.2 23 4.9 34.9 4.9h21.2C152.4 422.6 219.4 464 296 464zm128-95.1v-32h32V328l-72 0 0-17.5 0-14.5h32 2.6H456v-8H428.4 424h-8H384l0-10.3 0 0V256h30 2 13.4l6 0h7.1l7.4 0 17.4 0V243.8l-12.1-8.7-4.9-3.5L439.7 224l-17-12.1-32-22.8 8.3-11.6L409.3 163l37.2 25.6 2.9 2 52.5 36.1 7.9 5.4 11.6 8V220.4l-8.2-8.2-19-19 0 0-3.6-3.6 1.8-1.8 3.8-3.8 0 0 17-17 5.7-5.7 22.6 22.6 .1 .1 22.4 22.4 .8 .8c36.4 37.2 36.1 96.9-.8 133.8c-10.2 10.2-22.4 17.8-35.7 22.5c-9.4 3.3-19.4 5.2-29.6 5.4c-.7 0-1.4 0-2 0H488 470.7 424zM383.3 144.4L366.4 168c-30.2 .9-54.4 25.6-54.4 56c0 25.4 16.9 46.8 40 53.7V296v14.5c-41-7.5-72-43.4-72-86.5c0-48.6 39.4-88 88-88c6.8 0 13.3 .8 19.7 2.2l-4.4 6.2zM296 48c-60.3 0-114.5 25.6-152.5 66.6l-3.6-3.6L111.6 82.7l-2.1-2.1C156.2 31 222.5 0 296 0c92 0 172.6 48.5 217.7 121.3l-17.4 17.4-17.7 17.7C443.4 91.8 374.8 48 296 48zM47 315.8c-6.9-4.1-13.4-9-19.1-14.8C-9 264.1-9.3 204.4 27.1 167.2l.8-.8L89 105.3l0 0 5.6 5.6 17 17 5.7 5.7L106.8 144 94.6 156.2l-6.1 6.1L74.8 176H94.2h9.8H216v32H136v8h80v32l-80 0v8h80l.3 32H136v8.9h32v32l-66.9 0-5.9 0c-17.1 0-33.7-4.6-48.2-13.1zM360 400c0 26.5-28.7 48-64 48s-64-21.5-64-48s28.7-48 64-48s64 21.5 64 48zm32.4-176c0 6.1-2.3 11.8-6.1 16H350.5c-3.8-4.2-6.1-9.9-6.1-16c0-13.3 10.7-24 24-24s24 10.7 24 24z"/></svg>