<svg xmlns="http://www.w3.org/2000/svg" viewBox="0 0 576 512"><!--! Font Awesome Pro 6.3.0 by @fontawesome - https://fontawesome.com License - https://fontawesome.com/license (Commercial License) Copyright 2023 Fonticons, Inc. --><path d="M274 48C159.1 48 66 141.1 66 256s93.1 208 208 208c65.9 0 124.7-30.7 162.8-78.5c1.5-1.3 3-2.6 4.4-4L526 301.1C504.8 421 400 512 274 512C132.6 512 18 397.4 18 256S132.6 0 274 0c97 0 181.4 54 224.8 133.5c-16.5-.3-33.1 4.4-47.3 14.1C415 87.8 349.1 48 274 48zM532.8 180.1c19.8 19.8 19.4 52.1-.9 71.4L411.1 366.6c1 1.4 2 2.7 2.9 4.1l-24 16-1 .9-.2-.2L374 397.3C362 379.2 326.1 352 282 352s-80 27.2-92 45.3L150 370.7c19.9-29.9 70-66.7 132-66.7c15.6 0 30.5 2.3 44.4 6.3L463 179.4c19.6-18.8 50.6-18.4 69.8 .7zM388.9 343.5l26.5-25.2-5.8-5.8L401 304l17-17 8.5 8.5 6.3 6.3 15.4-14.7-6.6-6.6L433 272l17-17 8.5 8.5 7 7 15.4-14.7-7.4-7.4L465 240l17-17 8.5 8.5 7.8 7.8 11.5-11c7.3-6.9 7.4-18.5 .3-25.6c-6.9-6.9-18-7-25-.3l-126.2 121c11.3 5.9 21.3 12.8 30 20.1zM194.4 176a32 32 0 1 1 0 64 32 32 0 1 1 0-64zm128 32a32 32 0 1 1 64 0 32 32 0 1 1 -64 0z"/></svg>