<svg xmlns="http://www.w3.org/2000/svg" viewBox="0 0 640 512"><!--! Font Awesome Pro 6.3.0 by @fontawesome - https://fontawesome.com License - https://fontawesome.com/license (Commercial License) Copyright 2023 Fonticons, Inc. --><path d="M528.4 250.7l-1.4 1.4C524.9 139.1 432.6 48 319 48s-205.9 91.1-208 204.2l-1.4-1.4L87 228.1 64.4 250.7 63 252.1C65.1 112.5 178.9 0 319 0S572.9 112.5 575 252.1l-1.3-1.3L551 228.1l-22.6 22.6zM255 334.4v-1.9c16.8 10.8 39.1 19.5 64 19.5s47.2-8.7 64-19.5v1.9 52.3c-19 8.1-40.7 13.3-64 13.3s-45-5.2-64-13.3V334.4zM227.9 495.3c9.9-12.6 17.5-27.2 22.1-43c21.6 7.6 44.8 11.7 69 11.7s47.4-4.1 69-11.7c4.6 15.8 12.2 30.4 22.1 43c-28.3 10.8-59 16.7-91.1 16.7s-62.8-5.9-91.1-16.7zM239 152c28 0 56 40 56 80c0 0-28-32-56-32s-56 32-56 32c0-40 28-80 56-80zm104 80c0-40 28-80 56-80s56 40 56 80c0 0-28-32-56-32s-56 32-56 32zM75.7 307.3L64.4 296 87 273.4l11.3 11.3L183 369.4v-15-20h40v20V384v20 12.8c0 52.6-42.6 95.2-95.2 95.2c-25.2 0-49.5-10-67.3-27.9L11.7 435.3 .4 424 23 401.4l11.3 11.3 24 24 9.4-9.4-56-56L.4 360 23 337.4l11.3 11.3 56 56 9.4-9.4-72-72L16.4 312 39 289.4l11.3 11.3 72 72 9.4-9.4-56-56zm486.6 0l-56 56 9.4 9.4 72-72L599 289.4 621.6 312l-11.3 11.3-72 72 9.4 9.4 56-56L615 337.4 637.6 360l-11.3 11.3-56 56 9.4 9.4 24-24L615 401.4 637.6 424l-11.3 11.3-48.8 48.8C559.7 502 535.4 512 510.2 512c-52.6 0-95.2-42.6-95.2-95.2V404 384 354.4v-20h40v20 15l84.7-84.7L551 273.4 573.6 296l-11.3 11.3z"/></svg>