<svg xmlns="http://www.w3.org/2000/svg" viewBox="0 0 512 512"><!--! Font Awesome Pro 6.3.0 by @fontawesome - https://fontawesome.com License - https://fontawesome.com/license (Commercial License) Copyright 2023 Fonticons, Inc. --><path d="M168 0L112.6 110.8C76.1 99.7 43.7 83.7 17.3 64L0 81.3C27.2 163.5 120.8 224 232 224s204.8-60.5 232-142.7L446.7 64c-26.4 19.7-58.8 35.7-95.3 46.8L296 0 232 32 168 0zM51.8 200C34.1 230.6 24 266.1 24 304c0 114.9 93.1 208 208 208s208-93.1 208-208c0-37.9-10.1-73.4-27.8-104c-12.8 9.3-26.6 17.5-41.2 24.6c13.4 23.4 21 50.5 21 79.3c0 88.4-71.6 160-160 160s-160-71.6-160-160c0-28.9 7.6-55.9 21-79.3c-14.6-7.1-28.4-15.4-41.2-24.6zM352.4 339.1c-34.6 13.8-75.9 21.7-120.2 21.7s-85.6-8-120.2-21.7c12.2 55.4 61.4 96.9 120.2 96.9s108-41.5 120.2-96.9zM168 304a24 24 0 1 0 0-48 24 24 0 1 0 0 48zm152-24a24 24 0 1 0 -48 0 24 24 0 1 0 48 0z"/></svg>