<svg xmlns="http://www.w3.org/2000/svg" viewBox="0 0 512 512"><!--! Font Awesome Pro 6.3.0 by @fontawesome - https://fontawesome.com License - https://fontawesome.com/license (Commercial License) Copyright 2023 Fonticons, Inc. --><path d="M40 64a64 64 0 1 1 128 0A64 64 0 1 1 40 64zM54 208l-4 96H88h32v48H88V488v24H40V488 352H0l2-48L8 160H153.6c-1 5.2-1.6 10.5-1.6 16c0 11.4 2.4 22.2 6.7 32H154 104 54zm258-32c0-5.5-.6-10.8-1.6-16H456l6 144 2 48H424V488v24H376V488 352H344V304h32 38l-4-96H360 310h-4.7c4.3-9.8 6.7-20.6 6.7-32zM296 64a64 64 0 1 1 128 0A64 64 0 1 1 296 64zm-64 64a48 48 0 1 1 0 96 48 48 0 1 1 0-96zM200 368h64V304H200v64zm112 48H280v96H184V416H152V368 304 256h48 64 48v48 64 48z"/></svg>