<svg xmlns="http://www.w3.org/2000/svg" viewBox="0 0 576 512"><!--! Font Awesome Pro 6.3.0 by @fontawesome - https://fontawesome.com License - https://fontawesome.com/license (Commercial License) Copyright 2023 Fonticons, Inc. --><path d="M422 7.1l19.9 13.5 66.2 44.9L528 79 514.5 98.8 492 131.9 278.3 447c-27.4 40.4-72.9 64.6-121.7 64.7C74.5 512 8 445.2 8.6 363.1l0-2.6c.2-28.8 8.7-56.9 24.4-81L50.4 253l21.9-33.5 13.1-20.1 20.1 13.1 67 43.8 20.1 13.1-13.1 20.1L157.6 323l-17.3 26.5c-2.3 3.5-3.6 7.7-3.6 11.9l0 2.6c-.1 10.9 8.7 19.7 19.6 19.7c6.5 0 12.5-3.2 16.1-8.6L386.1 60.1 408.6 27 422 7.1zm-11.2 159l-25.6-19.2L212.1 402.1c-12.5 18.5-33.4 29.6-55.7 29.6c-37.6 .1-68-30.5-67.8-68.1l0-2.6c.1-13.4 4.1-26.6 11.4-37.8l17.3-26.5 8.8-13.4L99.4 265.9l-8.8 13.4L73.3 305.8c-10.7 16.4-16.5 35.5-16.6 55.1l0 2.6c-.4 55.4 44.5 100.5 99.9 100.3c32.9-.1 63.6-16.4 82.1-43.7L410.8 166.1zM440 464a32 32 0 1 0 0-64 32 32 0 1 0 0 64zm0-112a80 80 0 1 1 0 160 80 80 0 1 1 0-160z"/></svg>