<svg xmlns="http://www.w3.org/2000/svg" viewBox="0 0 576 512"><!--! Font Awesome Pro 6.3.0 by @fontawesome - https://fontawesome.com License - https://fontawesome.com/license (Commercial License) Copyright 2023 Fonticons, Inc. --><path d="M230 464H470V160H358V48H182v70.2l-1.9-2.4L157.6 125 134 134.7V48 0h48H390L518 128V464v48H470 230v0V464zM98.3 154.6l5.6 2.3L134 169.3 164.1 157l5.6-2.3 3.7 4.8 19.9 25.7 32.2 4.4 6 .8 .8 6 4.4 32.2 25.7 19.9 4.8 3.7-2.3 5.6L252.7 288 265 318.1l2.3 5.6-4.8 3.7-25.7 19.9-4.4 32.2-.8 6-6 .8L198 390.2V512l-64-40L70 512V390.2l-27.6-3.8-6-.8-.8-6-4.4-32.2L5.5 327.4 .7 323.7 3 318.1 15.3 288 3 257.9 .7 252.3l4.8-3.7 25.7-19.9 4.4-32.2 .8-6 6-.8 32.2-4.4 19.9-25.7 3.7-4.8zM198 288A64 64 0 1 0 70 288a64 64 0 1 0 128 0z"/></svg>