<svg xmlns="http://www.w3.org/2000/svg" viewBox="0 0 384 512"><!--! Font Awesome Pro 6.3.0 by @fontawesome - https://fontawesome.com License - https://fontawesome.com/license (Commercial License) Copyright 2023 Fonticons, Inc. --><path d="M336 464H48V416H0v48 48H48 336h48V464 416H336v48zm0-304v32h48V128L256 0H48 0V48 192H48V48H224V160H336zM80 224c-22.1 0-40 17.9-40 40v80c0 22.1 17.9 40 40 40H96c22.1 0 40-17.9 40-40v-8V320H104v16 8c0 4.4-3.6 8-8 8H80c-4.4 0-8-3.6-8-8V264c0-4.4 3.6-8 8-8H96c4.4 0 8 3.6 8 8v8 16h32V272v-8c0-22.1-17.9-40-40-40H80zm118.4 0c-25.6 0-46.4 20.8-46.4 46.4c0 16.6 8.9 32 23.4 40.3l25.4 14.5c4.5 2.6 7.2 7.3 7.2 12.5c0 7.9-6.4 14.4-14.4 14.4H168 152v32h16 25.6c25.6 0 46.4-20.8 46.4-46.4c0-16.6-8.9-32-23.4-40.3l-25.4-14.5c-4.5-2.6-7.2-7.3-7.2-12.5c0-7.9 6.4-14.4 14.4-14.4H208h16V224H208h-9.6zm41.2 0l.8 3.5 32 144 2.8 12.5H288h16 12.8l2.8-12.5 32-144 .8-3.5H319.6L296 330.2 272.4 224H239.6z"/></svg>