<svg xmlns="http://www.w3.org/2000/svg" viewBox="0 0 576 512"><!--! Font Awesome Pro 6.3.0 by @fontawesome - https://fontawesome.com License - https://fontawesome.com/license (Commercial License) Copyright 2023 Fonticons, Inc. --><path d="M16 272l33.9 33.9L222.1 478.1 256 512l33.9-33.9L494.1 273.9 528 240l-33.9-33.9L321.9 33.9 288 0 254.1 33.9 177 111 89 23 72 6.1 38.1 40 55 57l88 88L49.9 238.1 16 272zm161-93.1L207 209l17 17L257.9 192l-17-17L210.9 145 288 67.9 460.1 240l-48 48H99.9l-16-16L177 178.9zM512 320l-55.7 97.4c-5.5 9.6-8.3 20.4-8.3 31.4c0 34.9 28.3 63.2 63.2 63.2h1.6c34.9 0 63.2-28.3 63.2-63.2c0-11-2.9-21.8-8.3-31.4L512 320z"/></svg>