<svg xmlns="http://www.w3.org/2000/svg" viewBox="0 0 640 512"><!--! Font Awesome Pro 6.3.0 by @fontawesome - https://fontawesome.com License - https://fontawesome.com/license (Commercial License) Copyright 2023 Fonticons, Inc. --><path d="M557.2 45.2V75.3H45.2V45.2h512zM45.2 0H0V45.2 75.3v45.2H30.1V459.3v22.6H52.7 128h22.6V459.3 346.4c0-83.2 67.4-150.6 150.6-150.6s150.6 67.4 150.6 150.6V459.3v22.6h22.6 75.3 22.6V459.3 120.5h30.1V75.3 45.2 0H557.2 45.2zM527.1 120.5V436.7H496.9V346.4c0-108.1-87.6-195.8-195.8-195.8s-195.8 87.6-195.8 195.8v90.4H75.3V120.5H527.1zM279.2 241s-87.6 70.9-87.6 131.4s49 109.5 109.5 109.5s109.5-49 109.5-109.5c0-50.4-65.7-109.5-65.7-109.5s-9.5 8.5-21.3 21.9c-22.1-25.7-44.5-43.8-44.5-43.8zm22.6 197c-30.8 0-55.4-19.9-55.4-53.4c0-16.4 10.3-30.8 30.8-56.1c2.7 3.4 42.4 54.1 42.4 54.1l24.6-28.7c2.1 2.7 3.4 5.5 4.8 8.2c12.3 22.6 6.8 51.3-13.7 65.7c-10.3 6.8-21.2 10.3-33.5 10.3z"/></svg>