<svg xmlns="http://www.w3.org/2000/svg" viewBox="0 0 384 512"><!--! Font Awesome Pro 6.3.0 by @fontawesome - https://fontawesome.com License - https://fontawesome.com/license (Commercial License) Copyright 2023 Fonticons, Inc. --><path d="M208 32V0H144V32v4C99 47.6 63.6 83 52 128H40 16v48H40 312h24V128H312 300c-11.6-45-47-80.4-92-92V32zM176 376a56 56 0 1 0 0-112 56 56 0 1 0 0 112zM40 464H16v48H40 72 280h32 24V464H312h-8V384h48V256H304V232 208H256v24V464H96V232 208H48v24 24H0V384H48v80H40z"/></svg>