<svg xmlns="http://www.w3.org/2000/svg" viewBox="0 0 448 512"><!--! Font Awesome Pro 6.3.0 by @fontawesome - https://fontawesome.com License - https://fontawesome.com/license (Commercial License) Copyright 2023 Fonticons, Inc. --><path d="M160 196.5V167.4 48h96V167.4v29.1L281.8 210c51.3 26.7 86.2 80.3 86.2 142c0 43.6-17.4 83.1-45.7 112H93.7C65.4 435.1 48 395.6 48 352c0-61.7 34.9-115.3 86.2-142L160 196.5zm144-29.1V48h8 24V0H312h-8H256 160 112h-8H80V48h24 8V167.4C45.4 202.1 0 271.8 0 352c0 64.3 29.2 121.8 75.1 160H340.9c45.9-38.2 75.1-95.7 75.1-160c0-80.2-45.4-149.9-112-184.6zM296 328c0-39.8-39.4-72-88-72s-88 32.2-88 72c0 22.4 12.5 42.3 32 55.5V416H264V383.5c19.5-13.2 32-33.2 32-55.5zM176 312a16 16 0 1 1 0 32 16 16 0 1 1 0-32zm48 16a16 16 0 1 1 32 0 16 16 0 1 1 -32 0z"/></svg>