<svg xmlns="http://www.w3.org/2000/svg" viewBox="0 0 576 512"><!--! Font Awesome Pro 6.3.0 by @fontawesome - https://fontawesome.com License - https://fontawesome.com/license (Commercial License) Copyright 2023 Fonticons, Inc. --><path d="M333.6 53.2L242.9 3.4 172.1 78.8 70.6 98.9 64.8 202.2 0 282.9 62 365.7l.5 25.5L120.8 333C107.1 313.5 99 289.7 99 264c0-66.3 53.7-120 120-120c25.7 0 49.5 8.1 69 21.8L409.5 44.2l-75.9 9zM219 176c-48.6 0-88 39.4-88 88c0 16.8 4.7 32.5 12.9 45.9l121-121C251.5 180.7 235.8 176 219 176zm228.7-56.8c55.6 86.7 45.5 203.4-30.3 279.2s-192.5 85.9-279.2 30.3L447.7 119.2zM66.7 432.3c11.6 11.6 23.9 21.9 36.9 31c106.1 74 253.1 63.7 347.7-31s105-241.7 31-347.7c-9.1-13-19.4-25.3-31-36.9L417.4 81.6 100.6 398.4 66.7 432.3zM283 400a24 24 0 1 0 -48 0 24 24 0 1 0 48 0zm72-8a24 24 0 1 0 0-48 24 24 0 1 0 0 48z"/></svg>