<svg xmlns="http://www.w3.org/2000/svg" viewBox="0 0 512 512"><!--! Font Awesome Pro 6.3.0 by @fontawesome - https://fontawesome.com License - https://fontawesome.com/license (Commercial License) Copyright 2023 Fonticons, Inc. --><path d="M52 153.6C-8.2 251.8-7.1 378.3 10.4 463.1l4.4 21.5 21.6 3.6c103.9 17.4 187 11 252.6-13.3c66-24.5 112.2-66.5 142.9-116.5c60.2-98.2 59.1-224.7 41.6-309.5l-4.4-21.5-21.6-3.6c-103.9-17.4-187-11-252.6 13.3C128.9 61.6 82.7 103.6 52 153.6zM428.6 69.4c4.9 27.5 7.8 58.5 7.3 90.6l-98-98c27.6 .1 57.8 2.4 90.7 7.4zm-217 12.7c18.8-7 39.6-12.3 62.8-15.8L430.5 222.4c-6.4 38.9-18.8 77.2-39.5 110.9c-25.4 41.4-63.3 76-118.6 96.5c-18.8 7-39.6 12.3-62.8 15.8L53.5 289.6c6.4-38.9 18.8-77.2 39.5-110.9c25.4-41.4 63.3-76 118.6-96.5zM48.1 352l98 98c-27.6-.1-57.8-2.4-90.7-7.4c-4.9-27.5-7.8-58.5-7.3-90.6zM283 151l-17-17L232.1 168l17 17 64 64 17 17L363.9 232l-17-17-64-64zm-56 56l-17-17L176.1 224l17 17 64 64 17 17L307.9 288l-17-17-64-64zm-56 56l-17-17L120.1 280l17 17 64 64 17 17L251.9 344l-17-17-64-64z"/></svg>