<svg xmlns="http://www.w3.org/2000/svg" viewBox="0 0 576 512"><!--! Font Awesome Pro 6.3.0 by @fontawesome - https://fontawesome.com License - https://fontawesome.com/license (Commercial License) Copyright 2023 Fonticons, Inc. --><path d="M48 80V432H400V80H48zM0 32H48 400h48V80 272h32V200 168 144h24 48 24v24 32 24H552 528v72 24H504 448V432v48H400 48 0V432 80 32zm352 96V256H96V128H352zM160 288v16 16h16 16v32H176 160v16 16H128V368 352H112 96V320h16 16V304 288h32zm104 16a24 24 0 1 1 0 48 24 24 0 1 1 0-48zm40 24a24 24 0 1 1 48 0 24 24 0 1 1 -48 0z"/></svg>