<svg xmlns="http://www.w3.org/2000/svg" viewBox="0 0 640 512"><!--! Font Awesome Pro 6.3.0 by @fontawesome - https://fontawesome.com License - https://fontawesome.com/license (Commercial License) Copyright 2023 Fonticons, Inc. --><path d="M122.2 12h15 51.5 15L208 26.4l8.3 28.8c8.7 3.9 17 8.6 24.6 14.2L270 62.3l14.6-3.6 7.5 13 25.8 44.6 7.5 13L315 140.2l-20.8 21.6c.5 4.7 .8 9.4 .8 14.2s-.3 9.5-.8 14.2L315 211.8l10.4 10.8-7.5 13-25.8 44.6-7.5 13L270 289.7l-29.1-7.2c-7.6 5.6-15.9 10.4-24.6 14.2L208 325.6 203.8 340h-15H137.2h-15L118 325.6l-8.4-28.8c-8.7-3.9-17-8.6-24.6-14.2l-29.1 7.2-14.6 3.6-7.5-13L8.1 235.7l-7.5-13L11 211.8l20.8-21.6c-.5-4.7-.8-9.4-.8-14.2s.3-9.5 .8-14.2L11 140.2 .6 129.3l7.5-13L33.8 71.7l7.5-13 14.6 3.6 29.1 7.2c7.6-5.6 15.8-10.4 24.6-14.2L118 26.4 122.2 12zm30 40l-6.9 23.8-2.9 9.9-9.8 3.4c-11 3.8-21.1 9.7-29.8 17.2l-7.8 6.8-10-2.5L61 104.7 50.2 123.3l17.2 17.9 7.1 7.4-1.9 10.1C71.6 164.3 71 170.1 71 176s.6 11.7 1.6 17.3l1.9 10.1-7.1 7.4L50.2 228.7 61 247.3 85 241.4l10-2.5 7.8 6.8c8.7 7.5 18.8 13.4 29.8 17.3l9.8 3.4 2.9 9.9 6.9 23.8h21.5l6.9-23.8 2.9-9.9 9.8-3.4c11-3.8 21.1-9.7 29.8-17.3l7.8-6.8 10 2.5 24.1 5.9 10.7-18.6-17.1-17.9-7.1-7.4 1.9-10.1c1.1-5.6 1.6-11.3 1.6-17.3s-.6-11.7-1.6-17.3l-1.9-10.1 7.1-7.4 17.1-17.9L265 104.7l-24.1 5.9-10 2.5-7.8-6.8c-8.7-7.5-18.8-13.4-29.8-17.3l-9.8-3.4-2.9-9.9L173.7 52H152.3zM123 176a40 40 0 1 1 80 0 40 40 0 1 1 -80 0zM623 303.2v15 51.5 15L608.6 389l-28.8 8.3c-3.9 8.7-8.6 17-14.2 24.6l7.2 29.1 3.6 14.6-13 7.5-44.6 25.8-13 7.5L494.8 496l-21.6-20.8c-4.7 .5-9.4 .8-14.2 .8s-9.5-.3-14.2-.8L423.2 496l-10.8 10.4-13-7.5-44.6-25.8-13-7.5 3.6-14.6 7.2-29.1c-5.6-7.6-10.4-15.9-14.2-24.6L309.4 389 295 384.8v-15V318.2v-15l14.4-4.2 28.8-8.4c3.9-8.7 8.6-17 14.2-24.6l-7.2-29.1-3.6-14.6 13-7.5 44.6-25.8 13-7.5L423.2 192l21.6 20.8c4.7-.5 9.4-.8 14.2-.8s9.5 .3 14.2 .8L494.8 192l10.8-10.4 13 7.5 44.6 25.8 13 7.5-3.6 14.6-7.2 29.1c5.6 7.6 10.4 15.8 14.2 24.6l28.8 8.4 14.4 4.2zm-40 30l-23.8-6.9-9.9-2.9-3.4-9.8c-3.8-11-9.7-21.1-17.2-29.8l-6.8-7.8 2.5-10 5.9-24.1-18.6-10.7-17.9 17.2-7.4 7.1-10.1-1.9c-5.6-1.1-11.3-1.6-17.3-1.6s-11.7 .6-17.3 1.6l-10.1 1.9-7.4-7.1-17.9-17.2L387.7 242l5.9 24.1 2.5 10-6.8 7.8c-7.5 8.7-13.4 18.8-17.3 29.8l-3.4 9.8-9.9 2.9L335 333.3v21.5l23.8 6.9 9.9 2.9 3.4 9.8c3.8 11 9.7 21.1 17.3 29.8l6.8 7.8-2.5 10L387.7 446l18.6 10.7 17.9-17.1 7.4-7.1 10.1 1.9c5.6 1.1 11.3 1.6 17.3 1.6s11.7-.6 17.3-1.6l10.1-1.9 7.4 7.1 17.9 17.1L530.3 446l-5.9-24.1-2.5-10 6.8-7.8c7.5-8.7 13.4-18.8 17.3-29.8l3.4-9.8 9.9-2.9 23.8-6.9V333.3zM459 304a40 40 0 1 1 0 80 40 40 0 1 1 0-80z"/></svg>