<svg xmlns="http://www.w3.org/2000/svg" viewBox="0 0 448 512"><!--! Font Awesome Pro 6.3.0 by @fontawesome - https://fontawesome.com License - https://fontawesome.com/license (Commercial License) Copyright 2023 Fonticons, Inc. --><path d="M17 359L.1 376 34 409.9l17-17 10.5-10.5c34.3 27.7 74.9 43.8 116.5 48.3V464H58v48H346V464H226V430.7c49.1-5.3 96.8-26.7 134.4-64.3c81.7-81.7 87.1-211 16.1-298.9L387 57l17-17L370 6.1 353 23 326.5 49.6l-17 17 17 17c68.7 68.7 68.7 180.2 0 248.9s-180.2 68.7-248.9 0l-17-17-17 17L17 359zm89-151a96 96 0 1 1 192 0 96 96 0 1 1 -192 0zm240 0A144 144 0 1 0 58 208a144 144 0 1 0 288 0z"/></svg>