<svg xmlns="http://www.w3.org/2000/svg" viewBox="0 0 512 512"><!--! Font Awesome Pro 6.3.0 by @fontawesome - https://fontawesome.com License - https://fontawesome.com/license (Commercial License) Copyright 2023 Fonticons, Inc. --><path d="M160 80H64v96h96V80zM64 32h96 48V80v96 48H160 64 16V176 80 32H64zm96 304H64v96h96V336zM64 288h96 48v48 96 48H160 64 16V432 336 288H64zM320 80v96h96V80H320zM272 32h48 96 48V80v96 48H416 320 272V176 80 32zM392 272v24 64h64 24v48H456 392v64 24H344V472 408H280 256V360h24 64V296 272h48z"/></svg>