<svg xmlns="http://www.w3.org/2000/svg" viewBox="0 0 448 512"><!--! Font Awesome Pro 6.3.0 by @fontawesome - https://fontawesome.com License - https://fontawesome.com/license (Commercial License) Copyright 2023 Fonticons, Inc. --><path d="M48 80v96h96V80H48zM0 32H48h96 48V80v96 48H144 48 0V176 80 32zM48 336v96h96V336H48zM0 288H48h96 48v48 96 48H144 48 0V432 336 288zM400 80H304v96h96V80zM304 32h96 48V80v96 48H400 304 256V176 80 32h48zm0 304v96h96V336H304zm-48-48h48 96 48v48 96 48H400 304 256V432 336 288z"/></svg>