<svg xmlns="http://www.w3.org/2000/svg" viewBox="0 0 640 512"><!--! Font Awesome Pro 6.3.0 by @fontawesome - https://fontawesome.com License - https://fontawesome.com/license (Commercial License) Copyright 2023 Fonticons, Inc. --><path d="M376.6 75.3H45.3V90.4c0 91.5 74.2 165.6 165.6 165.6c7.3 0 14.5-.5 21.6-1.4c-8 14.8-14.4 30.4-18 46.5c-1.2 0-2.3 0-3.5 0c-15.9 0-31.5-1.8-46.4-5.1L143 346.4h68.5c1.3 15.7 4.6 30.9 9.6 45.2H150.7c0 33.3-27 60.2-60.2 60.2s-60.2-27-60.2-60.2s27-60.2 60.2-60.2c3.2 0 6.4 .3 9.5 .7l21.7-50.6C49.9 247.8 .1 174.9 .1 90.4V75.3 30.1H45.3 376.6h45.2V75.3 90.4c0 22.7-3.6 44.6-10.2 65.1c-12.2-11.7-24.9-22.8-37.9-33.6c2-10.2 3-20.7 3-31.5V75.3zM90.5 414.1a22.6 22.6 0 1 0 0-45.2 22.6 22.6 0 1 0 0 45.2zM422.7 210.9c16.2-18.4 29.2-30.1 29.2-30.1s90.4 81.3 90.4 150.6c0 83.2-67.4 150.6-150.6 150.6s-150.6-67.4-150.6-150.6s120.5-180.7 120.5-180.7s30.7 24.9 61.1 60.2zm16 196.6c28.2-19.8 35.8-59.3 18.8-90.4c-1.9-3.8-3.8-7.5-6.6-11.3l-33.9 39.5s-54.6-69.6-58.4-74.4c-28.2 34.8-42.4 54.6-42.4 77.2c0 46.1 33.9 73.4 76.2 73.4c16.9 0 32-4.7 46.1-14.1z"/></svg>