<svg xmlns="http://www.w3.org/2000/svg" viewBox="0 0 384 512"><!--! Font Awesome Pro 6.3.0 by @fontawesome - https://fontawesome.com License - https://fontawesome.com/license (Commercial License) Copyright 2023 Fonticons, Inc. --><path d="M320 192a32 32 0 1 0 64 0 32 32 0 1 0 -64 0zm-160 0a32 32 0 1 0 64 0 32 32 0 1 0 -64 0zM32 224a32 32 0 1 0 0-64 32 32 0 1 0 0 64zm288 96a32 32 0 1 0 64 0 32 32 0 1 0 -64 0zM192 352a32 32 0 1 0 0-64 32 32 0 1 0 0 64zM0 320a32 32 0 1 0 64 0A32 32 0 1 0 0 320z"/></svg>