<svg xmlns="http://www.w3.org/2000/svg" viewBox="0 0 192 512"><!--! Font Awesome Pro 6.3.0 by @fontawesome - https://fontawesome.com License - https://fontawesome.com/license (Commercial License) Copyright 2023 Fonticons, Inc. --><path d="M32 128a32 32 0 1 0 0-64 32 32 0 1 0 0 64zm0 160a32 32 0 1 0 0-64 32 32 0 1 0 0 64zM64 416A32 32 0 1 0 0 416a32 32 0 1 0 64 0zm96-288a32 32 0 1 0 0-64 32 32 0 1 0 0 64zm32 128a32 32 0 1 0 -64 0 32 32 0 1 0 64 0zM160 448a32 32 0 1 0 0-64 32 32 0 1 0 0 64z"/></svg>