<svg xmlns="http://www.w3.org/2000/svg" viewBox="0 0 320 512"><!--! Font Awesome Pro 6.3.0 by @fontawesome - https://fontawesome.com License - https://fontawesome.com/license (Commercial License) Copyright 2023 Fonticons, Inc. --><path d="M40 440l48 0 0-48-48 0 0 48zM0 480l0-40 0-48 0-40 40 0 48 0 40 0 0 40 0 48 0 40-40 0-48 0L0 480zm232-40l48 0 0-48-48 0 0 48zm-40 40l0-40 0-48 0-40 40 0 48 0 40 0 0 40 0 48 0 40-40 0-48 0-40 0zM40 232l0 48 48 0 0-48-48 0zM0 280l0-48 0-40 40 0 48 0 40 0 0 40 0 48 0 40-40 0-48 0L0 320l0-40zm232 0l48 0 0-48-48 0 0 48zm-40 40l0-40 0-48 0-40 40 0 48 0 40 0 0 40 0 48 0 40-40 0-48 0-40 0zM40 72l0 48 48 0 0-48L40 72zM0 120L0 72 0 32l40 0 48 0 40 0 0 40 0 48 0 40-40 0-48 0L0 160l0-40zm232 0l48 0 0-48-48 0 0 48zm-40 40l0-40 0-48 0-40 40 0 48 0 40 0 0 40 0 48 0 40-40 0-48 0-40 0z"/></svg>