<svg xmlns="http://www.w3.org/2000/svg" viewBox="0 0 512 512"><!--! Font Awesome Pro 6.3.0 by @fontawesome - https://fontawesome.com License - https://fontawesome.com/license (Commercial License) Copyright 2023 Fonticons, Inc. --><path d="M148.3 81.4c21-11.8 44.3-19.9 69.1-23.4l-6.8-47.5c-32.5 4.6-63 15.6-90.1 31.6C110.5 35.7 98.7 32 86 32C50.7 32 22 60.7 22 96c0 12.7 3.7 24.5 10.1 34.5c-16 27.2-26.9 57.6-31.6 90.1L48 227.4c3.5-24.8 11.6-48.1 23.4-69.1C76.1 159.4 81 160 86 160c35.3 0 64-28.7 64-64c0-5-.6-9.9-1.7-14.6zm272.2 76.9c11.8 21 19.9 44.3 23.4 69.1l47.5-6.8c-4.6-32.5-15.6-63-31.6-90.1c6.4-10 10.1-21.8 10.1-34.5c0-35.3-28.7-64-64-64c-12.7 0-24.5 3.7-34.5 10.1c-27.2-16-57.6-26.9-90.1-31.6L274.6 58c24.8 3.5 48.1 11.6 69.1 23.4C342.6 86.1 342 91 342 96c0 35.3 28.7 64 64 64c5 0 9.9-.6 14.6-1.7zM71.4 353.7c-11.8-21-19.9-44.3-23.4-69.1L.5 291.4c4.6 32.5 15.6 63 31.6 90.1C25.7 391.5 22 403.3 22 416c0 35.3 28.7 64 64 64c12.7 0 24.5-3.7 34.5-10.1c27.2 16 57.6 26.9 90.1 31.6l6.8-47.5c-24.8-3.5-48.1-11.6-69.1-23.4c1.1-4.7 1.7-9.6 1.7-14.6c0-35.3-28.7-64-64-64c-5 0-9.9 .6-14.6 1.7zm272.2 76.9c-21 11.8-44.3 19.9-69.1 23.4l6.8 47.5c32.5-4.6 63-15.6 90.1-31.6c10 6.4 21.8 10.1 34.5 10.1c35.3 0 64-28.7 64-64c0-12.7-3.7-24.5-10.1-34.5c16-27.2 26.9-57.6 31.6-90.1L444 284.6c-3.5 24.8-11.6 48.1-23.4 69.1c-4.7-1.1-9.6-1.7-14.6-1.7c-35.3 0-64 28.7-64 64c0 5 .6 9.9 1.7 14.6zM70 96a16 16 0 1 1 32 0A16 16 0 1 1 70 96zm0 320a16 16 0 1 1 32 0 16 16 0 1 1 -32 0zM406 80a16 16 0 1 1 0 32 16 16 0 1 1 0-32zM390 416a16 16 0 1 1 32 0 16 16 0 1 1 -32 0zM217.7 313.8c-20.8-10.6-34.9-32.2-34.9-57c0-15.6 5.6-29.9 14.9-41.1l25.9 25.9 0-81.6L142 160l21.7 21.7c-17.9 19.8-28.9 46.2-28.9 75.1c0 43.6 24.9 81.3 61.1 99.8l21.8-42.7zm93.1-58.6c0 15.6-5.6 29.9-14.9 41.1L270 270.4l0 81.6h81.6l-21.7-21.7c17.9-19.8 28.9-46.2 28.9-75.1c0-43.6-24.9-81.3-61.1-99.8l-21.8 42.7c20.8 10.6 34.9 32.2 34.9 57z"/></svg>