<svg xmlns="http://www.w3.org/2000/svg" viewBox="0 0 640 512"><!--! Font Awesome Pro 6.3.0 by @fontawesome - https://fontawesome.com License - https://fontawesome.com/license (Commercial License) Copyright 2023 Fonticons, Inc. --><path d="M144 0H120 24 0V24 256v9.9l7 7 79 79H80v48h24H504h24V352h-6.1l79-79 7-7V256 24 0H584 488 464V24 142.1l-31-31-17-17-17 17-95 95-95-95-17-17-17 17-31 31V24 0zM328 249.9l88-88L442.1 188l-51 51-17 17L408 289.9l17-17 80-80 7-7V176 48h48V246.1L458.2 347.8l-4.2 4.2H328v-8V249.9zM280 352H153.9l-12.2-12.2L48 246.1V48H96V176v9.9l7 7 80 80 17 17L233.9 256l-17-17-51-51L192 161.9l88 88V344v8zM80 424v48h24 8v16 24h48V488 472H280v16 24h48V488 472H448v16 24h48V488 472h8 24V424H504 104 80z"/></svg>