<svg xmlns="http://www.w3.org/2000/svg" viewBox="0 0 448 512"><!--! Font Awesome Pro 6.3.0 by @fontawesome - https://fontawesome.com License - https://fontawesome.com/license (Commercial License) Copyright 2023 Fonticons, Inc. --><path d="M80 0h24 80 24V24 144h56 24v24 8h56 24v16h56 24v24 40 88 0l0 .1C447.9 436.9 372.7 512 280 512H232c-92.8 0-168-75.2-168-168v0V320v0V264 240H80V176H0l43.6-48L0 80H80V24 0zm48 176v64h32V176H128zm32-96V48H128V80h32zM400 240H368v96h32V256 240zM344 384H320V368H288 264 240 184 160V320h24 56V288H184 112v32 0 24 0c0 66.3 53.7 120 120 120h48c52.2 0 96.7-33.4 113.2-80H344zM208 240h32V200v-8H208v48zm112-16H288v40 56h32V224z"/></svg>