<svg xmlns="http://www.w3.org/2000/svg" viewBox="0 0 576 512"><!--! Font Awesome Pro 6.3.0 by @fontawesome - https://fontawesome.com License - https://fontawesome.com/license (Commercial License) Copyright 2023 Fonticons, Inc. --><path d="M281.8 24.9L275.7 1.7 252.5 7.9 175.2 28.4 152 34.6l6.2 23.2 1.7 6.4-11.4 5.1-73 32.7-21.9 9.8 9.8 21.9 16.3 36.5 52.6 117.6-2.9-2.3L97.7 260.9 78.8 246.2 64 265.1 14.9 328.3 .2 347.2 19.1 362l31.6 24.6 92 71.6C187.6 493 242.9 512 299.9 512H330h2l.1 0 .1 0H354v-1.6c61-8.8 111.8-53.6 127.1-114.8l55-220.1 9.7-38.8 5.8-23.3-23.3-5.8L460 90.5l4-22.7 4.2-23.6L444.6 40 365.8 26l-23.6-4.2L338 45.4l-7 39.4-13.3 75.1L292.1 63.6 281.8 24.9zM306 463.6v.4h-6.1c-46.3 0-91.2-15.4-127.7-43.8l-92-71.6-12.6-9.8 19.6-25.3 12.6 9.8L174 381l39.4-29.5-89.9-201-6.5-14.6 29.2-13.1 6.5 14.6L210 265.8l6.4 14.2h15.6 3.6 31.2l-8-30.2-44-165.7-4.1-15.5 30.9-8.2 4.1 15.5 49.4 186.3 4.7 17.8h18.5 6.6H345l3.5-19.8 29.7-167L381 77.4 412.6 83l-2.8 15.8-27.2 153-5 28.2h28.6 2.6 18.7l4.5-18.2 26.4-105.7 3.9-15.5 31 7.8-3.9 15.5L434.5 384c-11.8 47-54 80-102.4 80c-.6 0-1.1 0-1.7 0l-24.4-.4z"/></svg>