<svg xmlns="http://www.w3.org/2000/svg" viewBox="0 0 384 512"><!--! Font Awesome Pro 6.3.0 by @fontawesome - https://fontawesome.com License - https://fontawesome.com/license (Commercial License) Copyright 2023 Fonticons, Inc. --><path d="M96 0h24 80 24V24v8h56 24V56 96h56 24v24V232c0 0 0 0 0 .1V256c0 51.2-25.3 96.4-64 123.9V488v24H272V488 366.9 353l12-6.9c26.7-15.5 45.9-42.4 50.8-74.1H280 256V248v-8H224v40 24H200 120 96V256h24 56V224H120 48v16 16.1c0 48.4 33.2 89.1 78 100.6l18 4.6V380 488v24H96V488 397.3C42.1 376 3.4 324.7 .2 264H0v-8V240v-8V200 176H16V56 32H40 96V24 0zM336 168l0-24H304v72 8h32l0-32V168zM96 80H64v96H96V80zm80 96l0-120 0-8H144v8V176h32zm48 16h32V120 96 80H224l0 112z"/></svg>