<svg xmlns="http://www.w3.org/2000/svg" viewBox="0 0 384 512"><!--! Font Awesome Pro 6.3.0 by @fontawesome - https://fontawesome.com License - https://fontawesome.com/license (Commercial License) Copyright 2023 Fonticons, Inc. --><path d="M88 0H64V24 124L9.6 164.8 0 172v12 49.5c0 51.8 23 100.9 62.8 134c10.3 8.6 21.4 15.9 33.2 21.8V488v24h48V488 373.8 357.4l-15.3-5.9c-12.7-4.9-24.6-11.9-35.2-20.7C64.7 306.7 48 271.1 48 233.5V196l32-24v36 16h32V208 148 136v-8V112 48h32v8V80h24 40v8 24h24 40v8 24h24 40V264c0 .7-.1 1.4-.2 2l-.4 1.5-.2 1.5c-4.1 33-23.6 61.2-51.2 77.2L272 353v13.8V488v24h48V488 379.9c33.5-23.8 57-61 62.7-103.8c.9-3.9 1.3-8 1.3-12.1V120 96H360 320V88 64H296 256V56 32H232 192V24 0H168 88z"/></svg>