<svg xmlns="http://www.w3.org/2000/svg" viewBox="0 0 640 512"><!--! Font Awesome Pro 6.3.0 by @fontawesome - https://fontawesome.com License - https://fontawesome.com/license (Commercial License) Copyright 2023 Fonticons, Inc. --><path d="M247 7L127 127 161 161 281 41 247 7zm71.3 136.1l23.2-6.3L328.8 90.5l-23.2 6.3-88 24 12.6 46.3 88-24zm-259.6 68L156.9 35.7 115.1 12.3 16.8 187.7C5.8 207.4 0 229.6 0 252.1C0 325 59 384 131.9 384h65.9c29.4 0 56.9-14.7 73.2-39.2l13-19.5L244 298.7l-13 19.5c-7.4 11.1-19.9 17.8-33.3 17.8h-1.6c-20.3-5.2-36.2-25-36.2-48c0-26.5 21.5-48 48-48c8.1 0 16.9 4.2 25 10.7c3.8 3.1 6.9 6.2 9.1 8.5c1.1 1.1 1.8 2.1 2.3 2.6c.2 .3 .4 .5 .5 .6l0 .1 0 0 0 0 0 0 0 0 0 0s0 0 19.2-14.4s19.2-14.4 19.2-14.4l0 0 0 0 0-.1-.1-.2-.4-.5c-.3-.4-.7-.9-1.2-1.4c-1-1.2-2.3-2.8-4-4.6c-3.4-3.7-8.3-8.6-14.4-13.5c-11.9-9.5-31.1-21.3-55-21.3c-53 0-96 43-96 96c0 17.1 4.5 33.4 12.4 47.7C81.6 331.9 48 295.9 48 252.1c0-14.3 3.7-28.5 10.7-41zM393 505L513 385 479 351 359 471 393 505zM321.7 368.8l-23.2 6.3 12.6 46.3 23.2-6.3 88-24-12.6-46.3-88 24zm259.6-68L483.1 476.3l41.9 23.5 98.2-175.4c11-19.7 16.8-41.9 16.8-64.4C640 187 581 128 508.1 128H442.3c-29.4 0-56.9 14.7-73.2 39.2l-13 19.5L396 213.3l13-19.5c7.4-11.1 19.9-17.8 33.3-17.8h1.6c20.3 5.2 36.2 25 36.2 48c0 26.5-21.5 48-48 48c-8.1 0-16.9-4.2-25-10.7c-3.8-3.1-6.9-6.2-9-8.5c-1.1-1.1-1.8-2.1-2.3-2.6c-.2-.3-.4-.5-.5-.6l0 0 0 0 0 0 0 0 0 0s0 0-19.2 14.4s-19.2 14.4-19.2 14.4l0 0 0 0 0 .1 .1 .2 .4 .5c.3 .4 .7 .9 1.2 1.4c1 1.2 2.3 2.8 4 4.6c3.4 3.7 8.3 8.6 14.5 13.5c11.9 9.5 31.1 21.3 55 21.3c53 0 96-43 96-96c0-17.1-4.5-33.4-12.4-47.7c42.8 3.8 76.4 39.7 76.4 83.5c0 14.3-3.7 28.5-10.7 41z"/></svg>