<svg xmlns="http://www.w3.org/2000/svg" viewBox="0 0 512 512"><!--! Font Awesome Pro 6.3.0 by @fontawesome - https://fontawesome.com License - https://fontawesome.com/license (Commercial License) Copyright 2023 Fonticons, Inc. --><path d="M191.3 3.3L167.5 .8 165 24.6 155 119 128.6 43.8l-8-22.6L98 29.1 22.5 55.7l-22.6 8 8 22.6L61.9 240H45v24 56 0 24 0c0 92.8 75.2 168 168 168h48c92.8 0 168-75.2 168-168v-8V312 256 184 160H405 349v-8V128H325 282.8l9.5-90 2.5-23.9-23.9-2.5L191.3 3.3zM269 181.7c2.2-1.6 4.1-3.5 5.7-5.7H301v8 72H269V181.7zM234.5 128H221v24 88H197.6l-5.4-15.3 18-171.2L242 56.9 234.5 128zM91.3 82.4L146.7 240l-33.9 0L61.1 93 91.3 82.4zM381 256v32H349v-8V208h32v48zm0 80v8c0 66.3-53.7 120-120 120H213c-66.3 0-120-53.7-120-120v0V320v0V288H221v32H165 141v48h24 80 24V344 304h32v8 24h24 56z"/></svg>