<svg xmlns="http://www.w3.org/2000/svg" viewBox="0 0 448 512"><!--! Font Awesome Pro 6.3.0 by @fontawesome - https://fontawesome.com License - https://fontawesome.com/license (Commercial License) Copyright 2023 Fonticons, Inc. --><path d="M176.4 10.3L154.6 .2 144.5 21.9 131 50.8l-4.1-8.8L116.7 20.2 95 30.3 22.5 64.1 .7 74.3 10.9 96 60.4 202.2 42.8 240H35 11v24 56 0 24 0c0 92.8 75.2 168 168 168h48c92.8 0 168-75.2 168-168v-8V312 256 184 160H371 315v-8V128H291 236.2l24.2-52 10.1-21.8L248.9 44.1 176.4 10.3zM93.5 84l11 23.6L86.9 145.4 64.5 97.5 93.5 84zM131 240H95.7L177.8 64l29 13.5L131 240zm216-32v48 32H315v-8V208h32zM291 336h56v8c0 66.3-53.7 120-120 120H179c-66.3 0-120-53.7-120-120l0 0 0-24 0 0 0-32H187v32H131 107v48h24 80 24V344 304h32v8 24h24zM235 176h32v8 72H235V176z"/></svg>