<svg xmlns="http://www.w3.org/2000/svg" viewBox="0 0 640 512"><!--! Font Awesome Pro 6.3.0 by @fontawesome - https://fontawesome.com License - https://fontawesome.com/license (Commercial License) Copyright 2023 Fonticons, Inc. --><path d="M311 320h24V296 240H463v64h-8H431v24 32H407 383v24 16l-8 0H351l-32 0-80 0h-9.9l-7 7-52.8 52.8-17 17 33.9 33.9 17-17L248.9 448l70.1 0 32 0h24l32 0h24V424 408h24 24V384 352h8 24V328 281.9 214.1 192H487 335V168 144H287v24V272H239V112H431h9.9l7-7 52.8-52.8 17-17L483.8 1.3l-17 17L421.1 64H215 191V88 296v24h24 96zM543 182.1v67.9l77.8-77.8 17-17-33.9-33.9-17 17L543 182.1zM159 128H119 95v24V262.1L17.2 339.8l-17 17 33.9 33.9 17-17L136 289l7-7V272 176h16V128z"/></svg>