<svg xmlns="http://www.w3.org/2000/svg" viewBox="0 0 640 512"><!--! Font Awesome Pro 6.3.0 by @fontawesome - https://fontawesome.com License - https://fontawesome.com/license (Commercial License) Copyright 2023 Fonticons, Inc. --><path d="M149.8 270.2h-6.5l-5.4 3.6L58 327.1H21.8 .4v42.7H21.8 64.4h6.5l5.4-3.6 80-53.3H320.4v28.4H284.9 263.6 228 206.7V384H228h35.6 21.3 42.7H356h6.2l5.2-3.3 71.5-45.4 13.3 21.3-81.5 55.8H21.8 .4v42.7H21.8 377.3h6.6l5.4-3.7 103.8-71.1 16.9-11.6-10.8-17.3-35.6-56.9-11.4-18.2-18.1 11.5-71.1 45.1V291.6 270.2H341.8h-192zm213.3-28.4h6.5l5.4-3.6 80-53.3h36.2 21.3V142.2H491.1 448.4 442l-5.4 3.6-80 53.3H192.4V170.7H228h21.3 35.6 21.3V128H284.9 249.3 228 185.3 156.9h-6.2l-5.2 3.3L74 176.7 60.7 155.4l81.5-55.8h349 21.3V56.9H491.1 135.6 129l-5.4 3.7L19.7 131.7 2.8 143.3l10.8 17.3 35.6 56.9 11.4 18.2 18.1-11.5 71.1-45.1v41.3 21.3h21.3 192z"/></svg>