<svg xmlns="http://www.w3.org/2000/svg" viewBox="0 0 640 512"><!--! Font Awesome Pro 6.3.0 by @fontawesome - https://fontawesome.com License - https://fontawesome.com/license (Commercial License) Copyright 2023 Fonticons, Inc. --><path d="M239.7 7.8l19 11.9 59.3 37 59.3-37 19-11.9 13.2 18.1 128 176 4.6 6.3V216v85.7l70.3 19.2 23.2 6.3-12.6 46.3-23.2-6.3-88-24L494 338.3V320 223.8L383.7 72.2 359.1 87.6l67.3 107.6 3.6 5.8V208v88 24H382V296 216H342V389.3l269.8 67.5 23.3 5.8-11.6 46.6-23.3-5.8L318 432.7 35.8 503.3l-23.3 5.8L.9 462.5l23.3-5.8L294 389.3V216H254v80 24H206V296 208v-6.9l3.6-5.8L276.9 87.6 252.3 72.2 142 223.8V320v18.3l-17.7 4.8-88 24-23.2 6.3L.5 327.2l23.2-6.3L94 301.7V216v-7.8l4.6-6.3 128-176L239.7 7.8zM294 168h24 0 24 10.7L318 112.5 283.3 168H294z"/></svg>