<svg xmlns="http://www.w3.org/2000/svg" viewBox="0 0 576 512"><!--! Font Awesome Pro 6.3.0 by @fontawesome - https://fontawesome.com License - https://fontawesome.com/license (Commercial License) Copyright 2023 Fonticons, Inc. --><path d="M240.8 64H168h-9.5l-6.9 6.5L90.3 128H24 0v48H24 99.8h9.5l6.9-6.5L177.5 112h15.3l48-48zM296 64h-9.5l-6.9 6.5-136 128-17 16 15.5 17.4 64 72 16.2 18.3 18-16.6L308.1 243 400 334.9v1.8l-49 49-9.7-9.7-17-17-17 17L277.4 406l-21-21-17-17-17 17-23.3 23.3-21.3-21.3-17-17-7-7-52-52-7-7H84.9 24 0v48H24 75l45 45 7 7 17 17 38.2 38.2 17 17 17-17 23.3-23.3 21 21 17 17 17-17L324.3 427l9.7 9.7 17 17 17-17L436.5 368H552h24V320H552 453l-1.2-1.2L343.4 210.4l.8-.8 17.6-16.3-32.6-35.3-17.6 16.3-86 79.4-32.3-36.3L305.5 112h77.4l65.2 57.9 6.8 6.1H464h88 24V128H552 473.1L407.9 70.1 401.1 64H392 296z"/></svg>