<svg xmlns="http://www.w3.org/2000/svg" viewBox="0 0 576 512"><!--! Font Awesome Pro 6.3.0 by @fontawesome - https://fontawesome.com License - https://fontawesome.com/license (Commercial License) Copyright 2023 Fonticons, Inc. --><path d="M327.2 0H315 299V32h16 12.2c15.9 0 30.4 9 37.5 23.2l28.6-14.3C380.8 15.8 355.2 0 327.2 0zm-191 23.4l-17 17L62.7 97l-17 17 17 17 5.7 5.7L28.8 176.2l-17 17 17 17 28.3 28.3L17.5 278 .5 295l17 17L159.2 453.7C196.6 491 247.2 512 300 512l7 0 2.5 0 0 0C418.8 510.6 507 421.6 507 312v-5.9l0-.5 0-157.7v-40l0-24-24 0-80 0-24 0v24 40V153L248.4 22.5l-17-17-17 17L174.9 62.1 153.2 40.4l-17-17zM458.3 326.6C451 403.7 386 464 307 464c-2 0-4 0-5.9-.1l-10-.4-.2 .2c-36.7-2.2-71.5-17.8-97.7-44L68.4 295 91 272.3l5.7 5.7 56.6 56.6 17 17 33.9-33.9-17-17L130.6 244l-17-17 0 0-5.7-5.7L79.7 193.1l22.6-22.6 11.3 11.3L209.8 278l17 17L260.7 261l-17-17-96.2-96.2-17-17-11.3-11.3-5.7-5.7 22.6-22.6L157.9 113l17 17 0 0 91.5 91.5 17 17 33.9-33.9-17-17L208.8 96l22.6-22.6L382.1 224H427V211l0-63.1 0-16 32 0v16l0 157.7c0 1.8 0 3.7-.1 5.5l-.6 15.5zM42.8 397.7l-2.3-15.8L8.9 386.4l2.3 15.8 1.2 8.5c5 35.2 32.7 62.9 67.9 67.9l8.5 1.2 15.8 2.3 4.5-31.7-15.8-2.3L84.8 447c-21.1-3-37.7-19.6-40.7-40.7l-1.2-8.5z"/></svg>