<svg xmlns="http://www.w3.org/2000/svg" viewBox="0 0 512 512"><!--! Font Awesome Pro 6.3.0 by @fontawesome - https://fontawesome.com License - https://fontawesome.com/license (Commercial License) Copyright 2023 Fonticons, Inc. --><path d="M112 361.7v19.6V448v16 48H96 64V480 464 381.2c-41-41.9-64-98.3-64-157C0 100.6 100.2 0 224 0h32C357.8 0 441.1 79.2 447.6 179.4l56.3 63.4 8.1 9.1V264v24 16 32H496 480 464 448v48 16 16 32H416 400 368 320v16 16 16 16H288 272V464 448 400h48 80V336 288h48 16V270.1l-52.3-58.8-11-12.3-1.1-16.5C394.8 107.4 332.3 48 256 48H224C126.8 48 48 127 48 224.2c0 46.1 18.1 90.5 50.3 123.4l13.7 14zM320.5 120.9l11.3 11.3 11.3 11.3-11.3 11.3c-19.6 19.6-5.7 53.1 22 53.1h16v16 16h-16c-27.7 0-41.6 33.5-22 53.1l11.3 11.3-11.3 11.3-11.3 11.3-11.3-11.3c-19.6-19.6-53.1-5.7-53.1 22v16H240 224v-16c0-27.7-33.5-41.6-53.1-22l-11.3 11.3-11.3-11.3-11.3-11.3 11.3-11.3c19.6-19.6 5.7-53.1-22-53.1h-16V224 208h16c27.7 0 41.6-33.5 22-53.1l-11.3-11.3 11.3-11.3 0 0 11.3-11.3 11.3 11.3c19.6 19.6 53.1 5.7 53.1-22v-16h16 16v16c0 27.7 33.5 41.6 53.1 22l11.3-11.3zM218.7 224a21.3 21.3 0 1 0 0-42.7 21.3 21.3 0 1 0 0 42.7zm64 28.4a14.2 14.2 0 1 0 -28.4 0 14.2 14.2 0 1 0 28.4 0z"/></svg>