<svg xmlns="http://www.w3.org/2000/svg" viewBox="0 0 512 512"><!--! Font Awesome Pro 6.3.0 by @fontawesome - https://fontawesome.com License - https://fontawesome.com/license (Commercial License) Copyright 2023 Fonticons, Inc. --><path d="M112 361.7v19.6V448v16 48H96 64V480 464 381.2c-41-41.9-64-98.3-64-157C0 100.6 100.2 0 224 0h32C357.8 0 441.1 79.2 447.6 179.4l56.3 63.4 8.1 9.1V264v8 16 16 16L448 512H320 288 272 224V464 320v-3.2L49.6 200.6c-1 7.7-1.6 15.6-1.6 23.7c0 46.1 18.1 90.5 50.3 123.4l13.7 14zM63.4 152.1L243.3 272H272 464v-1.9l-52.3-58.8-11-12.3-1.1-16.5C394.8 107.4 332.3 48 256 48H224C152.5 48 90.9 90.8 63.4 152.1zM336 160a32 32 0 1 1 0 64 32 32 0 1 1 0-64zM461.4 320H272V464H413.4l8-24H336 320V408h16 96.1l10.7-32H336 320V344h16H453.4l8-24z"/></svg>