<svg xmlns="http://www.w3.org/2000/svg" viewBox="0 0 640 512"><!--! Font Awesome Pro 6.3.0 by @fontawesome - https://fontawesome.com License - https://fontawesome.com/license (Commercial License) Copyright 2023 Fonticons, Inc. --><path d="M112 381.2V448v16 48H96 64V480 464 381.2C23 339.3 0 283 0 224.3V208c0-33.9 8.1-66 22.5-94.2l38.7 30.5C52.7 163.8 48 185.3 48 208v16.3c0 46.1 18.1 90.4 50.3 123.3l13.7 14v19.6zM441.5 320L620.9 459.3l19 14.7-29.4 37.9-19-14.7L19 52.7 0 38 29.4 .1l19 14.7L83 41.7C117.8 15.5 161.1 0 208 0h16C326.1 0 409.6 79.7 415.7 180.3L473 252l7 8.8V272v16 32H464 448h-6.5zm-61.8-48H416h11.5l-49.3-61.7-9.5-11.9-.9-15.2C363.2 107.8 300.6 48 224 48H208c-31.3 0-60.5 9-85.2 24.6L379.7 272zM288 344l22.1-3.7L416 423.8V432v16 32H384 368 320v32H288 272V464 448 432h48 48V397.3L288 384V344zm296-56a24 24 0 1 1 48 0 24 24 0 1 1 -48 0zm-40 24a24 24 0 1 1 0 48 24 24 0 1 1 0-48zm40 72a24 24 0 1 1 48 0 24 24 0 1 1 -48 0z"/></svg>