<svg xmlns="http://www.w3.org/2000/svg" viewBox="0 0 576 512"><!--! Font Awesome Pro 6.3.0 by @fontawesome - https://fontawesome.com License - https://fontawesome.com/license (Commercial License) Copyright 2023 Fonticons, Inc. --><path d="M394.3 26.2L388.2 1.7 364.1 9 202 58C83.8 93.7 3 202.6 3 326V488v24H27 355h42l-21.3-36.2-59-100.3 28.3 32.3 7.2 8.2H363h80 12l7.2-9.6 48-64 7.5-10.1-4-11.9-56-168L454 141l-11.4-3.8L392 120.4l5.8-2.9 17.2-8.6-4.7-18.7-16-64zM159.1 330.4c25.4 30.4 63 44.8 99.8 41.6L313 464H51V326C51 223.8 118 133.6 215.9 104l138-41.7L359 83.1 328.3 98.5 315 105.2V120v8 17.3l16.4 5.5L416 179l48.2 144.7L431 368H373.9l-48.8-55.8-14.9-17-17.9 13.9-1.2 .9c-29.3 22.8-71.3 18.2-95.1-10.3l-22.6-27.1-15.4-18.4-36.9 30.7 15.4 18.4 22.6 27.1zM299 224a24 24 0 1 0 0-48 24 24 0 1 0 0 48z"/></svg>