<svg xmlns="http://www.w3.org/2000/svg" viewBox="0 0 640 512"><!--! Font Awesome Pro 6.3.0 by @fontawesome - https://fontawesome.com License - https://fontawesome.com/license (Commercial License) Copyright 2023 Fonticons, Inc. --><path d="M296 48C181.1 48 88 141.1 88 256s93.1 208 208 208c45.6 0 87.7-14.6 122-39.5l28.2 38.9C404 494 352.1 512 296 512C154.6 512 40 397.4 40 256S154.6 0 296 0S552 114.6 552 256v96h16 24v48H568h-2.3l-11.4 80H568v32H552 504 488V480h13.7l-11.4-80H488 464V352h24 16V256c0-114.9-93.1-208-208-208zM184 256a112 112 0 1 0 224 0 112 112 0 1 0 -224 0zM296 416a160 160 0 1 1 0-320 160 160 0 1 1 0 320zM232 256a64 64 0 1 1 128 0 64 64 0 1 1 -128 0z"/></svg>