<svg xmlns="http://www.w3.org/2000/svg" viewBox="0 0 512 512"><!--! Font Awesome Pro 6.3.0 by @fontawesome - https://fontawesome.com License - https://fontawesome.com/license (Commercial License) Copyright 2023 Fonticons, Inc. --><path d="M272 48H464V256H320v48H464v48H320v48H464v64H320v48H464h48V464 48 0H464 272 224V48 64h48V48zm80 32v40H312v48h40v40h48V168h40V120H400V80H352zM168 176H120v40H80v48h40v40h48V264h40V216H168V176zM48 144H240V352H48V144zm0 256H240v64H48V400zM0 96v48V464v48H48 240h48V464 144 96H240 48 0z"/></svg>