<svg xmlns="http://www.w3.org/2000/svg" viewBox="0 0 640 512"><!--! Font Awesome Pro 6.3.0 by @fontawesome - https://fontawesome.com License - https://fontawesome.com/license (Commercial License) Copyright 2023 Fonticons, Inc. --><path d="M303.5 13.7L288 .5 272.5 13.7l-264 224 31.1 36.6L64 253.5V488v24H88 394.8c-18.3-12.9-34.1-29.2-46.3-48H112V212.8L288 63.5 447.5 198.8c15.4-4.4 31.7-6.8 48.5-6.8c6.4 0 12.7 .3 18.8 1L303.5 13.7zM320 320h6.6c6.7-23.8 18.3-45.5 33.6-64H320V208c0-8.8-7.2-16-16-16H272c-8.8 0-16 7.2-16 16v48H208c-8.8 0-16 7.2-16 16v32c0 8.8 7.2 16 16 16h48v48c0 8.8 7.2 16 16 16h32c8.8 0 16-7.2 16-16V320zM496 512a144 144 0 1 0 0-288 144 144 0 1 0 0 288zm16-64H480V416h32v32zm0-176v16 80 16H480V368 288 272h32z"/></svg>