<svg xmlns="http://www.w3.org/2000/svg" viewBox="0 0 576 512"><!--! Font Awesome Pro 6.3.0 by @fontawesome - https://fontawesome.com License - https://fontawesome.com/license (Commercial License) Copyright 2023 Fonticons, Inc. --><path d="M280 .5l15.5 13.2L456 149.9V88 64h48V88 190.6l55.5 47.1-31.1 36.6L504 253.5V488v24H480 80 56V488 253.5L31.5 274.3 .5 237.7l264-224L280 .5zM456 212.8L280 63.5 104 212.8V464H456l0-224V216l0-3.2zM227.2 208h2.4c15.9 0 31.2 6.2 42.7 17.2l7.7 7.4 7.7-7.4c11.5-11 26.8-17.2 42.7-17.2h2.4c32.7 0 59.2 26.5 59.2 59.2c0 16.1-6.6 31.5-18.2 42.7l-82.8 79.6L280 400.1l-11.1-10.7-82.8-79.6c-11.6-11.2-18.2-26.6-18.2-42.7c0-32.7 26.5-59.2 59.2-59.2z"/></svg>