<svg xmlns="http://www.w3.org/2000/svg" viewBox="0 0 640 512"><!--! Font Awesome Pro 6.3.0 by @fontawesome - https://fontawesome.com License - https://fontawesome.com/license (Commercial License) Copyright 2023 Fonticons, Inc. --><path d="M466.8 0H421.6V22.6v7.5V180.7 481.9h45.2V180.7H602.4V30.1H466.8V22.6 0zM391.5 125.1L269.5 34.6 256 24.6l-13.5 10L18.3 201 .1 214.4l26.9 36.3 18.1-13.5 15-11.2V459.3v22.6H82.8h97.9v.6h45.2v-.6l60.2 0v.6h45.2v-.6l60.2 0V436.7H331.3v-128V286.1H308.7 203.3 180.7v22.6 128H105.4V205.6v-13L256 80.8 391.5 181.4V125.1zM286.1 331.3V436.7l-60.2 0V331.3h60.2z"/></svg>