<svg xmlns="http://www.w3.org/2000/svg" viewBox="0 0 640 512"><!--! Font Awesome Pro 6.3.0 by @fontawesome - https://fontawesome.com License - https://fontawesome.com/license (Commercial License) Copyright 2023 Fonticons, Inc. --><path d="M277.7 12.9L263.1 .5 248.4 12.9 0 223.7l29.2 34.4 23-19.5V459.3v22.6H74.8 343.6c-18.2-12.1-34-27.4-46.8-45.2h-79V301.2h48.7c3.6-15.6 9.7-30.7 17.3-45.2H195.3 172.7v22.6V436.7H97.4V200.3L263.1 59.7l106.5 90.3c11.1-10.4 22.6-20.3 34.4-30.1L277.7 12.9zm197.1 198c-30.4-35.3-61.1-60.2-61.1-60.2s-120.5 97.5-120.5 180.7s67.4 150.6 150.6 150.6s150.6-67.4 150.6-150.6c0-69.3-90.4-150.6-90.4-150.6s-13 11.7-29.2 30.1zm16 196.6c-14.1 9.4-29.2 14.1-46.1 14.1c-42.4 0-76.2-27.3-76.2-73.4c0-22.6 14.1-42.4 42.4-77.2c3.8 4.7 58.4 74.4 58.4 74.4l33.9-39.5c2.8 3.8 4.7 7.5 6.6 11.3c16.9 31.1 9.4 70.6-18.8 90.4z"/></svg>