<svg xmlns="http://www.w3.org/2000/svg" viewBox="0 0 576 512"><!--! Font Awesome Pro 6.3.0 by @fontawesome - https://fontawesome.com License - https://fontawesome.com/license (Commercial License) Copyright 2023 Fonticons, Inc. --><path d="M280 32l15.5-18.3L280 .5 264.5 13.7 280 32zM80 488H56v24H80V488zm400 0v24h24V488H480zM31.5 274.3l264-224L264.5 13.7 .5 237.7l31.1 36.6zm232.9-224l264 224 31.1-36.6-264-224L264.5 50.3zM56 193.7V488h48V193.7H56zM80 512H480V464H80v48zm424-24V193.7H456V488h48z"/></svg>