<svg xmlns="http://www.w3.org/2000/svg" viewBox="0 0 448 512"><!--! Font Awesome Pro 6.3.0 by @fontawesome - https://fontawesome.com License - https://fontawesome.com/license (Commercial License) Copyright 2023 Fonticons, Inc. --><path d="M192.8 50.4V27.1l-23.2 2C75 37.3 .8 116.6 .8 213.3c0 90 64.2 164.9 149.3 181.5v66.3 23.2l23.2-2c94.6-8.1 168.8-87.5 168.8-184.2c0-90-64.2-164.9-149.3-181.5V50.4zM43.4 213.3c0-66.3 45.3-122 106.7-137.7v59.6 19.6l19.5 1.7c72.7 6.3 129.8 67.3 129.8 141.7c0 66.3-45.3 122-106.7 137.7V376.3 356.7L173.3 355c-72.7-6.3-129.8-67.3-129.8-141.7zM157.2 256a14.2 14.2 0 1 1 28.4 0 14.2 14.2 0 1 1 -28.4 0zm71.1 0a56.9 56.9 0 1 0 -113.8 0 56.9 56.9 0 1 0 113.8 0z"/></svg>