<svg xmlns="http://www.w3.org/2000/svg" viewBox="0 0 576 512"><!--! Font Awesome Pro 6.3.0 by @fontawesome - https://fontawesome.com License - https://fontawesome.com/license (Commercial License) Copyright 2023 Fonticons, Inc. --><path d="M157.5 21.5C143.7 7.7 124.8 0 105.3 0C65.2 0 32 32.5 32 72.6c0 20.1 8.3 39.2 22.9 52.9L160 224l105.1-98.5C279.7 111.8 288 92.6 288 72.6C288 32.5 254.8 0 214.7 0c-19.5 0-38.5 7.7-52.3 21.5L160 24l-2.5-2.5zM160 158.2L87.8 90.5c-5-4.6-7.8-11.1-7.8-17.9C80 59.6 91.1 48 105.3 48c7 0 13.7 2.8 18.3 7.5l33.7-33.7L123.6 55.5l2.5 2.5L160 91.9l33.9-33.9 2.5-2.5c4.6-4.6 11.4-7.5 18.3-7.5C228.9 48 240 59.6 240 72.6c0 6.8-2.8 13.3-7.8 17.9L160 158.2zM256 288l-16-32H112L96 288H80 32v48V464v48H80 272h48V464 336 288H272 256zm16 48V464H80V336H96h29.7l13.3-26.5 2.7-5.5h68.7l2.7 5.5L226.3 336H256h16zm-48 56a48 48 0 1 0 -96 0 48 48 0 1 0 96 0zM512 256L352 400l84.3 10.5L416 512 576 368l-84.3-10.5L512 256zm-192 0c35.3 0 64-21.5 64-48V83.7L496 61.3v68.2c-5.1-1-10.5-1.5-16-1.5c-35.3 0-64 21.5-64 48s28.7 48 64 48s64-21.5 64-48V32 2.7L515.3 8.5l-160 32L336 44.3V64v97.5c-5.1-1-10.5-1.5-16-1.5c-35.3 0-64 21.5-64 48s28.7 48 64 48z"/></svg>