<svg xmlns="http://www.w3.org/2000/svg" viewBox="0 0 512 512"><!--! Font Awesome Pro 6.3.0 by @fontawesome - https://fontawesome.com License - https://fontawesome.com/license (Commercial License) Copyright 2023 Fonticons, Inc. --><path d="M160 80v43.3V176l48-21.8 80-36.4L336 96v27.3 25.5V176l48-21.8 80-36.4L512 96v52.7V432v48H464 48 0V432 80 32H48h64 48V80zm19.9 139.7L112 250.5V176 80H48V432H464V170.5L355.9 219.7 288 250.5V176v-5.5L179.9 219.7zM176 296v80H96V296h80zm120 0v80H216V296h80zm40 0h80v80H336V296z"/></svg>