<svg xmlns="http://www.w3.org/2000/svg" viewBox="0 0 320 512"><!--! Font Awesome Pro 6.3.0 by @fontawesome - https://fontawesome.com License - https://fontawesome.com/license (Commercial License) Copyright 2023 Fonticons, Inc. --><path d="M48 160c0-44.2 35.8-80 80-80h32c44.2 0 80 35.8 80 80v7.4c0 22.9-10.9 44.5-29.4 58.1L168 256.6V168 144H120v24V291.8 304v24 16 8 16h48V352v-8V328 316.2l71-52c30.8-22.6 49-58.5 49-96.8V160c0-70.7-57.3-128-128-128H128C57.3 32 0 89.3 0 160v16H48V160zm64 256v64h64V416H112z"/></svg>