<svg xmlns="http://www.w3.org/2000/svg" viewBox="0 0 576 512"><!--! Font Awesome Pro 6.3.0 by @fontawesome - https://fontawesome.com License - https://fontawesome.com/license (Commercial License) Copyright 2023 Fonticons, Inc. --><path d="M204.1 252.1l25.1 50.2L176 320l53.2 17.7-25.1 50.2L251.9 364l-2.2 65.8C198.5 419.4 160 374.2 160 320c0-29.6 11.5-56.5 30.2-76.5l17.1-18.2-18.9-16.3C161.2 185.4 144 150.7 144 112c0-26.9 8.3-51.9 22.5-72.5L134.5 5.2C54.1 52.4 0 139.9 0 240C0 390.2 121.8 512 272 512s272-121.8 272-272C544 139.9 489.9 52.4 409.4 5.2L377.5 39.5C391.7 60.1 400 85.1 400 112c0 38.7-17.2 73.4-44.4 96.9l-18.9 16.3 17.1 18.2c18.8 20 30.2 46.9 30.2 76.5c0 54.2-38.5 99.4-89.7 109.8L292.1 364l47.7 23.9-25.1-50.2L368 320l-53.2-17.7 25.1-50.2-50.6 25.3L280 0H264l-9.2 277.4-50.6-25.3zm-156-18.7c.3-10.7 1.4-21.3 3.1-31.6l17.5 17.5L80 230.6 102.6 208 91.3 196.7 60.5 165.9C68.8 142.2 81 120.3 96.3 101c-.2 3.6-.3 7.3-.3 11c0 44.9 16.8 85.8 44.4 116.9C122.5 254.8 112 286.2 112 320c0 44.5 18.1 84.7 47.4 113.7c-54.9-32-94.9-86.6-107.4-151l16.6 16.6L80 310.6 102.6 288 91.3 276.7 48.1 233.5zm447.8 0l-43.2 43.2L441.4 288 464 310.6l11.3-11.3 16.6-16.6c-12.4 64.4-52.5 119.1-107.4 151c29.3-29 47.4-69.2 47.4-113.7c0-33.8-10.5-65.2-28.4-91.1c27.6-31.1 44.4-72 44.4-116.9c0-3.7-.1-7.4-.3-11c15.3 19.3 27.5 41.2 35.8 64.9l-30.8 30.8L441.4 208 464 230.6l11.3-11.3 17.5-17.5c1.8 10.3 2.8 20.9 3.1 31.6z"/></svg>