<svg xmlns="http://www.w3.org/2000/svg" viewBox="0 0 576 512"><!--! Font Awesome Pro 6.3.0 by @fontawesome - https://fontawesome.com License - https://fontawesome.com/license (Commercial License) Copyright 2023 Fonticons, Inc. --><path d="M264 0H248.8l-6.5 13.8-64 136-2.3 4.9V160v42.6L48 281.9V248 224H0v24V392v24H48V392v-8H170.6l-38.2 54.2-4.4 6.2V452v36 24h24H392h24V488 452v-7.6l-4.4-6.2L373.4 384H496v8 24h48V392 248 224H496v24 33.9L368 202.6V160v-5.4l-2.3-4.9-64-136L295.2 0H280 264zM56 333.4l120-74.3V336H56v-2.6zm312-74.3l120 74.3V336H368V259.1zM224 165.4l48-102 48 102V384v7.6l4.4 6.2L368 459.6V464H296V424 400H248v24 40H176v-4.4l43.6-61.8 4.4-6.2V384 165.4z"/></svg>