<svg xmlns="http://www.w3.org/2000/svg" viewBox="0 0 640 512"><!--! Font Awesome Pro 6.3.0 by @fontawesome - https://fontawesome.com License - https://fontawesome.com/license (Commercial License) Copyright 2023 Fonticons, Inc. --><path d="M441.6 41.5l9.5-22L407 .5l-9.5 22-193.1 448-9.5 22 44.1 19 9.5-22 193.1-448zM.4 96L137.1 401.8l6.4 14.2h31.1l6.4-14.2L317.6 96H265L159 333.2 53 96H.4zm463.1 0l-6.3 14.2L320.4 416H373l28.6-64H556.4L585 416h52.6L500.9 110.2 494.6 96H463.4zM479 178.8L535 304H423l56-125.2z"/></svg>