<svg xmlns="http://www.w3.org/2000/svg" viewBox="0 0 640 512"><!--! Font Awesome Pro 6.3.0 by @fontawesome - https://fontawesome.com License - https://fontawesome.com/license (Commercial License) Copyright 2023 Fonticons, Inc. --><path d="M157.5 205.8L170.7 191l36.9-41.5c6.9-7.8 10.7-17.8 10.7-28.2c0-14-7.2-27.6-22.1-37.5c-5.6-3.8-20.6-8.9-41.4-8.4c-31.2 .9-57.5 18.8-77.9 51.5C56.2 160 45.2 203.5 45.2 240.9c0 27.2 6.1 56.2 18.2 76.7c10.9 18.5 25.3 28.7 48 28.7c33.1 0 57.3-29 55-52.4l-6.8-68.5-2-19.7zM111.4 391.5C28.1 391.5 0 305.9 0 240.9C0 151 51.7 32.9 153.6 30.1c27.2-.7 52.1 5.5 67.7 15.9c25.6 17 42.3 43.8 42.3 75.1c0 21.5-7.9 42.2-22.2 58.3L212 212.5l61.6 30.8 12.5 6.2v14V489.4 512H240.9V489.4 277.5l-32.5-16.2 2.8 28.2c5.5 54.7-45 102.1-99.9 102.1zM393.9 261.3l-32.5 16.2V489.4 512H316.2V489.4 263.5v-14l12.5-6.2 61.6-30.8L361 179.4c-14.3-16.1-22.2-36.8-22.2-58.3c0-31.3 16.7-58.1 42.3-75.1c15.6-10.4 40.6-16.7 67.7-15.9C550.6 32.9 602.4 151 602.4 240.9c0 65-28.1 150.6-111.4 150.6c-54.9 0-105.4-47.4-99.9-102.1l2.8-28.2zM431.7 191l13.2 14.8-2 19.7L436 293.9c-2.3 23.5 21.9 52.4 55 52.4c22.7 0 37.1-10.3 48-28.7c12.1-20.5 18.2-49.5 18.2-76.7c0-37.4-11-81-31.7-114.2c-20.4-32.7-46.6-50.6-77.9-51.5c-20.8-.6-35.8 4.6-41.4 8.4c-14.9 10-22.1 23.5-22.1 37.5c0 10.4 3.8 20.5 10.7 28.2L431.7 191z"/></svg>