<svg xmlns="http://www.w3.org/2000/svg" viewBox="0 0 576 512"><!--! Font Awesome Pro 6.3.0 by @fontawesome - https://fontawesome.com License - https://fontawesome.com/license (Commercial License) Copyright 2023 Fonticons, Inc. --><path d="M365.9 180.7L471.2 75.4C474.1 84 476 93.6 476 104c0 22.5-12.9 51.6-47.7 94.1c-27.1 33.1-62.5 68.6-104.3 110.1l-31.5-31.5-11.3-11.3 84.7-84.7zM524 104c0-26-7.5-48-16.3-65C499.3 23 489.7 11.4 484 5.2c-3.2-3.4-5.2-5.2-5.2-5.2L332 146.7l-84.7 84.7-17.9 17.9 0 0L.7 478.1 34.6 512 247.3 299.3l0 0 11.3 11.3 31.4 31.4L324 376l.1-.1c9.4-9.4 18.6-18.5 27.6-27.5l0 0C449.2 251.5 524 177.2 524 104z"/></svg>