<svg xmlns="http://www.w3.org/2000/svg" viewBox="0 0 640 512"><!--! Font Awesome Pro 6.3.0 by @fontawesome - https://fontawesome.com License - https://fontawesome.com/license (Commercial License) Copyright 2023 Fonticons, Inc. --><path d="M322 24V168v24H274V168 24 0h48V24zM47.7 132.3l104 72 19.7 13.7-27.3 39.5-19.7-13.7-104-72L.6 158.1l27.3-39.5 19.7 13.7zm528 39.5l-104 72-19.7 13.7-27.3-39.5 19.7-13.7 104-72 19.7-13.7 27.3 39.5-19.7 13.7zM170 288H426v64h64l44.8 112L554 512H502.3 93.7 42l19.2-48L106 352h64V288zM138.5 400l-25.6 64H483.1l-25.6-64h-319z"/></svg>