<svg xmlns="http://www.w3.org/2000/svg" viewBox="0 0 512 512"><!--! Font Awesome Pro 6.3.0 by @fontawesome - https://fontawesome.com License - https://fontawesome.com/license (Commercial License) Copyright 2023 Fonticons, Inc. --><path d="M24 40H0V88H24 200h24V40H200 24zm0 128H0v48H24 200h24V168H200 24zM0 296v48H24 200h24V296H200 24 0zM24 424H0v48H24 200h24V424H200 24zM288 168v48h24H488h24V168H488 312 288zM312 40H288V88h24H488h24V40H488 312zM288 296v48h24H488h24V296H488 312 288zm24 128H288v48h24H488h24V424H488 312z"/></svg>