<svg xmlns="http://www.w3.org/2000/svg" viewBox="0 0 640 512"><!--! Font Awesome Pro 6.3.0 by @fontawesome - https://fontawesome.com License - https://fontawesome.com/license (Commercial License) Copyright 2023 Fonticons, Inc. --><path d="M48.4 14.8L29.4 .1 0 38 19 52.7 591.5 497.2l19 14.7L639.9 474l-19-14.7-74.4-57.7C601.7 376.3 640 320.6 640 256c0-88.4-71.6-160-160-160H376 352v48h24H480c61.9 0 112 50.1 112 112c0 54.7-39.3 100.3-91.2 110.1L390 280h34 24V232H424 328.2L214.8 144H264h24V96H264 160c-2.3 0-4.6 0-6.8 .1L48.4 14.8zm4.2 122.6C20.3 166.7 0 209 0 256c0 88.4 71.6 160 160 160H264h24V368H264 160C98.1 368 48 317.9 48 256c0-35.8 16.8-67.8 43-88.3L52.6 137.4z"/></svg>