<svg xmlns="http://www.w3.org/2000/svg" viewBox="0 0 576 512"><!--! Font Awesome Pro 6.3.0 by @fontawesome - https://fontawesome.com License - https://fontawesome.com/license (Commercial License) Copyright 2023 Fonticons, Inc. --><path d="M155.9 69.4l13.4-14.9L139.5 27.8 126.1 42.6 68.2 107 43.1 81.9 29 67.7 .7 96l14.1 14.1 40 40L69.8 165l14.1-15.7 72-80zm0 160l13.4-14.9-29.7-26.8-13.4 14.9L68.2 267 43.1 241.9 29 227.7 .7 256l14.1 14.1 40 40L69.8 325l14.1-15.7 72-80zM197 72v48h24H493h24V72H493 221 197zm0 160v48h24H493h24V232H493 221 197zM165 392v48h24H493h24V392H493 189 165zm-64 24a32 32 0 1 0 -64 0 32 32 0 1 0 64 0z"/></svg>