<svg xmlns="http://www.w3.org/2000/svg" viewBox="0 0 640 512"><!--! Font Awesome Pro 6.3.0 by @fontawesome - https://fontawesome.com License - https://fontawesome.com/license (Commercial License) Copyright 2023 Fonticons, Inc. --><path d="M74 256a128 128 0 1 1 256 0A128 128 0 1 1 74 256zm302.4-24C364.7 146.2 291.1 80 202 80C104.8 80 26 158.8 26 256s78.8 176 176 176c89.1 0 162.7-66.2 174.4-152H410v48 24h48V328 280h78.1l-31 31-17 17L522 361.9l17-17 72-72 17-17-17-17-72-72-17-17L488.1 184l17 17 31 31H458V184 160H410v24 48H376.4z"/></svg>