<svg xmlns="http://www.w3.org/2000/svg" viewBox="0 0 448 512"><!--! Font Awesome Pro 6.3.0 by @fontawesome - https://fontawesome.com License - https://fontawesome.com/license (Commercial License) Copyright 2023 Fonticons, Inc. --><path d="M40 232l33.9-33.9L103 169l87 87-87 87L73.9 313.9 40 280 6.1 313.9 0 320V432v48l48 0H160l6.1-6.1L200 440l-33.9-33.9L137 377l87-87 87 87-29.1 29.1L248 440l33.9 33.9L288 480H400l48 0V432 320l-6.1-6.1L408 280l-33.9 33.9L345 343l-87-87 87-87 29.1 29.1L408 232l33.9-33.9L448 192V80l0-48H400 288l-6.1 6.1L248 72l33.9 33.9L311 135l-87 87-87-87 29.1-29.1L200 72 166.1 38.1 160 32H48 0V80 192l6.1 6.1L40 232zm8-75.9L48 80h76.1L48 156.1zM124.1 432H48l0-76.1L124.1 432zm199.8 0L400 355.9V432H323.9zm0-352L400 80v76.1L323.9 80z"/></svg>