<svg xmlns="http://www.w3.org/2000/svg" viewBox="0 0 384 512"><!--! Font Awesome Pro 6.3.0 by @fontawesome - https://fontawesome.com License - https://fontawesome.com/license (Commercial License) Copyright 2023 Fonticons, Inc. --><path d="M34.6 0C46 28.6 65.7 52.9 90.9 69.9C36.7 99.9 0 157.7 0 224c0 89.1 66.2 162.7 152 174.4V424H120 96v48h24 32v16 24h48V488 472h32 24V424H232 200V398.4c85.8-11.7 152-85.3 152-174.4c0-66.3-36.7-124.1-90.9-154.1C286.3 52.9 306 28.6 317.4 0H263.7C245.2 28.9 212.8 48 176 48s-69.2-19.1-87.7-48H34.6zM176 96a128 128 0 1 1 0 256 128 128 0 1 1 0-256z"/></svg>