<svg xmlns="http://www.w3.org/2000/svg" viewBox="0 0 640 512"><!--! Font Awesome Pro 6.3.0 by @fontawesome - https://fontawesome.com License - https://fontawesome.com/license (Commercial License) Copyright 2023 Fonticons, Inc. --><path d="M240.9 45.2c66.4 0 125.1 33.1 160.5 83.6c6.6-5.7 13.4-11.3 20.2-16.8c14.1 11.4 28 23.1 41.4 35.3C426.5 60.7 340.8 0 240.9 0C107.9 0 0 107.9 0 240.9S107.9 481.9 240.9 481.9c31.4 0 61.5-6 89-17c-11.9-10.9-22.3-23.3-31-36.9c-18.3 5.7-37.8 8.7-58 8.7c-108.1 0-195.8-87.6-195.8-195.8s87.6-195.8 195.8-195.8zm105.4 97.9V120.5H301.2v22.6 45.2 22.6h20.5c5.6-7.2 11.3-14 17-20.6c2.5-2.9 5.1-5.8 7.7-8.7V143.1zm-165.6 0V120.5H135.5v22.6 45.2 22.6h45.2V188.2 143.1zm82.8 0V120.5H218.4v22.6 45.2 22.6h45.2V188.2 143.1zm219.3 67.9c-30.4-35.3-61.1-60.2-61.1-60.2s-120.5 97.5-120.5 180.7s67.4 150.6 150.6 150.6s150.6-67.4 150.6-150.6c0-69.3-90.4-150.6-90.4-150.6s-13 11.7-29.2 30.1zm16 196.6c-14.1 9.4-29.2 14.1-46.1 14.1c-42.4 0-76.2-27.3-76.2-73.4c0-22.6 14.1-42.4 42.4-77.2c3.8 4.7 58.4 74.4 58.4 74.4l33.9-39.5c2.8 3.8 4.7 7.5 6.6 11.3c16.9 31.1 9.4 70.6-18.8 90.4z"/></svg>