<svg xmlns="http://www.w3.org/2000/svg" viewBox="0 0 640 512"><!--! Font Awesome Pro 6.3.0 by @fontawesome - https://fontawesome.com License - https://fontawesome.com/license (Commercial License) Copyright 2023 Fonticons, Inc. --><path d="M272 48V188.4l95.6 74.2c.3-2.2 .4-4.4 .4-6.6V192H336 320V160h16 32V128H336 320V96h16 32V48H272zM224 151.1V48 0h48 96 48V48 256c0 13.5-2.8 26.4-7.9 38.1L434 314.2c8.9-17.5 14-37.2 14-58.2V216 192h48v24 40c0 32.1-8.6 62.1-23.6 88L620.9 459.3l19 14.7-29.4 37.9-19-14.7L19 52.7 0 38 29.4 .1l19 14.7L224 151.1zm-80 58.3l48 37.8V256c0 70.7 57.3 128 128 128c13.3 0 26.1-2 38.2-5.8l43.1 33.9c-17.6 9.2-36.9 15.4-57.3 18.2V464h48 24v48H392 320 248 224V464h24 48V430.4C210.2 418.7 144 345.1 144 256V216v-6.5z"/></svg>