<svg xmlns="http://www.w3.org/2000/svg" viewBox="0 0 384 512"><!--! Font Awesome Pro 6.3.0 by @fontawesome - https://fontawesome.com License - https://fontawesome.com/license (Commercial License) Copyright 2023 Fonticons, Inc. --><path d="M128 48h96V256c0 26.5-21.5 48-48 48s-48-21.5-48-48V48zM80 0V48 256c0 53 43 96 96 96s96-43 96-96V48 0H224 128 80zM48 216V192H0v24 40c0 89.1 66.2 162.7 152 174.4V464H104 80v48h24 72 72 24V464H248 200V430.4c85.8-11.7 152-85.3 152-174.4V216 192H304v24 40c0 70.7-57.3 128-128 128s-128-57.3-128-128V216z"/></svg>