<svg xmlns="http://www.w3.org/2000/svg" viewBox="0 0 448 512"><!--! Font Awesome Pro 6.3.0 by @fontawesome - https://fontawesome.com License - https://fontawesome.com/license (Commercial License) Copyright 2023 Fonticons, Inc. --><path d="M150.1 252L66.2 468.7 106 484.1l44.1-113.9v35.1 21.3h42.7V405.3 260l39.4-101.7c4.5-1.2 9.1-1.8 14-1.8c29.5 0 53.3 23.9 53.3 53.3V405.3v21.3h42.7V405.3 209.8c0-51.9-41.2-94.2-92.8-95.9l27.3-70.6L236.9 27.9l-38.1 98.4c-10.5 6-19.8 13.9-27.4 23.2c-17.6-21.7-44.5-35.7-74.7-35.7c-19.7 0-38.1 6-53.3 16.2V113.8H.8v96 3.6 192 21.3H43.4V405.3v-192-3.6c0-29.5 23.9-53.3 53.3-53.3s53.3 23.9 53.3 53.3V252z"/></svg>