<svg xmlns="http://www.w3.org/2000/svg" viewBox="0 0 512 512"><!--! Font Awesome Pro 6.3.0 by @fontawesome - https://fontawesome.com License - https://fontawesome.com/license (Commercial License) Copyright 2023 Fonticons, Inc. --><path d="M34 6.1L.1 40 17 57l64 64L51.9 150.1 18 184l33.9 33.9L58 224l112 0h48l0-48 0-112-6.1-6.1L178 24 144.1 57.9 115 87 51 23 34 6.1zM499.9 40L466 6.1 449 23 385 87 355.9 57.9 322 24 288.1 57.9 282 64V176v48h48l112 0 6.1-6.1L482 184l-33.9-33.9L419 121l64-64 17-17zM51.9 361.9L81 391 17 455 .1 472 34 505.9l17-17 64-64 29.1 29.1L178 488l33.9-33.9L218 448V336 288H170 58l-6.1 6.1L18 328l33.9 33.9zM419 391l29.1-29.1L482 328l-33.9-33.9L442 288H330 282v48V448l6.1 6.1L322 488l33.9-33.9L385 425l64 64 17 17L499.9 472l-17-17-64-64zM170 412.1L93.9 336H170v76.1zm160 0V336h76.1L330 412.1zm0-312.2L406.1 176 330 176V99.9zm-160 0V176l-76.1 0L170 99.9z"/></svg>