<svg xmlns="http://www.w3.org/2000/svg" viewBox="0 0 512 512"><!--! Font Awesome Pro 6.3.0 by @fontawesome - https://fontawesome.com License - https://fontawesome.com/license (Commercial License) Copyright 2023 Fonticons, Inc. --><path d="M0 272C0 139.5 107.5 32 240 32s240 107.5 240 240v24 24H456 24 0V296 272zM130.2 114.5C80.5 149.2 48 206.8 48 272H432c0-18.7-2.7-36.8-7.7-53.9C415.8 231.3 400.9 240 384 240c-26.5 0-48-21.5-48-48c0-26.2 21-47.5 47.1-48c-25-28-58.2-48.6-95.8-58.1c.4 3.3 .6 6.7 .6 10.1c0 44.2-35.8 80-80 80c-37.8 0-69.5-26.2-77.8-61.5zM163.7 352h48.6l-12.3 80h80.1l-12.3-80h48.6l12.3 80 7.4 48H287.4 192.6 144l7.4-48 12.3-80zM128 176a32 32 0 1 1 0 64 32 32 0 1 1 0-64z"/></svg>