<svg xmlns="http://www.w3.org/2000/svg" viewBox="0 0 576 512"><!--! Font Awesome Pro 6.3.0 by @fontawesome - https://fontawesome.com License - https://fontawesome.com/license (Commercial License) Copyright 2023 Fonticons, Inc. --><path d="M482.1 29.9V60.2 165.6 376.5s0 0 0 0c0 41.6-40.5 75.3-90.4 75.3s-90.4-33.7-90.4-75.3s40.5-75.3 90.4-75.3c16.5 0 31.9 3.7 45.2 10.1V196l-256 76.8V436.7v0c0 41.6-40.5 75.3-90.4 75.3S.2 478.3 .2 436.7s40.5-75.3 90.4-75.3c16.5 0 31.9 3.7 45.2 10.1V256 150.6 133.8l16.1-4.8L453 38.6l29.1-8.7zM436.9 376.5c0-9.3-12.2-30.1-45.2-30.1s-45.2 20.8-45.2 30.1s12.2 30.1 45.2 30.1s45.2-20.8 45.2-30.1c0 0 0 0 0 0zM90.6 406.6c-33 0-45.2 20.8-45.2 30.1s12.2 30.1 45.2 30.1s45.2-20.8 45.2-30.1v0c0-9.3-12.2-30.1-45.2-30.1zm90.4-180.9l256-76.8V90.6l-256 76.8v58.2z"/></svg>