<svg xmlns="http://www.w3.org/2000/svg" viewBox="0 0 640 512"><!--! Font Awesome Pro 6.3.0 by @fontawesome - https://fontawesome.com License - https://fontawesome.com/license (Commercial License) Copyright 2023 Fonticons, Inc. --><path d="M352 128v19.7l112-25.8V60.3L352 86.2V128zm0 122.5L620.9 459.3l19 14.7-29.4 37.9-19-14.7L19 52.7 0 38 29.4 .1l19 14.7L304 213.2V208 158.7 128 48L464 11.1 512 0V49.3 160L352 196.9v53.6zM304 366.3V335.5l48 37.8V432c0 44.2-50.1 80-112 80s-112-35.8-112-80s50.1-80 112-80c23.8 0 45.9 5.3 64 14.3zm-12.7 48.2c-11.2-8-29.2-14.5-51.3-14.5s-40.1 6.5-51.3 14.5C177.4 422.6 176 429.4 176 432s1.4 9.4 12.7 17.5c11.2 8 29.2 14.5 51.3 14.5s40.1-6.5 51.3-14.5c11.3-8.1 12.7-14.9 12.7-17.5s-1.4-9.4-12.7-17.5z"/></svg>