<svg xmlns="http://www.w3.org/2000/svg" viewBox="0 0 640 512"><!--! Font Awesome Pro 6.3.0 by @fontawesome - https://fontawesome.com License - https://fontawesome.com/license (Commercial License) Copyright 2023 Fonticons, Inc. --><path d="M542.1 60.2V29.9L513 38.6 211.9 129l-16.1 4.8v16.8 10.1L45.5 44 27.7 30.2 0 65.9 17.8 79.7 556.7 498.1l17.8 13.9 27.7-35.7-17.8-13.9L527.2 418c9.4-11.9 14.9-26.2 14.9-41.5v0V165.6 60.2zM491.3 390.1L437 347.9c4.4-1 9.3-1.6 14.8-1.6c33 0 45.2 20.8 45.2 30.1v0c0 3.5-1.7 8.6-5.6 13.7zm-94.5-73.4l-84.2-65.4L496.9 196V311.3c-13.3-6.4-28.7-10.1-45.2-10.1c-20.7 0-39.8 5.8-55 15.5zM268.7 217.3l-27.8-21.6V167.4l256-76.8v58.2L268.7 217.3zm-27.8 93l-45.2-35.6v96.8c-13.3-6.4-28.7-10.1-45.2-10.1c-49.9 0-90.4 33.7-90.4 75.3s40.5 75.3 90.4 75.3s90.4-33.7 90.4-75.3v0V310.3zM195.8 436.7v0c0 9.3-12.2 30.1-45.2 30.1s-45.2-20.8-45.2-30.1s12.2-30.1 45.2-30.1s45.2 20.8 45.2 30.1z"/></svg>