<svg xmlns="http://www.w3.org/2000/svg" viewBox="0 0 512 512"><!--! Font Awesome Pro 6.3.0 by @fontawesome - https://fontawesome.com License - https://fontawesome.com/license (Commercial License) Copyright 2023 Fonticons, Inc. --><path d="M96 32h24H488h24V56 456v24H488 144 120 72 48 24 0V456 112 88H48v24V432H72 96V56 32zm48 400H464V80H144V432zm32-320H432V240H176V112zm24 160h64 24v48H264 200 176V272h24zm144 0h64 24v48H408 344 320V272h24zM200 352h64 24v48H264 200 176V352h24zm144 0h64 24v48H408 344 320V352h24z"/></svg>