<svg xmlns="http://www.w3.org/2000/svg" viewBox="0 0 448 512"><!--! Font Awesome Pro 6.3.0 by @fontawesome - https://fontawesome.com License - https://fontawesome.com/license (Commercial License) Copyright 2023 Fonticons, Inc. --><path d="M400 176L48 176l0-64 352 0 0 64zm48-64l0-48-48 0L248 64l0-64L200 0l0 64L48 64 0 64l0 48 0 64 0 48 48 0 152 0 0 64-88 0-48 0 0 48 0 64 0 48 48 0 88 0 0 64 48 0 0-64 88 0 48 0 0-48 0-64 0-48-48 0-88 0 0-64 152 0 48 0 0-48 0-64zM336 400l-224 0 0-64 224 0 0 64z"/></svg>