<svg xmlns="http://www.w3.org/2000/svg" viewBox="0 0 512 512"><!--! Font Awesome Pro 6.3.0 by @fontawesome - https://fontawesome.com License - https://fontawesome.com/license (Commercial License) Copyright 2023 Fonticons, Inc. --><path d="M377 73c-26-26-68.1-26-94.1 0L91 265C47.3 308.6 47.3 379.4 91 423s114.4 43.6 158.1 0L401 271l17-17L451.9 288l-17 17L283 457c-62.4 62.4-163.5 62.4-225.9 0S-5.4 293.4 57 231L249 39C293.7-5.7 366.2-5.7 411 39s44.7 117.2 0 161.9L227.2 384.7c-31.6 31.6-83.6 28.7-111.5-6.2c-23.8-29.8-21.5-72.8 5.5-99.8L273 127l17-17L323.9 144l-17 17L155.2 312.7c-9.7 9.7-10.6 25.1-2 35.8c10 12.5 28.7 13.6 40 2.2L377 167c26-26 26-68.1 0-94.1z"/></svg>