<svg xmlns="http://www.w3.org/2000/svg" viewBox="0 0 640 512"><!--! Font Awesome Pro 6.3.0 by @fontawesome - https://fontawesome.com License - https://fontawesome.com/license (Commercial License) Copyright 2023 Fonticons, Inc. --><path d="M463.4 59.9L313.6 220.7l47.1 36.6L516.1 112.6c7.6-7.1 11.9-17 11.9-27.3C528 64.7 511.3 48 490.7 48c-10.4 0-20.2 4.3-27.3 11.9zM275.6 191.2l152.7-164C444.4 9.8 467 0 490.7 0C537.8 0 576 38.2 576 85.3c0 23.7-9.8 46.3-27.2 62.4L399.1 287.1 620.9 459.3l19 14.7-29.4 37.9-19-14.7L19 52.7 0 38 29.4 .1l19 14.7L275.6 191.2zm9 135.3l49.1 38.7-15.3 49.6c-7 22.8-24.9 40.6-47.6 47.6L115.9 510.1c-30.7 9.4-59.4-19.3-50-50l47.6-154.8c7-22.8 24.9-40.6 47.6-47.6l25.8-7.9 45.8 36.1-57.5 17.7c-7.6 2.3-13.5 8.3-15.9 15.9L126.3 427 176 377.3c0-.4 0-.9 0-1.3c0-13.3 10.7-24 24-24s24 10.7 24 24s-10.7 24-24 24c-.4 0-.9 0-1.3 0L149 449.7l107.7-33.1c7.6-2.3 13.5-8.3 15.9-15.9l20.3-65.9-8.2-8.2z"/></svg>