<svg xmlns="http://www.w3.org/2000/svg" viewBox="0 0 640 512"><!--! Font Awesome Pro 6.3.0 by @fontawesome - https://fontawesome.com License - https://fontawesome.com/license (Commercial License) Copyright 2023 Fonticons, Inc. --><path d="M48.4 14.8L29.4 .1 0 38 19 52.7 591.5 497.2l19 14.7L639.9 474l-19-14.7L448.8 325.7 476.2 225l10.4-10.4 71-71c21.9-21.9 21.9-57.3 0-79.2L511.6 18.3c-21.9-21.9-57.3-21.9-79.2 0l-71 71L351 99.8 208 138.7 48.4 14.8zM255.5 175.6l105.4-28.7 68.3 68.3-21.4 78.7L255.5 175.6zM272 352c13.5 0 25.7-5.6 34.4-14.6l-75-59.1c-4.7 7.4-7.4 16.2-7.4 25.7c0 7.4 1.7 14.4 4.7 20.7L126.5 426.9l63.6-181.1-39.8-31.4L71 440c-6.5 18.5-1.8 39.1 12 52.9s34.4 18.5 52.9 12l264.1-92.8 .8-.3-44.7-35.2L149.1 449.5 251.3 347.3c6.3 3 13.3 4.7 20.7 4.7z"/></svg>