<svg xmlns="http://www.w3.org/2000/svg" viewBox="0 0 640 512"><!--! Font Awesome Pro 6.3.0 by @fontawesome - https://fontawesome.com License - https://fontawesome.com/license (Commercial License) Copyright 2023 Fonticons, Inc. --><path d="M48.4 14.8L29.4 .1 0 38 19 52.7 591.5 497.2l19 14.7L639.9 474l-19-14.7L410.2 295.7 556.7 149.3c25-25 25-65.5 0-90.5L517.3 19.3c-25-25-65.5-25-90.5 0L384 62.1 370.9 49c-28.1-28.1-73.7-28.1-101.8 0l-77.2 77.2L48.4 14.8zM230.1 155.9L303 82.9c9.4-9.4 24.6-9.4 33.9 0L350.1 96l-86.1 86.1-33.8-26.3zm72.1 55.9L384 129.9 446.1 192l-74 74-69.9-54.2zM197.5 316.5l36.3-36.3-38-29.9-32.3 32.3c-48 48-80.8 109.2-94.1 175.8l-5 25c-1.6 7.9 .9 16 6.6 21.7s13.8 8.1 21.7 6.6l25-5c66.6-13.3 127.8-46.1 175.8-94.1l47.7-47.7-38-29.9-43.6 43.6c-38.8 38.8-87.5 66-140.7 78.6c12.7-53.2 39.9-101.9 78.6-140.7z"/></svg>