<svg xmlns="http://www.w3.org/2000/svg" viewBox="0 0 640 512"><!--! Font Awesome Pro 6.3.0 by @fontawesome - https://fontawesome.com License - https://fontawesome.com/license (Commercial License) Copyright 2023 Fonticons, Inc. --><path d="M159 96a48 48 0 1 0 0-96 48 48 0 1 0 0 96zm-51.1 32H93.8l-6.9 12.4-75.3 136L0 297.4l42 23.3 11.6-21L99 217.7 62 336 47 384H95V488v24h48V488 384h32V488v24h48V488 384h48l-15-48L219 217.7l45.4 81.9 11.6 21 42-23.3-11.6-21-75.3-136L224.2 128H210.1 191 127 107.9zm4.4 208L159 186.5 205.7 336H112.3zM479 96a48 48 0 1 0 0-96 48 48 0 1 0 0 96zm-51.1 32H413.8l-6.9 12.4-75.3 136-11.6 21 42 23.3 11.6-21L419 217.7 382 336l-15 48h48V488v24h48V488 384h32V488v24h48V488 384h48l-15-48L539 217.7l45.4 81.9 11.6 21 42-23.3-11.6-21-75.3-136L544.2 128H530.1 511 447 427.9zM479 186.5L525.7 336H432.3L479 186.5z"/></svg>