<svg xmlns="http://www.w3.org/2000/svg" viewBox="0 0 576 512"><!--! Font Awesome Pro 6.3.0 by @fontawesome - https://fontawesome.com License - https://fontawesome.com/license (Commercial License) Copyright 2023 Fonticons, Inc. --><path d="M112 48A48 48 0 1 0 16 48a48 48 0 1 0 96 0zM0 128l0 24L0 488l0 24 48 0 0-24 0-136H80V488v24h48V488 285.1L80 215.7v.3 88H48l0-128H91.4l64.8 93.7 7.2 10.3H176h48 24V232H224 188.6l-64.8-93.7L116.6 128H104 24 0zM384 96a48 48 0 1 0 0-96 48 48 0 1 0 0 96zM256.6 165.5L261 184h19 40V488v24h48V488 352h32V488v24h48V488 184h40 19l4.4-18.5 32-136-46.7-11L469 136l-170 0L271.4 18.5l-46.7 11 32 136zM400 184V304H368V184h32z"/></svg>