<svg xmlns="http://www.w3.org/2000/svg" viewBox="0 0 640 512"><!--! Font Awesome Pro 6.3.0 by @fontawesome - https://fontawesome.com License - https://fontawesome.com/license (Commercial License) Copyright 2023 Fonticons, Inc. --><path d="M330.2 11.3L318 4.1l-12.2 7.2L21 179.3 .3 191.5l24.4 41.3 20.7-12.2L318 59.9 590.6 220.7l20.7 12.2 24.4-41.3L615 179.3 330.2 11.3zM494 336a40 40 0 1 0 0-80 40 40 0 1 0 0 80zm-48 16H432l-44.9-83.4L380.3 256H366 270 255.7l-6.8 12.6L204 352H190 94 79.9L73 364.3 17 465.1l-11.7 21 42 23.3 11.7-21 19-34.2V488v24h24 80 24V488 454.2l19 34.2 11.7 21 42-23.3-11.7-21-35.2-63.4 3.4-6.3 18.9-35V408v24h24 80 24V408 360.3l18.9 35 3.4 6.3L369 465.1l-11.7 21 42 23.3 11.7-21 19-34.2V488v24h24 80 24V488 454.2l19 34.2 11.7 21 42-23.3-11.7-21L563 364.3 556.1 352H542 446zm32 112V400h32v64H478zM358 200a40 40 0 1 0 -80 0 40 40 0 1 0 80 0zM302 304h32v80H302V304zM142 336a40 40 0 1 0 0-80 40 40 0 1 0 0 80zM126 464V400h32v64H126z"/></svg>