<svg xmlns="http://www.w3.org/2000/svg" viewBox="0 0 512 512"><!--! Font Awesome Pro 6.3.0 by @fontawesome - https://fontawesome.com License - https://fontawesome.com/license (Commercial License) Copyright 2023 Fonticons, Inc. --><path d="M104 0a64 64 0 1 1 0 128A64 64 0 1 1 104 0zM50 304H88h32 38l-4-96H54l-4 96zm158 48H168V488v24H120V488 352H88V488v24H40V488 352H0l2-48L8 160H200l6 144 2 48zM360 0a64 64 0 1 1 0 128A64 64 0 1 1 360 0zM306 304h38 32 38l-4-96H310l-4 96zm158 48H424V488v24H376V488 352H344V488v24H296V488 352H256l2-48 6-144H456l6 144 2 48z"/></svg>