<svg xmlns="http://www.w3.org/2000/svg" viewBox="0 0 640 512"><!--! Font Awesome Pro 6.3.0 by @fontawesome - https://fontawesome.com License - https://fontawesome.com/license (Commercial License) Copyright 2023 Fonticons, Inc. --><path d="M40 64a64 64 0 1 1 128 0A64 64 0 1 1 40 64zM54 208l-4 96H80.8l39.6 39.6L168 391.2V488v24H120V488 352H88V488v24H40V488 352H0l2-48L8 160H200l1 23.8-16.6 16.6-29.5 29.5L154 208H54zM424 488V391.2l47.6-47.6L511.2 304H542l-4-96H438l-.9 21.9-29.5-29.5L391 183.8l1-23.8H584l6 144 2 48H552V488v24H504V488 352H472V488v24H424V488zm0-424a64 64 0 1 1 128 0A64 64 0 1 1 424 64zM241 257l-23 23H374.1l-23-23-17-17L368 206.1l17 17 64 64 17 17-17 17-64 64-17 17L334.1 368l17-17 23-23H217.9l23 23 17 17L224 401.9l-17-17-64-64-17-17 17-17 64-64 17-17L257.9 240l-17 17z"/></svg>