<svg xmlns="http://www.w3.org/2000/svg" viewBox="0 0 640 512"><!--! Font Awesome Pro 6.3.0 by @fontawesome - https://fontawesome.com License - https://fontawesome.com/license (Commercial License) Copyright 2023 Fonticons, Inc. --><path d="M221.7 79L202.9 47.1 175 0 147.1 47.1 128.3 79 91.6 73.8 37.4 66.3l19.4 51.2L70 152 43.1 177.5 3.4 215.2l52.1 16.7 35.2 11.3L94 280l4.7 54.6 45.6-30.3L175 283.7l30.8 20.5 45.6 30.3L256 280l3.2-36.9 35.2-11.3 18.1-5.8 15.9-28.2-21.6-20.4L280 152l13.1-34.6 19.4-51.2-54.2 7.6L221.7 79zM238.9 125l-3.8 10-11.4 29.9 23.2 22 7.7 7.3-10.1 3.3-30.4 9.8-2.7 31.9-.9 10.6-8.9-5.9L175 226l-26.6 17.7-8.9 5.9-.9-10.6-2.7-31.9-30.4-9.8-10.1-3.3 7.7-7.3 23.2-22L114.9 135l-3.8-10 10.6 1.5 31.7 4.4 16.3-27.5 5.4-9.2 5.4 9.2 16.3 27.5 31.7-4.4 10.6-1.5zM479 96a48 48 0 1 0 0-96 48 48 0 1 0 0 96zm-51.1 32H413.8l-6.9 12.4-75.3 136-11.6 21 42 23.3 11.6-21L415 224.9V488v24h48V488 352h32V488v24h48V488 224.9l41.4 74.8 11.6 21 42-23.3-11.6-21-75.3-136L544.2 128H530.1 427.9zM495 304H463V176h32V304z"/></svg>