<svg xmlns="http://www.w3.org/2000/svg" viewBox="0 0 448 512"><!--! Font Awesome Pro 6.3.0 by @fontawesome - https://fontawesome.com License - https://fontawesome.com/license (Commercial License) Copyright 2023 Fonticons, Inc. --><path d="M128 16V64H320V0L128 16zM405.9 40L392 32 376 59.7l13.9 8L299.6 224H272 176 136h-8-5.9l-6.9 12.1L14.4 412.1 2.4 432.9l41.7 23.9L56 435.9l72-125.7V464v48h48 96 48V464 310.3l72 125.7 11.9 20.8 41.7-23.9-11.9-20.8L359.9 283.3l53.4-92.5L384 173.9 447.4 64l-13.9-8L405.9 40zM272 272V403.6L196.8 272H272zM176 464V332.4L251.2 464H176zM144 112c0 44.2 35.8 80 80 80s80-35.8 80-80c0-5.5-.6-10.8-1.6-16H251.7c2.7 4.7 4.3 10.2 4.3 16c0 17.7-14.3 32-32 32s-32-14.3-32-32c0-5.8 1.6-11.3 4.3-16H145.6c-1 5.2-1.6 10.5-1.6 16z"/></svg>