<svg xmlns="http://www.w3.org/2000/svg" viewBox="0 0 384 512"><!--! Font Awesome Pro 6.3.0 by @fontawesome - https://fontawesome.com License - https://fontawesome.com/license (Commercial License) Copyright 2023 Fonticons, Inc. --><path d="M217 48a48 48 0 1 0 -96 0 48 48 0 1 0 96 0zM73 384h32V488v24h48V488 384h16 16V488v24h48V488 384h48 48V336 320c0-46.8-33.4-85.7-77.7-94.3L233 128H193 169 125.6 109.9 95.5l-6.8 12.7-76.9 144L.5 305.9l42.3 22.6 11.3-21.2L73 272.1V336v48zM193 176h.2l11 58.6 6 32.1 32.1 6.2c22.1 4.3 38.8 23.8 38.8 47.1v16H169 121V182.2l0 0V176h3.3H153h16 24z"/></svg>