<svg xmlns="http://www.w3.org/2000/svg" viewBox="0 0 512 512"><!--! Font Awesome Pro 6.3.0 by @fontawesome - https://fontawesome.com License - https://fontawesome.com/license (Commercial License) Copyright 2023 Fonticons, Inc. --><path d="M250 96a48 48 0 1 0 0-96 48 48 0 1 0 0 96zm-51.1 32H184.8l-6.9 12.4-75.3 136L91 297.4l42 23.3 11.6-21L186 224.9V488v24h48V488 352h32V488v24h48V488 224.9l41.4 74.8 11.6 21 42-23.3-11.6-21-75.3-136L315.2 128H301.1 198.9zM266 304H234V176h32V304zM51 23L34 6.1 .1 40 17 57l64 64 17 17L131.9 104 115 87 51 23zM483 57l17-17L466 6.1 449 23 385 87l-17 17L402 137.9l17-17 64-64zM115 425l17-17L98 374.1 81 391 17 455 .1 472 34 505.9l17-17 64-64zM419 391l-17-17L368.1 408l17 17 64 64 17 17L499.9 472l-17-17-64-64z"/></svg>