<svg xmlns="http://www.w3.org/2000/svg" viewBox="0 0 384 512"><!--! Font Awesome Pro 6.3.0 by @fontawesome - https://fontawesome.com License - https://fontawesome.com/license (Commercial License) Copyright 2023 Fonticons, Inc. --><path d="M192 96a48 48 0 1 0 0-96 48 48 0 1 0 0 96zm-91.1 32h-14L80 140.2 3.1 276.2l41.8 23.6L96 209.5V488v24h48V488 352h32V488v24h48V488 214.2l61.6 73.3 15.4 18.4 36.7-30.9-15.4-18.4-100.9-120-7.2-8.6H203.1 100.9zM176 176V304H144V176h32zM328 368c4.4 0 8 3.6 8 8V488v24h48V488 376c0-30.9-25.1-56-56-56s-56 25.1-56 56v8 24h48V384v-8c0-4.4 3.6-8 8-8z"/></svg>