<svg xmlns="http://www.w3.org/2000/svg" viewBox="0 0 320 512"><!--! Font Awesome Pro 6.3.0 by @fontawesome - https://fontawesome.com License - https://fontawesome.com/license (Commercial License) Copyright 2023 Fonticons, Inc. --><path d="M153.3 .3a48 48 0 1 1 11.3 95.3A48 48 0 1 1 153.3 .3zM175 128h35.1 14.1l6.9 12.4 75.3 136 11.6 21-42 23.3-11.6-21L223 224.9V488v24H175V488 352h0V304h0V176h0V128zm-81.2 0h14.1H127h16V237.7L112.3 336H143v48h0V488v24H95V488 384H47l15-48L99 217.7 53.6 299.6 42 320.6 0 297.4l11.6-21 75.3-136L93.8 128z"/></svg>