<svg xmlns="http://www.w3.org/2000/svg" viewBox="0 0 320 512"><!--! Font Awesome Pro 6.3.0 by @fontawesome - https://fontawesome.com License - https://fontawesome.com/license (Commercial License) Copyright 2023 Fonticons, Inc. --><path d="M111 48a48 48 0 1 1 96 0 48 48 0 1 1 -96 0zM93.8 128h14.1H127h64 19.1 14.1l6.9 12.4 75.3 136 11.6 21-42 23.3-11.6-21L219 217.7 256 336l15 48H223V488v24H175V488 384H143V488v24H95V488 384H47l15-48L99 217.7 53.6 299.6 42 320.6 0 297.4l11.6-21 75.3-136L93.8 128zM205.7 336L159 186.5 112.3 336h93.4z"/></svg>