<svg xmlns="http://www.w3.org/2000/svg" viewBox="0 0 448 512"><!--! Font Awesome Pro 6.3.0 by @fontawesome - https://fontawesome.com License - https://fontawesome.com/license (Commercial License) Copyright 2023 Fonticons, Inc. --><path d="M143 96a48 48 0 1 0 0-96 48 48 0 1 0 0 96zM87 128H71.4l-6.3 14.3-64 144 43.9 19.5L87 211.1v68.7c0 17.8 8.5 34.6 22.9 45.2L207 396.2V488v24h48V488 384 371.8l-9.8-7.2-38.2-28V207.3l68 102 13.3 20 39.9-26.6-13.3-20-96-144L211.8 128H199 87zm48 151.8V176h24V301.4l-20.7-15.2c-2.1-1.5-3.3-3.9-3.3-6.5zm175.4 70.1l99.9 144.2 9.1 13.2L445.6 489l-9.1-13.2L337.4 332.6c-3.2 3.7-7 7.1-11.3 10c-5 3.3-10.3 5.7-15.7 7.3zM94.6 353.4L56.6 512h49.4l30.7-127.8-42-30.8z"/></svg>