<svg xmlns="http://www.w3.org/2000/svg" viewBox="0 0 576 512"><!--! Font Awesome Pro 6.3.0 by @fontawesome - https://fontawesome.com License - https://fontawesome.com/license (Commercial License) Copyright 2023 Fonticons, Inc. --><path d="M409 32a48 48 0 1 1 0 96 48 48 0 1 1 0-96zM137 128h24H334.6h9.9l7 7 16 16 17.9 17.9-18.8 16.9-87 78.1H361h24v24 96 19.7l64.2 33.3 37.1-18.5 21.5-10.7 21.5 42.9-21.5 10.7-48 24-10.9 5.5-10.9-5.6-416-216L.6 258.2l22.1-42.6 21.3 11.1 124.1 64.4c-4.3-11.5-2.2-25.4 8.8-35.1l90.7-80H161 137V128zM337 312H208.3L337 378.8V312z"/></svg>