<svg xmlns="http://www.w3.org/2000/svg" viewBox="0 0 512 512"><!--! Font Awesome Pro 6.3.0 by @fontawesome - https://fontawesome.com License - https://fontawesome.com/license (Commercial License) Copyright 2023 Fonticons, Inc. --><path d="M148 128a48 48 0 1 0 0-96 48 48 0 1 0 0 96zm-16 32H102.1l6.5 29.2L135 308.1c5.7 25.6 28.4 43.9 54.7 43.9H307.6l42 107.9 7.4 19 20-4.3 44.8-9.6 23.5-5-10.1-46.9-23.5 5-24.8 5.3L346.4 319.3l-6-15.3H324 255.3l-10.7-48H300h24V208H300 233.9l-6.5-29.2L223.3 160H204 132zm52.7 48l21.3 96H189.7c-3.7 0-7-2.6-7.8-6.3L161.9 208h22.8zM51.6 147.8l-4.2-23.6L.2 132.5l4.2 23.6 48 272L55.9 448H76 252h24V400H252 96.1L51.6 147.8z"/></svg>