<svg xmlns="http://www.w3.org/2000/svg" viewBox="0 0 512 512"><!--! Font Awesome Pro 6.3.0 by @fontawesome - https://fontawesome.com License - https://fontawesome.com/license (Commercial License) Copyright 2023 Fonticons, Inc. --><path d="M192 16V64H384V0L192 16zm48 338.1V272h73.5L240 354.1zM192 272V464v48h48 96 48V464 324.2l64 111.7 11.9 20.8 41.7-23.9-11.9-20.8-100.8-176-4.8-8.4V224l-2.1 0H368l-32 0H240 192l0 0H24 0v48H24 192h0zm144 46.8V384H277.7L336 318.8zM240 432h96v32H240V432zM209.6 96c-1 5.2-1.6 10.5-1.6 16c0 44.2 35.8 80 80 80s80-35.8 80-80c0-5.5-.6-10.8-1.6-16H315.7c2.7 4.7 4.3 10.2 4.3 16c0 17.7-14.3 32-32 32s-32-14.3-32-32c0-5.8 1.6-11.3 4.3-16H209.6z"/></svg>