<svg xmlns="http://www.w3.org/2000/svg" viewBox="0 0 576 512"><!--! Font Awesome Pro 6.3.0 by @fontawesome - https://fontawesome.com License - https://fontawesome.com/license (Commercial License) Copyright 2023 Fonticons, Inc. --><path d="M288.4 369.2l31.9 18.4 26-26 33.2-33.2L473.7 366l-17.8 97.9C241.4 459.7 68.3 286.6 64.1 72L162 54.2l37.7 94.2-33.2 33.2-26 26 18.4 31.9c31 53.8 75.8 98.6 129.6 129.6zM528 336L368 272l-55.6 55.6c-46.5-26.8-85.2-65.5-112-112L256 160 192 0 16 32l0 32c0 247.4 200.6 448 448 448h32l32-176zM408 224h48V200 136h64 24V88H520 456V24 0H408V24 88H344 320v48h24 64v64 24z"/></svg>