<svg xmlns="http://www.w3.org/2000/svg" viewBox="0 0 640 512"><!--! Font Awesome Pro 6.3.0 by @fontawesome - https://fontawesome.com License - https://fontawesome.com/license (Commercial License) Copyright 2023 Fonticons, Inc. --><path d="M557.2 45.2H225.9V256h14.7l65-88.7 18.2-24.8L342 167.3l9.7 13.2 60-74.2 17.6-21.8 17.6 21.8 35.4 43.9L346.4 195.4V301.2H225.9 180.7V256 45.2 0h45.2H557.2h45.2V45.2v64.9l-45.2 15.1v-80zM150.6 376.5H306.9c-2.1 1.3-4.1 2.7-6.1 4.2c-13 9.7-23.8 23.8-27.9 41H150.6 128 105.4 45.2 0V376.5 150.6 105.4H45.2h60.2H128h22.6v45.2 67.8 82.8 7.5 67.8zM286.1 75.3a30.1 30.1 0 1 1 0 60.2 30.1 30.1 0 1 1 0-60.2zM105.4 195.8V150.6H45.2v45.2h60.2zm0 180.7V331.3H45.2v45.2h60.2zm0-90.4V240.9H45.2v45.2h60.2zM602.4 143.1v31.3 45.2V370.2c0 1.1-.1 2.3-.3 3.4c.2 1.4 .3 2.8 .3 4.2c0 24.9-27 45.2-60.2 45.2s-60.2-20.2-60.2-45.2s27-45.2 60.2-45.2c5.2 0 10.2 .5 15.1 1.4v-83L421.6 296.1V437.9c0 24.9-27 45.2-60.2 45.2s-60.2-20.2-60.2-45.2s27-45.2 60.2-45.2c5.2 0 10.2 .5 15.1 1.4V279.8 234.6 218.4l15.4-5.1L572.6 153l29.7-9.9z"/></svg>