<svg xmlns="http://www.w3.org/2000/svg" viewBox="0 0 576 512"><!--! Font Awesome Pro 6.3.0 by @fontawesome - https://fontawesome.com License - https://fontawesome.com/license (Commercial License) Copyright 2023 Fonticons, Inc. --><path d="M113.9 369.9l20-20-7.8-27.2L101.9 238l19.2-19.2 137.4 137c3.2-17.8 9.3-34.7 17.9-49.9L155 184.9l117-117L428.6 224.5c27.1 2.1 52.3 11 74 24.9L512 240l-33.9-33.9L305.9 33.9 272 0 238.1 33.9l-129 129c-2.1 1.1-4 2.5-5.7 4.3c-1.7 1.7-3.1 3.6-4.2 5.7L48 224 80 336 33.9 382.1 0 416l33.9 33.9 28.1 28.1L96 512l33.9-33.9L176 432l99.4 28.4c-9.1-16.8-15.3-35.3-18-55.1l-68.2-19.5L162 378.1l-20 20L96 444.1 67.9 416l46.1-46.1zM544 384a128 128 0 1 0 -256 0 128 128 0 1 0 256 0zM352 368a16 16 0 1 1 -32 0 16 16 0 1 1 32 0zm48 112a16 16 0 1 1 0-32 16 16 0 1 1 0 32zm32-96a16 16 0 1 1 -32 0 16 16 0 1 1 32 0zm64 32a16 16 0 1 1 0-32 16 16 0 1 1 0 32zM448 304a16 16 0 1 1 -32 0 16 16 0 1 1 32 0z"/></svg>