<svg xmlns="http://www.w3.org/2000/svg" viewBox="0 0 640 512"><!--! Font Awesome Pro 6.3.0 by @fontawesome - https://fontawesome.com License - https://fontawesome.com/license (Commercial License) Copyright 2023 Fonticons, Inc. --><path d="M235.1 21.3H216.4L214 39.8l-6.1 45.5H171.1v56.9h29.2L194 189.4l-68.1 6.7-4.8-35.4-2.5-18.5H100 54.3 35.7l-2.5 18.5L26 212.9C10.6 221.3 .4 237.6 .4 256s10.2 34.7 25.6 43.1l7.1 52.2 2.5 18.5H54.3 100h18.6l2.5-18.5 4.8-35.4 68.1 6.7 6.3 47.2H171.1v56.9h36.8l6.1 45.5 2.5 18.5h18.7 49.8 18.7l2.5-18.5 6.1-45.5h15.5v14.2 14.2H356V440.9 412.4h14.2V384H356V355.6 341.3H327.6v14.2 14.2h-7.9l5.7-42.7 89.4 0c18.1 0 41-6.1 59.5-16.4c17.3-9.6 39.1-27.5 39.1-54.7c0-26.9-21.9-44.8-39-54.3c-18.5-10.3-41.4-16.8-59.6-16.8H325.4l-5.7-42.7h7.9v14.2 14.2H356V156.4 128h14.2V99.6H356V71.1 56.9H327.6V71.1 85.3H312.1L306 39.8l-2.5-18.5H284.9 235.1zm47.2 163.6H241.2h-1l-1 .1-1.5 .1L253.8 64h12.4l16.1 120.9zm0 142.2L266.2 448H253.8L237.6 326.9l1.5 .1 1 .1h1 41.1zM66.6 231.4l6.3-46.5h8.4l5 37.3 2.8 20.4 20.5-2 132.6-13H414.8c9.9 0 25.7 4 38.8 11.3c14.5 8.1 17.2 15.1 17.2 17.1c0 2.5-2.8 9.5-17.1 17.4c-13 7.2-28.9 11.1-38.9 11.1l-172.6 0-132.6-13-20.5-2-2.8 20.4-5 37.3H72.9l-6.3-46.5-2.1-15.5-15.4-2.7-.6-.1c-3.1-.5-5.3-3.2-5.3-6.3s2.3-5.8 5.3-6.3l.6-.1 15.4-2.7 2.1-15.5z"/></svg>