<svg xmlns="http://www.w3.org/2000/svg" viewBox="0 0 640 512"><!--! Font Awesome Pro 6.3.0 by @fontawesome - https://fontawesome.com License - https://fontawesome.com/license (Commercial License) Copyright 2023 Fonticons, Inc. --><path d="M564.1 219.3c7.6 9.5 13.9 22 13.9 36.7c0 29.1-23 49.4-41.4 60.4C516.9 328.2 492.2 336 472 336H372.5L278.8 499.9 271.9 512H258l-80 0H146.2l8.7-30.6L196.5 336 166 336l-40.8 54.4L118 400H106 34 .7l10.5-31.6L48.7 256 11.2 143.6 .7 112H34h72l12 0 7.2 9.6L166 176l30.5 0L154.9 30.6 146.2 0 178 0l80 0 13.9 0 6.9 12.1L372.5 176l99.5 0c20.3 0 45.1 8.1 64.6 20c10 6.1 19.9 13.8 27.5 23.3zM511.8 237c-14-8.5-30.2-13-39.7-13l-113.5 0H344.6l-6.9-12.1L244.1 48H209.8l41.5 145.4 8.7 30.6-31.8 0L154 224H142l-7.2-9.6L94 160H67.3l29.5 88.4 2.5 7.6-2.5 7.6L67.3 352H94l40.8-54.4L142 288h12l74.3 0h31.8l-8.7 30.6L209.8 464h34.3l93.7-163.9 6.9-12.1h13.9H472c9.7 0 26-4.4 39.8-12.8C527 266.1 530 258.4 530 256c0-.6-.2-2.8-3.3-6.7c-3.1-3.9-8.1-8.2-14.9-12.3z"/></svg>