<svg xmlns="http://www.w3.org/2000/svg" viewBox="0 0 640 512"><!--! Font Awesome Pro 6.3.0 by @fontawesome - https://fontawesome.com License - https://fontawesome.com/license (Commercial License) Copyright 2023 Fonticons, Inc. --><path d="M578 256c0-14.7-6.3-27.2-13.9-36.7c-7.6-9.5-17.4-17.3-27.5-23.3c-19.6-11.9-44.3-20-64.6-20l-99.5 0-27.4-48H370V64H308.5L278.8 12.1 271.9 0H258 178 146.2l8.7 30.6L196.5 176 166 176l-40.8-54.4L118 112l-12 0H34 .7l10.5 31.6L38.7 226C26.6 230.6 18 242.3 18 256s8.6 25.4 20.7 30L11.2 368.4 .7 400H34h72 12l7.2-9.6L166 336l30.5 0L154.9 481.4 146.2 512H178l80 0h13.9l6.9-12.1L308.5 448H370V384H345.1l27.4-48H472c20.2 0 44.9-7.8 64.5-19.6C555 305.4 578 285.1 578 256zM472 224c9.5 0 25.8 4.6 39.7 13c6.7 4.1 11.8 8.4 14.9 12.3c3.1 3.9 3.3 6.1 3.3 6.7c0 2.4-3 10.1-18.1 19.2C498 283.6 481.8 288 472 288H358.6 344.6l-6.9 12.1L244.1 464H209.8l41.5-145.4 8.7-30.6H228.3L154 288H142l-7.2 9.6L94 352H67.3l29.5-88.4 2.5-7.6-2.5-7.6L67.3 160H94l40.8 54.4L142 224h12l74.3 0 31.8 0-8.7-30.6L209.8 48h34.3l93.7 163.9 6.9 12.1h13.9L472 224z"/></svg>