<svg xmlns="http://www.w3.org/2000/svg" viewBox="0 0 512 512"><!--! Font Awesome Pro 6.3.0 by @fontawesome - https://fontawesome.com License - https://fontawesome.com/license (Commercial License) Copyright 2023 Fonticons, Inc. --><path d="M494.6 26.4c1.7-12 1.2-18.3 1.2-18.3s-6.3-.4-18.3 1.2c-7.7 1.1-17.7 3-30 6.4c-20.3 5.7-46.8 15.7-78.6 32.9c15.2 8.9 29.6 19.5 42.9 32c6.5-3.1 12.7-5.8 18.5-8.2l1.8-.8-.7 1.9c-5.7 14-13.5 30.3-24 48.8C369.3 76.9 312 48 248 48C133.1 48 40 141.1 40 256c0 64 28.9 121.3 74.4 159.4C96 426 79.7 433.7 65.6 439.5l-1.9 .7 .8-1.8c2.4-5.8 5.1-11.9 8.2-18.5c-12.5-13.3-23.2-27.7-32-42.9c-17.2 31.8-27.1 58.2-32.9 78.6c-3.4 12.2-5.4 22.3-6.4 30c-1.7 12-1.2 18.3-1.2 18.3s6.3 .4 18.3-1.2c7.7-1.1 17.7-3 30-6.4c26.9-7.6 64.5-22.5 111.1-51.9C186.4 456.9 216.4 464 248 464c114.9 0 208-93.1 208-208c0-31.6-7.1-61.6-19.7-88.5c29.3-46.6 44.3-84.2 51.9-111.1c3.4-12.2 5.4-22.3 6.4-30zM380 165.6c-24.3 34.9-57.3 75.2-102.3 120.2s-85.2 78-120.2 102.3C115.6 359.2 88 310.8 88 256c0-88.4 71.6-160 160-160c54.8 0 103.2 27.6 132 69.6zM207.8 410.9c31.6-23.8 66.4-53.7 103.9-91.2s67.4-72.3 91.2-103.9c3.3 12.8 5.1 26.3 5.1 40.2c0 88.4-71.6 160-160 160c-13.9 0-27.3-1.8-40.2-5.1z"/></svg>