<svg xmlns="http://www.w3.org/2000/svg" viewBox="0 0 640 512"><!--! Font Awesome Pro 6.3.0 by @fontawesome - https://fontawesome.com License - https://fontawesome.com/license (Commercial License) Copyright 2023 Fonticons, Inc. --><path d="M96 0H48V24c0 45.1 21.2 69 37.7 87.5l.4 .4C101.5 129.3 112 141.5 112 168v24h48V168c0-45.1-21.2-69-37.7-87.5l-.4-.4C106.5 62.7 96 50.5 96 24V0zM208 0H160V24c0 45.1 21.2 69 37.7 87.5l.4 .4C213.5 129.3 224 141.5 224 168v24h48V168c0-45.1-21.2-69-37.7-87.5l-.4-.4C218.5 62.7 208 50.5 208 24V0zm16 464V443.1l-26.7-13.2c-55.1-27.3-93.9-82.4-97.8-147.5L98.9 272H509.1l-.6 10.3c-3.8 65.1-42.7 120.3-97.8 147.5L384 443.1V464H224zM49.9 256H24 0v48H24 53.5C64.2 378.6 111.4 440.9 176 472.9V512h48H384h48V472.9c64.6-32 111.8-94.3 122.5-168.9H584h24V256H584 558.1l1.9-32H511.9 96.1 48l1.9 32zM416 112c-50.7 0-93.6 33.7-107.4 80H523.4c-13.8-46.3-56.6-80-107.4-80z"/></svg>