<svg xmlns="http://www.w3.org/2000/svg" viewBox="0 0 512 512"><!--! Font Awesome Pro 6.3.0 by @fontawesome - https://fontawesome.com License - https://fontawesome.com/license (Commercial License) Copyright 2023 Fonticons, Inc. --><path d="M272 24V0H224V24 264v24h48V264 24zM48 262c0-63.4 30.7-119.7 78.2-154.7L97.8 68.7C38.5 112.3 0 182.7 0 262C0 394.6 107.5 502 240 502s240-107.5 240-240c0-79.3-38.5-149.7-97.8-193.3l-28.5 38.6c47.5 35 78.2 91.2 78.2 154.7c0 106-86 192-192 192S48 368 48 262z"/></svg>