<svg xmlns="http://www.w3.org/2000/svg" viewBox="0 0 512 512"><!--! Font Awesome Pro 6.3.0 by @fontawesome - https://fontawesome.com License - https://fontawesome.com/license (Commercial License) Copyright 2023 Fonticons, Inc. --><path d="M48 184.2c0 52.5 20.3 100.3 53.5 135.9l19-26.8C95.3 264 80 225.9 80 184.2c0-39.9 32.3-72.2 72.2-72.2H156c42 0 76 34 76 76v5.1c0 16.8-5.2 33.2-14.9 46.9l-45.9 64.9-15.6 22 0 0-18 25.4 0 0-12.9 18.2-4.5 6.3L111 389.8l26.1 18.5 9.2-13.1 9.3-13.2L166 367.4l17 5.8c20.3 7 42.2 10.8 65 10.8c11.2 0 22.3-.9 33-2.7l-21-29.7c-3.9 .3-7.9 .4-11.9 .4c-9.2 0-18.3-.7-27.2-2.2l-38-6.2 22.2-31.4 23.3-32.9L248 251.7l19.6 27.6 11.5 16.3 11.8 16.6 22.2 31.4L330 367.4l0 0L340.3 382l9.3 13.1 9.2 13.1L385 389.8l-9.3-13.1-4.5-6.3-12.9-18.2L375.6 338c44.3-36.7 72.4-92 72.4-153.8C448 126.7 401.3 80 343.8 80H340c-29.3 0-55.8 11.6-75.3 30.6L248 126.8l-16.7-16.3C211.8 91.6 185.3 80 156 80h-3.8C94.7 80 48 126.7 48 184.2zM73.2 360C28.1 315.1 0 253 0 184.2C0 100.1 68.1 32 152.2 32H156c34.4 0 66.2 11.2 92 30c25.8-18.9 57.6-30 92-30h3.8C427.8 32 496 100.1 496 184.2c0 68.7-28.1 130.9-73.2 175.8l15.3 21.6 13.9 19.6L432.3 415l-65.3 46.2-19.6 13.9-13.9-19.6-1.8-2.6 0 0-20.6-29.1C291 429.2 269.8 432 248 432s-43-2.8-63.2-8.1l-22.5 31.7-13.9 19.6-19.6-13.9L63.6 415.1 44 401.2l13.9-19.6 1.9-2.6 0 0 13.5-19zM128 184.2c0 25.3 7.9 48.9 21.4 68.3l28.5-40.2c4-5.6 6.1-12.3 6.1-19.1V188c0-15.5-12.5-28-28-28h-3.8c-13.4 0-24.2 10.8-24.2 24.2zM312 188v5.1c0 6.9 2.1 13.5 6.1 19.1l28.5 40.2c13.5-19.4 21.4-42.9 21.4-68.3c0-13.4-10.8-24.2-24.2-24.2H340c-15.5 0-28 12.5-28 28zm28-76h3.8c39.9 0 72.2 32.3 72.2 72.2c0 49.4-21.5 93.9-55.5 124.6l-20.1 18.1-15.6-22L278.9 240c-9.7-13.7-14.9-30.1-14.9-46.9V188c0-42 34-76 76-76z"/></svg>