<svg xmlns="http://www.w3.org/2000/svg" viewBox="0 0 640 512"><!--! Font Awesome Pro 6.3.0 by @fontawesome - https://fontawesome.com License - https://fontawesome.com/license (Commercial License) Copyright 2023 Fonticons, Inc. --><path d="M121.8 192H112 64v48V352v48h48 32v64 48h48H448h48V486.8L448 449v15H192V368H345.2l-60.9-48H192 144v32H112V240h70.8l-60.9-48zM496 352H482.7L338.5 240H528V352H512 496zm48.6 48H576V352 240 192H528 276.6L176 113.9V48H428.1L464 83.9V160h48V64L448 0H176 128V48 76.6L48.4 14.8 29.4 .1 0 38 19 52.7 591.5 497.2l19 14.7L639.9 474l-19-14.7L544.6 400z"/></svg>