<svg xmlns="http://www.w3.org/2000/svg" viewBox="0 0 640 512"><!--! Font Awesome Pro 6.3.0 by @fontawesome - https://fontawesome.com License - https://fontawesome.com/license (Commercial License) Copyright 2023 Fonticons, Inc. --><path d="M112 160H64V48 0h48H384l64 64v96H400V83.9L364.1 48H112V160zM48 192H352c-17.2 12.9-31.7 29.3-42.6 48H48V352H80V320h48H288c0 16.7 2.6 32.8 7.3 48H128v96H378.2c16.6 8 34.7 13.3 53.8 15.2V512H384 128 80V464 400H48 0V352 240 192H48zM448 400.2a80 80 0 1 0 0-160 80 80 0 1 0 0 160zm0 48c-70.7 0-128-57.3-128-128s57.3-128 128-128s128 57.3 128 128c0 26.7-8.2 51.4-22.1 71.9l63 62.6 17 16.9-33.8 34-17-16.9L520 426c-20.5 14-45.3 22.1-72 22.1z"/></svg>