<svg xmlns="http://www.w3.org/2000/svg" viewBox="0 0 448 512"><!--! Font Awesome Pro 6.3.0 by @fontawesome - https://fontawesome.com License - https://fontawesome.com/license (Commercial License) Copyright 2023 Fonticons, Inc. --><path d="M114 0H226h24V24 40h64 9.9l7 7 56 56 17 17L370 153.9l-17-17-49-49H250v40H202V48H138v80H90V24 0h24zM58.1 512H10l3.3-48L34 160H306l20.7 304 3.3 48H281.9 58.1zm220.5-48L261.2 208H78.8L61.4 464H278.6zM194 296v16h16 24v48H210 194v16 24H146V376 360H130 106V312h24 16V296 272h48v24z"/></svg>