<svg xmlns="http://www.w3.org/2000/svg" viewBox="0 0 448 512"><!--! Font Awesome Pro 6.3.0 by @fontawesome - https://fontawesome.com License - https://fontawesome.com/license (Commercial License) Copyright 2023 Fonticons, Inc. --><path d="M90 0h24H226h24V24 40h64 9.9l7 7 56 56 17 17L370 153.9l-17-17-49-49H250v40H202V48H138v80H90V24 0zM58.1 512H10l3.3-48L34 160H306l20.7 304 3.3 48H281.9 58.1zm220.5-48L261.2 208H78.8L61.4 464H278.6zM170 272l43.8 54.2c7.9 9.8 12.2 22 12.2 34.7c0 30.5-24.7 55.2-55.2 55.2h-1.7c-30.5 0-55.2-24.7-55.2-55.2c0-12.6 4.3-24.9 12.3-34.7L170 272z"/></svg>