<svg xmlns="http://www.w3.org/2000/svg" viewBox="0 0 512 512"><!--! Font Awesome Pro 6.3.0 by @fontawesome - https://fontawesome.com License - https://fontawesome.com/license (Commercial License) Copyright 2023 Fonticons, Inc. --><path d="M155.1 177.2l-41.9-72.5C84.2 132.2 63 167.8 53.6 208l83.7 0c4.5-11.1 10.5-21.5 17.8-30.8zM176 256H128l-80 0H0c0-16.4 1.5-32.5 4.5-48c11-57.8 41.4-108.8 84.2-145.8c12.1-10.5 25.3-19.9 39.3-28l24 41.6 64 110.9 0 0c-23.9 13.8-40 39.7-40 69.3zm40 69.3l.1 .1c11.7 6.8 25.4 10.6 39.9 10.6s28.1-3.9 39.9-10.6l.1-.1 24 41.6 64 110.9-.4 .2c-13.7 7.9-28.2 14.6-43.4 19.9C313.8 507 285.5 512 256 512s-57.8-5-84.2-14.2c-15.2-5.3-29.7-11.9-43.4-19.9l-.4-.2 64-110.9 24-41.6zM256 464c20.8 0 40.8-3 59.7-8.7l-41.9-72.6C268 383.6 262 384 256 384s-12-.4-17.8-1.2l-41.9 72.6c18.9 5.6 38.9 8.7 59.7 8.7zM507.5 208c2.9 15.5 4.5 31.5 4.5 47.9l0 .1H464l-80 0H336c0-29.6-16.1-55.5-40-69.3L360 75.8l24-41.6c14 8.1 27.1 17.5 39.3 28c42.8 37 73.2 87.9 84.2 145.8zM398.8 104.7l-41.9 72.5c7.3 9.3 13.3 19.6 17.8 30.8l83.8 0c-9.5-40.2-30.6-75.8-59.7-103.3zM256 208a48 48 0 1 1 0 96 48 48 0 1 1 0-96z"/></svg>