<svg xmlns="http://www.w3.org/2000/svg" viewBox="0 0 576 512"><!--! Font Awesome Pro 6.3.0 by @fontawesome - https://fontawesome.com License - https://fontawesome.com/license (Commercial License) Copyright 2023 Fonticons, Inc. --><path d="M235.4 48l53.1 0 73.3 117.3-36.3-12-22.8-7.6-15.1 45.6 22.8 7.6 91.4 30.4 25.6 8.5 5.4-26.4 19.4-94.4 4.8-23.5-47-9.7-4.8 23.5-5.8 27.9L315.1 0 208.8 0 150.1 93.9l41.2 24.7L235.4 48zM466.7 242.5l-41.2 24.7 41.3 66L430.3 392l-134.6 0 21.9-18.5 18.3-15.5-31-36.7-18.3 15.5-72 60.8L192.8 416l21.7 18.3 72 60.8 18.3 15.5 31-36.7-18.3-15.5L295.6 440 457 440l66.4-106.9-56.6-90.6zM.7 333.1L67 440l99 0V392l-72.3 0L57.2 333.2l68.7-109.9 7.4 36 4.8 23.5 47-9.7-4.8-23.5-19.4-94.4-5.4-26.4-25.6 8.5L38.4 167.6l-22.8 7.6 15.1 45.6 22.8-7.6 27.9-9.2L.7 333.1z"/></svg>