<svg xmlns="http://www.w3.org/2000/svg" viewBox="0 0 640 512"><!--! Font Awesome Pro 6.3.0 by @fontawesome - https://fontawesome.com License - https://fontawesome.com/license (Commercial License) Copyright 2023 Fonticons, Inc. --><path d="M79 48a48 48 0 1 1 96 0A48 48 0 1 1 79 48zM58.6 128H75.9 178.1h17.3l5.4 16.5 44.9 136 7.5 22.8-45.6 15.1-7.5-22.8L191 267.7V488v24H143V488 352H111V488v24H63V488 267.6l-9.2 27.9-7.5 22.8L.7 303.3l7.5-22.8 44.9-136L58.6 128zM111 304h32V176H111V304zM463 48a48 48 0 1 1 96 0 48 48 0 1 1 -96 0zm-20.4 80h17.3H479h64 19.1 17.3l5.4 16.5 44.9 136 7.5 22.8-35.8 11.8L608 336l15 48H575V488v24H527V488 384H495V488v24H447V488 384H399l15-48 6.5-20.9-35.8-11.8 7.5-22.8 44.9-136 5.4-16.5zM511 186.5L464.3 336h93.4L511 186.5zM343 24V488v24H295V488 24 0h48V24z"/></svg>