<svg xmlns="http://www.w3.org/2000/svg" viewBox="0 0 512 512"><!--! Font Awesome Pro 6.3.0 by @fontawesome - https://fontawesome.com License - https://fontawesome.com/license (Commercial License) Copyright 2023 Fonticons, Inc. --><path d="M400.5 176H360 336v48h24 96 24V200 104 80H432v24 35.3c-22.3-24.3-43.2-46.6-65.1-63.8C332.3 48.3 293.9 32 240 32C141.7 32 55.3 95.5 25.3 184.3l45.5 15.4C94.1 130.4 162.2 80 240 80c42.2 0 70.4 12.1 97.2 33.2c20.7 16.3 39.7 37 63.3 62.8zM264 152V128H216v24V264v24h48V264 152zm0 216V320H216v48h48zM0 432H48V408 370.2c22.8 25.2 44.1 48.4 66.2 66.2c34 27.3 71.9 43.6 125.8 43.6c98.3 0 184.7-63.5 214.7-152.3l-45.5-15.4C385.9 381.6 317.8 432 240 432c-42.1 0-69.6-12.1-95.8-33.1c-19.5-15.7-37.3-35.3-59.4-59.6l0 0 0 0-3-3.3H120h24V288H120 24 0v24 96 24z"/></svg>