<svg xmlns="http://www.w3.org/2000/svg" viewBox="0 0 512 512"><!--! Font Awesome Pro 6.3.0 by @fontawesome - https://fontawesome.com License - https://fontawesome.com/license (Commercial License) Copyright 2023 Fonticons, Inc. --><path d="M78 187.1C104.8 124.1 167.3 80 240 80c39.7 0 77.8 15.8 105.9 43.9L351 129l-21.1 21.1L296 184l33.9 33.9L336 224h96 48V176 80l-6.1-6.1L440 40 406.1 73.9 385 95l-5.1-5.1C342.8 52.8 292.5 32 240 32C147.4 32 67.9 88.2 33.8 168.3L78 187.1zM401.9 325.2C375 388.1 312.6 432 240 432c-39.7 0-77.8-15.8-105.9-43.9L129 383l21.1-21.1L184 328l-33.9-33.9L144 288H48 0v48 96l6.1 6.1L40 472l33.9-33.9L95 417l5.1 5.1C137.2 459.2 187.5 480 240 480c92.5 0 171.8-56 206-135.9l-44.1-18.9zM371.9 176L432 115.9V176H371.9zM108.1 336L48 396.1V336h60.1z"/></svg>