<svg xmlns="http://www.w3.org/2000/svg" viewBox="0 0 512 512"><!--! Font Awesome Pro 6.3.0 by @fontawesome - https://fontawesome.com License - https://fontawesome.com/license (Commercial License) Copyright 2023 Fonticons, Inc. --><path d="M356.2 123.8C325.2 96.5 284.5 80 240 80C142.8 80 64 158.8 64 256s78.8 176 176 176c39.7 0 76.2-13.1 105.6-35.2l28.8 38.4C337 463.3 290.4 480 240 480C116.3 480 16 379.7 16 256S116.3 32 240 32c57.8 0 110.5 21.9 150.2 57.8l15.9-15.9L440 40l33.9 33.9L480 80v96 48H432 336l-6.1-6.1L296 184l33.9-33.9 26.3-26.3zm75.8-7.9L371.9 176H432V115.9z"/></svg>