<svg xmlns="http://www.w3.org/2000/svg" viewBox="0 0 512 512"><!--! Font Awesome Pro 6.3.0 by @fontawesome - https://fontawesome.com License - https://fontawesome.com/license (Commercial License) Copyright 2023 Fonticons, Inc. --><path d="M123.8 123.8C154.8 96.5 195.5 80 240 80c97.2 0 176 78.8 176 176s-78.8 176-176 176c-39.7 0-76.2-13.1-105.6-35.2l-28.8 38.4C143 463.3 189.6 480 240 480c123.7 0 224-100.3 224-224S363.7 32 240 32C182.2 32 129.5 53.9 89.8 89.8L73.9 73.9 40 40 6.1 73.9 0 80v96 48H48h96l6.1-6.1L184 184l-33.9-33.9-26.3-26.3zM48 115.9L108.1 176H48V115.9z"/></svg>