<svg xmlns="http://www.w3.org/2000/svg" viewBox="0 0 512 512"><!--! Font Awesome Pro 6.3.0 by @fontawesome - https://fontawesome.com License - https://fontawesome.com/license (Commercial License) Copyright 2023 Fonticons, Inc. --><path d="M253.7 11.6L241 3.7l-12.7 7.9C171.9 46.9 115.2 48 37.7 32.5L13.1 27.5 9.3 52.4C-7 158.5-3.5 250.1 31.3 326.2c35.2 77 100.6 134.6 200.5 175.9l9.7 4 9.5-4.4c97.3-44.9 162.4-102.3 198-178.1c35.4-75.3 40-165.1 23.6-271.4l-3.8-24.8-24.6 4.9C366.8 48 310.1 46.9 253.7 11.6zM48.7 192H432.8c-2.9 42-11.8 78.7-27.1 111.3c-28.4 60.3-80.4 109.5-165.2 150.4C154.5 416.2 102.8 367.2 75 306.3C59.7 272.9 51.2 235.1 48.7 192z"/></svg>