<svg xmlns="http://www.w3.org/2000/svg" viewBox="0 0 512 512"><!--! Font Awesome Pro 6.3.0 by @fontawesome - https://fontawesome.com License - https://fontawesome.com/license (Commercial License) Copyright 2023 Fonticons, Inc. --><path d="M320 64C169.8 64 48 185.8 48 336v7.7L98.6 238.9l1.8-3.7 2.9-2.9L216.4 119.3l2.9-2.9 3.7-1.8L327.7 64H320zM70.2 434.3l-8.6-8.6 78.4-162.3L247.5 156.1 409.8 77.7l8.6 8.6L339.9 248.5 232.5 355.9 70.2 434.3zM152.3 448H160c150.2 0 272-121.8 272-272v-7.7L381.4 273.1l-1.8 3.7-2.9 2.9L263.6 392.7l-2.9 2.9-3.7 1.8L152.3 448zM480 80L416 16H320C143.3 16 0 159.3 0 336v96l64 64h96c176.7 0 320-143.3 320-320V80z"/></svg>