<svg xmlns="http://www.w3.org/2000/svg" viewBox="0 0 512 512"><!--! Font Awesome Pro 6.3.0 by @fontawesome - https://fontawesome.com License - https://fontawesome.com/license (Commercial License) Copyright 2023 Fonticons, Inc. --><path d="M404.6 222.1l7.4-7.4V123.3L332.7 0H171.3L92 123.3v91.3L250.1 372.7l22.6 22.6L284 406.6 384.7 507.3l22.6-22.6L306.6 384l11.3-11.3L332 358.6 432.7 459.3l22.6-22.6L354.6 336l14.1-14.1L380 310.6 480.7 411.3l22.6-22.6L402.6 288l-11.3-11.3L370.6 256l33.9-33.9zM334.7 288L284 338.7l-144-144V137.4L197.5 48H306.5L364 137.4v57.3l-27.3 27.3-50.7-50.7L300 157.3V128H204v29.3L302.7 256h0l0 0 32 32zM.7 388.7l22.6 22.6 112-112-22.6-22.6L.7 388.7zm48 48l22.6 22.6 112-112-22.6-22.6-112 112zm48 48l22.6 22.6 112-112-22.6-22.6-112 112z"/></svg>