<svg xmlns="http://www.w3.org/2000/svg" viewBox="0 0 576 512"><!--! Font Awesome Pro 6.3.0 by @fontawesome - https://fontawesome.com License - https://fontawesome.com/license (Commercial License) Copyright 2023 Fonticons, Inc. --><path d="M522.3 413l-30.8 36.8L473 434.4 322.4 308.2l37.4-31.3L503.9 397.6 522.3 413zM122 48a64 64 0 1 0 0 128 64 64 0 1 0 0-128zm0-48c61.9 0 112 50.1 112 112c0 17.9-4.2 34.8-11.6 49.8l75.1 62.9L482.6 69.6 501 54.2 531.8 91l-18.4 15.4-291 243.8c7.4 15 11.6 31.9 11.6 49.8c0 61.9-50.1 112-112 112S10 461.9 10 400s50.1-112 112-112c26.6 0 51.1 9.3 70.3 24.8L260.1 256l-67.8-56.8C173.1 214.7 148.6 224 122 224C60.1 224 10 173.9 10 112S60.1 0 122 0zm64 400A64 64 0 1 0 58 400a64 64 0 1 0 128 0z"/></svg>