<svg xmlns="http://www.w3.org/2000/svg" viewBox="0 0 640 512"><!--! Font Awesome Pro 6.3.0 by @fontawesome - https://fontawesome.com License - https://fontawesome.com/license (Commercial License) Copyright 2023 Fonticons, Inc. --><path d="M45.2 75.3H376.5V151c14.5-13.6 29.6-26.5 45.2-39.1V75.3 30.1H376.5 45.2 0V75.3 406.6v45.2H45.2 316.9c-12-13.4-22-28.6-29.6-45.2H45.2V75.3zm90.4 67.8V120.5H90.4v22.6V248.5v22.6h45.2V248.5 143.1zm90.4 0V120.5H180.7v22.6V248.5v22.6h45.2V248.5 143.1zm256.9 67.9c-30.4-35.3-61.1-60.2-61.1-60.2s-120.5 97.5-120.5 180.7s67.4 150.6 150.6 150.6s150.6-67.4 150.6-150.6c0-69.3-90.4-150.6-90.4-150.6s-13 11.7-29.2 30.1zm16 196.6c-14.1 9.4-29.2 14.1-46.1 14.1c-42.4 0-76.2-27.3-76.2-73.4c0-22.6 14.1-42.4 42.4-77.2c3.8 4.7 58.4 74.4 58.4 74.4l33.9-39.5c2.8 3.8 4.7 7.5 6.6 11.3c16.9 31.1 9.4 70.6-18.8 90.4z"/></svg>