<svg xmlns="http://www.w3.org/2000/svg" viewBox="0 0 512 512"><!--! Font Awesome Pro 6.3.0 by @fontawesome - https://fontawesome.com License - https://fontawesome.com/license (Commercial License) Copyright 2023 Fonticons, Inc. --><path d="M48.1 126L240 51.5 432 126c1 43.5-6.9 106.9-33.8 168.8C369.9 359.7 321.1 422.4 240 459.6c-81.1-37.1-129.9-99.8-158.1-164.8C55 232.9 47.1 169.5 48.1 126zm431.4-13l-1.2-20.5L459.1 85 251.6 4.5 240 0 228.4 4.5 20.9 85 1.8 92.5 .6 113c-2.9 49.9 4.9 126.3 37.3 200.9c32.7 75.2 91 150 189.4 192.6L240 512l12.7-5.5c98.4-42.6 156.7-117.3 189.4-192.6c32.4-74.7 40.2-151 37.3-200.9zm-149 13.9l-11.3 11.3C295.9 161.5 256 145 256 112V96H240 224v16c0 33-39.9 49.5-63.2 26.2l-11.3-11.3-11.3 11.3 0 0-11.3 11.3 11.3 11.3C161.5 184.1 145 224 112 224H96v16 16h16c33 0 49.5 39.9 26.2 63.2l-11.3 11.3 11.3 11.3 0 0 11.3 11.3 11.3-11.3C184.1 318.5 224 335 224 368v16h16 16V368c0-33 39.9-49.5 63.2-26.2l11.3 11.3 11.3-11.3 11.3-11.3-11.3-11.3C318.5 295.9 335 256 368 256h16V240 224H368c-33 0-49.5-39.9-26.2-63.2l11.3-11.3-11.3-11.3-11.3-11.3zM216 192a24 24 0 1 1 0 48 24 24 0 1 1 0-48zm40 80a16 16 0 1 1 32 0 16 16 0 1 1 -32 0z"/></svg>