<svg xmlns="http://www.w3.org/2000/svg" viewBox="0 0 512 512"><!--! Font Awesome Pro 6.3.0 by @fontawesome - https://fontawesome.com License - https://fontawesome.com/license (Commercial License) Copyright 2023 Fonticons, Inc. --><path d="M48.1 126L240 51.5 432 126c1 43.5-6.9 106.9-33.8 168.8C369.9 359.7 321.1 422.4 240 459.6c-81.1-37.1-129.9-99.8-158.1-164.8C55 232.9 47.1 169.5 48.1 126zm431.4-13l-1.2-20.5L459.1 85 251.6 4.5 240 0 228.4 4.5 20.9 85 1.8 92.5 .6 113c-2.9 49.9 4.9 126.3 37.3 200.9c32.7 75.2 91 150 189.4 192.6L240 512l12.7-5.5c98.4-42.6 156.7-117.3 189.4-192.6c32.4-74.7 40.2-151 37.3-200.9zM296 208c0-30.9-25.1-56-56-56s-56 25.1-56 56c0 22.3 13.1 41.6 32 50.6V328v24h48V328 258.6c18.9-9 32-28.3 32-50.6z"/></svg>