<svg xmlns="http://www.w3.org/2000/svg" viewBox="0 0 512 512"><!--! Font Awesome Pro 6.3.0 by @fontawesome - https://fontawesome.com License - https://fontawesome.com/license (Commercial License) Copyright 2023 Fonticons, Inc. --><path d="M216 60.8V200H53.9c-4.7-27.7-6.3-53.1-5.8-74L216 60.8zM65 248H216V447.4c-66.9-37.8-108.8-94.3-134.1-152.6C75.1 279.2 69.5 263.5 65 248zM264 447.3V248H415c-4.5 15.5-10.1 31.2-16.9 46.8C372.8 353.1 330.9 409.5 264 447.3zM426.1 200H264V60.8L432 126c.5 20.9-1.1 46.3-5.8 74zm53.4-87l-1.2-20.5L459.1 85 251.6 4.5 240 0 228.4 4.5 20.9 85 1.8 92.5 .6 113c-2.9 49.9 4.9 126.3 37.3 200.9c32.7 75.2 91 150 189.4 192.6L240 512l12.7-5.5c98.4-42.6 156.7-117.3 189.4-192.6c32.4-74.7 40.2-151 37.3-200.9z"/></svg>