<svg xmlns="http://www.w3.org/2000/svg" viewBox="0 0 512 512"><!--! Font Awesome Pro 6.3.0 by @fontawesome - https://fontawesome.com License - https://fontawesome.com/license (Commercial License) Copyright 2023 Fonticons, Inc. --><path d="M48.1 126L240 51.5 432 126c1 43.5-6.9 106.9-33.8 168.8C369.9 359.7 321.1 422.4 240 459.6c-81.1-37.1-129.9-99.8-158.1-164.8C55 232.9 47.1 169.5 48.1 126zm431.4-13l-1.2-20.5L459.1 85 251.6 4.5 240 0 228.4 4.5 20.9 85 1.8 92.5 .6 113c-2.9 49.9 4.9 126.3 37.3 200.9c32.7 75.2 91 150 189.4 192.6L240 512l12.7-5.5c98.4-42.6 156.7-117.3 189.4-192.6c32.4-74.7 40.2-151 37.3-200.9zM353 209l17-17L336 158.1l-17 17-111 111-47-47-17-17L110.1 256l17 17 64 64 17 17 17-17L353 209z"/></svg>