<svg xmlns="http://www.w3.org/2000/svg" viewBox="0 0 512 512"><!--! Font Awesome Pro 6.3.0 by @fontawesome - https://fontawesome.com License - https://fontawesome.com/license (Commercial License) Copyright 2023 Fonticons, Inc. --><path d="M240 51.5L48.1 126c-1 43.5 6.9 106.9 33.8 168.8c28.2 64.9 77 127.7 158.1 164.8c81.1-37.1 129.9-99.9 158.1-164.8C425 232.9 432.9 169.5 432 126L240 51.5zm238.3 41l1.2 20.5c2.9 50-4.9 126.3-37.3 200.9c-32.7 75.2-91.1 150-189.4 192.6L240 512l-12.7-5.5C128.9 463.9 70.5 389.2 37.9 313.9C5.4 239.3-2.4 162.9 .6 113L1.8 92.5 20.9 85 228.4 4.5 240 0l11.6 4.5L459.1 85l19.2 7.4z"/></svg>