<svg xmlns="http://www.w3.org/2000/svg" viewBox="0 0 640 512"><!--! Font Awesome Pro 6.3.0 by @fontawesome - https://fontawesome.com License - https://fontawesome.com/license (Commercial License) Copyright 2023 Fonticons, Inc. --><path d="M48.4 14.8L29.4 .1 0 38 19 52.7 591.5 497.2l19 14.7L639.9 474l-19-14.7-59.5-46.2C590.9 367.9 608 314 608 256c0-67.4-23.2-129.4-61.9-178.5l-37.7 29.7C540.7 148.2 560 199.8 560 256c0 46.9-13.4 90.6-36.7 127.5L472.4 344c15-25.9 23.6-56 23.6-88c0-41.2-14.2-79.1-37.9-109.1l-37.7 29.7C437.7 198.5 448 226 448 256c0 21-5 40.7-14 58.2l-74-57.5c0-.2 0-.5 0-.7c0-22.1-17.9-40-40-40c-3.7 0-7.2 .5-10.6 1.4L48.4 14.8zM32 256c0 67.4 23.2 129.4 61.9 178.5l37.7-29.7C99.3 363.8 80 312.2 80 256c0-29.9 5.5-58.4 15.4-84.8L56.2 140.3C40.6 175.7 32 214.8 32 256zm112 0c0 41.2 14.2 79.1 37.9 109.1l37.7-29.7C202.3 313.5 192 286 192 256c0-2.9 .1-5.7 .3-8.5l-43.1-34c-3.4 13.6-5.2 27.8-5.2 42.5z"/></svg>