<svg xmlns="http://www.w3.org/2000/svg" viewBox="0 0 576 512"><!--! Font Awesome Pro 6.3.0 by @fontawesome - https://fontawesome.com License - https://fontawesome.com/license (Commercial License) Copyright 2023 Fonticons, Inc. --><path d="M496 48V464h32V48H496zM448 0h48 32 48V48 464v48H528 496 448V464 48 0zM344 176V464h32V176H344zm-48-48h48 32 48v48V464v48H376 344 296V464 176 128zM224 304H192V464h32V304zm-32-48h32 48v48V464v48H224 192 144V464 304 256h48zM48 432v32H80V432H48zM0 384H48 80h48v48 32 48H80 48 0V464 432 384z"/></svg>