<svg xmlns="http://www.w3.org/2000/svg" viewBox="0 0 576 512"><!--! Font Awesome Pro 6.3.0 by @fontawesome - https://fontawesome.com License - https://fontawesome.com/license (Commercial License) Copyright 2023 Fonticons, Inc. --><path d="M363.1 34.3l-3.8 22.3L317 303.5l120.5 60.3L450 370v14 82.8h7.5 22.6V512H457.5 427.4 28.4 .7l5.5-27.1L89 78.3l3.7-18.1h18.5H312.9l1.9-11.3 3.8-22.3 44.5 7.6zM169.6 105.4h-40L92.8 286.1h40.6l36.1-180.7zm30.7 0L160.6 304.1l-2.4 12.1H145.8 86.7L56 466.8H404.8V398l-123-61.5-10.3-5.1H209.1 194V301.2h15.1 62.5l10.3-60.2H239.2 224.1V210.8h15.1H287l18.1-105.4H200.3z"/></svg>