<svg xmlns="http://www.w3.org/2000/svg" viewBox="0 0 512 512"><!--! Font Awesome Pro 6.3.0 by @fontawesome - https://fontawesome.com License - https://fontawesome.com/license (Commercial License) Copyright 2023 Fonticons, Inc. --><path d="M273.4 174.9l-17 13.6v21.8 15.6H166V210.3 188.5L149 174.9c-18.3-14.6-28.1-34.2-28.1-54.4c0-36.7 35.3-75.3 90.4-75.3s90.4 38.6 90.4 75.3c0 20.3-9.8 39.9-28.1 54.4zm73.3-54.4C346.7 53.9 286 0 211.2 0S75.6 53.9 75.6 120.5c0 35.7 17.4 67.7 45.2 89.8v15.6 45.2H166h90.4 45.2V225.9 210.3c27.7-22.1 45.2-54.1 45.2-89.8zm55 120.5L381.5 251 211.1 336.2 40.6 251 20.4 240.9 .2 281.4l20.2 10.1 140.1 70-140.1 70L.2 441.5 20.4 482l20.2-10.1 170.4-85.2 170.4 85.2L401.7 482l20.2-40.4-20.2-10.1-140.1-70 140.1-70 20.2-10.1-20.2-40.4zM196.1 128a22.6 22.6 0 1 0 -45.2 0 22.6 22.6 0 1 0 45.2 0zm52.7 22.6a22.6 22.6 0 1 0 0-45.2 22.6 22.6 0 1 0 0 45.2z"/></svg>