<svg xmlns="http://www.w3.org/2000/svg" viewBox="0 0 512 512"><!--! Font Awesome Pro 6.3.0 by @fontawesome - https://fontawesome.com License - https://fontawesome.com/license (Commercial License) Copyright 2023 Fonticons, Inc. --><path d="M104 0H56V24 80H48 0v48 64 48H48h8V488v24h48V488 240h8 48V192 128 80H112h-8V24 0zm8 128v64H48V128h64zM272 320v64H208V320h64zm-64-48H160v48 64 48h48 8v56 24h48V488 432h8 48V384 320 272h48 8V488v24h48V488 272h8 48V224 160 112H432h-8V24 0H376V24v88h-8H320v48 64 48H272h-8V24 0H216V24 272h-8zM368 160h64v64H368V160z"/></svg>