<svg xmlns="http://www.w3.org/2000/svg" viewBox="0 0 512 512"><!--! Font Awesome Pro 6.3.0 by @fontawesome - https://fontawesome.com License - https://fontawesome.com/license (Commercial License) Copyright 2023 Fonticons, Inc. --><path d="M0 392l24 0 56 0 0-8 0-48 48 0 64 0 48 0 0 48 0 8 248 0 24 0 0 48-24 0-248 0 0 8 0 48-48 0-64 0-48 0 0-48 0-8-56 0L0 440l0-48zM0 232l24 0 248 0 0-8 0-48 48 0 64 0 48 0 0 48 0 8 56 0 24 0 0 48-24 0-56 0 0 8 0 48-48 0-64 0-48 0 0-48 0-8L24 280 0 280l0-48zM112 120l-88 0L0 120 0 72l24 0 88 0 0-8 0-48 48 0 64 0 48 0 0 48 0 8 216 0 24 0 0 48-24 0-216 0 0 8 0 48-48 0-64 0-48 0 0-48 0-8zM320 288l64 0 0-64-64 0 0 64zM128 384l0 64 64 0 0-64-64 0zm32-256l64 0 0-64-64 0 0 64z"/></svg>