<svg xmlns="http://www.w3.org/2000/svg" viewBox="0 0 448 512"><!--! Font Awesome Pro 6.3.0 by @fontawesome - https://fontawesome.com License - https://fontawesome.com/license (Commercial License) Copyright 2023 Fonticons, Inc. --><path d="M244 24V0H196V24 70.1L179.4 53.4l-17-17L128.5 70.4l17 17L196 137.9v76.5l-66.2-38.2-18.5-69.1L105 83.9 58.7 96.3l6.2 23.2L71 142.2l-26-15-20.8-12L.2 156.8l20.8 12 26 15-22.7 6.1L1.1 196.1l12.4 46.4 23.2-6.2 69.1-18.5L172 256l-66.2 38.2L36.7 275.7l-23.2-6.2L1.1 315.9l23.2 6.2L47 328.2l-26 15L.2 355.2l24 41.6 20.8-12 26-15-6.1 22.7-6.2 23.2L105 428.1l6.2-23.2 18.5-69.1L196 297.6v76.5l-50.6 50.6-17 17 33.9 33.9 17-17L196 441.9V488v24h48V488 441.9l16.6 16.6 17 17 33.9-33.9-17-17L244 374.1V297.6l66.2 38.2 18.5 69.1 6.2 23.2 46.4-12.4-6.2-23.2L369 369.8l26 15 20.8 12 24-41.6-20.8-12-26-15 22.7-6.1 23.2-6.2-12.4-46.4-23.2 6.2-69.1 18.5L268 256l66.2-38.2 69.1 18.5 23.2 6.2 12.4-46.4-23.2-6.2L393 183.8l26-15 20.8-12-24-41.6-20.8 12-26 15 6.1-22.7 6.2-23.2L335 83.9l-6.2 23.2-18.5 69.1L244 214.4V137.9l50.6-50.6 17-17L277.6 36.5l-17 17L244 70.1V24z"/></svg>