<svg xmlns="http://www.w3.org/2000/svg" viewBox="0 0 640 512"><!--! Font Awesome Pro 6.3.0 by @fontawesome - https://fontawesome.com License - https://fontawesome.com/license (Commercial License) Copyright 2023 Fonticons, Inc. --><path d="M247 24V0H199V24 70.1L182.4 53.4l-17-17L131.5 70.4l17 17L199 137.9v76.5l-66.2-38.2-18.5-69.1L108 83.9 61.7 96.3l6.2 23.2L74 142.2l-26-15-20.8-12-24 41.6 20.8 12 26 15-22.7 6.1L4.1 196.1l12.4 46.4 23.2-6.2 69.1-18.5L175 256l-66.2 38.2L39.7 275.7l-23.2-6.2L4.1 315.9l23.2 6.2L50 328.2l-26 15-20.8 12 24 41.6 20.8-12 26-15-6.1 22.7-6.2 23.2L108 428.1l6.2-23.2 18.5-69.1L199 297.6v76.5l-50.6 50.6-17 17 33.9 33.9 17-17L199 441.9V488v24h48V488 441.9l16.6 16.6 17 17 33.9-33.9-17-17L247 374.1V297.6l66.2 38.2 18.5 69.1 6.2 23.2 46.4-12.4-6.2-23.2L372 369.8l26 15 20.8 12 24-41.6-20.8-12-26-15 22.7-6.1 23.2-6.2-12.4-46.4-23.2 6.2-69.1 18.5L271 256l66.2-38.2 69.1 18.5 23.2 6.2 12.4-46.4-23.2-6.2L396 183.8l26-15 20.8-12-24-41.6-20.8 12-26 15 6.1-22.7 6.2-23.2L338 83.9l-6.2 23.2-18.5 69.1L247 214.4V137.9l50.6-50.6 17-17L280.6 36.5l-17 17L247 70.1V24zM509.1 64L481.2 91.8l33.9 33.9L543 97.9l27.8 27.8 33.9-33.9L576.9 64l27.8-27.8L570.8 2.2 543 30.1 515.2 2.2 481.2 36.2 509.1 64zm37.1 129.3l-33.9 33.9 17 17L541.1 256l-11.8 11.8-17 17 33.9 33.9 17-17L575 289.9l11.8 11.8 17 17 33.9-33.9-17-17L608.9 256l11.8-11.8 17-17-33.9-33.9-17 17L575 222.1l-11.8-11.8-17-17z"/></svg>