<svg xmlns="http://www.w3.org/2000/svg" viewBox="0 0 576 512"><!--! Font Awesome Pro 6.3.0 by @fontawesome - https://fontawesome.com License - https://fontawesome.com/license (Commercial License) Copyright 2023 Fonticons, Inc. --><path d="M221.7 221.4c11.3-38.9 28.1-70.3 44.6-94.3c7.5-11 14.9-20.3 21.7-28.2c6.8 7.8 14.2 17.2 21.7 28.2c16.5 24 33.3 55.4 44.6 94.3c13.2-9.9 27.3-18.8 42-26.6C360.4 86.3 288 32 288 32s-72.4 54.3-108.3 162.8c14.8 7.7 28.8 16.6 42 26.6zM52.9 240.5C73.6 341.3 157.4 419 261.2 430.5c-16.4-103.1-102.4-183-208.3-190zM4 240C26.1 372 138.1 473.6 274.9 479.7c.9 .2 1.9 .3 2.8 .3H288h10.3c1 0 1.9-.1 2.8-.3C437.9 473.6 549.9 372 572 240c2.6-15.6 4-31.6 4-48H538.3c-3.4 0-6.9 .1-10.3 .2c-107 3.9-198.4 69.2-240 161.7C246.4 261.4 155 196.1 48 192.2c-3.4-.1-6.8-.2-10.3-.2H0c0 16.4 1.4 32.4 4 48zm519.1 .5C502.4 341.3 418.6 419 314.8 430.5c16.4-103.1 102.4-183 208.3-190z"/></svg>