<svg xmlns="http://www.w3.org/2000/svg" viewBox="0 0 576 512"><!--! Font Awesome Pro 6.3.0 by @fontawesome - https://fontawesome.com License - https://fontawesome.com/license (Commercial License) Copyright 2023 Fonticons, Inc. --><path d="M94.2 0h33.7l5.7 15.8L220.4 256h-51l-14.5-40H67.1L52.6 256H1.6L88.4 15.8 94.2 0zm43.4 168L111 94.6 84.5 168h53.1zM279 0h76c42 0 76 34 76 76c0 16.2-5.1 31.3-13.8 43.7C435.3 133.6 447 155.4 447 180c0 42-34 76-76 76H279 255V232 128 24 0h24zM383 76c0-15.5-12.5-28-28-28H303v56h52c15.5 0 28-12.5 28-28zM303 208h68c15.5 0 28-12.5 28-28s-12.5-28-28-28H355 303v56zm270.7 83.5l-17.1 16.8L367.8 493.9l-17 16.7L334 493.8l-104-104-17-17L247 338.9l17 17L351.1 443 523 274.1l17.1-16.8 33.6 34.2z"/></svg>