<svg xmlns="http://www.w3.org/2000/svg" viewBox="0 0 576 512"><!--! Font Awesome Pro 6.3.0 by @fontawesome - https://fontawesome.com License - https://fontawesome.com/license (Commercial License) Copyright 2023 Fonticons, Inc. --><path d="M165.2 41.2l9.2-22.2L130.1 .6l-9.2 22.2-40 96-6.2 14.8L86 145l72.1 72.1L74 189 53.8 128.4l-7.6-22.8L.6 120.8l7.6 22.8 24 72L36 227l11.4 3.8L123.1 256 47.4 281.2 36 285l-3.8 11.4-24 72L.6 391.2l45.5 15.2 7.6-22.8L74 323l72.6-24.2c-.8 3.2-1.5 6.4-2 9.7L86 367 74.7 378.4l6.2 14.8 40 96 9.2 22.2 44.3-18.5-9.2-22.2-33.8-81.2 15.5-15.5C160.2 425.8 207.1 464 263 464s102.8-38.2 116.2-89.9l15.5 15.5-33.8 81.2-9.2 22.2 44.3 18.5 9.2-22.2 40-96 6.2-14.8L440 367l-58.6-58.6c-.5-3.3-1.2-6.5-2-9.7L452 323l20.2 60.6 7.6 22.8 45.5-15.2-7.6-22.8-24-72L490 285l-11.4-3.8L402.9 256l75.7-25.2L490 227l3.8-11.4 24-72 7.6-22.8-45.5-15.2-7.6 22.8L452 189l-84.2 28.1L440 145l11.4-11.4-6.2-14.8-40-96L395.9 .6 351.6 19.1l9.2 22.2 33.8 81.2L359 158.1c-.6-32.8-17.8-61.6-43.3-78.4L292.4 64.4 280.7 89.7 263 128.1 245.3 89.7 233.6 64.4 210.3 79.7c-25.6 16.8-42.7 45.5-43.3 78.4l-35.7-35.7 33.8-81.2zM215 160c0-5.5 .9-10.8 2.6-15.7l15.6 33.8 6.4 13.9H255h16 15.4l6.4-13.9 15.6-33.8c1.7 4.9 2.6 10.2 2.6 15.7v88c0 3.4-.4 6.7-1 9.9L307.4 270l8.4 9.1C327.8 292 335 309.1 335 328v16c0 39.8-32.2 72-72 72s-72-32.2-72-72V328c0-18.9 7.2-36 19.1-48.9l8.4-9.1L216 257.9c-.7-3.2-1-6.5-1-9.9V160z"/></svg>