<svg xmlns="http://www.w3.org/2000/svg" viewBox="0 0 576 512"><!--! Font Awesome Pro 6.3.0 by @fontawesome - https://fontawesome.com License - https://fontawesome.com/license (Commercial License) Copyright 2023 Fonticons, Inc. --><path d="M174.4 19.1l-9.2 22.2-33.8 81.2L167 158.1c.6-32.8 17.8-61.6 43.3-78.4l23.3-15.3 11.7 25.3L263 128.1l17.7-38.3 11.7-25.3 23.3 15.3c25.6 16.8 42.7 45.5 43.3 78.4l35.7-35.7L360.8 41.2l-9.2-22.2L395.9 .6l9.2 22.2 40 96 6.2 14.8L440 145l-72.1 72.1L452 189l20.2-60.6 7.6-22.8 45.5 15.2-7.6 22.8-24 72L490 227l-11.4 3.8L402.9 256l75.7 25.2L490 285l3.8 11.4 24 72 7.6 22.8-45.5 15.2-7.6-22.8L452 323l-72.6-24.2c.8 3.2 1.5 6.4 2 9.7L440 367l11.4 11.4-6.2 14.8-40 96-9.2 22.2-44.3-18.5 9.2-22.2 33.8-81.2-15.5-15.5C365.8 425.8 318.9 464 263 464s-102.8-38.2-116.2-89.9l-15.5 15.5 33.8 81.2 9.2 22.2-44.3 18.5-9.2-22.2-40-96-6.2-14.8L86 367l58.6-58.6c.5-3.3 1.2-6.5 2-9.7L74 323 53.8 383.6l-7.6 22.8L.6 391.2l7.6-22.8 24-72L36 285l11.4-3.8L123.1 256 47.4 230.8 36 227l-3.8-11.4-24-72L.6 120.8l45.5-15.2 7.6 22.8L74 189l84.2 28.1L86 145 74.7 133.6l6.2-14.8 40-96L130.1 .6l44.3 18.5zm43.2 125.2c-1.7 4.9-2.6 10.2-2.6 15.7v88c0 3.4 .4 6.7 1 9.9l2.5 12.1-8.4 9.1C198.2 292 191 309.1 191 328v16c0 39.8 32.2 72 72 72s72-32.2 72-72V328c0-18.9-7.2-36-19.1-48.9l-8.4-9.1 2.5-12.1c.7-3.2 1-6.5 1-9.9V160c0-5.5-.9-10.8-2.6-15.7l-15.6 33.8L286.4 192H271 255 239.6l-6.4-13.9-15.6-33.8zM223 288h80v16l-24 32 24 32v16H223V368l24-32-24-32V288z"/></svg>