<svg xmlns="http://www.w3.org/2000/svg" viewBox="0 0 576 512"><!--! Font Awesome Pro 6.3.0 by @fontawesome - https://fontawesome.com License - https://fontawesome.com/license (Commercial License) Copyright 2023 Fonticons, Inc. --><path d="M148.7 48C93.7 48 49 92.7 49 147.7s44.7 99.7 99.7 99.7h12.8 24v24 30.9 10.1l-7.2 7.1c-15.6 15.3-25.3 36.6-25.3 60.2V464h64.8c-15.6-20.4-24.8-46-24.8-73.7c0-25 7.7-49.3 22-69.8L305 192V144 128 96 64c20.4 0 38.2 10.9 48 27.1C362.8 74.9 380.6 64 401 64V96h32 6.6l5.7 3.4 56 33.4 11.7 7v13.6V200v8.7l-5.6 6.7-40 48-7.2 8.6H449 433v54c24.3 19 40 48.7 40 82c0 20.6-6 39.8-16.3 56h33.4 24v48h-24H369 353 314.7 237.3 129 105V488 379.7c0-32.3 11.6-61.9 30.8-84.8C60.3 288.3 1 225 1 147.7C1 66.1 67.1 0 148.7 0C208.3 0 259.6 35.3 283 86L239.4 106c-15.8-34.3-50.5-58-90.6-58zM353 464h16c30.9 0 56-25.1 56-56s-25.1-56-56-56c-5.9 0-11.5 .9-16.8 2.6l-14.4-45.8c9.9-3.1 20.4-4.8 31.2-4.8c5.4 0 10.8 .4 16 1.2V248 224h24 28.8L465 191.3V167l-38.6-23H401 353v48 15.1l-8.7 12.4-90 128.6c-8.7 12.4-13.3 27.1-13.3 42.2c0 40.7 33 73.7 73.7 73.7H353zm32-288a16 16 0 1 1 32 0 16 16 0 1 1 -32 0z"/></svg>