<svg xmlns="http://www.w3.org/2000/svg" viewBox="0 0 576 512"><!--! Font Awesome Pro 6.3.0 by @fontawesome - https://fontawesome.com License - https://fontawesome.com/license (Commercial License) Copyright 2023 Fonticons, Inc. --><path d="M129 256c0-110.8 86.6-201.3 195.7-207.6c4.1-.2 8.2-.4 12.3-.4c44.1 0 85 13.7 118.6 37.1c-31.4-35-72.3-61.3-118.6-74.9c-2.6-.8-5.2-1.5-7.8-2.1C308.7 2.8 287.2 0 265 0C123.6 0 9 114.6 9 256S123.6 512 265 512c22.2 0 43.7-2.8 64.2-8.1c2.6-.7 5.2-1.4 7.8-2.1c46.3-13.6 87.2-39.9 118.6-74.9C422 450.3 381.1 464 337 464c-4.1 0-8.2-.1-12.3-.4C215.6 457.3 129 366.8 129 256zm-40 0c0 85.4 43.2 160.8 109 205.4C111.5 433.2 49 351.9 49 256s62.5-177.2 149-205.4C132.2 95.2 89 170.6 89 256zm330.8-81.8L393 120l-26.8 54.2-15.6 31.5-34.8 5.1L256 219.5l43.3 42.2 25.2 24.5-5.9 34.6-10.2 59.6 53.5-28.1L393 336l31.1 16.4 53.5 28.1-10.2-59.6-5.9-34.6 25.2-24.5L530 219.5l-59.8-8.7-34.8-5.1-15.6-31.5zm-16.3 75.4l23.4 3.4-16.9 16.5 4 23.3-20.9-11-20.9 11 4-23.3L359.2 253l23.4-3.4L393 228.5l10.4 21.2z"/></svg>