<svg xmlns="http://www.w3.org/2000/svg" viewBox="0 0 576 512"><!--! Font Awesome Pro 6.3.0 by @fontawesome - https://fontawesome.com License - https://fontawesome.com/license (Commercial License) Copyright 2023 Fonticons, Inc. --><path d="M356.6 164L297.2 51.4 270.1 0 242.9 51.4 183.5 164 58.2 185.7 .9 195.6l40.5 41.7 88.7 91.2L112 454.4 103.7 512l52.2-25.7 114.2-56.1 114.2 56.1L436.4 512l-8.3-57.6L410 328.5l88.7-91.2 40.5-41.7-57.3-9.9L356.6 164zm84.8 63.4l-65.8 67.7L359.2 312l3.4 23.4L376 428.8l-84.7-41.7-21.2-10.4-21.2 10.4-84.7 41.7 13.4-93.4L181 312l-16.4-16.9L98.7 227.4l93-16.1 23.3-4 11-20.9 44.1-83.5 44.1 83.5 11 20.9 23.3 4 93 16.1z"/></svg>