<svg xmlns="http://www.w3.org/2000/svg" viewBox="0 0 576 512"><!--! Font Awesome Pro 6.3.0 by @fontawesome - https://fontawesome.com License - https://fontawesome.com/license (Commercial License) Copyright 2023 Fonticons, Inc. --><path d="M297.2 51.4L356.6 164l125.4 21.7 57.3 9.9-40.5 41.7L410 328.5l18.3 127.4 8.1 56.1-51.8-23L270.1 438.2 155.5 489l-51.8 23 8.1-56.1 18.3-127.4L41.4 237.3 .9 195.6l57.3-9.9L183.6 164 242.9 51.4 270.1 0l27.1 51.4zm51.2 159.8l-23.3-4-11-20.9-44.1-83.5L226 186.4l-11 20.9-23.3 4-93 16.1 65.8 67.7L181 312l-3.4 23.4-14 97.6 87-38.6 19.5-8.6 19.5 8.6 87 38.6-14-97.6L359.2 312l16.4-16.9 65.8-67.7-93-16.1zM294 176v24 64 24H246V264 200 176h48zM246 320h48v48H246V320z"/></svg>