<svg xmlns="http://www.w3.org/2000/svg" viewBox="0 0 576 512"><!--! Font Awesome Pro 6.3.0 by @fontawesome - https://fontawesome.com License - https://fontawesome.com/license (Commercial License) Copyright 2023 Fonticons, Inc. --><path d="M295.3 77.7l38.3 117.9h124 81.7l-66.1 48L372.9 316.4l38.3 117.9L436.4 512l-66.1-48L270.1 391.1 169.8 464l-66.1 48 25.2-77.7 38.3-117.9L66.9 243.6 .9 195.6H82.5h124L244.8 77.7 270.1 0l25.2 77.7zm38.3 165.9H298.7l-10.8-33.2-17.9-55.1-.1 .2V331.8l.1 0 28.2 20.5 46.8 34-17.9-55.1-10.8-33.2 28.2-20.5 46.8-34H333.6z"/></svg>