<svg xmlns="http://www.w3.org/2000/svg" viewBox="0 0 512 512"><!--! Font Awesome Pro 6.3.0 by @fontawesome - https://fontawesome.com License - https://fontawesome.com/license (Commercial License) Copyright 2023 Fonticons, Inc. --><path d="M0 400H48h99.3L216 512h48l68.7-112H432h48V352l-58.9-96L480 160V112H432 332.7L264 0H216L147.3 112H48 0v48l58.9 96L0 352v48zm87.1-98.1L117.8 352H56.3l30.8-50.1zM174.1 352l-58.9-96 58.9-96H305.9l58.9 96-58.9 96H174.1zm29.5 48h72.8L240 459.3 203.6 400zm158.6-48l30.7-50.1L423.7 352H362.2zm30.7-141.9L362.2 160h61.5l-30.8 50.1zM276.4 112H203.6L240 52.7 276.4 112zM117.8 160L87.1 210.1 56.3 160h61.5z"/></svg>