<svg xmlns="http://www.w3.org/2000/svg" viewBox="0 0 576 512"><!--! Font Awesome Pro 6.3.0 by @fontawesome - https://fontawesome.com License - https://fontawesome.com/license (Commercial License) Copyright 2023 Fonticons, Inc. --><path d="M330 75.9V48 0H282 234 186V48 75.9v55.4l-48-27.7L113.9 89.6l-41.6-24-24 41.6-24 41.6L.3 190.4l41.6 24L66 228.3 114 256 66 283.7 41.9 297.6 .3 321.6l24 41.6 24 41.6 24 41.6 41.6-24L138 408.4l48-27.7v55.4V464v48h48 48 48V464 436.1 380.7l48 27.7 24.1 13.9 41.6 24 24-41.6 24-41.6 24-41.6-41.6-24L450 283.7 402 256l48-27.7 24.1-13.9 41.6-24-24-41.6-24-41.6-24-41.6-41.6 24L378 103.6l-48 27.7V75.9zm96.1 55.3l24 41.6L378 214.4 306 256l72 41.6 72.1 41.6-24 41.6L354 339.1l-72-41.6v83.1V464H234V380.7 297.6l-72 41.6L89.9 380.8l-24-41.6L138 297.6 210 256l-72-41.6L65.9 172.8l24-41.6L162 172.9l72 41.6V131.3 48h48v83.3 83.1l72-41.6 72.1-41.6z"/></svg>