<svg xmlns="http://www.w3.org/2000/svg" viewBox="0 0 448 512"><!--! Font Awesome Pro 6.3.0 by @fontawesome - https://fontawesome.com License - https://fontawesome.com/license (Commercial License) Copyright 2023 Fonticons, Inc. --><path d="M298 0H138V48h56V97.4C90.4 109.3 10 197.2 10 304c0 114.9 93.1 208 208 208s208-93.1 208-208c0-44.7-14.1-86.1-38.1-120l31-31 17-17L402 102.1l-17 17-29.2 29.2c-31.1-27.5-70.4-45.9-113.8-50.9V48h56V0zM58 304a160 160 0 1 1 320 0A160 160 0 1 1 58 304zm172-48v80c0 28.7 23.3 52 52 52s52-23.3 52-52V256c0-28.7-23.3-52-52-52s-52 23.3-52 52zm52-12c6.6 0 12 5.4 12 12v80c0 6.6-5.4 12-12 12s-12-5.4-12-12V256c0-6.6 5.4-12 12-12zm-135.7 8.1c2.5-4.9 7.5-8.1 13.1-8.1h.7c7.7 0 13.9 6.2 13.9 13.9c0 3.7-1.5 7.2-4.1 9.9l-35.3 35.3c-15.8 15.8-24.6 37.1-24.6 59.4V368v20h20 64 20V348H194 152.5c2.2-6.2 5.7-11.9 10.4-16.6l35.3-35.3C208.3 286 214 272.2 214 257.9c0-29.8-24.2-53.9-53.9-53.9h-.7c-20.7 0-39.6 11.7-48.8 30.2l-6.4 12.9 35.8 17.9 6.4-12.9z"/></svg>