<svg xmlns="http://www.w3.org/2000/svg" viewBox="0 0 448 512"><!--! Font Awesome Pro 6.3.0 by @fontawesome - https://fontawesome.com License - https://fontawesome.com/license (Commercial License) Copyright 2023 Fonticons, Inc. --><path d="M138 0H298V48H242V97.4c43.4 5 82.8 23.3 113.8 50.9L385 119l17-17L435.9 136l-17 17-31 31c24 33.9 38.1 75.3 38.1 120c0 114.9-93.1 208-208 208S10 418.9 10 304C10 197.2 90.4 109.3 194 97.4V48H138V0zm80 464a160 160 0 1 0 0-320 160 160 0 1 0 0 320zm24-248V320v24H194V320 216 192h48v24z"/></svg>