<svg xmlns="http://www.w3.org/2000/svg" viewBox="0 0 512 512"><!--! Font Awesome Pro 6.3.0 by @fontawesome - https://fontawesome.com License - https://fontawesome.com/license (Commercial License) Copyright 2023 Fonticons, Inc. --><path d="M434.2 1.3L400.3 35.2l17 17 3.8 3.8L383 94.1 328 39l-17-17L277.1 56l17 17 72 72 72 72 17 17L488.9 200l-17-17-55-55L455 89.9l3.8 3.8 17 17 33.9-33.9-17-17L472 39 451.2 18.2l-17-17zM270.4 94.6L70 295l-7 7V312 414.1L17.2 459.8l-17 17 33.9 33.9 17-17L96.9 448H199h9.9l7-7L416.4 240.6l-1-1-33-33L189.1 400H111V321.9l29.7-29.7 23 23L175 326.6 197.6 304l-11.3-11.3-23-23 41.4-41.4 23 23L239 262.6 261.6 240l-11.3-11.3-23-23 41.4-41.4 23 23L303 198.6 325.6 176l-11.3-11.3-23-23 13.1-13.1-33-33-1-1z"/></svg>