<svg xmlns="http://www.w3.org/2000/svg" viewBox="0 0 640 512"><!--! Font Awesome Pro 6.3.0 by @fontawesome - https://fontawesome.com License - https://fontawesome.com/license (Commercial License) Copyright 2023 Fonticons, Inc. --><path d="M151 40V64 286.7L231 260V64 40h48V64 244l80-26.7V64 40h48V64 201.4l80-26.7V64 40h48V64v94.7l64.4-21.5 22.8-7.6 15.2 45.5-22.8 7.6L535 209.3V448v24H487V448 225.3L407 252V448v24H359V448 268l-80 26.7V448v24H231V448 310.6l-80 26.7V448v24H103V448 353.3L38.6 374.8l-22.8 7.6L.6 336.8l22.8-7.6L103 302.7V64 40h48z"/></svg>