<svg xmlns="http://www.w3.org/2000/svg" viewBox="0 0 640 512"><!--! Font Awesome Pro 6.3.0 by @fontawesome - https://fontawesome.com License - https://fontawesome.com/license (Commercial License) Copyright 2023 Fonticons, Inc. --><path d="M271.2 180.7c-33.3 0-60.2-25.3-60.2-56.5s60.2-101.6 60.2-101.6s60.2 70.5 60.2 101.6s-27 56.5-60.2 56.5zM45.3 150.6H186c6.6 18.6 19.1 34.4 35.2 45.2H45.3l0 271.1 346.4 0V361.4H497.1V195.8l-175.9 0c16.2-10.7 28.7-26.6 35.2-45.2H497.1h45.2v45.2V391.5L421.8 512H45.3 .1V466.8 195.8 150.6H45.3zm60.2 75.3a30.1 30.1 0 1 1 0 60.2 30.1 30.1 0 1 1 0-60.2z"/></svg>