<svg xmlns="http://www.w3.org/2000/svg" viewBox="0 0 576 512"><!--! Font Awesome Pro 6.3.0 by @fontawesome - https://fontawesome.com License - https://fontawesome.com/license (Commercial License) Copyright 2023 Fonticons, Inc. --><path d="M139 80c0-17.7 14.3-32 32-32c14 0 25.9 9 30.3 21.5l7 20.1L229 85.1c16-3.5 34.2-5.1 54-5.1s38 1.7 54 5.1l20.8 4.5 7-20.1C369.1 57 381 48 395 48c17.7 0 32 14.3 32 32c0 11.5-6.1 21.7-15.4 27.3l-15.1 9.2 4.4 17.2c1.3 5.3 2.1 11.3 2.1 18.3c0 54.9-51 104-120 104s-120-49.1-120-104c0-6.9 .8-13 2.1-18.3l4.4-17.2-15.1-9.2C145.1 101.7 139 91.5 139 80zM171 0C126.8 0 91 35.8 91 80c0 22.8 9.5 43.3 24.7 57.9c-.3 2.6-.5 5.3-.6 8L97.9 159.4 22.4 218.9 3.6 233.7l14.9 18.9 25.8 32.7c11.9 15.1 24.9 28.7 38.7 40.9L23 336.3 .3 340.2 3.2 363l16 128 2.6 21H43 91h24H475h22.1l0 0H523h21.2l2.6-21 16-128 2.8-22.8L543 336.3l-60-10.2c13.9-12.2 26.8-25.8 38.7-40.9l25.8-32.7 14.9-18.9-18.9-14.9-75.4-59.4-17.3-13.6c-.1-2.7-.3-5.3-.6-8C465.5 123.3 475 102.8 475 80c0-44.2-35.8-80-80-80c-27.5 0-51.8 13.9-66.1 35c-14.7-2.1-30.2-3-45.9-3s-31.1 .9-45.9 3C222.8 13.9 198.5 0 171 0zM53.7 379.8l51.9-8.8c.5 2.5 .9 5.1 1.1 7.5l2.2 21.5h21.6 .5 24V376 332.5 319.4l-11-7.1c-22.9-14.8-44-33.7-62.1-56.8L71 241.7 108.7 212l10.9 13.9c83.3 105.7 243.5 105.7 326.8 0L457.3 212 495 241.7l-10.9 13.9c-18.1 23-39.2 41.9-62.1 56.8l-11 7.1v13.1V376v24h24 .5 21.6l2.2-21.5c.3-2.4 .6-5 1.1-7.5l51.9 8.8L501.8 464H475 452.9l0 0H371V392v-9.9l-7-7-32-32-7-7H315 251h-9.9l-7 7-32 32-7 7V392v72H115 91 64.2L53.7 379.8zM243 464V401.9L260.9 384h44.1L323 401.9V464H243zm8-320a16 16 0 1 0 -32 0 16 16 0 1 0 32 0zm80 16a16 16 0 1 0 0-32 16 16 0 1 0 0 32zm-16 32c0-13.3-14.3-24-32-24s-32 10.7-32 24s14.3 24 32 24s32-10.7 32-24z"/></svg>