<svg xmlns="http://www.w3.org/2000/svg" viewBox="0 0 320 512"><!--! Font Awesome Pro 6.3.0 by @fontawesome - https://fontawesome.com License - https://fontawesome.com/license (Commercial License) Copyright 2023 Fonticons, Inc. --><path d="M69.3 307.7L80 294.5v-17V48H208V277.5v17l10.7 13.2C232 324.2 240 345.1 240 368c0 53-43 96-96 96s-96-43-96-96c0-22.9 8-43.8 21.3-60.3zM256 0H208 80 32V48 277.5C12 302.2 0 333.7 0 368c0 79.5 64.5 144 144 144s144-64.5 144-144c0-34.3-12-65.8-32-90.5V48 0zM144 416a48 48 0 1 0 0-96 48 48 0 1 0 0 96z"/></svg>