<svg xmlns="http://www.w3.org/2000/svg" viewBox="0 0 640 512"><!--! Font Awesome Pro 6.3.0 by @fontawesome - https://fontawesome.com License - https://fontawesome.com/license (Commercial License) Copyright 2023 Fonticons, Inc. --><path d="M122.9 52.8L102.2 72H480.6L459.9 52.8 442.3 36.5 474.9 1.3l17.6 16.3 65.6 60.8 19.4 18L557.7 114l-68.8 60.8-18 15.9-31.8-36 18-15.9L478.4 120h-374l21.3 18.8 18 15.9-31.8 36-18-15.9L25.1 114 5.2 96.4l19.4-18L90.3 17.6 107.9 1.3l32.6 35.2L122.9 52.8zM113.5 512H65l6.9-48L97 288 289 160 481 288l25.1 176 6.9 48H464.5h-351zM265 233.7L141.5 316 120.3 464H265V233.7zm48 0V360l62.4 104h82.3L436.5 316 313 233.7z"/></svg>