<svg xmlns="http://www.w3.org/2000/svg" viewBox="0 0 576 512"><!--! Font Awesome Pro 6.3.0 by @fontawesome - https://fontawesome.com License - https://fontawesome.com/license (Commercial License) Copyright 2023 Fonticons, Inc. --><path d="M211.9 138l-17.9 15.9-72 64L106 232.1 90.1 217.9l-72-64L.1 138 32 102.1l17.9 15.9L82 146.6 82 24V0h48l0 24V146.6l32.1-28.5L180 102.1 211.9 138zm352 0l-17.9 15.9-72 64L458 232.1l-15.9-14.2-72-64L352.1 138 384 102.1l17.9 15.9L434 146.6V24 0h48V24 146.6l32.1-28.5L532 102.1 563.9 138zM106.5 512H58l6.9-48L90 288 282 160 474 288l25.1 176 6.9 48H457.5h-351zM258 233.7L134.5 316 113.3 464H258V233.7zm48 0V360l62.4 104h82.3L429.5 316 306 233.7z"/></svg>