<svg xmlns="http://www.w3.org/2000/svg" viewBox="0 0 640 512"><!--! Font Awesome Pro 6.3.0 by @fontawesome - https://fontawesome.com License - https://fontawesome.com/license (Commercial License) Copyright 2023 Fonticons, Inc. --><path d="M52 512H0l18.4-44.2c.5-1.3 1-2.5 1.5-3.8C52.2 379.7 56 280.5 56 192C56 86 99 0 152 0H484.2l0 .1c1.3-.1 2.5-.1 3.8-.1c24.5 0 44.1 11.4 58 24.5c13.6 13 23.7 29.4 31.1 46.1C592 104.2 600 147.1 600 192s-8 87.8-22.9 121.3c-7.4 16.7-17.5 33.2-31.1 46.1c-13.9 13.2-33.5 24.5-58 24.5c-16.3 0-30.5-5-42.2-12.3c2.9-20.1 5-40.2 6.5-60.2C462.5 327 474.8 336 488 336c35.3 0 64-64.5 64-144s-28.7-144-64-144c-1.6 0-3.1 .1-4.6 .4C450.2 53.7 424 116 424 192c0 48.8-1.1 100.8-6.9 152.2l-.1 .5c-5.9 51.2-16.5 101.7-35.4 147.5L373.3 512H52zM152 48c-.1 0-.1 0-.3 0s-.4 .1-.9 .3c-.9 .4-2.7 1.3-5.2 3.4c-5.2 4.4-11.9 12.6-18.6 26C113.7 104.5 104 144.8 104 192c0 83-3 182.7-33.1 272H341.1C371.6 383.6 376 285.9 376 192c0-44.9 8-87.8 22.9-121.3C402.3 63 406.3 55.3 411 48H152zM512 192c0 26.5-10.7 48-24 48s-24-21.5-24-48s10.7-48 24-48s24 21.5 24 48zm-204.7-4.7l-72 72L224 270.6l-11.3-11.3-40-40L161.4 208 184 185.4l11.3 11.3L224 225.4l60.7-60.7L296 153.4 318.6 176l-11.3 11.3z"/></svg>