<svg xmlns="http://www.w3.org/2000/svg" viewBox="0 0 640 512"><!--! Font Awesome Pro 6.3.0 by @fontawesome - https://fontawesome.com License - https://fontawesome.com/license (Commercial License) Copyright 2023 Fonticons, Inc. --><path d="M97.6 53L48.4 14.8 29.4 .1 0 38 19 52.7 591.5 497.2l19 14.7L639.9 474l-19-14.7L576 424.4V192c0-49.5-10.5-95.4-28.5-129.9C530 28.7 501.7 0 464 0H176c-34.2 0-60.7 23.7-78.4 53zm38.3 29.7C150 56.5 165.3 48 176 48H388.7c-3 4.5-5.7 9.3-8.2 14.1C362.5 96.6 352 142.5 352 192c0 22 2.1 43.2 5.9 63.1L135.9 82.7zM462 335.9l-32.5-25.2c-2.2-3.3-4.3-6.9-6.5-11c-13.8-26.3-23-64.3-23-107.7s9.2-81.3 23-107.7C437.4 56.9 453.1 48 464 48s26.6 8.9 41 36.3c13.8 26.3 23 64.3 23 107.7s-9.2 81.3-23 107.7c-14.4 27.5-30.1 36.3-41 36.3c-.7 0-1.3 0-2-.1zm44.6 34.6c7.9-5.3 15-11.9 21.4-19.4v36.1l-21.4-16.6zM66.8 148.6c-1.8 14-2.8 28.6-2.8 43.4c0 49.5 10.5 95.4 28.5 129.9C110 355.3 138.3 384 176 384H365.5l-60.9-48H176c-10.9 0-26.6-8.9-41-36.3c-13.8-26.3-23-64.3-23-107.7c0-2.6 0-5.1 .1-7.7L66.8 148.6zM272 464V416H224v72 24h24H528l-60.9-48H272zM488 192c0-26.5-10.7-48-24-48s-24 21.5-24 48s10.7 48 24 48s24-21.5 24-48z"/></svg>