<svg xmlns="http://www.w3.org/2000/svg" viewBox="0 0 448 512"><!--! Font Awesome Pro 6.3.0 by @fontawesome - https://fontawesome.com License - https://fontawesome.com/license (Commercial License) Copyright 2023 Fonticons, Inc. --><path d="M48 143.3c0 12.5 2.9 24.9 8.5 36.1l28.9 57.9 1.5 3 .6 3.2L123.8 432h1.9l35.1-126.4 4.9-17.6H184h48 18.2l4.9 17.6L290.2 432h1.9l36.3-188.5 .6-3.2 1.5-3 26.9-53.8c6.9-13.9 10.6-29.2 10.6-44.8c0-32.4-26.3-58.7-58.7-58.7H298.6C282 80 266 85.9 253.4 96.7l-7 6 8.1 6 19.2 14.4-28.8 38.4-19.2-14.4L209 134.8l-15.4-11.6-32-24-8-6C142.2 84.6 128.3 80 114 80h-2.7C76.3 80 48 108.3 48 143.3zm159-70l15.1-13C243.4 42 270.5 32 298.6 32h10.7C368.2 32 416 79.8 416 138.7c0 23-5.4 45.7-15.6 66.2l-25.4 50.8L335.6 460.5 331.8 480H312 272 253.8l-4.9-17.6L213.8 336H202.2L167.1 462.4 162.2 480H144 104 84.2l-3.7-19.5L41.1 255.8 13.6 200.8C4.7 183 0 163.3 0 143.3C0 81.8 49.8 32 111.3 32H114c24.7 0 48.7 8 68.4 22.8l8 6L207 73.2z"/></svg>