<svg xmlns="http://www.w3.org/2000/svg" viewBox="0 0 448 512"><!--! Font Awesome Pro 6.3.0 by @fontawesome - https://fontawesome.com License - https://fontawesome.com/license (Commercial License) Copyright 2023 Fonticons, Inc. --><path d="M153 0h24 40 40 24V48H257 241V96h56 16v16 16h88 32.3L424 158.9 380.5 304H385h24l0 48H385 361V488v24H313V488 352l-192 0V488v24H73V488 352H49 25l0-48H49h4.5L10 158.9 .7 128H33h88V112 96h16 56V48H177 153V0zM330.3 304l38.4-128H313V304h17.3zM265 304V176H169V304l96 0zm-144 0V176H65.3l38.4 128H121z"/></svg>