<svg xmlns="http://www.w3.org/2000/svg" viewBox="0 0 448 512"><!--! Font Awesome Pro 6.3.0 by @fontawesome - https://fontawesome.com License - https://fontawesome.com/license (Commercial License) Copyright 2023 Fonticons, Inc. --><path d="M55.3 0H64 368h8.7l6.7 5.6 48 40L400.6 82.4 359.3 48H240V96h88 48v48V400v48H345.9l47 47 17 17H342.1l-64-64H153.9l-64 64H22.1l0 0 17-17 47-47H56V400 144 96h48 88V48H72.7L31.4 82.4 .6 45.6l48-40L55.3 0zM328 144H104v96H328V144zM104 400H328V288H104V400zm48-72a24 24 0 1 1 0 48 24 24 0 1 1 0-48zm104 24a24 24 0 1 1 48 0 24 24 0 1 1 -48 0z"/></svg>