<svg xmlns="http://www.w3.org/2000/svg" viewBox="0 0 576 512"><!--! Font Awesome Pro 6.3.0 by @fontawesome - https://fontawesome.com License - https://fontawesome.com/license (Commercial License) Copyright 2023 Fonticons, Inc. --><path d="M384.9 32h-51l23 64H203.1l23-64h-51l-23 64H104 80v48h24 30.8L106 224H64 40v48H64 88.7L59.9 352H24 0v48H24 42.7L13.9 480h51l28.8-80H466.3l28.8 80h51l-28.8-80H536h24V352H536 500.1l-28.8-80H496h24V224H496 454l-28.8-80H456h24V96H456 407.9l-23-64zM374.2 144L403 224H157l28.8-80H374.2zm46.1 128l28.8 80H110.9l28.8-80H420.3z"/></svg>