<svg xmlns="http://www.w3.org/2000/svg" viewBox="0 0 512 512"><!--! Font Awesome Pro 6.3.0 by @fontawesome - https://fontawesome.com License - https://fontawesome.com/license (Commercial License) Copyright 2023 Fonticons, Inc. --><path d="M50 48V208H202l0-160H50zM250 208H402V48H250l0 160zM50 256V400H402V256H50zM2 0H50 402h48V48 400v48H402 387.9l47 47 17 17H384.1l-64-64H131.9l-64 64H.1l17-17 47-47H50 2V400 48 0zM98 320a32 32 0 1 1 64 0 32 32 0 1 1 -64 0zm224-32a32 32 0 1 1 0 64 32 32 0 1 1 0-64z"/></svg>