<svg xmlns="http://www.w3.org/2000/svg" viewBox="0 0 512 512"><!--! Font Awesome Pro 6.3.0 by @fontawesome - https://fontawesome.com License - https://fontawesome.com/license (Commercial License) Copyright 2023 Fonticons, Inc. --><path d="M182.3 228.5l-24.2 13.9L123 262.7c-19.7 11.4-37.3 38.7-50.4 72.3c-2 5.1-3.8 10.2-5.4 15c5 1 10.3 2 15.7 2.8c35.7 5.4 68.2 3.8 87.8-7.5L205.8 325 230 311.1 254.2 325l35.1 20.3c19.7 11.4 52.1 12.9 87.8 7.5c5.4-.8 10.7-1.8 15.7-2.8c-1.6-4.8-3.4-9.9-5.4-15c-13.1-33.7-30.8-61-50.4-72.3l-35.1-20.3-24.2-13.9V200.6 160c0-22.7-14.8-51.6-37.4-79.8c-3.4-4.3-6.9-8.4-10.3-12.2c-3.4 3.8-6.8 7.9-10.3 12.2c-22.6 28.2-37.4 57.1-37.4 79.8v40.6 27.9zM134 200.6V160C134 80 230 0 230 0s96 80 96 160v40.6l35.1 20.3c69.3 40 90.6 163.1 90.6 163.1s-117.3 43.1-186.6 3.1L230 366.9l-35.1 20.3C125.6 427.1 8.3 384 8.3 384s21.3-123.1 90.6-163.1L134 200.6zm-26.9-78.2c-3.2 12.2-5.1 24.8-5.1 37.7v22.1l-19.1 11c-9.2 5.3-17.6 11.6-25.2 18.6C.5 163.3 2 120.5 2 120.5s35.7-22.3 105.1 1.9zM358 160c0-12.6-1.8-25-4.9-37c70.6-25.2 106.9-2.5 106.9-2.5s1.5 43.3-56.6 92.2c-7.9-7.4-16.6-14-26.2-19.5l-19.1-11V160zM210.9 414.9l19.1-11 19.1 11c9.6 5.6 19.8 9.8 30.2 13C264.5 493.7 230 512 230 512s-34.5-18.3-49.3-84.2c10.4-3.2 20.6-7.4 30.2-13zM230 216a40 40 0 1 1 0 80 40 40 0 1 1 0-80z"/></svg>