<svg xmlns="http://www.w3.org/2000/svg" viewBox="0 0 576 512"><!--! Font Awesome Pro 6.3.0 by @fontawesome - https://fontawesome.com License - https://fontawesome.com/license (Commercial License) Copyright 2023 Fonticons, Inc. --><path d="M330 253.2V188.8c-42.3-17.2-89.7-17.2-132 0v64.4L40 288 0 152.6C30.8 112.4 126.7 32 264 32s233.2 80.4 264 120.6L488 288 330 253.2zM150 188.8V156.4l29.9-12.2c53.9-21.9 114.2-21.9 168.1 0L378 156.4v32.3 25.9l76.6 16.9 19.7-66.8C439 130.1 364.3 80 264 80s-175 50.1-210.4 84.7l19.7 66.8L150 214.6V188.8zM40 320h64v64H40V320zm0 96h64v64H40V416zm160-96v64H136V320h64zm32 0h64v64H232V320zm160 0v64H328V320h64zm32 0h64v64H424V320zm64 96v64H424V416h64zm-352 0H392v64H136V416z"/></svg>