<svg xmlns="http://www.w3.org/2000/svg" viewBox="0 0 640 512"><!--! Font Awesome Pro 6.3.0 by @fontawesome - https://fontawesome.com License - https://fontawesome.com/license (Commercial License) Copyright 2023 Fonticons, Inc. --><path d="M143.7 153.7l-15.9 16c-3.8-3.7-6.1-8.7-6.6-14c-.6-6.6-.7-13.1-.5-19.5C100 142.6 82.8 150 70 157.9c-20.4 12.6-24.7 23-24.7 28.3c0 3.9 2 10.4 11.8 19c9.8 8.6 25.2 17.3 46.2 25.2C145.2 245.9 204.5 256 271.2 256s126-10.1 167.8-25.6c21-7.8 36.4-16.6 46.2-25.2c9.8-8.6 11.8-15.1 11.8-19c0-5.4-4.3-15.7-24.7-28.3c-12.9-7.9-30-15.3-50.7-21.6c.3 6.4 .1 12.9-.5 19.5c-.5 5.3-2.8 10.2-6.6 14l-15.9-16c15.9 16 15.9 16 15.9 16.1l0 0 0 0-.1 .1-.2 .2c-.2 .2-.4 .4-.7 .6c-.5 .5-1.2 1.1-2 1.8c-1.7 1.4-3.9 3.2-6.9 5.2c-5.9 4.1-14.5 9.1-26 14c-23.2 9.9-58.1 19.1-107.4 19.1s-84.1-9.2-107.4-19.1c-11.6-4.9-20.1-10-26-14c-2.9-2-5.2-3.8-6.9-5.2c-.8-.7-1.5-1.3-2-1.8c-.3-.2-.5-.4-.7-.6l-.2-.2-.1-.1 0 0 0 0c0 0 0 0 15.9-16.1zM46.2 119.5c22.5-13.9 52.3-25.1 86.3-33.2C156.1 34.2 211.3 0 271.2 0s115.1 34.2 138.6 86.3c34 8.1 63.8 19.2 86.3 33.2c24.5 15.2 46.1 37.3 46.1 66.8c0 21.6-11.9 39.4-27.2 52.9c-15.4 13.5-36.3 24.7-60.3 33.6c-48.1 17.9-113 28.5-183.6 28.5s-135.5-10.6-183.6-28.5c-24-8.9-44.9-20-60.3-33.6C12 225.7 .1 207.8 .1 186.2c0-29.4 21.6-51.6 46.1-66.8zm330.3 22.6c-.5-54.1-47.4-96.9-105.4-96.9s-104.9 42.8-105.4 96.9c3.6 2.3 8.8 5.1 15.7 8.1c17.3 7.4 46.2 15.5 89.7 15.5s72.3-8.1 89.7-15.5c6.9-3 12.1-5.8 15.7-8.1zM110.7 341.4L50.4 461.9 40.3 482.1-.1 461.9 10 441.7 70.3 321.2 80.4 301l40.4 20.2-10.1 20.2zm361.4-20.2l60.2 120.5 10.1 20.2L502 482.1l-10.1-20.2L431.7 341.4l-10.1-20.2L462 301l10.1 20.2z"/></svg>