<svg xmlns="http://www.w3.org/2000/svg" viewBox="0 0 640 512"><!--! Font Awesome Pro 6.3.0 by @fontawesome - https://fontawesome.com License - https://fontawesome.com/license (Commercial License) Copyright 2023 Fonticons, Inc. --><path d="M313 0V24 48.9C437.7 58.6 540.7 143.3 569.2 256c.4 1.4 .7 2.8 1 4.2c.8 3.3 1.5 6.7 2.2 10.1c.5 2.7 1 5.5 1.5 8.3c.4 2.4 .7 4.9 1.1 7.4l2.3 18.1H559h-6.5-7.2l-4.8-5.3c-2.3-2.6-4.8-5.1-7.5-7.3c-2.2-1.9-4.4-3.6-6.7-5.2C513.5 277.2 497.9 272 481 272c-30.1 0-56.3 16.6-70 41.2c-6.4 11.5-10 24.7-10 38.8H385 369c0-14.1-3.6-27.3-10-38.8c-13.7-24.6-39.9-41.2-70-41.2s-56.3 16.6-70 41.2c-6.4 11.5-10 24.7-10 38.8H193 177c0-14.1-3.6-27.3-10-38.8C153.3 288.6 127.1 272 97 272c-16.9 0-32.5 5.2-45.4 14.1c-2.3 1.6-4.6 3.4-6.7 5.2c-2.6 2.3-5.1 4.7-7.5 7.3L32.6 304H25.4 19 .8l2.3-18.1c.3-2.5 .7-4.9 1.1-7.4c.4-2.8 .9-5.5 1.5-8.3c.7-3.4 1.4-6.7 2.2-10.1c.3-1.4 .7-2.8 1-4.2C37.3 143.3 140.3 58.6 265 48.9V24 0h48zm72 267.3c23.5-26.6 57.8-43.3 96-43.3c9.1 0 18 1 26.5 2.8C470 150.3 387.2 96 289 96s-181 54.3-218.5 130.8C79 224.9 87.9 224 97 224c38.2 0 72.5 16.8 96 43.3c23.5-26.6 57.8-43.3 96-43.3s72.5 16.8 96 43.3zM289 304c8.7 0 16.9 2.3 24 6.4V438.6c0 40.6-32.9 73.4-73.4 73.4c-27.8 0-53.2-15.7-65.7-40.6l-2.3-4.7-10.7-21.5 42.9-21.5 10.7 21.5 2.3 4.7c4.3 8.6 13.1 14.1 22.8 14.1c14.1 0 25.4-11.4 25.4-25.4V310.4c7.1-4.1 15.3-6.4 24-6.4z"/></svg>