<svg xmlns="http://www.w3.org/2000/svg" viewBox="0 0 640 512"><!--! Font Awesome Pro 6.3.0 by @fontawesome - https://fontawesome.com License - https://fontawesome.com/license (Commercial License) Copyright 2023 Fonticons, Inc. --><path d="M34 6.1L.1 40 17 57l56 56 17 17L123.9 96 107 79 51 23 34 6.1zm560 0L577 23 521 79l-17 17L538 129.9l17-17 56-56 17-17L594 6.1zM51 489l56-56 17-17L90 382.1 73 399 17 455 .1 472 34 505.9l17-17zm543 17L627.9 472l-17-17-56-56-17-17L504.1 416l17 17 56 56 17 17zM254.1 288H218l-20 80-12 48h49.5 157H442l-12-48-20-80H373.9 314 254.1zm1.4 48h117l8 32h-133l8-32zm13.3-96a72 72 0 1 0 90.5-112.1A72 72 0 1 0 268.7 240zM314 160a24 24 0 1 1 0 48 24 24 0 1 1 0-48zm200 96H435l6.1 24.2L455 336h83l-24-80zm-400 0L90 336h83L187 280.2 193 256H114zm55.8-32a48 48 0 1 0 0-96 48 48 0 1 0 0 96zM506 176a48 48 0 1 0 -96 0 48 48 0 1 0 96 0z"/></svg>