<svg xmlns="http://www.w3.org/2000/svg" viewBox="0 0 640 512"><!--! Font Awesome Pro 6.3.0 by @fontawesome - https://fontawesome.com License - https://fontawesome.com/license (Commercial License) Copyright 2023 Fonticons, Inc. --><path d="M122.5 0l-7.4 66.6L48.4 14.8 29.4 .1 0 38 19 52.7 591.5 497.2l19 14.7L639.9 474l-19-14.7L544 399.6V352 304 248 48 0H512c-2.8 0-8.5 1-16 3.3C460.4 14.5 384 57.1 384 176v99.4l-54.8-42.5c9.3-14 14.8-30.8 14.8-48.8V168v-1.3l-.1-1.3-16-144L325.5 0H277.2l3 26.7L296 169.3V184c0 7-1.8 13.5-4.9 19.2L248 169.8V168 24 0H200V24 132.5l-40.4-31.4L170.8 0H122.5zM104 177.9V184c0 48.6 39.4 88 88 88h8V488v24h48V488 291.4L104 177.9zM432 176c0-57.7 21.7-88.6 41.4-105.7c7.7-6.6 15.5-11.6 22.6-15.2V248v56H432V176z"/></svg>