<svg xmlns="http://www.w3.org/2000/svg" viewBox="0 0 640 512"><!--! Font Awesome Pro 6.3.0 by @fontawesome - https://fontawesome.com License - https://fontawesome.com/license (Commercial License) Copyright 2023 Fonticons, Inc. --><path d="M447.6 83.2l0 0 8.2-8.2 22.6-22.6 11.3 11.3L501 75l11.3 11.3 11.3 11.3L501 120.2l-8.2 8.2c-35.3 35.3-10.3 95.6 39.6 95.6H544h32v16 16 16 16H544 532.5c-34.8 0-57.5 29.4-56 59.1L620.9 459.3l19 14.7-29.4 37.9-19-14.7L19 52.7 0 38 29.4 .1l19 14.7 84.9 65.9L139 75l0 0 0 0 11.3-11.3 11.3-11.3L184.2 75l8.2 8.2 0 0C227.7 118.4 288 93.4 288 43.5V32 0h16 16 16 16V32 43.5c0 49.9 60.3 74.9 95.6 39.6l0 0zM218.6 147L433 313.4c7.2-23.2 22.3-44 43.4-57.4c-36.4-23.3-55.1-68.4-45.8-110.6c-42.2 9.3-87.3-9.4-110.6-45.8c-21.6 33.8-61.9 52.3-101.4 47.4zM357.4 377.6L402 412.7c-26.3 3-50 24.5-50 55.7V480v32H336 320 304 288V480 468.5c0-49.9-60.3-74.9-95.6-39.6l0 0-8.2 8.2-22.6 22.6-11.3-11.3L139 437l0 0-11.3-11.3-11.3-11.3L139 391.8l8.2-8.2c35.3-35.3 10.3-95.6-39.6-95.6H96 64V272 256 240 224H96h11.5c15 0 27.7-5.4 37.2-14l38.1 30c-5.7 6-12.1 11.4-19.2 16c36.4 23.3 55.1 68.4 45.8 110.6c42.2-9.3 87.3 9.4 110.6 45.8c9.4-14.8 22.4-26.6 37.4-34.8z"/></svg>