<svg xmlns="http://www.w3.org/2000/svg" viewBox="0 0 640 512"><!--! Font Awesome Pro 6.3.0 by @fontawesome - https://fontawesome.com License - https://fontawesome.com/license (Commercial License) Copyright 2023 Fonticons, Inc. --><path d="M318.2 284.3l0 0 26.5 26.5-.2 .2L311 344.5l-.2 .2-26.5-26.5 0 0C259 293 216 310 216 345.6V384h-.3H168.3 168V345.6c0-35.6-43.1-52.6-68.3-27.4l0 0L73.2 344.7l-.2-.2L39.5 311l-.2-.2 26.5-26.5C91 259.1 74 216 38.4 216H0v-.3V168.3 168H38.4c34.5 0 56.2-37.6 30-65.6c-.8-.9-1.7-1.8-2.6-2.6L39.3 73.2l.2-.2L73 39.5l.2-.2L99.7 65.8C124.9 91 168 74 168 38.4V0h.3 47.4 .3V38.4C216 74 259.1 91 284.3 65.8l26.5-26.5 .2 .2 16.8 16.8L344.5 73l.2 .2L318.2 99.7C293 124.9 310 168 345.6 168H384v.3 47.4 .3H345.6c-35.6 0-52.6 43.1-27.4 68.3zm-33-92.3c-17.8-17.3-27.3-41.9-26.5-66.7c-24.8 .8-49.4-8.8-66.7-26.5c-16.7 17.2-40.4 26.7-64.4 26.6c.7 13.2-1.8 26.4-7.4 38.9c-5 10.9-12.1 20.5-20.8 28.3c17.4 17.2 26.7 41.6 25.9 66.1c24.8-.8 49.4 8.8 66.7 26.5c17.3-17.8 41.9-27.3 66.7-26.5c-.8-24.8 8.8-49.4 26.5-66.7zM176 152a24 24 0 1 1 0 48 24 24 0 1 1 0-48zm48 40a16 16 0 1 1 0 32 16 16 0 1 1 0-32zm385.1 85.5l-11.3 11.3C574.5 312.1 591 352 624 352h16v32H624c-33 0-49.5 39.9-26.2 63.2l11.3 11.3-22.6 22.6-11.3-11.3C551.9 446.5 512 463 512 496v16H480V496c0-33-39.9-49.5-63.2-26.2l-11.3 11.3-22.6-22.6 11.3-11.3C417.5 423.9 401 384 368 384H352V352h16c33 0 49.5-39.9 26.2-63.2l-11.3-11.3 22.6-22.6 11.3 11.3C440.1 289.5 480 273 480 240V224h32v16c0 33 39.9 49.5 63.2 26.2l11.3-11.3 22.6 22.6zM480 384a32 32 0 1 0 0-64 32 32 0 1 0 0 64z"/></svg>