<svg xmlns="http://www.w3.org/2000/svg" viewBox="0 0 512 512"><!--! Font Awesome Pro 6.3.0 by @fontawesome - https://fontawesome.com License - https://fontawesome.com/license (Commercial License) Copyright 2023 Fonticons, Inc. --><path d="M383.6 83.2l0 0 8.2-8.2 22.6-22.6 11.3 11.3L437 75l11.3 11.3 11.3 11.3L437 120.2l-8.2 8.2c-35.3 35.3-10.3 95.6 39.6 95.6H480h32v16 16 16 16H480 468.5c-49.9 0-74.9 60.3-39.6 95.6l8.2 8.2 22.6 22.6-11.3 11.3L437 437l-11.3 11.3-11.3 11.3L391.8 437l-8.2-8.2c-35.3-35.3-95.6-10.3-95.6 39.6V480v32H272 256 240 224V480 468.5c0-49.9-60.3-74.9-95.6-39.6l0 0-8.2 8.2L97.6 459.6 86.3 448.3 75 437l0 0L63.7 425.7 52.4 414.4 75 391.8l8.2-8.2C118.4 348.3 93.4 288 43.5 288H32 0V272 256 240 224H32 43.5c49.9 0 74.9-60.3 39.6-95.6l0 0 0 0L75 120.2 52.4 97.6 63.7 86.3 75 75l0 0 0 0L86.3 63.7 97.6 52.4 120.2 75l8.2 8.2 0 0C163.7 118.4 224 93.4 224 43.5V32 0h16 16 16 16V32 43.5c0 49.9 60.3 74.9 95.6 39.6l0 0zM256 99.6a156.4 156.4 0 1 0 0 312.8 156.4 156.4 0 1 0 0-312.8zM192 224a32 32 0 1 1 64 0 32 32 0 1 1 -64 0zm88 80a24 24 0 1 1 48 0 24 24 0 1 1 -48 0z"/></svg>