<svg xmlns="http://www.w3.org/2000/svg" viewBox="0 0 640 512"><!--! Font Awesome Pro 6.3.0 by @fontawesome - https://fontawesome.com License - https://fontawesome.com/license (Commercial License) Copyright 2023 Fonticons, Inc. --><path d="M501.2 289.6l-9.1-9.1c15.8-4.2 30.7-12.5 43-24.9l11.3-11.3 33.9-33.9-33.9-33.9 0 0c-11.6-11.5-24.8-20.4-38.9-26.6C546.8 140.9 576 105.9 576 64V48 0H528 512c-41.9 0-76.9 29.3-85.8 68.5C420 54.3 411.1 41 399.4 29.4l0 0L365.5-4.5 331.6 29.4 320.3 40.7c-12.4 12.4-20.7 27.3-24.9 43l-9.1-9.1-33.9 33.9-11.3 11.3c-8.6 8.6-15.3 18.5-19.9 29.1L48.4 14.8 29.4 .1 0 38 19 52.7 591.5 497.2l19 14.7L639.9 474l-19-14.7L458 332.8l9.3-9.3 33.9-33.9zm-81.5 13.5l-47.4-36.8c21.9-1.2 44.3 6.5 61 23.3l-11.3 11.3c-.8 .8-1.6 1.5-2.4 2.2zM307.9 216.3l-46.3-36c1.5-9.7 6-19 13.5-26.5l11.3-11.3c20 20 27.2 48 21.5 73.7zM161.9 334.8l22.6 22.6 0 0L82.2 459.8l-17 17 33.9 33.9 17-17L218.5 391.4 241.1 414c37.5 37.5 98.3 37.5 135.8 0l11.3-11.3 .5-.5-38-29.9-7.8 7.8c-18.7 18.7-49.1 18.7-67.9 0l-21.5-21.5c20.1-13.3 44.8-16.6 67.2-9.8l-90.2-71.1c.1 15.6-4.3 31.2-13.2 44.7l-21.5-21.5c-15.4-15.4-18.2-38.8-8.2-57l-38-29.9c-24.7 37.3-20.6 88 12.2 120.9zM375.7 164l-21.5-21.5c-18.7-18.7-18.7-49.1 0-67.9l11.3-11.3c27.3 27.4 30.7 69.6 10.2 100.6zm136.8 46.4l-11.3 11.3c-18.7 18.7-49.1 18.7-67.9 0l-21.5-21.5c31-20.5 73.3-17.2 100.6 10.2zM512 48h16V64c0 22.1-17.9 40-40 40H472V88c0-22.1 17.9-40 40-40z"/></svg>