<svg xmlns="http://www.w3.org/2000/svg" viewBox="0 0 576 512"><!--! Font Awesome Pro 6.3.0 by @fontawesome - https://fontawesome.com License - https://fontawesome.com/license (Commercial License) Copyright 2023 Fonticons, Inc. --><path d="M199 0a48 48 0 1 1 0 96 48 48 0 1 1 0-96zM55 352c0 61.9 50.1 112 112 112c42.8 0 80-24 98.9-59.3l42.3 22.6C281.3 477.7 228.2 512 167 512C78.6 512 7 440.4 7 352c0-68.5 43.1-126.9 103.5-149.7l16.9 44.9C85.1 263.2 55 304.1 55 352zM218.3 124.1l4.3 23.6 5.1 28.3H351h24v48H351 236.5l13.4 73.4c.7 3.8 4 6.6 7.9 6.6H391h15.7l6.3 14.4 47.2 107.9 27.2-9.1 22.8-7.6 15.2 45.5-22.8 7.6-48 16-20.8 6.9L425 465.6 375.3 352H257.7c-27.1 0-50.3-19.4-55.1-46L175.4 156.3l-4.3-23.6 47.2-8.6z"/></svg>