<svg xmlns="http://www.w3.org/2000/svg" viewBox="0 0 640 512"><!--! Font Awesome Pro 6.3.0 by @fontawesome - https://fontawesome.com License - https://fontawesome.com/license (Commercial License) Copyright 2023 Fonticons, Inc. --><path d="M343 56V32H295V56 312v24h48V312 56zM.2 155.9l32.4 35.4C95.1 134 174.8 95.3 263 83.7V56 35.3C162.3 47.2 71.3 90.8 .2 155.9zM118.4 286.4l32.5 35.3C182 293 220.4 272.2 263 262.3V213.3c-55.2 10.6-104.9 36.5-144.6 73.1zM375 213.3v49.1c42.6 9.8 81 30.6 112.1 59.3l32.5-35.3c-39.7-36.6-89.4-62.5-144.6-73.1zM263 424a56 56 0 1 0 112 0 56 56 0 1 0 -112 0zM375 56V83.7C463.2 95.3 542.9 134 605.3 191.3l32.4-35.4C566.7 90.8 475.7 47.2 375 35.3V56z"/></svg>