<svg xmlns="http://www.w3.org/2000/svg" viewBox="0 0 640 512"><!--! Font Awesome Pro 6.3.0 by @fontawesome - https://fontawesome.com License - https://fontawesome.com/license (Commercial License) Copyright 2023 Fonticons, Inc. --><path d="M32.7 191.3C108.1 122.2 208.6 80 319 80s210.9 42.2 286.3 111.3l32.4-35.4C553.8 79 441.9 32 319 32S84.2 79 .2 155.9l32.4 35.4zM319 256c64.9 0 123.9 24.9 168.1 65.6l32.5-35.3C466.9 237.7 396.4 208 319 208s-147.9 29.7-200.6 78.4l32.5 35.3C195.1 280.9 254.1 256 319 256zm56 168a56 56 0 1 0 -112 0 56 56 0 1 0 112 0z"/></svg>