<svg xmlns="http://www.w3.org/2000/svg" viewBox="0 0 320 512"><!--! Font Awesome Pro 6.3.0 by @fontawesome - https://fontawesome.com License - https://fontawesome.com/license (Commercial License) Copyright 2023 Fonticons, Inc. --><path d="M231.2 48l13.5 149c5.2 57.5-40 107-97.7 107c-57.9 0-100.6-50.4-95.6-106.9L64.7 48H155L83 120l96 104L147 120l64-40-6.4-32h24.7 1.9zM123 0H35.2 19L1.5 192.7C-5.6 270.1 48.9 337.8 123 350V464H59 35v48H59h88 88 24V488.2l0-.2 0-.2V464H235 171V350c74.1-12.2 128.5-80 121.5-157.4L275 0H258.8 195 123z"/></svg>