<svg xmlns="http://www.w3.org/2000/svg" viewBox="0 0 320 512"><!--! Font Awesome Pro 6.3.0 by @fontawesome - https://fontawesome.com License - https://fontawesome.com/license (Commercial License) Copyright 2023 Fonticons, Inc. --><path d="M231.2 48h-1.9H64.7l-7.1 80H238.4l-7.3-80zm11.6 128H53.3l-1.9 21.1C46.4 253.6 89.1 304 147 304c57.7 0 102.9-49.5 97.7-107l-1.9-21zM1.5 192.7L19 0H35.2 258.8 275l17.5 192.7c7 77.4-47.4 145.2-121.5 157.4V464h64 24v23.8l0 .2 0 .2V512H235 147 59 35V464H59h64V350C48.9 337.8-5.6 270.1 1.5 192.7z"/></svg>