<?xml version="1.0" encoding="utf-8"?>
<!-- Generator: Adobe Illustrator 23.0.4, SVG Export Plug-In . SVG Version: 6.00 Build 0)  -->
<svg version="1.1" xmlns="http://www.w3.org/2000/svg" xmlns:xlink="http://www.w3.org/1999/xlink" x="0px" y="0px"
	 viewBox="0 0 16 16" style="enable-background:new 0 0 16 16;" xml:space="preserve">
<style type="text/css">
	.st0{display:none;}
	.st1{display:inline;}
	.st2{fill:none;stroke:#000000;stroke-width:0.25;stroke-miterlimit:10;}
</style>
<g id="Background" class="st0">
	<g class="st1">
		<path d="M4.5,12v-0.7c0,0-0.1,0-0.1,0H2.6c-0.2,0-0.4,0.2-0.4,0.4v1.7c0,0.2,0.2,0.4,0.4,0.4h1.7c0.2,0,0.4-0.2,0.4-0.4v-0.9
			C4.6,12.3,4.5,12.2,4.5,12z"/>
		<path d="M4.4,5.2c0,0-0.1,0-0.1,0H2.6c-0.2,0-0.4,0.2-0.4,0.4v1.7c0,0.2,0.2,0.4,0.4,0.4h1.7c0,0,0.1,0,0.1,0L4.4,5.2
			C4.5,5.3,4.5,5.2,4.4,5.2z"/>
		<path d="M4.3,8.2H2.6c-0.2,0-0.4,0.2-0.4,0.4v1.7c0,0.2,0.2,0.4,0.4,0.4h1.7c0,0,0.1,0,0.1,0V8.3C4.4,8.2,4.4,8.2,4.3,8.2z"/>
		<path d="M6.1,4.4c0,0.1,0,0.2-0.1,0.3h1.3c0.2,0,0.4-0.2,0.4-0.4V2.6c0-0.2-0.2-0.4-0.4-0.4H5.6c-0.2,0-0.4,0.2-0.4,0.4v0.8
			C5.7,3.5,6.1,3.9,6.1,4.4z"/>
		<path d="M13.4,2.2h-1.7c-0.2,0-0.4,0.2-0.4,0.4v1.7c0,0.2,0.2,0.4,0.4,0.4h1.7c0.2,0,0.4-0.2,0.4-0.4V2.6
			C13.8,2.4,13.6,2.2,13.4,2.2z"/>
		<path d="M8.7,4.7h1.7c0.2,0,0.4-0.2,0.4-0.4V2.6c0-0.2-0.2-0.4-0.4-0.4H8.7c-0.2,0-0.4,0.2-0.4,0.4v1.7C8.3,4.6,8.4,4.7,8.7,4.7z"
			/>
		<path d="M4.8,3.5V2.6c0-0.2-0.2-0.4-0.4-0.4H2.6c-0.2,0-0.4,0.2-0.4,0.4v1.7c0,0.2,0.2,0.4,0.4,0.4h1.5c0-0.1-0.1-0.2-0.1-0.3
			C4.1,4,4.4,3.6,4.8,3.5z"/>
		<path d="M5.7,5.8c0.1,0,1-0.5,1.9-0.5C7.6,5.3,7.5,5.2,7.4,5.2H5.7c0,0,0,0,0,0V5.8z"/>
		<path d="M13.4,5.2h-1.7c-0.2,0-0.3,0.1-0.3,0.2c0.2-0.1,0.3-0.1,0.3-0.1c0.1,0,0.3,0.1,0.3,0.2v2.2h1.5c0.2,0,0.4-0.2,0.4-0.4V5.6
			C13.8,5.4,13.6,5.2,13.4,5.2z"/>
		<path d="M10.8,5.6L10.8,5.6c0-0.2-0.2-0.4-0.4-0.4H8.7c-0.1,0-0.2,0.1-0.3,0.1C9.1,5.5,9.6,5.8,10,5.8C10.3,5.8,10.6,5.7,10.8,5.6
			z"/>
		<path d="M5.7,10.6v0.2h1.6c0.2,0,0.4-0.2,0.4-0.4V10c-0.7,0-1.4,0.3-1.9,0.5C5.8,10.5,5.7,10.5,5.7,10.6z"/>
		<path d="M11.7,10.1c-0.2,0.1-0.3,0.1-0.5,0.2v0.1c0,0.2,0.2,0.4,0.4,0.4h1.7c0.2,0,0.4-0.2,0.4-0.4V8.6c0-0.2-0.2-0.4-0.4-0.4
			h-1.4v1.6C11.9,10,11.8,10,11.7,10.1z"/>
		<path d="M8.2,10v0.3c0,0.2,0.2,0.4,0.4,0.4h1.7c0.2,0,0.4-0.2,0.4-0.4c-0.2,0.1-0.4,0.1-0.7,0.1C9.3,10.5,8.9,10.1,8.2,10z"/>
		<path d="M5.2,12.6v0.8c0,0.2,0.2,0.4,0.4,0.4h1.7c0.2,0,0.4-0.2,0.4-0.4v-1.7c0-0.2-0.2-0.4-0.4-0.4H5.7V12
			C5.7,12.3,5.5,12.5,5.2,12.6z"/>
		<path d="M13.4,11.3h-1.7c-0.2,0-0.4,0.2-0.4,0.4v1.7c0,0.2,0.2,0.4,0.4,0.4h1.7c0.2,0,0.4-0.2,0.4-0.4v-1.7
			C13.8,11.4,13.6,11.3,13.4,11.3z"/>
		<path d="M10.3,11.3H8.6c-0.2,0-0.4,0.2-0.4,0.4v1.7c0,0.2,0.2,0.4,0.4,0.4h1.7c0.2,0,0.4-0.2,0.4-0.4v-1.7
			C10.7,11.4,10.6,11.3,10.3,11.3z"/>
	</g>
	<g id="Layer_2" class="st1">
		<path class="st2" d="M3.9,4.7C4,5,4.2,5.2,4.4,5.3"/>
		<path class="st2" d="M4.7,3.4c0.2,0,0.4-0.1,0.7,0"/>
		<path class="st2" d="M6.2,4.6C6.1,4.9,6,5.2,5.8,5.3"/>
		<line class="st2" x1="4.3" y1="7.7" x2="4.3" y2="8.3"/>
		<line class="st2" x1="4.3" y1="10.8" x2="4.3" y2="11.3"/>
		<path class="st2" d="M4.6,12.5c0.3,0.1,0.5,0.2,0.8,0.1"/>
		<line class="st2" x1="5.8" y1="11.3" x2="5.8" y2="10.7"/>
		<path class="st2" d="M7.7,10.1c0.1,0,0.3,0,0.6,0"/>
		<line class="st2" x1="10.5" y1="10.6" x2="11.4" y2="10.4"/>
		<line class="st2" x1="12.1" y1="8.3" x2="12.1" y2="7.7"/>
		<path d="M8.4,5.4"/>
		<polyline points="10.6,5.4 11.5,5.3 11.3,5.4 10.8,5.6 		"/>
		<polyline points="7.6,5.3 8.4,5.4 8.8,5.2 7.3,5.2 		"/>
		<polygon points="10.3,5.2 11.8,5.2 11.6,5.3 10.4,5.5 		"/>
	</g>
</g>
<g id="Layer_3" class="st0">
	<path class="st1" d="M11.1,5.7c-0.2,0-0.8,0.4-1.4,0.4c-0.1,0-0.2,0-0.3-0.1c-0.5-0.2-1-0.4-1.6-0.4C7.2,5.7,6.6,5.8,6.1,6
		c0,0-0.1,0-0.1,0V5.6c0.2-0.2,0.3-0.4,0.3-0.7C6.3,4.4,5.9,4,5.5,4S4.6,4.4,4.6,4.9c0,0.3,0.1,0.5,0.3,0.7v5.8
		c0,0.3,0.2,0.5,0.5,0.5c0.2,0,0.4-0.2,0.5-0.4v0c0,0,0-0.1,0-0.1v-1.2c0,0,0.1,0,0.1,0c0.5-0.2,1.2-0.5,1.8-0.5
		c0.8,0,1.2,0.4,1.9,0.4c0.5,0,1-0.2,1.4-0.4c0.1,0,0.2-0.1,0.2-0.2V5.9C11.4,5.8,11.3,5.7,11.1,5.7z M12.7,1.9H3.3
		c-0.8,0-1.4,0.6-1.4,1.4v9.5c0,0.8,0.6,1.4,1.4,1.4h9.5c0.8,0,1.4-0.6,1.4-1.4V3.3C14.1,2.5,13.5,1.9,12.7,1.9L12.7,1.9z
		 M13.1,12.7c0,0.2-0.2,0.4-0.4,0.4H3.3c-0.2,0-0.4-0.2-0.4-0.4V3.3C2.9,3,3,2.9,3.3,2.9h9.5v0c0.2,0,0.4,0.2,0.4,0.4L13.1,12.7z"/>
</g>
<g id="Layer_4">
	<path d="M12.7,9.2H9.4C9,9.2,8.6,9.6,8.6,10v3.3c0,0.4,0.3,0.8,0.8,0.8h3.3c0.4,0,0.8-0.3,0.8-0.8V10C13.5,9.6,13.1,9.2,12.7,9.2z"
		/>
	<circle cx="11" cy="4.8" r="2.6"/>
	<polygon points="2.1,14.1 7.3,14.1 4.7,8.9 	"/>
	<polygon points="4.7,2 5.6,3.9 7.6,4.1 6.1,5.5 6.5,7.6 4.7,6.6 2.9,7.6 3.3,5.5 1.8,4.1 3.8,3.9 	"/>
</g>
</svg>
