<svg xmlns="http://www.w3.org/2000/svg" viewBox="0 0 448 512"><!--! Font Awesome Pro 6.3.0 by @fontawesome - https://fontawesome.com License - https://fontawesome.com/license (Commercial License) Copyright 2023 Fonticons, Inc. --><defs><style>.fa-secondary{opacity:.4}</style></defs><path class="fa-primary" d="M40 320c-13.3 0-24 10.7-24 24c0 57.4 46.6 104 104 104h30.1l-20.4 40.8c-1.1 2.3-1.7 4.7-1.7 7.2c0 2.9 .8 5.8 2.4 8.4c2.9 4.7 8.1 7.6 13.6 7.6H304c5.5 0 10.7-2.9 13.6-7.6c1.6-2.6 2.4-5.5 2.4-8.4c0-2.4-.6-4.9-1.7-7.2L297.9 448H328c57.4 0 104-46.6 104-104c0-13.3-10.7-24-24-24H40z"/><path class="fa-secondary" d="M224 0h32c70.7 0 128 57.3 128 128c0 11.8-3.2 22.8-8.8 32.3C416 164 448 198.3 448 240c0 44.2-35.8 80-80 80H80c-44.2 0-80-35.8-80-80c0-41.7 32-76 72.8-79.7C67.2 150.8 64 139.8 64 128c0-35.3 28.7-64 64-64h81.3c17 0 30.7-13.7 30.7-30.7c0-6.1-1.8-12-5.2-17L224 0z"/></svg>