<svg xmlns="http://www.w3.org/2000/svg" viewBox="0 0 512 512"><!--! Font Awesome Pro 6.3.0 by @fontawesome - https://fontawesome.com License - https://fontawesome.com/license (Commercial License) Copyright 2023 Fonticons, Inc. --><defs><style>.fa-secondary{opacity:.4}</style></defs><path class="fa-primary" d="M286.2 308.2L218 262.7c-6.5-4.4-14.2-6.7-22.1-6.7H192c0 0-.1 0-.1 0H48c-26.5 0-48 21.5-48 48s21.5 48 48 48H432c26.5 0 48-21.5 48-48s-21.5-48-48-48H416.1c0 0-.1 0-.1 0h-3.9c-7.9 0-15.6 2.3-22.1 6.7l-68.2 45.5c-10.7 7.2-24.8 7.2-35.5 0z"/><path class="fa-secondary" d="M16 194.9C16 211 29 224 45.1 224H434.9c16.1 0 29.1-13 29.1-29.1c0-1.9-.2-3.7-.6-5.6C458.1 168.3 417.2 32 240 32S21.9 168.3 16.6 189.3c-.5 1.9-.6 3.7-.6 5.6zM112 112a16 16 0 1 1 0 32 16 16 0 1 1 0-32zm240 16a16 16 0 1 1 32 0 16 16 0 1 1 -32 0zM240 80a16 16 0 1 1 0 32 16 16 0 1 1 0-32zM16 400v16c0 35.3 28.7 64 64 64H400c35.3 0 64-28.7 64-64V400c0-8.8-7.2-16-16-16H32c-8.8 0-16 7.2-16 16zM218 262.7l68.2 45.5c10.7 7.2 24.8 7.2 35.5 0L390 262.7c6.5-4.4 14.2-6.7 22.1-6.7H195.9c7.9 0 15.6 2.3 22.1 6.7z"/></svg>