<svg xmlns="http://www.w3.org/2000/svg" viewBox="0 0 320 512"><!--! Font Awesome Pro 6.3.0 by @fontawesome - https://fontawesome.com License - https://fontawesome.com/license (Commercial License) Copyright 2023 Fonticons, Inc. --><defs><style>.fa-secondary{opacity:.4}</style></defs><path class="fa-primary" d="M248 136c0 37.1-19.4 69.6-48.6 88H208c17.7 0 32 14.3 32 32c0 15.7-11.3 28.8-26.3 31.5L240 432H48L74.3 287.5C59.3 284.8 48 271.7 48 256c0-17.7 14.3-32 32-32h8.5C59.4 205.6 40 173.1 40 136C40 78.6 86.6 32 144 32s104 46.6 104 104z"/><path class="fa-secondary" d="M240 432H48L6.6 473.4c-4.2 4.2-6.6 10-6.6 16C0 501.9 10.1 512 22.6 512H265.4c12.5 0 22.6-10.1 22.6-22.6c0-6-2.4-11.8-6.6-16L240 432z"/></svg>