<svg xmlns="http://www.w3.org/2000/svg" viewBox="0 0 512 512"><!--! Font Awesome Pro 6.3.0 by @fontawesome - https://fontawesome.com License - https://fontawesome.com/license (Commercial License) Copyright 2023 Fonticons, Inc. --><defs><style>.fa-secondary{opacity:.4}</style></defs><path class="fa-primary" d="M311 56A56 56 0 1 0 199 56a56 56 0 1 0 112 0zM163.3 120c-15.3 0-27 10.8-30.2 23.8c-7 27.8-32.2 48.3-62.1 48.3c-10.8 0-20.9-2.7-29.8-7.3c-8.4-4.4-19-4.5-27.7 .9C1.1 193.3-3.4 209.2 3.3 222.2L111.4 432H127h38.4H344.6 383h15.6L506.7 222.2c6.7-13 2.2-28.9-10.2-36.5c-8.7-5.4-19.3-5.4-27.7-.9c-8.9 4.7-19 7.3-29.8 7.3c-29.9 0-55.1-20.5-62.1-48.3c-3.3-13-15-23.8-30.2-23.8c-12.3 0-22.6 7.2-27.7 17c-12 23.2-36.2 39-64 39s-52-15.8-64-39c-5.1-9.8-15.4-17-27.7-17zM255 224l0 0 0 0s0 0 0 0z"/><path class="fa-secondary" d="M399 432H111L69.6 473.4c-4.2 4.2-6.6 10-6.6 16C63 501.9 73.1 512 85.6 512H424.4c12.5 0 22.6-10.1 22.6-22.6c0-6-2.4-11.8-6.6-16L399 432z"/></svg>