<svg xmlns="http://www.w3.org/2000/svg" viewBox="0 0 384 512"><!--! Font Awesome Pro 6.3.0 by @fontawesome - https://fontawesome.com License - https://fontawesome.com/license (Commercial License) Copyright 2023 Fonticons, Inc. --><defs><style>.fa-secondary{opacity:.4}</style></defs><path class="fa-primary" d="M0 48V192c0 10.1 4.7 19.6 12.8 25.6L64 256 48 432H336L320 256l51.2-38.4c8.1-6 12.8-15.5 12.8-25.6V48c0-8.8-7.2-16-16-16H304c-8.8 0-16 7.2-16 16V88c0 4.4-3.6 8-8 8H248c-4.4 0-8-3.6-8-8V48c0-8.8-7.2-16-16-16H160c-8.8 0-16 7.2-16 16V88c0 4.4-3.6 8-8 8H104c-4.4 0-8-3.6-8-8V48c0-8.8-7.2-16-16-16H16C7.2 32 0 39.2 0 48zM160 304V256c0-17.7 14.3-32 32-32s32 14.3 32 32v48c0 8.8-7.2 16-16 16H176c-8.8 0-16-7.2-16-16z"/><path class="fa-secondary" d="M336 432H48L6.6 473.4c-4.2 4.2-6.6 10-6.6 16C0 501.9 10.1 512 22.6 512H361.4c12.5 0 22.6-10.1 22.6-22.6c0-6-2.4-11.8-6.6-16L336 432z"/></svg>