<svg xmlns="http://www.w3.org/2000/svg" viewBox="0 0 512 512"><!--! Font Awesome Pro 6.3.0 by @fontawesome - https://fontawesome.com License - https://fontawesome.com/license (Commercial License) Copyright 2023 Fonticons, Inc. --><defs><style>.fa-secondary{opacity:.4}</style></defs><path class="fa-primary" d="M135 241c-9.4-9.4-9.4-24.6 0-33.9s24.6-9.4 33.9 0L135 241zm121 87l17 17c-9.4 9.4-24.6 9.4-33.9 0l17-17zm87-121c9.4-9.4 24.6-9.4 33.9 0s9.4 24.6 0 33.9L343 207zM169 207L273 311 239 345 135 241 169 207zM239 311L343 207 377 241 273 345 239 311z"/><path class="fa-secondary" d="M256 512A256 256 0 1 1 256 0a256 256 0 1 1 0 512zM377 241c9.4-9.4 9.4-24.6 0-33.9s-24.6-9.4-33.9 0l-87 87-87-87c-9.4-9.4-24.6-9.4-33.9 0s-9.4 24.6 0 33.9L239 345c9.4 9.4 24.6 9.4 33.9 0L377 241z"/></svg>