<svg xmlns="http://www.w3.org/2000/svg" viewBox="0 0 512 512"><!--! Font Awesome Pro 6.3.0 by @fontawesome - https://fontawesome.com License - https://fontawesome.com/license (Commercial License) Copyright 2023 Fonticons, Inc. --><defs><style>.fa-secondary{opacity:.4}</style></defs><path class="fa-primary" d="M241 135c-9.4-9.4-24.6-9.4-33.9 0s-9.4 24.6 0 33.9L241 135zm87 121l17 17c9.4-9.4 9.4-24.6 0-33.9l-17 17zM207 343c-9.4 9.4-9.4 24.6 0 33.9s24.6 9.4 33.9 0L207 343zM207 169L311 273 345 239 241 135 207 169zM311 239L207 343 241 377 345 273 311 239z"/><path class="fa-secondary" d="M0 256a256 256 0 1 0 512 0A256 256 0 1 0 0 256zM241 377c-9.4 9.4-24.6 9.4-33.9 0s-9.4-24.6 0-33.9l87-87-87-87c-9.4-9.4-9.4-24.6 0-33.9s24.6-9.4 33.9 0L345 239c9.4 9.4 9.4 24.6 0 33.9L241 377z"/></svg>