<svg xmlns="http://www.w3.org/2000/svg" viewBox="0 0 512 512"><!--! Font Awesome Pro 6.3.0 by @fontawesome - https://fontawesome.com License - https://fontawesome.com/license (Commercial License) Copyright 2023 Fonticons, Inc. --><defs><style>.fa-secondary{opacity:.4}</style></defs><path class="fa-primary" d="M271 377c9.4 9.4 24.6 9.4 33.9 0s9.4-24.6 0-33.9L271 377zM184 256l-17-17c-9.4 9.4-9.4 24.6 0 33.9l17-17zm121-87c9.4-9.4 9.4-24.6 0-33.9s-24.6-9.4-33.9 0L305 169zM305 343L201 239 167 273 271 377 305 343zM201 273L305 169 271 135 167 239 201 273z"/><path class="fa-secondary" d="M512 256A256 256 0 1 0 0 256a256 256 0 1 0 512 0zM271 135c9.4-9.4 24.6-9.4 33.9 0s9.4 24.6 0 33.9l-87 87 87 87c9.4 9.4 9.4 24.6 0 33.9s-24.6 9.4-33.9 0L167 273c-9.4-9.4-9.4-24.6 0-33.9L271 135z"/></svg>