<svg xmlns="http://www.w3.org/2000/svg" viewBox="0 0 640 512"><!--! Font Awesome Pro 6.3.0 by @fontawesome - https://fontawesome.com License - https://fontawesome.com/license (Commercial License) Copyright 2023 Fonticons, Inc. --><defs><style>.fa-secondary{opacity:.4}</style></defs><path class="fa-primary" d="M346.4 361.3c41.6 0 75.3-33.7 75.3-75.3c0-37-26.7-67.8-62-74.1c1.2-5.2 1.8-10.7 1.8-16.2c0-41.6-33.7-75.3-75.3-75.3c-16 0-30.9 5-43.1 13.5c-15.8-26.2-44.5-43.7-77.4-43.7c-49.9 0-90.3 40.4-90.3 90.3l0 1.2C32.7 189.1 .1 226.2 .1 271c0 49.9 40.4 90.3 90.3 90.3H346.4z"/><path class="fa-secondary" d="M333 101.3C342.2 43.8 392.5 0 453 0c3.5 0 6.9 .1 10.3 .4c6.6 .5 12.1 5.3 13.5 11.8s-1.6 13.1-7.4 16.3c-25.3 14.2-42.3 41-42.3 71.6c0 45.3 37.1 82.3 83.2 82.3c4.9 0 9.7-.4 14.3-1.2c6.5-1.1 13 2.2 16 8.1s1.8 13.1-3 17.6c-21.9 21.1-51.8 34-84.6 34c-3.9 0-7.8-.2-11.6-.5c-10.5-21.7-28.2-39.3-50-49.6c-1.8-39.3-25.1-72.9-58.5-89.5zM86.8 426.7L56.7 471.9c-6.9 10.4-20.9 13.2-31.3 6.3s-13.2-20.9-6.3-31.3l30.1-45.2c6.9-10.4 20.9-13.2 31.3-6.3s13.2 20.9 6.3 31.3zm90.3 0L147 471.9c-6.9 10.4-20.9 13.2-31.3 6.3s-13.2-20.9-6.3-31.3l30.1-45.2c6.9-10.4 20.9-13.2 31.3-6.3s13.2 20.9 6.3 31.3zm90.3 0l-30.1 45.2c-6.9 10.4-20.9 13.2-31.3 6.3s-13.2-20.9-6.3-31.3l30.1-45.2c6.9-10.4 20.9-13.2 31.3-6.3s13.2 20.9 6.3 31.3zm90.3 0l-30.1 45.2c-6.9 10.4-20.9 13.2-31.3 6.3s-13.2-20.9-6.3-31.3l30.1-45.2c6.9-10.4 20.9-13.2 31.3-6.3s13.2 20.9 6.3 31.3z"/></svg>