<svg xmlns="http://www.w3.org/2000/svg" viewBox="0 0 576 512"><!--! Font Awesome Pro 6.3.0 by @fontawesome - https://fontawesome.com License - https://fontawesome.com/license (Commercial License) Copyright 2023 Fonticons, Inc. --><defs><style>.fa-secondary{opacity:.4}</style></defs><path class="fa-primary" d="M224 0a48 48 0 1 1 0 96 48 48 0 1 1 0-96zm64 192v16.4l-128 112V192c0-35.3 28.7-64 64-64s64 28.7 64 64z"/><path class="fa-secondary" d="M373.9 175.8C385.5 165.6 400.5 160 416 160h96c35.3 0 64 28.7 64 64s-28.7 64-64 64H440L202.1 496.2C190.5 506.4 175.5 512 160 512H64c-35.3 0-64-28.7-64-64s28.7-64 64-64h72L373.9 175.8z"/></svg>