<svg xmlns="http://www.w3.org/2000/svg" viewBox="0 0 384 512"><!--! Font Awesome Pro 6.3.0 by @fontawesome - https://fontawesome.com License - https://fontawesome.com/license (Commercial License) Copyright 2023 Fonticons, Inc. --><defs><style>.fa-secondary{opacity:.4}</style></defs><path class="fa-primary" d="M48 176H304V464h8c13.3 0 24 10.7 24 24s-10.7 24-24 24h-8H48 40c-13.3 0-24-10.7-24-24s10.7-24 24-24h8V176zM176 400a64 64 0 1 0 0-128 64 64 0 1 0 0 128z"/><path class="fa-secondary" d="M176 0c17.7 0 32 14.3 32 32v4c45 11.6 80.4 47 92 92h12c13.3 0 24 10.7 24 24s-10.7 24-24 24H40c-13.3 0-24-10.7-24-24s10.7-24 24-24H52c11.6-45 47-80.4 92-92V32c0-17.7 14.3-32 32-32zM0 304c0-17.7 14.3-32 32-32H48V400H32c-17.7 0-32-14.3-32-32V304zm320-32c17.7 0 32 14.3 32 32v64c0 17.7-14.3 32-32 32H304V272h16z"/></svg>