<svg xmlns="http://www.w3.org/2000/svg" viewBox="0 0 576 512"><!--! Font Awesome Pro 6.3.0 by @fontawesome - https://fontawesome.com License - https://fontawesome.com/license (Commercial License) Copyright 2023 Fonticons, Inc. --><defs><style>.fa-secondary{opacity:.4}</style></defs><path class="fa-primary" d="M180.7 120.5C81 120.5 .2 201.5 .2 301.4S81 482.2 180.7 482.2c48.9 0 93.3-19.5 125.8-51.2c4.7-4.6 5.9-11.8 2.9-17.6s-9.5-9.1-16-8c-7.7 1.3-15.6 2-23.6 2c-76 0-137.6-61.8-137.6-138c0-51.6 28.2-96.5 70-120.2c5.7-3.3 8.7-9.9 7.3-16.3s-6.9-11.2-13.4-11.8c-5-.4-10.2-.6-15.3-.6z"/><path class="fa-secondary" d="M268.3 93.4l10.4 36.4c1 3.4 4.1 5.8 7.7 5.8s6.7-2.4 7.7-5.8l10.4-36.4L340.8 83c3.4-1 5.8-4.1 5.8-7.7s-2.4-6.7-5.8-7.7L304.4 57.2 294 20.9c-1-3.4-4.1-5.8-7.7-5.8s-6.7 2.4-7.7 5.8L268.3 57.2 231.9 67.6c-3.4 1-5.8 4.1-5.8 7.7s2.4 6.7 5.8 7.7l36.4 10.4zm96.4 144.6l15.6 54.6c1.5 5.1 6.2 8.7 11.5 8.7s10-3.5 11.5-8.7l15.6-54.6 54.6-15.6c5.1-1.5 8.7-6.2 8.7-11.5s-3.5-10-8.7-11.5l-54.6-15.6-15.6-54.6c-1.5-5.1-6.2-8.7-11.5-8.7s-10 3.5-11.5 8.7l-15.6 54.6-54.6 15.6c-5.1 1.5-8.7 6.2-8.7 11.5s3.5 10 8.7 11.5l54.6 15.6z"/></svg>