<svg xmlns="http://www.w3.org/2000/svg" viewBox="0 0 512 512"><!--! Font Awesome Pro 6.3.0 by @fontawesome - https://fontawesome.com License - https://fontawesome.com/license (Commercial License) Copyright 2023 Fonticons, Inc. --><defs><style>.fa-secondary{opacity:.4}</style></defs><path class="fa-primary" d="M160 0c-23.7 0-44.4 12.9-55.4 32H48C21.5 32 0 53.5 0 80V400c0 26.5 21.5 48 48 48H224V176c0-26.5 21.5-48 48-48h48V80c0-26.5-21.5-48-48-48H215.4C204.4 12.9 183.7 0 160 0zm0 40a24 24 0 1 1 0 48 24 24 0 1 1 0-48zm256 88v64c0 17.7 14.3 32 32 32h64l-96-96z"/><path class="fa-secondary" d="M272 128c-26.5 0-48 21.5-48 48V464c0 26.5 21.5 48 48 48H464c26.5 0 48-21.5 48-48V224H448c-17.7 0-32-14.3-32-32V128H272z"/></svg>