<svg xmlns="http://www.w3.org/2000/svg" viewBox="0 0 448 512"><!--! Font Awesome Pro 6.3.0 by @fontawesome - https://fontawesome.com License - https://fontawesome.com/license (Commercial License) Copyright 2023 Fonticons, Inc. --><defs><style>.fa-secondary{opacity:.4}</style></defs><path class="fa-primary" d="M96 48a48 48 0 1 1 96 0A48 48 0 1 1 96 48zM49.7 181.1C66 148.5 99.2 128 135.6 128H160c30.2 0 58.7 14.2 76.8 38.4l76.8 102.4c10.6 14.1 7.7 34.2-6.4 44.8s-34.2 7.7-44.8-6.4L192 213.3v93.4l49.9 49.9c9 9 14.1 21.2 14.1 33.9V480c0 17.7-14.3 32-32 32s-32-14.3-32-32V397.3L114.7 320c-12-12-18.7-28.3-18.7-45.3V231.6L60.6 302.3c-7.9 15.8-27.1 22.2-42.9 14.3S-4.5 289.5 3.4 273.7l46.3-92.6zM65 472.2L96.3 346.8l52.8 52.8-22 88.2c-4.3 17.1-21.7 27.6-38.8 23.3s-27.6-21.7-23.3-38.8z"/><path class="fa-secondary" d="M300.6 334.3L418.8 505.1c5 7.3 15 9.1 22.3 4s9.1-15 4-22.3L326.9 316.1c-2.8 3.8-6.1 7.3-10.1 10.3c-5 3.8-10.5 6.4-16.2 7.9z"/></svg>