<svg xmlns="http://www.w3.org/2000/svg" viewBox="0 0 576 512"><!--! Font Awesome Pro 6.3.0 by @fontawesome - https://fontawesome.com License - https://fontawesome.com/license (Commercial License) Copyright 2023 Fonticons, Inc. --><defs><style>.fa-secondary{opacity:.4}</style></defs><path class="fa-primary" d="M310.6 93.5c-7.9-7.9-20.7-7.9-28.6 0s-7.9 20.7 0 28.6l39.6 39.6L282 201.3c-7.9 7.9-7.9 20.7 0 28.6s20.7 7.9 28.6 0l39.6-39.6 39.6 39.6c7.9 7.9 20.7 7.9 28.6 0s7.9-20.7 0-28.6l-39.6-39.6 39.6-39.6c7.9-7.9 7.9-20.7 0-28.6s-20.7-7.9-28.6 0l-39.6 39.6L310.6 93.5z"/><path class="fa-secondary" d="M138.8 101.6c-6.5-15.6-23.6-24-40-19.5L24.7 102.2c-14.7 4-24.8 17.3-24.8 32.5C-.1 343.1 168.8 512 377.2 512c15.2 0 28.5-10.2 32.5-24.8l20.2-74.1c4.5-16.3-3.9-33.4-19.5-40l-80.8-33.7c-13.7-5.7-29.6-1.8-39 9.8l-34 41.5c-59.3-28-107.3-76-135.3-135.3l41.5-34c11.5-9.4 15.5-25.3 9.8-39l-33.7-80.8z"/></svg>