<svg xmlns="http://www.w3.org/2000/svg" viewBox="0 0 640 512"><!--! Font Awesome Pro 6.3.0 by @fontawesome - https://fontawesome.com License - https://fontawesome.com/license (Commercial License) Copyright 2023 Fonticons, Inc. --><defs><style>.fa-secondary{opacity:.4}</style></defs><path class="fa-primary" d="M13.2 285.5L4.7 266.3c-7.2-16.2-5.1-35.1 7.4-47.7C62.2 168.1 168.8 96 313 96s250.8 72.1 300.9 122.6c12.5 12.6 14.6 31.5 7.4 47.7l-8.5 19.2C500.2 234.7 413 220.1 313 220.1s-187.2 14.7-299.8 65.4zm13 29.2c71.2-32.1 131.2-49 190.8-56.8v67.9c0 15.3-10.8 28.4-25.7 31.4L82.1 379c-14.7 2.9-29.4-4.7-35.5-18.4L26.2 314.7zM409 257.9c59.6 7.9 119.7 24.8 190.8 56.8l-20.4 45.9c-6.1 13.7-20.8 21.3-35.5 18.4L434.7 357.1c-15-3-25.7-16.1-25.7-31.4V257.9z"/><path class="fa-secondary" d="M217 225.6c-64.2 8-128.3 25.8-203.8 59.8l13 29.2c71.2-32.1 131.2-49 190.8-56.8V225.6zM409 240s0 0 0 0v17.9c59.6 7.9 119.7 24.8 190.8 56.8l13-29.2c-75.5-34-139.6-51.8-203.8-59.8V240z"/></svg>