<svg xmlns="http://www.w3.org/2000/svg" viewBox="0 0 640 512"><!--! Font Awesome Pro 6.3.0 by @fontawesome - https://fontawesome.com License - https://fontawesome.com/license (Commercial License) Copyright 2023 Fonticons, Inc. --><defs><style>.fa-secondary{opacity:.4}</style></defs><path class="fa-primary" d="M432.1 442l-11.2 30 11.2-30zm-224.1 0l-11.2-30 11.2 30zm67.1-25.2l-11.2-30 11.2 30zM433.5 127.7l-28.4 14.8 28.4-14.8zM260.2 128H379.8V64H260.2v64zm-82.1-15.1C150.5 165.8 96 282.2 96 384h64c0-84.6 47.2-188.4 74.9-241.5l-56.7-29.6zM96 384v17h64V384H96zm448 17V384H480v17h64zm0-17c0-101.8-54.5-218.2-82.2-271.1l-56.7 29.6C432.8 195.6 480 299.4 480 384h64zM219.2 472l67.1-25.2-22.5-59.9-67.1 25.2L219.2 472zm134.5-25.2L420.8 472l22.5-59.9-67.1-25.2-22.5 59.9zM420.8 472c14.1 5.3 29.1 8 44.2 8V416c-7.4 0-14.8-1.3-21.7-3.9L420.8 472zM175 480c15.1 0 30.1-2.7 44.2-8l-22.5-59.9c-7 2.6-14.3 3.9-21.7 3.9v64zm305-79c0 8.3-6.7 15-15 15v64c43.6 0 79-35.4 79-79H480zM96 401c0 43.6 35.4 79 79 79V416c-8.3 0-15-6.7-15-15H96zm190.3 45.8c21.7-8.2 45.7-8.2 67.4 0l22.5-59.9c-36.2-13.6-76.1-13.6-112.4 0l22.5 59.9zM379.8 128c11.4 0 20.8 5.9 25.3 14.5l56.7-29.6C445.5 81.6 413.3 64 379.8 64v64zM260.2 64c-33.5 0-65.7 17.6-82.1 48.9l56.7 29.6c4.5-8.6 13.9-14.5 25.3-14.5V64z"/><path class="fa-secondary" d="M352 32V64H288V32c0-17.7 14.3-32 32-32s32 14.3 32 32zM479.9 376c-3 0-6-.5-9.1-1.4L352 339v40.9c-21.1-4.3-42.9-4.3-64 0v-42L160.3 372.7c1-22.4 5.1-45.9 11-69.3L288 271.6V231.9L186 254.6c9-26 19.4-50.6 29.3-72.1L288 166.3V128h64v38.3l72.7 16.2c9.9 21.4 20.2 46.1 29.3 72.1L352 231.9v40.3l117.8 35.3c5.6 23.2 9.3 46.4 10.1 68.5zM288 446.2c20.7-7.3 43.3-7.3 64 0V480c0 17.7-14.3 32-32 32s-32-14.3-32-32V446.2zM64 80c35.3 0 64 28.7 64 64c0 20.1-9.5 39.1-25.6 51.2L76.8 214.4C68.7 220.4 64 229.9 64 240V480c0 17.7-14.3 32-32 32s-32-14.3-32-32V240 144c0-35.3 28.7-64 64-64zm576 64v96V480c0 17.7-14.3 32-32 32s-32-14.3-32-32V240c0-10.1-4.7-19.6-12.8-25.6l-25.6-19.2C521.5 183.1 512 164.1 512 144c0-35.3 28.7-64 64-64s64 28.7 64 64z"/></svg>