<svg xmlns="http://www.w3.org/2000/svg" viewBox="0 0 640 512"><!--! Font Awesome Pro 6.3.0 by @fontawesome - https://fontawesome.com License - https://fontawesome.com/license (Commercial License) Copyright 2023 Fonticons, Inc. --><defs><style>.fa-secondary{opacity:.4}</style></defs><path class="fa-primary" d="M372.1 64H253.9L243.5 168h139L372.1 64zM205.7 64H115.2L94.4 168H195.3L205.7 64zM190.5 216H84.8L64 320h116l10.4-104zm196.8 0H238.7L228.3 320l169.4 0L387.3 216zm58.6 104H562L541.2 216H435.5l10.4 104zM510.8 64H420.3l10.4 104H531.6L510.8 64zM409 448H345V384H281v64H217c-17.7 0-32 14.3-32 32s14.3 32 32 32H409c17.7 0 32-14.3 32-32s-14.3-32-32-32z"/><path class="fa-secondary" d="M52.5 51.4C58.5 21.5 84.7 0 115.2 0H510.8c30.5 0 56.8 21.5 62.8 51.4l51.2 256c7.9 39.6-22.4 76.6-62.8 76.6H64c-40.4 0-70.7-37-62.8-76.6l51.2-256zM510.8 64H115.2L64 320 562 320 510.8 64l31.4-6.3L510.8 64z"/></svg>