<svg xmlns="http://www.w3.org/2000/svg" viewBox="0 0 448 512"><!--! Font Awesome Pro 6.3.0 by @fontawesome - https://fontawesome.com License - https://fontawesome.com/license (Commercial License) Copyright 2023 Fonticons, Inc. --><defs><style>.fa-secondary{opacity:.4}</style></defs><path class="fa-primary" d="M103 271c-9.4 9.4-9.4 24.6 0 33.9s24.6 9.4 33.9 0L103 271zm121-87l17-17c-9.4-9.4-24.6-9.4-33.9 0l17 17zm87 121c9.4 9.4 24.6 9.4 33.9 0s9.4-24.6 0-33.9L311 305zM137 305L241 201 207 167 103 271 137 305zM207 201L311 305 345 271 241 167 207 201z"/><path class="fa-secondary" d="M64 32C28.7 32 0 60.7 0 96V416c0 35.3 28.7 64 64 64H384c35.3 0 64-28.7 64-64V96c0-35.3-28.7-64-64-64H64zM241 167L345 271c9.4 9.4 9.4 24.6 0 33.9s-24.6 9.4-33.9 0l-87-87-87 87c-9.4 9.4-24.6 9.4-33.9 0s-9.4-24.6 0-33.9L207 167c9.4-9.4 24.6-9.4 33.9 0z"/></svg>