<svg xmlns="http://www.w3.org/2000/svg" viewBox="0 0 448 512"><!--! Font Awesome Pro 6.3.0 by @fontawesome - https://fontawesome.com License - https://fontawesome.com/license (Commercial License) Copyright 2023 Fonticons, Inc. --><defs><style>.fa-secondary{opacity:.4}</style></defs><path class="fa-primary" d="M209 135c-9.4-9.4-24.6-9.4-33.9 0s-9.4 24.6 0 33.9L209 135zm87 121l17 17c9.4-9.4 9.4-24.6 0-33.9l-17 17zM175 343c-9.4 9.4-9.4 24.6 0 33.9s24.6 9.4 33.9 0L175 343zM175 169L279 273 313 239 209 135 175 169zM279 239L175 343 209 377 313 273 279 239z"/><path class="fa-secondary" d="M448 96c0-35.3-28.7-64-64-64L64 32C28.7 32 0 60.7 0 96L0 416c0 35.3 28.7 64 64 64l320 0c35.3 0 64-28.7 64-64l0-320zM313 273L209 377c-9.4 9.4-24.6 9.4-33.9 0s-9.4-24.6 0-33.9l87-87-87-87c-9.4-9.4-9.4-24.6 0-33.9s24.6-9.4 33.9 0L313 239c9.4 9.4 9.4 24.6 0 33.9z"/></svg>