<svg xmlns="http://www.w3.org/2000/svg" viewBox="0 0 512 512"><!--! Font Awesome Pro 6.3.0 by @fontawesome - https://fontawesome.com License - https://fontawesome.com/license (Commercial License) Copyright 2023 Fonticons, Inc. --><defs><style>.fa-secondary{opacity:.4}</style></defs><path class="fa-primary" d="M39 320c-8.8 0-16 7.2-16 16v32c0 8.8 7.2 16 16 16H71c8.8 0 16-7.2 16-16V336c0-8.8-7.2-16-16-16H39zm0 96c-8.8 0-16 7.2-16 16v32c0 8.8 7.2 16 16 16H71c8.8 0 16-7.2 16-16V432c0-8.8-7.2-16-16-16H39zm80-80v32c0 8.8 7.2 16 16 16h32c8.8 0 16-7.2 16-16V336c0-8.8-7.2-16-16-16H135c-8.8 0-16 7.2-16 16zm112-16c-8.8 0-16 7.2-16 16v32c0 8.8 7.2 16 16 16h32c8.8 0 16-7.2 16-16V336c0-8.8-7.2-16-16-16H231zm80 16v32c0 8.8 7.2 16 16 16h32c8.8 0 16-7.2 16-16V336c0-8.8-7.2-16-16-16H327c-8.8 0-16 7.2-16 16zm112-16c-8.8 0-16 7.2-16 16v32c0 8.8 7.2 16 16 16h32c8.8 0 16-7.2 16-16V336c0-8.8-7.2-16-16-16H423zM407 432v32c0 8.8 7.2 16 16 16h32c8.8 0 16-7.2 16-16V432c0-8.8-7.2-16-16-16H423c-8.8 0-16 7.2-16 16zM135 416c-8.8 0-16 7.2-16 16v32c0 8.8 7.2 16 16 16H359c8.8 0 16-7.2 16-16V432c0-8.8-7.2-16-16-16H135z"/><path class="fa-secondary" d="M6.1 200.6l23.1 40.7c7.5 13.2 23.3 19.3 37.8 14.6l81.1-26.6c13.1-4.3 22-16.6 22-30.4V144c49.6-18.1 104-18.1 153.6 0v54.8c0 13.8 8.9 26.1 22 30.4l81.1 26.6c14.5 4.7 30.3-1.4 37.8-14.6l23.1-40.7c9.2-16.2 8.4-36.5-4.5-50C441.6 106.8 358.3 48 247 48S52.4 106.8 10.6 150.6c-12.9 13.5-13.7 33.8-4.5 50z"/></svg>