<svg xmlns="http://www.w3.org/2000/svg" viewBox="0 0 512 512"><!--! Font Awesome Pro 6.3.0 by @fontawesome - https://fontawesome.com License - https://fontawesome.com/license (Commercial License) Copyright 2023 Fonticons, Inc. --><defs><style>.fa-secondary{opacity:.4}</style></defs><path class="fa-primary" d="M330.2 404.1c2.5 17.2-20.3 25.5-29.5 10.7L199 249.4c-1.8-2.9-4.5-5.2-7.7-6.5L10.7 171.4C-5.5 165-1.3 141 16.1 140.6l194.1-5.4c3.5-.1 6.8-1.3 9.5-3.5L372 11c13.6-10.8 32.3 4.8 24 20.1L303.6 202c-1.6 3-2.3 6.5-1.8 9.9l28.4 192.1zM241 216a24 24 0 1 0 0-48 24 24 0 1 0 0 48z"/><path class="fa-secondary" d="M209 265.7V464H137c-13.3 0-24 10.7-24 24s10.7 24 24 24H345c13.3 0 24-10.7 24-24s-10.7-24-24-24H273V369.7l-64-104z"/></svg>