<svg xmlns="http://www.w3.org/2000/svg" viewBox="0 0 576 512"><!--! Font Awesome Pro 6.3.0 by @fontawesome - https://fontawesome.com License - https://fontawesome.com/license (Commercial License) Copyright 2023 Fonticons, Inc. --><path d="M163.3 25.6C146.1 9.7 123.2 0 98 0C45 0 2 43 2 96c0 19 5.5 36.6 15 51.5L163.3 25.6zM258 512c50.3 0 96.8-16.6 134.2-44.6l35.2 35.2c12.5 12.5 32.8 12.5 45.3 0s12.5-32.8 0-45.3l-35.2-35.2c28-37.4 44.6-83.8 44.6-134.2C482 164.3 381.7 64 258 64S34 164.3 34 288c0 50.3 16.6 96.8 44.6 134.2L43.4 457.4c-12.5 12.5-12.5 32.8 0 45.3s32.8 12.5 45.3 0l35.2-35.2c37.4 28 83.8 44.6 134.1 44.6zM500.3 147.5c9.5-14.9 15-32.6 15-51.5c0-53-43-96-96-96C394.1 0 371.1 9.7 354 25.6L500.3 147.5zM202 192H314c9.2 0 17.5 5.2 21.6 13.5s3 18-2.6 25.3L251.1 336H314c13.3 0 24 10.7 24 24s-10.7 24-24 24H202c-9.2 0-17.5-5.2-21.6-13.5s-3-18 2.6-25.3L264.9 240H202c-13.3 0-24-10.7-24-24s10.7-24 24-24z"/></svg>