<svg xmlns="http://www.w3.org/2000/svg" viewBox="0 0 512 512"><!--! Font Awesome Pro 6.3.0 by @fontawesome - https://fontawesome.com License - https://fontawesome.com/license (Commercial License) Copyright 2023 Fonticons, Inc. --><path d="M150.6 470.6l96-96c12.5-12.5 12.5-32.8 0-45.3s-32.8-12.5-45.3 0L160 370.7V64c0-17.7-14.3-32-32-32s-32 14.3-32 32V370.7L54.6 329.4c-12.5-12.5-32.8-12.5-45.3 0s-12.5 32.8 0 45.3l96 96c12.5 12.5 32.8 12.5 45.3 0zm352-333.3l-96-96c-12.5-12.5-32.8-12.5-45.3 0l-96 96c-12.5 12.5-12.5 32.8 0 45.3s32.8 12.5 45.3 0L352 141.3V448c0 17.7 14.3 32 32 32s32-14.3 32-32V141.3l41.4 41.4c12.5 12.5 32.8 12.5 45.3 0s12.5-32.8 0-45.3z"/></svg>