<svg xmlns="http://www.w3.org/2000/svg" viewBox="0 0 512 512"><!--! Font Awesome Pro 6.3.0 by @fontawesome - https://fontawesome.com License - https://fontawesome.com/license (Commercial License) Copyright 2023 Fonticons, Inc. --><path d="M150 0c-13.3 0-24 10.7-24 24v8c0 32.7 15.4 63.6 41.6 83.2C181.7 125.8 190 142.4 190 160v8c0 13.3 10.7 24 24 24s24-10.7 24-24v-8c0-32.7-15.4-63.6-41.6-83.2C182.3 66.2 174 49.6 174 32V24c0-13.3-10.7-24-24-24zM31.6 224C13.4 224-1.1 239.3 0 257.5c5.4 91.7 59.7 169.7 136.4 209.7l1.2 9.7c2.5 20 19.5 35 39.7 35H330.7c20.2 0 37.2-15 39.7-35l1.2-9.7c76.8-40 131-118 136.4-209.7c1.1-18.2-13.4-33.5-31.6-33.5H31.6zM302 24c0-13.3-10.7-24-24-24s-24 10.7-24 24v8c0 32.7 15.4 63.6 41.6 83.2C309.7 125.8 318 142.4 318 160v8c0 13.3 10.7 24 24 24s24-10.7 24-24v-8c0-32.7-15.4-63.6-41.6-83.2C310.3 66.2 302 49.6 302 32V24z"/></svg>