<svg xmlns="http://www.w3.org/2000/svg" viewBox="0 0 448 512"><!--! Font Awesome Pro 6.3.0 by @fontawesome - https://fontawesome.com License - https://fontawesome.com/license (Commercial License) Copyright 2023 Fonticons, Inc. --><path d="M56 128c26.5 0 48-16 48-48c0-22.2-23-52-37.2-68.2C61 5.1 51 5.1 45.2 11.8C31 28 8 57.8 8 80c0 26.5 21.5 48 48 48zm160 0c26.5 0 48-16 48-48c0-22.2-23-52-37.2-68.2c-5.8-6.7-15.9-6.7-21.7 0C191 28 168 57.8 168 80c0 26.5 21.5 48 48 48zM424 80c0-22.2-23-52-37.2-68.2c-5.8-6.7-15.9-6.7-21.7 0C351 28 328 57.8 328 80c0 26.5 21.5 48 48 48s48-16 48-48zM137.8 224H278.2c6.8 0 12.8 4.3 15.1 10.6L312.3 288H103.7l19.1-53.4c2.3-6.4 8.3-10.6 15.1-10.6zM62.5 213.1L34.2 292.4C14.1 300.9 0 320.8 0 344v40 64 32c0 17.7 14.3 32 32 32H48c17.7 0 32-14.3 32-32V448H336v32c0 17.7 14.3 32 32 32h16c17.7 0 32-14.3 32-32V448 384 344c0-23.2-14.1-43.1-34.2-51.6l-28.3-79.3C342.1 181.3 312 160 278.2 160H137.8c-33.8 0-64 21.3-75.3 53.1zM80 344a24 24 0 1 1 0 48 24 24 0 1 1 0-48zm232 24a24 24 0 1 1 48 0 24 24 0 1 1 -48 0z"/></svg>