<svg xmlns="http://www.w3.org/2000/svg" viewBox="0 0 576 512"><!--! Font Awesome Pro 6.3.0 by @fontawesome - https://fontawesome.com License - https://fontawesome.com/license (Commercial License) Copyright 2023 Fonticons, Inc. --><path d="M490.9 104H478l-.5 0c-.7 0-1.4-.1-2.1-.1C463.3 102.5 454 92.4 454 80s9.3-22.5 21.3-23.9c.7-.1 1.4-.1 2.1-.1l.5 0h12.9 17.6c10.8 0 18.4-10.6 12.5-19.6c-3.6-5.5-7.8-10.5-12.5-14.9c-4.2-3.9-8.8-7.4-13.8-10.3C492.8 10 490.9 9 488.9 8C478.4 2.9 466.5 0 454 0c-29.1 0-54.5 15.5-68.5 38.7c-3.3 5.4-8.9 9.3-15.3 9.3H153.8c-6.4 0-12-3.8-15.3-9.3C124.5 15.5 99.1 0 70 0C57.5 0 45.6 2.9 35.1 8c-2 1-3.9 2-5.8 3.1c-5 2.9-9.6 6.4-13.8 10.3c-4.7 4.4-9 9.4-12.5 14.9C-3 45.4 4.7 56 15.5 56H33.1 46l.5 0c.7 0 1.4 .1 2.1 .1C60.7 57.5 70 67.6 70 80s-9.3 22.5-21.3 23.9c-.7 .1-1.4 .1-2.1 .1l-.5 0H33.1 15.5C4.7 104-3 114.6 2.9 123.6c3.6 5.5 7.8 10.5 12.5 14.9c4.2 3.9 8.8 7.4 13.8 10.3c1.9 1.1 3.8 2.2 5.8 3.1c10.6 5.1 22.4 8 34.9 8c29.1 0 54.5-15.5 68.5-38.7c3.3-5.4 8.9-9.3 15.3-9.3H370.2c6.4 0 12 3.8 15.3 9.3c14 23.2 39.5 38.7 68.5 38.7c12.5 0 24.4-2.9 34.9-8c2-1 3.9-2 5.8-3.1c5-2.9 9.6-6.4 13.8-10.3c4.7-4.4 9-9.4 12.5-14.9c5.9-9-1.7-19.6-12.5-19.6H490.9zM191.8 224H332.2c6.8 0 12.8 4.3 15.1 10.6L366.3 288H157.7l19.1-53.4c2.3-6.4 8.3-10.6 15.1-10.6zm-75.3-10.9L88.2 292.4C68.1 300.9 54 320.8 54 344v40 64 32c0 17.7 14.3 32 32 32h16c17.7 0 32-14.3 32-32V448H390v32c0 17.7 14.3 32 32 32h16c17.7 0 32-14.3 32-32V448 384 344c0-23.2-14.1-43.1-34.2-51.6l-28.3-79.3C396.1 181.3 366 160 332.2 160H191.8c-33.8 0-64 21.3-75.3 53.1zM134 344a24 24 0 1 1 0 48 24 24 0 1 1 0-48zm232 24a24 24 0 1 1 48 0 24 24 0 1 1 -48 0z"/></svg>