<svg xmlns="http://www.w3.org/2000/svg" viewBox="0 0 640 512"><!--! Font Awesome Pro 6.3.0 by @fontawesome - https://fontawesome.com License - https://fontawesome.com/license (Commercial License) Copyright 2023 Fonticons, Inc. --><path d="M123.1 120.6L270.4 81.2c12.7-3.4 26.3 1.3 34.1 12l37.8 51.6L92.6 211.6l7-63.6c1.4-13.1 10.8-24 23.5-27.4zM36 141.1L25.8 234.2C5.4 249.4-4.8 276 2.2 302.1L35.3 425.8l12.4 46.4c4.6 17.1 22.1 27.2 39.2 22.6l30.9-8.3c17.1-4.6 27.2-22.1 22.6-39.2L128 400.9l278.2-74.5 12.4 46.4c4.6 17.1 22.1 27.2 39.2 22.6l30.9-8.3c17.1-4.6 27.2-22.1 22.6-39.2L499 301.5 465.8 177.9c-7-26.1-29.1-44.1-54.4-47L356.1 55.3c-23.4-31.9-64-46.2-102.3-36L106.5 58.8C68.3 69.1 40.3 101.7 36 141.1zM94.9 277.3a32 32 0 1 1 16.6 61.8A32 32 0 1 1 94.9 277.3zm255.6-35.3a32 32 0 1 1 61.8-16.6 32 32 0 1 1 -61.8 16.6zM562.8 512c19.5 0 34.7-17.7 25.8-35c-18.6-36.2-56.3-61-99.7-61s-81.2 24.8-99.7 61c-8.9 17.3 6.3 35 25.8 35H562.8z"/></svg>