<svg xmlns="http://www.w3.org/2000/svg" viewBox="0 0 448 512"><!--! Font Awesome Pro 6.3.0 by @fontawesome - https://fontawesome.com License - https://fontawesome.com/license (Commercial License) Copyright 2023 Fonticons, Inc. --><path d="M438.6 278.6c12.5-12.5 12.5-32.8 0-45.3l-192-192c-12.5-12.5-32.8-12.5-45.3 0s-12.5 32.8 0 45.3L370.7 256 201.4 425.4c-12.5 12.5-12.5 32.8 0 45.3s32.8 12.5 45.3 0l192-192zm-384 192l192-192c12.5-12.5 12.5-32.8 0-45.3l-192-192c-12.5-12.5-32.8-12.5-45.3 0S-3.1 74.1 9.4 86.6L178.7 256 9.4 425.4c-12.5 12.5-12.5 32.8 0 45.3s32.8 12.5 45.3 0z"/></svg>