<svg xmlns="http://www.w3.org/2000/svg" viewBox="0 0 512 512"><!--! Font Awesome Pro 6.3.0 by @fontawesome - https://fontawesome.com License - https://fontawesome.com/license (Commercial License) Copyright 2023 Fonticons, Inc. --><path d="M.1 232H64.5c4.4-35.1 18.2-67.2 38.8-93.7L57.8 92.7C25.9 131.3 5 179.3 .1 232zM137.3 104.3c26.6-20.6 58.7-34.5 93.7-38.8V1.1C178.3 6 130.3 26.9 91.7 58.8l45.5 45.5zM279 446.5v64.4c52.7-4.9 100.7-25.8 139.3-57.7l-45.5-45.5c-26.6 20.6-58.7 34.5-93.7 38.8zm127.7-72.8l45.5 45.5c31.9-38.5 52.8-86.6 57.7-139.3H445.5c-4.4 35.1-18.2 67.2-38.8 93.7zM91.7 453.2c38.5 31.9 86.6 52.8 139.3 57.7V446.5c-35.1-4.4-67.2-18.2-93.7-38.8L91.7 453.2zM57.8 419.3l45.5-45.5C82.7 347.2 68.9 315.1 64.5 280H.1C5 332.7 25.9 380.7 57.8 419.3zM418.3 58.8C379.7 26.9 331.7 6 279 1.1V65.5c35.1 4.4 67.2 18.2 93.7 38.8l45.5-45.5zm-11.6 79.5c20.6 26.6 34.5 58.7 38.8 93.7h64.4c-4.9-52.7-25.8-100.7-57.7-139.3l-45.5 45.5z"/></svg>