<svg xmlns="http://www.w3.org/2000/svg" viewBox="0 0 192 512"><!--! Font Awesome Pro 6.3.0 by @fontawesome - https://fontawesome.com License - https://fontawesome.com/license (Commercial License) Copyright 2023 Fonticons, Inc. --><path d="M72 72a24 24 0 1 0 0 48 24 24 0 1 0 0-48zm0 96A72 72 0 1 1 72 24a72 72 0 1 1 0 144zm24 88a24 24 0 1 0 -48 0 24 24 0 1 0 48 0zM0 256a72 72 0 1 1 144 0A72 72 0 1 1 0 256zM96 416a24 24 0 1 0 -48 0 24 24 0 1 0 48 0zM0 416a72 72 0 1 1 144 0A72 72 0 1 1 0 416z"/></svg>