<svg xmlns="http://www.w3.org/2000/svg" viewBox="0 0 512 512"><!--! Font Awesome Pro 6.3.0 by @fontawesome - https://fontawesome.com License - https://fontawesome.com/license (Commercial License) Copyright 2023 Fonticons, Inc. --><path d="M512 256c0 141.4-114.6 256-256 256S0 397.4 0 256S114.6 0 256 0C368 0 463.2 72 498 172.2c-14-4.1-29.8-.7-41 10.2l-150.8 146c-14.9-5.2-31.6-8.4-50.2-8.4c-55.1 0-93.8 27.9-116.1 53.5c-5.8 6.7-5.1 16.8 1.6 22.6s16.8 5.1 22.6-1.6C182 373.8 212.6 352 256 352s74 21.8 91.9 42.5c5.8 6.7 15.9 7.4 22.6 1.6c5.2-4.5 6.8-11.6 4.5-17.7l9.4-9-24.8-24.8c-4.7-4.7-4.7-12.3 0-17s12.3-4.7 17 0l25.1 25.1 15.3-14.8-25.4-25.4c-4.7-4.7-4.7-12.3 0-17s12.3-4.7 17 0l25.7 25.7 15.3-14.8-26-26c-4.7-4.7-4.7-12.3 0-17s12.3-4.7 17 0l26.3 26.3L482.1 275l-26.6-26.6c-4.7-4.7-4.7-12.3 0-17s12.3-4.7 17 0l26.9 26.9 12.5-12c.1 3.2 .2 6.4 .2 9.6zM208.4 208a32 32 0 1 0 -64 0 32 32 0 1 0 64 0zm128 32a32 32 0 1 0 0-64 32 32 0 1 0 0 64z"/></svg>