<svg xmlns="http://www.w3.org/2000/svg" viewBox="0 0 576 512"><!--! Font Awesome Pro 6.3.0 by @fontawesome - https://fontawesome.com License - https://fontawesome.com/license (Commercial License) Copyright 2023 Fonticons, Inc. --><path d="M361.7 479.7c115.2-66.5 154.7-213.9 88.2-329.1S236-4.1 120.8 62.4S-34 276.3 32.6 391.5c34.1 59 89.3 98.2 150.6 113.4c-10.9-14.9-17.3-33.3-17.3-53.1V414.3c-9.8-5.9-18.9-12.8-27.2-20.9c-9.6-9.4-6.2-24.8 5.4-31.4L368.5 232.4c11.6-6.7 26.6-1.9 29.9 11.1c14.3 55.9-5.5 116.8-51.7 155.3v53c0 14.5-3.4 28.2-9.5 40.3c8.3-3.6 16.5-7.7 24.5-12.4zm-241-299a60.2 60.2 0 1 1 0 120.5 60.2 60.2 0 1 1 0-120.5zm105.4-7.5a67.8 67.8 0 1 1 135.5 0 67.8 67.8 0 1 1 -135.5 0zm90.4 278.6V409.1c0-13.8-11.2-25.1-25.1-25.1h-1.9c-10.7 0-19.9 7.4-22.2 17.8c-2.6 11.9-19.6 11.9-22.2 0C242.9 391.4 233.7 384 223 384h-1.9c-13.8 0-25.1 11.2-25.1 25.1v42.7c0 33.3 27 60.2 60.2 60.2s60.2-27 60.2-60.2zM143.3 240.9a22.6 22.6 0 1 0 -45.2 0 22.6 22.6 0 1 0 45.2 0zm135.5-52.7a30.1 30.1 0 1 0 0-60.2 30.1 30.1 0 1 0 0 60.2z"/></svg>