<svg xmlns="http://www.w3.org/2000/svg" viewBox="0 0 512 512"><!--! Font Awesome Pro 6.3.0 by @fontawesome - https://fontawesome.com License - https://fontawesome.com/license (Commercial License) Copyright 2023 Fonticons, Inc. --><path d="M193 0c9.1 0 17.9 4 26.1 10.7c7.9 6.5 19.8 6.5 27.7 0C255.1 4 263.9 0 273 0c36.8 0 67.4 64.9 82.4 109.8C389 99.3 419 84.6 443.9 66.8c2.5-1.8 5.4-2.8 8.4-2.8c8.9 0 15.6 8.3 12.9 16.7C438.2 163.2 344.5 224 233 224S27.8 163.2 .8 80.7C-2 72.3 4.7 64 13.7 64c3 0 6 1 8.4 2.8C47 84.6 77 99.3 110.6 109.8C125.6 64.9 156.2 0 193 0zM25 304c0-37.9 10.1-73.4 27.8-104c48.8 35.3 112.5 56 180.2 56s131.4-20.6 180.2-56c17.7 30.6 27.8 66.1 27.8 104c0 114.9-93.1 208-208 208S25 418.9 25 304zm299.8 60.7c-27.9 7.8-59 12.1-91.6 12.1s-63.7-4.3-91.6-12.1c-12.4-3.5-24.3 7.3-18.6 18.8C143.2 424.1 185 452 233.2 452s90-27.9 110.2-68.6c5.7-11.5-6.2-22.2-18.6-18.8zM193 304a24 24 0 1 0 -48 0 24 24 0 1 0 48 0zm104 24a24 24 0 1 0 0-48 24 24 0 1 0 0 48z"/></svg>