<svg xmlns="http://www.w3.org/2000/svg" viewBox="0 0 640 512"><!--! Font Awesome Pro 6.3.0 by @fontawesome - https://fontawesome.com License - https://fontawesome.com/license (Commercial License) Copyright 2023 Fonticons, Inc. --><path d="M473.8 144.3c12.9-12.9 31.8-16.1 47.7-9.6C478.2 54.5 393.5 0 296 0C224.5 0 159.8 29.3 113.3 76.6c7.7 1.8 14.9 5.7 20.9 11.7c17.2 17.2 17.2 45 0 62.2l-1.5 1.5H208c22.1 0 40 17.9 40 40c0 2.6-.2 5.1-.7 7.5c10.1 7.3 16.7 19.1 16.7 32.5s-6.6 25.3-16.7 32.5c.5 2.4 .7 4.9 .7 7.5c0 22.1-17.9 40-40 40h-8c0 .3 0 .6 0 .9c0 22.1-17.9 40-40 40l-64.8 0c-13.3 0-26.4-2.2-38.8-6.5C93 443.2 186.4 512 296 512c91.5 0 171.8-48 217.1-120.2c-5.4 .7-10.8 1.1-16.3 1.1H432c-22.1 0-40-17.9-40-40c0-.1 0-.2 0-.3c0-.2 0-.4 0-.6h-8c-22.1 0-40-17.9-40-40c0-1.1 0-2.2 .1-3.3c-37-10.4-64.1-44.4-64.1-84.7c0-48.6 39.4-88 88-88c6.6 0 13 .7 19.2 2.1c11.8-4 25.2-2.4 36.1 5.4l37.9 27.1c1.1-9.6 5.3-18.9 12.6-26.2zM296 448c-35.3 0-64-21.5-64-48s28.7-48 64-48s64 21.5 64 48s-28.7 48-64 48zm90.3-208c3.8-4.2 6.1-9.9 6.1-16c0-13.3-10.7-24-24-24s-24 10.7-24 24c0 6.1 2.3 11.8 6.1 16h35.8zM224 192c0-8.8-7.2-16-16-16H94.2c-7.1 0-10.7-8.6-5.7-13.7l28.8-28.8c7.8-7.8 7.8-20.5 0-28.3s-20.5-7.8-28.3 0L27.9 166.4l-.8 .8C-9.3 204.4-9 264.1 27.9 301c17.9 17.9 42.1 27.9 67.3 27.9H160c8.8 0 16-7.2 16-16s-7.2-16-16-16H146c-2.5 0-4.5-2-4.5-4.5s2-4.5 4.5-4.5h62c8.8 0 16-7.2 16-16s-7.2-16-16-16H145.6c-2.2 0-4-1.8-4-4s1.8-4 4-4l78.4 0c8.8 0 16-7.2 16-16s-7.2-16-16-16H145.6c-2.2 0-4-1.8-4-4s1.8-4 4-4l62.4 0c8.8 0 16-7.2 16-16zm163-25.3c-5.1 7.2-3.5 17.2 3.7 22.3l59.7 42.6c3.5 2.5 5.6 6.6 5.6 10.9c0 7.4-6 13.4-13.4 13.4L368 256c-8.8 0-16 7.2-16 16s7.2 16 16 16h84c2.2 0 4 1.8 4 4s-1.8 4-4 4H384c-8.8 0-16 7.2-16 16s7.2 16 16 16l67.5 0c2.5 0 4.5 2 4.5 4.5s-2 4.5-4.5 4.5H432c-8.8 0-16 7.2-16 16s7.2 16 16 16h64.8c25.2 0 49.5-10 67.3-27.9c36.9-36.9 37.2-96.6 .8-133.8l-.8-.8L519 161.3c-7.8-7.8-20.5-7.8-28.3 0s-7.8 20.5 0 28.3l14.8 14.8c6.6 6.6 2.7 18-6.6 19c-2.8 .3-5.6-.4-7.8-2L409.3 163c-7.2-5.1-17.2-3.5-22.3 3.7z"/></svg>