<svg xmlns="http://www.w3.org/2000/svg" viewBox="0 0 512 512"><!--! Font Awesome Pro 6.3.0 by @fontawesome - https://fontawesome.com License - https://fontawesome.com/license (Commercial License) Copyright 2023 Fonticons, Inc. --><path d="M107 0a64 64 0 1 1 0 128A64 64 0 1 1 107 0zM84.6 160h44.8c9.2 0 18.1 1.6 26.4 4.5c-.5 3.8-.8 7.6-.8 11.5c0 24.3 10.9 46.1 28 60.8c-35.7 18.7-60 56.1-60 99.2v16c0 28.4 12.4 54 32 71.6V480c0 6.1 .8 11.9 2.4 17.5c-8.7 9-20.9 14.5-34.4 14.5H91c-26.5 0-48-21.5-48-48V348.3C16.5 338.8-1.7 312.4 .8 282.7l4.1-49.3C8.3 191.9 43 160 84.6 160zM347 512c-13.5 0-25.7-5.6-34.4-14.5c1.6-5.5 2.4-11.4 2.4-17.5V423.6c19.6-17.6 32-43.1 32-71.6V336c0-43.1-24.3-80.5-60-99.2c17.1-14.7 28-36.5 28-60.8c0-3.9-.3-7.8-.8-11.5c8.3-2.9 17.2-4.5 26.4-4.5h44.8c41.6 0 76.3 31.9 79.7 73.4l4.1 49.3c2.5 29.8-15.7 56.1-42.2 65.6V464c0 26.5-21.5 48-48 48H347zM363 0a64 64 0 1 1 0 128A64 64 0 1 1 363 0zM235 128a48 48 0 1 1 0 96 48 48 0 1 1 0-96zm0 128c44.2 0 80 35.8 80 80v16c0 23.7-12.9 44.4-32 55.4V480c0 17.7-14.3 32-32 32H219c-17.7 0-32-14.3-32-32V407.4c-19.1-11.1-32-31.7-32-55.4V336c0-44.2 35.8-80 80-80z"/></svg>