<svg xmlns="http://www.w3.org/2000/svg" viewBox="0 0 448 512"><!--! Font Awesome Pro 6.3.0 by @fontawesome - https://fontawesome.com License - https://fontawesome.com/license (Commercial License) Copyright 2023 Fonticons, Inc. --><path d="M240 413.6C339.7 398.2 416 312 416 208C416 93.1 322.9 0 208 0S0 93.1 0 208C0 312 76.3 398.2 176 413.6V448H80c-17.7 0-32 14.3-32 32s14.3 32 32 32H208 336c17.7 0 32-14.3 32-32s-14.3-32-32-32H240V413.6zM168.9 68.5L208.3 166c18.5-25.3 50-39.8 83.3-35.1c48.1 6.8 81.7 51.3 74.9 99.4c-1.2 8.8-9.3 14.8-18.1 13.6L244.2 229.2c12.6 28.7 9.5 63.2-11.2 89.7c-29.9 38.3-85.2 45.1-123.5 15.2c-7-5.4-8.2-15.5-2.8-22.5l64.8-82.9c-31.2-3.4-59.5-23.4-72.1-54.5C81.2 129.1 103 77.9 148.1 59.7c8.2-3.3 17.5 .6 20.8 8.8zM208 224a16 16 0 1 0 0-32 16 16 0 1 0 0 32z"/></svg>