<svg xmlns="http://www.w3.org/2000/svg" viewBox="0 0 448 512"><!--! Font Awesome Pro 6.3.0 by @fontawesome - https://fontawesome.com License - https://fontawesome.com/license (Commercial License) Copyright 2023 Fonticons, Inc. --><path d="M312.5 172.1c-5.2-3-8.5-8.4-8.5-14.4V64c17.7 0 32-14.3 32-32s-14.3-32-32-32H288 240 176 128 112C94.3 0 80 14.3 80 32s14.3 32 32 32v93.7c0 6-3.3 11.4-8.5 14.4l0 0c-5.3 3.1-10.4 6.4-15.4 9.9C34.8 219.7 0 281.8 0 352c0 56 22.1 106.9 58.2 144.3C68.5 507 83.3 512 98.2 512H317.8c15 0 29.7-5 40.1-15.7C393.9 458.9 416 408 416 352c0-76.8-41.6-143.8-103.5-179.9zM284 376.6c-7.1 5.2-12 13-12 21.8V408c0 13.3-10.7 24-24 24H168c-13.3 0-24-10.7-24-24v-9.6c0-8.8-4.9-16.7-12-21.8c-22.1-16.1-36-39.1-36-64.6c0-48.6 50.1-88 112-88s112 39.4 112 88c0 25.5-13.9 48.6-36 64.6zM168 336a24 24 0 1 0 0-48 24 24 0 1 0 0 48zm104-24a24 24 0 1 0 -48 0 24 24 0 1 0 48 0z"/></svg>