<svg xmlns="http://www.w3.org/2000/svg" viewBox="0 0 576 512"><!--! Font Awesome Pro 6.3.0 by @fontawesome - https://fontawesome.com License - https://fontawesome.com/license (Commercial License) Copyright 2023 Fonticons, Inc. --><path d="M0 96C0 60.7 28.7 32 64 32H384c35.3 0 64 28.7 64 64V416c0 35.3-28.7 64-64 64H64c-35.3 0-64-28.7-64-64V96zm96 0c-17.7 0-32 14.3-32 32v96c0 17.7 14.3 32 32 32H352c17.7 0 32-14.3 32-32V128c0-17.7-14.3-32-32-32H96zm32 240c0-8.8-7.2-16-16-16s-16 7.2-16 16v16H80c-8.8 0-16 7.2-16 16s7.2 16 16 16H96v16c0 8.8 7.2 16 16 16s16-7.2 16-16V384h16c8.8 0 16-7.2 16-16s-7.2-16-16-16H128V336zm144 24a24 24 0 1 0 -48 0 24 24 0 1 0 48 0zm56 24a24 24 0 1 0 0-48 24 24 0 1 0 0 48zM480 168c0-13.3 10.7-24 24-24h48c13.3 0 24 10.7 24 24v32c0 13.3-10.7 24-24 24H528v72c0 13.3-10.7 24-24 24H480V272 256 200 168z"/></svg>