<svg xmlns="http://www.w3.org/2000/svg" viewBox="0 0 448 512"><!--! Font Awesome Pro 6.3.0 by @fontawesome - https://fontawesome.com License - https://fontawesome.com/license (Commercial License) Copyright 2023 Fonticons, Inc. --><path d="M320 176a48 48 0 1 0 96 0 48 48 0 1 0 -96 0zm-160 0a48 48 0 1 0 96 0 48 48 0 1 0 -96 0zM48 224a48 48 0 1 0 0-96 48 48 0 1 0 0 96zM320 336a48 48 0 1 0 96 0 48 48 0 1 0 -96 0zM208 384a48 48 0 1 0 0-96 48 48 0 1 0 0 96zM0 336a48 48 0 1 0 96 0A48 48 0 1 0 0 336z"/></svg>