<svg xmlns="http://www.w3.org/2000/svg" viewBox="0 0 640 512"><!--! Font Awesome Pro 6.3.0 by @fontawesome - https://fontawesome.com License - https://fontawesome.com/license (Commercial License) Copyright 2023 Fonticons, Inc. --><path d="M187.1 38c-2.6-4.9-7.7-7.9-13.3-7.9s-10.6 3-13.3 7.9l-26 48.2L82.2 70.5c-5.3-1.6-11.1-.1-15 3.8s-5.4 9.7-3.8 15l15.7 52.4L31 167.6c-4.9 2.6-7.9 7.7-7.9 13.3s3 10.6 7.9 13.3l48.2 26L63.4 272.5c-1.6 5.3-.1 11.1 3.8 15s9.7 5.4 15 3.8l52.4-15.7 13.8 25.6 14.8-13.7 39.3-36.3c-8.8 3.7-18.5 5.7-28.7 5.7c-41.6 0-75.3-33.7-75.3-75.3s33.7-75.3 75.3-75.3s75.3 33.7 75.3 75.3c0 12.3-3 23.9-8.2 34.2l60.9-56.2-33.2-17.9 15.7-52.4c1.6-5.3 .1-11.1-3.8-15s-9.7-5.4-15-3.8L213 86.2 187.1 38zm31.8 142.7a45.2 45.2 0 1 0 -90.4 0 45.2 45.2 0 1 0 90.4 0zM420 128.5c-11.5-10.6-29.3-10.6-40.9 0L183.4 309.2c-9.1 8.4-12.1 21.5-7.6 33.1s15.6 19.2 28.1 19.2h30.1V466.8c0 24.9 20.2 45.2 45.2 45.2H520.1c25 0 45.2-20.2 45.2-45.2V361.4h30.1c12.4 0 23.5-7.6 28.1-19.2s1.5-24.7-7.6-33.1L420 128.5zM354.4 316.2c0-8.3 6.7-15.1 15.1-15.1h60.2c8.3 0 15.1 6.7 15.1 15.1v60.2c0 8.3-6.7 15.1-15.1 15.1H369.5c-8.3 0-15.1-6.7-15.1-15.1V316.2z"/></svg>