<svg xmlns="http://www.w3.org/2000/svg" viewBox="0 0 512 512"><!--! Font Awesome Pro 6.3.0 by @fontawesome - https://fontawesome.com License - https://fontawesome.com/license (Commercial License) Copyright 2023 Fonticons, Inc. --><path d="M113.3 93.7c-1.5 1.5-3.5 2.3-5.7 2.3H77.2c-8.8 0-16.1-7.2-13.8-15.8C72.6 44.8 111.8 0 189.2 0c58.4 0 95 25.5 113.5 53.2C322.6 40.6 349.2 32 383 32c77.4 0 116.6 44.8 125.8 80.2c2.2 8.6-5 15.8-13.8 15.8H450.3c-2.1 0-4.2-.8-5.7-2.3l-24-24c-3.1-3.1-8.2-3.1-11.3 0l-24 24c-1.5 1.5-3.5 2.3-5.7 2.3H300.5c28 79.9 21.2 170.2 9.9 226.1C369.9 365.1 415 417.3 415 480c0 17.7-14.3 32-32 32H63c-17.7 0-32-14.3-32-32c0-70.7 57.3-128 128-128h64c29.7-79.3 29.4-150.9 22.8-194l-87.6 87.6c-6.2 6.2-16.5 6.2-21-1.4c-18.5-31.6-22.5-90.9 32.3-145.7c1.4-1.4 2.8-2.7 4.1-4c-.3-.3-.7-.5-1-.8l-24-24c-3.1-3.1-8.2-3.1-11.3 0l-24 24z"/></svg>