<svg xmlns="http://www.w3.org/2000/svg" viewBox="0 0 512 512"><!--! Font Awesome Pro 6.3.0 by @fontawesome - https://fontawesome.com License - https://fontawesome.com/license (Commercial License) Copyright 2023 Fonticons, Inc. --><path d="M256 192a32 32 0 1 0 0-64 32 32 0 1 0 0 64zM96 256a32 32 0 1 0 0-64 32 32 0 1 0 0 64zm352-32a32 32 0 1 0 -64 0 32 32 0 1 0 64 0zm32 192a32 32 0 1 0 0-64 32 32 0 1 0 0 64zM64 384A32 32 0 1 0 0 384a32 32 0 1 0 64 0zm96-32c-17.7 0-32 14.3-32 32s14.3 32 32 32H352c17.7 0 32-14.3 32-32s-14.3-32-32-32H160z"/></svg>