<svg xmlns="http://www.w3.org/2000/svg" viewBox="0 0 384 512"><!--! Font Awesome Pro 6.3.0 by @fontawesome - https://fontawesome.com License - https://fontawesome.com/license (Commercial License) Copyright 2023 Fonticons, Inc. --><path d="M112 64V80c0 8.8 7.2 16 16 16h96c8.8 0 16-7.2 16-16V64h32c8.8 0 16 7.2 16 16V432c0 8.8-7.2 16-16 16H80c-8.8 0-16-7.2-16-16V80c0-8.8 7.2-16 16-16h32zM80 0C35.8 0 0 35.8 0 80V432c0 44.2 35.8 80 80 80H272c44.2 0 80-35.8 80-80V80c0-44.2-35.8-80-80-80H80zm32 400c0 8.8 7.2 16 16 16h96c8.8 0 16-7.2 16-16s-7.2-16-16-16H128c-8.8 0-16 7.2-16 16z"/></svg>