<svg xmlns="http://www.w3.org/2000/svg" viewBox="0 0 640 512"><!--! Font Awesome Pro 6.3.0 by @fontawesome - https://fontawesome.com License - https://fontawesome.com/license (Commercial License) Copyright 2023 Fonticons, Inc. --><path d="M0 90.4C0 57.1 27 30.1 60.2 30.1H361.4c33.3 0 60.2 27 60.2 60.2v60.2c-21.4 0-41.8 4.5-60.2 12.5V135.5c0-25-20.2-45.2-45.2-45.2H240.9c-25 0-45.2 20.2-45.2 45.2v62.8c-17.5 6.2-30.1 22.9-30.1 42.6c0 25 20.2 45.2 45.2 45.2s45.2-20.2 45.2-45.2c0-19.7-12.6-36.4-30.1-42.6V135.5c0-8.3 6.7-15.1 15.1-15.1h75.3c8.3 0 15.1 6.7 15.1 15.1v45.2c-36.6 27.5-60.2 71.2-60.2 120.5c0 21.4 4.5 41.8 12.5 60.2H105.4c-8.3 0-15.1-6.7-15.1-15.1V135.5c0-8.3 6.7-15.1 15.1-15.1h30.1c8.3 0 15.1-6.7 15.1-15.1s-6.7-15.1-15.1-15.1H105.4c-25 0-45.2 20.2-45.2 45.2V346.4c0 24.9 20.2 45.2 45.2 45.2H301.2c20.3 27.1 49.6 47.1 83.4 55.6c-7.1 3-14.9 4.6-23.1 4.6H60.2C27 451.8 0 424.8 0 391.5V90.4zM421.6 376.6a75.3 75.3 0 1 0 0-150.6 75.3 75.3 0 1 0 0 150.6zm0 45.2c-66.5 0-120.5-53.9-120.5-120.5s53.9-120.5 120.5-120.5s120.5 53.9 120.5 120.5c0 25.1-7.7 48.4-20.8 67.7l74.4 74.4c8.8 8.8 8.8 23.1 0 31.9s-23.1 8.8-31.9 0L489.4 401c-19.3 13.1-42.6 20.8-67.7 20.8z"/></svg>