<svg xmlns="http://www.w3.org/2000/svg" viewBox="0 0 512 512"><!--! Font Awesome Pro 6.3.0 by @fontawesome - https://fontawesome.com License - https://fontawesome.com/license (Commercial License) Copyright 2023 Fonticons, Inc. --><path d="M107 128A64 64 0 1 0 107 0a64 64 0 1 0 0 128zM84.6 160C43 160 8.3 191.9 4.9 233.4L.8 282.7c-2.5 29.8 15.7 56.1 42.2 65.6V464c0 26.5 21.5 48 48 48h32c26.5 0 48-21.5 48-48V348.3c26.5-9.5 44.7-35.8 42.2-65.6l-4.1-49.3C205.7 191.9 171 160 129.4 160H84.6zM363 128A64 64 0 1 0 363 0a64 64 0 1 0 0 128zm-22.4 32c-41.6 0-76.3 31.9-79.7 73.4l-4.1 49.3c-2.5 29.8 15.7 56.1 42.2 65.6V464c0 26.5 21.5 48 48 48h32c26.5 0 48-21.5 48-48V348.3c26.5-9.5 44.7-35.8 42.2-65.6l-4.1-49.3C461.7 191.9 427 160 385.4 160H340.6z"/></svg>