<svg xmlns="http://www.w3.org/2000/svg" viewBox="0 0 512 512"><!--! Font Awesome Pro 6.3.0 by @fontawesome - https://fontawesome.com License - https://fontawesome.com/license (Commercial License) Copyright 2023 Fonticons, Inc. --><path d="M118 128A64 64 0 1 0 118 0a64 64 0 1 0 0 128zm-15.7 32c-28.6 0-53.7 18.9-61.5 46.4L1.7 343.2C-4.2 363.7 11.2 384 32.4 384H54v80c0 26.5 21.5 48 48 48h32c26.5 0 48-21.5 48-48V384h21.6c21.3 0 36.6-20.3 30.8-40.8L195.3 206.4c-7.9-27.5-33-46.4-61.5-46.4H102.3zM374 128A64 64 0 1 0 374 0a64 64 0 1 0 0 128zm-15.7 32c-28.6 0-53.7 18.9-61.5 46.4L257.7 343.2c-5.8 20.4 9.5 40.8 30.8 40.8H310v80c0 26.5 21.5 48 48 48h32c26.5 0 48-21.5 48-48V384h21.6c21.3 0 36.6-20.3 30.8-40.8L451.3 206.4c-7.8-27.5-33-46.4-61.5-46.4H358.3z"/></svg>