<svg xmlns="http://www.w3.org/2000/svg" viewBox="0 0 256 512"><!--! Font Awesome Pro 6.3.0 by @fontawesome - https://fontawesome.com License - https://fontawesome.com/license (Commercial License) Copyright 2023 Fonticons, Inc. --><path d="M54 64a64 64 0 1 1 128 0A64 64 0 1 1 54 64zM40.7 206.4c7.8-27.5 33-46.4 61.5-46.4h31.5c28.6 0 53.7 18.9 61.5 46.4l39.1 136.8c5.8 20.4-9.5 40.8-30.8 40.8H182v80c0 26.5-21.5 48-48 48H102c-26.5 0-48-21.5-48-48V384H32.4c-21.3 0-36.6-20.3-30.8-40.8L40.7 206.4z"/></svg>