<svg xmlns="http://www.w3.org/2000/svg" viewBox="0 0 640 512"><!--! Font Awesome Pro 6.3.0 by @fontawesome - https://fontawesome.com License - https://fontawesome.com/license (Commercial License) Copyright 2023 Fonticons, Inc. --><path d="M223 0c9.7 0 18.5 5.8 22.2 14.8s1.7 19.3-5.2 26.2l-39 39 58.7 58.7C273.3 152.4 291.8 160 311 160s37.7-7.6 51.3-21.3L494 7c9.4-9.4 24.6-9.4 33.9 0s9.4 24.6 0 33.9L396.3 172.7C373.6 195.3 343 208 311 208s-62.6-12.7-85.3-35.3L167 113.9l-39 39c-6.9 6.9-17.2 8.9-26.2 5.2S87 145.7 87 136V24C87 10.7 97.7 0 111 0H223zM42.4 489.9l-35.4-62c-9.7-16.9-8.3-38.1 5.5-51.7C63.6 325.9 169.1 256 311 256s247.4 69.9 298.5 120.2c13.9 13.6 15.2 34.8 5.5 51.7l-35.4 62c-7.4 12.9-22.7 19.1-37 14.8L429.8 470.8c-13.5-4.1-22.8-16.5-22.8-30.6V384c-62.3-20.8-129.7-20.8-192 0v56.2c0 14.1-9.3 26.6-22.8 30.6L79.4 504.7c-14.3 4.3-29.6-1.8-37-14.8z"/></svg>