<svg xmlns="http://www.w3.org/2000/svg" viewBox="0 0 640 512"><!--! Font Awesome Pro 6.3.0 by @fontawesome - https://fontawesome.com License - https://fontawesome.com/license (Commercial License) Copyright 2023 Fonticons, Inc. --><path d="M4.7 266.3l41.9 94.3c6.1 13.7 20.8 21.3 35.5 18.4l109.2-21.8c15-3 25.7-16.1 25.7-31.4V240c62.3-20.8 129.7-20.8 192 0v85.8c0 15.3 10.8 28.4 25.7 31.4L543.9 379c14.7 2.9 29.4-4.7 35.5-18.4l41.9-94.3c7.2-16.2 5.1-35.1-7.4-47.7C563.8 168.1 457.2 96 313 96S62.2 168.1 12.1 218.6C-.4 231.1-2.5 250.1 4.7 266.3z"/></svg>