<svg xmlns="http://www.w3.org/2000/svg" viewBox="0 0 512 512"><!--! Font Awesome Pro 6.3.0 by @fontawesome - https://fontawesome.com License - https://fontawesome.com/license (Commercial License) Copyright 2023 Fonticons, Inc. --><path d="M253.4 2.9C249.2 1 244.7 0 240 0s-9.2 1-13.4 2.9L38.3 82.8C16.3 92.1-.1 113.8 0 140c.5 99.2 41.3 280.7 213.6 363.2c16.7 8 36.1 8 52.8 0C438.7 420.7 479.5 239.2 480 140c.1-26.2-16.3-47.9-38.3-57.2L253.4 2.9zM240 128c13.3 0 24 10.7 24 24V264c0 13.3-10.7 24-24 24s-24-10.7-24-24V152c0-13.3 10.7-24 24-24zM208 352a32 32 0 1 1 64 0 32 32 0 1 1 -64 0z"/></svg>