<svg xmlns="http://www.w3.org/2000/svg" viewBox="0 0 512 512"><!--! Font Awesome Pro 6.3.0 by @fontawesome - https://fontawesome.com License - https://fontawesome.com/license (Commercial License) Copyright 2023 Fonticons, Inc. --><path d="M80 0c17.7 0 32 14.3 32 32V86.7c28.3 12.3 48 40.5 48 73.3s-19.7 61-48 73.3V480c0 17.7-14.3 32-32 32s-32-14.3-32-32V233.3C19.7 221 0 192.8 0 160s19.7-61 48-73.3V32C48 14.3 62.3 0 80 0zm0 192a32 32 0 1 0 0-64 32 32 0 1 0 0 64zM240 384a32 32 0 1 0 0-64 32 32 0 1 0 0 64zm80-32c0 32.8-19.7 61-48 73.3V480c0 17.7-14.3 32-32 32s-32-14.3-32-32V425.3c-28.3-12.3-48-40.5-48-73.3s19.7-61 48-73.3V32c0-17.7 14.3-32 32-32s32 14.3 32 32V278.7c28.3 12.3 48 40.5 48 73.3zM432 192a32 32 0 1 0 -64 0 32 32 0 1 0 64 0zm0 73.3V480c0 17.7-14.3 32-32 32s-32-14.3-32-32V265.3c-28.3-12.3-48-40.5-48-73.3s19.7-61 48-73.3V32c0-17.7 14.3-32 32-32s32 14.3 32 32v86.7c28.3 12.3 48 40.5 48 73.3s-19.7 61-48 73.3z"/></svg>