<svg xmlns="http://www.w3.org/2000/svg" viewBox="0 0 576 512"><!--! Font Awesome Pro 6.3.0 by @fontawesome - https://fontawesome.com License - https://fontawesome.com/license (Commercial License) Copyright 2023 Fonticons, Inc. --><path d="M471.7 320l-73.8-24.5L498.3 125.6c24.8 26.7 42.1 60.7 48.5 98.8l12.5 75.2c4 23.8-18.8 43.2-41.7 35.6l-7-2.3L471.7 320h0zM385.5 66.1c32.9 4.8 63.2 18 88.7 37.5L366.8 285.2 315.1 268c-14.6-4.9-30-7-45.2-6.4L385.5 66.1zm-36-2.1L227.6 270.4 88.1 318.7 238.6 64H349.5zM13.3 224.4C28.6 132.2 108.1 64.6 201.5 64L41.4 334.8C19 341.5-3.1 322.3 .9 298.9l12.4-74.4zM24 384V369c8.5 .7 17.5-.3 26.4-3.4l193-66.9c20-6.9 41.6-7.1 61.7-.4l205.5 68.2c8.6 2.9 17.2 3.8 25.5 3.1V384c0 35.3-28.7 64-64 64c-19.1 0-36.3-8.4-48-21.7c-11.7 13.3-28.9 21.7-48 21.7s-36.3-8.4-48-21.7c-11.7 13.3-28.9 21.7-48 21.7s-36.3-8.4-48-21.7c-11.7 13.3-28.9 21.7-48 21.7s-36.3-8.4-48-21.7C124.3 439.6 107.1 448 88 448c-35.3 0-64-28.7-64-64z"/></svg>