<svg xmlns="http://www.w3.org/2000/svg" viewBox="0 0 640 512"><!--! Font Awesome Pro 6.3.0 by @fontawesome - https://fontawesome.com License - https://fontawesome.com/license (Commercial License) Copyright 2023 Fonticons, Inc. --><path d="M368 192c0-65.5 13.2-142.4 60.2-192H144C91 0 48 86 48 192c0 101.5-11.7 170.8-23 213.9C20 425.4 14.3 445.8 4.5 463.6c-5.9 9.9-6.1 22.1-.4 32.2S20.5 512 32 512H269.9c22.3 0 45.4-12.1 55.4-36.1C340.7 439 368 350.8 368 192zm224 0C592 86 549 0 496 0s-96 86-96 192s43 192 96 192s96-86 96-192zm-64 0c0 35.3-14.3 64-32 64s-32-28.7-32-64s14.3-64 32-64s32 28.7 32 64z"/></svg>