<svg xmlns="http://www.w3.org/2000/svg" viewBox="0 0 448 512"><!--! Font Awesome Pro 6.3.0 by @fontawesome - https://fontawesome.com License - https://fontawesome.com/license (Commercial License) Copyright 2023 Fonticons, Inc. --><path d="M182 0c-13.3 0-24 10.7-24 24s10.7 24 24 24h16V96H158c-17.7 0-32 14.3-32 32H40.6C14 128-5.2 153.4 2.1 179L42.5 320.2C26.5 321.9 14 335.5 14 352c0 17.7 14.3 32 32 32H78v96c0 17.7 14.3 32 32 32H334c17.7 0 32-14.3 32-32V384l32 0c17.7 0 32-14.3 32-32c0-16.5-12.5-30.1-28.5-31.8L441.9 179c7.3-25.6-11.9-51-38.5-51H318c0-17.7-14.3-32-32-32H246V48h16c13.3 0 24-10.7 24-24s-10.7-24-24-24H222 182zM126 192V320H109c-.1-.3-.1-.5-.2-.8L72.4 192H126zm48 128V192h96V320l-96 0zM318 192h53.6L335.2 319.2l-.1 .3-.1 .5H318V192z"/></svg>