<svg xmlns="http://www.w3.org/2000/svg" viewBox="0 0 512 512"><!--! Font Awesome Pro 6.3.0 by @fontawesome - https://fontawesome.com License - https://fontawesome.com/license (Commercial License) Copyright 2023 Fonticons, Inc. --><path d="M288 32c0-17.7-14.3-32-32-32s-32 14.3-32 32V69.9c-18 6.8-33.6 19.4-44.1 36.1L14.5 367.7C5 382.8 0 400.2 0 418c0 51.9 42.1 94 94 94H418c51.9 0 94-42.1 94-94c0-17.8-5-35.2-14.5-50.2L416.2 239l-46.4 46.4 73.6 116.5c3 4.8 4.6 10.4 4.6 16c0 16.6-13.5 30-30 30H94c-16.6 0-30-13.5-30-30c0-5.7 1.6-11.2 4.6-16L234 140.1c4.8-7.6 13.1-12.1 22-12.1s17.3 4.6 22 12.1l48 75.9-51.2 51.2c-5.9-2.1-12.2-3.2-18.8-3.2c-30.9 0-56 25.1-56 56s25.1 56 56 56s56-25.1 56-56c0-6.6-1.1-12.9-3.2-18.8l43.5-43.5 46.4-46.4L505 105c9.4-9.4 9.4-24.6 0-33.9s-24.6-9.4-33.9 0l-98.6 98.6L332.1 106C321.6 89.2 306 76.7 288 69.9V32z"/></svg>