<svg xmlns="http://www.w3.org/2000/svg" viewBox="0 0 512 512"><!--! Font Awesome Pro 6.3.0 by @fontawesome - https://fontawesome.com License - https://fontawesome.com/license (Commercial License) Copyright 2023 Fonticons, Inc. --><path d="M255 0c17.7 0 32 14.3 32 32v2C402.8 48.4 494.6 140.2 509 256.1c2.2 17.5-12.4 31.9-30 31.9H31c-17.7 0-32.2-14.4-30-31.9C15.4 140.2 107.2 48.4 223 34V32c0-17.7 14.3-32 32-32zm32 430.6c0 45-36.5 81.4-81.4 81.4c-30.8 0-59-17.4-72.8-45l-2.3-4.7c-7.9-15.8-1.5-35 14.3-42.9s35-1.5 42.9 14.3l2.3 4.7c3 5.9 9 9.6 15.6 9.6c9.6 0 17.4-7.8 17.4-17.4V320h64V430.6z"/></svg>