<svg xmlns="http://www.w3.org/2000/svg" viewBox="0 0 384 512"><!--! Font Awesome Pro 6.3.0 by @fontawesome - https://fontawesome.com License - https://fontawesome.com/license (Commercial License) Copyright 2023 Fonticons, Inc. --><path d="M37.9 185.4L166.5 42.6c6.1-6.7 14.7-10.6 23.8-10.6h3.5c9.1 0 17.7 3.9 23.8 10.6L346.1 185.4c3.8 4.2 5.9 9.8 5.9 15.5c0 12.8-10.4 23.1-23.1 23.1H256V352c0 17.7-14.3 32-32 32H160c-17.7 0-32-14.3-32-32V224H55.1C42.4 224 32 213.6 32 200.9c0-5.7 2.1-11.2 5.9-15.5zM32 416H352c17.7 0 32 14.3 32 32s-14.3 32-32 32H32c-17.7 0-32-14.3-32-32s14.3-32 32-32z"/></svg>