<svg xmlns="http://www.w3.org/2000/svg" viewBox="0 0 448 512"><!--! Font Awesome Pro 6.3.0 by @fontawesome - https://fontawesome.com License - https://fontawesome.com/license (Commercial License) Copyright 2023 Fonticons, Inc. --><path d="M96 128V70.2c0-13.3 8.3-25.3 20.8-30l96-36c7.2-2.7 15.2-2.7 22.5 0l96 36c12.5 4.7 20.8 16.6 20.8 30V128h-.3c.2 2.6 .3 5.3 .3 8v40c0 70.7-57.3 128-128 128s-128-57.3-128-128V136c0-2.7 .1-5.4 .3-8H96zm200 32c-20.5 0-38.7-9.6-50.4-24.5C231.9 159.7 205.8 176 176 176l-32 0c0 44.2 35.8 80 80 80s80-35.8 80-80V160h-8zM111.9 327.7c10.5-3.4 21.8 .4 29.4 8.5l71 75.5c6.3 6.7 17 6.7 23.3 0l71-75.5c7.6-8.1 18.9-11.9 29.4-8.5C401 348.6 448 409.4 448 481.3c0 17-13.8 30.7-30.7 30.7H30.7C13.8 512 0 498.2 0 481.3c0-71.9 47-132.7 111.9-153.6zM213.3 40V53.3H200c-4.4 0-8 3.6-8 8v5.3c0 4.4 3.6 8 8 8h13.3V88c0 4.4 3.6 8 8 8h5.3c4.4 0 8-3.6 8-8V74.7H248c4.4 0 8-3.6 8-8V61.3c0-4.4-3.6-8-8-8H234.7V40c0-4.4-3.6-8-8-8h-5.3c-4.4 0-8 3.6-8 8z"/></svg>