<svg xmlns="http://www.w3.org/2000/svg" viewBox="0 0 640 512"><!--! Font Awesome Pro 6.3.0 by @fontawesome - https://fontawesome.com License - https://fontawesome.com/license (Commercial License) Copyright 2023 Fonticons, Inc. --><path d="M2.5 57.4C-7.2 30.3 14.1 2.1 42.8 4.1L192.1 14C208.9 15.1 222 29.1 222 45.9V224H62L2.5 57.4zM286 16h64c17.7 0 32 14.3 32 32V224H254V48c0-17.7 14.3-32 32-32zM62 288c0-17.7 14.3-32 32-32H542c17.7 0 32 14.3 32 32s-14.3 32-32 32h-1.6c20.7 20.3 33.6 48.7 33.6 80c0 61.9-50.1 112-112 112c-56.4 0-103.1-41.7-110.9-96H284.9c-7.8 54.3-54.4 96-110.9 96c-61.9 0-112-50.1-112-112c0-31.3 12.9-59.7 33.6-80H94c-17.7 0-32-14.3-32-32zm96 128H112c5.8 22.5 23.5 40.2 46 46V416zm0-32V338c-22.5 5.8-40.2 23.5-46 46h46zm32 78c22.5-5.8 40.2-23.5 46-46H190v46zm0-124v46h46c-5.8-22.5-23.5-40.2-46-46zM446 462V416H400c5.8 22.5 23.5 40.2 46 46zm-46-78h46V338c-22.5 5.8-40.2 23.5-46 46zm124 32H478v46c22.5-5.8 40.2-23.5 46-46zm0-32c-5.8-22.5-23.5-40.2-46-46v46h46zM593.2 4.1c28.7-1.9 50 26.2 40.3 53.4L574 224H414V45.9c0-16.8 13.1-30.8 29.9-31.9l149.3-10z"/></svg>