<svg xmlns="http://www.w3.org/2000/svg" viewBox="0 0 320 512"><!--! Font Awesome Pro 6.3.0 by @fontawesome - https://fontawesome.com License - https://fontawesome.com/license (Commercial License) Copyright 2023 Fonticons, Inc. --><path d="M47 0C30.4 0 16.5 12.8 15.1 29.3L1.1 197.8c-6 72 42.5 135.2 109.9 150.6V448H63c-17.7 0-32 14.3-32 32s14.3 32 32 32h80 80c17.7 0 32-14.3 32-32s-14.3-32-32-32H175V348.4c67.4-15.4 115.9-78.6 109.9-150.6l-14-168.4C269.5 12.8 255.6 0 239 0H216.9C205 0 197.3 12.5 202.6 23.2l14.2 28.5c3.5 7.1 1.4 15.7-5.1 20.3l-58.4 40.9c-6 4.2-8.4 12-5.8 18.9l31.1 81c2.1 5.5-1.9 11.4-7.8 11.4c-2.4 0-4.7-1.1-6.3-2.9L75.1 118c-6.4-7.4-4.7-18.7 3.5-24l58.6-37.3c7.6-4.8 9.7-14.9 4.7-22.4L123.7 7.1c-3-4.5-8-7.1-13.3-7.1H47z"/></svg>