<svg xmlns="http://www.w3.org/2000/svg" viewBox="0 0 512 512"><!--! Font Awesome Pro 6.3.0 by @fontawesome - https://fontawesome.com License - https://fontawesome.com/license (Commercial License) Copyright 2023 Fonticons, Inc. --><path d="M381.7 34.3l112 112c3.1 3.1 3.1 8.2 0 11.3s-8.2 3.1-11.3 0L384 59.3V472c0 4.4-3.6 8-8 8s-8-3.6-8-8V59.3l-98.3 98.3c-3.1 3.1-8.2 3.1-11.3 0s-3.1-8.2 0-11.3l112-112c3.1-3.1 8.2-3.1 11.3 0zm-144 331.3l-112 112c-3.1 3.1-8.2 3.1-11.3 0l-112-112c-3.1-3.1-3.1-8.2 0-11.3s8.2-3.1 11.3 0L112 452.7V40c0-4.4 3.6-8 8-8s8 3.6 8 8V452.7l98.3-98.3c3.1-3.1 8.2-3.1 11.3 0s3.1 8.2 0 11.3z"/></svg>