<svg xmlns="http://www.w3.org/2000/svg" viewBox="0 0 448 512"><!--! Font Awesome Pro 6.3.0 by @fontawesome - https://fontawesome.com License - https://fontawesome.com/license (Commercial License) Copyright 2023 Fonticons, Inc. --><path d="M306 424.7c-25.7-4.7-53.5-13.5-82-25.9c-28.6 12.5-56.3 21.3-82 25.9c.8 1.8 1.6 3.6 2.5 5.4C165.3 474 193 496 224 496s58.7-22 79.5-65.8c.8-1.8 1.7-3.6 2.5-5.4zM224 512c-42.8 0-76.4-32.7-98.4-84.8c-52.7 6.1-95-6.8-115.2-43.2C-10.3 346.9 1 301.2 34 256C1 210.8-10.3 165.1 10.4 128C30.6 91.7 72.9 78.7 125.6 84.8C147.6 32.7 181.2 0 224 0s76.4 32.7 98.4 84.8c52.7-6.1 95 6.8 115.2 43.2c20.7 37.1 9.4 82.8-23.6 128c33 45.2 44.3 90.9 23.6 128c-20.2 36.3-62.5 49.3-115.2 43.2c-22 52.1-55.7 84.8-98.4 84.8zM204.3 389.7c-13.9-6.8-27.9-14.4-42-22.8c-15.7-9.4-30.6-19.3-44.5-29.5c4 26.6 10.1 51 18 72.3c21.3-3.6 44.4-10.3 68.5-19.9zm107.9 19.9c7.8-21.2 13.9-45.6 18-72.3c-13.9 10.3-28.8 20.2-44.5 29.5c-14 8.4-28.1 16-42 22.8c24.1 9.6 47.2 16.3 68.5 19.9zm-34.7-56.4c20.1-12 38.7-24.8 55.6-38.1c2-18.8 3-38.6 3-59s-1-40.2-3-59c-16.9-13.3-35.5-26.1-55.6-38.1c-18-10.8-35.9-20.2-53.4-28.2c-17.5 8-35.4 17.4-53.4 28.2c-20.1 12-38.7 24.8-55.6 38.1c-2 18.8-3 38.6-3 59s1 40.2 3 59c16.9 13.3 35.5 26.1 55.6 38.1c18 10.8 35.9 20.2 53.4 28.2c17.5-8 35.4-17.4 53.4-28.2zm51 58.6c.9 .1 1.8 .2 2.7 .2c46.3 3.9 77.6-9 92.5-35.8c15.1-27.1 9.9-62.3-16.6-102.3c-1.1-1.6-2.1-3.2-3.3-4.8c-15.3 18.5-34 36.8-55.6 54.2c-3.8 32.5-10.5 62.4-19.7 88.3zm21.9-111.1C367.2 286 381.8 271 393.8 256c-12-15-26.7-30-43.5-44.7c1.1 14.5 1.7 29.4 1.7 44.7s-.6 30.2-1.7 44.7zM407 238c26.6-40 31.7-75.2 16.6-102.3C408.7 109 377.3 96.2 331.1 100c-.9 .1-1.8 .2-2.7 .2c9.2 26 15.9 55.9 19.7 88.3c21.6 17.5 40.3 35.7 55.6 54.2c1.1-1.6 2.2-3.2 3.3-4.8zM303.5 81.8C282.7 38 255 16 224 16s-58.7 22-79.5 65.8c-.8 1.8-1.7 3.6-2.5 5.4c25.7 4.7 53.5 13.5 82 25.9c28.6-12.5 56.3-21.3 82-25.9c-.8-1.8-1.6-3.6-2.5-5.4zm8.6 20.6c-21.3 3.6-44.4 10.3-68.5 19.9c13.9 6.8 27.9 14.4 42 22.8c15.7 9.4 30.6 19.3 44.5 29.5c-4-26.6-10.1-51-18-72.3zm-176.4 0c-7.8 21.2-13.9 45.6-18 72.3c13.9-10.3 28.8-20.1 44.5-29.5c14-8.4 28.1-16 42-22.8c-24.1-9.6-47.2-16.3-68.5-19.9zm-16.2-2.2c-.9-.1-1.8-.2-2.7-.2c-46.3-3.9-77.6 9-92.5 35.7C9.3 162.8 14.5 198.1 41 238c1.1 1.6 2.1 3.2 3.3 4.8c15.3-18.5 34-36.8 55.6-54.2c3.8-32.5 10.5-62.4 19.7-88.3zM99.8 323.4c-21.6-17.5-40.3-35.7-55.6-54.2c-1.1 1.6-2.2 3.2-3.3 4.8c-26.6 40-31.7 75.2-16.6 102.3C39.3 403 70.7 415.8 116.9 412c.9-.1 1.8-.2 2.7-.2c-9.2-26-15.9-55.9-19.7-88.3zM97.7 211.3C80.8 226 66.2 241 54.2 256c12 15 26.7 30 43.5 44.7C96.6 286.2 96 271.2 96 256s.6-30.2 1.7-44.7zM224 208a48 48 0 1 1 0 96 48 48 0 1 1 0-96zm32 48a32 32 0 1 0 -64 0 32 32 0 1 0 64 0z"/></svg>