<svg xmlns="http://www.w3.org/2000/svg" viewBox="0 0 448 512"><!--! Font Awesome Pro 6.3.0 by @fontawesome - https://fontawesome.com License - https://fontawesome.com/license (Commercial License) Copyright 2023 Fonticons, Inc. --><path d="M232 0c-3 0-5.7 1.6-7.1 4.2s-1.2 5.8 .4 8.2l10.8 16.3c2.5 3.7 3.8 8.1 3.8 12.6C240 53.8 229.8 64 217.3 64H144c-35.3 0-64 28.7-64 64c0 8.5 1.7 16.6 4.7 24H76c-42 0-76 34-76 76s34 76 76 76H372c42 0 76-34 76-76s-34-76-76-76H359.7c5.3-10.2 8.3-21.7 8.3-34C368 52.8 315.2 0 250 0H232zm17.5 19.8L246.9 16H250c56.3 0 102 45.7 102 102c0 12.7-4.1 24.4-11 34H264c-4.4 0-8 3.6-8 8s3.6 8 8 8h80.9H352h20c33.1 0 60 26.9 60 60s-26.9 60-60 60H76c-33.1 0-60-26.9-60-60s26.9-60 60-60H96h2 38c4.4 0 8-3.6 8-8s-3.6-8-8-8H102.4c-4.1-7.1-6.4-15.2-6.4-24c0-26.5 21.5-48 48-48h73.3C238.7 80 256 62.7 256 41.3c0-7.6-2.3-15.1-6.5-21.5zM32 336c0-4.4-3.6-8-8-8s-8 3.6-8 8v16c0 53 43 96 96 96h43.1l-26.2 52.4c-1.2 2.5-1.1 5.4 .4 7.8s4 3.8 6.8 3.8H312c2.8 0 5.3-1.4 6.8-3.8s1.6-5.3 .3-7.8L292.9 448H336c53 0 96-43 96-96V336c0-4.4-3.6-8-8-8s-8 3.6-8 8v16c0 44.2-35.8 80-80 80H280c-2.8 0-5.3 1.4-6.8 3.8s-1.6 5.3-.3 7.8L299.1 496H148.9l26.2-52.4c1.2-2.5 1.1-5.4-.4-7.8s-4-3.8-6.8-3.8H112c-44.2 0-80-35.8-80-80V336z"/></svg>