<svg xmlns="http://www.w3.org/2000/svg" viewBox="0 0 512 512"><!--! Font Awesome Pro 6.3.0 by @fontawesome - https://fontawesome.com License - https://fontawesome.com/license (Commercial License) Copyright 2023 Fonticons, Inc. --><path d="M434.9 208H45.1c-7.2 0-13.1-5.9-13.1-13.1c0-1 .1-1.4 .2-1.7c2.3-9.2 13-45.7 43.6-79.7C105.9 80 156.1 48 240 48s134.1 32 164.3 65.5c30.6 34 41.3 70.5 43.6 79.7c.1 .3 .2 .7 .2 1.7c0 7.2-5.9 13.1-13.1 13.1zM45.1 224H434.9c16.1 0 29.1-13 29.1-29.1c0-1.9-.2-3.7-.6-5.6C458.1 168.3 417.2 32 240 32S21.9 168.3 16.6 189.3c-.5 1.9-.6 3.7-.6 5.6C16 211 29 224 45.1 224zM43.4 400H436.6c6.3 0 11.4 5.1 11.4 11.4c0 29-23.5 52.6-52.6 52.6H84.6c-29 0-52.6-23.5-52.6-52.6c0-6.3 5.1-11.4 11.4-11.4zm0-16C28.3 384 16 396.3 16 411.4C16 449.3 46.7 480 84.6 480H395.4c37.9 0 68.6-30.7 68.6-68.6c0-15.1-12.3-27.4-27.4-27.4H43.4zM128 144a16 16 0 1 0 0-32 16 16 0 1 0 0 32zm240-16a16 16 0 1 0 -32 0 16 16 0 1 0 32 0zM240 112a16 16 0 1 0 0-32 16 16 0 1 0 0 32zm46.2 215.4c10.7 7.2 24.8 7.2 35.5 0L398.8 276c3.9-2.6 8.5-4 13.2-4H416h16c17.7 0 32 14.3 32 32s-14.3 32-32 32H354.4l-24 16H432c26.5 0 48-21.5 48-48s-21.5-48-48-48H416h-3.9H195.9 192 176 48c-26.5 0-48 21.5-48 48s21.5 48 48 48H277.6l-24-16H48c-17.7 0-32-14.3-32-32s14.3-32 32-32H176h16 3.9c4.7 0 9.3 1.4 13.2 4l77.1 51.4zM376 272l-63.1 42.1c-5.4 3.6-12.4 3.6-17.8 0L232 272H376z"/></svg>