<svg xmlns="http://www.w3.org/2000/svg" viewBox="0 0 512 512"><!--! Font Awesome Pro 6.3.0 by @fontawesome - https://fontawesome.com License - https://fontawesome.com/license (Commercial License) Copyright 2023 Fonticons, Inc. --><path d="M426.9 208H37.1c-7.2 0-13.1-5.9-13.1-13.1c0-1 .1-1.4 .2-1.7c2.3-9.2 13-45.7 43.6-79.7C97.9 80 148.1 48 232 48s134.1 32 164.3 65.5c30.6 34 41.3 70.5 43.6 79.7c.1 .3 .2 .7 .2 1.7c0 7.2-5.9 13.1-13.1 13.1zM37.1 224H426.9c16.1 0 29.1-13 29.1-29.1c0-1.9-.2-3.7-.6-5.6C450.1 168.3 409.2 32 232 32S13.9 168.3 8.6 189.3c-.5 1.9-.6 3.7-.6 5.6C8 211 21 224 37.1 224zM35.4 400H428.6c6.3 0 11.4 5.1 11.4 11.4c0 29-23.5 52.6-52.6 52.6H76.6c-29 0-52.6-23.5-52.6-52.6c0-6.3 5.1-11.4 11.4-11.4zm0-16C20.3 384 8 396.3 8 411.4C8 449.3 38.7 480 76.6 480H387.4c37.9 0 68.6-30.7 68.6-68.6c0-15.1-12.3-27.4-27.4-27.4H35.4zM120 144a16 16 0 1 0 0-32 16 16 0 1 0 0 32zm240-16a16 16 0 1 0 -32 0 16 16 0 1 0 32 0zM232 112a16 16 0 1 0 0-32 16 16 0 1 0 0 32zM100.5 312l1.8-1.1c13.5-8 25.8-14.9 41.6-14.9c15.5 0 25.6 6.5 38.1 14.5l.3 .2c12.6 8.1 27.1 17.3 49.6 17.3s37.1-9.2 49.6-17.3l.3-.2c12.4-8 22.6-14.5 38.1-14.5c15.8 0 28.1 6.8 41.6 14.9l1.8 1.1c12.5 7.5 26.8 16 44.5 16c17.4 0 30.6-4.4 39.6-8.8c4.5-2.2 7.9-4.5 10.2-6.3c1.2-.9 2.1-1.6 2.7-2.2c.3-.3 .6-.5 .8-.7l.2-.2 .1-.1 0 0 0 0 0 0s0 0-5.7-5.7l5.7 5.7c3.1-3.1 3.1-8.2 0-11.3c-3.1-3.1-8.1-3.1-11.3 0l0 0c-.1 .1-.2 .2-.4 .3c-.4 .3-1 .8-1.8 1.4c-1.7 1.2-4.3 3-7.8 4.7c-7 3.5-17.8 7.2-32.4 7.2c-13.2 0-24-6.4-37.7-14.6l-.5-.3c-13.4-8-29.1-17.1-49.8-17.1c-20.3 0-33.9 8.8-45.9 16.5l-1.2 .8c-12.3 7.9-23.5 14.7-41 14.7s-28.7-6.8-41-14.7l-1.2-.8c-12-7.7-25.6-16.5-45.9-16.5c-20.7 0-36.4 9.2-49.8 17.1l-.5 .3C80 305.6 69.2 312 56 312c-14.6 0-25.4-3.6-32.4-7.2c-3.5-1.8-6.1-3.5-7.8-4.7c-.8-.6-1.4-1.1-1.8-1.4c-.2-.2-.3-.3-.4-.3l0 0c-3.1-3.1-8.2-3.1-11.3 0c-3.1 3.1-3.1 8.2 0 11.3L8 304c-5.7 5.7-5.7 5.7-5.7 5.7l0 0 0 0 0 0 .1 .1 .2 .2c.2 .2 .4 .4 .8 .7c.6 .6 1.5 1.3 2.7 2.2c2.3 1.8 5.7 4 10.2 6.3c9 4.5 22.2 8.8 39.6 8.8c17.7 0 32-8.5 44.5-16z"/></svg>