<svg xmlns="http://www.w3.org/2000/svg" viewBox="0 0 640 512"><!--! Font Awesome Pro 6.3.0 by @fontawesome - https://fontawesome.com License - https://fontawesome.com/license (Commercial License) Copyright 2023 Fonticons, Inc. --><path d="M323.7 38.1c3.3 4 6 8.4 8 13.1L428.5 16c6.8-2.5 14.5 .3 18.2 6.6l44.6 76.4L321.5 160.7l-8.9 52.2 2.4 14.1c12.2 71.2 83.7 114.9 151.8 94.7L511 442.9l-67.1 24.4c-3.9 1.4-5.9 5.7-4.5 9.6s5.7 5.9 9.7 4.5l74.2-27 74.2-27c3.9-1.4 5.9-5.7 4.5-9.6s-5.7-5.9-9.7-4.5l-67.1 24.4L481 316.5c65.2-28.4 91.9-107.8 55.4-170.2L459.7 14.9C452.3 2.4 437-3.2 423.4 1.8L323.7 38.1zM523.5 153.9c33 56.4 6.8 128.9-54.6 151.2s-128-16.4-139-80.7l-8.2-47.8L499 112.1l24.5 41.9zm-444.6 0l24.5-41.9 177.3 64.5-8.2 47.8c-11 64.4-77.6 103.1-139 80.7s-87.5-94.8-54.6-151.2zm204.3 7.6L111.1 98.9l44.6-76.4c3.7-6.3 11.3-9 18.2-6.6L288.4 57.7c6.8 2.5 10.9 9.5 9.7 16.7l-14.9 87.2zm4.1 65.4L312.9 76.9c2.5-14.3-5.7-28.4-19.4-33.4L179 1.8c-13.7-5-29 .5-36.3 13.1L65.9 146.3c-36.4 62.3-9.7 141.8 55.4 170.2L77.2 437.7 10.1 413.3c-3.9-1.4-8.2 .6-9.7 4.5s.6 8.2 4.5 9.6l74.2 27 74.2 27c3.9 1.4 8.2-.6 9.7-4.5s-.6-8.2-4.5-9.6L91.3 442.9l44.1-121.2c68.1 20.2 139.7-23.6 151.8-94.7z"/></svg>