<svg xmlns="http://www.w3.org/2000/svg" viewBox="0 0 448 512"><!--! Font Awesome Pro 6.3.0 by @fontawesome - https://fontawesome.com License - https://fontawesome.com/license (Commercial License) Copyright 2023 Fonticons, Inc. --><path d="M75.8 16C69.3 16 64 21.3 64 27.8c0 4.5 2.5 8.5 6.5 10.5L91.6 48.8c2.3 1.2 3.9 3.3 4.3 5.9s-.4 5.1-2.2 6.9L80.3 75C69.9 85.4 64 99.6 63.9 114.4l-.3 104.4c0 15.4 7.4 29.9 19.9 38.9l1.9 1.4c15.6 11.1 36.5 11 51.9-.2l89.9-65.4c3.6-2.6 8.6-1.8 11.2 1.8s1.8 8.6-1.8 11.2l-89.9 65.4L93.1 310.9C74.8 324.2 64 345.4 64 368v16H48V368c0-27.7 13.2-53.7 35.6-70l20.7-15c-9.9-1.2-19.6-4.8-28.1-10.8l-1.9-1.4c-16.8-12-26.7-31.3-26.6-51.9l.3-104.4c0-19 7.6-37.3 21.1-50.7l5.5-5.5L63.4 52.6C53.9 47.9 48 38.3 48 27.8C48 12.4 60.4 0 75.8 0H218.6C318.8 0 400 81.2 400 181.4c0 10.2-.9 20.4-2.6 30.4L367.9 385.3l-15.8-2.7 29.5-173.6c1.6-9.2 2.3-18.4 2.3-27.7C384 90 310 16 218.6 16H75.8zM112 144a16 16 0 1 1 32 0 16 16 0 1 1 -32 0zM62.3 432c-4.5 0-8.9 1.9-11.9 5.3L19.8 471.2c-2.5 2.7-3.8 6.3-3.8 9.9c0 8.2 6.6 14.8 14.8 14.8H385.2c8.2 0 14.8-6.6 14.8-14.8c0-3.7-1.4-7.2-3.8-9.9l-30.6-33.9c-3-3.4-7.4-5.3-11.9-5.3H62.3zm345.8 28.5c5.1 5.7 7.9 13 7.9 20.6c0 17-13.8 30.8-30.8 30.8H30.8C13.8 512 0 498.2 0 481.2c0-7.6 2.8-15 7.9-20.6l30.6-33.9c6.1-6.7 14.7-10.6 23.8-10.6H353.7c9.1 0 17.7 3.8 23.8 10.6l30.6 33.9z"/></svg>