<svg xmlns="http://www.w3.org/2000/svg" viewBox="0 0 384 512"><!--! Font Awesome Pro 6.3.0 by @fontawesome - https://fontawesome.com License - https://fontawesome.com/license (Commercial License) Copyright 2023 Fonticons, Inc. --><path d="M16 56c0-4.4 3.6-8 8-8H72c4.4 0 8 3.6 8 8V80c0 13.3 10.7 24 24 24h32c13.3 0 24-10.7 24-24V56c0-4.4 3.6-8 8-8h48c4.4 0 8 3.6 8 8V80c0 13.3 10.7 24 24 24h32c13.3 0 24-10.7 24-24V56c0-4.4 3.6-8 8-8h48c4.4 0 8 3.6 8 8V186.7c0 6.4-2.5 12.5-7 17l-46.6 46.6c-1.6 1.6-2.5 3.8-2.3 6.1L319.1 384h16l-6.9-124.9L372.3 215c7.5-7.5 11.7-17.7 11.7-28.3V56c0-13.3-10.7-24-24-24H312c-13.3 0-24 10.7-24 24V80c0 4.4-3.6 8-8 8H248c-4.4 0-8-3.6-8-8V56c0-13.3-10.7-24-24-24H168c-13.3 0-24 10.7-24 24V80c0 4.4-3.6 8-8 8H104c-4.4 0-8-3.6-8-8V56c0-13.3-10.7-24-24-24H24C10.7 32 0 42.7 0 56V186.7c0 10.6 4.2 20.8 11.7 28.3l44.1 44.1L48.9 384h16L72 256.4c.1-2.3-.7-4.5-2.3-6.1L23 203.7c-4.5-4.5-7-10.6-7-17V56zM152 216v64c0 4.4 3.6 8 8 8h64c4.4 0 8-3.6 8-8V216c0-22.1-17.9-40-40-40s-40 17.9-40 40zm40-24c13.3 0 24 10.7 24 24v56H168V216c0-13.3 10.7-24 24-24zM62.3 432H321.7c4.5 0 8.9 1.9 11.9 5.3l30.6 33.9c2.5 2.7 3.8 6.3 3.8 9.9c0 8.2-6.6 14.8-14.8 14.8H30.8c-8.2 0-14.8-6.6-14.8-14.8c0-3.7 1.4-7.2 3.8-9.9l30.6-33.9c3-3.4 7.4-5.3 11.9-5.3zm313.8 28.5l-30.6-33.9c-6.1-6.7-14.7-10.6-23.8-10.6H62.3c-9.1 0-17.7 3.8-23.8 10.6L7.9 460.5c-5.1 5.7-7.9 13-7.9 20.6c0 17 13.8 30.8 30.8 30.8H353.2c17 0 30.8-13.8 30.8-30.8c0-7.6-2.8-15-7.9-20.6z"/></svg>