<svg xmlns="http://www.w3.org/2000/svg" viewBox="0 0 640 512"><!--! Font Awesome Pro 6.3.0 by @fontawesome - https://fontawesome.com License - https://fontawesome.com/license (Commercial License) Copyright 2023 Fonticons, Inc. --><path d="M325.3 97.9c16.6-47 61.8-80.7 114.9-80.7c3.5 0 6.9 .1 10.3 .4c-34.1 19.1-57.1 55.3-57.1 96.9c0 61.4 50.3 111.2 112.3 111.2c6.6 0 13-.6 19.3-1.6c-20.2 19.4-47.2 32-77.1 33.8c1.3 4.8 2.3 9.8 3 14.9c32.8-2.5 62.3-16.5 84.5-37.9c4.8-4.6 6-11.7 3-17.6s-9.5-9.2-16-8.1c-5.4 .9-11 1.4-16.7 1.4c-53.9 0-97.3-43.2-97.3-96.2c0-35.8 19.8-67.2 49.4-83.8c5.8-3.2 8.8-9.9 7.4-16.3S458.4 3.2 451.8 2.6c-3.8-.3-7.7-.5-11.6-.5c-59.8 0-110.7 38-129.3 91.2c4.9 1.2 9.7 2.7 14.4 4.6zM86.9 392.7c-3.6-2.1-8.2-1-10.3 2.6L31.4 470.5c-2.1 3.6-1 8.2 2.6 10.3s8.2 1 10.3-2.6L89.5 403c2.1-3.6 1-8.2-2.6-10.3zm90.3 0c-3.6-2.1-8.2-1-10.3 2.6l-45.2 75.3c-2.1 3.6-1 8.2 2.6 10.3s8.2 1 10.3-2.6L179.8 403c2.1-3.6 1-8.2-2.6-10.3zm90.3 0c-3.6-2.1-8.2-1-10.3 2.6l-45.2 75.3c-2.1 3.6-1 8.2 2.6 10.3s8.2 1 10.3-2.6L270.2 403c2.1-3.6 1-8.2-2.6-10.3zm90.3 0c-3.6-2.1-8.2-1-10.3 2.6l-45.2 75.3c-2.1 3.6-1 8.2 2.6 10.3s8.2 1 10.3-2.6L360.5 403c2.1-3.6 1-8.2-2.6-10.3zM90.5 180.7c0-41.6 33.7-75.3 75.3-75.3c30.1 0 56.1 17.7 68.2 43.3c1 2.2 3 3.7 5.3 4.2s4.8-.2 6.5-1.8c10.7-9.7 24.8-15.6 40.4-15.6c33.3 0 60.2 27 60.2 60.2c0 7.1-1.2 13.9-3.4 20.1c-.8 2.2-.5 4.7 .8 6.7s3.5 3.2 5.9 3.3c31.7 1.7 57 28 57 60.1c0 33.3-27 60.2-60.2 60.2c-.7 0-1.4 0-2.1 0l0 0H344 93.3v0l-.3 0c-.9 0-1.7 0-2.6 0c-41.6 0-75.3-33.7-75.3-75.3c0-39.4 30.2-71.7 68.8-75c2-.2 3.8-1.1 5.1-2.7s1.9-3.5 1.7-5.5c-.2-2.3-.3-4.7-.3-7.1zm75.3-90.3c-49.9 0-90.4 40.4-90.4 90.3l0 1.2C32.7 189.1 .1 226.3 .1 271c0 49.9 40.5 90.3 90.4 90.3c1 0 2 0 3 0H343.9c.8 0 1.6 0 2.5 0c41.6 0 75.3-33.7 75.3-75.3c0-37-26.7-67.8-62-74.1c1.1-5.2 1.8-10.7 1.8-16.2c0-41.6-33.7-75.3-75.3-75.3c-16 0-30.9 5-43.1 13.5c-15.8-26.1-44.5-43.6-77.4-43.6z"/></svg>