<svg xmlns="http://www.w3.org/2000/svg" viewBox="0 0 576 512"><!--! Font Awesome Pro 6.3.0 by @fontawesome - https://fontawesome.com License - https://fontawesome.com/license (Commercial License) Copyright 2023 Fonticons, Inc. --><path d="M301.4 52.4c0-18.5-21.1-29.2-36-18.2l4.5 6-4.5-6L76.6 173.4C28.5 208.7 .2 265.3 .2 324.8C.2 427.7 83.6 512 186.5 512c60.3 0 116.9-29.2 151.9-78.4L471.4 246.5c10.6-15-.1-35.7-18.4-35.7H419.9L479.6 75.1c1.7-3.8 2.6-8 2.6-12.1V60.2c0-16.6-13.5-30.1-30.1-30.1h-2.8c-4.2 0-8.3 .9-12.1 2.6l3 6.9-3-6.9L301.4 92.4v-40zm-27.1-6.1c5-3.7 12-.1 12 6.1v51.5c0 2.5 1.3 4.9 3.4 6.3s4.8 1.6 7.1 .6L443.2 46.5c1.9-.8 4-1.3 6.1-1.3H452c8.3 0 15.1 6.7 15.1 15.1V63c0 2.1-.4 4.2-1.3 6.1L401.4 215.3c-1 2.3-.8 5 .6 7.1s3.8 3.4 6.3 3.4h44.6c6.1 0 9.7 6.9 6.1 11.9L326.1 424.9C294 470.1 242 496.9 186.5 496.9C92 496.9 15.3 419.5 15.3 324.8C15.3 270 41.4 218 85.5 185.5L274.4 46.3zM157.2 282.3c4.9-.7 9.1-3.8 11.3-8.2L196 218.4 223.5 274c2.2 4.4 6.4 7.5 11.3 8.2l61.4 8.9-44.5 43.3c-3.6 3.5-5.2 8.4-4.3 13.3L258 409l-55-28.9c-4.4-2.3-9.6-2.3-14 0L134 409l10.5-61.2c.8-4.9-.8-9.9-4.3-13.3L95.7 291.2l61.4-8.9zm52.3-70.6c-2.5-5.1-7.8-8.4-13.5-8.4s-11 3.3-13.5 8.4L155 267.4l-61.4 8.9c-5.7 .8-10.4 4.8-12.2 10.2s-.3 11.4 3.8 15.4l44.5 43.3-10.5 61.2c-1 5.7 1.4 11.4 6 14.7s10.8 3.8 15.9 1.1l55-28.9 55 28.9c5.1 2.7 11.2 2.2 15.9-1.1s7-9.1 6-14.7l-10.5-61.2L306.8 302c4.1-4 5.6-10 3.8-15.4s-6.5-9.4-12.2-10.2L237 267.4l-27.5-55.7z"/></svg>