<svg xmlns="http://www.w3.org/2000/svg" viewBox="0 0 512 512"><!--! Font Awesome Pro 6.3.0 by @fontawesome - https://fontawesome.com License - https://fontawesome.com/license (Commercial License) Copyright 2023 Fonticons, Inc. --><path d="M468.6 11.3c-12.5-12.5-32.8-12.5-45.3 0L350 84.7 324.6 59.3c-12.5-12.5-32.8-12.5-45.3 0c-6 6-9.4 14.1-9.4 22.6V208c0 17.7 14.3 32 32 32H428.1c8.5 0 16.6-3.4 22.6-9.4c12.5-12.5 12.5-32.8 0-45.3L425.3 160l73.4-73.4c12.5-12.5 12.5-32.8 0-45.3L468.6 11.3zM434.7 22.6c6.2-6.2 16.4-6.2 22.6 0l30.1 30.1c6.2 6.2 6.2 16.4 0 22.6l-79 79c-3.1 3.1-3.1 8.2 0 11.3l31 31c6.2 6.2 6.2 16.4 0 22.6c-3 3-7.1 4.7-11.3 4.7H302c-8.8 0-16-7.2-16-16V82c0-4.2 1.7-8.3 4.7-11.3c6.2-6.2 16.4-6.2 22.6 0l31 31c3.1 3.1 8.2 3.1 11.3 0l79-79zM39.4 500.7c12.5 12.5 32.8 12.5 45.3 0L158 427.3l25.4 25.4c12.5 12.5 32.8 12.5 45.3 0c6-6 9.4-14.1 9.4-22.6V304c0-17.7-14.3-32-32-32H79.9c-8.5 0-16.6 3.4-22.6 9.4c-12.5 12.5-12.5 32.8 0 45.3L82.7 352 9.3 425.4c-12.5 12.5-12.5 32.8 0 45.3l30.1 30.1zm33.9-11.3c-6.2 6.2-16.4 6.2-22.6 0L20.6 459.3c-6.2-6.2-6.2-16.4 0-22.6l79-79c3.1-3.1 3.1-8.2 0-11.3l-31-31c-6.2-6.2-6.2-16.4 0-22.6c3-3 7.1-4.7 11.3-4.7H206c8.8 0 16 7.2 16 16V430.1c0 4.2-1.7 8.3-4.7 11.3c-6.2 6.2-16.4 6.2-22.6 0l-31-31c-3.1-3.1-8.2-3.1-11.3 0l-79 79z"/></svg>