<svg xmlns="http://www.w3.org/2000/svg" viewBox="0 0 576 512"><!--! Font Awesome Pro 6.3.0 by @fontawesome - https://fontawesome.com License - https://fontawesome.com/license (Commercial License) Copyright 2023 Fonticons, Inc. --><path d="M463.5 103.3c2.3 3.1 1.9 7.4-.8 10.2c-3.5 3.5-9.4 3-12.3-1C406.6 53.9 336.7 16 258 16C125.5 16 18 123.5 18 256v24.9c0 10.8-.6 21.6-1.9 32.2c-.5 3.9-3.8 6.8-7.8 6.8c-4.9 0-8.6-4.4-8-9.2C1.4 300.9 2 290.9 2 280.9V256C2 114.6 116.6 0 258 0c84.1 0 158.8 40.6 205.5 103.3zm27.7 71c4.3-2.2 9.6-.1 11 4.5c7.7 24.4 11.8 50.3 11.8 77.2v24.9c0 10.5-.2 21-.6 31.5c-.2 4.3-3.7 7.6-7.9 7.6c-4.6 0-8.2-3.8-8-8.4c.4-10.2 .6-20.4 .6-30.7V256c0-25-3.8-49.2-11-71.9c-1.2-3.8 .5-8 4.1-9.9zM258 80c97.2 0 176 78.8 176 176v24.9c0 32.3-2.3 64.4-6.8 96.3c-.6 3.9-3.9 6.8-7.9 6.8c-4.9 0-8.6-4.4-8-9.2c4.4-31 6.6-62.4 6.6-93.8V256c0-88.4-71.6-160-160-160c-23.8 0-46.4 5.2-66.7 14.5c-3.4 1.6-7.4 .8-9.9-2.1c-3.4-3.9-2.2-10 2.4-12.1C206.4 85.8 231.5 80 258 80zM141.5 135.6c2.8 3.2 2.5 8-.4 11.1C114.4 175.3 98 213.7 98 256v24.9c0 33-4.6 65.8-13.8 97.4c-1 3.4-4.1 5.6-7.5 5.6c-5.4 0-9.2-5.3-7.7-10.4c8.6-30.1 13-61.3 13-92.6V256c0-46.8 18.2-89.3 48-120.8c3.2-3.4 8.5-3.1 11.5 .4zM258 160c53 0 96 43 96 96v24.9c0 43.4-4.6 86.6-13.8 128.9c-.8 3.6-4 6.2-7.7 6.2c-5.1 0-8.9-4.8-7.8-9.8c8.9-41.1 13.4-83.1 13.4-125.3V256c0-44.2-35.8-80-80-80s-80 35.8-80 80v24.9c0 44-6.7 87.7-19.9 129.6c-1 3.3-4.1 5.5-7.5 5.5c-5.5 0-9.3-5.4-7.7-10.6c12.6-40.2 19.1-82.2 19.1-124.5V256c0-53 43-96 96-96zm8 96v24.9c0 63.8-11.7 127.1-34.7 186.7l-5.9 15.3c-1.6 4.1-6.2 6.2-10.3 4.6s-6.2-6.2-4.6-10.3l5.9-15.3C238.6 404.1 250 342.8 250 280.9V256c0-4.4 3.6-8 8-8s8 3.6 8 8z"/></svg>