<svg xmlns="http://www.w3.org/2000/svg" viewBox="0 0 512 512"><!--! Font Awesome Pro 6.3.0 by @fontawesome - https://fontawesome.com License - https://fontawesome.com/license (Commercial License) Copyright 2023 Fonticons, Inc. --><path d="M196.6 28.5c1.6-7.3 8.1-12.5 15.6-12.5h57.6c7.5 0 14 5.2 15.6 12.5l12.9 57.1c.6 2.6 2.5 4.8 5 5.7c17.9 6.8 34.5 16.4 49.1 28.4c2.1 1.7 4.9 2.2 7.4 1.4l56-17.4c7.1-2.2 14.9 .8 18.6 7.3L463.3 161c3.7 6.5 2.5 14.7-3 19.8l-43.1 39.8c-2 1.8-2.9 4.5-2.5 7.2c1.5 9.2 2.3 18.7 2.3 28.4s-.8 19.1-2.3 28.4c-.4 2.6 .5 5.3 2.5 7.2l43.1 39.8c5.5 5.1 6.7 13.3 3 19.8L434.4 401c-3.7 6.5-11.5 9.5-18.6 7.3l-56-17.4c-2.6-.8-5.4-.3-7.4 1.4c-14.6 11.9-31.2 21.6-49.1 28.4c-2.5 1-4.4 3.1-5 5.7l-12.9 57.1c-1.6 7.3-8.1 12.5-15.6 12.5H212.2c-7.5 0-14-5.2-15.6-12.5l-12.9-57.1c-.6-2.6-2.5-4.8-5-5.7c-17.9-6.8-34.5-16.4-49.1-28.4c-2.1-1.7-4.9-2.2-7.4-1.4l-56 17.4c-7.1 2.2-14.9-.8-18.6-7.3L18.7 351c-3.7-6.5-2.5-14.7 3-19.8l43.1-39.8c2-1.8 2.9-4.5 2.5-7.2C65.8 275.1 65 265.7 65 256s.8-19.1 2.3-28.4c.4-2.6-.5-5.3-2.5-7.2L21.7 180.7c-5.5-5.1-6.7-13.3-3-19.8L47.6 111c3.7-6.5 11.5-9.5 18.6-7.3l2.4-7.6-2.4 7.6 56 17.4c2.6 .8 5.4 .3 7.4-1.4c14.6-12 31.2-21.6 49.1-28.4c2.5-1 4.4-3.1 5-5.7l12.9-57.1zM212.2 0c-15 0-27.9 10.4-31.2 25L169 78c-16.7 6.8-32.2 15.8-46.1 26.7L70.9 88.5C56.6 84 41.2 90.1 33.7 103L4.9 153c-7.5 13-5 29.4 6 39.5l39.9 36.9C49.6 238.1 49 247 49 256s.6 17.9 1.8 26.6L10.9 319.5l5.4 5.9-5.4-5.9c-11 10.1-13.5 26.6-6 39.5L33.7 409c7.5 13 22.9 19 37.2 14.6l51.9-16.2c14 10.9 29.5 19.9 46.1 26.7l12 53c3.3 14.6 16.3 25 31.2 25h57.6c15 0 27.9-10.4 31.2-25l12-53c16.7-6.7 32.2-15.8 46.1-26.7l51.9 16.2c14.3 4.4 29.7-1.6 37.2-14.6L477.1 359c7.5-13 5-29.4-6-39.5l-39.9-36.9c1.2-8.7 1.8-17.6 1.8-26.6s-.6-17.9-1.8-26.6l39.9-36.9c11-10.1 13.5-26.6 6-39.5L448.3 103c-7.5-13-22.9-19-37.2-14.6l-51.9 16.2C345.2 93.7 329.7 84.7 313 78L301 25c-3.3-14.6-16.3-25-31.2-25H212.2zM177 256a64 64 0 1 1 128 0 64 64 0 1 1 -128 0zm144 0a80 80 0 1 0 -160 0 80 80 0 1 0 160 0z"/></svg>