<svg xmlns="http://www.w3.org/2000/svg" viewBox="0 0 512 512"><!--! Font Awesome Pro 6.3.0 by @fontawesome - https://fontawesome.com License - https://fontawesome.com/license (Commercial License) Copyright 2023 Fonticons, Inc. --><path d="M16 222.9C16 108.6 108.6 16 222.9 16h16.8c71.6 0 137.5 43.3 166.4 105c3.5 7.4 6.9 15.1 10.4 22.9c6.4 14.3 12.9 28.9 20.1 42.7c11.3 21.6 24.8 42.2 43.5 58.9l3.8 3.4c7.7 6.9 12.1 16.7 12.1 27c0 20-16.2 36.2-36.2 36.2H440c-4.4 0-8 3.6-8 8v72c0 22.1-17.9 40-40 40H312c-4.4 0-8 3.6-8 8v64c0 4.4 3.6 8 8 8s8-3.6 8-8V448h72c30.9 0 56-25.1 56-56V328h11.8c28.8 0 52.2-23.4 52.2-52.2c0-14.9-6.4-29.1-17.5-39l-3.8-3.4c-16.7-14.9-29.2-33.6-40-54.4c-7-13.4-13.1-27.1-19.3-41c-3.5-7.9-7.1-15.9-10.8-23.9C389.1 46.9 317.6 0 239.7 0H222.9C99.8 0 0 99.8 0 222.9c0 52.8 16.9 101.5 47.4 139.9C57.5 375.5 64 390.2 64 405.3V504c0 4.4 3.6 8 8 8s8-3.6 8-8V405.3c0-19.8-8.5-37.8-20.1-52.4C31.8 317.5 16 272.3 16 222.9zM232.2 116.5c0-4.3 3.5-7.8 7.8-7.8s7.8 3.5 7.8 7.8c0 32.7 39.5 49.1 62.6 25.9c3.1-3.1 8-3.1 11.1 0s3.1 8 0 11.1c-23.1 23.1-6.7 62.6 25.9 62.6c4.3 0 7.8 3.5 7.8 7.8s-3.5 7.8-7.8 7.8c-32.7 0-49.1 39.5-25.9 62.6c3.1 3.1 3.1 8 0 11.1s-8 3.1-11.1 0c-23.1-23.1-62.6-6.7-62.6 25.9c0 4.3-3.5 7.8-7.8 7.8s-7.8-3.5-7.8-7.8c0-32.7-39.5-49.1-62.6-25.9c-3.1 3.1-8 3.1-11.1 0s-3.1-8 0-11.1c23.1-23.1 6.7-62.6-25.9-62.6c-4.3 0-7.8-3.5-7.8-7.8s3.5-7.8 7.8-7.8c32.7 0 49.1-39.5 25.9-62.6c-3.1-3.1-3.1-8 0-11.1s8-3.1 11.1 0c23.1 23.1 62.6 6.7 62.6-25.9zM240 92.7c-13.2 0-23.8 10.7-23.8 23.8c0 18.4-22.3 27.7-35.3 14.6c-9.3-9.3-24.4-9.3-33.7 0s-9.3 24.4 0 33.7c13 13 3.8 35.3-14.6 35.3c-13.2 0-23.8 10.7-23.8 23.8s10.7 23.8 23.8 23.8c18.4 0 27.7 22.3 14.6 35.3c-9.3 9.3-9.3 24.4 0 33.7s24.4 9.3 33.7 0c13-13 35.3-3.8 35.3 14.6c0 13.2 10.7 23.8 23.8 23.8s23.8-10.7 23.8-23.8c0-18.4 22.3-27.7 35.3-14.6c9.3 9.3 24.4 9.3 33.7 0s9.3-24.4 0-33.7c-13-13-3.8-35.3 14.6-35.3c13.2 0 23.8-10.7 23.8-23.8s-10.7-23.8-23.8-23.8c-18.4 0-27.7-22.3-14.6-35.3c9.3-9.3 9.3-24.4 0-33.7s-24.4-9.3-33.7 0c-13 13-35.3 3.8-35.3-14.6c0-13.2-10.7-23.8-23.8-23.8zM211.6 209.8a14.2 14.2 0 1 0 0-28.4 14.2 14.2 0 1 0 0 28.4zm71.1 42.7a14.2 14.2 0 1 0 -28.4 0 14.2 14.2 0 1 0 28.4 0z"/></svg>