<svg xmlns="http://www.w3.org/2000/svg" viewBox="0 0 512 512"><!--! Font Awesome Pro 6.3.0 by @fontawesome - https://fontawesome.com License - https://fontawesome.com/license (Commercial License) Copyright 2023 Fonticons, Inc. --><path d="M16 222.9c0-21.2 3.2-41.6 9.1-60.8L224 287.4v.6V480c0 17.7 14.3 32 32 32H399.7c28.6 0 53.7-18.9 61.5-46.4l46.3-162.2c1.4-5.1 2.5-10.2 3.3-15.4c.7-5.3 1.1-10.6 1.1-16h-.1c-1-13.5-7.2-26.1-17.4-35.2l-3.8-3.4c-16.7-14.9-29.2-33.6-40-54.4c-7-13.4-13.1-27.1-19.3-41c-3.5-7.9-7.1-15.9-10.8-23.9C389.1 46.9 317.6 0 239.7 0H222.9C99.8 0 0 99.8 0 222.9c0 52.8 16.9 101.5 47.4 139.9C57.5 375.5 64 390.2 64 405.3V504c0 4.4 3.6 8 8 8s8-3.6 8-8V405.3c0-19.8-8.5-37.8-20.1-52.4C31.8 317.5 16 272.3 16 222.9zM229.6 272L30.5 146.6C60.9 70.1 135.6 16 222.9 16h16.8c71.6 0 137.5 43.3 166.4 105c3.5 7.4 6.9 15.1 10.4 22.9c6.4 14.3 12.9 28.9 20.1 42.7c11.3 21.6 24.8 42.2 43.5 58.9l3.8 3.4c6.8 6 11 14.3 11.9 23.2H240 229.6zM240 480V288H494.7c-.6 3.7-1.4 7.4-2.5 11l-15.1 53H336c-4.4 0-8 3.6-8 8s3.6 8 8 8H472.5l-13.7 48H336c-4.4 0-8 3.6-8 8s3.6 8 8 8H454.2l-8.3 29.2C440 481.8 421.2 496 399.7 496H256c-8.8 0-16-7.2-16-16zm96-256a16 16 0 1 0 0-32 16 16 0 1 0 0 32z"/></svg>