<svg xmlns="http://www.w3.org/2000/svg" viewBox="0 0 384 512"><!--! Font Awesome Pro 6.3.0 by @fontawesome - https://fontawesome.com License - https://fontawesome.com/license (Commercial License) Copyright 2023 Fonticons, Inc. --><path d="M67.5 2.4C64.4-.8 59.3-.8 56.1 2.3S52.9 10.4 56 13.6c18.7 19.1 42 33.7 68 42.2C52.2 78 0 144.9 0 224c0 94.5 74.5 171.6 168 175.8V448H112c-4.4 0-8 3.6-8 8s3.6 8 8 8h56v40c0 4.4 3.6 8 8 8s8-3.6 8-8V464h56c4.4 0 8-3.6 8-8s-3.6-8-8-8H184V399.8c93.5-4.2 168-81.3 168-175.8c0-79.1-52.2-146-124-168.2c26-8.5 49.3-23.1 68-42.2c3.1-3.2 3-8.2-.1-11.3s-8.2-3-11.3 .1C257 30.5 218.5 48 176 48S95 30.5 67.5 2.4zM176 64a160 160 0 1 1 0 320 160 160 0 1 1 0-320z"/></svg>