<svg xmlns="http://www.w3.org/2000/svg" viewBox="0 0 320 512"><!--! Font Awesome Pro 6.3.0 by @fontawesome - https://fontawesome.com License - https://fontawesome.com/license (Commercial License) Copyright 2023 Fonticons, Inc. --><path d="M224 16V40c0 13.3-10.7 24-24 24H120c-13.3 0-24-10.7-24-24V16H64C37.5 16 16 37.5 16 64V448c0 26.5 21.5 48 48 48H256c26.5 0 48-21.5 48-48V64c0-26.5-21.5-48-48-48H224zm-16 0H112V40c0 4.4 3.6 8 8 8h80c4.4 0 8-3.6 8-8V16zM0 64C0 28.7 28.7 0 64 0H256c35.3 0 64 28.7 64 64V448c0 35.3-28.7 64-64 64H64c-35.3 0-64-28.7-64-64V64z"/></svg>