<svg xmlns="http://www.w3.org/2000/svg" viewBox="0 0 576 512"><!--! Font Awesome Pro 6.3.0 by @fontawesome - https://fontawesome.com License - https://fontawesome.com/license (Commercial License) Copyright 2023 Fonticons, Inc. --><path d="M308.9 7.5V52.7h45.2c4.2 0 7.5 3.4 7.5 7.5s-3.4 7.5-7.5 7.5H308.9v45.2c0 4.2-3.4 7.5-7.5 7.5s-7.5-3.4-7.5-7.5V67.8H248.7c-4.2 0-7.5-3.4-7.5-7.5s3.4-7.5 7.5-7.5h45.2V7.5c0-4.2 3.4-7.5 7.5-7.5s7.5 3.4 7.5 7.5zm-128.2 128c-91.4 0-165.4 74.2-165.4 165.8s74.1 165.8 165.4 165.8c44.8 0 85.5-17.9 115.3-46.9c-8.5 1.5-17.3 2.2-26.2 2.2c-84.3 0-152.7-68.5-152.7-153.1c0-57.2 31.3-107.1 77.7-133.3c-4.6-.4-9.3-.6-14-.6zM.2 301.4C.2 201.5 81 120.5 180.7 120.5c5.2 0 10.3 .2 15.3 .6c6.6 .6 12 5.3 13.4 11.8s-1.5 13.1-7.3 16.3c-41.8 23.7-70 68.7-70 120.2c0 76.3 61.7 138 137.6 138c8.1 0 16-.7 23.6-2c6.5-1.1 13 2.1 16 8s1.8 13-2.9 17.6c-32.5 31.6-76.9 51.2-125.8 51.2C81 482.2 .2 401.2 .2 301.4zM391.8 120.5c4.2 0 7.5 3.4 7.5 7.5v75.3h75.3c4.2 0 7.5 3.4 7.5 7.5s-3.4 7.5-7.5 7.5H399.3v75.3c0 4.2-3.4 7.5-7.5 7.5s-7.5-3.4-7.5-7.5V218.4H308.9c-4.2 0-7.5-3.4-7.5-7.5s3.4-7.5 7.5-7.5h75.3V128c0-4.2 3.4-7.5 7.5-7.5z"/></svg>