<svg xmlns="http://www.w3.org/2000/svg" viewBox="0 0 512 512"><!--! Font Awesome Pro 6.3.0 by @fontawesome - https://fontawesome.com License - https://fontawesome.com/license (Commercial License) Copyright 2023 Fonticons, Inc. --><path d="M111.5 82c12.8 27.2 40.4 46 72.5 46c43.6 0 79.1-35 80-78.4c-8.5-1.1-17.3-1.6-26.1-1.6H226.1c-42.3 0-81.6 12.5-114.6 34zM98.3 91.3C48.3 129.7 16 190.1 16 258.1C16 283.5 36.5 304 61.9 304H402.1c25.3 0 45.9-20.5 45.9-45.9c0-19.5-2.6-38.3-7.6-56.2C428.7 215.4 411.3 224 392 224c-35.3 0-64-28.7-64-64c0-29.3 19.6-53.9 46.5-61.6c-26.6-22.8-58.9-39-94.6-46.2C277.7 103.3 235.6 144 184 144c-37.4 0-69.9-21.4-85.7-52.7zM389 112.1c-25.1 1.6-45 22.4-45 47.9c0 26.5 21.5 48 48 48c18.2 0 34-10.1 42.2-25c-10.2-26.7-25.7-50.7-45.2-70.9zM0 258.1C0 133.2 101.2 32 226.1 32h11.8C362.8 32 464 133.2 464 258.1c0 34.2-27.7 61.9-61.9 61.9H61.9C27.7 320 0 292.3 0 258.1zm144.5 184L161.4 352h16.3l-17.4 93.1c-.9 4.7 .4 9.5 3.4 13.2s7.6 5.8 12.3 5.8H288c4.8 0 9.3-2.1 12.3-5.8s4.3-8.5 3.4-13.2L286.3 352h16.3l16.9 90.1c1.8 9.4-.7 19-6.8 26.3s-15.1 11.6-24.6 11.6H176c-9.5 0-18.5-4.2-24.6-11.6s-8.6-17-6.8-26.3zM104 256a32 32 0 1 0 0-64 32 32 0 1 0 0 64zm0-80a48 48 0 1 1 0 96 48 48 0 1 1 0-96z"/></svg>