<svg xmlns="http://www.w3.org/2000/svg" viewBox="0 0 640 512"><!--! Font Awesome Pro 6.3.0 by @fontawesome - https://fontawesome.com License - https://fontawesome.com/license (Commercial License) Copyright 2023 Fonticons, Inc. --><path d="M413.1 240.8c6.5 2.2 10.9 8.3 10.9 15.2v69.8c0 7.6 5.4 14.2 12.9 15.7l110.3 22.1c7.1 1.4 14.2-2.1 17.4-8.5l39.5-79.1c5.7-11.4 3.9-23.6-3.6-31C552.1 196.5 449.9 128 312 128S71.9 196.5 23.4 244.9c-7.5 7.4-9.3 19.7-3.6 31L59.4 355c3.2 6.5 10.4 9.9 17.4 8.5l110.3-22.1c7.5-1.5 12.9-8.1 12.9-15.7V256c0-6.9 4.4-13 10.9-15.2c65.6-21.9 136.5-21.9 202.1 0zM408 256c-62.3-20.8-129.7-20.8-192 0v69.8c0 15.3-10.8 28.4-25.7 31.4L80 379.2C65.8 382 51.5 375 45.1 362.1L5.5 283.1c-8.3-16.5-6.5-36.5 6.6-49.5C62.7 183.1 168.8 112 312 112s249.3 71.1 299.9 121.5c13.1 13 14.9 33 6.6 49.5l-39.5 79.1C572.5 375 558.2 382 544 379.2L433.7 357.1c-15-3-25.7-16.1-25.7-31.4V256z"/></svg>