<svg xmlns="http://www.w3.org/2000/svg" viewBox="0 0 640 512"><!--! Font Awesome Pro 6.3.0 by @fontawesome - https://fontawesome.com License - https://fontawesome.com/license (Commercial License) Copyright 2023 Fonticons, Inc. --><path d="M96 0c-4.4 0-8 3.6-8 8V152c0 4.4 3.6 8 8 8s8-3.6 8-8V27.3L251.7 175c16 16 37.7 25 60.3 25s44.3-9 60.3-25L509.7 37.7c3.1-3.1 3.1-8.2 0-11.3s-8.2-3.1-11.3 0L361 163.7c-13 13-30.6 20.3-49 20.3s-36-7.3-49-20.3L115.3 16H240c4.4 0 8-3.6 8-8s-3.6-8-8-8H96zM424 384c0-6.9-4.4-13-10.9-15.2c-65.6-21.9-136.5-21.9-202.1 0C204.4 371 200 377.1 200 384v69.8c0 7.6-5.4 14.2-12.9 15.7L76.8 491.5c-7.1 1.4-14.2-2.1-17.4-8.5L19.8 403.9c-5.7-11.4-3.9-23.6 3.6-31C71.9 324.5 174.1 256 312 256s240.1 68.5 288.6 116.9c7.5 7.4 9.3 19.7 3.6 31L564.6 483c-3.2 6.5-10.4 9.9-17.4 8.5L436.9 469.5c-7.5-1.5-12.9-8.1-12.9-15.7V384zm-208 0c62.3-20.8 129.7-20.8 192 0v69.8c0 15.3 10.8 28.4 25.7 31.4L544 507.2c14.2 2.8 28.4-4.2 34.9-17.1l39.5-79.1c8.3-16.5 6.5-36.5-6.6-49.5C561.3 311.1 455.2 240 312 240S62.7 311.1 12.1 361.5c-13.1 13-14.9 33-6.6 49.5l39.5 79.1C51.5 503 65.8 510 80 507.2l110.3-22.1c15-3 25.7-16.1 25.7-31.4V384z"/></svg>