<svg xmlns="http://www.w3.org/2000/svg" viewBox="0 0 640 512"><!--! Font Awesome Pro 6.3.0 by @fontawesome - https://fontawesome.com License - https://fontawesome.com/license (Commercial License) Copyright 2023 Fonticons, Inc. --><path d="M231 8c0-4.4-3.6-8-8-8s-8 3.6-8 8V108.7L164.7 58.3c-3.1-3.1-8.2-3.1-11.3 0s-3.1 8.2 0 11.3L215 131.3V242.1l-96-55.4L96.5 102.5c-1.1-4.3-5.5-6.8-9.8-5.7s-6.8 5.5-5.7 9.8l18.4 68.8L12.2 125.1c-3.8-2.2-8.7-.9-10.9 2.9s-.9 8.7 2.9 10.9l87.2 50.3L22.7 207.7c-4.3 1.1-6.8 5.5-5.7 9.8s5.5 6.8 9.8 5.7L111 200.6 207 256l-96 55.4L26.8 288.8c-4.3-1.1-8.7 1.4-9.8 5.7s1.4 8.7 5.7 9.8l68.8 18.4L4.2 373.1C.4 375.3-.9 380.2 1.3 384s7.1 5.1 10.9 2.9l87.2-50.3L81 405.4c-1.1 4.3 1.4 8.7 5.7 9.8s8.7-1.4 9.8-5.7L119 325.3l96-55.4V380.7l-61.7 61.7c-3.1 3.1-3.1 8.2 0 11.3s8.2 3.1 11.3 0L215 403.3V504c0 4.4 3.6 8 8 8s8-3.6 8-8V403.3l50.3 50.3c3.1 3.1 8.2 3.1 11.3 0s3.1-8.2 0-11.3L231 380.7V269.9l96 55.4 22.6 84.2c1.1 4.3 5.5 6.8 9.8 5.7s6.8-5.5 5.7-9.8l-18.4-68.8 87.2 50.3c3.8 2.2 8.7 .9 10.9-2.9s.9-8.7-2.9-10.9l-87.2-50.3 68.8-18.4c4.3-1.1 6.8-5.5 5.7-9.8s-5.5-6.8-9.8-5.7L335 311.4 239 256l96-55.4 84.2 22.6c4.3 1.1 8.7-1.4 9.8-5.7s-1.4-8.7-5.7-9.8l-68.8-18.4 87.2-50.3c3.8-2.2 5.1-7.1 2.9-10.9s-7.1-5.1-10.9-2.9l-87.2 50.3L365 106.6c1.1-4.3-1.4-8.7-5.7-9.8s-8.7 1.4-9.8 5.7L327 186.7l-96 55.4V131.3l61.7-61.7c3.1-3.1 3.1-8.2 0-11.3s-8.2-3.1-11.3 0L231 108.7V8zm258.3 2.3c-3.1 3.1-3.1 8.2 0 11.3L531.7 64l-42.3 42.3c-3.1 3.1-3.1 8.2 0 11.3s8.2 3.1 11.3 0L543 75.3l42.3 42.3c3.1 3.1 8.2 3.1 11.3 0s3.1-8.2 0-11.3L554.3 64l42.3-42.3c3.1-3.1 3.1-8.2 0-11.3s-8.2-3.1-11.3 0L543 52.7 500.7 10.3c-3.1-3.1-8.2-3.1-11.3 0zm32 192c-3.1 3.1-3.1 8.2 0 11.3L563.7 256l-42.3 42.3c-3.1 3.1-3.1 8.2 0 11.3s8.2 3.1 11.3 0L575 267.3l42.3 42.3c3.1 3.1 8.2 3.1 11.3 0s3.1-8.2 0-11.3L586.3 256l42.3-42.3c3.1-3.1 3.1-8.2 0-11.3s-8.2-3.1-11.3 0L575 244.7l-42.3-42.3c-3.1-3.1-8.2-3.1-11.3 0z"/></svg>