<svg xmlns="http://www.w3.org/2000/svg" viewBox="0 0 512 512"><!--! Font Awesome Pro 6.3.0 by @fontawesome - https://fontawesome.com License - https://fontawesome.com/license (Commercial License) Copyright 2023 Fonticons, Inc. --><path d="M186 32c0-17.7 14.3-32 32-32h32c17.7 0 32 14.3 32 32V172.9l122-70.4c15.3-8.8 34.9-3.6 43.7 11.7l16 27.7c8.8 15.3 3.6 34.9-11.7 43.7L330 256l122 70.4c15.3 8.8 20.5 28.4 11.7 43.7l-16 27.7c-8.8 15.3-28.4 20.6-43.7 11.7L282 339.1V480c0 17.7-14.3 32-32 32H218c-17.7 0-32-14.3-32-32V339.1L64 409.6c-15.3 8.8-34.9 3.6-43.7-11.7l-16-27.7C-4.5 354.8 .7 335.3 16 326.4L138 256 16 185.6C.7 176.7-4.5 157.2 4.3 141.9l16-27.7C29.1 98.8 48.7 93.6 64 102.4l122 70.4V32zm32-16c-8.8 0-16 7.2-16 16V186.7c0 2.9-1.5 5.5-4 6.9s-5.5 1.4-8 0L56 116.3c-7.7-4.4-17.4-1.8-21.9 5.9l-16 27.7c-4.4 7.7-1.8 17.4 5.9 21.9l134 77.4c2.5 1.4 4 4.1 4 6.9s-1.5 5.5-4 6.9L24 340.3c-7.7 4.4-10.3 14.2-5.9 21.9l16 27.7c4.4 7.7 14.2 10.3 21.9 5.9l134-77.4c2.5-1.4 5.5-1.4 8 0s4 4.1 4 6.9V480c0 8.8 7.2 16 16 16h32c8.8 0 16-7.2 16-16V325.3c0-2.9 1.5-5.5 4-6.9s5.5-1.4 8 0l134 77.4c7.7 4.4 17.4 1.8 21.9-5.9l16-27.7c4.4-7.7 1.8-17.4-5.9-21.9L310 262.9c-2.5-1.4-4-4.1-4-6.9s1.5-5.5 4-6.9l134-77.4c7.7-4.4 10.3-14.2 5.9-21.9l-16-27.7c-4.4-7.7-14.2-10.3-21.9-5.9L278 193.6c-2.5 1.4-5.5 1.4-8 0s-4-4.1-4-6.9V32c0-8.8-7.2-16-16-16H218z"/></svg>