<svg xmlns="http://www.w3.org/2000/svg" viewBox="0 0 576 512"><!--! Font Awesome Pro 6.3.0 by @fontawesome - https://fontawesome.com License - https://fontawesome.com/license (Commercial License) Copyright 2023 Fonticons, Inc. --><path d="M352 0c4.4 0 8 3.6 8 8V72h64c4.4 0 8 3.6 8 8s-3.6 8-8 8H360v64c0 4.4-3.6 8-8 8s-8-3.6-8-8V88H280c-4.4 0-8-3.6-8-8s3.6-8 8-8h64V8c0-4.4 3.6-8 8-8zM146.4 258.5c-2.3 4.7-6.8 8-12 8.8L30.9 282.3c-6.6 1-9.2 9-4.4 13.6l74.9 73.2c3.8 3.7 5.5 9 4.6 14.1L88.3 486.6c-1.1 6.5 5.7 11.5 11.6 8.4l92.6-48.8c4.7-2.5 10.2-2.5 14.9 0L299.9 495c5.9 3.1 12.7-1.9 11.6-8.4L293.9 383.3c-.9-5.2 .8-10.5 4.6-14.1l74.9-73.2c4.7-4.6 2.1-12.7-4.4-13.6L265.4 267.2c-5.2-.8-9.7-4-12-8.8l-46.3-94c-2.9-6-11.4-6-14.4 0l-46.3 94zM15.2 307.4C1 293.5 8.9 269.3 28.5 266.5l103.5-15.1 46.3-94c8.8-17.9 34.3-17.9 43.1 0l46.3 94 103.5 15.1c19.7 2.9 27.5 27 13.3 40.9l-74.9 73.2 17.7 103.3c3.4 19.6-17.2 34.6-34.8 25.3l-92.6-48.8-92.6 48.8c-17.6 9.3-38.2-5.7-34.8-25.3L90.2 380.6 15.2 307.4zM472 160v48h48c4.4 0 8 3.6 8 8s-3.6 8-8 8H472v48c0 4.4-3.6 8-8 8s-8-3.6-8-8V224H408c-4.4 0-8-3.6-8-8s3.6-8 8-8h48V160c0-4.4 3.6-8 8-8s8 3.6 8 8z"/></svg>