<svg xmlns="http://www.w3.org/2000/svg" viewBox="0 0 640 512"><!--! Font Awesome Pro 6.3.0 by @fontawesome - https://fontawesome.com License - https://fontawesome.com/license (Commercial License) Copyright 2023 Fonticons, Inc. --><path d="M440.1 21.9L350.9 73.4c-7.7 4.4-10.3 14.2-5.9 21.9l96 166.3c4.4 7.7 14.2 10.3 21.9 5.9l89.2-51.5c7.7-4.4 10.3-14.2 5.9-21.9L462 27.7c-4.4-7.7-14.2-10.3-21.9-5.9zM337.2 113.6L72.2 281.9c-7.2 4.6-9.6 14.1-5.3 21.5l54.5 94.5c4.3 7.5 13.8 10.2 21.5 6.1l97.5-52.7C230.7 338 225 321.7 225 304c0-44.2 35.8-80 80-80s80 35.8 80 80c0 24.9-11.4 47.1-29.2 61.8l60.5 134.9c1.8 4 0 8.8-4 10.6s-8.8 0-10.6-4L342.3 374.8c-11.1 5.9-23.8 9.2-37.3 9.2s-26.2-3.3-37.3-9.2L208.3 507.3c-1.8 4-6.5 5.8-10.6 4s-5.8-6.5-4-10.6l60.5-134.9c-.9-.8-1.8-1.5-2.7-2.4L150.5 418c-15.2 8.2-34.3 2.9-42.9-12.1L53 311.4c-8.6-14.9-3.9-33.8 10.6-43L329.4 99.6c-6.2-14.6-.6-31.9 13.5-40.1L432.1 8C447.4-.8 467 4.4 475.8 19.7l96 166.3c8.8 15.3 3.6 34.9-11.7 43.7l-89.2 51.5c-15.3 8.8-34.9 3.6-43.7-11.7l-.5-.8-42.6 23.1c-.9-5.5-2.3-10.8-4.2-15.9l38.8-21L337.2 113.6zM305 368a64 64 0 1 0 0-128 64 64 0 1 0 0 128zM56.9 318.2l8 13.9L20.8 357.5c-3.8 2.2-5.1 7.1-2.9 10.9l25.9 44.9c2.2 3.8 7.1 5.1 10.9 2.9l44.1-25.5 8 13.9L62.7 430.1c-11.5 6.6-26.2 2.7-32.8-8.8L4.1 376.4c-6.6-11.5-2.7-26.2 8.8-32.8l44.1-25.5z"/></svg>