<svg xmlns="http://www.w3.org/2000/svg" viewBox="0 0 448 512"><!--! Font Awesome Pro 6.3.0 by @fontawesome - https://fontawesome.com License - https://fontawesome.com/license (Commercial License) Copyright 2023 Fonticons, Inc. --><path d="M384 16a48 48 0 1 1 0 96 48 48 0 1 1 0-96zm0 112A64 64 0 1 0 384 0a64 64 0 1 0 0 128zM80 80c0-35.3 28.7-64 64-64s64 28.7 64 64V243.8c0 8.4 4.4 15.7 10.7 20.3C251 287.3 272 325.2 272 368c0 70.7-57.3 128-128 128S16 438.7 16 368c0-42.8 21-80.7 53.3-104c6.3-4.6 10.7-11.9 10.7-20.3V80zM144 0C99.8 0 64 35.8 64 80V243.8c0 2.7-1.4 5.4-4 7.3C23.7 277.2 0 319.8 0 368c0 79.5 64.5 144 144 144s144-64.5 144-144c0-48.2-23.7-90.8-60-117c-2.6-1.9-4-4.6-4-7.3V80c0-44.2-35.8-80-80-80zM96 368a48 48 0 1 1 96 0 48 48 0 1 1 -96 0zm112 0c0-32.6-24.4-59.6-56-63.5V72c0-4.4-3.6-8-8-8s-8 3.6-8 8V304.5c-31.6 3.9-56 30.9-56 63.5c0 35.3 28.7 64 64 64s64-28.7 64-64z"/></svg>