<svg xmlns="http://www.w3.org/2000/svg" viewBox="0 0 512 512"><!--! Font Awesome Pro 6.3.0 by @fontawesome - https://fontawesome.com License - https://fontawesome.com/license (Commercial License) Copyright 2023 Fonticons, Inc. --><path d="M120 16c4.4 0 8-3.6 8-8s-3.6-8-8-8H8C3.6 0 0 3.6 0 8V120c0 4.4 3.6 8 8 8s8-3.6 8-8V27.3L76.7 88 58.3 106.3c-3.1 3.1-3.1 8.2 0 11.3s8.2 3.1 11.3 0L88 99.3l26 26C92.7 152.5 80 186.8 80 224c0 85.7 67.4 155.6 152 159.8V432H184c-4.4 0-8 3.6-8 8s3.6 8 8 8h48v56c0 4.4 3.6 8 8 8s8-3.6 8-8V448h48c4.4 0 8-3.6 8-8s-3.6-8-8-8H248V383.8c84.6-4.2 152-74.1 152-159.8c0-37.2-12.7-71.5-34-98.7l98-98V120c0 4.4 3.6 8 8 8s8-3.6 8-8V8c0-4.4-3.6-8-8-8H360c-4.4 0-8 3.6-8 8s3.6 8 8 8h92.7l-97.2 97.2C326.3 82.9 285.4 64 240 64s-86.3 18.9-115.5 49.2L99.3 88l18.3-18.3c3.1-3.1 3.1-8.2 0-11.3s-8.2-3.1-11.3 0L88 76.7 27.3 16H120zM240 80a144 144 0 1 1 0 288 144 144 0 1 1 0-288z"/></svg>