<svg xmlns="http://www.w3.org/2000/svg" viewBox="0 0 512 512"><!--! Font Awesome Pro 6.3.0 by @fontawesome - https://fontawesome.com License - https://fontawesome.com/license (Commercial License) Copyright 2023 Fonticons, Inc. --><path d="M263 8c0-4.4-3.6-8-8-8s-8 3.6-8 8V32.1C120.1 36 16.4 132.3 1 256.1C-1.2 273.6 13.3 288 31 288H479c17.7 0 32.2-14.4 30-31.9C493.6 132.3 389.9 36 263 32.1V8zm0 454.2V320H247V462.2c0 18.7-15.2 33.8-33.8 33.8c-14.6 0-27.5-9.3-32.1-23.1l-6.5-19.4c-1.4-4.2-5.9-6.5-10.1-5.1s-6.5 5.9-5.1 10.1l6.5 19.4c6.8 20.4 25.8 34.1 47.3 34.1c27.5 0 49.8-22.3 49.8-49.8zM16.9 258C31.6 139.6 132.6 48 255 48s223.4 91.6 238.2 210c.8 6.7-4.7 14-14.2 14H31c-9.4 0-15-7.3-14.1-14z"/></svg>