<svg xmlns="http://www.w3.org/2000/svg" viewBox="0 0 384 512"><!--! Font Awesome Pro 6.3.0 by @fontawesome - https://fontawesome.com License - https://fontawesome.com/license (Commercial License) Copyright 2023 Fonticons, Inc. --><path d="M16 176a160 160 0 1 1 320 0A160 160 0 1 1 16 176zM184 351.8c93.5-4.2 168-81.3 168-175.8C352 78.8 273.2 0 176 0S0 78.8 0 176c0 94.5 74.5 171.6 168 175.8V416H88c-4.4 0-8 3.6-8 8s3.6 8 8 8h80v72c0 4.4 3.6 8 8 8s8-3.6 8-8V432h80c4.4 0 8-3.6 8-8s-3.6-8-8-8H184V351.8z"/></svg>