<svg xmlns="http://www.w3.org/2000/svg" viewBox="0 0 640 512"><!--! Font Awesome Pro 6.3.0 by @fontawesome - https://fontawesome.com License - https://fontawesome.com/license (Commercial License) Copyright 2023 Fonticons, Inc. --><path d="M176 336a160 160 0 1 0 0-320 160 160 0 1 0 0 320zM352 176c0 94.5-74.5 171.6-168 175.8V416h80c4.4 0 8 3.6 8 8s-3.6 8-8 8H184v72c0 4.4-3.6 8-8 8s-8-3.6-8-8V432H88c-4.4 0-8-3.6-8-8s3.6-8 8-8h80V351.8C74.5 347.6 0 270.5 0 176C0 78.8 78.8 0 176 0s176 78.8 176 176zM338.5 305.9c26.3 19 58.6 30.1 93.5 30.1c88.4 0 160-71.6 160-160s-71.6-160-160-160c-34.9 0-67.2 11.2-93.5 30.1C335.2 42 331.6 37.9 328 34C357.1 12.6 393.1 0 432 0c97.2 0 176 78.8 176 176c0 94.5-74.5 171.6-168 175.8V416h80c4.4 0 8 3.6 8 8s-3.6 8-8 8H440v72c0 4.4-3.6 8-8 8s-8-3.6-8-8V432H344c-4.4 0-8-3.6-8-8s3.6-8 8-8h80V351.8c-35.8-1.6-68.9-13.9-96-33.8c3.7-3.9 7.2-8 10.5-12.1z"/></svg>