<svg xmlns="http://www.w3.org/2000/svg" viewBox="0 0 512 512"><!--! Font Awesome Pro 6.3.0 by @fontawesome - https://fontawesome.com License - https://fontawesome.com/license (Commercial License) Copyright 2023 Fonticons, Inc. --><path d="M29 16c0 8.8 7.2 16 16 16H461c8.8 0 16-7.2 16-16s-7.2-16-16-16H45C36.2 0 29 7.2 29 16zM13 80c0 8.8 7.2 16 16 16H477c8.8 0 16-7.2 16-16s-7.2-16-16-16H29c-8.8 0-16 7.2-16 16zm43.8 48C23.9 128-1.9 156.3 1 189.1l24.7 272C28.4 489.9 52.6 512 81.5 512H424.5c29 0 53.1-22.1 55.8-50.9l24.7-272c3-32.8-22.8-61.1-55.8-61.1H56.8zM32.9 186.2C31.6 172.1 42.7 160 56.8 160H449.2c14.1 0 25.2 12.1 23.9 26.2l-24.7 272c-1.1 12.4-11.5 21.8-23.9 21.8H81.5c-12.4 0-22.8-9.5-23.9-21.8l-24.7-272zM253 416c-77.7 0-128-49.3-128-96s50.3-96 128-96s128 49.3 128 96s-50.3 96-128 96zm0 32c88.4 0 160-57.3 160-128s-71.6-128-160-128s-160 57.3-160 128s71.6 128 160 128zm0-104c13.3 0 24-9 24-20s-10.7-20-24-20s-24 9-24 20s10.7 20 24 20z"/></svg>