<svg xmlns="http://www.w3.org/2000/svg" viewBox="0 0 512 512"><!--! Font Awesome Pro 6.3.0 by @fontawesome - https://fontawesome.com License - https://fontawesome.com/license (Commercial License) Copyright 2023 Fonticons, Inc. --><path d="M429 221.8C412.9 132.1 334.4 64 240 64S67.1 132.1 51 221.8l0 .1c0 .1 .1 .2 .3 .3c.7 .8 2.4 1.7 4.7 1.7H424c2.4 0 4-1 4.7-1.7c.1-.1 .2-.2 .3-.3l0-.1zM56 256c-22.1 0-40.4-18.1-36.5-39.8C38.3 111.5 129.9 32 240 32s201.7 79.5 220.5 184.2c3.9 21.7-14.4 39.8-36.5 39.8H400 208 56zm358.5 96H432c17.7 0 32 14.3 32 32c0 53-43 96-96 96H112c-53 0-96-43-96-96c0-17.7 14.3-32 32-32H193.5l48 32H48c0 35.3 28.7 64 64 64H368c35.3 0 64-28.7 64-64H366.5l48-32zM144 128a16 16 0 1 1 0 32 16 16 0 1 1 0-32zm80-16a16 16 0 1 1 32 0 16 16 0 1 1 -32 0zm112 16a16 16 0 1 1 0 32 16 16 0 1 1 0-32zM16 288H208c3.2 0 6.2 .9 8.9 2.7L304 348.8l87.1-58.1c2.6-1.8 5.7-2.7 8.9-2.7h64c8.8 0 16 7.2 16 16s-7.2 16-16 16H404.8l-92 61.3c-5.4 3.6-12.4 3.6-17.8 0l-92-61.3H16c-8.8 0-16-7.2-16-16s7.2-16 16-16z"/></svg>