<svg xmlns="http://www.w3.org/2000/svg" viewBox="0 0 576 512"><!--! Font Awesome Pro 6.3.0 by @fontawesome - https://fontawesome.com License - https://fontawesome.com/license (Commercial License) Copyright 2023 Fonticons, Inc. --><path d="M416 288c-70.7 0-128-57.3-128-128c0-32.5 12.1-62.1 32-84.7V160c0 53 43 96 96 96s96-43 96-96V75.3c19.9 22.6 32 52.2 32 84.7c0 70.7-57.3 128-128 128zM381.6 80L346.9 52.2C366.8 39.4 390.6 32 416 32s49.2 7.4 69.1 20.2L450.4 80H381.6zM480 306.7c56.5-24.7 96-81.1 96-146.7C576 71.6 504.4 0 416 0S256 71.6 256 160c0 4.6 .2 9.1 .6 13.6C186.8 192.1 129.5 238.4 96 299.2V176.5c0-40.3-30-74.4-70.1-79.4l-7.9-1C9.2 95 1.2 101.2 .1 110S5.2 126.8 14 127.9l7.9 1c24 3 42 23.4 42 47.6V424v8c0 44.2 35.8 80 80 80h0H272l42.7 0c20.6 0 37.3-16.7 37.3-37.3c0-25.8-16.7-47.7-39.8-55.6L384 379.2V464c0 26.5 21.5 48 48 48s48-21.5 48-48V306.7zm-32 10.1V464c0 8.8-7.2 16-16 16s-16-7.2-16-16V352c0-5.7-3-10.9-7.9-13.8s-10.9-3-15.9-.2L272 404.8V392c0-39.8-32.2-72-72-72h-8c-8.8 0-16 7.2-16 16s7.2 16 16 16h8c22.1 0 40 17.9 40 40v40 0c0 8.8 7.2 16 16 16h37.3c14.7 0 26.7 11.9 26.7 26.7c0 2.9-2.4 5.3-5.3 5.3H272l0 0H144c-26.5 0-48-21.5-48-48v-8c0-103.1 69.2-192 166.5-218.8C282 271.5 343.3 320 416 320c11 0 21.7-1.1 32-3.2zM208 16c0-8.8-7.2-16-16-16s-16 7.2-16 16V48H144c-8.8 0-16 7.2-16 16s7.2 16 16 16h32v32c0 8.8 7.2 16 16 16s16-7.2 16-16V80h32c8.8 0 16-7.2 16-16s-7.2-16-16-16H208V16zM352 97.3l14 11.2c2.8 2.3 6.4 3.5 10 3.5h80c3.6 0 7.2-1.2 10-3.5l14-11.2V160c0 35.3-28.7 64-64 64s-64-28.7-64-64V97.3zM384 168a16 16 0 1 0 0-32 16 16 0 1 0 0 32zm80-16a16 16 0 1 0 -32 0 16 16 0 1 0 32 0z"/></svg>