<svg xmlns="http://www.w3.org/2000/svg" viewBox="0 0 512 512"><!--! Font Awesome Pro 6.3.0 by @fontawesome - https://fontawesome.com License - https://fontawesome.com/license (Commercial License) Copyright 2023 Fonticons, Inc. --><path d="M320 33V144c0 44.2 35.8 80 80 80s80-35.8 80-80V33c0-.5-.4-1-1-1c-.3 0-.5 .1-.7 .3L440 70.6c-6 6-14.1 9.4-22.6 9.4H382.6c-8.5 0-16.6-3.4-22.6-9.4L321.7 32.3c-.2-.2-.4-.3-.7-.3c-.5 0-1 .4-1 1zm1-33c8.7 0 17.1 3.5 23.3 9.7L382.6 48h34.7L455.7 9.7C461.9 3.5 470.3 0 479 0c18.2 0 33 14.8 33 33V144c0 61.9-50.1 112-112 112s-112-50.1-112-112V33c0-18.2 14.8-33 33-33zM96 299.2c33.8-61.5 92.1-108.2 162.9-126.2c2.2 10.6 5.5 20.9 9.9 30.5C168.2 228.2 96 318.7 96 424v8c0 26.5 21.5 48 48 48H272l0 0h42.6c2.9 0 5.3-2.4 5.3-5.3c0-14.7-11.9-26.7-26.7-26.7H256c-8.8 0-16-7.2-16-16v0V392c0-22.1-17.9-40-40-40h-8c-8.8 0-16-7.2-16-16s7.2-16 16-16h8c39.8 0 72 32.2 72 72v4.4L389.4 292c3-2.6 6.7-4 10.5-4l.1 0 .1 0c2.2 0 4.4 .5 6.4 1.4c5.7 2.6 9.4 8.3 9.4 14.6V464c0 8.8 7.2 16 16 16s16-7.2 16-16V279.8c11.4-4 22.1-9.4 32-16.1V464c0 26.5-21.5 48-48 48s-48-21.5-48-48V339.6l-86.1 76.5c30.3 2.3 54.1 27.6 54.1 58.5c0 20.6-16.7 37.3-37.3 37.3L272 512H144l-.1 0C99.8 511.9 64 476.1 64 432v-8V176.5c0-24.2-18-44.6-42-47.6l-7.9-1C5.2 126.8-1 118.8 .1 110S9.2 95 18 96.1l7.9 1c40 5 70.1 39 70.1 79.4V299.2zM352 128a16 16 0 1 1 32 0 16 16 0 1 1 -32 0zm80-16a16 16 0 1 1 0 32 16 16 0 1 1 0-32z"/></svg>