<svg xmlns="http://www.w3.org/2000/svg" viewBox="0 0 448 512"><!--! Font Awesome Pro 6.3.0 by @fontawesome - https://fontawesome.com License - https://fontawesome.com/license (Commercial License) Copyright 2023 Fonticons, Inc. --><path d="M80 35.8c0-2.1 1.7-3.8 3.8-3.8H214.6C299.3 32 368 100.7 368 185.4c0 8.8-.8 17.6-2.3 26.3L341.3 352h32.5l23.5-134.9c1.8-10.5 2.7-21.1 2.7-31.8C400 83 317 0 214.6 0H83.8C64 0 48 16 48 35.8c0 13.6 7.7 25.9 19.8 32l1.3 .6c-13.5 14.7-21.1 33.9-21.1 54l-.3 104.4c-.1 23.2 11.1 45 30 58.5l1.9 1.4c4.5 3.2 9.3 5.8 14.3 7.8l-6.9 5c-17.8 13-30.4 31.6-35.8 52.5H84.8c4.4-10.5 11.5-19.7 21-26.6l53.8-39.1 89.9-65.4c7.1-5.2 8.7-15.2 3.5-22.4s-15.2-8.7-22.4-3.5l-89.9 65.4c-12.7 9.2-29.8 9.3-42.6 .2l-1.9-1.4c-10.4-7.5-16.6-19.5-16.6-32.4l.3-104.4C80 109.8 85 97.6 94 88.6l13.3-13.3c3.6-3.6 5.3-8.8 4.5-13.9s-4-9.4-8.6-11.7L82.1 39.2c-1.3-.6-2.1-1.9-2.1-3.4zM350.2 416l32.7 52.7c.7 1.2 1.1 2.5 1.1 3.9c0 4.1-3.3 7.4-7.4 7.4H39.4c-4.1 0-7.4-3.3-7.4-7.4c0-1.4 .4-2.7 1.1-3.9L65.8 416l284.4 0zM65.8 384c-11.1 0-21.4 5.7-27.2 15.1L5.9 451.8C2.1 458 0 465.2 0 472.6C0 494.3 17.7 512 39.4 512H376.6c21.8 0 39.4-17.7 39.4-39.4c0-7.3-2.1-14.5-5.9-20.8l-32.7-52.7c-5.8-9.4-16.1-15.1-27.2-15.1H65.8zM132 168a20 20 0 1 0 0-40 20 20 0 1 0 0 40z"/></svg>