<svg xmlns="http://www.w3.org/2000/svg" viewBox="0 0 384 512"><!--! Font Awesome Pro 6.3.0 by @fontawesome - https://fontawesome.com License - https://fontawesome.com/license (Commercial License) Copyright 2023 Fonticons, Inc. --><path d="M32 32C14.3 32 0 46.3 0 64V185.3c0 14 6.1 27.3 16.8 36.4L55.6 255l-5.1 97h32L88 248.8c.3-5-1.8-9.8-5.6-13L37.6 197.4c-3.5-3-5.6-7.5-5.6-12.1V64h80v40c0 8.8 7.2 16 16 16s16-7.2 16-16V64h96v40c0 8.8 7.2 16 16 16s16-7.2 16-16V64h80V185.3c0 4.7-2 9.1-5.6 12.1l-44.8 38.4c-3.8 3.2-5.8 8-5.6 13L301.5 352h32l-5.1-97 38.8-33.3c10.6-9.1 16.8-22.4 16.8-36.4V64c0-17.7-14.3-32-32-32H32zM192 160c-26.5 0-48 21.5-48 48v64c0 8.8 7.2 16 16 16h64c8.8 0 16-7.2 16-16V208c0-26.5-21.5-48-48-48zm-16 48c0-8.8 7.2-16 16-16s16 7.2 16 16v48H176V208zM65.8 416l252.4 0 32.7 52.7c.7 1.2 1.1 2.5 1.1 3.9c0 4.1-3.3 7.4-7.4 7.4H39.4c-4.1 0-7.4-3.3-7.4-7.4c0-1.4 .4-2.7 1.1-3.9L65.8 416zm252.4-32H65.8c-11.1 0-21.4 5.7-27.2 15.1L5.9 451.8C2.1 458 0 465.2 0 472.6C0 494.3 17.7 512 39.4 512H344.6c21.8 0 39.4-17.7 39.4-39.4c0-7.3-2.1-14.5-5.9-20.8l-32.7-52.7c-5.8-9.4-16.1-15.1-27.2-15.1z"/></svg>