<svg xmlns="http://www.w3.org/2000/svg" viewBox="0 0 640 512"><!--! Font Awesome Pro 6.3.0 by @fontawesome - https://fontawesome.com License - https://fontawesome.com/license (Commercial License) Copyright 2023 Fonticons, Inc. --><path d="M336.6 103.1c10.1-31 34.4-55.8 65.3-66.8c-16.1 21.1-25.7 47.5-25.7 76.1c0 59.5 41.5 109.3 97.2 122.7c-10 3.5-20.6 5.5-31.7 5.8c4.4 9.2 7.4 19.2 9 29.6c32-2.9 60.9-16.7 82.7-37.7c4.8-4.6 6-11.7 3-17.6s-9.5-9.2-16-8.1c-5.4 .9-11 1.4-16.7 1.4c-53.9 0-97.3-43.2-97.3-96.2c0-35.8 19.8-67.2 49.4-83.8c5.8-3.2 8.8-9.9 7.4-16.3S456.2 1 449.6 .5C445.8 .2 442 0 438.1 0C377.7 0 326.4 38.8 308.3 92.7c10 2.1 19.5 5.7 28.3 10.5zM83.5 393.9c-7.1-4.4-16.3-2.3-20.8 4.8L25.1 458.9c-4.4 7.1-2.3 16.3 4.8 20.8s16.3 2.3 20.8-4.8l37.6-60.2c4.4-7.1 2.3-16.3-4.8-20.8zm90.3 0c-7.1-4.4-16.3-2.3-20.8 4.8l-37.6 60.2c-4.4 7.1-2.3 16.3 4.8 20.8s16.3 2.3 20.8-4.8l37.6-60.2c4.4-7.1 2.3-16.3-4.8-20.8zm90.3 0c-7.1-4.4-16.3-2.3-20.8 4.8l-37.6 60.2c-4.4 7.1-2.3 16.3 4.8 20.8s16.3 2.3 20.8-4.8l37.6-60.2c4.4-7.1 2.3-16.3-4.8-20.8zm90.3 0c-7.1-4.4-16.3-2.3-20.8 4.8l-37.6 60.2c-4.4 7.1-2.3 16.3 4.8 20.8s16.3 2.3 20.8-4.8l37.6-60.2c4.4-7.1 2.3-16.3-4.8-20.8zm-249-213.2c0-33.3 27-60.2 60.2-60.2c27.4 0 50.5 18.3 57.8 43.3c1.6 5.5 6.1 9.6 11.7 10.6s11.3-1.2 14.7-5.8c8.3-11 21.4-18 36.1-18c24.9 0 45.2 20.2 45.2 45.2c0 8.2-2.2 15.9-6 22.6c-2.7 4.7-2.7 10.4 0 15.1s7.7 7.5 13 7.5l7.8 0 0 0 .2 0c25 0 45.2 20.2 45.2 45.2s-20.2 45.2-45.2 45.2c-.6 0-1.1 0-1.7 0l-.3 0-.2 0H93.2c-.1 0-.3 0-.4 0c-.1 0-.1 0-.2 0c-.7 0-1.5 0-2.2 0c-33.3 0-60.2-27-60.2-60.2s27-60.2 60.2-60.2c.4 0 .8 0 1.2 0c4.6 .1 8.9-1.9 11.9-5.4s4.1-8.2 3.2-12.6c-.8-3.9-1.2-7.9-1.2-12.1zm60.2-90.3c-49.9 0-90.4 40.4-90.4 90.3l0 1.2C32.7 189.1 .1 226.3 .1 271c0 49.9 40.5 90.3 90.4 90.3c1 0 2 0 3 0H343.9c.8 0 1.7 0 2.5 0c41.6 0 75.3-33.7 75.3-75.3c0-37-26.7-67.8-62-74.1c1.1-5.2 1.8-10.7 1.8-16.2c0-41.6-33.7-75.3-75.3-75.3c-16 0-30.9 5-43.1 13.5c-15.8-26.2-44.5-43.6-77.4-43.6z"/></svg>