<svg xmlns="http://www.w3.org/2000/svg" viewBox="0 0 576 512"><!--! Font Awesome Pro 6.3.0 by @fontawesome - https://fontawesome.com License - https://fontawesome.com/license (Commercial License) Copyright 2023 Fonticons, Inc. --><path d="M301.4 60.2c0-24.8-28.3-39-48.2-24.1L76.5 168.7c-48.1 36-76.3 93-76.3 153C.2 426.2 84.9 512 189.7 512c60.8 0 118-29.2 153.6-78.5L469.6 258.6c14.4-19.9 .2-47.8-24.4-47.8H420.6L479.3 77.4c1.9-4.3 2.9-8.9 2.9-13.6c0-18.6-15.1-33.7-33.7-33.7c-4.7 0-9.3 1-13.6 2.9L301.4 91.7V60.2zm145.5 .3c.5-.2 1-.3 1.5-.3c2 0 3.6 1.6 3.6 3.6c0 .5-.1 1-.3 1.5l-68 154.5c-2 4.7-1.6 10 1.2 14.3s7.5 6.8 12.6 6.8h47.6L318.8 415.8c-30 41.5-78 66-129.2 66c-87.9 0-159.3-72.1-159.3-160.2c0-50.6 23.8-98.6 64.3-128.9L271.3 60.2v54.5c0 5.1 2.6 9.8 6.8 12.6s9.6 3.2 14.3 1.2l154.5-68zM159.4 297.2c9.8-1.4 18.3-7.6 22.7-16.5l14-28.3 14 28.3c4.4 8.9 12.9 15.1 22.7 16.5l31.2 4.5-22.6 22c-7.1 6.9-10.3 16.9-8.7 26.7l5.3 31.1L210 366.8c-8.8-4.6-19.3-4.6-28 0L154 381.5l5.3-31.1c1.7-9.8-1.6-19.7-8.7-26.7l-22.6-22 31.2-4.5zm50.2-85.5c-2.5-5.1-7.8-8.4-13.5-8.4s-11 3.3-13.5 8.4L155 267.4l-61.4 8.9c-5.7 .8-10.4 4.8-12.2 10.2s-.3 11.4 3.8 15.4l44.5 43.3-10.5 61.2c-1 5.7 1.4 11.4 6 14.7s10.8 3.8 15.9 1.1l55-28.9 55 28.9c5.1 2.7 11.2 2.2 15.9-1.1s7-9.1 6-14.7l-10.5-61.2L306.8 302c4.1-4 5.6-10 3.8-15.4s-6.5-9.4-12.2-10.2L237 267.4l-27.5-55.7z"/></svg>