<svg xmlns="http://www.w3.org/2000/svg" viewBox="0 0 384 512"><!--! Font Awesome Pro 6.3.0 by @fontawesome - https://fontawesome.com License - https://fontawesome.com/license (Commercial License) Copyright 2023 Fonticons, Inc. --><path d="M368 0c8.8 0 16 7.2 16 16c0 120.2-94.2 188.6-179.7 250.9l-2.8 2.1c-37.8 27.5-73.9 54-102.9 83.1h187c-19.8-19.8-42.9-38.4-67.5-57c3.2-2.3 6.4-4.6 9.7-6.9c5.9-4.2 11.7-8.4 17.6-12.7C317.4 330.4 384 394.9 384 496c0 8.8-7.2 16-16 16s-16-7.2-16-16c0-5.5-.2-10.8-.7-16H32.7c-.4 5.2-.7 10.5-.7 16c0 8.8-7.2 16-16 16s-16-7.2-16-16C0 382.8 83.6 315.5 164.8 256C83.6 196.5 0 129.2 0 16C0 7.2 7.2 0 16 0s16 7.2 16 16c0 5.5 .2 10.8 .7 16H351.3c.4-5.2 .7-10.5 .7-16c0-8.8 7.2-16 16-16zM345.6 64H38.4c6.5 23.4 17.6 44.5 32.2 64H313.5c14.6-19.5 25.7-40.6 32.2-64zm-60.1 96H98.5c26.6 26.7 59.1 51.1 93.5 76.2c34.4-25.1 66.9-49.5 93.5-76.2zM38.4 448H345.6c-6.5-23.5-17.6-44.5-32.2-64.1c-.5 0-.9 .1-1.4 .1H72c-.5 0-.9 0-1.4-.1C56 403.5 44.8 424.5 38.4 448z"/></svg>