<svg xmlns="http://www.w3.org/2000/svg" viewBox="0 0 512 512"><!--! Font Awesome Pro 6.3.0 by @fontawesome - https://fontawesome.com License - https://fontawesome.com/license (Commercial License) Copyright 2023 Fonticons, Inc. --><path d="M445 256c18.2 0 33-14.8 33-33c0-8.7-3.5-17.1-9.7-23.3L440.6 172l55.7-55.7c15.6-15.6 15.6-40.9 0-56.6L450.3 13.7C434.7-2 409.3-2 393.7 13.7L338 69.4 310.3 41.7C304.1 35.5 295.7 32 287 32c-18.2 0-33 14.8-33 33l0 159c0 17.7 14.3 32 32 32l159 0zm.7-33.7c.2 .2 .3 .4 .3 .7c0 .5-.4 1-1 1l-159 0 0-159c0-.5 .4-1 1-1c.3 0 .5 .1 .7 .3l39 39c6.2 6.2 16.4 6.2 22.6 0l67-67c3.1-3.1 8.2-3.1 11.3 0l46.1 46.1c3.1 3.1 3.1 8.2 0 11.3l-67 67c-3 3-4.7 7.1-4.7 11.3s1.7 8.3 4.7 11.3l39 39zM63 256c-18.2 0-33 14.8-33 33c0 8.7 3.5 17.1 9.7 23.3L67.4 340 11.7 395.7C-4 411.3-4 436.7 11.7 452.3l46.1 46.1c15.6 15.6 40.9 15.6 56.6 0L170 442.6l27.7 27.7c6.2 6.2 14.6 9.7 23.3 9.7c18.2 0 33-14.8 33-33V288c0-17.7-14.3-32-32-32H63zm-1 33c0-.5 .4-1 1-1H222V447c0 .5-.4 1-1 1c-.3 0-.5-.1-.7-.3l-39-39c-6.2-6.2-16.4-6.2-22.6 0l-67 67c-3.1 3.1-8.2 3.1-11.3 0L34.3 429.7c-3.1-3.1-3.1-8.2 0-11.3l67-67c3-3 4.7-7.1 4.7-11.3s-1.7-8.3-4.7-11.3l-39-39c-.2-.2-.3-.4-.3-.7z"/></svg>