<svg xmlns="http://www.w3.org/2000/svg" viewBox="0 0 448 512"><!--! Font Awesome Pro 6.3.0 by @fontawesome - https://fontawesome.com License - https://fontawesome.com/license (Commercial License) Copyright 2023 Fonticons, Inc. --><path d="M64 480H96v32H64c-35.3 0-64-28.7-64-64V64C0 28.7 28.7 0 64 0H220.1c12.7 0 24.9 5.1 33.9 14.1L369.9 129.9c9 9 14.1 21.2 14.1 33.9V288H352V192H240c-26.5 0-48-21.5-48-48V32H64C46.3 32 32 46.3 32 64V448c0 17.7 14.3 32 32 32zM351.5 160c-.7-2.8-2.1-5.4-4.2-7.4L231.4 36.7c-2.1-2.1-4.6-3.5-7.4-4.2V144c0 8.8 7.2 16 16 16H351.5zM160 352h24c30.9 0 56 25.1 56 56s-25.1 56-56 56h-8v32c0 8.8-7.2 16-16 16s-16-7.2-16-16V448 368c0-8.8 7.2-16 16-16zm24 80c13.3 0 24-10.7 24-24s-10.7-24-24-24h-8v48h8zm72-64c0-8.8 7.2-16 16-16h24c26.5 0 48 21.5 48 48v64c0 26.5-21.5 48-48 48H272c-8.8 0-16-7.2-16-16V368zm32 112h8c8.8 0 16-7.2 16-16V400c0-8.8-7.2-16-16-16h-8v96zm96-128h48c8.8 0 16 7.2 16 16s-7.2 16-16 16H400v32h32c8.8 0 16 7.2 16 16s-7.2 16-16 16H400v48c0 8.8-7.2 16-16 16s-16-7.2-16-16V432 368c0-8.8 7.2-16 16-16z"/></svg>