<svg xmlns="http://www.w3.org/2000/svg" viewBox="0 0 576 512"><!--! Font Awesome Pro 6.3.0 by @fontawesome - https://fontawesome.com License - https://fontawesome.com/license (Commercial License) Copyright 2023 Fonticons, Inc. --><path d="M458.4 98c4.7 6 4 14.6-1.5 20.1c-7 7-18.8 5.9-25-1.9C391 64.9 327.8 32 257 32C133.3 32 33 132.3 33 256v24.9c0 8.5-.4 16.9-1.1 25.3c-.7 7.9-7.5 13.7-15.4 13.7C6.8 320-.6 311.3 .2 301.6c.6-6.9 .8-13.8 .8-20.7V256C1 114.6 115.6 0 257 0c81.8 0 154.6 38.3 201.4 98zm23.5 80.4c8.7-4.3 19.2-.1 21.8 9.2c6 21.8 9.2 44.7 9.2 68.4v24.9c0 8-.1 15.9-.4 23.9c-.3 8.5-7.3 15.2-15.8 15.2c-9.2 0-16.4-7.7-16.2-16.8c.2-7.4 .3-14.8 .3-22.2V256c0-20-2.6-39.4-7.6-57.9c-2.1-7.8 1.3-16.1 8.5-19.7zM257 80c97.2 0 176 78.8 176 176v24.9c0 30-2 59.9-5.8 89.5c-1 7.8-7.7 13.6-15.6 13.6c-9.8 0-17.3-8.8-16-18.5c3.6-28 5.5-56.2 5.5-84.6V256c0-79.5-64.5-144-144-144c-17.6 0-34.5 3.2-50.1 9c-6.9 2.6-14.9 1-19.7-4.6c-6.8-8-4.5-20.2 5.2-24.1C212.4 84.3 234.2 80 257 80zM146.1 142.1c5.5 6.4 5 15.9-.3 22.5C125.3 189.5 113 221.3 113 256v24.9c0 31-3.9 61.8-11.6 91.7c-1.7 6.8-7.9 11.4-15 11.4c-10.7 0-18.3-10.4-15.7-20.8C77.6 336.4 81 308.7 81 280.9V256c0-43.7 15.9-83.7 42.3-114.4c6-7 16.8-6.5 22.8 .5zM257 160c53 0 96 43 96 96v24.9c0 41.3-4.2 82.4-12.5 122.7c-1.5 7.3-7.9 12.4-15.4 12.4c-10.3 0-17.9-9.6-15.8-19.7c7.7-37.9 11.7-76.5 11.7-115.4V256c0-35.3-28.7-64-64-64s-64 28.7-64 64v24.9c0 42-5.9 83.7-17.5 124c-1.9 6.6-8 11.1-14.9 11.1c-10.8 0-18.5-10.7-15.5-21.1c10.5-37 15.9-75.4 15.9-114V256c0-53 43-96 96-96zm16 96v24.9c0 64.8-11.9 129.1-35.2 189.5l-5.9 15.3c-3.2 8.2-12.4 12.4-20.7 9.2s-12.4-12.4-9.2-20.7l5.9-15.3C229.8 402.2 241 341.8 241 280.9V256c0-8.8 7.2-16 16-16s16 7.2 16 16z"/></svg>