<svg xmlns="http://www.w3.org/2000/svg" viewBox="0 0 384 512"><!--! Font Awesome Pro 6.3.0 by @fontawesome - https://fontawesome.com License - https://fontawesome.com/license (Commercial License) Copyright 2023 Fonticons, Inc. --><path d="M64 64C64 28.7 92.7 0 128 0c23.9 0 44.8 13.1 55.7 32.5c2.7-.4 5.5-.5 8.3-.5c23.9 0 44.8 13.1 55.7 32.5c2.7-.4 5.5-.5 8.3-.5c23.9 0 44.8 13.1 55.7 32.5c2.7-.4 5.5-.5 8.3-.5c35.3 0 64 28.7 64 64v80c0 49.6-25.1 93.3-63.2 119.2c-.4 .3-.6 .6-.7 .7c0 .1 0 .1-.1 .1l0 0V496c0 8.8-7.2 16-16 16s-16-7.2-16-16V360.1c0-11.6 6.3-21.5 14.8-27.4C332.5 312.6 352 278.6 352 240V160c0-17.7-14.3-32-32-32c-4.2 0-8.2 .8-11.8 2.2c-4.2 1.7-9 1.5-13.1-.6s-7.1-5.7-8.3-10.1C283.2 106 270.7 96 256 96c-4.2 0-8.2 .8-11.8 2.2c-4.2 1.7-9 1.5-13.1-.6s-7.1-5.7-8.3-10.1C219.2 74 206.7 64 192 64c-4.2 0-8.2 .8-11.8 2.2c-4.2 1.7-9 1.5-13.1-.6s-7.1-5.7-8.3-10.1C155.2 42 142.7 32 128 32c-17.7 0-32 14.3-32 32v48 96c0 8.8-7.2 16-16 16s-16-7.2-16-16V150.6L46.1 168.6c-9 9-14.1 21.2-14.1 33.9V256c0 44.2 29.9 81.5 70.6 92.6c13.5 3.7 25.4 15.8 25.4 32.1V496c0 8.8-7.2 16-16 16s-16-7.2-16-16V380.7l0 0c0 0-.1-.1-.2-.3c-.3-.4-.8-.8-1.6-1C39.9 364.7 0 315 0 256V202.5c0-21.2 8.4-41.6 23.4-56.6L64 105.4V64z"/></svg>