<svg xmlns="http://www.w3.org/2000/svg" viewBox="0 0 512 512"><!--! Font Awesome Pro 6.3.0 by @fontawesome - https://fontawesome.com License - https://fontawesome.com/license (Commercial License) Copyright 2023 Fonticons, Inc. --><path d="M238.6 45.6l-15.4 4.2v0l15.4-4.2zM189.6 17.4l4.2 15.4v0l-4.2-15.4zM297.4 263.2L282 267.4c1.9 7.2 8.5 12 15.9 11.8s13.7-5.5 15.2-12.8l-15.7-3.2zM336.8 71.9l-15.7-3.2v0l15.7 3.2zm47.2-31.1l-3.2 15.7 3.2-15.7zm31.1 47.2l15.7 3.2v0l-15.7-3.2zM377.3 272l-15.7-3.2c-1 4.7 .2 9.6 3.3 13.3s7.6 5.9 12.4 5.9V272zm5.8 0v16c7.3 0 13.6-4.9 15.5-11.9L383.1 272zm34.3-130.2l15.5 4.1v0l-15.5-4.1zm48.9-28.5l-4.1 15.5 4.1-15.5zm28.5 48.9l15.5 4.1v0l-15.5-4.1zM433.5 394.5l-15.5-4.1 15.5 4.1zM304 496l-.2-16c-8.7 .1-15.8 7.3-15.8 16h16zm0 0v16c8.8 0 16-7.2 16-16H304zM136.3 440.8l10.4-12.2h0l-10.4 12.2zM30.1 350.5L19.7 362.7h0l10.4-12.2zm-4.6-56.4L13.3 283.7h0l12.2 10.4zm56.4-4.6L71.5 301.7h0l10.4-12.2zm74.5 63.3l-10.4 12.2c5.5 4.6 13.3 5.1 19.3 1.1s8.5-11.4 6.3-18.2l-15.2 4.9zM90 148.4l-15.2 4.9h0L90 148.4zM166 123.6l-15.2 4.9 15.2-4.9zM214.3 272L199 276.9c2.1 6.6 8.3 11.1 15.2 11.1V272zm2.7 0v16c5 0 9.7-2.3 12.7-6.3s4-9.1 2.7-13.9L216.9 272zM161.4 66.4l-15.4 4.2v0l15.4-4.2zm92.7-25C246 11.5 215.2-6.1 185.4 1.9l8.3 30.9c12.8-3.5 26 4.1 29.4 16.9l30.9-8.3zM312.9 259L254.1 41.4l-30.9 8.3L282 267.4l30.9-8.3zm8.3-190.3L281.8 260l31.3 6.5L352.5 75.2l-31.3-6.5zm66.1-43.6c-30.3-6.2-59.9 13.3-66.1 43.6l31.3 6.5c2.7-13 15.4-21.3 28.3-18.7l6.5-31.3zm43.6 66.1c6.2-30.3-13.3-59.9-43.6-66.1l-6.5 31.3c13 2.7 21.3 15.4 18.7 28.3l31.3 6.5zM393 275.2L430.9 91.3l-31.3-6.5L361.6 268.8l31.3 6.5zM377.3 288h5.8V256h-5.8v32zm24.5-150.3L367.6 267.9l30.9 8.1 34.3-130.2-30.9-8.1zm68.4-39.9c-29.9-7.9-60.5 10-68.4 39.9l30.9 8.1c3.4-12.8 16.5-20.5 29.3-17.1l8.1-30.9zm39.9 68.4c7.9-29.9-10-60.5-39.9-68.4l-8.1 30.9c12.8 3.4 20.5 16.5 17.1 29.3l30.9 8.1zM449 398.6l61.1-232.3-30.9-8.1L418.1 390.4l30.9 8.1zM304.2 512c68.1-1.1 127.4-47.3 144.8-113.4l-30.9-8.1c-13.7 52.2-60.5 88.7-114.3 89.6l.5 32zM320 496v0H288v0h32zm-18.1 16H304V480h-2.1v32zm-15.3 0h15.3V480H286.6v32zM126 453c44.8 38.1 101.8 59 160.6 59V480c-51.3 0-100.8-18.2-139.9-51.4L126 453zM19.7 362.7L126 453l20.7-24.4L40.5 338.3 19.7 362.7zm-6.4-78.9c-20 23.6-17.2 58.9 6.4 78.9l20.7-24.4c-10.1-8.6-11.3-23.7-2.7-33.8L13.3 283.7zm78.9-6.4c-23.6-20-58.9-17.2-78.9 6.4l24.4 20.7c8.6-10.1 23.7-11.3 33.8-2.7l20.7-24.4zm74.5 63.3L92.3 277.3 71.5 301.7l74.5 63.3 20.7-24.4zm-92-187.4l66.5 204.5 30.4-9.9L105.2 143.4l-30.4 9.9zm35.9-70.6c-29.4 9.6-45.5 41.2-35.9 70.6l30.4-9.9c-4.1-12.6 2.8-26.1 15.4-30.2l-9.9-30.4zm70.6 35.9c-9.6-29.4-41.2-45.5-70.6-35.9l9.9 30.4c12.6-4.1 26.1 2.8 30.2 15.4l30.4-9.9zm48.2 148.4L181.3 118.7l-30.4 9.9L199 276.9l30.4-9.9zM214.3 288h2.7V256h-2.7v32zM145.9 70.6l55.6 205.6 30.9-8.3L176.8 62.3l-30.9 8.3zM185.4 1.9c-29.9 8.1-47.5 38.8-39.4 68.7l30.9-8.3c-3.5-12.8 4.1-26 16.9-29.4L185.4 1.9z"/></svg>