<svg xmlns="http://www.w3.org/2000/svg" viewBox="0 0 640 512"><!--! Font Awesome Pro 6.3.0 by @fontawesome - https://fontawesome.com License - https://fontawesome.com/license (Commercial License) Copyright 2023 Fonticons, Inc. --><path d="M385 24a24 24 0 1 1 48 0 24 24 0 1 1 -48 0zM335.1 512c-37.1 0-71.5-11.6-99.7-31.4c3.7-10.2 5.7-21.2 5.7-32.6c0-1.2 0-2.4-.1-3.7C266 466.5 299 480 335.1 480H465c8.8 0 16-7.2 16-16c0-8.8-7.1-16-15.9-16l0 0-64 0c-8.8 0-16-7.2-16-16s7.2-16 16-16l64.1 0 15.9 0 0 0 16 0c8.8 0 16-7.2 16-16s-7.2-16-16-16l0 0H401c-8.8 0-16-7.2-16-16s7.2-16 16-16H513l0 0h16c8.8 0 16-7.2 16-16s-7.2-16-16-16H497l0 0H401c-8.8 0-16-7.2-16-16s7.2-16 16-16h96c8.8 0 16-7.2 16-16c0-8.8-7.2-16-16-16H323.8c-7.6 0-14.1-5.3-15.7-12.7s2.2-14.9 9.2-17.9l42.2-18.8c8.1-3.6 11.7-13 8.1-21.1s-13-11.7-21.1-8.1l-69.1 30.7C226.1 230.9 193 281.8 193 337.9c0 9.8 1 19.4 2.9 28.7c-10.3-6.4-21.8-11-34.2-13.1c-.5-5.1-.7-10.3-.7-15.5c0-68.8 40.5-131.1 103.4-159.1l69.1-30.7c24.2-10.8 52.6 .1 63.4 24.4c7.9 17.8 4.1 37.8-8.1 51.5H497c26.5 0 48 21.5 48 48c0 6.2-1.2 12.2-3.4 17.7C562 295.2 577 313.9 577 336s-15 40.8-35.4 46.3c2.2 5.5 3.4 11.4 3.4 17.7c0 22.1-15 40.8-35.4 46.3c2.2 5.5 3.4 11.4 3.4 17.7c0 26.5-21.5 48-48 48H335.1zM.9 224.2l.5-75.6c.2-26.5 21.8-47.8 48.3-47.7c19.5 .1 36.2 11.9 43.6 28.6L138 31C148.9 6.8 177.3-3.9 201.5 7c5.7 2.6 10.6 6.1 14.7 10.4C229.7 1.1 252.8-4.8 273 4.3s31 30.5 27.6 51.3c5.9 .3 11.8 1.7 17.5 4.2c19.3 8.8 30 28.7 27.9 48.7l-40.4 17.5 7.2-15.9c3.6-8 .1-17.5-8-21.2s-17.5-.1-21.2 8L261.9 145l-10.2 4.4-.4 .2 0 0c-12.8 5.7-24.8 12.6-35.9 20.5l39.1-86.4 13.2-29.1c3.6-8 .1-17.5-8-21.2s-17.5-.1-21.2 8L225.4 70.6 185.8 158c-3.6 8-13.1 11.6-21.2 8s-11.6-13.1-8-21.2l39.6-87.4c3.6-8 .1-17.5-8-21.2s-17.5-.1-21.2 8L95.7 201.9c-3.1 6.9-10.6 10.6-18 9s-12.6-8.2-12.6-15.7l.3-46.2c.1-8.8-7.1-16-15.9-16.1s-16.1 7.1-16.1 15.9l-.5 75.7c-.4 56.1 32.3 107.3 83.5 130.4c.7 .3 1.3 .6 2 .9c-12.7 3.7-24.4 9.9-34.3 18.1C32.4 342.3 .4 285.7 .9 224.2zM177 448a32 32 0 1 0 -64 0 32 32 0 1 0 64 0zm-96 0a64 64 0 1 1 128 0A64 64 0 1 1 81 448zM513 144a16 16 0 1 0 -32 0 16 16 0 1 0 32 0zm-64 0a48 48 0 1 1 96 0 48 48 0 1 1 -96 0z"/></svg>