<svg xmlns="http://www.w3.org/2000/svg" viewBox="0 0 384 512"><!--! Font Awesome Pro 6.3.0 by @fontawesome - https://fontawesome.com License - https://fontawesome.com/license (Commercial License) Copyright 2023 Fonticons, Inc. --><path d="M222.2 233.7c7.7 4 16.5 6.3 25.8 6.3c12.1 0 23.3-3.8 32.5-10.4C290.4 245.5 308 256 328 256c8.6 0 16.7-1.9 24-5.4V256c0 38.6-19.5 72.6-49.2 92.7c-8.6 5.8-14.8 15.7-14.8 27.4V496c0 8.8 7.2 16 16 16s16-7.2 16-16V376.1l0-.1 .1-.1c.1-.2 .3-.5 .7-.7C358.9 349.3 384 305.6 384 256V200v-8V152c0-30.9-25.1-56-56-56c-8.6 0-16.7 1.9-24 5.4V88c0-30.9-25.1-56-56-56c-9.7 0-18.8 2.5-26.7 6.8C214 16.3 192.9 0 168 0s-46 16.3-53.3 38.8C106.8 34.5 97.7 32 88 32C57.1 32 32 57.1 32 88V200c0 2.6 .2 5.1 .5 7.6C12.8 222.2 0 245.6 0 272c0 59 39.9 108.7 94.2 123.5c.8 .2 1.3 .6 1.6 1c.1 .2 .2 .3 .2 .3l0 0V496c0 8.8 7.2 16 16 16s16-7.2 16-16V396.7c0-16.3-11.9-28.4-25.4-32.1C61.9 353.5 32 316.2 32 272c0-26.5 21.5-48 48-48h88c13.3 0 24 10.7 24 24s-10.7 24-24 24H112c-8.8 0-16 7.2-16 16s7.2 16 16 16h56c30.9 0 56-25.1 56-56c0-4.9-.6-9.7-1.8-14.3zM192 197.4c-7.3-3.5-15.4-5.4-24-5.4H144V88 56c0-13.3 10.7-24 24-24s24 10.7 24 24V88v96 13.4zM112 192H80c-5.5 0-10.8 .6-16 1.6V88c0-13.3 10.7-24 24-24s24 10.7 24 24V192zm240 0v8c0 13.3-10.7 24-24 24s-24-10.7-24-24V184 152c0-13.3 10.7-24 24-24s24 10.7 24 24v40zM224 88c0-13.3 10.7-24 24-24s24 10.7 24 24v64 32c0 13.3-10.7 24-24 24s-24-10.7-24-24V88z"/></svg>