<svg xmlns="http://www.w3.org/2000/svg" viewBox="0 0 512 512"><!--! Font Awesome Pro 6.3.0 by @fontawesome - https://fontawesome.com License - https://fontawesome.com/license (Commercial License) Copyright 2023 Fonticons, Inc. --><path d="M46.7 150.2L244.5 272H256 479.7c-.9-6.6-4.1-12.7-9.2-17.2l-3.2-2.8c-32.6-29-50-70.3-65.4-106.9l0 0 0 0c-2.4-5.8-4.8-11.4-7.2-16.9C370.1 71.5 313.6 32 248 32H224C144.1 32 75.6 80.8 46.7 150.2zm-10 31.4C33.6 195.3 32 209.4 32 224c0 45.4 15.7 87.1 42.1 120C86.5 359.5 96 379.3 96 401.4V496c0 8.8-7.2 16-16 16s-16-7.2-16-16V401.4c0-12.8-5.5-25.7-14.9-37.4C18.4 325.6 0 276.9 0 224C0 100.3 100.3 0 224 0h24c78.8 0 146.5 47.5 176.1 115.3c2.7 6.1 5.2 12.1 7.7 18.1l0 0 0 0c15.7 37.1 30.1 70.9 56.8 94.6l3.2 2.8c11.9 10.6 19.1 25.4 20.1 41.2h.1c0 10.6-1.5 21.2-4.4 31.4l-.2 .6L461.3 465.6c-7.8 27.5-33 46.4-61.5 46.4H256c-17.7 0-32-14.3-32-32V304v-7.1L36.7 181.7zM344 176a24 24 0 1 1 0 48 24 24 0 1 1 0-48zM256 480H399.7c14.3 0 26.8-9.5 30.8-23.2l4.8-16.8H336c-8.8 0-16-7.2-16-16s7.2-16 16-16H444.4l9.1-32H336c-8.8 0-16-7.2-16-16s7.2-16 16-16H462.7l11.4-40H256V480z"/></svg>