<svg xmlns="http://www.w3.org/2000/svg" viewBox="0 0 512 512"><!--! Font Awesome Pro 6.3.0 by @fontawesome - https://fontawesome.com License - https://fontawesome.com/license (Commercial License) Copyright 2023 Fonticons, Inc. --><path d="M32 224C32 118 118 32 224 32h24c65.6 0 122.1 39.5 146.8 96.1c2.4 5.5 4.8 11.1 7.2 16.9l0 0c15.4 36.6 32.9 78 65.4 106.9l3.2 2.8c6 5.3 9.5 13 9.5 21.1c0 15.6-12.6 28.2-28.2 28.2H432c-8.8 0-16 7.2-16 16v64c0 17.7-14.3 32-32 32H304c-8.8 0-16 7.2-16 16v64c0 8.8 7.2 16 16 16s16-7.2 16-16V448h64c35.3 0 64-28.7 64-64V336h3.8c33.2 0 60.2-26.9 60.2-60.2c0-17.2-7.4-33.6-20.2-45l-3.2-2.8c-26.7-23.7-41-57.5-56.8-94.6l0 0c-2.5-6-5.1-12-7.7-18.1C394.5 47.5 326.8 0 248 0H224C100.3 0 0 100.3 0 224c0 52.9 18.4 101.6 49.1 140C58.5 375.6 64 388.6 64 401.4V496c0 8.8 7.2 16 16 16s16-7.2 16-16V401.4c0-22.1-9.5-41.9-21.9-57.4C47.7 311.1 32 269.4 32 224zM224 96c-17.7 0-32 14.3-32 32v32H160c-17.7 0-32 14.3-32 32v32c0 17.7 14.3 32 32 32h32v32c0 17.7 14.3 32 32 32h32c17.7 0 32-14.3 32-32V256h32c17.7 0 32-14.3 32-32V192c0-17.7-14.3-32-32-32H288V128c0-17.7-14.3-32-32-32H224zm0 32h32v48c0 8.8 7.2 16 16 16h48v32H272c-8.8 0-16 7.2-16 16v48H224V240c0-8.8-7.2-16-16-16H160V192h48c4.2 0 8.3-1.7 11.3-4.7s4.7-7.1 4.7-11.3V128z"/></svg>