<svg xmlns="http://www.w3.org/2000/svg" viewBox="0 0 640 512"><!--! Font Awesome Pro 6.3.0 by @fontawesome - https://fontawesome.com License - https://fontawesome.com/license (Commercial License) Copyright 2023 Fonticons, Inc. --><path d="M32 224C32 118 118 32 224 32h24c65.6 0 122.1 39.5 146.8 96.1c2.4 5.5 4.8 11.1 7.2 16.9l0 0 0 0c15.4 36.6 32.9 78 65.4 106.9l3.2 2.8c6 5.3 9.5 13 9.5 21.1c0 15.6-12.6 28.2-28.2 28.2H432c-8.8 0-16 7.2-16 16v8 8 10.1l-79 11.3c-18.9 2.7-33 18.9-33 38c0 20 15.3 36.6 35.2 38.2l59.9 5C396.2 448.7 387 456 376 456H304c-8.8 0-16 7.2-16 16v24c0 8.8 7.2 16 16 16s16-7.2 16-16v-8h56c30.9 0 56-25.1 56-56v-8c0-8.3-6.4-15.3-14.7-15.9l-75.5-6.3c-3.3-.3-5.8-3-5.8-6.4c0-3.2 2.3-5.9 5.5-6.3l92.8-13.3c7.9-1.1 13.7-7.9 13.7-15.8V336v0h3.8c33.2 0 60.2-26.9 60.2-60.2c0-17.2-7.4-33.6-20.2-45l-3.2-2.8c-26.7-23.7-41-57.5-56.8-94.6l0 0 0 0c-2.5-6-5.1-12-7.7-18.1C394.5 47.5 326.8 0 248 0H224C100.3 0 0 100.3 0 224c0 52.9 18.4 101.6 49.1 140C58.5 375.6 64 388.6 64 401.4V496c0 8.8 7.2 16 16 16s16-7.2 16-16V401.4c0-22.1-9.5-41.9-21.9-57.4C47.7 311.1 32 269.4 32 224zm312 0a24 24 0 1 0 0-48 24 24 0 1 0 0 48zM512 392a24 24 0 1 0 -48 0 24 24 0 1 0 48 0zm104 24a24 24 0 1 0 0-48 24 24 0 1 0 0 48zm24 72a24 24 0 1 0 -48 0 24 24 0 1 0 48 0zM552 368a24 24 0 1 0 0-48 24 24 0 1 0 0 48zm88-72a24 24 0 1 0 -48 0 24 24 0 1 0 48 0zM552 464a24 24 0 1 0 0-48 24 24 0 1 0 0 48z"/></svg>