<svg xmlns="http://www.w3.org/2000/svg" viewBox="0 0 512 512"><!--! Font Awesome Pro 6.3.0 by @fontawesome - https://fontawesome.com License - https://fontawesome.com/license (Commercial License) Copyright 2023 Fonticons, Inc. --><path d="M32 224C32 118 118 32 224 32h24c65.6 0 122.1 39.5 146.8 96.1c2.4 5.5 4.8 11.1 7.2 16.9l0 0c15.4 36.6 32.9 78 65.4 106.9l3.2 2.8c6 5.3 9.5 13 9.5 21.1c0 15.6-12.6 28.2-28.2 28.2H432c-8.8 0-16 7.2-16 16v64c0 17.7-14.3 32-32 32H304c-8.8 0-16 7.2-16 16v64c0 8.8 7.2 16 16 16s16-7.2 16-16V448h64c35.3 0 64-28.7 64-64V336h3.8c33.2 0 60.2-26.9 60.2-60.2c0-17.2-7.4-33.6-20.2-45l-3.2-2.8c-26.7-23.7-41-57.5-56.8-94.6l0 0c-2.5-6-5.1-12-7.7-18.1C394.5 47.5 326.8 0 248 0H224C100.3 0 0 100.3 0 224c0 52.9 18.4 101.6 49.1 140C58.5 375.6 64 388.6 64 401.4V496c0 8.8 7.2 16 16 16s16-7.2 16-16V401.4c0-22.1-9.5-41.9-21.9-57.4C47.7 311.1 32 269.4 32 224zM255.8 110.2c0-8.7-7.1-15.8-15.8-15.8s-15.8 7.1-15.8 15.8c0 .9 0 1.8-.1 2.7c0 .4-.1 .8-.1 1.2c-2.8 24.1-31.4 35.9-50.4 20.9c-.3-.2-.6-.5-.9-.7c-.7-.6-1.3-1.2-1.9-1.8c-6.2-6.2-16.2-6.2-22.4 0s-6.2 16.2 0 22.4c.6 .6 1.2 1.3 1.8 1.9c.3 .3 .5 .6 .7 .9c15.1 19 3.2 47.6-20.9 50.4c-.4 0-.8 .1-1.2 .1c-.9 .1-1.8 .1-2.7 .1c-8.7 0-15.8 7.1-15.8 15.8s7.1 15.8 15.8 15.8c.9 0 1.8 0 2.7 .1c.4 0 .8 .1 1.2 .1c24.1 2.8 35.9 31.4 20.9 50.4c-.2 .3-.5 .6-.7 .9c-.6 .7-1.2 1.3-1.8 1.9c-6.2 6.2-6.2 16.2 0 22.4s16.2 6.2 22.4 0c.6-.6 1.3-1.2 1.9-1.8c.3-.3 .6-.5 .9-.7c19-15.1 47.6-3.2 50.4 20.9c0 .4 .1 .8 .1 1.2c.1 .9 .1 1.8 .1 2.7c0 8.7 7.1 15.8 15.8 15.8s15.8-7.1 15.8-15.8c0-.9 0-1.8 .1-2.7c0-.4 .1-.8 .1-1.2c2.8-24.1 31.4-35.9 50.4-20.9c.3 .2 .6 .5 .9 .7c.7 .6 1.3 1.2 1.9 1.8c6.2 6.2 16.2 6.2 22.4 0s6.2-16.2 0-22.4c-.6-.6-1.2-1.3-1.8-1.9c-.3-.3-.5-.6-.7-.9c-15.1-19-3.2-47.6 20.9-50.4c.4 0 .8-.1 1.2-.1c.9-.1 1.8-.1 2.7-.1c8.7 0 15.8-7.1 15.8-15.8s-7.1-15.8-15.8-15.8c-.9 0-1.8 0-2.7-.1c-.4 0-.8-.1-1.2-.1c-24.1-2.8-35.9-31.4-20.9-50.4c.2-.3 .5-.6 .7-.9c.6-.7 1.2-1.3 1.8-1.9c6.2-6.2 6.2-16.2 0-22.4s-16.2-6.2-22.4 0c-.6 .6-1.3 1.2-1.9 1.8c-.3 .3-.6 .5-.9 .7c-19 15.1-47.6 3.2-50.4-20.9c0-.4-.1-.8-.1-1.2c-.1-.9-.1-1.8-.1-2.7zm34.6 164.2A71.3 71.3 0 1 1 189.6 173.6 71.3 71.3 0 1 1 290.4 274.4zm-64.6-43.3a21.3 21.3 0 1 0 0-42.7 21.3 21.3 0 1 0 0 42.7zm56.9 21.3a14.2 14.2 0 1 0 -28.4 0 14.2 14.2 0 1 0 28.4 0z"/></svg>