<svg xmlns="http://www.w3.org/2000/svg" viewBox="0 0 576 512"><!--! Font Awesome Pro 6.3.0 by @fontawesome - https://fontawesome.com License - https://fontawesome.com/license (Commercial License) Copyright 2023 Fonticons, Inc. --><path d="M32 256a144 144 0 1 1 288 0A144 144 0 1 1 32 256zm319.3-16C343.2 150.3 267.8 80 176 80C78.8 80 0 158.8 0 256s78.8 176 176 176c91.8 0 167.2-70.3 175.3-160H400v48c0 8.8 7.2 16 16 16s16-7.2 16-16V272h89.4l-52.7 52.7c-6.2 6.2-6.2 16.4 0 22.6s16.4 6.2 22.6 0l80-80c6.2-6.2 6.2-16.4 0-22.6l-80-80c-6.2-6.2-16.4-6.2-22.6 0s-6.2 16.4 0 22.6L521.4 240H432V192c0-8.8-7.2-16-16-16s-16 7.2-16 16v48H351.3z"/></svg>