<svg xmlns="http://www.w3.org/2000/svg" viewBox="0 0 576 512"><!--! Font Awesome Pro 6.3.0 by @fontawesome - https://fontawesome.com License - https://fontawesome.com/license (Commercial License) Copyright 2023 Fonticons, Inc. --><path d="M301.4 60.2c0-24.8-28.3-39-48.2-24.1L76.5 168.7c-48.1 36-76.3 93-76.3 153C.2 426.2 84.9 512 189.7 512c60.8 0 118-29.2 153.6-78.5L469.6 258.6c14.4-19.9 .2-47.8-24.4-47.8H420.6L479.3 77.4c1.9-4.3 2.9-8.9 2.9-13.6c0-18.6-15.1-33.7-33.7-33.7c-4.7 0-9.3 1-13.6 2.9L301.4 91.7V60.2zm145.5 .3c.5-.2 1-.3 1.5-.3c2 0 3.6 1.6 3.6 3.6c0 .5-.1 1-.3 1.5l-68 154.5c-2 4.7-1.6 10 1.2 14.3s7.5 6.8 12.6 6.8h47.6L318.8 415.8c-30 41.5-78 66-129.2 66c-87.9 0-159.3-72.1-159.3-160.2c0-50.6 23.8-98.6 64.3-128.9L271.3 60.2v54.5c0 5.1 2.6 9.8 6.8 12.6s9.6 3.2 14.3 1.2l154.5-68zM278.8 323.8a90.4 90.4 0 1 1 -180.7 0 90.4 90.4 0 1 1 180.7 0zM188.5 203.3a120.5 120.5 0 1 0 0 240.9 120.5 120.5 0 1 0 0-240.9zM173.4 316.2a22.6 22.6 0 1 0 0-45.2 22.6 22.6 0 1 0 0 45.2zm52.7 45.2a15.1 15.1 0 1 0 -30.1 0 15.1 15.1 0 1 0 30.1 0z"/></svg>