<svg xmlns="http://www.w3.org/2000/svg" viewBox="0 0 320 512"><!--! Font Awesome Pro 6.3.0 by @fontawesome - https://fontawesome.com License - https://fontawesome.com/license (Commercial License) Copyright 2023 Fonticons, Inc. --><path d="M224 32V48c0 17.7-14.3 32-32 32H128c-17.7 0-32-14.3-32-32V32H64C46.3 32 32 46.3 32 64V448c0 17.7 14.3 32 32 32H256c17.7 0 32-14.3 32-32V64c0-17.7-14.3-32-32-32H224zm-32 0H128V48h64V32zM0 64C0 28.7 28.7 0 64 0H256c35.3 0 64 28.7 64 64V448c0 35.3-28.7 64-64 64H64c-35.3 0-64-28.7-64-64V64z"/></svg>