<svg xmlns="http://www.w3.org/2000/svg" viewBox="0 0 576 512"><!--! Font Awesome Pro 6.3.0 by @fontawesome - https://fontawesome.com License - https://fontawesome.com/license (Commercial License) Copyright 2023 Fonticons, Inc. --><path d="M286.4 0c8.3 0 15.1 6.7 15.1 15.1V45.2h30.1c8.3 0 15.1 6.7 15.1 15.1s-6.7 15.1-15.1 15.1H301.4v30.1c0 8.3-6.7 15.1-15.1 15.1s-15.1-6.7-15.1-15.1V75.3H241.2c-8.3 0-15.1-6.7-15.1-15.1s6.7-15.1 15.1-15.1h30.1V15.1C271.3 6.7 278 0 286.4 0zM147.6 154.3C80.5 169.4 30.4 229.5 30.4 301.4c0 83.3 67.4 150.8 150.4 150.8c24.2 0 47.1-5.7 67.3-15.9c-82.4-10.7-146-81.3-146-166.7c0-44.6 17.3-85.1 45.6-115.2zM.2 301.4C.2 201.5 81 120.5 180.7 120.5c5.2 0 10.3 .2 15.3 .6c6.6 .6 12 5.3 13.4 11.8s-1.5 13.1-7.3 16.3c-41.8 23.7-70 68.7-70 120.2c0 76.3 61.7 138 137.6 138c8.1 0 16-.7 23.6-2c6.5-1.1 13 2.1 16 8s1.8 13-2.9 17.6c-32.5 31.6-76.9 51.2-125.8 51.2C81 482.2 .2 401.2 .2 301.4zM406.8 150.6v60.2h60.2c8.3 0 15.1 6.7 15.1 15.1s-6.7 15.1-15.1 15.1H406.8v60.2c0 8.3-6.7 15.1-15.1 15.1s-15.1-6.7-15.1-15.1V240.9H316.5c-8.3 0-15.1-6.7-15.1-15.1s6.7-15.1 15.1-15.1h60.2V150.6c0-8.3 6.7-15.1 15.1-15.1s15.1 6.7 15.1 15.1z"/></svg>