<svg xmlns="http://www.w3.org/2000/svg" viewBox="0 0 640 512"><!--! Font Awesome Pro 6.3.0 by @fontawesome - https://fontawesome.com License - https://fontawesome.com/license (Commercial License) Copyright 2023 Fonticons, Inc. --><path d="M105.4 0C97.1 0 90.4 6.7 90.4 15.1V135.5c0 8.3 6.7 15.1 15.1 15.1s15.1-6.7 15.1-15.1V51.4l92.9 92.9c23.3 23.3 54.8 36.4 87.8 36.4s64.5-13.1 87.8-36.4L492.5 40.8c5.9-5.9 5.9-15.4 0-21.3s-15.4-5.9-21.3 0L367.6 123.1c-17.6 17.6-41.5 27.5-66.5 27.5s-48.8-9.9-66.5-27.5L141.8 30.1h84.1c8.3 0 15.1-6.7 15.1-15.1s-6.7-15.1-15.1-15.1H105.4zM36.8 344.9c44.9-43.6 138.5-104.8 264.4-104.8s219.5 61.2 264.4 104.8c7.2 7 8.9 18.6 3.5 29.5l-35.2 69.2c-3.1 6.1-10 9.4-16.7 7.9l-83.4-18.6c-6.9-1.5-11.8-7.6-11.8-14.7V340.9c0-6.8-4.5-12.7-11.1-14.5l-34-9.3c-49.5-13.6-101.8-13.6-151.3 0l-34 9.3c-6.5 1.8-11.1 7.7-11.1 14.5v77.2c0 7.1-4.9 13.2-11.8 14.7L85.2 451.5c-6.7 1.5-13.6-1.7-16.7-7.9L33.4 374.4c-5.5-10.8-3.7-22.5 3.5-29.5zM301.2 210C165.5 210 64.8 275.8 15.8 323.3C-2.3 340.9-4 367.4 6.5 388l35.2 69.2c9.3 18.4 30 28.1 50.1 23.6l83.4-18.6c20.7-4.6 35.3-22.9 35.3-44.1V352.4l22.9-6.3c44.3-12.1 91-12.1 135.3 0l22.9 6.3v65.7c0 21.2 14.7 39.5 35.3 44.1l83.4 18.6c20.1 4.5 40.8-5.2 50.1-23.6L595.9 388c10.5-20.6 8.8-47.1-9.3-64.7C537.6 275.8 436.9 210 301.2 210z"/></svg>