<svg xmlns="http://www.w3.org/2000/svg" viewBox="0 0 512 512"><!--! Font Awesome Pro 6.3.0 by @fontawesome - https://fontawesome.com License - https://fontawesome.com/license (Commercial License) Copyright 2023 Fonticons, Inc. --><path d="M240 0c8.8 0 16 7.2 16 16V64H400c8.8 0 16 7.2 16 16s-7.2 16-16 16H256v64H464c8.8 0 16 7.2 16 16s-7.2 16-16 16H256v64H368c8.8 0 16 7.2 16 16s-7.2 16-16 16H256v75.4l86.6-24.7c6.3-1.8 12.8-2.7 19.3-2.7c38.8 0 70.2 31.4 70.2 70.2v5.2c0 18.5-6.8 36.3-19 50.1l-26.9 30.2c-11.5 12.9-28 20.3-45.3 20.3H139.2c-17.3 0-33.8-7.4-45.3-20.3L67 461.4c-12.3-13.8-19-31.6-19-50.1v-5.2c0-38.8 31.4-70.2 70.2-70.2c6.5 0 13 .9 19.3 2.7L224 363.4V288H112c-8.8 0-16-7.2-16-16s7.2-16 16-16H224V192H16c-8.8 0-16-7.2-16-16s7.2-16 16-16H224V96H80c-8.8 0-16-7.2-16-16s7.2-16 16-16H224V16c0-8.8 7.2-16 16-16zM80 406.2v5.2c0 10.6 3.9 20.9 11 28.8l26.9 30.2c5.4 6.1 13.2 9.6 21.4 9.6H340.8c8.2 0 15.9-3.5 21.4-9.6L389 440.2c7.1-7.9 11-18.2 11-28.8v-5.2c0-21.1-17.1-38.2-38.2-38.2c-3.5 0-7.1 .5-10.5 1.5l-93.8 26.8c-11.5 3.3-23.7 3.3-35.2 0l-93.8-26.8c-3.4-1-6.9-1.5-10.5-1.5C97.1 368 80 385.1 80 406.2zM144 432a24 24 0 1 1 48 0 24 24 0 1 1 -48 0zm152 0a24 24 0 1 1 48 0 24 24 0 1 1 -48 0z"/></svg>