<svg xmlns="http://www.w3.org/2000/svg" viewBox="0 0 512 512"><!--! Font Awesome Pro 6.3.0 by @fontawesome - https://fontawesome.com License - https://fontawesome.com/license (Commercial License) Copyright 2023 Fonticons, Inc. --><path d="M173 48c0-26.5 21.5-48 48-48h32c26.5 0 48 21.5 48 48v97.1l84.1-48.6c23-13.3 52.3-5.4 65.6 17.6l16 27.7c13.3 23 5.4 52.3-17.6 65.6L365 256l84.1 48.6c23 13.3 30.8 42.6 17.6 65.6l-16 27.7c-13.3 23-42.6 30.8-65.6 17.6L301 366.9V464c0 26.5-21.5 48-48 48H221c-26.5 0-48-21.5-48-48V366.9L88.9 415.4c-23 13.3-52.3 5.4-65.6-17.6l-16-27.7c-13.3-23-5.4-52.3 17.6-65.6L109 256 24.9 207.4 32.6 194l-7.7 13.4C1.9 194.2-6 164.8 7.3 141.9l16-27.7c13.3-23 42.6-30.8 65.6-17.6L173 145.1V48zm48-16c-8.8 0-16 7.2-16 16V172.9c0 5.7-3 11-8 13.9s-11 2.9-16 0L72.9 124.3c-7.7-4.4-17.4-1.8-21.9 5.9L35 157.9c-4.4 7.7-1.8 17.4 5.9 21.9L149 242.1c5 2.9 8 8.1 8 13.9s-3 11-8 13.9L40.9 332.3c-7.7 4.4-10.3 14.2-5.9 21.9l16 27.7c4.4 7.7 14.2 10.3 21.9 5.9L181 325.3c5-2.9 11-2.9 16 0s8 8.1 8 13.9V464c0 8.8 7.2 16 16 16h32c8.8 0 16-7.2 16-16V339.1c0-5.7 3-11 8-13.9s11-2.9 16 0l108.1 62.4c7.7 4.4 17.4 1.8 21.9-5.9l16-27.7c4.4-7.7 1.8-17.4-5.9-21.9L325 269.9c-5-2.9-8-8.1-8-13.9s3-11 8-13.9l108.1-62.4c7.7-4.4 10.3-14.2 5.9-21.9l-16-27.7c-4.4-7.7-14.2-10.3-21.9-5.9L293 186.7c-5 2.9-11 2.9-16 0s-8-8.1-8-13.9V48c0-8.8-7.2-16-16-16H221z"/></svg>