<svg xmlns="http://www.w3.org/2000/svg" viewBox="0 0 320 512"><!--! Font Awesome Pro 6.3.0 by @fontawesome - https://fontawesome.com License - https://fontawesome.com/license (Commercial License) Copyright 2023 Fonticons, Inc. --><path d="M80 96c0-35.3 28.7-64 64-64s64 28.7 64 64V252.7c0 14.9 7 27.7 16 36.9c19.8 20.2 32 47.9 32 78.4c0 61.9-50.1 112-112 112S32 429.9 32 368c0-30.5 12.2-58.2 32-78.4c9-9.2 16-22 16-36.9V96zM144 0C91 0 48 43 48 96V252.7c0 4.6-2.2 9.8-6.8 14.5C15.7 293.1 0 328.8 0 368c0 79.5 64.5 144 144 144s144-64.5 144-144c0-39.3-15.7-74.9-41.2-100.8c-4.6-4.7-6.8-9.9-6.8-14.5V96c0-53-43-96-96-96zM112 368a32 32 0 1 1 64 0 32 32 0 1 1 -64 0zm96 0A64 64 0 1 0 80 368a64 64 0 1 0 128 0z"/></svg>