<svg xmlns="http://www.w3.org/2000/svg" viewBox="0 0 512 512"><!--! Font Awesome Pro 6.3.0 by @fontawesome - https://fontawesome.com License - https://fontawesome.com/license (Commercial License) Copyright 2023 Fonticons, Inc. --><path d="M128 32c8.8 0 16-7.2 16-16s-7.2-16-16-16H16C7.2 0 0 7.2 0 16V128c0 8.8 7.2 16 16 16s16-7.2 16-16V54.6L73.4 96l-4.7 4.7c-6.2 6.2-6.2 16.4 0 22.6s16.4 6.2 22.6 0l4.7-4.7 13.2 13.2C90.8 157.9 80 189.7 80 224c0 83 63.1 151.2 144 159.2V416H192c-8.8 0-16 7.2-16 16s7.2 16 16 16h32v48c0 8.8 7.2 16 16 16s16-7.2 16-16V448h32c8.8 0 16-7.2 16-16s-7.2-16-16-16H256V383.2c80.9-8 144-76.2 144-159.2c0-34.3-10.8-66.1-29.2-92.2L448 54.6V128c0 8.8 7.2 16 16 16s16-7.2 16-16V16c0-8.8-7.2-16-16-16H352c-8.8 0-16 7.2-16 16s7.2 16 16 16h73.4l-75.6 75.6C321.1 80.6 282.5 64 240 64s-81.1 16.6-109.8 43.6L118.6 96l4.7-4.7c6.2-6.2 6.2-16.4 0-22.6s-16.4-6.2-22.6 0L96 73.4 54.6 32H128zM240 96a128 128 0 1 1 0 256 128 128 0 1 1 0-256z"/></svg>