<svg xmlns="http://www.w3.org/2000/svg" viewBox="0 0 512 512"><!--! Font Awesome Pro 6.3.0 by @fontawesome - https://fontawesome.com License - https://fontawesome.com/license (Commercial License) Copyright 2023 Fonticons, Inc. --><path d="M271 16c0-8.8-7.2-16-16-16s-16 7.2-16 16V32.5C115.7 40.1 16 134.9 1 256.1C-1.2 273.6 13.3 288 31 288H479c17.7 0 32.2-14.4 30-31.9C494 134.9 394.3 40.1 271 32.5V16zm0 430.6V320H239V446.6c0 18.5-15 33.4-33.4 33.4c-12.7 0-24.2-7.2-29.9-18.5l-2.3-4.7c-4-7.9-13.6-11.1-21.5-7.2s-11.1 13.6-7.2 21.5l2.3 4.7C158.1 498 180.8 512 205.6 512c36.1 0 65.4-29.3 65.4-65.4zM255 64c112.8 0 206.2 83.5 221.7 192H33.3C48.8 147.5 142.2 64 255 64z"/></svg>