<svg xmlns="http://www.w3.org/2000/svg" viewBox="0 0 640 512"><!--! Font Awesome Pro 6.3.0 by @fontawesome - https://fontawesome.com License - https://fontawesome.com/license (Commercial License) Copyright 2023 Fonticons, Inc. --><path d="M128 128a96 96 0 1 1 192 0 96 96 0 1 1 -192 0zM384 480H32c1.2-79.7 66.2-144 146.3-144h91.4c46.2 0 87.5 21.5 114.3 55V352c0-2.1 .1-4.2 .3-6.3c-31-26-71-41.7-114.6-41.7H178.3C79.8 304 0 383.8 0 482.3C0 498.7 13.3 512 29.7 512H392.6c-5.4-9.4-8.6-20.3-8.6-32zM224 256A128 128 0 1 0 224 0a128 128 0 1 0 0 256zm256 16c0-26.5 21.5-48 48-48s48 21.5 48 48h32c0-44.2-35.8-80-80-80s-80 35.8-80 80v48c-17.7 0-32 14.3-32 32V480c0 17.7 14.3 32 32 32H608c17.7 0 32-14.3 32-32V352c0-17.7-14.3-32-32-32H576 512 480V272zM448 480V352H608V480H448z"/></svg>