<svg xmlns="http://www.w3.org/2000/svg" viewBox="0 0 384 512"><!--! Font Awesome Pro 6.3.0 by @fontawesome - https://fontawesome.com License - https://fontawesome.com/license (Commercial License) Copyright 2023 Fonticons, Inc. --><path d="M32 176a144 144 0 1 1 288 0A144 144 0 1 1 32 176zM192 351.3c89.7-8.1 160-83.5 160-175.3C352 78.8 273.2 0 176 0S0 78.8 0 176c0 91.8 70.3 167.2 160 175.3V416H96c-8.8 0-16 7.2-16 16s7.2 16 16 16h64v48c0 8.8 7.2 16 16 16s16-7.2 16-16V448h64c8.8 0 16-7.2 16-16s-7.2-16-16-16H192V351.3z"/></svg>