<svg xmlns="http://www.w3.org/2000/svg" viewBox="0 0 576 512"><!--! Font Awesome Pro 6.3.0 by @fontawesome - https://fontawesome.com License - https://fontawesome.com/license (Commercial License) Copyright 2023 Fonticons, Inc. --><path d="M285.6 436c17.2 27.9 60.2 12.2 55.4-20.2L314.3 235 401.3 74.2c15.6-28.8-19.5-58.3-45.2-37.9L212.8 149.8 30.1 154.9c-32.7 .9-40.7 46-10.2 58.1l170 67.3L227.1 341V481.9H136.8c-8.3 0-15.1 6.7-15.1 15.1s6.7 15.1 15.1 15.1H242.2 347.6c8.3 0 15.1-6.7 15.1-15.1s-6.7-15.1-15.1-15.1H257.2v-92L285.6 436zm-1-196.6l26.7 180.8L215.4 264.5c-3.4-5.5-8.5-9.8-14.6-12.2L30.9 185l182.7-5.1c6.5-.2 12.8-2.5 17.9-6.5L374.8 59.8 287.8 220.6c-3.1 5.7-4.2 12.3-3.3 18.7zm-27.3-13.5a15.1 15.1 0 1 0 -30.1 0 15.1 15.1 0 1 0 30.1 0z"/></svg>