<svg xmlns="http://www.w3.org/2000/svg" viewBox="0 0 640 512"><!--! Font Awesome Pro 6.3.0 by @fontawesome - https://fontawesome.com License - https://fontawesome.com/license (Commercial License) Copyright 2023 Fonticons, Inc. --><path d="M256 32c0 44.2-35.8 80-80 80c0-44.2 35.8-80 80-80zM176 144h-8.1C142.2 175.5 128 215 128 256c0 106 86 192 192 192h19.6c42.2 0 83.9 9.8 121.6 28.7l9.9 5c7.9 4 11.1 13.6 7.2 21.5s-13.6 11.1-21.5 7.2l-9.9-5C413.6 488.7 376.8 480 339.6 480H320l-.2 0H300.4c-37.3 0-74 8.7-107.3 25.3l-9.9 5c-7.9 4-17.5 .7-21.5-7.2s-.7-17.5 7.2-21.5l9.9-5c14.8-7.4 30.1-13.4 45.9-18c-11.3-5.3-22.2-11.6-32.4-18.7c-6.6 3.1-13.4 5.7-20.3 7.6c-54.9 15.3-115.3-7.7-145.1-59.4L10 359c-3.9-6.8-1.6-15.5 5.2-19.4c11.4-6.6 23.6-11 35.9-13.3C20 302.9 0 265.8 0 224V190.2C0 182.4 6.4 176 14.2 176c13.2 0 25.9 2.3 37.7 6.4c-15.2-35.7-14-77.9 6.9-114.1L75.8 39c3.9-6.8 12.6-9.1 19.4-5.2c24.3 14 41.5 35.7 50.2 60.2C154 40.7 200.3 0 256 0h16c8.8 0 16 7.2 16 16V32c0 61.9-50.1 112-112 112zM384 32c0 44.2 35.8 80 80 80c0-44.2-35.8-80-80-80zm88.1 112H464c-61.9 0-112-50.1-112-112V16c0-8.8 7.2-16 16-16h16c55.7 0 102 40.7 110.6 94c8.8-24.5 25.9-46.2 50.2-60.2c6.8-3.9 15.5-1.6 19.4 5.2l16.9 29.3c20.9 36.2 22.1 78.4 6.9 114.1c11.8-4.1 24.5-6.4 37.7-6.4c7.9 0 14.2 6.4 14.2 14.2V224c0 41.8-20 78.9-51 102.3c12.3 2.3 24.4 6.7 35.9 13.3c6.8 3.9 9.1 12.6 5.2 19.4l-16.9 29.3c-27.6 47.9-81.6 71.1-133 62.1l-4.6-2.3c-11.7-5.8-23.7-10.9-36-15.2l0 0c-9.1-3.2-18.4-5.9-27.8-8.2C471.5 392.1 512 328.8 512 256c0-41-14.2-80.5-39.9-112zM96 314.5V289.8c0-39.1-27.4-71.7-64-79.8V224c0 41.8 26.7 77.4 64 90.5zm448-24.8v24.8c37.3-13.2 64-48.7 64-90.5V209.9c-36.6 8.1-64 40.8-64 79.8zM155.3 418.7l-12.4-21.4c-19.5-33.8-59.6-48.4-95.3-37.1l7 12.2c20.9 36.2 61.8 53.6 100.7 46.4zM109.1 173.3c19.5-33.8 12.1-75.8-15.5-101.1l-7 12.2C65.7 120.5 71 164.6 96.7 194.7l12.4-21.4zm434.1 21.4c25.7-30.1 31.1-74.2 10.2-110.4l-7-12.2c-27.7 25.3-35 67.3-15.5 101.1l12.4 21.4zm-58.5 224c38.9 7.2 79.8-10.2 100.7-46.4l7-12.2c-35.8-11.3-75.8 3.3-95.3 37.1l-12.4 21.4z"/></svg>