<svg xmlns="http://www.w3.org/2000/svg" viewBox="0 0 640 512"><!--! Font Awesome Pro 6.3.0 by @fontawesome - https://fontawesome.com License - https://fontawesome.com/license (Commercial License) Copyright 2023 Fonticons, Inc. --><path d="M640 32a32 32 0 1 0 -64 0 32 32 0 1 0 64 0zM496 400c-17.7 0-32-14.3-32-32V144c0-17.7 14.3-32 32-32s32 14.3 32 32V368c0 17.7-14.3 32-32 32zm0-336c-44.2 0-80 35.8-80 80V368c0 44.2 35.8 80 80 80s80-35.8 80-80V144c0-44.2-35.8-80-80-80zM24 64C10.7 64 0 74.7 0 88s10.7 24 24 24h83.2L36 218.7c-4.9 7.4-5.4 16.8-1.2 24.6S47.1 256 56 256H88c30.9 0 56 25.1 56 56v32c0 30.9-25.1 56-56 56c-10.1 0-20.1-6.2-29.3-16.2c-4.3-4.7-7.7-9.5-10.1-13.2c-1.2-1.8-2-3.3-2.5-4.2c-.3-.5-.4-.8-.5-1l-.1-.1 0 0 0 0c-6-11.8-20.3-16.6-32.2-10.6C1.4 360.5-3.4 374.9 2.5 386.7L24 376C2.5 386.7 2.5 386.7 2.5 386.7l0 0 0 0 0 .1 .1 .2 .3 .6c.3 .5 .6 1.2 1.1 2c.9 1.7 2.3 3.9 4 6.6c3.4 5.3 8.5 12.5 15.2 19.8C36.1 430.2 58.1 448 88 448c57.4 0 104-46.6 104-104V312c0-53.3-40-97.2-91.6-103.3L172 101.3c4.9-7.4 5.4-16.8 1.2-24.6S160.9 64 152 64H24zM323.2 88c-11.3-21.2-11.3-21.2-11.3-21.2l0 0 0 0-.1 .1-.3 .1-.9 .5c-.7 .4-1.7 1-2.9 1.7c-2.4 1.4-5.7 3.5-9.7 6.1c-7.9 5.3-18.4 13.1-29 23.3c-20.7 19.8-45 51.7-45 93.3v80 16 80c0 44.2 35.8 80 80 80s80-35.8 80-80V272c0-44.2-35.8-80-80-80c-11.4 0-22.2 2.4-32 6.7V192c0-22.3 13.3-42.5 30.2-58.7c8.2-7.8 16.4-14 22.7-18.2c3.1-2.1 5.6-3.7 7.3-4.7c.9-.5 1.5-.9 1.9-1.1l.4-.2 0 0 0 0 0 0 0 0 0 0c11.7-6.2 16.1-20.7 9.9-32.4c-6.2-11.7-20.8-16.1-32.5-9.9L323.2 88zM272 272c0-17.7 14.3-32 32-32s32 14.3 32 32v96c0 17.7-14.3 32-32 32s-32-14.3-32-32V288 272z"/></svg>