<svg xmlns="http://www.w3.org/2000/svg" viewBox="0 0 192 512"><!--! Font Awesome Pro 6.3.0 by @fontawesome - https://fontawesome.com License - https://fontawesome.com/license (Commercial License) Copyright 2023 Fonticons, Inc. --><path d="M72 65.3C72 55.8 79.8 48 89.3 48c8.4 0 15.6 6 17 14.3l18.2 102.1L74.9 79.9C73 76.6 72 72.9 72 69.2V65.3zm-48 0v3.9c0 12.3 3.3 24.4 9.5 35.1l57.3 97.4c8.1 13.8 23 22.3 39 22.3c28.2 0 49.5-25.5 44.6-53.3L153.6 53.8C148.1 22.7 121 0 89.3 0C53.2 0 24 29.2 24 65.3z"/></svg>