<svg xmlns="http://www.w3.org/2000/svg" viewBox="0 0 512 512"><!--! Font Awesome Pro 6.3.0 by @fontawesome - https://fontawesome.com License - https://fontawesome.com/license (Commercial License) Copyright 2023 Fonticons, Inc. --><path d="M51 0H451c13.3 0 24 10.7 24 24s-10.7 24-24 24H51C37.7 48 27 37.3 27 24S37.7 0 51 0zM1.2 232.3C-3.9 194 25.9 160 64.6 160H437.4c38.7 0 68.5 34 63.5 72.3l-29.5 224C467.2 488.2 440 512 407.9 512H94.1c-32.1 0-59.3-23.8-63.5-55.7L1.2 232.3zM64.6 208c-9.7 0-17.1 8.5-15.9 18.1l29.5 224c1 8 7.8 13.9 15.9 13.9H407.9c8 0 14.8-6 15.9-13.9l29.5-224c1.3-9.6-6.2-18.1-15.9-18.1H64.6zM395 336c0 57.4-64.5 104-144 104s-144-46.6-144-104s64.5-104 144-104s144 46.6 144 104zM11 104c0-13.3 10.7-24 24-24H467c13.3 0 24 10.7 24 24s-10.7 24-24 24H35c-13.3 0-24-10.7-24-24zM251 368c17.7 0 32-10.7 32-24s-14.3-24-32-24s-32 10.7-32 24s14.3 24 32 24z"/></svg>