<svg xmlns="http://www.w3.org/2000/svg" viewBox="0 0 384 512"><!--! Font Awesome Pro 6.3.0 by @fontawesome - https://fontawesome.com License - https://fontawesome.com/license (Commercial License) Copyright 2023 Fonticons, Inc. --><path d="M146 80h44.4c27.4 0 49.7 22.2 49.7 49.7c0 16.2-7.9 31.4-21.2 40.7l-61.4 43-47.2-48.5C101.1 155.5 96 143 96 130c0-27.6 22.4-50 50-50zm45.3 168.2l55.1-38.5c26.1-18.3 41.7-48.1 41.7-80C288 75.7 244.3 32 190.3 32H146c-54.1 0-98 43.9-98 98c0 25.5 10 50 27.7 68.3l41.8 43L43.9 292.8C16.4 312 0 343.5 0 377.1C0 433.9 46.1 480 102.9 480h77.8c35.1 0 67.8-17.7 87-47.1l14.6-22.3 60.4 62.1c9.2 9.5 24.4 9.7 33.9 .5s9.7-24.4 .5-33.9l-67.9-69.8 70.8-108.3c7.3-11.1 4.1-26-7-33.2s-26-4.1-33.2 7L275 334.2l-83.7-86zm-39.8 27.9l96.6 99.3-20.5 31.3c-10.3 15.8-28 25.4-46.9 25.4H102.9C72.6 432 48 407.4 48 377.1c0-17.9 8.7-34.7 23.4-45l80-56z"/></svg>