<svg xmlns="http://www.w3.org/2000/svg" viewBox="0 0 384 512"><!--! Font Awesome Pro 6.3.0 by @fontawesome - https://fontawesome.com License - https://fontawesome.com/license (Commercial License) Copyright 2023 Fonticons, Inc. --><path d="M201 47c-9.4-9.4-24.6-9.4-33.9 0L7 207c-9.4 9.4-9.4 24.6 0 33.9s24.6 9.4 33.9 0l143-143L327 241c9.4 9.4 24.6 9.4 33.9 0s9.4-24.6 0-33.9L201 47zM361 399L201 239c-9.4-9.4-24.6-9.4-33.9 0L7 399c-9.4 9.4-9.4 24.6 0 33.9s24.6 9.4 33.9 0l143-143L327 433c9.4 9.4 24.6 9.4 33.9 0s9.4-24.6 0-33.9z"/></svg>