<svg xmlns="http://www.w3.org/2000/svg" viewBox="0 0 640 512"><!--! Font Awesome Pro 6.3.0 by @fontawesome - https://fontawesome.com License - https://fontawesome.com/license (Commercial License) Copyright 2023 Fonticons, Inc. --><path d="M41 15C31.6 5.7 16.4 5.7 7 15S-2.3 39.6 7 49l63 63H32c-13.3 0-24 10.7-24 24s10.7 24 24 24h96c13.3 0 24-10.7 24-24V40c0-13.3-10.7-24-24-24s-24 10.7-24 24V78.1L41 15zM312 352c-64.5 0-113.8-52.1-138.5-96c24.7-43.9 74-96 138.5-96s113.8 52.1 138.5 96c-24.7 43.9-74 96-138.5 96zm0-240c-97.3 0-161.4 81.6-186.5 131.9c-3.8 7.6-3.8 16.5 0 24.2C150.6 318.4 214.7 400 312 400s161.4-81.6 186.5-131.9c3.8-7.6 3.8-16.5 0-24.2C473.4 193.6 409.3 112 312 112zM617 15c-9.4-9.4-24.6-9.4-33.9 0l-63 63V40c0-13.3-10.7-24-24-24s-24 10.7-24 24v96c0 13.3 10.7 24 24 24h96c13.3 0 24-10.7 24-24s-10.7-24-24-24H553.9l63-63c9.4-9.4 9.4-24.6 0-33.9zM41 497l63-63V472c0 13.3 10.7 24 24 24s24-10.7 24-24V376c0-13.3-10.7-24-24-24H32c-13.3 0-24 10.7-24 24s10.7 24 24 24H70.1L7 463c-9.4 9.4-9.4 24.6 0 33.9s24.6 9.4 33.9 0zm576 0c9.4-9.4 9.4-24.6 0-33.9l-63-63H592c13.3 0 24-10.7 24-24s-10.7-24-24-24H496c-13.3 0-24 10.7-24 24v96c0 13.3 10.7 24 24 24s24-10.7 24-24V433.9l63 63c9.4 9.4 24.6 9.4 33.9 0zM312 320a64 64 0 1 0 0-128 64 64 0 1 0 0 128z"/></svg>