<svg xmlns="http://www.w3.org/2000/svg" viewBox="0 0 512 512"><!--! Font Awesome Pro 6.3.0 by @fontawesome - https://fontawesome.com License - https://fontawesome.com/license (Commercial License) Copyright 2023 Fonticons, Inc. --><path d="M416 56V176h24c13.3 0 24 10.7 24 24s-10.7 24-24 24H392 344c-13.3 0-24-10.7-24-24s10.7-24 24-24h24V89.3l-16.4 5.5C339 99 325.4 92.2 321.2 79.6S323.8 53.4 336.4 49.2l48-16c7.3-2.4 15.4-1.2 21.6 3.3s10 11.8 10 19.5zM103 39c9.4-9.4 24.6-9.4 33.9 0l96 96c9.4 9.4 9.4 24.6 0 33.9s-24.6 9.4-33.9 0l-55-55V456c0 13.3-10.7 24-24 24s-24-10.7-24-24V113.9L41 169c-9.4 9.4-24.6 9.4-33.9 0s-9.4-24.6 0-33.9l96-96zM384 304a40 40 0 1 0 0 80 40 40 0 1 0 0-80zM366.1 430.2c-40-8.3-70.1-43.7-70.1-86.2c0-48.6 39.4-88 88-88s88 39.4 88 88c0 21.1-7.3 41.5-20.6 57.8l-56.8 69.4c-8.4 10.3-23.5 11.8-33.8 3.4s-11.8-23.5-3.4-33.8l8.7-10.6z"/></svg>