<svg xmlns="http://www.w3.org/2000/svg" viewBox="0 0 512 512"><!--! Font Awesome Pro 6.3.0 by @fontawesome - https://fontawesome.com License - https://fontawesome.com/license (Commercial License) Copyright 2023 Fonticons, Inc. --><path d="M7 377l96 96c9.4 9.4 24.6 9.4 33.9 0l96-96c9.4-9.4 9.4-24.6 0-33.9s-24.6-9.4-33.9 0l-55 55V56c0-13.3-10.7-24-24-24s-24 10.7-24 24V398.1L41 343c-9.4-9.4-24.6-9.4-33.9 0s-9.4 24.6 0 33.9zm305-89c-13.3 0-24 10.7-24 24s10.7 24 24 24h74.6L294.1 440.1c-6.3 7.1-7.8 17.2-4 25.8S302.6 480 312 480H440c13.3 0 24-10.7 24-24s-10.7-24-24-24H365.4l92.5-104.1c6.3-7.1 7.8-17.2 4-25.8S449.4 288 440 288H312zM376 32c-9.1 0-17.4 5.1-21.5 13.3l-80 160c-5.9 11.9-1.1 26.3 10.7 32.2s26.3 1.1 32.2-10.7L330.8 200H416c1.7 0 3.3-.2 4.9-.5l13.6 27.2c5.9 11.9 20.3 16.7 32.2 10.7s16.7-20.3 10.7-32.2l-80-160C393.4 37.1 385.1 32 376 32zM354.8 152L376 109.7 397.2 152H354.8z"/></svg>