<svg xmlns="http://www.w3.org/2000/svg" viewBox="0 0 448 512"><!--! Font Awesome Pro 6.3.0 by @fontawesome - https://fontawesome.com License - https://fontawesome.com/license (Commercial License) Copyright 2023 Fonticons, Inc. --><path d="M296 32c-13.3 0-24 10.7-24 24s10.7 24 24 24h70.1L224 222.1 81.9 80H152c13.3 0 24-10.7 24-24s-10.7-24-24-24H24C10.7 32 0 42.7 0 56V184c0 13.3 10.7 24 24 24s24-10.7 24-24V113.9L190.1 256 48 398.1V328c0-13.3-10.7-24-24-24s-24 10.7-24 24V456c0 13.3 10.7 24 24 24H152c13.3 0 24-10.7 24-24s-10.7-24-24-24H81.9L224 289.9 366.1 432H296c-13.3 0-24 10.7-24 24s10.7 24 24 24H424c13.3 0 24-10.7 24-24V328c0-13.3-10.7-24-24-24s-24 10.7-24 24v70.1L257.9 256 400 113.9V184c0 13.3 10.7 24 24 24s24-10.7 24-24V56c0-13.3-10.7-24-24-24H296z"/></svg>