<svg xmlns="http://www.w3.org/2000/svg" viewBox="0 0 512 512"><!--! Font Awesome Pro 6.3.0 by @fontawesome - https://fontawesome.com License - https://fontawesome.com/license (Commercial License) Copyright 2023 Fonticons, Inc. --><path d="M456 224c13.3 0 24-10.7 24-24V56c0-13.3-10.7-24-24-24s-24 10.7-24 24v80.1l-20-23.5C371 63.4 309.1 32 240 32C116.3 32 16 132.3 16 256s100.3 224 224 224c50.4 0 97-16.7 134.4-44.8c10.6-8 12.7-23 4.8-33.6s-23-12.7-33.6-4.8C316.2 418.9 279.7 432 240 432c-97.2 0-176-78.8-176-176s78.8-176 176-176c54.3 0 102.9 24.6 135.2 63.4l.1 .2 0 0L402.9 176H312c-13.3 0-24 10.7-24 24s10.7 24 24 24H456z"/></svg>