<svg xmlns="http://www.w3.org/2000/svg" viewBox="0 0 512 512"><!--! Font Awesome Pro 6.3.0 by @fontawesome - https://fontawesome.com License - https://fontawesome.com/license (Commercial License) Copyright 2023 Fonticons, Inc. --><path d="M7 377l96 96c9.4 9.4 24.6 9.4 33.9 0l96-96c9.4-9.4 9.4-24.6 0-33.9s-24.6-9.4-33.9 0l-55 55V56c0-13.3-10.7-24-24-24s-24 10.7-24 24V398.1L41 343c-9.4-9.4-24.6-9.4-33.9 0s-9.4 24.6 0 33.9zm481 78c0-4.5-1.2-9-3.6-12.9L400.2 301.7c-5.1-8.5-14.3-13.7-24.2-13.7s-19.1 5.2-24.2 13.7L267.6 442c-2.3 3.9-3.6 8.4-3.6 12.9c0 13.8 11.2 25.1 25.1 25.1H462.9c13.8 0 25.1-11.2 25.1-25.1zM328 80h96v96H328V80zm94.4 352H329.6L376 354.6 422.4 432zM280 80v96c0 26.5 21.5 48 48 48h96c26.5 0 48-21.5 48-48V80c0-26.5-21.5-48-48-48H328c-26.5 0-48 21.5-48 48z"/></svg>