<svg xmlns="http://www.w3.org/2000/svg" viewBox="0 0 512 512"><!--! Font Awesome Pro 6.3.0 by @fontawesome - https://fontawesome.com License - https://fontawesome.com/license (Commercial License) Copyright 2023 Fonticons, Inc. --><path d="M488 454.9c0 13.8-11.2 25.1-25.1 25.1H289.1c-13.8 0-25.1-11.2-25.1-25.1c0-4.5 1.2-9 3.6-12.9l84.2-140.3c5.1-8.5 14.3-13.7 24.2-13.7s19.1 5.2 24.2 13.7L484.4 442c2.3 3.9 3.6 8.4 3.6 12.9zM328 80v96h96V80H328zm94.4 352L376 354.6 329.6 432h92.8zM280 80c0-26.5 21.5-48 48-48h96c26.5 0 48 21.5 48 48v96c0 26.5-21.5 48-48 48H328c-26.5 0-48-21.5-48-48V80zM103 39c9.4-9.4 24.6-9.4 33.9 0l96 96c9.4 9.4 9.4 24.6 0 33.9s-24.6 9.4-33.9 0l-55-55V456c0 13.3-10.7 24-24 24s-24-10.7-24-24V113.9L41 169c-9.4 9.4-24.6 9.4-33.9 0s-9.4-24.6 0-33.9l96-96z"/></svg>