<svg xmlns="http://www.w3.org/2000/svg" viewBox="0 0 512 512"><!--! Font Awesome Pro 6.3.0 by @fontawesome - https://fontawesome.com License - https://fontawesome.com/license (Commercial License) Copyright 2023 Fonticons, Inc. --><path d="M7 23c9.4-9.4 24.6-9.4 33.9 0l119 119V56c0-13.3 10.7-24 24-24s24 10.7 24 24V200c0 13.3-10.7 24-24 24H40c-13.3 0-24-10.7-24-24s10.7-24 24-24h86.1L7 57C-2.3 47.6-2.3 32.4 7 23zM473 23c9.4 9.4 9.4 24.6 0 33.9l-119 119H440c13.3 0 24 10.7 24 24s-10.7 24-24 24H296c-13.3 0-24-10.7-24-24V56c0-13.3 10.7-24 24-24s24 10.7 24 24v86.1L439 23c9.4-9.4 24.6-9.4 33.9 0zM40 336c-13.3 0-24-10.7-24-24s10.7-24 24-24H184c13.3 0 24 10.7 24 24V456c0 13.3-10.7 24-24 24s-24-10.7-24-24V369.9L41 489c-9.4 9.4-24.6 9.4-33.9 0s-9.4-24.6 0-33.9l119-119H40zm232-24c0-13.3 10.7-24 24-24H440c13.3 0 24 10.7 24 24s-10.7 24-24 24H353.9L473 455c9.4 9.4 9.4 24.6 0 33.9s-24.6 9.4-33.9 0l-119-119V456c0 13.3-10.7 24-24 24s-24-10.7-24-24V312z"/></svg>