<svg xmlns="http://www.w3.org/2000/svg" viewBox="0 0 512 512"><!--! Font Awesome Pro 6.3.0 by @fontawesome - https://fontawesome.com License - https://fontawesome.com/license (Commercial License) Copyright 2023 Fonticons, Inc. --><path d="M480 200c0 13.3-10.7 24-24 24h0H344 312c-13.3 0-24-10.7-24-24s10.7-24 24-24h32 54.1l-52.1-52.1C317.8 95.8 279.7 80 240 80c-72.7 0-135.2 44.1-162 107.1c-5.2 12.2-19.3 17.9-31.5 12.7s-17.9-19.3-12.7-31.5C67.9 88.2 147.4 32 240 32c52.5 0 102.8 20.8 139.9 57.9L432 142.1V88l0-.4V56c0-13.3 10.7-24 24-24s24 10.7 24 24V200zM24 288H136c13.3 0 24 10.7 24 24s-10.7 24-24 24H81.9l52.1 52.1C162.2 416.2 200.3 432 240 432c72.6 0 135-43.9 161.9-106.8c5.2-12.2 19.3-17.8 31.5-12.6s17.8 19.3 12.6 31.5C411.8 424 332.5 480 240 480c-52.5 0-102.8-20.8-139.9-57.9L48 369.9V424c0 13.3-10.7 24-24 24s-24-10.7-24-24V312c0-13.3 10.7-24 24-24z"/></svg>