<svg xmlns="http://www.w3.org/2000/svg" viewBox="0 0 576 512"><!--! Font Awesome Pro 6.3.0 by @fontawesome - https://fontawesome.com License - https://fontawesome.com/license (Commercial License) Copyright 2023 Fonticons, Inc. --><path d="M192 0H32C18.7 0 8 10.7 8 24V184c0 13.3 10.7 24 24 24s24-10.7 24-24V81.9L303 329c9.4 9.4 24.6 9.4 33.9 0s9.4-24.6 0-33.9L89.9 48H192c13.3 0 24-10.7 24-24s-10.7-24-24-24zM304 64c-13.3 0-24 10.7-24 24s10.7 24 24 24c97.2 0 176 78.8 176 176s-78.8 176-176 176s-176-78.8-176-176c0-13.3-10.7-24-24-24s-24 10.7-24 24c0 123.7 100.3 224 224 224s224-100.3 224-224S427.7 64 304 64z"/></svg>