<svg xmlns="http://www.w3.org/2000/svg" viewBox="0 0 512 512"><!--! Font Awesome Pro 6.3.0 by @fontawesome - https://fontawesome.com License - https://fontawesome.com/license (Commercial License) Copyright 2023 Fonticons, Inc. --><path d="M111 473L15 377c-9.4-9.4-9.4-24.6 0-33.9s24.6-9.4 33.9 0l55 55V56c0-13.3 10.7-24 24-24s24 10.7 24 24V398.1l55-55c9.4-9.4 24.6-9.4 33.9 0s9.4 24.6 0 33.9l-96 96c-9.4 9.4-24.6 9.4-33.9 0zM336 368v64h64V368H336zm-48 0c0-26.5 21.5-48 48-48h64c26.5 0 48 21.5 48 48v64c0 26.5-21.5 48-48 48H336c-26.5 0-48-21.5-48-48V368zm48-160H464V80L336 80V208zm-48 0V80c0-26.5 21.5-48 48-48H464c26.5 0 48 21.5 48 48V208c0 26.5-21.5 48-48 48H336c-26.5 0-48-21.5-48-48z"/></svg>