<svg xmlns="http://www.w3.org/2000/svg" viewBox="0 0 512 512"><!--! Font Awesome Pro 6.3.0 by @fontawesome - https://fontawesome.com License - https://fontawesome.com/license (Commercial License) Copyright 2023 Fonticons, Inc. --><path d="M288 256l-15.8-18.1c-5.2 4.6-8.2 11.1-8.2 18.1s3 13.5 8.2 18.1L288 256zM16 424c0 13.3 10.7 24 24 24s24-10.7 24-24H16zM64 88c0-13.3-10.7-24-24-24S16 74.7 16 88H64zm0 168L48.2 237.9C43 242.5 40 249.1 40 256s3 13.5 8.2 18.1L64 256zM254.4 422.6l-15.8 18.1 15.8-18.1zm0-333.1L238.6 71.4l15.8 18.1zm224 0L462.6 71.4l15.8 18.1zM512 418.2V93.8H464V418.2h48zM64 424V88H16V424H64zm224-5.8V93.8H240V418.2h48zM238.6 71.4L48.2 237.9l31.6 36.1L270.2 107.5 238.6 71.4zM48.2 274.1L238.6 440.6l31.6-36.1L79.8 237.9 48.2 274.1zm224 0L462.6 440.6l31.6-36.1L303.8 237.9l-31.6 36.1zM462.6 71.4L272.2 237.9l31.6 36.1L494.2 107.5 462.6 71.4zm0 369.2c5.4 4.8 12.4 7.4 19.6 7.4V400c4.4 0 8.7 1.6 12 4.5l-31.6 36.1zm-224 0c5.4 4.8 12.4 7.4 19.6 7.4V400c4.4 0 8.7 1.6 12 4.5l-31.6 36.1zM258.2 64c-7.2 0-14.2 2.6-19.6 7.4l31.6 36.1c-3.3 2.9-7.6 4.5-12 4.5V64zM288 93.8C288 77.3 274.7 64 258.2 64v48c-10 0-18.2-8.1-18.2-18.2h48zm224 0C512 77.3 498.7 64 482.2 64v48c-10 0-18.2-8.1-18.2-18.2h48zM240 418.2c0-10 8.1-18.2 18.2-18.2v48c16.5 0 29.8-13.3 29.8-29.8H240zM482.2 64c-7.2 0-14.2 2.6-19.6 7.4l31.6 36.1c-3.3 2.9-7.6 4.5-12 4.5V64zM464 418.2c0-10 8.1-18.2 18.2-18.2v48c16.5 0 29.8-13.3 29.8-29.8H464z"/></svg>