<svg xmlns="http://www.w3.org/2000/svg" viewBox="0 0 320 512"><!--! Font Awesome Pro 6.3.0 by @fontawesome - https://fontawesome.com License - https://fontawesome.com/license (Commercial License) Copyright 2023 Fonticons, Inc. --><path d="M64 88c0-13.3-10.7-24-24-24S16 74.7 16 88V226.7v58.6V424c0 13.3 10.7 24 24 24s24-10.7 24-24V318.9L240.7 442.6c5.1 3.5 11.1 5.4 17.3 5.4c16.6 0 30.1-13.5 30.1-30.1V94.1C288 77.5 274.5 64 257.9 64c-6.2 0-12.2 1.9-17.3 5.4L64 193.1V88zm0 172.3v-8.6L240 128.5v255L64 260.3z"/></svg>