<svg xmlns="http://www.w3.org/2000/svg" viewBox="0 0 576 512"><!--! Font Awesome Pro 6.3.0 by @fontawesome - https://fontawesome.com License - https://fontawesome.com/license (Commercial License) Copyright 2023 Fonticons, Inc. --><path d="M245.2 0c10.2 0 19.2 6.9 21.8 16.8l26.4 99.1 84-58.9c8.4-5.9 19.7-5.4 27.5 1.2s10.3 17.6 5.9 26.9l-43.5 92.9 102.2 8.8c10.2 .9 18.5 8.5 20.3 18.6s-3.4 20.1-12.7 24.4l-93 43.2 72.6 72.4c7.2 7.2 8.7 18.4 3.6 27.3s-15.6 13.2-25.4 10.5l-99.1-26.7 9.1 102.2c.9 10.2-5.2 19.7-14.8 23.2s-20.4 .1-26.2-8.3l-58.7-84.1-58.7 84.1c-5.9 8.4-16.6 11.8-26.2 8.3s-15.7-13-14.8-23.2l9.1-102.2L55.4 383.2c-9.9 2.7-20.3-1.7-25.4-10.5s-3.6-20.1 3.6-27.3L106.2 273l-93-43.2C3.9 225.4-1.3 215.4 .5 205.3s10.1-17.7 20.3-18.6L123 177.9 79.5 85c-4.3-9.3-1.9-20.3 5.9-26.9s19.1-7.1 27.5-1.2l84 58.9 26.4-99.1C226 6.9 234.9 0 245.2 0zm0 110.3l-12.9 48.5c-1.9 7.1-7.2 12.9-14.1 15.4s-14.7 1.5-20.7-2.7l-41.1-28.9 21.3 45.5c3.1 6.7 2.8 14.5-.9 20.9s-10.3 10.6-17.6 11.2l-50 4.3 45.5 21.2c6.7 3.1 11.4 9.3 12.7 16.6s-1.1 14.7-6.3 19.9l-35.6 35.5L174 304.5c7.1-1.9 14.7-.2 20.4 4.5s8.6 11.9 8 19.3l-4.4 50 28.8-41.2c4.2-6 11.1-9.7 18.5-9.7s14.3 3.6 18.5 9.7l28.8 41.2-4.4-50c-.7-7.4 2.3-14.6 8-19.3s13.3-6.4 20.4-4.5l48.5 13.1-35.6-35.5c-5.2-5.2-7.6-12.6-6.3-19.9s6-13.5 12.7-16.6l45.5-21.2-50-4.3c-7.4-.6-13.9-4.8-17.6-11.2s-4-14.2-.9-20.9L334 142.6l-41.1 28.9c-6 4.2-13.8 5.3-20.7 2.7s-12.2-8.3-14.1-15.4l-12.9-48.5z"/></svg>