<svg xmlns="http://www.w3.org/2000/svg" viewBox="0 0 640 512"><!--! Font Awesome Pro 6.3.0 by @fontawesome - https://fontawesome.com License - https://fontawesome.com/license (Commercial License) Copyright 2023 Fonticons, Inc. --><path d="M454.8 9l38.4 51.2h86.6c12.5 0 22.6 10.1 22.6 22.6s-10.1 22.6-22.6 22.6H481.9c-7.1 0-13.8-3.3-18.1-9L441.2 66.2l-44.3 94c-3.5 7.4-10.6 12.3-18.8 12.9s-15.9-3.2-20.5-10l-38.5-57.7H203.3c-12.5 0-22.6-10.1-22.6-22.6s10.1-22.6 22.6-22.6h128c7.6 0 14.6 3.8 18.8 10.1l23 34.5L416.3 13c3.4-7.2 10.3-12 18.1-12.9S450 2.7 454.8 9zM271.1 203.3c0-25.7 18.4-47.1 42.7-51.8l18.9 28.3c4.4 6.6 10.1 12 16.7 15.9H323.8c-4.2 0-7.5 3.4-7.5 7.5V346.4H557.2V263.5c0-37.4-30.3-67.8-67.8-67.8H403.6c8.8-5.3 16-13.1 20.5-22.7l10.6-22.4h54.7c62.4 0 112.9 50.6 112.9 112.9V368.9v97.9c0 12.5-10.1 22.6-22.6 22.6s-22.6-10.1-22.6-22.6V391.5H293.6 45.2v67.8c0 12.5-10.1 22.6-22.6 22.6S0 471.8 0 459.3V368.9 82.8C0 70.3 10.1 60.2 22.6 60.2s22.6 10.1 22.6 22.6V346.4H271.1V203.3zm-75.3 30.1a37.6 37.6 0 1 0 -75.3 0 37.6 37.6 0 1 0 75.3 0zm-120.5 0a82.8 82.8 0 1 1 165.6 0 82.8 82.8 0 1 1 -165.6 0z"/></svg>