<svg xmlns="http://www.w3.org/2000/svg" viewBox="0 0 640 512"><!--! Font Awesome Pro 6.3.0 by @fontawesome - https://fontawesome.com License - https://fontawesome.com/license (Commercial License) Copyright 2023 Fonticons, Inc. --><path d="M163.2 0c-1.7 0-3.3 .7-4.5 1.9c-28.2 28.6-45.6 67.8-45.6 111.1c0 24.6 5.6 47.9 15.7 68.7c-20.7 2.2-41.2 8.5-60.4 19.3C35.8 219.1 12.7 247 .5 278.6c-.6 1.6-.4 3.4 .4 4.9c2.1 3.5 7 4 10 1.3C60.6 239.3 148.8 230.6 193 305s-7.6 144.1-73 163c-4 1.1-5.9 5.6-3.9 9c.9 1.5 2.4 2.6 4.2 2.8c34.3 5.6 70.8 .1 103.3-18.1c19.2-10.8 35.2-24.9 47.6-41.3c12.4 16.3 28.3 30.5 47.6 41.3c32.5 18.2 69 23.7 103.3 18.1c1.8-.3 3.3-1.3 4.2-2.8c2.1-3.5 .1-7.9-3.9-9c-65.4-19-117.3-88.7-73-163s132.5-65.6 182.1-20.2c3 2.7 7.9 2.2 10-1.3c.9-1.5 1.1-3.3 .4-4.9c-12.2-31.6-35.3-59.5-67.8-77.7c-19.2-10.7-39.7-17.1-60.4-19.3c10-20.8 15.7-44.1 15.7-68.7c0-43.3-17.4-82.5-45.6-111.1C382.5 .7 380.9 0 379.2 0c-4.7 0-7.9 4.9-6.3 9.4c24.1 66.4-9.9 156.3-101.8 156.3s-125.8-89.9-101.8-156.3C171 4.9 167.9 0 163.2 0zM226 256a45.2 45.2 0 1 1 90.4 0A45.2 45.2 0 1 1 226 256zM171.1 393c3.1-5.8 5.5-12.1 6.9-18.7c-28.1-22.2-48.1-54.1-54.9-90.7c-6.7-2.1-13.5-3.2-20.4-3.5c-8.4-.4-17.1 .5-25.5 2.6c7.3 53.7 36.4 100.5 78.1 131.2c6.4-6.3 11.8-13.3 15.8-20.8zM271.2 60.2c-27.1 0-53 5.5-76.4 15.5c1.9 7.8 4.7 15.3 8.5 22.1c3.6 6.5 8 12.5 13.5 17.7c16.9-6.6 35.3-10.2 54.5-10.2s37.6 3.6 54.5 10.2c5.4-5.2 9.9-11.2 13.5-17.7c3.8-6.8 6.6-14.3 8.5-22.1c-23.5-10-49.3-15.5-76.4-15.5zM419.2 283.6c-6.8 36.6-26.8 68.6-54.9 90.7c1.4 6.6 3.8 12.9 6.9 18.7c4 7.5 9.4 14.5 15.8 20.8c41.7-30.7 70.8-77.4 78.1-131.2c-8.5-2-17.1-2.9-25.5-2.6c-6.9 .3-13.7 1.4-20.4 3.5z"/></svg>