<svg xmlns="http://www.w3.org/2000/svg" viewBox="0 0 576 512"><!--! Font Awesome Pro 6.3.0 by @fontawesome - https://fontawesome.com License - https://fontawesome.com/license (Commercial License) Copyright 2023 Fonticons, Inc. --><path d="M149.1 64.1c4.7-12.4 .2-26.7-10.6-33.4L94.5 3.5c-9.7-6-21.9-4.2-29.8 4.3C-33.6 114-33.6 286 64.7 392.2c7.9 8.5 20.1 10.3 29.8 4.3l44-27.2c10.8-6.7 15.3-21 10.6-33.4l-22-57.8c-4.2-10.9-14.5-17.6-25.3-16.4l-33.3 3.6c-13.6-42.2-13.6-88.4 0-130.7l33.3 3.6c10.9 1.2 21.2-5.5 25.3-16.4l22-57.8zM259.2 336H433.5l28-112H359c-8.8 0-16-7.2-16-16s7.2-16 16-16H469.5l16-64H359c-8.8 0-16-7.2-16-16s7.2-16 16-16H493.5l12-48H235.2l24 288zM557.1 39.8L480.6 345.5C512.8 361 535 393.9 535 432v16c0 35.3-28.7 64-64 64H215c-35.3 0-64-28.7-64-64V432c0-40.5 25.1-75.1 60.6-89.2L187.3 52C185 24 207.1 0 235.2 0H526c20.8 0 36.1 19.6 31 39.8zM199 432v16c0 8.8 7.2 16 16 16H471c8.8 0 16-7.2 16-16V432c0-26.5-21.5-48-48-48H247c-26.5 0-48 21.5-48 48zm144-32a24 24 0 1 1 0 48 24 24 0 1 1 0-48z"/></svg>