<svg xmlns="http://www.w3.org/2000/svg" viewBox="0 0 320 512"><!--! Font Awesome Pro 6.3.0 by @fontawesome - https://fontawesome.com License - https://fontawesome.com/license (Commercial License) Copyright 2023 Fonticons, Inc. --><path d="M150.1 2.1c8.6-3.9 18.7-2.4 25.7 3.9l136 120c5.3 4.7 8.2 11.4 8.1 18.4s-3.3 13.6-8.7 18.1L197.8 256l113.5 93.5c5.4 4.5 8.6 11.1 8.7 18.1s-2.8 13.8-8.1 18.4l-136 120c-7.1 6.2-17.1 7.8-25.7 3.9S136 497.4 136 488V306.9L39.3 386.5c-10.2 8.4-25.4 7-33.8-3.3s-7-25.4 3.3-33.8L122.2 256 8.7 162.5C-1.5 154.1-3 139 5.5 128.7s23.6-11.7 33.8-3.3L136 205.1V24c0-9.4 5.5-18 14.1-21.9zM184 306.9v128l75-66.2-75-61.8zm0-101.7l75-61.8L184 77.2v128z"/></svg>