<svg xmlns="http://www.w3.org/2000/svg" viewBox="0 0 384 512"><!--! Font Awesome Pro 6.3.0 by @fontawesome - https://fontawesome.com License - https://fontawesome.com/license (Commercial License) Copyright 2023 Fonticons, Inc. --><path d="M75 48L49.4 240H206c7.4 0 14.4 3.4 18.9 9.2s6.2 13.4 4.4 20.6l-23 91.8L320.8 192H174c-7.9 0-15.3-3.9-19.8-10.4s-5.4-14.9-2.6-22.2L194.9 48H75zM28.4 34.7C31 14.8 48 0 68 0H206.6c28.1 0 47.5 28.3 37.3 54.5L209.1 144H335.9c32.1 0 51.1 35.8 33.2 62.4l-199.2 295c-6.5 9.7-19 13.2-29.7 8.5s-16.3-16.4-13.5-27.7L175.3 288H40.3C16.1 288-2.6 266.7 .6 242.7l27.7-208z"/></svg>