<svg xmlns="http://www.w3.org/2000/svg" viewBox="0 0 384 512"><!--! Font Awesome Pro 6.3.0 by @fontawesome - https://fontawesome.com License - https://fontawesome.com/license (Commercial License) Copyright 2023 Fonticons, Inc. --><path d="M289.7 0c19.1 0 32.9 18.3 27.6 36.6L263.8 224h85.2c19.3 0 34.9 15.6 34.9 34.9c0 10.3-4.5 20-12.3 26.6L112.9 505.2c-5.2 4.4-11.8 6.8-18.6 6.8c-19.1 0-32.9-18.3-27.6-36.6L120.2 288H33.7C15.1 288 0 272.9 0 254.3c0-9.9 4.3-19.2 11.8-25.6L271.1 6.9C276.3 2.4 282.9 0 289.7 0zM253.6 85L72.4 240H152c7.5 0 14.6 3.5 19.2 9.5s6 13.8 3.9 21L130.3 427.5 313.5 272H232c-7.5 0-14.6-3.5-19.2-9.5s-6-13.8-3.9-21L253.6 85z"/></svg>