<svg xmlns="http://www.w3.org/2000/svg" viewBox="0 0 512 512"><!--! Font Awesome Pro 6.3.0 by @fontawesome - https://fontawesome.com License - https://fontawesome.com/license (Commercial License) Copyright 2023 Fonticons, Inc. --><path d="M13.1 93.6L64 84V56c0-13.3 10.7-24 24-24s24 10.7 24 24V75v35.5 30V176v48h32V176 139.5v-34V69 40c0-13.3 10.7-24 24-24s24 10.7 24 24V60 98v40 38 48h32H464c26.5 0 48 21.5 48 48c0 90.8-54.1 169-131.7 204.2c-8.1 21-28.4 35.8-52.3 35.8H184c-23.8 0-44.2-14.9-52.3-35.8C54.1 441 0 362.8 0 272c0-26.5 21.5-48 48-48H64V176H16.2C7.3 176 0 168.7 0 159.7c0-8.8 7-16 15.7-16.2L64 142V118l-45.5 7.1C8.8 126.6 0 119.1 0 109.3C0 101.6 5.5 95 13.1 93.6zM488.4 176H224V137l263.6-8.2C501 128.3 512 139 512 152.4c0 13-10.6 23.6-23.6 23.6zm3.9-124.9L224 93V54L484.4 5.2C498.7 2.5 512 13.5 512 28.1c0 11.5-8.4 21.2-19.7 23zM151.5 432.5c11.5 5.2 20.4 14.7 25 26.4c1.2 3.1 4.2 5.1 7.5 5.1H328c3.3 0 6.3-2 7.5-5.1c4.5-11.7 13.5-21.2 25-26.4C421.6 404.8 464 343.3 464 272H48c0 71.3 42.4 132.8 103.5 160.5z"/></svg>