<svg xmlns="http://www.w3.org/2000/svg" viewBox="0 0 512 512"><!--! Font Awesome Pro 6.3.0 by @fontawesome - https://fontawesome.com License - https://fontawesome.com/license (Commercial License) Copyright 2023 Fonticons, Inc. --><path d="M48 128H464V80H48v48zM0 64C0 46.3 14.3 32 32 32H480c17.7 0 32 14.3 32 32v80c0 17.7-14.3 32-32 32H32c-17.7 0-32-14.3-32-32V64zM184 224H328c13.3 0 24 10.7 24 24s-10.7 24-24 24H184c-13.3 0-24-10.7-24-24s10.7-24 24-24zM80 176H432h48V128H432 80 32v48H80zm400 32H432V416c0 8.8-7.2 16-16 16H96c-8.8 0-16-7.2-16-16V208H32V416c0 35.3 28.7 64 64 64H416c35.3 0 64-28.7 64-64V208z"/></svg>