<svg xmlns="http://www.w3.org/2000/svg" viewBox="0 0 448 512"><!--! Font Awesome Pro 6.3.0 by @fontawesome - https://fontawesome.com License - https://fontawesome.com/license (Commercial License) Copyright 2023 Fonticons, Inc. --><path d="M240 80a32 32 0 1 0 -64 0 32 32 0 1 0 64 0zM208 208a48 48 0 1 1 0 96 48 48 0 1 1 0-96zm0 144a96 96 0 1 0 0-192 96 96 0 1 0 0 192zm0 112a32 32 0 1 0 0-64 32 32 0 1 0 0 64zM384 288a32 32 0 1 0 0-64 32 32 0 1 0 0 64zM0 256a32 32 0 1 0 64 0A32 32 0 1 0 0 256zM112 128a32 32 0 1 0 -64 0 32 32 0 1 0 64 0zM368 384a32 32 0 1 0 -64 0 32 32 0 1 0 64 0zm0-256a32 32 0 1 0 -64 0 32 32 0 1 0 64 0zM48 384a32 32 0 1 0 64 0 32 32 0 1 0 -64 0z"/></svg>