<svg xmlns="http://www.w3.org/2000/svg" viewBox="0 0 512 512"><!--! Font Awesome Pro 6.3.0 by @fontawesome - https://fontawesome.com License - https://fontawesome.com/license (Commercial License) Copyright 2023 Fonticons, Inc. --><path d="M388.5 134.9c-7.7-8.5-17-17.1-28.6-24.9c.1 .6 .1 1.3 .1 2c0 8.8-7.2 16-16 16s-16-7.2-16-16c0-6.5 3.8-12 9.3-14.6c-19.9-9.1-44.5-15.6-75.3-17.1c1.2 2.3 1.9 4.9 1.9 7.7c0 8.8-7.2 16-16 16s-16-7.2-16-16c0-2.8 .7-5.4 1.9-7.7c-30.7 1.5-55.4 8-75.3 17.1c5.5 2.5 9.3 8.1 9.3 14.6c0 8.8-7.2 16-16 16s-16-7.2-16-16c0-.7 0-1.3 .1-2c-11.6 7.8-21 16.4-28.6 24.9c-12.8 14.2-21.5 29-27.1 41.1H415.6c-5.7-12.1-14.3-26.9-27.1-41.1zM442.9 224H53.1C37 224 24 211 24 194.9c0-1.9 .2-3.7 .6-5.6C29.9 168.3 70.8 32 248 32s218.1 136.3 223.4 157.3c.5 1.9 .6 3.7 .6 5.6c0 16.1-13 29.1-29.1 29.1zM120 432H376c20.9 0 38.7-13.4 45.3-32H74.7c6.6 18.6 24.4 32 45.3 32zM24 384c0-17.7 14.3-32 32-32H440c17.7 0 32 14.3 32 32c0 53-43 96-96 96H120c-53 0-96-43-96-96zm48-56c-20.1 0-35.8-5.1-46.7-10.5c-5.4-2.7-9.6-5.5-12.7-7.8c-1.5-1.1-2.7-2.1-3.7-3c-.5-.4-.9-.8-1.2-1.1l-.4-.4-.2-.2-.1-.1 0 0 0 0c0 0 0 0 17-17L7 305c-9.4-9.4-9.4-24.6 0-33.9c9.2-9.2 24.2-9.4 33.6-.4c.1 .1 .4 .3 .8 .6c1 .7 2.8 1.9 5.3 3.2c5.1 2.5 13.4 5.5 25.3 5.5c8.2 0 15.2-3.8 30-12.6l.2-.1c13.2-7.9 32.3-19.3 57.8-19.3c25.1 0 42.2 11.1 54.1 18.8l1.6 1c12 7.7 19.8 12.2 32.3 12.2c12.2 0 19-4.2 30.7-12l.6-.4c12.3-8.2 29.4-19.6 56.7-19.6c27.2 0 46.1 11.3 59.6 19.6c14.5 9 20.5 12.4 28.4 12.4c11.9 0 20.2-2.9 25.3-5.5c2.6-1.3 4.4-2.5 5.3-3.2c.4-.3 .7-.6 .8-.6c9.4-9 24.3-8.9 33.6 .4c9.4 9.4 9.4 24.6 0 33.9l-17-17c17 17 17 17 17 17l0 0 0 0-.1 .1-.2 .2-.4 .4c-.3 .3-.7 .7-1.2 1.1c-.9 .8-2.1 1.8-3.7 3c-3 2.3-7.2 5.1-12.7 7.8C459.8 322.9 444.1 328 424 328c-22.2 0-39.3-10.7-50.8-17.9c-1-.6-1.9-1.2-2.7-1.7C357.9 300.7 348.8 296 336 296c-12.2 0-19 4.2-30.7 12l-.6 .4C292.4 316.6 275.3 328 248 328c-27.5 0-45.5-11.6-58.3-19.8l0 0C176.8 299.9 170.4 296 160 296c-11 0-19.8 4.5-33.4 12.6l-2.3 1.4c-12.1 7.3-29.9 18-52.2 18z"/></svg>