<svg xmlns="http://www.w3.org/2000/svg" viewBox="0 0 512 512"><!--! Font Awesome Pro 6.3.0 by @fontawesome - https://fontawesome.com License - https://fontawesome.com/license (Commercial License) Copyright 2023 Fonticons, Inc. --><path d="M331.7 96h97.5C413.4 78.9 367.2 48 256 48C153.8 48 101.8 78.3 83.5 96h96.8c5.5-9.6 15.9-16 27.7-16l96 0c11.8 0 22.2 6.4 27.7 16zM432 144H280v80H432V144zM80 144v80H232V144H80zm0 128V376c0 13.3 10.7 24 24 24H332.2 408c13.3 0 24-10.7 24-24V272H80zM42.2 70C67.9 38.7 135.8 0 256 0C384.6 0 446 38.6 470.4 70.6c7.5 9.8 9.6 20.9 9.6 29.9V128c17.7 0 32 14.3 32 32v64c0 17.7-14.3 32-32 32V376c0 25-12.7 47-32 59.9V488c0 13.3-10.7 24-24 24s-24-10.7-24-24V448H332.2 112v40c0 13.3-10.7 24-24 24s-24-10.7-24-24V435.9C44.7 423 32 401 32 376V256c-17.7 0-32-14.3-32-32V160c0-17.7 14.3-32 32-32V100.4C32 91.6 34 80 42.2 70zM144 304a32 32 0 1 1 0 64 32 32 0 1 1 0-64zm224 0a32 32 0 1 1 0 64 32 32 0 1 1 0-64z"/></svg>