<svg xmlns="http://www.w3.org/2000/svg" viewBox="0 0 448 512"><!--! Font Awesome Pro 6.3.0 by @fontawesome - https://fontawesome.com License - https://fontawesome.com/license (Commercial License) Copyright 2023 Fonticons, Inc. --><path d="M216 384a168 168 0 1 0 0-336 168 168 0 1 0 0 336zm0 48c-29.1 0-56.9-5.8-82.2-16.2L96.7 464H335.3l-37.1-48.2C272.9 426.2 245.1 432 216 432zM432 216c0 72.8-36 137.2-91.3 176.4l62.3 81c5.6 7.2 6.5 17 2.5 25.2s-12.4 13.4-21.5 13.4H48c-9.1 0-17.5-5.2-21.5-13.4s-3.1-18 2.5-25.2l62.3-81C36 353.2 0 288.8 0 216C0 96.7 96.7 0 216 0S432 96.7 432 216zm-144 0a72 72 0 1 0 -144 0 72 72 0 1 0 144 0zM96 216a120 120 0 1 1 240 0A120 120 0 1 1 96 216z"/></svg>