<svg xmlns="http://www.w3.org/2000/svg" viewBox="0 0 512 512"><!--! Font Awesome Pro 6.3.0 by @fontawesome - https://fontawesome.com License - https://fontawesome.com/license (Commercial License) Copyright 2023 Fonticons, Inc. --><path d="M199.1 32c-24.1 0-45.5 15.4-53.1 38.3l22.8 7.6-22.8-7.6L137.4 96H64C28.7 96 0 124.7 0 160V416c0 35.3 28.7 64 64 64H448c35.3 0 64-28.7 64-64V160c0-35.3-28.7-64-64-64H374.6l-8.6-25.7C358.4 47.4 337 32 312.9 32H199.1zm-7.6 53.5c1.1-3.3 4.1-5.5 7.6-5.5H312.9c3.4 0 6.5 2.2 7.6 5.5l14 42.1c3.3 9.8 12.4 16.4 22.8 16.4H448c8.8 0 16 7.2 16 16V416c0 8.8-7.2 16-16 16H64c-8.8 0-16-7.2-16-16V160c0-8.8 7.2-16 16-16h90.7c10.3 0 19.5-6.6 22.8-16.4l14-42.1zM298.4 237.6l-15 15c-2.1 2.1-3.3 5-3.3 8c0 6.2 5.1 11.3 11.3 11.3H352c8.8 0 16-7.2 16-16V195.3c0-6.2-5.1-11.3-11.3-11.3c-3 0-5.9 1.2-8 3.3l-16.1 16.1C311.1 185.8 284 176 256 176c-32 0-62.6 12.7-85.3 35.3L167 215c-9.4 9.4-9.4 24.6 0 33.9s24.6 9.4 33.9 0l3.7-3.7C218.3 231.6 236.8 224 256 224c15.3 0 30.1 4.8 42.4 13.6zM144 380.7c0 6.2 5.1 11.3 11.3 11.3c3 0 5.9-1.2 8-3.3l16.1-16.1C200.9 390.2 228 400 256 400c32 0 62.6-12.7 85.3-35.3L345 361c9.4-9.4 9.4-24.6 0-33.9s-24.6-9.4-33.9 0l-3.7 3.7C293.7 344.4 275.2 352 256 352c-15.3 0-30.1-4.8-42.4-13.6l15-15c2.1-2.1 3.3-5 3.3-8c0-6.2-5.1-11.3-11.3-11.3H160c-8.8 0-16 7.2-16 16v60.7z"/></svg>