<svg xmlns="http://www.w3.org/2000/svg" viewBox="0 0 576 512"><!--! Font Awesome Pro 6.3.0 by @fontawesome - https://fontawesome.com License - https://fontawesome.com/license (Commercial License) Copyright 2023 Fonticons, Inc. --><path d="M367.4 5.6c10.2 8.5 11.5 23.6 3 33.8l-59.1 70.7L547 392.1c8.4 10.1 13 22.8 13 35.9v28c0 30.9-25.1 56-56 56H280 56c-30.9 0-56-25.1-56-56V428c0-13.1 4.6-25.8 13-35.9L248.7 110.1 189.6 39.4c-8.5-10.2-7.1-25.3 3-33.8s25.3-7.1 33.8 3L280 72.7 333.6 8.6c8.5-10.2 23.6-11.5 33.8-3zM49.9 422.8c-1.2 1.4-1.9 3.3-1.9 5.1v28c0 4.4 3.6 8 8 8h62L261.1 281.2c4.5-5.8 11.5-9.2 18.9-9.2s14.4 3.4 18.9 9.2L442 464h62c4.4 0 8-3.6 8-8V428c0-1.9-.7-3.7-1.9-5.1L280 147.5 49.9 422.8zM179 464H280 381L280 334.9 179 464z"/></svg>