<svg xmlns="http://www.w3.org/2000/svg" viewBox="0 0 448 512"><!--! Font Awesome Pro 6.3.0 by @fontawesome - https://fontawesome.com License - https://fontawesome.com/license (Commercial License) Copyright 2023 Fonticons, Inc. --><path d="M208 128c26.5 0 48-16 48-48c0-22.2-23-52-37.2-68.2c-5.8-6.7-15.9-6.7-21.7 0C183 28 160 57.8 160 80c0 26.5 21.5 48 48 48zm-70.2 80H278.2c10.1 0 19.2 6.4 22.6 15.9L317.9 272H98.1l17.2-48.1c3.4-9.6 12.5-15.9 22.6-15.9zM41.4 287.9c-.2 .5-.3 .9-.5 1.4C16.2 306.7 0 335.5 0 368v32 16 32 40c0 13.3 10.7 24 24 24s24-10.7 24-24V448H368v40c0 13.3 10.7 24 24 24s24-10.7 24-24V448 416 400 368c0-32.5-16.2-61.3-40.9-78.7c-.1-.5-.3-.9-.5-1.4L346 207.8c-10.2-28.7-37.4-47.8-67.8-47.8H137.8c-30.4 0-57.6 19.1-67.8 47.8L41.4 287.9zM368 368v32H48V368c0-26.5 21.5-48 48-48H320c26.5 0 48 21.5 48 48zM112 384a24 24 0 1 0 0-48 24 24 0 1 0 0 48zm216-24a24 24 0 1 0 -48 0 24 24 0 1 0 48 0zM96 80c0-22.2-23-52-37.2-68.2C53 5.1 43 5.1 37.2 11.8C23 28 0 57.8 0 80c0 26.5 21.5 48 48 48s48-16 48-48zm272 48c26.5 0 48-16 48-48c0-22.2-23-52-37.2-68.2c-5.8-6.7-15.9-6.7-21.7 0C343 28 320 57.8 320 80c0 26.5 21.5 48 48 48z"/></svg>