<svg xmlns="http://www.w3.org/2000/svg" viewBox="0 0 576 512"><!--! Font Awesome Pro 6.3.0 by @fontawesome - https://fontawesome.com License - https://fontawesome.com/license (Commercial License) Copyright 2023 Fonticons, Inc. --><path d="M181.4 80c-17 0-32.1 10.7-37.8 26.8L119.4 176H424.6l-24.2-69.2c-5.6-16-20.8-26.8-37.8-26.8H181.4zM28.8 224H24c-13.3 0-24-10.7-24-24s10.7-24 24-24H68.6L98.3 90.9C110.7 55.6 144 32 181.4 32H362.6c37.4 0 70.7 23.6 83.1 58.9L475.4 176H520c13.3 0 24 10.7 24 24s-10.7 24-24 24h-4.8c8.2 14.1 12.8 30.5 12.8 48v80 48 56c0 13.3-10.7 24-24 24s-24-10.7-24-24V400H64v56c0 13.3-10.7 24-24 24s-24-10.7-24-24V400 352 272c0-17.5 4.7-33.9 12.8-48zm83.2 0c-26.5 0-48 21.5-48 48v80H480V272c0-26.5-21.5-48-48-48H112zM96 288a32 32 0 1 1 64 0 32 32 0 1 1 -64 0zm320-32a32 32 0 1 1 0 64 32 32 0 1 1 0-64z"/></svg>