<svg xmlns="http://www.w3.org/2000/svg" viewBox="0 0 448 512"><!--! Font Awesome Pro 6.3.0 by @fontawesome - https://fontawesome.com License - https://fontawesome.com/license (Commercial License) Copyright 2023 Fonticons, Inc. --><path d="M248 24c0-13.3-10.7-24-24-24s-24 10.7-24 24v80c0 13.3 10.7 24 24 24s24-10.7 24-24V24zM153.8 208H294.2c10.1 0 19.2 6.4 22.6 15.9L333.9 272H114.1l17.2-48.1c3.4-9.6 12.5-15.9 22.6-15.9zM57.4 287.9c-.2 .5-.3 .9-.5 1.4C32.2 306.7 16 335.5 16 368v32 16 32 40c0 13.3 10.7 24 24 24s24-10.7 24-24V448H384v40c0 13.3 10.7 24 24 24s24-10.7 24-24V448 416 400 368c0-32.5-16.2-61.3-40.9-78.7c-.1-.5-.3-.9-.5-1.4L362 207.8c-10.2-28.7-37.4-47.8-67.8-47.8H153.8c-30.4 0-57.6 19.1-67.8 47.8L57.4 287.9zM384 368v32H64V368c0-26.5 21.5-48 48-48H336c26.5 0 48 21.5 48 48zM128 384a24 24 0 1 0 0-48 24 24 0 1 0 0 48zm216-24a24 24 0 1 0 -48 0 24 24 0 1 0 48 0zM7 39C-2.3 48.4-2.3 63.6 7 73l48 48c9.4 9.4 24.6 9.4 33.9 0s9.4-24.6 0-33.9L41 39C31.6 29.7 16.4 29.7 7 39zm400 0L359 87c-9.4 9.4-9.4 24.6 0 33.9s24.6 9.4 33.9 0l48-48c9.4-9.4 9.4-24.6 0-33.9s-24.6-9.4-33.9 0z"/></svg>