<svg xmlns="http://www.w3.org/2000/svg" viewBox="0 0 576 512"><!--! Font Awesome Pro 6.3.0 by @fontawesome - https://fontawesome.com License - https://fontawesome.com/license (Commercial License) Copyright 2023 Fonticons, Inc. --><path d="M490.9 104H478l-.5 0c-.7 0-1.4-.1-2.1-.1C463.3 102.5 454 92.4 454 80s9.3-22.5 21.3-23.9c.7-.1 1.4-.1 2.1-.1l.5 0h12.9 17.6c10.8 0 18.4-10.6 12.5-19.6c-3.6-5.5-7.8-10.5-12.5-14.9c-4.2-3.9-8.8-7.4-13.8-10.3C492.8 10 490.9 9 488.9 8C478.4 2.9 466.5 0 454 0c-29.1 0-54.5 15.5-68.5 38.7c-3.3 5.4-8.9 9.3-15.3 9.3H153.8c-6.4 0-12-3.8-15.3-9.3C124.5 15.5 99.1 0 70 0C57.5 0 45.6 2.9 35.1 8c-2 1-3.9 2-5.8 3.1c-5 2.9-9.6 6.4-13.8 10.3c-4.7 4.4-9 9.4-12.5 14.9C-3 45.4 4.7 56 15.5 56H33.1 46l.5 0c.7 0 1.4 .1 2.1 .1C60.7 57.5 70 67.6 70 80s-9.3 22.5-21.3 23.9c-.7 .1-1.4 .1-2.1 .1l-.5 0H33.1 15.5C4.7 104-3 114.6 2.9 123.6c3.6 5.5 7.8 10.5 12.5 14.9c4.2 3.9 8.8 7.4 13.8 10.3c1.9 1.1 3.8 2.2 5.8 3.1c10.6 5.1 22.4 8 34.9 8c29.1 0 54.5-15.5 68.5-38.7c3.3-5.4 8.9-9.3 15.3-9.3H370.2c6.4 0 12 3.8 15.3 9.3c14 23.2 39.5 38.7 68.5 38.7c12.5 0 24.4-2.9 34.9-8c2-1 3.9-2 5.8-3.1c5-2.9 9.6-6.4 13.8-10.3c4.7-4.4 9-9.4 12.5-14.9c5.9-9-1.7-19.6-12.5-19.6H490.9zM191.8 208H332.2c10.1 0 19.2 6.4 22.6 15.9L371.9 272H152.1l17.2-48.1c3.4-9.6 12.5-15.9 22.6-15.9zM95.4 287.9c-.2 .5-.3 .9-.5 1.4C70.2 306.7 54 335.5 54 368v32 16 32 40c0 13.3 10.7 24 24 24s24-10.7 24-24V448H422v40c0 13.3 10.7 24 24 24s24-10.7 24-24V448 416 400 368c0-32.5-16.2-61.3-40.9-78.7c-.1-.5-.3-.9-.5-1.4L400 207.8c-10.2-28.7-37.4-47.8-67.8-47.8H191.8c-30.4 0-57.6 19.1-67.8 47.8L95.4 287.9zM374 320c26.5 0 48 21.5 48 48v32H102V368c0-26.5 21.5-48 48-48H374zM166 384a24 24 0 1 0 0-48 24 24 0 1 0 0 48zm216-24a24 24 0 1 0 -48 0 24 24 0 1 0 48 0z"/></svg>