<svg xmlns="http://www.w3.org/2000/svg" viewBox="0 0 320 512"><!--! Font Awesome Pro 6.3.0 by @fontawesome - https://fontawesome.com License - https://fontawesome.com/license (Commercial License) Copyright 2023 Fonticons, Inc. --><path d="M184 0c13.3 0 24 10.7 24 24V72.5C245.9 75 281 88 309.9 108.4c10.8 7.7 13.4 22.6 5.7 33.5s-22.6 13.4-33.5 5.7c-20.9-14.8-46.3-24.5-74.1-27V391.4c27.8-2.5 53.2-12.2 74.1-27c10.8-7.7 25.8-5.1 33.5 5.7s5.1 25.8-5.7 33.5C281 424 245.9 437 208 439.5V488c0 13.3-10.7 24-24 24s-24-10.7-24-24V437.2C70 422 0 347.7 0 256S70 90 160 74.8V24c0-13.3 10.7-24 24-24zM48 256c0 63.2 47 117.9 112 132.3V123.7C95 138.1 48 192.8 48 256z"/></svg>