<svg xmlns="http://www.w3.org/2000/svg" viewBox="0 0 448 512"><!--! Font Awesome Pro 6.3.0 by @fontawesome - https://fontawesome.com License - https://fontawesome.com/license (Commercial License) Copyright 2023 Fonticons, Inc. --><path d="M272 48c8.8 0 16 7.2 16 16V224h48V64c0-35.3-28.7-64-64-64H144C108.7 0 80 28.7 80 64V224h48V64c0-8.8 7.2-16 16-16H272zM48 152c0-13.3-10.7-24-24-24s-24 10.7-24 24v64c0 13.3 10.7 24 24 24s24-10.7 24-24V152zm368 0c0-13.3-10.7-24-24-24s-24 10.7-24 24v64c0 13.3 10.7 24 24 24s24-10.7 24-24V152zM232 400H354.5c25.2 0 45.5-20.4 45.5-45.5c0-5.5-1-10.9-2.9-16l-19.2-51.3c-7-18.7-24.9-31.1-44.9-31.1H83.1c-20 0-37.9 12.4-44.9 31.1L18.9 338.5C17 343.6 16 349 16 354.5C16 379.6 36.4 400 61.5 400H184v64H136c-13.3 0-24 10.7-24 24s10.7 24 24 24h72 72c13.3 0 24-10.7 24-24s-10.7-24-24-24H232V400zM83.1 304H332.9l18 48H208 65.1l18-48z"/></svg>