<svg xmlns="http://www.w3.org/2000/svg" viewBox="0 0 320 512"><!--! Font Awesome Pro 6.3.0 by @fontawesome - https://fontawesome.com License - https://fontawesome.com/license (Commercial License) Copyright 2023 Fonticons, Inc. --><path d="M52 0C40.1 0 30 8.7 28.3 20.5L1.7 201C-8.9 272.5 39.8 337.3 108 349.8V464H44c-13.3 0-24 10.7-24 24s10.7 24 24 24h88 88c13.3 0 24-10.7 24-24s-10.7-24-24-24H156V349.8c64.4-12.2 110.8-72.8 102.6-140.6l-22.8-188C234.4 9.1 224.1 0 212 0H52zm8.9 128L72.7 48h118l9.7 80H60.9zm-7.1 48H206.2l4.7 38.9c5.7 47.4-31.2 89.1-78.9 89.1c-51.1 0-90.3-45.4-82.9-96l4.7-32z"/></svg>