<svg xmlns="http://www.w3.org/2000/svg" viewBox="0 0 448 512"><!--! Font Awesome Pro 6.3.0 by @fontawesome - https://fontawesome.com License - https://fontawesome.com/license (Commercial License) Copyright 2023 Fonticons, Inc. --><path d="M233 47c-9.4-9.4-24.6-9.4-33.9 0L7 239c-9.4 9.4-9.4 24.6 0 33.9s24.6 9.4 33.9 0l175-175L391 273c9.4 9.4 24.6 9.4 33.9 0s9.4-24.6 0-33.9L233 47zM425 431L233 239c-9.4-9.4-24.6-9.4-33.9 0L7 431c-9.4 9.4-9.4 24.6 0 33.9s24.6 9.4 33.9 0l175-175L391 465c9.4 9.4 24.6 9.4 33.9 0s9.4-24.6 0-33.9z"/></svg>