<svg xmlns="http://www.w3.org/2000/svg" viewBox="0 0 448 512"><!--! Font Awesome Pro 6.3.0 by @fontawesome - https://fontawesome.com License - https://fontawesome.com/license (Commercial License) Copyright 2023 Fonticons, Inc. --><path d="M7 239c-9.4 9.4-9.4 24.6 0 33.9L199 465c9.4 9.4 24.6 9.4 33.9 0s9.4-24.6 0-33.9L57.9 256 233 81c9.4-9.4 9.4-24.6 0-33.9s-24.6-9.4-33.9 0L7 239zM391 47L199 239c-9.4 9.4-9.4 24.6 0 33.9L391 465c9.4 9.4 24.6 9.4 33.9 0s9.4-24.6 0-33.9l-175-175L425 81c9.4-9.4 9.4-24.6 0-33.9s-24.6-9.4-33.9 0z"/></svg>