<svg xmlns="http://www.w3.org/2000/svg" viewBox="0 0 448 512"><!--! Font Awesome Pro 6.3.0 by @fontawesome - https://fontawesome.com License - https://fontawesome.com/license (Commercial License) Copyright 2023 Fonticons, Inc. --><path d="M425 239c9.4 9.4 9.4 24.6 0 33.9L233 465c-9.4 9.4-24.6 9.4-33.9 0s-9.4-24.6 0-33.9l175-175L199 81c-9.4-9.4-9.4-24.6 0-33.9s24.6-9.4 33.9 0L425 239zM41 47L233 239c9.4 9.4 9.4 24.6 0 33.9L41 465c-9.4 9.4-24.6 9.4-33.9 0s-9.4-24.6 0-33.9l175-175L7 81C-2.3 71.6-2.3 56.4 7 47s24.6-9.4 33.9 0z"/></svg>