<svg xmlns="http://www.w3.org/2000/svg" viewBox="0 0 448 512"><!--! Font Awesome Pro 6.3.0 by @fontawesome - https://fontawesome.com License - https://fontawesome.com/license (Commercial License) Copyright 2023 Fonticons, Inc. --><path d="M199 465c9.4 9.4 24.6 9.4 33.9 0L425 273c9.4-9.4 9.4-24.6 0-33.9s-24.6-9.4-33.9 0l-175 175L41 239c-9.4-9.4-24.6-9.4-33.9 0s-9.4 24.6 0 33.9L199 465zM7 81L199 273c9.4 9.4 24.6 9.4 33.9 0L425 81c9.4-9.4 9.4-24.6 0-33.9s-24.6-9.4-33.9 0l-175 175L41 47C31.6 37.7 16.4 37.7 7 47S-2.3 71.6 7 81z"/></svg>