<svg xmlns="http://www.w3.org/2000/svg" viewBox="0 0 512 512"><!--! Font Awesome Pro 6.3.0 by @fontawesome - https://fontawesome.com License - https://fontawesome.com/license (Commercial License) Copyright 2023 Fonticons, Inc. --><path d="M288 128h80c53 0 96-43 96-96V16c0-8.8-7.2-16-16-16H368c-31 0-58.7 14.7-76.2 37.6c-16.7-3.7-34-5.6-51.8-5.6C107.5 32 0 139.5 0 272S107.5 512 240 512s240-107.5 240-240c0-49.5-15-95.5-40.7-133.7c-13.5 9.1-28.8 15.7-45.3 19.1c23.9 32 38 71.7 38 114.6c0 106-86 192-192 192S48 378 48 272S134 80 240 80c11.2 0 22.2 1 32.9 2.8c-.6 4.3-.9 8.7-.9 13.2v16c0 8.8 7.2 16 16 16z"/></svg>