<svg xmlns="http://www.w3.org/2000/svg" viewBox="0 0 640 512"><!--! Font Awesome Pro 6.3.0 by @fontawesome - https://fontawesome.com License - https://fontawesome.com/license (Commercial License) Copyright 2023 Fonticons, Inc. --><path d="M333 101.3c33.3 16.5 56.7 50.2 58.5 89.5c21.8 10.3 39.5 27.9 50 49.6c3.8 .4 7.7 .5 11.6 .5c32.9 0 62.8-13 84.6-34c4.8-4.6 6-11.7 3-17.6s-9.5-9.2-16-8.1c-4.6 .8-9.4 1.2-14.3 1.2c-46.1 0-83.2-37-83.2-82.3c0-30.6 17-57.5 42.3-71.6c5.8-3.2 8.8-9.9 7.4-16.3S469.9 .9 463.3 .4C459.9 .1 456.4 0 453 0C392.5 0 342.2 43.8 333 101.3zM80.5 395.4c-10.4-6.9-24.4-4.1-31.3 6.3L19.1 446.8c-6.9 10.4-4.1 24.4 6.3 31.3s24.4 4.1 31.3-6.3l30.1-45.2c6.9-10.4 4.1-24.4-6.3-31.3zm90.3 0c-10.4-6.9-24.4-4.1-31.3 6.3l-30.1 45.2c-6.9 10.4-4.1 24.4 6.3 31.3s24.4 4.1 31.3-6.3l30.1-45.2c6.9-10.4 4.1-24.4-6.3-31.3zm90.3 0c-10.4-6.9-24.4-4.1-31.3 6.3l-30.1 45.2c-6.9 10.4-4.1 24.4 6.3 31.3s24.4 4.1 31.3-6.3l30.1-45.2c6.9-10.4 4.1-24.4-6.3-31.3zm90.3 0c-10.4-6.9-24.4-4.1-31.3 6.3l-30.1 45.2c-6.9 10.4-4.1 24.4 6.3 31.3s24.4 4.1 31.3-6.3l30.1-45.2c6.9-10.4 4.1-24.4-6.3-31.3zM120.7 180.7c0-24.9 20.2-45.1 45.2-45.1c21.4 0 39.4 14.9 44 35c1.9 8.4 8.5 15 16.9 16.9s17.2-1.1 22.6-7.8c6.9-8.6 17.5-14 29.3-14c19.1 0 35 14.3 37.3 32.8c.1 .5 .2 1.1 .3 1.6v1c0 .3 0 .5 0 .8c0 .5 0 .9 0 1.4s0 .9 0 1.4c0 .3 0 .5 0 .8v28.4c0 6.6 2.8 12.8 7.8 17.1s11.5 6.2 18 5.3c1.4-.2 2.9-.3 4.3-.3c16.6 0 30.1 13.5 30.1 30.1s-13.5 30.1-30.1 30.1c-.4 0-.8 0-1.2 0c-.2 0-.4 0-.6 0c-.1 0-.2 0-.3 0H93.2c-.3 0-.6 0-.9 0c-.6 0-1.2 0-1.8 0c-25 0-45.2-20.2-45.2-45.2s20.2-45.2 45.2-45.2c1.3 0 2.5 .1 3.8 .2c12.4 1 23.3-8.2 24.4-20.6l1.9-22.4c.1-.8 .1-1.5 .1-2.3zm45.2-90.3c-49.5 0-89.8 39.9-90.3 89.3l-.2 2.4C32.7 189.2 .2 226.3 .2 271c0 49.9 40.5 90.3 90.4 90.3c1 0 2 0 3 0H344c.8 0 1.7 0 2.5 0c41.6 0 75.3-33.7 75.3-75.3c0-36.4-25.9-66.8-60.3-73.8v-6.4c0-.8 0-1.7 0-2.6s0-1.7 0-2.6v-5c0-2.7-.5-5.3-1.4-7.8c-7.2-38.4-40.9-67.5-81.4-67.5c-13.8 0-26.8 3.4-38.2 9.3c-16.3-23.8-43.6-39.5-74.7-39.5z"/></svg>