<svg xmlns="http://www.w3.org/2000/svg" viewBox="0 0 192 512"><!--! Font Awesome Pro 6.3.0 by @fontawesome - https://fontawesome.com License - https://fontawesome.com/license (Commercial License) Copyright 2023 Fonticons, Inc. --><path d="M104 353.4c0-9.6-7.8-17.4-17.4-17.4c-8.4 0-15.6 6-17.1 14.3L50.7 453.6l50.4-85.7c1.9-3.3 2.9-7 2.9-10.7v-3.8zm48 0v3.8c0 12.3-3.3 24.4-9.5 35.1L85.3 489.4C77.1 503.4 62 512 45.8 512H44c-24.3 0-44-19.7-44-44c0-2.6 .2-5.3 .7-7.9L22.2 341.7C27.9 310.6 55 288 86.6 288c36.1 0 65.4 29.3 65.4 65.4z"/></svg>