<svg xmlns="http://www.w3.org/2000/svg" viewBox="0 0 512 512"><!--! Font Awesome Pro 6.3.0 by @fontawesome - https://fontawesome.com License - https://fontawesome.com/license (Commercial License) Copyright 2023 Fonticons, Inc. --><path d="M224.5 64.6c-12-1.7-24.3 .5-35.1 6.2l-74 39.5C104.7 116 96 125 90.6 136L53.9 211.6c-5.4 11-7.1 23.5-5 35.6L63.4 330c2.1 12.1 8 23.2 16.8 31.7l60.3 58.4c8.8 8.5 20 14 32 15.7l83 11.7c12 1.7 24.3-.5 35.1-6.2l74-39.5C375.3 396 384 387 389.4 376l36.7-75.5c5.4-11 7.1-23.5 5-35.6L416.6 182c-2.1-12.1-8-23.2-16.8-31.7L339.5 91.9c-8.8-8.5-20-14-32-15.7l-83-11.7zM166.8 28.4c19.7-10.5 42.3-14.5 64.4-11.4l83 11.7c22.1 3.1 42.7 13.2 58.7 28.7l60.3 58.4c16.1 15.6 26.8 35.8 30.7 57.9l14.6 82.8c3.9 22.1 .7 44.8-9.1 64.9L432.6 397c-9.8 20.1-25.7 36.6-45.4 47.2l-74 39.5c-19.7 10.5-42.3 14.5-64.4 11.4l-83-11.7c-22.1-3.1-42.7-13.2-58.7-28.7L46.8 396.2C30.8 380.6 20 360.3 16.2 338.3L1.6 255.5c-3.9-22.1-.7-44.8 9.1-64.9L47.4 115c9.8-20.1 25.7-36.6 45.4-47.2l74-39.5zM272 128a32 32 0 1 1 64 0 32 32 0 1 1 -64 0zm0 96a32 32 0 1 1 0 64 32 32 0 1 1 0-64zm-96 96a32 32 0 1 1 0 64 32 32 0 1 1 0-64zM144 160a32 32 0 1 1 0 64 32 32 0 1 1 0-64zM304 352a32 32 0 1 1 64 0 32 32 0 1 1 -64 0z"/></svg>