<svg xmlns="http://www.w3.org/2000/svg" viewBox="0 0 384 512"><!--! Font Awesome Pro 6.3.0 by @fontawesome - https://fontawesome.com License - https://fontawesome.com/license (Commercial License) Copyright 2023 Fonticons, Inc. --><path d="M48 256c0-97 79.3-176 177.6-176c45.6 0 87 17 118.5 44.9c9.9 8.8 25.1 7.9 33.9-2s7.9-25.1-2-33.9C336 53.5 283.3 32 225.6 32C101.2 32 0 132.1 0 256S101.2 480 225.6 480c57.7 0 110.4-21.5 150.3-57c9.9-8.8 10.8-24 2-33.9s-24-10.8-33.9-2C312.6 415 271.2 432 225.6 432c-6.3 0-12.5-.3-18.6-1c.7-2.2 1-4.6 1-7V320v-1.8c0-21.1 17.1-38.2 38.2-38.2c10.1 0 19.9 4 27 11.2L279 297c9.4 9.4 24.6 9.4 33.9 0s9.4-24.6 0-33.9l-5.8-5.8c-16.2-16.2-38.1-25.3-61-25.3c-14.1 0-27.4 3.4-39.1 9.4C204.2 231.3 195 224 184 224c-13.3 0-24 10.7-24 24v70.2V320v99.6C94.3 393.7 48 330.1 48 256z"/></svg>