<svg xmlns="http://www.w3.org/2000/svg" viewBox="0 0 448 512"><!--! Font Awesome Pro 6.3.0 by @fontawesome - https://fontawesome.com License - https://fontawesome.com/license (Commercial License) Copyright 2023 Fonticons, Inc. --><path d="M424 0c-13.3 0-24 10.7-24 24l0 464c0 13.3 10.7 24 24 24s24-10.7 24-24l0-464c0-13.3-10.7-24-24-24zM272 368l-96 0 0-224 96 0 0 224zm48-224c0-26.5-21.5-48-48-48l-96 0c-26.5 0-48 21.5-48 48l0 224c0 26.5 21.5 48 48 48l96 0c26.5 0 48-21.5 48-48l0-224zM48 24C48 10.7 37.3 0 24 0S0 10.7 0 24L0 488c0 13.3 10.7 24 24 24s24-10.7 24-24L48 24z"/></svg>