<svg xmlns="http://www.w3.org/2000/svg" viewBox="0 0 512 512"><!--! Font Awesome Pro 6.3.0 by @fontawesome - https://fontawesome.com License - https://fontawesome.com/license (Commercial License) Copyright 2023 Fonticons, Inc. --><path d="M265.9 117c-5.3 13.1-8.6 27.2-9.6 42c-10.8-4.4-21.7-9.7-32.2-16C197 126.8 174.4 105.1 161 76.1c13.9-31.7 29.2-54 40.2-66.8c5.2-6 13.4-7.8 21-5.8c10.9 2.9 18 13.1 18.4 24.4c1.1 33.6 10.7 63.3 25.3 89.1zm-177-6.1c-5 17.6-8.9 41.3-8.9 73.1c0 83.5 45.4 132.3 81.8 158.6c7.5 5.4 11.2 14.6 9.5 23.7s-8.4 16.4-17.3 18.9L54.4 412.4C74.8 433.1 119 463.1 181.2 464l73.4-58.7c4.3-3.4 9.5-5.3 15-5.3H328c57.4 0 104-46.6 104-104V152c0-4.7 1.4-9.4 4-13.3L453.8 112H392c-30.9 0-56 25.1-56 56v63.2c0 6.9-2.9 13.4-8.1 18s-12 6.7-18.8 5.9c-35.7-4.3-86.3-18-132-47c-35-22.2-67.8-53.7-88.2-97.1zM66.1 45.6C71.8 36.9 81.3 32 91.2 32c14.6 0 26.3 10.3 29.3 23.5c11.7 51.9 44.1 87.7 82.3 111.9c28.2 17.8 59 29 85.2 35.1V168c0-57.4 46.6-104 104-104h83.7c20 0 36.3 16.2 36.3 36.3c0 7.2-2.1 14.2-6.1 20.1L480 159.3V296c0 83.9-68.1 152-152 152H278l-69 55.2c-7.1 5.7-15.9 8.8-25 8.8C92.5 512 30.2 461.6 8 432C.1 421.4-2.1 407.6 2.2 395s14.5-22.1 27.3-25.6l68.6-18.7C63.8 315.1 32 261.3 32 184C32 106.2 52.7 66.3 66.1 45.6zM368 160a16 16 0 1 1 32 0 16 16 0 1 1 -32 0z"/></svg>