<svg xmlns="http://www.w3.org/2000/svg" viewBox="0 0 512 512"><!--! Font Awesome Pro 6.3.0 by @fontawesome - https://fontawesome.com License - https://fontawesome.com/license (Commercial License) Copyright 2023 Fonticons, Inc. --><path d="M294 256H442.7c19.5 0 35.3-15.8 35.3-35.3c0-9.4-3.7-18.3-10.3-25L439.9 168 494 113.9c18.7-18.7 18.7-49.1 0-67.9L463.9 16c-18.7-18.7-49.1-18.7-67.9 0L342 70.1 314.3 42.3c-6.6-6.6-15.6-10.3-25-10.3C269.8 32 254 47.8 254 67.3V216c0 22.1 17.9 40 40 40zm95-71l23 23H302V97.9l23 23c9.4 9.4 24.6 9.4 33.9 0l71-71L460.1 80l-71 71c-9.4 9.4-9.4 24.6 0 33.9zM65.3 256C45.8 256 30 271.8 30 291.3c0 9.4 3.7 18.3 10.3 25L68.1 344 14 398.1c-18.7 18.7-18.7 49.1 0 67.9L44.1 496c18.7 18.7 49.1 18.7 67.9 0L166 441.9l27.7 27.7c6.6 6.6 15.6 10.3 25 10.3c19.5 0 35.3-15.8 35.3-35.3V296c0-22.1-17.9-40-40-40H65.3zM119 327l-23-23H206V414.1l-23-23c-9.4-9.4-24.6-9.4-33.9 0l-71 71L47.9 432l71-71c9.4-9.4 9.4-24.6 0-33.9z"/></svg>