<svg xmlns="http://www.w3.org/2000/svg" viewBox="0 0 384 512"><!--! Font Awesome Pro 6.3.0 by @fontawesome - https://fontawesome.com License - https://fontawesome.com/license (Commercial License) Copyright 2023 Fonticons, Inc. --><path d="M192 429.6L334.7 279.7c.8-.8 1.3-2 1.3-3.2c0-2.5-2-4.6-4.6-4.6L248 272c-13.3 0-24-10.7-24-24l0-168-64 0 0 168c0 13.3-10.7 24-24 24l-83.4 0c-2.5 0-4.6 2-4.6 4.6c0 1.2 .5 2.3 1.3 3.2L192 429.6zm30.9 37.2c-8.1 8.5-19.2 13.2-30.9 13.2s-22.8-4.8-30.9-13.2L14.5 312.8C5.2 303.1 0 290.1 0 276.6c0-29 23.5-52.6 52.6-52.6l59.4 0 0-144c0-26.5 21.5-48 48-48l64 0c26.5 0 48 21.5 48 48l0 144 59.4 0c29 0 52.6 23.5 52.6 52.6c0 13.5-5.2 26.5-14.5 36.3L222.9 466.8z"/></svg>