<svg xmlns="http://www.w3.org/2000/svg" viewBox="0 0 128 512"><!--! Font Awesome Pro 6.3.0 by @fontawesome - https://fontawesome.com License - https://fontawesome.com/license (Commercial License) Copyright 2023 Fonticons, Inc. --><path d="M64 72a24 24 0 1 0 0 48 24 24 0 1 0 0-48zm0 88A64 64 0 1 1 64 32a64 64 0 1 1 0 128zm24 96a24 24 0 1 0 -48 0 24 24 0 1 0 48 0zM0 256a64 64 0 1 1 128 0A64 64 0 1 1 0 256zM88 416a24 24 0 1 0 -48 0 24 24 0 1 0 48 0zM0 416a64 64 0 1 1 128 0A64 64 0 1 1 0 416z"/></svg>