<svg xmlns="http://www.w3.org/2000/svg" viewBox="0 0 448 512"><!--! Font Awesome Pro 6.3.0 by @fontawesome - https://fontawesome.com License - https://fontawesome.com/license (Commercial License) Copyright 2023 Fonticons, Inc. --><path d="M384 280a24 24 0 1 1 0-48 24 24 0 1 1 0 48zm0-88a64 64 0 1 0 0 128 64 64 0 1 0 0-128zM224 280a24 24 0 1 1 0-48 24 24 0 1 1 0 48zm0-88a64 64 0 1 0 0 128 64 64 0 1 0 0-128zM88 256a24 24 0 1 1 -48 0 24 24 0 1 1 48 0zM0 256a64 64 0 1 0 128 0A64 64 0 1 0 0 256z"/></svg>