<svg xmlns="http://www.w3.org/2000/svg" viewBox="0 0 512 512"><!--! Font Awesome Pro 6.3.0 by @fontawesome - https://fontawesome.com License - https://fontawesome.com/license (Commercial License) Copyright 2023 Fonticons, Inc. --><path d="M65 319c-9.4 9.4-9.4 24.6 0 33.9l72 72c4.5 4.5 10.6 7 17 7H262.1c6.4 0 12.5-2.5 17-7l65-65L184 200 65 319zM253.1 63c28.1-28.1 73.7-28.1 101.8 0L481 189.1c28.1 28.1 28.1 73.7 0 101.8L339.9 432H488c13.3 0 24 10.7 24 24s-10.7 24-24 24H264v0c-.6 0-1.3 0-1.9 0H153.9c-19.1 0-37.4-7.6-50.9-21.1l-72-72C2.9 358.8 2.9 313.2 31 285.1L253.1 63z"/></svg>