<svg xmlns="http://www.w3.org/2000/svg" viewBox="0 0 576 512"><!--! Font Awesome Pro 6.3.0 by @fontawesome - https://fontawesome.com License - https://fontawesome.com/license (Commercial License) Copyright 2023 Fonticons, Inc. --><path d="M496 256c0 15.2-1.6 30-4.7 44.3c14.9-9.7 33-13.9 50.7-11.7c1.4-10.7 2.1-21.5 2.1-32.5C544 114.6 429.4 0 288 0S32 114.6 32 256c0 11 .7 21.9 2.1 32.6c17.7-2.2 35.7 2 50.7 11.7C81.6 286 80 271.2 80 256C80 141.1 173.1 48 288 48s208 93.1 208 208zM288 464c-41.6 0-80.4-12.2-112.9-33.3c6.9 20.3 11.7 41.1 14.8 61.8C220.1 505.1 253.2 512 288 512c34.8 0 68-6.9 98.2-19.5c3.1-20.7 7.9-41.5 14.8-61.8C368.5 451.8 329.7 464 288 464zM504.7 330.1C450.8 375 423 443.6 416 512l109.8 0c-.4-50.5 16.7-85.7 43.2-125.7c13.1-19.8 7.6-46.3-12.4-59.3c-16.4-10.6-37.6-8.8-51.8 3.1zM151.3 282.7c27.3 14.9 67.6-2.9 90.1-39.8s18.6-78.8-8.7-93.7s-67.6 2.9-90.1 39.8s-18.6 78.8 8.7 93.7zM288 304c-26.5 0-48 21.5-48 48v32c0 26.5 21.5 48 48 48s48-21.5 48-48V352c0-26.5-21.5-48-48-48zm46.6-61c22.5 36.9 62.8 54.7 90.1 39.8s31.1-56.9 8.7-93.7s-62.8-54.7-90.1-39.8s-31.1 56.9-8.7 93.7zM71.4 330.1C57.1 318.2 36 316.4 19.6 327C-.5 340-6 366.5 7.1 386.2c26.4 40 43.6 75.3 43.2 125.7L160 512c-7-68.4-34.8-137-88.7-181.9z"/></svg>