<svg xmlns="http://www.w3.org/2000/svg" viewBox="0 0 512 512"><!--! Font Awesome Pro 6.3.0 by @fontawesome - https://fontawesome.com License - https://fontawesome.com/license (Commercial License) Copyright 2023 Fonticons, Inc. --><path d="M193 0c-36.8 0-67.4 64.9-82.4 109.8C77 99.3 47 84.6 22.1 66.8C19.6 65 16.7 64 13.7 64C4.7 64-2 72.3 .8 80.7C27.8 163.2 121.5 224 233 224s205.2-60.8 232.2-143.3C468 72.3 461.3 64 452.3 64c-3 0-6 1-8.4 2.8C419 84.6 389 99.3 355.4 109.8C340.4 64.9 309.8 0 273 0c-9.1 0-17.9 4-26.1 10.7c-7.9 6.5-19.8 6.5-27.7 0C210.9 4 202.1 0 193 0zM52.8 200C35.1 230.6 25 266.1 25 304c0 114.9 93.1 208 208 208s208-93.1 208-208c0-37.9-10.1-73.4-27.8-104c-12.8 9.3-26.6 17.5-41.2 24.6c13.4 23.4 21 50.5 21 79.3c0 88.4-71.6 160-160 160s-160-71.6-160-160c0-28.9 7.6-55.9 21-79.3c-14.6-7.1-28.4-15.4-41.2-24.6zM343.4 367.5c5.7-11.5-6.2-22.2-18.6-18.8c-27.9 7.8-59 12.2-91.6 12.2s-63.7-4.3-91.6-12.2c-12.4-3.5-24.3 7.3-18.6 18.8C143.2 408.1 185 436 233.2 436s90-27.9 110.2-68.6zM169 304a24 24 0 1 0 0-48 24 24 0 1 0 0 48zm152-24a24 24 0 1 0 -48 0 24 24 0 1 0 48 0z"/></svg>