<svg xmlns="http://www.w3.org/2000/svg" viewBox="0 0 576 512"><!--! Font Awesome Pro 6.3.0 by @fontawesome - https://fontawesome.com License - https://fontawesome.com/license (Commercial License) Copyright 2023 Fonticons, Inc. --><path d="M274 48C159.1 48 66 141.1 66 256s93.1 208 208 208c65.9 0 124.7-30.7 162.8-78.5c1.5-1.3 3-2.6 4.4-4L526 301.1C504.8 421 400 512 274 512C132.6 512 18 397.4 18 256S132.6 0 274 0c97 0 181.4 54 224.8 133.5c-16.5-.3-33.1 4.4-47.3 14.1C415 87.8 349.1 48 274 48zM532.8 180.1c19.8 19.8 19.4 52.1-.9 71.4L401.1 376.1c-1.2 4.2-3.4 8.1-6.8 11.2c-9.7 9-24.9 8.4-33.9-1.4C345.2 369.5 319.2 352 282 352s-63.2 17.5-78.4 33.9c-9 9.7-24.2 10.4-33.9 1.4s-10.4-24.2-1.4-33.9c22-23.8 60-49.4 113.6-49.4c16.2 0 31.1 2.3 44.4 6.3L463 179.4c19.6-18.8 50.6-18.4 69.8 .7zM387.3 345l28-26.7-5.8-5.8c-4.7-4.7-4.7-12.3 0-17s12.3-4.7 17 0l6.3 6.3 15.4-14.7-6.6-6.6c-4.7-4.7-4.7-12.3 0-17s12.3-4.7 17 0l7 7 15.4-14.7-7.4-7.4c-4.7-4.7-4.7-12.3 0-17s12.3-4.7 17 0l7.8 7.8 11.5-11c7.3-6.9 7.4-18.5 .3-25.6c-6.9-6.9-18-7-25-.3L358.5 323.9c11.2 6.3 20.8 13.7 28.9 21.1zm-193-169a32 32 0 1 1 0 64 32 32 0 1 1 0-64zm128 32a32 32 0 1 1 64 0 32 32 0 1 1 -64 0z"/></svg>