<svg xmlns="http://www.w3.org/2000/svg" viewBox="0 0 640 512"><!--! Font Awesome Pro 6.3.0 by @fontawesome - https://fontawesome.com License - https://fontawesome.com/license (Commercial License) Copyright 2023 Fonticons, Inc. --><path d="M472.4 145.7c.4-.5 .9-1 1.4-1.4c12.9-12.9 31.8-16.1 47.7-9.6C478.2 54.5 393.5 0 296 0C224.5 0 159.8 29.3 113.3 76.6c7.7 1.8 14.9 5.7 20.9 11.7c6.6 6.6 10.6 14.7 12.2 23.2C184.2 72.3 237.3 48 296 48c74.4 0 139.6 39 176.4 97.7zm40.7 246c-5.4 .7-10.8 1.1-16.3 1.1H452.6C414.5 436.5 358.5 464 296 464c-79.9 0-149.3-45-184.1-111.1H95.2c-13.3 0-26.4-2.2-38.8-6.5C93 443.2 186.4 512 296 512c91.5 0 171.8-48 217.1-120.2zM328.8 264c-10.4-10.2-16.8-24.3-16.8-40c0-28.5 21.2-52 48.7-55.5c1-5.5 3.3-10.9 6.7-15.7c5.1-7.1 12.1-12.1 19.7-14.6c-6.2-1.4-12.6-2.1-19.2-2.1c-48.6 0-88 39.4-88 88c0 40.3 27.1 74.3 64.1 84.7c.1-1.4 .3-2.8 .6-4.2C334.6 297.3 328 285.4 328 272c0-2.7 .3-5.4 .8-8zM296 432c35.3 0 64-21.5 64-48s-28.7-48-64-48s-64 21.5-64 48s28.7 48 64 48zm90.3-192c3.8-4.2 6.1-9.9 6.1-16c0-13.3-10.7-24-24-24s-24 10.7-24 24c0 6.1 2.3 11.8 6.1 16h35.8zM224 192c0-8.8-7.2-16-16-16H94.2c-7.1 0-10.7-8.6-5.7-13.7l28.8-28.8c7.8-7.8 7.8-20.5 0-28.3s-20.5-7.8-28.3 0L27.9 166.4l-.8 .8C-9.3 204.4-9 264.1 27.9 301c17.9 17.9 42.1 27.9 67.3 27.9H160c8.8 0 16-7.2 16-16s-7.2-16-16-16H146c-2.5 0-4.5-2-4.5-4.5s2-4.5 4.5-4.5h62c8.8 0 16-7.2 16-16s-7.2-16-16-16H145.6c-2.2 0-4-1.8-4-4s1.8-4 4-4l78.4 0c8.8 0 16-7.2 16-16s-7.2-16-16-16H145.6c-2.2 0-4-1.8-4-4s1.8-4 4-4l62.4 0c8.8 0 16-7.2 16-16zm163-25.3c-5.1 7.2-3.5 17.2 3.7 22.3l59.7 42.6c3.5 2.5 5.6 6.6 5.6 10.9c0 7.4-6 13.4-13.4 13.4L368 256c-8.8 0-16 7.2-16 16s7.2 16 16 16h84c2.2 0 4 1.8 4 4s-1.8 4-4 4H384c-8.8 0-16 7.2-16 16s7.2 16 16 16l67.5 0c2.5 0 4.5 2 4.5 4.5s-2 4.5-4.5 4.5H432c-8.8 0-16 7.2-16 16s7.2 16 16 16h64.8c25.2 0 49.5-10 67.3-27.9c36.9-36.9 37.2-96.6 .8-133.8l-.8-.8L519 161.3c-7.8-7.8-20.5-7.8-28.3 0s-7.8 20.5 0 28.3l14.8 14.8c6.6 6.6 2.7 18-6.6 19c-2.8 .3-5.6-.4-7.8-2L409.3 163c-7.2-5.1-17.2-3.5-22.3 3.7z"/></svg>