<svg xmlns="http://www.w3.org/2000/svg" viewBox="0 0 512 512"><!--! Font Awesome Pro 6.3.0 by @fontawesome - https://fontawesome.com License - https://fontawesome.com/license (Commercial License) Copyright 2023 Fonticons, Inc. --><path d="M43 64a64 64 0 1 1 128 0A64 64 0 1 1 43 64zM84.6 208c-16.6 0-30.5 12.8-31.9 29.3l-4.1 49.3C47.8 296 55.2 304 64.6 304H67h60.6c-3 10.1-4.6 20.9-4.6 32v16H91V488c0 13.3-10.7 24-24 24s-24-10.7-24-24V348.3C16.5 338.8-1.7 312.4 .8 282.7l4.1-49.3C8.3 191.9 43 160 84.6 160h44.8c9.2 0 18.1 1.6 26.4 4.5c-.5 3.8-.8 7.6-.8 11.5c0 11.4 2.4 22.2 6.7 32H129.4 107 84.6zM315 176c0-3.9-.3-7.8-.8-11.5c8.3-2.9 17.2-4.5 26.4-4.5h44.8c41.6 0 76.3 31.9 79.7 73.4l4.1 49.3c2.5 29.8-15.7 56.1-42.2 65.6V488c0 13.3-10.7 24-24 24s-24-10.7-24-24V352H347V336c0-11.1-1.6-21.9-4.6-32H403h2.4c9.4 0 16.7-8 15.9-17.3l-4.1-49.3C415.9 220.8 402 208 385.4 208H363 340.6 308.3c4.3-9.8 6.7-20.6 6.7-32zM299 64a64 64 0 1 1 128 0A64 64 0 1 1 299 64zm-64 64a48 48 0 1 1 0 96 48 48 0 1 1 0-96zm32 208c0-17.7-14.3-32-32-32s-32 14.3-32 32v16c0 8.8 7.2 16 16 16h16 16c8.8 0 16-7.2 16-16V336zm48 16c0 24-13.2 44.9-32.7 55.8c.5 2.7 .7 5.4 .7 8.2v64c0 17.7-14.3 32-32 32H219c-17.7 0-32-14.3-32-32V416c0-2.8 .2-5.5 .7-8.2C168.2 396.9 155 376 155 352V336c0-44.2 35.8-80 80-80s80 35.8 80 80v16z"/></svg>