<svg xmlns="http://www.w3.org/2000/svg" viewBox="0 0 512 512"><!--! Font Awesome Pro 6.3.0 by @fontawesome - https://fontawesome.com License - https://fontawesome.com/license (Commercial License) Copyright 2023 Fonticons, Inc. --><path d="M182 64A64 64 0 1 0 54 64a64 64 0 1 0 128 0zM95.6 208H118h22.4 32.3c-4.3-9.8-6.7-20.6-6.7-32c0-3.9 .3-7.8 .8-11.5c-8.3-2.9-17.2-4.5-26.4-4.5H95.6c-41.6 0-76.3 31.9-79.7 73.4l-4.1 49.3C9.3 312.4 27.5 338.8 54 348.3V488c0 13.3 10.7 24 24 24s24-10.7 24-24V352h32V336c0-11.1 1.6-21.9 4.6-32H78 75.6c-9.4 0-16.7-8-15.9-17.3l4.1-49.3C65.1 220.8 79 208 95.6 208zM326 176c0 11.4-2.4 22.2-6.7 32h38.9H374h15.7c7.1 0 13.4 4.7 15.4 11.6L438.4 336H358v16c0 11.2-1.9 22-5.5 32H390V488c0 13.3 10.7 24 24 24s24-10.7 24-24V384h21.6c21.3 0 36.6-20.3 30.8-40.8L451.3 206.4c-7.8-27.5-33-46.4-61.5-46.4H358.3c-11.8 0-23 3.2-32.6 8.9c.2 2.3 .3 4.7 .3 7.1zM438 64A64 64 0 1 0 310 64a64 64 0 1 0 128 0zM246 224a48 48 0 1 0 0-96 48 48 0 1 0 0 96zm32 112v16c0 8.8-7.2 16-16 16H246 230c-8.8 0-16-7.2-16-16V336c0-17.7 14.3-32 32-32s32 14.3 32 32zm48 16V336c0-44.2-35.8-80-80-80s-80 35.8-80 80v16c0 24 13.2 44.9 32.7 55.8c-.5 2.7-.7 5.4-.7 8.2v64c0 17.7 14.3 32 32 32h32c17.7 0 32-14.3 32-32V416c0-2.8-.2-5.5-.7-8.2C312.8 396.9 326 376 326 352z"/></svg>