<svg xmlns="http://www.w3.org/2000/svg" viewBox="0 0 384 512"><!--! Font Awesome Pro 6.3.0 by @fontawesome - https://fontawesome.com License - https://fontawesome.com/license (Commercial License) Copyright 2023 Fonticons, Inc. --><path d="M320 464H64c-8.8 0-16-7.2-16-16V416H0v32c0 35.3 28.7 64 64 64H320c35.3 0 64-28.7 64-64V416H336v32c0 8.8-7.2 16-16 16zm16-304v32h48V154.5c0-17-6.7-33.3-18.7-45.3L274.7 18.7C262.7 6.7 246.5 0 229.5 0H64C28.7 0 0 28.7 0 64V192H48V64c0-8.8 7.2-16 16-16H224v80c0 17.7 14.3 32 32 32h80zM80 224c-22.1 0-40 17.9-40 40v80c0 22.1 17.9 40 40 40H96c22.1 0 40-17.9 40-40v-8c0-8.8-7.2-16-16-16s-16 7.2-16 16v8c0 4.4-3.6 8-8 8H80c-4.4 0-8-3.6-8-8V264c0-4.4 3.6-8 8-8H96c4.4 0 8 3.6 8 8v8c0 8.8 7.2 16 16 16s16-7.2 16-16v-8c0-22.1-17.9-40-40-40H80zm72 46.4c0 16.6 8.9 32 23.4 40.3l25.4 14.5c4.5 2.6 7.2 7.3 7.2 12.5c0 7.9-6.4 14.4-14.4 14.4H168c-8.8 0-16 7.2-16 16s7.2 16 16 16h25.6c25.6 0 46.4-20.8 46.4-46.4c0-16.6-8.9-32-23.4-40.3l-25.4-14.5c-4.5-2.6-7.2-7.3-7.2-12.5c0-7.9 6.4-14.4 14.4-14.4H216c8.8 0 16-7.2 16-16s-7.2-16-16-16H198.4c-25.6 0-46.4 20.8-46.4 46.4zM280 240c0-8.8-7.2-16-16-16s-16 7.2-16 16v31.6c0 34.7 10.3 68.7 29.6 97.6l5.1 7.7c3 4.5 8 7.1 13.3 7.1s10.3-2.7 13.3-7.1l5.1-7.7c19.3-28.9 29.6-62.9 29.6-97.6V240c0-8.8-7.2-16-16-16s-16 7.2-16 16v31.6c0 23-5.5 45.6-16 66c-10.5-20.3-16-42.9-16-66V240z"/></svg>