<svg xmlns="http://www.w3.org/2000/svg" viewBox="0 0 512 512"><!--! Font Awesome Pro 6.3.0 by @fontawesome - https://fontawesome.com License - https://fontawesome.com/license (Commercial License) Copyright 2023 Fonticons, Inc. --><path d="M71 7C61.6-2.3 46.4-2.3 37 7s-9.4 24.6 0 33.9l89.4 89.4L28.6 228.1c-37.5 37.5-37.5 98.3 0 135.8L146.1 481.4c37.5 37.5 98.3 37.5 135.8 0L472.3 290.9c28.1-28.1 28.1-73.7 0-101.8L320.9 37.7c-28.1-28.1-73.7-28.1-101.8 0L160.3 96.4 71 7zm89.4 157.3L229 233c9.4 9.4 24.6 9.4 33.9 0s9.4-24.6 0-33.9l-68.7-68.7L253 71.6c9.4-9.4 24.6-9.4 33.9 0L438.4 223c9.4 9.4 9.4 24.6 0 33.9l-31 31H49.2c1.6-9.5 6.1-18.6 13.4-25.9l97.8-97.8z"/></svg>