<svg xmlns="http://www.w3.org/2000/svg" viewBox="0 0 384 512"><!--! Font Awesome Pro 6.3.0 by @fontawesome - https://fontawesome.com License - https://fontawesome.com/license (Commercial License) Copyright 2023 Fonticons, Inc. --><path d="M176 0c-17.7 0-32 14.3-32 32v4C99 47.6 63.6 83 52 128H40c-13.3 0-24 10.7-24 24s10.7 24 24 24H312c13.3 0 24-10.7 24-24s-10.7-24-24-24H300c-11.6-45-47-80.4-92-92V32c0-17.7-14.3-32-32-32zM40 464c-13.3 0-24 10.7-24 24s10.7 24 24 24H312c13.3 0 24-10.7 24-24s-10.7-24-24-24h-8V384h16c17.7 0 32-14.3 32-32V288c0-17.7-14.3-32-32-32H304V208H256V464H96V208H48v48H32c-17.7 0-32 14.3-32 32v64c0 17.7 14.3 32 32 32H48v80H40zM232 320a56 56 0 1 0 -112 0 56 56 0 1 0 112 0z"/></svg>