<svg xmlns="http://www.w3.org/2000/svg" viewBox="0 0 448 512"><!--! Font Awesome Pro 6.3.0 by @fontawesome - https://fontawesome.com License - https://fontawesome.com/license (Commercial License) Copyright 2023 Fonticons, Inc. --><path d="M160 48h96V157.7c0 24.3 13.5 44.9 32.3 55.9C336.1 241.4 368 293 368 352c0 43.1-17 82.1-44.7 110.9c-.1 .1-.3 .2-.8 .4c-.9 .4-2.5 .7-4.8 .7H98.2c-2.2 0-3.8-.4-4.8-.7c-.4-.2-.7-.3-.8-.4C65 434.1 48 395.1 48 352c0-59 31.9-110.6 79.7-138.4c18.8-11 32.3-31.6 32.3-55.9V48zM304 157.7V48h8c13.3 0 24-10.7 24-24s-10.7-24-24-24H288 128 104C90.7 0 80 10.7 80 24s10.7 24 24 24h8V157.7c0 6-3.3 11.4-8.5 14.4C41.6 208.2 0 275.2 0 352c0 56 22.1 106.9 58.2 144.3C68.5 507 83.3 512 98.2 512H317.8c15 0 29.7-5 40.1-15.7C393.9 458.9 416 408 416 352c0-76.8-41.6-143.8-103.5-179.9c-5.2-3-8.5-8.4-8.5-14.4zM270.8 378.4c15.6-13 25.2-30.8 25.2-50.4c0-39.8-39.4-72-88-72s-88 32.2-88 72c0 19.6 9.6 37.4 25.2 50.4c4.1 3.4 6.8 8.3 6.8 13.6v8c0 8.8 7.2 16 16 16h80c8.8 0 16-7.2 16-16v-8c0-5.3 2.7-10.2 6.8-13.6zM176 312a16 16 0 1 1 0 32 16 16 0 1 1 0-32zm48 16a16 16 0 1 1 32 0 16 16 0 1 1 -32 0z"/></svg>