<svg xmlns="http://www.w3.org/2000/svg" viewBox="0 0 576 512"><!--! Font Awesome Pro 6.3.0 by @fontawesome - https://fontawesome.com License - https://fontawesome.com/license (Commercial License) Copyright 2023 Fonticons, Inc. --><path d="M467.2 9.6c8 10.6 5.8 25.6-4.8 33.6l-122.7 92c-2.6 2-5.1 4.1-7.4 6.4l-1.9 1.9C318.6 155.3 312 171.3 312 188s6.6 32.7 18.4 44.5l6.5 6.5 0 0 0 0 6.5 6.5C355.3 257.4 371.3 264 388 264s32.7-6.6 44.5-18.4l1.9-1.9c2.3-2.3 4.5-4.8 6.4-7.4l92-122.7c8-10.6 23-12.8 33.6-4.8s12.8 23 4.8 33.6l-92 122.7c-3.3 4.4-7 8.6-10.9 12.6l-1.9 1.9c-20.8 20.8-49 32.5-78.4 32.5c-24.5 0-48.1-8.1-67.3-22.8L105 505c-9.4 9.4-24.6 9.4-33.9 0s-9.4-24.6 0-33.9L286.8 255.3C272.1 236.1 264 212.5 264 188c0-29.4 11.7-57.6 32.5-78.4l1.9-1.9c3.9-3.9 8.1-7.6 12.6-10.9l122.7-92c10.6-8 25.6-5.8 33.6 4.8zM521 55c9.4 9.4 9.4 24.6 0 33.9L405 205c-9.4 9.4-24.6 9.4-33.9 0s-9.4-24.6 0-33.9L487 55c9.4-9.4 24.6-9.4 33.9 0zM388 344l1.3 0 127 127c4.5 4.5 7 10.6 7 17c0 13.3-10.7 24-24 24c-6.4 0-12.5-2.5-17-7L316.3 338.9l9.3-9.3C344.8 339 366.2 344 388 344zM237.1 259.7L49.9 72.5C48.7 81.1 48 89.2 48 96c0 32.5 9.3 56.9 29.4 84.3c19.4 26.5 46.8 53.4 85.2 90.9l0 0 0 0c5.2 5.1 10.6 10.4 16.3 16c5.8 5.7 13.4 8.8 21.1 8.8c.3 0 .5 0 .8 0l-38.3 38.3c-6.3-3.4-12.1-7.8-17.3-12.9c-5.6-5.5-11-10.8-16.3-16C48.2 226.5 0 179.3 0 96C0 71.5 6.7 38.6 11.4 18.4C13.9 7.5 23.8 0 34.9 0c6.6 0 12.9 2.6 17.6 7.3L232 186.8l0 1.2c0 21.8 5 43.2 14.4 62.4l-9.3 9.3z"/></svg>