<svg xmlns="http://www.w3.org/2000/svg" viewBox="0 0 320 512"><!--! Font Awesome Pro 6.3.0 by @fontawesome - https://fontawesome.com License - https://fontawesome.com/license (Commercial License) Copyright 2023 Fonticons, Inc. --><path d="M224 88c0-13.3 10.7-24 24-24s24 10.7 24 24V226.7v58.6V424c0 13.3-10.7 24-24 24s-24-10.7-24-24V318.9L47.3 442.6c-5.1 3.5-11.1 5.4-17.3 5.4C13.5 448 0 434.5 0 417.9V94.1C0 77.5 13.5 64 30.1 64c6.2 0 12.2 1.9 17.3 5.4L224 193.1V88zm0 172.3v-8.6L48 128.5v255L224 260.3z"/></svg>