<svg xmlns="http://www.w3.org/2000/svg" viewBox="0 0 512 512"><!--! Font Awesome Pro 6.3.0 by @fontawesome - https://fontawesome.com License - https://fontawesome.com/license (Commercial License) Copyright 2023 Fonticons, Inc. --><path d="M224 256l15.8-18.1c5.2 4.6 8.2 11.1 8.2 18.1s-3 13.5-8.2 18.1L224 256zM496 424c0 13.3-10.7 24-24 24s-24-10.7-24-24h48zM448 88c0-13.3 10.7-24 24-24s24 10.7 24 24H448zm0 168l15.8-18.1c5.2 4.6 8.2 11.1 8.2 18.1s-3 13.5-8.2 18.1L448 256zM257.6 422.6l15.8 18.1-15.8-18.1zm0-333.1l15.8-18.1L257.6 89.4zm-224 0L49.4 71.4 33.6 89.4zM0 418.2V93.8H48V418.2H0zM448 424V88h48V424H448zm-224-5.8V93.8h48V418.2H224zM273.4 71.4L463.8 237.9l-31.6 36.1L241.8 107.5l31.6-36.1zM463.8 274.1L273.4 440.6l-31.6-36.1L432.2 237.9l31.6 36.1zm-224 0L49.4 440.6 17.8 404.5 208.2 237.9l31.6 36.1zM49.4 71.4L239.8 237.9l-31.6 36.1L17.8 107.5 49.4 71.4zm0 369.2C44 445.4 37 448 29.8 448V400c-4.4 0-8.7 1.6-12 4.5l31.6 36.1zm224 0c-5.4 4.8-12.4 7.4-19.6 7.4V400c-4.4 0-8.7 1.6-12 4.5l31.6 36.1zM253.8 64c7.2 0 14.2 2.6 19.6 7.4l-31.6 36.1c3.3 2.9 7.6 4.5 12 4.5V64zM224 93.8C224 77.3 237.3 64 253.8 64v48c10 0 18.2-8.1 18.2-18.2H224zM0 93.8C0 77.3 13.3 64 29.8 64v48c10 0 18.2-8.1 18.2-18.2H0zM272 418.2c0-10-8.1-18.2-18.2-18.2v48c-16.5 0-29.8-13.3-29.8-29.8h48zM29.8 64C37 64 44 66.6 49.4 71.4L17.8 107.5c3.3 2.9 7.6 4.5 12 4.5V64zM48 418.2c0-10-8.1-18.2-18.2-18.2v48C13.3 448 0 434.7 0 418.2H48z"/></svg>