<svg xmlns="http://www.w3.org/2000/svg" viewBox="0 0 448 512"><!--! Font Awesome Pro 6.3.0 by @fontawesome - https://fontawesome.com License - https://fontawesome.com/license (Commercial License) Copyright 2023 Fonticons, Inc. --><path d="M32 89.6H57.6V64H32V89.6zm57.6 16c0 6.3-3.7 11.8-9 14.4c-2.1 1-4.5 1.6-7 1.6H16c-2.5 0-4.9-.6-7-1.6c-5.3-2.6-9-8.1-9-14.4V48c0-8.8 7.2-16 16-16H73.6c8.8 0 16 7.2 16 16v57.6zm-16 45.9c2.5 0 4.9 .6 7 1.6c5.3 2.6 9 8.1 9 14.4v57.6c0 6.3-3.7 11.8-9 14.4c-2.1 1-4.5 1.6-7 1.6H16c-2.5 0-4.9-.6-7-1.6c-5.3-2.6-9-8.1-9-14.4V167.5c0-6.3 3.7-11.8 9-14.4c2.1-1 4.5-1.6 7-1.6H73.6zm0 119.5c2.5 0 4.9 .6 7 1.6c5.3 2.6 9 8.1 9 14.4v57.6c0 6.3-3.7 11.8-9 14.4c-2.1 1-4.5 1.6-7 1.6H16c-2.5 0-4.9-.6-7-1.6c-5.3-2.6-9-8.1-9-14.4V286.9c0-6.3 3.7-11.8 9-14.4c2.1-1 4.5-1.6 7-1.6H73.6zM16 390.4H73.6c2.5 0 4.9 .6 7 1.6c5.3 2.6 9 8.1 9 14.4V464c0 8.8-7.2 16-16 16H16c-8.8 0-16-7.2-16-16V406.4c0-6.3 3.7-11.8 9-14.4c2.1-1 4.5-1.6 7-1.6zM32 209.1H57.6V183.5H32v25.6zm0 119.5H57.6V302.9H32v25.6zM32 448H57.6V422.4H32V448zM151.5 89.6h25.6V64H151.5V89.6zm57.6 16c0 6.3-3.7 11.8-9 14.4c-2.1 1-4.5 1.6-7 1.6h0H135.5c-2.5 0-4.9-.6-7-1.6c-5.3-2.6-9-8.1-9-14.4V48c0-8.8 7.2-16 16-16h57.6c8.8 0 16 7.2 16 16v57.6zm-16 45.9c2.5 0 4.9 .6 7 1.6c5.3 2.6 9 8.1 9 14.4v57.6c0 6.3-3.7 11.8-9 14.4c-2.1 1-4.5 1.6-7 1.6H135.5c-2.5 0-4.9-.6-7-1.6c-5.3-2.6-9-8.1-9-14.4V167.5c0-6.3 3.7-11.8 9-14.4c2.1-1 4.5-1.6 7-1.6h57.6 0zm0 119.5c2.5 0 4.9 .6 7 1.6c5.3 2.6 9 8.1 9 14.4v57.6c0 6.3-3.7 11.8-9 14.4c-2.1 1-4.5 1.6-7 1.6H135.5c-2.5 0-4.9-.6-7-1.6c-5.3-2.6-9-8.1-9-14.4V286.9c0-6.3 3.7-11.8 9-14.4c2.1-1 4.5-1.6 7-1.6h57.6zM135.5 390.4h57.6c2.5 0 4.9 .6 7 1.6c5.3 2.6 9 8.1 9 14.4V464c0 8.8-7.2 16-16 16H135.5c-8.8 0-16-7.2-16-16V406.4c0-6.3 3.7-11.8 9-14.4c2.1-1 4.5-1.6 7-1.6zm16-181.3h25.6V183.5H151.5v25.6zm0 119.5h25.6V302.9H151.5v25.6zm0 119.5h25.6V422.4H151.5V448zM270.9 64V89.6h25.6V64H270.9zm48.6 56c-2.1 1-4.5 1.6-7 1.6h0H254.9h0c-2.5 0-4.9-.6-7-1.6c-5.3-2.6-9-8.1-9-14.4V48c0-8.8 7.2-16 16-16h57.6c8.8 0 16 7.2 16 16v57.6c0 6.3-3.7 11.8-9 14.4zm0 33.1c5.3 2.6 9 8.1 9 14.4v57.6c0 6.3-3.7 11.8-9 14.4c-2.1 1-4.5 1.6-7 1.6H254.9c-2.5 0-4.9-.6-7-1.6c-5.3-2.6-9-8.1-9-14.4V167.5c0-6.3 3.7-11.8 9-14.4c2.1-1 4.5-1.6 7-1.6h0 57.6 0c2.5 0 4.9 .6 7 1.6zm0 119.5c5.3 2.6 9 8.1 9 14.4v57.6c0 6.3-3.7 11.8-9 14.4c-2.1 1-4.5 1.6-7 1.6H254.9c-2.5 0-4.9-.6-7-1.6c-5.3-2.6-9-8.1-9-14.4V286.9c0-6.3 3.7-11.8 9-14.4c2.1-1 4.5-1.6 7-1.6h57.6c2.5 0 4.9 .6 7 1.6zm-7 117.8c2.5 0 4.9 .6 7 1.6c5.3 2.6 9 8.1 9 14.4V464c0 8.8-7.2 16-16 16H254.9c-8.8 0-16-7.2-16-16V406.4c0-6.3 3.7-11.8 9-14.4c2.1-1 4.5-1.6 7-1.6h57.6zM270.9 183.5v25.6h25.6V183.5H270.9zm0 119.5v25.6h25.6V302.9H270.9zm0 119.5V448h25.6V422.4H270.9zM390.4 89.6H416V64H390.4V89.6zm57.6 16c0 6.3-3.7 11.8-9 14.4c-2.1 1-4.5 1.6-7 1.6h0H374.4h0c-2.5 0-4.9-.6-7-1.6c-5.3-2.6-9-8.1-9-14.4V48c0-8.8 7.2-16 16-16H432c8.8 0 16 7.2 16 16v57.6zm-16 45.9c2.5 0 4.9 .6 7 1.6c5.3 2.6 9 8.1 9 14.4v57.6c0 6.3-3.7 11.8-9 14.4c-2.1 1-4.5 1.6-7 1.6H374.4c-2.5 0-4.9-.6-7-1.6c-5.3-2.6-9-8.1-9-14.4V167.5c0-6.3 3.7-11.8 9-14.4c2.1-1 4.5-1.6 7-1.6h0H432h0zm0 119.5c2.5 0 4.9 .6 7 1.6c5.3 2.6 9 8.1 9 14.4v57.6c0 6.3-3.7 11.8-9 14.4c-2.1 1-4.5 1.6-7 1.6H374.4c-2.5 0-4.9-.6-7-1.6c-5.3-2.6-9-8.1-9-14.4V286.9c0-6.3 3.7-11.8 9-14.4c2.1-1 4.5-1.6 7-1.6H432zM374.4 390.4H432c2.5 0 4.9 .6 7 1.6c5.3 2.6 9 8.1 9 14.4V464c0 8.8-7.2 16-16 16H374.4c-8.8 0-16-7.2-16-16V406.4c0-6.3 3.7-11.8 9-14.4c2.1-1 4.5-1.6 7-1.6zm16-181.3H416V183.5H390.4v25.6zm0 119.5H416V302.9H390.4v25.6zm0 119.5H416V422.4H390.4V448z"/></svg>