<svg xmlns="http://www.w3.org/2000/svg" viewBox="0 0 512 512"><!--! Font Awesome Pro 6.3.0 by @fontawesome - https://fontawesome.com License - https://fontawesome.com/license (Commercial License) Copyright 2023 Fonticons, Inc. --><path d="M198 34.4c3.8 12.7-3.5 26.1-16.2 29.8c-14.2 4.2-27.8 10-40.5 17.1C142.4 86.1 143 91 143 96c0 35.3-28.7 64-64 64c-5 0-9.9-.6-14.6-1.7c-7.1 12.7-12.9 26.3-17.1 40.5c-3.8 12.7-17.1 19.9-29.8 16.2S-2.5 197.9 1.3 185.2c5.7-19.3 13.8-37.7 23.8-54.7C18.7 120.5 15 108.7 15 96c0-35.3 28.7-64 64-64c12.7 0 24.5 3.7 34.5 10.1c17-10 35.4-18 54.7-23.8c12.7-3.8 26.1 3.5 29.8 16.2zm82 0c3.8-12.7 17.1-19.9 29.8-16.2c19.3 5.7 37.7 13.8 54.7 23.8C374.5 35.7 386.3 32 399 32c35.3 0 64 28.7 64 64c0 12.7-3.7 24.5-10.1 34.5c10 17 18 35.4 23.8 54.7c3.8 12.7-3.5 26.1-16.2 29.8s-26.1-3.5-29.8-16.2c-4.2-14.2-10-27.8-17.1-40.5c-4.7 1.1-9.6 1.7-14.6 1.7c-35.3 0-64-28.7-64-64c0-5 .6-9.9 1.7-14.6c-12.7-7.1-26.3-12.9-40.5-17.1c-12.7-3.8-19.9-17.1-16.2-29.8zM17.4 297c12.7-3.8 26.1 3.5 29.8 16.2c4.2 14.2 10 27.8 17.1 40.5C69.1 352.6 74 352 79 352c35.3 0 64 28.7 64 64c0 5-.6 9.9-1.7 14.6c12.7 7.1 26.3 12.9 40.5 17.1c12.7 3.8 19.9 17.1 16.2 29.8s-17.1 19.9-29.8 16.2c-19.3-5.8-37.7-13.8-54.7-23.8C103.5 476.3 91.7 480 79 480c-35.3 0-64-28.7-64-64c0-12.7 3.7-24.5 10.1-34.5c-10-17-18-35.4-23.8-54.7c-3.8-12.7 3.5-26.1 16.2-29.8zm443.1 0c12.7 3.8 19.9 17.1 16.2 29.8c-5.8 19.3-13.8 37.6-23.8 54.7c6.4 10 10.1 21.8 10.1 34.5c0 35.3-28.7 64-64 64c-12.7 0-24.5-3.7-34.5-10.1c-17 10-35.4 18-54.7 23.8c-12.7 3.8-26.1-3.5-29.8-16.2s3.4-26.1 16.2-29.8c14.2-4.2 27.8-10 40.5-17.1c-1.1-4.7-1.7-9.6-1.7-14.6c0-35.3 28.7-64 64-64c5 0 9.9 .6 14.6 1.7c7.1-12.7 12.9-26.3 17.1-40.5c3.8-12.7 17.1-19.9 29.8-16.2zM95 96A16 16 0 1 0 63 96a16 16 0 1 0 32 0zM79 432a16 16 0 1 0 0-32 16 16 0 1 0 0 32zM415 96a16 16 0 1 0 -32 0 16 16 0 1 0 32 0zM399 432a16 16 0 1 0 0-32 16 16 0 1 0 0 32zM175.8 256.8c0 24.8 14.1 46.4 34.9 57c11.8 6 16.5 20.5 10.4 32.3s-20.5 16.5-32.3 10.4c-36.2-18.5-61.1-56.2-61.1-99.8c0-28.9 11-55.2 28.9-75.1l-11.2-11.2c-6.6-6.6-1.9-17.8 7.4-17.8h60.5c5.7 0 10.4 4.7 10.4 10.4v60.5c0 9.3-11.2 13.9-17.8 7.4l-15.3-15.3c-9.3 11.1-14.9 25.4-14.9 41.1zm93.1-58.6c-11.8-6-16.5-20.5-10.4-32.3s20.5-16.5 32.3-10.4c36.2 18.5 61.1 56.2 61.1 99.8c0 28.9-11 55.2-28.9 75.1L334 341.5c6.6 6.6 1.9 17.8-7.4 17.8H266.2c-5.7 0-10.4-4.7-10.4-10.4V288.3c0-9.3 11.2-13.9 17.8-7.4l15.3 15.3c9.3-11.1 14.9-25.4 14.9-41.1c0-24.8-14.1-46.4-34.9-57z"/></svg>