<svg xmlns="http://www.w3.org/2000/svg" viewBox="0 0 640 512"><!--! Font Awesome Pro 6.3.0 by @fontawesome - https://fontawesome.com License - https://fontawesome.com/license (Commercial License) Copyright 2023 Fonticons, Inc. --><path d="M147.3 318.9c5.8-3.9 12.7-6 19.7-6H306.2c7.9 0 14.2 6.4 14.2 14.2s-6.4 14.2-14.2 14.2H284.9 228c-11.8 0-21.3 9.6-21.3 21.3s9.6 21.3 21.3 21.3h56.9 21.3 42.7c3.9 0 7.8-1.1 11.2-3.2l83.1-51.1c2.8-1.7 5.9-2.6 9.2-2.6h6.6c6 0 10.9 4.9 10.9 10.9c0 3.7-1.9 7.1-5 9.2l-85 55c-10.4 6.7-22.4 10.3-34.8 10.3H21.8C10 412.4 .4 422 .4 433.8s9.6 21.3 21.3 21.3H345c20.6 0 40.7-5.9 57.9-17.1l85-55c15.3-9.9 24.5-26.8 24.5-45c0-29.6-24-53.6-53.6-53.6h-6.6c-11.1 0-22 3.1-31.5 8.9l-57.7 35.5c0-.6 0-1.2 0-1.8c0-31.4-25.5-56.9-56.9-56.9H167c-15.4 0-30.5 4.6-43.4 13.1L58 327.1H21.8C10 327.1 .4 336.7 .4 348.4s9.6 21.3 21.3 21.3H64.4c4.2 0 8.3-1.2 11.8-3.6l71-47.3zM365.6 193.1c-5.8 3.9-12.7 6-19.7 6H206.7c-7.9 0-14.2-6.4-14.2-14.2s6.4-14.2 14.2-14.2H228h56.9c11.8 0 21.3-9.6 21.3-21.3s-9.6-21.3-21.3-21.3H228 206.7 164c-3.9 0-7.8 1.1-11.2 3.2L69.7 182.3c-2.8 1.7-5.9 2.6-9.2 2.6H54c-6 0-10.9-4.9-10.9-10.9c0-3.7 1.9-7.1 5-9.2l85-55c10.4-6.7 22.4-10.3 34.8-10.3H491.1c11.8 0 21.3-9.6 21.3-21.3s-9.6-21.3-21.3-21.3H167.9c-20.6 0-40.7 5.9-57.9 17.1l-85 55C9.7 138.9 .4 155.8 .4 174c0 29.6 24 53.6 53.6 53.6h6.6c11.1 0 22-3.1 31.5-8.9l57.7-35.5c0 .6 0 1.2 0 1.8c0 31.4 25.5 56.9 56.9 56.9H345.9c15.4 0 30.5-4.6 43.4-13.1l65.6-43.8h36.2c11.8 0 21.3-9.6 21.3-21.3s-9.6-21.3-21.3-21.3H448.4c-4.2 0-8.3 1.2-11.8 3.6l-71 47.3z"/></svg>