<svg xmlns="http://www.w3.org/2000/svg" viewBox="0 0 640 512"><!--! Font Awesome Pro 6.3.0 by @fontawesome - https://fontawesome.com License - https://fontawesome.com/license (Commercial License) Copyright 2023 Fonticons, Inc. --><path d="M156.9 35.7c6.5-11.6 2.4-26.2-9.2-32.7s-26.2-2.4-32.7 9.2L16.8 187.7C5.8 207.4 0 229.6 0 252.1C0 325 59 384 131.9 384h65.9c29.4 0 56.9-14.7 73.2-39.2l13-19.5c7.4-11 4.4-25.9-6.7-33.3s-25.9-4.4-33.3 6.7l-13 19.5c-6.9 10.3-18 16.8-30.2 17.7c-1.1-.4-2.3-.8-3.5-1.1C175.9 330 160 310.8 160 288c0-26.5 21.5-48 48-48l36.8 22.4 0 0 0 0 .1 .1 0 0c8 10.5 23 12.6 33.5 4.7c10.6-8 12.8-23 4.8-33.6L264 248c19.2-14.4 19.2-14.4 19.2-14.4l0 0 0 0 0-.1-.1-.2-.4-.5c-.3-.4-.7-.9-1.2-1.4c-1-1.2-2.3-2.8-4-4.6c-3.4-3.7-8.3-8.6-14.4-13.5c-11.9-9.5-31.1-21.3-55-21.3c-53 0-96 43-96 96c0 17.4 4.6 33.7 12.7 47.7C81.7 332.1 48 296 48 252.1c0-14.3 3.7-28.5 10.7-41L156.9 35.7zm87.9 226.7L208 240c8.1 0 16.9 4.2 25 10.7c3.8 3.1 6.9 6.2 9.1 8.5c1.1 1.1 1.8 2.1 2.3 2.6c.2 .3 .4 .5 .5 .6zM281 41c9.4-9.4 9.4-24.6 0-33.9s-24.6-9.4-33.9 0L127 127c-9.4 9.4-9.4 24.6 0 33.9s24.6 9.4 33.9 0L281 41zm39.2 101.6c12.5-4.5 18.9-18.3 14.4-30.8s-18.3-18.9-30.8-14.4l-88 32c-12.5 4.5-18.9 18.3-14.4 30.8s18.3 18.9 30.8 14.4l88-32zM483.1 476.3c-6.5 11.6-2.4 26.2 9.2 32.7s26.2 2.4 32.7-9.2l98.2-175.4c11-19.7 16.8-41.9 16.8-64.4C640 187 581 128 508.2 128H442.3c-29.4 0-56.9 14.7-73.2 39.2l-13 19.5c-7.4 11-4.4 25.9 6.7 33.3s25.9 4.4 33.3-6.7l13-19.5c6.9-10.3 18-16.8 30.2-17.7c1.1 .4 2.3 .8 3.5 1.1c21.4 4.8 37.3 24 37.3 46.8c0 26.5-21.5 48-48 48l-36.8-22.4 0 0 0 0-.1-.1 0 0c-8-10.5-23-12.6-33.5-4.7c-10.6 8-12.8 23-4.8 33.6L376 264c-19.2 14.4-19.2 14.4-19.2 14.4l0 0 0 0 0 .1 .1 .2 .4 .5c.3 .4 .7 .9 1.2 1.4c1 1.2 2.3 2.8 4 4.6c3.4 3.7 8.3 8.6 14.5 13.5c11.9 9.5 31.1 21.3 55 21.3c53 0 96-43 96-96c0-17.4-4.6-33.6-12.7-47.7C558.3 180 592 216 592 259.9c0 14.3-3.7 28.5-10.7 41L483.1 476.3zM395.2 249.6L432 272c-8.1 0-16.9-4.2-25-10.7c-3.8-3.1-6.9-6.2-9-8.5c-1.1-1.1-1.8-2.1-2.3-2.6c-.2-.3-.4-.5-.5-.6zM359 471c-9.4 9.4-9.4 24.6 0 33.9s24.6 9.4 33.9 0L513 385c9.4-9.4 9.4-24.6 0-33.9s-24.6-9.4-33.9 0L359 471zM319.8 369.4c-12.5 4.5-18.9 18.3-14.4 30.8s18.3 18.9 30.8 14.4l88-32c12.5-4.5 18.9-18.3 14.4-30.8s-18.3-18.9-30.8-14.4l-88 32z"/></svg>