<svg xmlns="http://www.w3.org/2000/svg" viewBox="0 0 448 512"><!--! Font Awesome Pro 6.3.0 by @fontawesome - https://fontawesome.com License - https://fontawesome.com/license (Commercial License) Copyright 2023 Fonticons, Inc. --><path d="M144 48c8.8 0 16 7.2 16 16V80H128V64c0-8.8 7.2-16 16-16zm16 128v32 32H144c-5.5 0-10.8 .6-16 1.6V176h32zm-80 0v96c-10 13.4-16 30-16 48v0 24c0 92.8 75.2 168 168 168h48c92.8 0 168-75.2 168-168V320 256c0-35.3-28.7-64-64-64c-11 0-21.3 2.8-30.3 7.6C341.9 185.2 324 176 304 176c-7.9 0-15.4 1.4-22.4 4c-10.4-21.3-32.3-36-57.6-36c-5.5 0-10.9 .7-16 2V64c0-35.3-28.7-64-64-64S80 28.7 80 64V80H11.8C5.3 80 0 85.3 0 91.8c0 3.9 1.9 7.5 5.1 9.7L43.6 128 5.1 154.5c-3.2 2.2-5.1 5.8-5.1 9.7C0 170.7 5.3 176 11.8 176H80zM184 288h40c8.8 0 16 7.2 16 16s-7.2 16-16 16H184c-13.3 0-24 10.7-24 24s10.7 24 24 24h40c15.1 0 29-5.3 40-14c11 8.8 24.9 14 40 14c11 0 21.3-2.8 30.3-7.6C346.1 374.8 364 384 384 384c3.2 0 6.3-.2 9.4-.7C377.1 430.3 332.5 464 280 464H232c-66.3 0-120-53.7-120-120V320v0c0-17.7 14.3-32 32-32h40zm200-48c8.8 0 16 7.2 16 16v64c0 8.8-7.2 16-16 16s-16-7.2-16-16V304 256c0-8.8 7.2-16 16-16zm-144 2c-5.1-1.3-10.5-2-16-2H208V208c0-8.8 7.2-16 16-16s16 7.2 16 16v32 2zm48-2c0-8.8 7.2-16 16-16s16 7.2 16 16v16 48c0 8.8-7.2 16-16 16s-16-7.2-16-16V264 240z"/></svg>