<svg xmlns="http://www.w3.org/2000/svg" viewBox="0 0 512 512"><!--! Font Awesome Pro 6.3.0 by @fontawesome - https://fontawesome.com License - https://fontawesome.com/license (Commercial License) Copyright 2023 Fonticons, Inc. --><path d="M48 224c0-97.2 78.8-176 176-176h32c59.4 0 110.4 36 132.4 87.4c2.7 6.3 5.5 13.1 8.4 20.2l0 0 0 0c5.5 13.5 11.4 28 17.7 41.2c10 20.9 22.5 42.1 40.5 60.2l4.4 4.4c2.9 2.9 4.6 6.9 4.6 11c0 8.6-7 15.6-15.6 15.6H424c-13.3 0-24 10.7-24 24v72c0 8.8-7.2 16-16 16H296c-13.3 0-24 10.7-24 24v64c0 13.3 10.7 24 24 24s24-10.7 24-24V448h64c35.3 0 64-28.7 64-64V336h.4c35.1 0 63.6-28.5 63.6-63.6c0-16.9-6.7-33-18.6-45L489 223c-12.7-12.7-22.4-28.5-31.2-46.9c-5.8-12.1-10.6-24-15.7-36.5l0 0c-3-7.4-6.1-15.1-9.6-23.1C403.3 48 335.3 0 256 0H224C100.3 0 0 100.3 0 224c0 53.6 18.9 102.9 50.3 141.5c8.9 11 13.7 22.4 13.7 33.1V488c0 13.3 10.7 24 24 24s24-10.7 24-24V398.6c0-24.9-10.9-46.8-24.5-63.4C62.8 304.8 48 266.2 48 224zM240 94.2c-8.8 0-16 7.2-16 16c0 27.7-33.5 41.6-53.1 22c-6.2-6.2-16.4-6.2-22.6 0s-6.2 16.4 0 22.6c19.6 19.6 5.7 53.1-22 53.1c-8.8 0-16 7.2-16 16s7.2 16 16 16c27.7 0 41.6 33.5 22 53.1c-6.2 6.2-6.2 16.4 0 22.6s16.4 6.2 22.6 0c19.6-19.6 53.1-5.7 53.1 22c0 8.8 7.2 16 16 16s16-7.2 16-16c0-27.7 33.5-41.6 53.1-22c6.2 6.2 16.4 6.2 22.6 0s6.2-16.4 0-22.6c-19.6-19.6-5.7-53.1 22-53.1c8.8 0 16-7.2 16-16s-7.2-16-16-16c-27.7 0-41.6-33.5-22-53.1c6.2-6.2 6.2-16.4 0-22.6s-16.4-6.2-22.6 0c-19.6 19.6-53.1 5.7-53.1-22c0-8.8-7.2-16-16-16zm-21.3 87.1a21.3 21.3 0 1 1 0 42.7 21.3 21.3 0 1 1 0-42.7zm35.6 71.1a14.2 14.2 0 1 1 28.4 0 14.2 14.2 0 1 1 -28.4 0z"/></svg>