<svg xmlns="http://www.w3.org/2000/svg" viewBox="0 0 640 512"><!--! Font Awesome Pro 6.3.0 by @fontawesome - https://fontawesome.com License - https://fontawesome.com/license (Commercial License) Copyright 2023 Fonticons, Inc. --><path d="M48 224c0 42.2 14.8 80.8 39.5 111.1c13.6 16.6 24.5 38.5 24.5 63.4V488c0 13.3-10.7 24-24 24s-24-10.7-24-24V398.6c0-10.7-4.8-22.2-13.7-33.1C18.9 326.9 0 277.6 0 224c0-38.6 9.8-75 27-106.7l38.4 30.3C54.3 170.7 48 196.6 48 224zm390.2 94.2L630.8 469.1c10.4 8.2 12.3 23.3 4.1 33.7s-23.3 12.3-33.7 4.1L9.2 42.9C-1.2 34.7-3.1 19.6 5.1 9.2S28.4-3.1 38.8 5.1L89.5 44.8C127 16.7 173.5 0 224 0c73.5 0 140.1 33.8 172.3 94.5c8 15.1 15.1 31.7 21.6 47.1c2.8 6.7 5.6 13.1 8.3 19.2c9.4 21 19 39.1 32.2 53.9l7.4 8.3c9.1 10.3 14.1 23.5 14.1 37.2V264c0 26-17.7 47.9-41.8 54.2zm-56.2-44c3-1.4 6.4-2.2 9.9-2.2h32c4.4 0 8-3.6 8-8v-3.8c0-2-.7-3.9-2-5.3l-7.4-8.3c-18.1-20.4-30.1-43.9-40.1-66.2c-3.5-7.8-6.6-15.2-9.7-22.3l0 0c-6.1-14.4-11.8-27.8-18.8-41c-22.3-42-70.5-69-130-69c-35 0-67.6 10.2-95 27.8L382.1 274.1zm-94 84.6c.6-10.5 7.8-19.2 17.6-21.9l109.9 86.6C411.9 455.3 384.8 480 352 480H320v8c0 13.3-10.7 24-24 24s-24-10.7-24-24V456c0-13.3 10.7-24 24-24h56c8.8 0 16-7.2 16-16V397l-61.2-13.6c-11.5-2.5-19.4-13-18.8-24.7zM584 288a24 24 0 1 1 48 0 24 24 0 1 1 -48 0zm-40 24a24 24 0 1 1 0 48 24 24 0 1 1 0-48zm40 72a24 24 0 1 1 48 0 24 24 0 1 1 -48 0z"/></svg>