<svg xmlns="http://www.w3.org/2000/svg" viewBox="0 0 512 512"><!--! Font Awesome Pro 6.3.0 by @fontawesome - https://fontawesome.com License - https://fontawesome.com/license (Commercial License) Copyright 2023 Fonticons, Inc. --><path d="M459.6 224H508C493.6 108.2 401.8 16.4 286 2V50.5C375.3 64.2 445.8 134.8 459.6 224zM508 288H459.6C445.8 377.3 375.3 447.8 286 461.6V510c115.8-14.4 207.6-106.2 222-222zM0 288C14.4 403.8 106.2 495.6 222 510V461.6C132.7 447.8 62.2 377.3 48.4 288H0zm0-64H48.4C62.2 134.8 132.7 64.2 222 50.5V2C106.2 16.4 14.4 108.2 0 224zm190-64c0-13.3-10.7-24-24-24s-24 10.7-24 24V352c0 13.3 10.7 24 24 24s24-10.7 24-24V280H318v72c0 13.3 10.7 24 24 24s24-10.7 24-24V160c0-13.3-10.7-24-24-24s-24 10.7-24 24v72H190V160z"/></svg>