<svg xmlns="http://www.w3.org/2000/svg" viewBox="0 0 512 512"><!--! Font Awesome Pro 6.3.0 by @fontawesome - https://fontawesome.com License - https://fontawesome.com/license (Commercial License) Copyright 2023 Fonticons, Inc. --><path d="M262.9 495.5c-22.3 12.9-49.7 12.9-72 0L38 407.2C15.7 394.4 2 370.6 2 344.9V168.3c0-25.7 13.7-49.5 36-62.4L190.9 17.7c22.3-12.9 49.7-12.9 72 0l152.9 88.3c22.3 12.9 36 36.6 36 62.4V344.9c0 25.7-13.7 49.5-36 62.4L262.9 495.5zm-48-41.6c7.4 4.3 16.6 4.3 24 0l152.9-88.3c7.4-4.3 12-12.2 12-20.8V168.3c0-8.6-4.6-16.5-12-20.8L238.9 59.2c-7.4-4.3-16.6-4.3-24 0L62 147.5c-7.4 4.3-12 12.2-12 20.8l0 176.6c0 8.6 4.6 16.5 12 20.8l152.9 88.3zM97.8 170.6l33.1 82.9V176.6c0-8.8 7.2-16 16-16s16 7.2 16 16v160c0 7.7-5.4 14.3-13 15.7s-15-2.6-17.9-9.8L98.9 259.7v76.9c0 8.8-7.2 16-16 16s-16-7.2-16-16v-160c0-7.7 5.4-14.3 13-15.7s15 2.6 17.9 9.8zm97.1 5.9c0-8.8 7.2-16 16-16h48c8.8 0 16 7.2 16 16s-7.2 16-16 16h-32v48h32c8.8 0 16 7.2 16 16s-7.2 16-16 16h-32v64c0 8.8-7.2 16-16 16s-16-7.2-16-16v-80-80zm112-16h64c8.8 0 16 7.2 16 16s-7.2 16-16 16h-16v144c0 8.8-7.2 16-16 16s-16-7.2-16-16v-144h-16c-8.8 0-16-7.2-16-16s7.2-16 16-16z"/></svg>