<svg xmlns="http://www.w3.org/2000/svg" viewBox="0 0 640 512"><!--! Font Awesome Pro 6.3.0 by @fontawesome - https://fontawesome.com License - https://fontawesome.com/license (Commercial License) Copyright 2023 Fonticons, Inc. --><path d="M552.1 391.1c34.4-34.4 34.4-90.1 0-124.4c-27.8-27.8-69.5-33.1-102.6-16c-11.8 6.1-16.4 20.6-10.3 32.3s20.6 16.4 32.3 10.3c15.1-7.8 34-5.3 46.6 7.3c15.6 15.6 15.6 40.9 0 56.6s-40.9 15.6-56.6 0l-81.7-81.7C402.2 261.3 417 236.4 417 208c0-33.9-21.1-62.9-50.9-74.5c1.9-6.8 2.9-14 2.9-21.5c0-44.2-35.8-80-80-80c-27.3 0-51.5 13.7-65.9 34.6C217.3 46.6 198.9 32 177 32c-26.5 0-48 21.5-48 48c0 4 .5 7.9 1.4 11.6L440.7 401.9c34.2 23.1 81.1 19.5 111.4-10.8zM449 96a32 32 0 1 0 0-64 32 32 0 1 0 0 64zm64 64a32 32 0 1 0 -64 0 32 32 0 1 0 64 0zM49 440V145.9L367.1 464H73c-13.3 0-24-10.7-24-24zM69.3 98.3C44.1 73.1 1 91 1 126.6V440c0 39.8 32.2 72 72 72H386.4c35.6 0 53.5-43.1 28.3-68.3L69.3 98.3z"/></svg>