<svg xmlns="http://www.w3.org/2000/svg" viewBox="0 0 640 512"><!--! Font Awesome Pro 6.3.0 by @fontawesome - https://fontawesome.com License - https://fontawesome.com/license (Commercial License) Copyright 2023 Fonticons, Inc. --><path d="M296 48C181.1 48 88 141.1 88 256s93.1 208 208 208c45.6 0 87.7-14.6 122-39.5c10.7-7.8 25.7-5.4 33.5 5.3s5.4 25.7-5.3 33.5C404 494 352.1 512 296 512C154.6 512 40 397.4 40 256S154.6 0 296 0S552 114.6 552 256v96h16c13.3 0 24 10.7 24 24s-10.7 24-24 24h-2.3l-11.5 80.2c7.8 1.1 13.7 7.8 13.7 15.8c0 8.8-7.2 16-16 16H504c-8.8 0-16-7.2-16-16c0-8.1 6-14.7 13.7-15.8L490.3 400H488c-13.3 0-24-10.7-24-24s10.7-24 24-24h16V256c0-114.9-93.1-208-208-208zM184 256a112 112 0 1 0 224 0 112 112 0 1 0 -224 0zM296 416a160 160 0 1 1 0-320 160 160 0 1 1 0 320zM232 256a64 64 0 1 1 128 0 64 64 0 1 1 -128 0z"/></svg>