<svg xmlns="http://www.w3.org/2000/svg" viewBox="0 0 640 512"><!--! Font Awesome Pro 6.3.0 by @fontawesome - https://fontawesome.com License - https://fontawesome.com/license (Commercial License) Copyright 2023 Fonticons, Inc. --><path d="M187.1 38c-2.6-4.9-7.7-7.9-13.3-7.9s-10.6 3-13.3 7.9l-26 48.2L82.2 70.4c-5.3-1.6-11.1-.1-15 3.8s-5.4 9.7-3.8 15l15.7 52.4L31 167.5c-4.9 2.6-7.9 7.7-7.9 13.3s3 10.6 7.9 13.3l48.2 26L63.4 272.4c-1.6 5.3-.1 11.1 3.8 15s9.7 5.4 15 3.8l52.4-15.7 5.8 10.8L163 267.8l13.6-11.1c-1 0-1.9 .1-2.9 .1c-41.6 0-75.3-33.7-75.3-75.3s33.7-75.3 75.3-75.3s75.3 33.7 75.3 75.3c0 6.2-.8 12.3-2.2 18l51.4-41.9-29.8-16.1 15.7-52.4c1.6-5.3 .1-11.1-3.8-15s-9.7-5.4-15-3.8L213 86.1 187.1 38zm31.8 142.7a45.2 45.2 0 1 0 -90.4 0 45.2 45.2 0 1 0 90.4 0zm195-55.2c-8.3-6.8-20.2-6.8-28.5 0L182 291.2c-9.7 7.9-11.1 22.1-3.2 31.8s22.1 11.1 31.8 3.2l23.4-19V459.3c0 29.1 23.6 52.7 52.7 52.7H512.5c29.1 0 52.7-23.6 52.7-52.7V307.2l23.4 19c9.7 7.9 23.9 6.4 31.8-3.2s6.4-23.9-3.2-31.8L413.9 125.5zM520.1 270.4V459.3c0 4.2-3.4 7.5-7.5 7.5H286.6c-4.2 0-7.5-3.4-7.5-7.5V270.4l120.5-98.2 120.5 98.2zM354.4 323.8v45.2c0 12.5 10.1 22.6 22.6 22.6h45.2c12.5 0 22.6-10.1 22.6-22.6V323.8c0-12.5-10.1-22.6-22.6-22.6H377c-12.5 0-22.6 10.1-22.6 22.6z"/></svg>