<svg xmlns="http://www.w3.org/2000/svg" viewBox="0 0 512 512"><!--! Font Awesome Pro 6.3.0 by @fontawesome - https://fontawesome.com License - https://fontawesome.com/license (Commercial License) Copyright 2023 Fonticons, Inc. --><path d="M48 88c0-4.4 3.6-8 8-8h48c4.4 0 8 3.6 8 8V214.7c0 8.6 4.6 16.5 12 20.8s16.6 4.2 24-.1L288 153.8l0 70.9c0 8.8 4.8 16.8 12.5 21.1s17.1 3.9 24.5-.8l139.1-89L464 304v16 88c0 13.3-10.7 24-24 24H72c-13.3 0-24-10.7-24-24V352 304 88zm8-56C25.1 32 0 57.1 0 88V304v48 56c0 39.8 32.2 72 72 72H440c39.8 0 72-32.2 72-72V320 304 155.9c0-37.9-41.9-60.9-73.9-40.4L336 180.8v-27c0-37-40.2-60.1-72.2-41.5L160 172.9V88c0-30.9-25.1-56-56-56H56zm56 264c-8.8 0-16 7.2-16 16v48c0 8.8 7.2 16 16 16h48c8.8 0 16-7.2 16-16V312c0-8.8-7.2-16-16-16H112zm104 16v48c0 8.8 7.2 16 16 16h48c8.8 0 16-7.2 16-16V312c0-8.8-7.2-16-16-16H232c-8.8 0-16 7.2-16 16zm136-16c-8.8 0-16 7.2-16 16v48c0 8.8 7.2 16 16 16h48c8.8 0 16-7.2 16-16V312c0-8.8-7.2-16-16-16H352z"/></svg>