<svg xmlns="http://www.w3.org/2000/svg" viewBox="0 0 576 512"><!--! Font Awesome Pro 6.3.0 by @fontawesome - https://fontawesome.com License - https://fontawesome.com/license (Commercial License) Copyright 2023 Fonticons, Inc. --><path d="M208.8 267.9L230 299.7c1.3 1.9 .2 4.5-2 4.9l-37.6 7.5c-3.7 .7-6.4 4-6.4 7.8s2.7 7.1 6.4 7.8l37.6 7.5c2.2 .4 3.3 3 2 4.9l-21.2 31.9c-2.1 3.2-1.7 7.4 1 10.1s6.9 3.1 10.1 1l26.9-17.9c2.2-1.4 5.1 .2 5 2.8l-2.1 61.7C198.5 419.4 160 374.2 160 320c0-29.6 11.5-56.5 30.2-76.5c4.5-4.8 6.8-11.2 6.4-17.7s-3.3-12.6-8.3-16.9C161.2 185.4 144 150.7 144 112c0-26.9 8.3-51.9 22.5-72.5c6.4-9.3 5.5-21.7-2.2-30s-20-10-29.7-4.4C54.1 52.4 0 139.9 0 240C0 390.2 121.8 512 272 512s272-121.8 272-272C544 139.9 489.9 52.4 409.4 5.2c-9.7-5.7-22.1-3.9-29.7 4.4s-8.6 20.7-2.2 30C391.7 60.1 400 85.1 400 112c0 38.7-17.2 73.4-44.4 96.9c-4.9 4.3-7.9 10.4-8.3 16.9s2 12.9 6.4 17.7c18.8 20 30.2 46.9 30.2 76.5c0 54.2-38.5 99.4-89.7 109.8l-2.1-61.7c-.1-2.6 2.8-4.2 5-2.8l26.9 17.9c3.2 2.1 7.4 1.7 10.1-1s3.1-6.9 1-10.1L314 340.3c-1.3-1.9-.2-4.5 2-4.9l37.5-7.5c3.7-.7 6.4-4 6.4-7.8s-2.7-7.1-6.4-7.8L316 304.6c-2.2-.4-3.3-3-2-4.9l21.2-31.9c2.1-3.2 1.7-7.4-1-10.1s-6.9-3.1-10.1-1l-30 20c-2.1 1.4-4.9 0-5-2.6L280.3 8c-.1-4.5-3.8-8-8.3-8s-8.1 3.5-8.3 8l-8.9 266.2c-.1 2.5-2.9 3.9-5 2.6l-30-20c-3.2-2.1-7.4-1.7-10.1 1s-3.1 6.9-1 10.1zM48.1 233.5c.3-10.7 1.4-21.3 3.1-31.6l17.5 17.5c6.2 6.2 16.4 6.2 22.6 0s6.2-16.4 0-22.6L60.5 165.9C68.8 142.2 81 120.3 96.3 101c-.2 3.6-.3 7.3-.3 11c0 44.9 16.8 85.8 44.4 116.9C122.5 254.8 112 286.2 112 320c0 44.5 18.1 84.7 47.4 113.7c-54.9-32-94.9-86.6-107.4-151l16.6 16.6c6.2 6.2 16.4 6.2 22.6 0s6.2-16.4 0-22.6L48.1 233.5zm447.8 0l-43.2 43.2c-6.2 6.2-6.2 16.4 0 22.6s16.4 6.2 22.6 0l16.6-16.6c-12.4 64.4-52.5 119.1-107.4 151c29.3-29 47.4-69.2 47.4-113.7c0-33.8-10.5-65.2-28.4-91.1c27.6-31.1 44.4-72 44.4-116.9c0-3.7-.1-7.4-.3-11c15.3 19.3 27.5 41.2 35.8 64.9l-30.8 30.8c-6.2 6.2-6.2 16.4 0 22.6s16.4 6.2 22.6 0l17.5-17.5c1.8 10.3 2.8 20.9 3.1 31.6z"/></svg>