<svg xmlns="http://www.w3.org/2000/svg" viewBox="0 0 576 512"><!--! Font Awesome Pro 6.3.0 by @fontawesome - https://fontawesome.com License - https://fontawesome.com/license (Commercial License) Copyright 2023 Fonticons, Inc. --><path d="M293.2 12.8C289.1 4.9 280.9 0 272 0s-17.1 4.9-21.2 12.8L184.4 138.2c-5.5 10.4-8.4 21.9-8.4 33.7v30.9L48 284.3V248c0-13.3-10.7-24-24-24s-24 10.7-24 24v80 32 32c0 13.3 10.7 24 24 24s24-10.7 24-24v-8H176v1.1l-41.9 66.3c-4 6.3-6.1 13.6-6.1 21.1c0 21.8 17.7 39.5 39.5 39.5h209c21.8 0 39.5-17.7 39.5-39.5c0-7.5-2.1-14.8-6.1-21.1L368 385.1V384H496v8c0 13.3 10.7 24 24 24s24-10.7 24-24V360 328 248c0-13.3-10.7-24-24-24s-24 10.7-24 24v36.3L368 202.8V171.9c0-11.7-2.9-23.3-8.4-33.7L293.2 12.8zM487.9 336H368V259.7L487.9 336zM320 360v32c0 4.5 1.3 9 3.7 12.8L361.1 464H296V408c0-13.3-10.7-24-24-24s-24 10.7-24 24v56H182.9l37.4-59.2c2.4-3.8 3.7-8.3 3.7-12.8V360 216.4c0-.3 0-.5 0-.8V171.9c0-3.9 1-7.8 2.8-11.2L272 75.3l45.2 85.4c1.8 3.5 2.8 7.3 2.8 11.2v43.7c0 .3 0 .5 0 .8V360zM176 336H56.1L176 259.7V336z"/></svg>