<svg xmlns="http://www.w3.org/2000/svg" viewBox="0 0 512 512"><!--! Font Awesome Pro 6.3.0 by @fontawesome - https://fontawesome.com License - https://fontawesome.com/license (Commercial License) Copyright 2023 Fonticons, Inc. --><path d="M256 192a32 32 0 1 0 0-64 32 32 0 1 0 0 64zM96 256a32 32 0 1 0 0-64 32 32 0 1 0 0 64zm352-32a32 32 0 1 0 -64 0 32 32 0 1 0 64 0zm32 192a32 32 0 1 0 0-64 32 32 0 1 0 0 64zM64 384A32 32 0 1 0 0 384a32 32 0 1 0 64 0zm88-16c-13.3 0-24 10.7-24 24s10.7 24 24 24H360c13.3 0 24-10.7 24-24s-10.7-24-24-24H152z"/></svg>