<svg xmlns="http://www.w3.org/2000/svg" viewBox="0 0 576 512"><!--! Font Awesome Pro 6.3.0 by @fontawesome - https://fontawesome.com License - https://fontawesome.com/license (Commercial License) Copyright 2023 Fonticons, Inc. --><path d="M246.8 3.7c5.9-4.9 14.6-4.9 20.5 0l48 40c5.9 4.9 7.5 13.2 3.8 19.9l0 0 0 0 0 0 0 0-.1 .1-.3 .6c-.3 .5-.7 1.3-1.2 2.3c-1 2-2.6 5-4.4 8.6c-.5 .9-.9 1.9-1.4 2.9C345.9 97.4 369 134 369 176s-23.1 78.6-57.3 97.8c.5 1 1 2 1.4 2.9c1.8 3.7 3.3 6.6 4.4 8.6c.5 1 .9 1.8 1.2 2.3l.3 .6 .1 .1 0 0 0 0c3.6 6.7 2 15-3.8 19.9L273 343.5v19.8l35.6-24.5c0 0 0 0 .1 0h0l41.1-28.2c72.1-49.6 86.2-151.1 39.1-221.7c-4-6-3.5-14 1.3-19.5s12.8-6.9 19.3-3.6c58.5 30 104.7 91.3 104.7 158.2c0 53.1-26.4 100.5-51.2 133.6c-14.8 19.7-31.7 38.7-50.6 54.7c-5.1 4.3-12.4 4.9-18.2 1.6l-75.6-43-32.7 22.5 45.5 31.3c1.8-.4 3.7-.7 5.7-.7c13.3 0 24 10.7 24 24s-10.7 24-24 24c-12.2 0-22.3-9.1-23.8-21L273 423.4v28.9c9.6 5.5 16 15.9 16 27.7c0 17.7-14.3 32-32 32s-32-14.3-32-32c0-11.8 6.4-22.2 16-27.7V424.1l-40.3 27.7C198.8 463.3 188.9 472 177 472c-13.3 0-24-10.7-24-24s10.7-24 24-24c2.2 0 4.4 .3 6.5 .9l45.8-31.5-32.7-22.5-75.6 43c-5.8 3.3-13 2.7-18.2-1.6c-19-15.9-35.8-35-50.6-54.7C27.4 324.5 1 277.1 1 224c0-53.7 26.9-93.6 52.7-119.3c15.4-15.4 32.7-29.2 52.2-39c6.5-3.2 14.3-1.7 19.2 3.7c6.9 7.8 3.4 16.3-1.5 23.7C77.1 162.6 96 262.9 165.4 310.6l41.1 28.2 .1 0L241 362.6V343.5l-42.2-35.2c-5.9-4.9-7.5-13.2-3.8-19.9l0 0 0 0 0 0 .1-.1 .3-.6c.3-.5 .7-1.3 1.2-2.3c1-2 2.6-5 4.4-8.6c.5-.9 .9-1.9 1.4-2.9C168.1 254.6 145 218 145 176s23.1-78.6 57.3-97.8c-.5-1-1-2-1.4-2.9c-1.8-3.7-3.3-6.6-4.4-8.6c-.5-1-.9-1.8-1.2-2.3l-.3-.6-.1-.1 0 0 0 0 0 0c-3.6-6.7-2-15 3.8-19.9l48-40zM221.2 122.9c-17 11.5-28.2 31-28.2 53.1s11.2 41.6 28.2 53.1C228 210.2 233 190.9 233 176s-5-34.2-11.8-53.1zm71.5 106.2c17-11.5 28.2-31 28.2-53.1s-11.2-41.6-28.2-53.1C286 141.8 281 161.1 281 176s5 34.2 11.8 53.1zM58.3 163C48 180.1 41 200.4 41 224c0 40.4 20.4 79.2 43.2 109.6c10 13.4 20.7 25.9 32 37l36-20.5-9.5-6.5C82.5 302.2 52.5 231.7 58.3 163zM430.9 333.6c22.8-30.4 43.2-69.2 43.2-109.6c0-24.3-7.4-45.1-18.2-62.5c6.7 68.5-20.8 138.9-83.6 182l-9.5 6.5 35.9 20.4c11.4-11.1 22.1-23.6 32.1-36.9z"/></svg>