<svg xmlns="http://www.w3.org/2000/svg" viewBox="0 0 576 512"><!--! Font Awesome Pro 6.3.0 by @fontawesome - https://fontawesome.com License - https://fontawesome.com/license (Commercial License) Copyright 2023 Fonticons, Inc. --><path d="M247.3 299.3l0 0 22.1 22.1C283.9 335.9 303.5 344 324 344s40.2-8.2 54.8-22.6c5.6-5.5 11-10.8 16.3-16C475.8 226.5 524 179.3 524 96c0-24.5-6.7-57.4-11.4-77.6C510.1 7.5 500.2 0 489.1 0c-6.6 0-12.9 2.6-17.6 7.3L247.3 231.4l-33.9 33.9h0L7.7 471c-4.5 4.5-7 10.6-7 17c0 13.3 10.7 24 24 24c6.4 0 12.5-2.5 17-7L247.3 299.3zm56-11.9l-22.1-22.1L474.1 72.5c1.2 8.5 1.9 16.7 1.9 23.5c0 32.5-9.3 56.9-29.4 84.3c-19.4 26.5-46.8 53.4-85.2 90.9l0 0 0 0c-5.2 5.1-10.6 10.4-16.3 16c-5.8 5.7-13.4 8.8-21.1 8.8c-7.8 0-15.2-3.1-20.7-8.6z"/></svg>