<svg xmlns="http://www.w3.org/2000/svg" viewBox="0 0 640 512"><!--! Font Awesome Pro 6.3.0 by @fontawesome - https://fontawesome.com License - https://fontawesome.com/license (Commercial License) Copyright 2023 Fonticons, Inc. --><path d="M48 368H240v48H48c-26.5 0-48-21.5-48-48V48C0 21.5 21.5 0 48 0H204.1c12.7 0 24.9 5.1 33.9 14.1l67.9 67.9c9 9 14.1 21.2 14.1 33.9V224H272V128H224c-17.7 0-32-14.3-32-32V48L48 48l0 320zm272-64V464H544V304H320zm-48-8c0-22.1 17.9-40 40-40H552c22.1 0 40 17.9 40 40V464h24c13.3 0 24 10.7 24 24s-10.7 24-24 24H248c-13.3 0-24-10.7-24-24s10.7-24 24-24h24V296z"/></svg>