<svg xmlns="http://www.w3.org/2000/svg" viewBox="0 0 512 512"><!--! Font Awesome Pro 6.3.0 by @fontawesome - https://fontawesome.com License - https://fontawesome.com/license (Commercial License) Copyright 2023 Fonticons, Inc. --><path d="M279 24c0-13.3-10.7-24-24-24s-24 10.7-24 24V161.1C111.4 172.2 15.7 265.6 1 384.1C-1.2 401.6 13.3 416 31 416H479c17.7 0 32.2-14.4 30-31.9c-14.7-118.5-110.5-211.8-230-223V24zM457.4 368H52.6C74.2 276.3 156.7 208 255 208s180.8 68.3 202.4 160zM255 512c35.3 0 64-28.7 64-64H191c0 35.3 28.7 64 64 64z"/></svg>