<svg xmlns="http://www.w3.org/2000/svg" viewBox="0 0 320 512"><!--! Font Awesome Pro 6.3.0 by @fontawesome - https://fontawesome.com License - https://fontawesome.com/license (Commercial License) Copyright 2023 Fonticons, Inc. --><path d="M157.8 47.3l-128 32C17 82.5 3.9 74.7 .7 61.8S5.3 35.9 18.2 32.7l128-32c12.9-3.2 25.9 4.6 29.1 17.5s-4.6 25.9-17.5 29.1zM303.3 82.2c3.2 12.9-4.6 25.9-17.5 29.1l-256 64C17 178.5 3.9 170.7 .7 157.8s4.6-25.9 17.5-29.1l256-64c12.9-3.2 25.9 4.6 29.1 17.5zm0 96c3.2 12.9-4.6 25.9-17.5 29.1l-256 64C17 274.5 3.9 266.7 .7 253.8s4.6-25.9 17.5-29.1l256-64c12.9-3.2 25.9 4.6 29.1 17.5zM136 384h80c17.7 0 32 14.3 32 32v32c0 17.7-14.3 32-32 32H176v8c0 13.3-10.7 24-24 24s-24-10.7-24-24v-8H88c-17.7 0-32-14.3-32-32V416c0-17.7 14.3-32 32-32V306.2l48-12V384zM303.3 274.2c3.2 12.9-4.6 25.9-17.5 29.1l-64 16-5.8 1.5V384H168V302.6c-.3-11 7.1-21.1 18.2-23.9l8-2 0 0 16-4 64-16c12.9-3.2 25.9 4.6 29.1 17.5z"/></svg>