<svg xmlns="http://www.w3.org/2000/svg" viewBox="0 0 640 512"><!--! Font Awesome Pro 6.3.0 by @fontawesome - https://fontawesome.com License - https://fontawesome.com/license (Commercial License) Copyright 2023 Fonticons, Inc. --><path d="M563.3 267.2c56.2-56.2 56.2-147.3 0-203.5C509.8 10.2 423.9 7.3 366.9 57.2l-6.1 5.4c-10 8.7-11 23.9-2.3 33.9s23.9 11 33.9 2.3l6.1-5.4c38-33.2 95.2-31.3 130.9 4.4c37.4 37.4 37.4 98.1 0 135.6L416.1 346.6c-37.4 37.4-98.2 37.4-135.6 0c-35.7-35.7-37.6-92.9-4.4-130.9l4.7-5.4c8.7-10 7.7-25.1-2.3-33.9s-25.1-7.7-33.9 2.3l-4.7 5.4c-49.8 57-46.9 142.9 6.6 196.4c56.2 56.2 147.3 56.2 203.5 0L563.3 267.2zM42.7 244.8c-56.2 56.2-56.2 147.3 0 203.5c53.6 53.6 139.5 56.4 196.5 6.5l6.1-5.4c10-8.7 11-23.9 2.3-33.9s-23.9-11-33.9-2.3l-6.1 5.4c-38 33.2-95.2 31.3-130.9-4.4c-37.4-37.4-37.4-98.1 0-135.6L190 165.4c37.4-37.4 98.1-37.4 135.6 0c35.7 35.7 37.6 92.9 4.4 130.9l-5.4 6.1c-8.7 10-7.7 25.1 2.3 33.9s25.1 7.7 33.9-2.3l5.4-6.1c49.9-57 47-142.9-6.5-196.5c-56.2-56.2-147.3-56.2-203.5 0L42.7 244.8z"/></svg>