<svg xmlns="http://www.w3.org/2000/svg" viewBox="0 0 640 512"><!--! Font Awesome Pro 6.3.0 by @fontawesome - https://fontawesome.com License - https://fontawesome.com/license (Commercial License) Copyright 2023 Fonticons, Inc. --><path d="M64 256a128 128 0 1 1 256 0A128 128 0 1 1 64 256zm302.4-24C354.7 146.2 281.1 80 192 80C94.8 80 16 158.8 16 256s78.8 176 176 176c89.1 0 162.7-66.2 174.4-152H400v48c0 13.3 10.7 24 24 24s24-10.7 24-24V280h78.1l-31 31c-9.4 9.4-9.4 24.6 0 33.9s24.6 9.4 33.9 0l72-72c9.4-9.4 9.4-24.6 0-33.9l-72-72c-9.4-9.4-24.6-9.4-33.9 0s-9.4 24.6 0 33.9l31 31H448V184c0-13.3-10.7-24-24-24s-24 10.7-24 24v48H366.4z"/></svg>