<svg xmlns="http://www.w3.org/2000/svg" viewBox="0 0 640 512"><!--! Font Awesome Pro 6.3.0 by @fontawesome - https://fontawesome.com License - https://fontawesome.com/license (Commercial License) Copyright 2023 Fonticons, Inc. --><path d="M80.7 377.8c-29.2-24.1-46.1-59.3-52.4-96.7L.8 116.6c-1.6-9.8-1-20 4.7-28.1C20.2 67.3 62.7 26.1 177.1 6.9s168 6 188.8 21.3c.9 .6 1.7 1.3 2.5 2c-38.5 1.9-67 9.8-87.6 19.1c-23.1-2.4-54.4-2-95.8 4.9C94.1 69.5 59.8 98.5 48.6 111.2L75.6 273.2c4.8 28.8 17.2 52.4 35.6 67.6c20 16.5 44.5 34.2 69.7 46.4c15.4 7.5 29 12 40.8 13.9c.7 1.2 1.4 2.4 2.1 3.5c8.2 13.5 18.2 28.6 29.8 43.7c-.8 .2-1.7 .3-2.5 .5c-59 9.9-127.3-35.5-170.4-71zM209.7 224.7l-8.3 49.5c-.3 2.1-.7 4.2-1 6.3c-19.1 5.7-36.3 15.2-50.9 27.5c-6.5 5.4-16.6 1.7-15.3-6.6c5.7-38.1 35.3-70 75.4-76.7zM174 154.5c4.4-3.2 10.9-2.2 12.1 3.1c.1 .5 .2 1.1 .3 1.6c3.6 21.8-11.1 42.4-32.8 46.1s-42.4-11.1-46.1-32.8c-.1-.5-.2-1.1-.2-1.6c-.7-5.4 5.2-8.5 10.4-6.9c9.2 2.8 19.2 3.6 29.3 1.9s19.3-5.7 27.1-11.3zM389 510.5c-59-9.9-108.8-75-138-122.6c-19.8-32.3-24.3-71.1-18-108.4L260.5 115c1.6-9.8 5.6-19.2 13.6-25.1C295 74.7 348.6 49.5 463 68.7S619.9 129 634.6 150.3c5.7 8.2 6.3 18.3 4.7 28.1L611.8 342.9c-6.3 37.4-23.1 72.5-52.4 96.7c-43 35.5-111.3 80.9-170.4 71zm-46.3-81.1c20.4 20.4 38.9 31.2 54.2 33.8s36.3-1.7 62.2-14.3c25.1-12.2 49.7-29.9 69.7-46.4c18.3-15.1 30.8-38.8 35.6-67.6L591.5 173C580.3 160.2 546 131.2 455 116s-132.8 1-147.6 9.5L280.4 287.4c-4.8 28.8-.8 55.2 11.6 75.5c13.5 22.1 31 46.8 50.8 66.6zm56.4-194.3c-7.8-5.7-17-9.7-27.1-11.3s-20.1-.9-29.3 1.9c-5.2 1.6-11.1-1.5-10.4-6.9c.1-.5 .1-1.1 .2-1.6c3.6-21.8 24.3-36.5 46.1-32.8s36.5 24.3 32.9 46.1c-.1 .5-.2 1.1-.3 1.6c-1.1 5.3-7.7 6.3-12.1 3.1zm138.3 18c-1.1 5.3-7.7 6.3-12.1 3.1c-7.8-5.7-17-9.7-27.1-11.3s-20.1-.9-29.3 1.9c-5.2 1.6-11.1-1.5-10.4-6.9c.1-.5 .1-1.1 .2-1.6c3.6-21.8 24.3-36.5 46.1-32.8s36.5 24.3 32.8 46.1c-.1 .5-.2 1.1-.3 1.6zm-20 56.9c7.8-3.3 16.2 3.5 12.7 11.2c-20.7 44.5-69.2 71.6-120 63.1s-87.8-49.9-92.9-98.7c-.9-8.4 9.3-12 15.6-6.4c23.9 21.3 54 36.3 87.9 42s67.2 1.2 96.8-11.1z"/></svg>