<svg xmlns="http://www.w3.org/2000/svg" viewBox="0 0 448 512"><!--! Font Awesome Pro 6.3.0 by @fontawesome - https://fontawesome.com License - https://fontawesome.com/license (Commercial License) Copyright 2023 Fonticons, Inc. --><path d="M124.1 80H48v76.1L124.1 80zM0 192V64C0 46.3 14.3 32 32 32H160c17.7 0 32 14.3 32 32v2.7c0 8.5-3.4 16.6-9.4 22.6L137 135l87 87 87-87L265.4 89.4c-6-6-9.4-14.1-9.4-22.6V64c0-17.7 14.3-32 32-32H416c17.7 0 32 14.3 32 32V192c0 17.7-14.3 32-32 32h-2.7c-8.5 0-16.6-3.4-22.6-9.4L345 169l-87 87 87 87 45.7-45.7c6-6 14.1-9.4 22.6-9.4H416c17.7 0 32 14.3 32 32V448c0 17.7-14.3 32-32 32H288c-17.7 0-32-14.3-32-32v-2.7c0-8.5 3.4-16.6 9.4-22.6L311 377l-87-87-87 87 45.7 45.7c6 6 9.4 14.1 9.4 22.6V448c0 17.7-14.3 32-32 32H32c-17.7 0-32-14.3-32-32V320c0-17.7 14.3-32 32-32h2.7c8.5 0 16.6 3.4 22.6 9.4L103 343l87-87-87-87L57.4 214.6c-6 6-14.1 9.4-22.6 9.4H32c-17.7 0-32-14.3-32-32zM323.9 432H400V355.9L323.9 432zM48 355.9V432h76.1L48 355.9zM323.9 80L400 156.1V80H323.9z"/></svg>