<svg xmlns="http://www.w3.org/2000/svg" viewBox="0 0 384 512"><!--! Font Awesome Pro 6.3.0 by @fontawesome - https://fontawesome.com License - https://fontawesome.com/license (Commercial License) Copyright 2023 Fonticons, Inc. --><path d="M57 5.3C67.3-3 82.4-1.4 90.7 9c18.5 23.1 51.4 38.9 84.9 39l.3 0 .3 0c33.5-.1 66.4-15.9 84.9-39C269.6-1.4 284.7-3 295 5.3s12 23.4 3.7 33.7c-9.9 12.4-22.2 23.1-36 31.8C316 101.1 352 158.3 352 224c0 89.1-66.2 162.7-152 174.4V424h32c13.3 0 24 10.7 24 24s-10.7 24-24 24H200v16c0 13.3-10.7 24-24 24s-24-10.7-24-24V472H120c-13.3 0-24-10.7-24-24s10.7-24 24-24h32V398.4C66.2 386.7 0 313.1 0 224C0 158.3 36 101.1 89.3 70.8C75.5 62.1 63.2 51.4 53.3 39C45 28.7 46.6 13.6 57 5.3zM176 96l-.3 0C105.1 96.2 48 153.4 48 224c0 70.7 57.3 128 128 128s128-57.3 128-128c0-70.6-57.1-127.8-127.7-128l-.3 0z"/></svg>