<svg xmlns="http://www.w3.org/2000/svg" viewBox="0 0 512 512"><!--! Font Awesome Pro 6.3.0 by @fontawesome - https://fontawesome.com License - https://fontawesome.com/license (Commercial License) Copyright 2023 Fonticons, Inc. --><path d="M476.9 204.9l1-1c45.9-46.9 45.6-122.2-1-168.7s-121.8-46.9-168.7-1l-1 .9 0 0-16 16-16 16 0 0-.9 1c-22.5 23-33.9 52.9-34.2 82.8L11.1 410.4C3.9 418.5 0 428.9 0 439.6c0 11.7 4.7 23 12.9 31.3l28.2 28.2c8.3 8.3 19.5 12.9 31.2 12.9c10.8 0 21.2-3.9 29.2-11.1L232 385.9V488c0 13.3 10.7 24 24 24s24-10.7 24-24V343.5L361.1 272c29.9-.3 59.8-11.7 82.8-34.2l1-1 16-16 16-16zM361.9 224L325 187 288 150.1c.5-17.4 7.2-34.6 20.1-48L409.9 203.9c-13.4 12.9-30.7 19.6-48 20.1zm82-54L342.1 68.1c28.2-27.2 73-26.8 100.8 1s28.1 72.7 1 100.8zM265.1 195L291 221 317 246.9 72.5 462.6 49.4 439.5 265.1 195z"/></svg>