<svg xmlns="http://www.w3.org/2000/svg" viewBox="0 0 384 512"><!--! Font Awesome Pro 6.3.0 by @fontawesome - https://fontawesome.com License - https://fontawesome.com/license (Commercial License) Copyright 2023 Fonticons, Inc. --><path d="M240 48V64c0 8.8-7.2 16-16 16H128c-8.8 0-16-7.2-16-16V48H80C62.3 48 48 62.3 48 80V432c0 17.7 14.3 32 32 32H272c17.7 0 32-14.3 32-32V80c0-17.7-14.3-32-32-32H240zM0 80C0 35.8 35.8 0 80 0H272c44.2 0 80 35.8 80 80V432c0 44.2-35.8 80-80 80H80c-44.2 0-80-35.8-80-80V80z"/></svg>