<svg xmlns="http://www.w3.org/2000/svg" viewBox="0 0 512 512"><!--! Font Awesome Pro 6.3.0 by @fontawesome - https://fontawesome.com License - https://fontawesome.com/license (Commercial License) Copyright 2023 Fonticons, Inc. --><path d="M0 258.1C0 133.2 101.2 32 226.1 32h11.8C362.8 32 464 133.2 464 258.1c0 34.2-27.7 61.9-61.9 61.9H296.6 167.4 61.9C27.7 320 0 292.3 0 258.1zM121.9 113.6C77.2 146 48 198.6 48 258.1c0 7.7 6.2 13.9 13.9 13.9H402.1c7.7 0 13.9-6.2 13.9-13.9c0-12-1.2-23.7-3.4-35C403.8 233.4 390.6 240 376 240c-26.5 0-48-21.5-48-48c0-26.1 20.8-47.3 46.7-48c-24.2-29-57.5-50.2-95.4-59.2c.5 3.7 .8 7.4 .8 11.2c0 44.2-35.8 80-80 80c-38.1 0-70-26.7-78.1-62.4zM210.3 352l-15 80h73.4l-15-80h48.8l16.9 90.1c1.8 9.4-.7 19-6.8 26.3s-15.1 11.6-24.6 11.6H176c-9.5 0-18.5-4.2-24.6-11.6s-8.6-17-6.8-26.3L161.4 352h48.8zM120 176a32 32 0 1 1 0 64 32 32 0 1 1 0-64z"/></svg>