<svg xmlns="http://www.w3.org/2000/svg" viewBox="0 0 640 512"><!--! Font Awesome Pro 6.3.0 by @fontawesome - https://fontawesome.com License - https://fontawesome.com/license (Commercial License) Copyright 2023 Fonticons, Inc. --><path d="M630.8 469.1L352 250.6V195.4L489.6 162c13.4-4.2 22.4-16.5 22.4-30.5V32c0-10.3-4.9-19.8-13.2-25.8c-8.2-6.1-18.7-7.7-28.4-4.7l-144 35.4C313.1 41.1 304 53.3 304 67.3V213L38.8 5.1C28.3-3.1 13.3-1.2 5.1 9.2C-3.1 19.6-1.2 34.7 9.2 42.9l592 464c4.4 3.4 9.6 5.1 14.8 5.1c7.1 0 14.2-3.2 18.9-9.2c8.2-10.4 6.4-25.5-4.1-33.7zM352 79.1L464 53.8v65.9L352 145V79.1zM304 366.5c-18.1-9.1-40.1-14.5-64-14.5c-61.9 0-112 35.9-112 80s50.1 80 112 80s112-35.9 112-80l0-59.4L304 335v31.5zM240 464c-39.7 0-64-20.7-64-32s24.2-32 64-32s64 20.7 64 32s-24.2 32-64 32zM38.8 5.1C28.4-3.1 13.3-1.2 5.1 9.2S-1.2 34.7 9.2 42.9l592 464c10.4 8.2 25.5 6.3 33.7-4.1s6.3-25.5-4.1-33.7L352 250.6V195.4l141.9-36.1C504.6 156.6 512 147 512 136V31.1C512 13.9 498.1 0 480.9 0c-2.7 0-5.3 .3-7.9 1L321.9 40.8C311.3 43.6 304 53.1 304 64V213L38.8 5.1zM304 366.3c-18.1-9-40.2-14.3-64-14.3c-61.9 0-112 35.8-112 80s50.1 80 112 80s112-35.8 112-80V373.3l-48-37.8v30.8zm0 65.7c0 2.6-1.4 9.4-12.7 17.5c-11.2 8-29.2 14.5-51.3 14.5s-40.1-6.5-51.3-14.5C177.4 441.4 176 434.6 176 432s1.4-9.4 12.7-17.5c11.2-8 29.2-14.5 51.3-14.5s40.1 6.5 51.3 14.5c11.3 8.1 12.7 14.9 12.7 17.5zM464 117.3L352 145.8V82.5L464 53v64.3z"/></svg>