<svg xmlns="http://www.w3.org/2000/svg" viewBox="0 0 640 512"><!--! Font Awesome Pro 6.3.0 by @fontawesome - https://fontawesome.com License - https://fontawesome.com/license (Commercial License) Copyright 2023 Fonticons, Inc. --><path d="M38.8 5.1C28.4-3.1 13.3-1.2 5.1 9.2S-1.2 34.7 9.2 42.9l592 464c10.4 8.2 25.5 6.3 33.7-4.1s6.3-25.5-4.1-33.7l-71.5-56C569.8 400.2 576 384.7 576 368V144.6c0-.4 0-.7 0-1.1V31c0-17.1-13.9-31-31-31c-3.1 0-6.2 .5-9.1 1.4l-311 95.7C214.9 100.2 208 109.5 208 120v17.7L38.8 5.1zM256 175.3V137.7L528 54v72.2L287.7 200.2 256 175.3zm77.7 60.9L528 176.5V298.7c-14.1-6.8-30.5-10.7-48-10.7c-22.2 0-42.6 6.3-58.8 16.8l-87.4-68.5zM463.4 337.9c4.9-1.2 10.4-1.9 16.6-1.9c35.1 0 48 22.2 48 32c0 3.9-2 9.7-6.6 15.3l-58-45.4zM208 259.9V362.7c-14.1-6.8-30.5-10.7-48-10.7c-53 0-96 35.8-96 80s43 80 96 80s96-35.8 96-80V297.7l-48-37.8zM160 400c35.1 0 48 22.2 48 32s-12.9 32-48 32s-48-22.2-48-32s12.9-32 48-32z"/></svg>