<svg xmlns="http://www.w3.org/2000/svg" viewBox="0 0 640 512"><!--! Font Awesome Pro 6.3.0 by @fontawesome - https://fontawesome.com License - https://fontawesome.com/license (Commercial License) Copyright 2023 Fonticons, Inc. --><path d="M639.4 20.5c2.3-7.7-1.6-16-9-19.2s-16-.4-20.1 6.5L515.9 167.6c-16.1-4.9-33.2-7.6-50.9-7.6c-52.2 0-102.7 18.7-142.4 52.7L168.2 345c-5.3 4.5-12 7-19 7c-16.1 0-29.2-13.1-29.2-29.2V304 258.7l37.9-26.5c21.4-15 34.1-39.4 34.1-65.5l0-54.7c0-6-3.3-11.4-8.6-14.2s-11.7-2.3-16.6 1.1L96 148.5 25.2 98.9c-4.9-3.4-11.3-3.8-16.6-1.1S0 106 0 112l0 54.7c0 26.1 12.7 50.6 34.1 65.5L72 258.7V304v18.8V352c0 88.4 71.6 160 160 160H464c97.2 0 176-79.3 176-176.5c0-50.3-21.2-95.8-55.2-127.9L639.4 20.5zM168.2 345l31.2 36.4c-14 12-31.8 18.6-50.2 18.6c-6.8 0-13.3-.9-19.6-2.5C147.1 436.7 186.3 464 232 464H464c70.5 0 128-57.6 128-128.5C592 265.2 534.9 208 464.9 208c-40.8 0-80.2 14.6-111.2 41.1L199.4 381.4 168.2 345zM496 280a24 24 0 1 1 0 48 24 24 0 1 1 0-48z"/></svg>