<svg xmlns="http://www.w3.org/2000/svg" viewBox="0 0 448 512"><!--! Font Awesome Pro 6.3.0 by @fontawesome - https://fontawesome.com License - https://fontawesome.com/license (Commercial License) Copyright 2023 Fonticons, Inc. --><path d="M357.5 36.2c11 7.5 13.8 22.4 6.3 33.3L313.2 144H392c13.3 0 24 10.7 24 24s-10.7 24-24 24H280.5l-87 128H392c13.3 0 24 10.7 24 24s-10.7 24-24 24H160.9l-69 101.5c-7.5 11-22.4 13.8-33.3 6.3s-13.8-22.4-6.4-33.3L102.8 368H24c-13.3 0-24-10.7-24-24s10.7-24 24-24H135.5l87-128H24c-13.3 0-24-10.7-24-24s10.7-24 24-24H255.1l69-101.5c7.5-11 22.4-13.8 33.3-6.4z"/></svg>