<svg xmlns="http://www.w3.org/2000/svg" viewBox="0 0 320 512"><!--! Font Awesome Pro 6.3.0 by @fontawesome - https://fontawesome.com License - https://fontawesome.com/license (Commercial License) Copyright 2023 Fonticons, Inc. --><path d="M0 108C0 48.4 48.4 0 108 0s108 48.4 108 108V344c0 39.8-32.2 72-72 72s-72-32.2-72-72V152c0-13.3 10.7-24 24-24s24 10.7 24 24V344c0 13.3 10.7 24 24 24s24-10.7 24-24V108c0-33.1-26.9-60-60-60s-60 26.9-60 60V368c0 53 43 96 96 96s96-43 96-96V152c0-13.3 10.7-24 24-24s24 10.7 24 24V368c0 79.5-64.5 144-144 144S0 447.5 0 368V108z"/></svg>