<svg xmlns="http://www.w3.org/2000/svg" viewBox="0 0 512 512"><!--! Font Awesome Pro 6.3.0 by @fontawesome - https://fontawesome.com License - https://fontawesome.com/license (Commercial License) Copyright 2023 Fonticons, Inc. --><path d="M380.5 192c.3-5.3 .5-10.6 .5-16c0-51-15.9-96-40.2-127.6C316.5 16.9 285.2 0 253 0s-63.5 16.9-87.8 48.4C140.9 80 125 125 125 176c0 5.4 .2 10.7 .5 16H229V320H205c-3.3 0-6.5 .3-9.6 1L93.3 188.9c-.2-4.3-.3-8.6-.3-12.9c0-64 22.2-121.2 57.1-159.3C59 49.3 15.6 122.6 1.2 173.6C-1.5 183.1 6 192 15.9 192H35L159.4 353c-1.6 4.7-2.4 9.8-2.4 15v96c0 26.5 21.5 48 48 48h96c26.5 0 48-21.5 48-48V368c0-5.3-.8-10.3-2.4-15L471 192h19.1c9.9 0 17.4-8.9 14.7-18.4C490.4 122.6 447 49.3 355.9 16.7C390.8 54.8 413 112.1 413 176c0 4.3-.1 8.6-.3 12.9L310.6 321c-3.1-.6-6.3-1-9.6-1H277V192H380.5zM205 368h96v96H205V368z"/></svg>