<svg xmlns="http://www.w3.org/2000/svg" viewBox="0 0 576 512"><!--! Font Awesome Pro 6.3.0 by @fontawesome - https://fontawesome.com License - https://fontawesome.com/license (Commercial License) Copyright 2023 Fonticons, Inc. --><path d="M488.5 53.3C477.1 101.7 433.8 136 384 136s-93-34.3-104.5-82.7l-8.2-34.8c-3-12.9-16-20.9-28.9-17.9s-20.9 16-17.9 28.9l8.2 34.8c11.3 48.1 44.3 86.5 87.2 106V488c0 13.3 10.7 24 24 24s24-10.7 24-24V352h32V488c0 13.3 10.7 24 24 24s24-10.7 24-24V170.2c42.9-19.4 75.9-57.8 87.2-105.9l8.2-34.8c3-12.9-5-25.8-17.9-28.9s-25.8 5-28.9 17.9l-8.2 34.8zM400 183.2V304H368V183.2c5.3 .5 10.6 .8 16 .8s10.7-.3 16-.8zM384 96a48 48 0 1 0 0-96 48 48 0 1 0 0 96zM112 48A48 48 0 1 0 16 48a48 48 0 1 0 96 0zM0 204.5L0 488c0 13.3 10.7 24 24 24s24-10.7 24-24l0-136H80V488c0 13.3 10.7 24 24 24s24-10.7 24-24V280c0-13.3-10.7-24-24-24s-24 10.7-24 24v24H48l0-99.5C48 188.8 60.8 176 76.5 176c9.4 0 18.1 4.6 23.4 12.3l56.3 81.4c4.5 6.5 11.9 10.3 19.7 10.3h48c13.3 0 24-10.7 24-24s-10.7-24-24-24H188.6l-49.2-71c-14.3-20.6-37.8-33-62.9-33C34.2 128 0 162.2 0 204.5z"/></svg>