<svg xmlns="http://www.w3.org/2000/svg" viewBox="0 0 512 512"><!--! Font Awesome Pro 6.3.0 by @fontawesome - https://fontawesome.com License - https://fontawesome.com/license (Commercial License) Copyright 2023 Fonticons, Inc. --><path d="M118 0a64 64 0 1 1 0 128A64 64 0 1 1 118 0zM86.9 219.6L53.6 336H182.4L149.1 219.6c-2-6.9-8.2-11.6-15.4-11.6H102.3c-7.1 0-13.4 4.7-15.4 11.6zM40.7 206.4c7.8-27.5 33-46.4 61.5-46.4h31.4c28.6 0 53.7 18.9 61.5 46.4l39.1 136.8c5.8 20.4-9.5 40.8-30.8 40.8H182V488c0 13.3-10.7 24-24 24s-24-10.7-24-24V384H102V488c0 13.3-10.7 24-24 24s-24-10.7-24-24V384H32.4c-21.3 0-36.6-20.3-30.8-40.8L40.7 206.4zM374 0a64 64 0 1 1 0 128A64 64 0 1 1 374 0zM342.9 219.6L309.6 336H438.4L405.1 219.6c-2-6.9-8.2-11.6-15.4-11.6H358.3c-7.1 0-13.4 4.7-15.4 11.6zm-46.2-13.2c7.8-27.5 33-46.4 61.5-46.4h31.4c28.6 0 53.7 18.9 61.5 46.4l39.1 136.8c5.8 20.4-9.5 40.8-30.8 40.8H438V488c0 13.3-10.7 24-24 24s-24-10.7-24-24V384H358V488c0 13.3-10.7 24-24 24s-24-10.7-24-24V384H288.4c-21.3 0-36.6-20.3-30.8-40.8l39.1-136.8z"/></svg>