<svg xmlns="http://www.w3.org/2000/svg" viewBox="0 0 512 512"><!--! Font Awesome Pro 6.3.0 by @fontawesome - https://fontawesome.com License - https://fontawesome.com/license (Commercial License) Copyright 2023 Fonticons, Inc. --><path d="M118 0a64 64 0 1 1 0 128A64 64 0 1 1 118 0zM63.7 237.3l-4.1 49.3C58.8 296 66.2 304 75.6 304H78h80 2.4c9.4 0 16.7-8 15.9-17.3l-4.1-49.3C170.9 220.8 157 208 140.4 208H95.6c-16.6 0-30.5 12.8-31.9 29.3zm160.5 45.3c2.5 29.8-15.7 56.1-42.2 65.6V488c0 13.3-10.7 24-24 24s-24-10.7-24-24V352H102V488c0 13.3-10.7 24-24 24s-24-10.7-24-24V348.3c-26.5-9.5-44.7-35.8-42.2-65.6l4.1-49.3C19.3 191.9 54 160 95.6 160h44.8c41.6 0 76.3 31.9 79.7 73.4l4.1 49.3zM374 0a64 64 0 1 1 0 128A64 64 0 1 1 374 0zM342.9 219.6L309.6 336H438.4L405.1 219.6c-2-6.9-8.2-11.6-15.4-11.6H358.3c-7.1 0-13.4 4.7-15.4 11.6zm-46.2-13.2c7.8-27.5 33-46.4 61.5-46.4h31.4c28.6 0 53.7 18.9 61.5 46.4l39.1 136.8c5.8 20.4-9.5 40.8-30.8 40.8H438V488c0 13.3-10.7 24-24 24s-24-10.7-24-24V384H358V488c0 13.3-10.7 24-24 24s-24-10.7-24-24V384H288.4c-21.3 0-36.6-20.3-30.8-40.8l39.1-136.8z"/></svg>