<svg xmlns="http://www.w3.org/2000/svg" viewBox="0 0 640 512"><!--! Font Awesome Pro 6.3.0 by @fontawesome - https://fontawesome.com License - https://fontawesome.com/license (Commercial License) Copyright 2023 Fonticons, Inc. --><path d="M152 0a48 48 0 1 1 0 96 48 48 0 1 1 0-96zM259.1 299.8l-47.9-84.6 46.3 148c3.2 10.3-4.5 20.8-15.3 20.8H216V488c0 13.3-10.7 24-24 24s-24-10.7-24-24V384H136V488c0 13.3-10.7 24-24 24s-24-10.7-24-24V384H61.8c-10.8 0-18.5-10.5-15.3-20.8l46.3-148L44.9 299.8c-6.5 11.5-21.2 15.6-32.7 9.1S-3.4 287.7 3.1 276.2l51.8-91.5c19.8-35 56.9-56.6 97.1-56.6s77.3 21.6 97.1 56.6l51.8 91.5c6.5 11.5 2.5 26.2-9.1 32.7s-26.2 2.5-32.7-9.1zM198.7 336L152 186.5 105.3 336h93.4zM472 0a48 48 0 1 1 0 96 48 48 0 1 1 0-96zM579.1 299.8l-47.9-84.6 46.3 148c3.2 10.3-4.5 20.8-15.3 20.8H536V488c0 13.3-10.7 24-24 24s-24-10.7-24-24V384H456V488c0 13.3-10.7 24-24 24s-24-10.7-24-24V384H381.8c-10.8 0-18.5-10.5-15.3-20.8l46.3-148-47.9 84.6c-6.5 11.5-21.2 15.6-32.7 9.1s-15.6-21.2-9.1-32.7l51.8-91.5c19.8-35 56.9-56.6 97.1-56.6s77.3 21.6 97.1 56.6l51.8 91.5c6.5 11.5 2.5 26.2-9.1 32.7s-26.2 2.5-32.7-9.1zM518.7 336L472 186.5 425.3 336h93.4z"/></svg>