<svg xmlns="http://www.w3.org/2000/svg" viewBox="0 0 512 512"><!--! Font Awesome Pro 6.3.0 by @fontawesome - https://fontawesome.com License - https://fontawesome.com/license (Commercial License) Copyright 2023 Fonticons, Inc. --><path d="M107 0a64 64 0 1 1 0 128A64 64 0 1 1 107 0zM52.7 237.3l-4.1 49.3C47.8 296 55.2 304 64.6 304H67h80 2.4c9.4 0 16.7-8 15.9-17.3l-4.1-49.3C159.9 220.8 146 208 129.4 208H84.6c-16.6 0-30.5 12.8-31.9 29.3zm160.5 45.3c2.5 29.8-15.7 56.1-42.2 65.6V488c0 13.3-10.7 24-24 24s-24-10.7-24-24V352H91V488c0 13.3-10.7 24-24 24s-24-10.7-24-24V348.3C16.5 338.8-1.7 312.4 .8 282.7l4.1-49.3C8.3 191.9 43 160 84.6 160h44.8c41.6 0 76.3 31.9 79.7 73.4l4.1 49.3zM363 0a64 64 0 1 1 0 128A64 64 0 1 1 363 0zM308.7 237.3l-4.1 49.3c-.8 9.3 6.6 17.3 15.9 17.3H323h80 2.4c9.4 0 16.7-8 15.9-17.3l-4.1-49.3C415.9 220.8 402 208 385.4 208H340.6c-16.6 0-30.5 12.8-31.9 29.3zm160.5 45.3c2.5 29.8-15.7 56.1-42.2 65.6V488c0 13.3-10.7 24-24 24s-24-10.7-24-24V352H347V488c0 13.3-10.7 24-24 24s-24-10.7-24-24V348.3c-26.5-9.5-44.7-35.8-42.2-65.6l4.1-49.3c3.5-41.5 38.1-73.4 79.7-73.4h44.8c41.6 0 76.3 31.9 79.7 73.4l4.1 49.3z"/></svg>