<svg xmlns="http://www.w3.org/2000/svg" viewBox="0 0 640 512"><!--! Font Awesome Pro 6.3.0 by @fontawesome - https://fontawesome.com License - https://fontawesome.com/license (Commercial License) Copyright 2023 Fonticons, Inc. --><path d="M43 64a64 64 0 1 1 128 0A64 64 0 1 1 43 64zM84.6 208c-16.6 0-30.5 12.8-31.9 29.3l-4.1 49.3C47.8 296 55.2 304 64.6 304H67h40c0 14.3 5.5 28.7 16.4 39.6L171 391.2V488c0 13.3-10.7 24-24 24s-24-10.7-24-24V352H91V488c0 13.3-10.7 24-24 24s-24-10.7-24-24V348.3C16.5 338.8-1.7 312.4 .8 282.7l4.1-49.3C8.3 191.9 43 160 84.6 160h44.8c27 0 51 13.4 65.5 34.1c-2.6 1.8-5.2 4-7.5 6.3l-28.1 28.1c-4.6-12.1-16.3-20.5-29.9-20.5H84.6zM427 488V391.2l47.6-47.6C485.5 332.7 491 318.3 491 304h40 2.4c9.4 0 16.7-8 15.9-17.3l-4.1-49.3C543.9 220.8 530 208 513.4 208H468.6c-13.5 0-25.2 8.4-29.9 20.5l-28.1-28.1c-2.4-2.4-4.9-4.5-7.5-6.3c14.5-20.7 38.6-34.1 65.5-34.1h44.8c41.6 0 76.3 31.9 79.7 73.4l4.1 49.3c2.5 29.8-15.7 56.1-42.2 65.6V488c0 13.3-10.7 24-24 24s-24-10.7-24-24V352H475V488c0 13.3-10.7 24-24 24s-24-10.7-24-24zm0-424a64 64 0 1 1 128 0A64 64 0 1 1 427 64zM244 257l-23 23H377.1l-23-23c-9.4-9.4-9.4-24.6 0-33.9s24.6-9.4 33.9 0l64 64c9.4 9.4 9.4 24.6 0 33.9l-64 64c-9.4 9.4-24.6 9.4-33.9 0s-9.4-24.6 0-33.9l23-23H220.9l23 23c9.4 9.4 9.4 24.6 0 33.9s-24.6 9.4-33.9 0l-64-64c-9.4-9.4-9.4-24.6 0-33.9l64-64c9.4-9.4 24.6-9.4 33.9 0s9.4 24.6 0 33.9z"/></svg>