<svg xmlns="http://www.w3.org/2000/svg" viewBox="0 0 448 512"><!--! Font Awesome Pro 6.3.0 by @fontawesome - https://fontawesome.com License - https://fontawesome.com/license (Commercial License) Copyright 2023 Fonticons, Inc. --><path d="M128 39c0 13.8 11.2 25 25 25H304c8.8 0 16-7.2 16-16V17.4C320 8 312 .7 302.7 1.4L150.9 14.1C138 15.2 128 26 128 39zm277.9 1c-7.7-4.4-17.4-1.8-21.9 5.9s-1.8 17.4 5.9 21.9L295.2 231.6c-10.1-3.8-20.8-6.2-31.7-7.1c-2.5-.3-5-.4-7.6-.4h-2.7H194.7 192c-2.6 0-5.1 .1-7.5 .4c-35.7 3.1-68.5 22-88.9 52L4.2 410.5c-7.5 11-4.6 25.9 6.3 33.4s25.9 4.6 33.3-6.3L128 314.1V480c0 17.7 14.3 32 32 32H288c17.7 0 32-14.3 32-32V314.1l84.2 123.5c7.5 11 22.4 13.8 33.4 6.3s13.8-22.4 6.3-33.3l-85.2-125 38.6-66.9c8.8-15.3 3.6-34.9-11.7-43.7l-1.6-.9 55.5-96.1c4.4-7.7 1.8-17.4-5.9-21.9l-13.9-8-13.9-8zM272 403.6L196.8 272h56.5c1.7 0 3.5 .1 5.2 .2c7.7 1.2 13.5 7.8 13.5 15.8V403.6zm-96-71.3L251.2 464H176V332.4zM144 112c0 44.2 35.8 80 80 80s80-35.8 80-80c0-5.5-.6-10.8-1.6-16H251.7c2.7 4.7 4.3 10.2 4.3 16c0 17.7-14.3 32-32 32s-32-14.3-32-32c0-5.8 1.6-11.3 4.3-16H145.6c-1 5.2-1.6 10.5-1.6 16z"/></svg>