<svg xmlns="http://www.w3.org/2000/svg" viewBox="0 0 256 512"><!--! Font Awesome Pro 6.3.0 by @fontawesome - https://fontawesome.com License - https://fontawesome.com/license (Commercial License) Copyright 2023 Fonticons, Inc. --><path d="M107 128A64 64 0 1 0 107 0a64 64 0 1 0 0 128zM52.7 237.3C54.1 220.8 68 208 84.6 208h44.8c16.6 0 30.5 12.8 31.9 29.3l4.1 49.3c.8 9.3-6.6 17.3-15.9 17.3H147 67 64.6c-9.4 0-16.7-8-15.9-17.3l4.1-49.3zM91 352h32V488c0 13.3 10.7 24 24 24s24-10.7 24-24V348.3c26.5-9.5 44.7-35.8 42.2-65.6l-4.1-49.3C205.7 191.9 171 160 129.4 160H84.6C43 160 8.3 191.9 4.9 233.4L.8 282.7c-2.5 29.8 15.7 56.1 42.2 65.6V488c0 13.3 10.7 24 24 24s24-10.7 24-24V352z"/></svg>