<svg xmlns="http://www.w3.org/2000/svg" viewBox="0 0 448 512"><!--! Font Awesome Pro 6.3.0 by @fontawesome - https://fontawesome.com License - https://fontawesome.com/license (Commercial License) Copyright 2023 Fonticons, Inc. --><path d="M189 80a32 32 0 1 1 64 0 32 32 0 1 1 -64 0zm112 0A80 80 0 1 0 141 80a80 80 0 1 0 160 0zM113.9 282.2c19.6-26.5 50.6-42.2 83.6-42.2h58.3c27.6 0 54.1 11 73.7 30.6l55.2 55.3c12 12 12.5 31.3 1.2 43.9L323.1 440c-8.8 9.9-8 25.1 1.9 33.9s25.1 8 33.9-1.9l62.8-70.2c28.3-31.6 27-79.8-3-109.8l-55.2-55.3C335 208.1 296.3 192 255.9 192H197.6c-48.2 0-93.6 22.9-122.2 61.7l-56 75.7C-11.1 370.6 4.5 429.5 51.5 450.2L187.3 510c12.1 5.3 26.3-.2 31.6-12.3s-.2-26.3-12.3-31.6L70.8 406.2c-18.8-8.3-25-31.8-12.8-48.3l56-75.7zM189 328c0-13.3-10.7-24-24-24s-24 10.7-24 24v43.4c0 7.5 2.1 14.8 6.1 21.2C174.8 437 223.5 464 275.9 464H277c13.3 0 24-10.7 24-24s-10.7-24-24-24h-1.1c-35.1 0-67.7-17.7-86.9-46.9V328zm80 56a48 48 0 1 0 0-96 48 48 0 1 0 0 96z"/></svg>