<svg xmlns="http://www.w3.org/2000/svg" viewBox="0 0 512 512"><!--! Font Awesome Pro 6.3.0 by @fontawesome - https://fontawesome.com License - https://fontawesome.com/license (Commercial License) Copyright 2023 Fonticons, Inc. --><path d="M208 0c-44.2 0-80 35.8-80 80s35.8 80 80 80c43.9 0 79.5-35.3 80-79V79c-.5-43.7-36.1-79-80-79zm20.7 192H187.3c-45.5 0-87 25.7-107.3 66.3L2.5 413.3c-5.9 11.9-1.1 26.3 10.7 32.2s26.3 1.1 32.2-10.7L120 285.7V488c0 13.3 10.7 24 24 24s24-10.7 24-24V242.6c6.2-1.7 12.7-2.6 19.3-2.6h41.3c3.8 0 7.6 .3 11.3 .9V488c0 13.3 10.7 24 24 24s24-10.7 24-24V271.2 207.7c-17.8-10.1-38.1-15.7-59.3-15.7zM176 80a32 32 0 1 1 64 0 32 32 0 1 1 -64 0zM384 0c-8.8 0-16 7.2-16 16s7.2 16 16 16V132.3c-9.6 5.5-16 15.9-16 27.7v32H352c-17.7 0-32 14.3-32 32V352c0 17.7 14.3 32 32 32h32v48 64c0 8.8 7.2 16 16 16h59.5c10.4 0 18-9.8 15.5-19.9L452 400h44c8.8 0 16-7.2 16-16V368c0-8.8-7.2-16-16-16H448V325.3l53.1-17.7c6.5-2.2 10.9-8.3 10.9-15.2V208c0-8.8-7.2-16-16-16H480c-8.8 0-16 7.2-16 16v56l-16 5.3V160c0-11.8-6.4-22.2-16-27.7V16c0-8.8-7.2-16-16-16H400 384zm16 336H384 368V240h32v96z"/></svg>