<svg xmlns="http://www.w3.org/2000/svg" viewBox="0 0 640 512"><!--! Font Awesome Pro 6.3.0 by @fontawesome - https://fontawesome.com License - https://fontawesome.com/license (Commercial License) Copyright 2023 Fonticons, Inc. --><path d="M99.9 0H205.4c12.5 0 22.6 10.1 22.6 22.6s-10.1 22.6-22.6 22.6H154.5l52.2 52.2c19.6 19.6 46.2 30.7 74 30.7s54.4-11 74-30.7L445.4 6.6c8.8-8.8 23.1-8.8 31.9 0s8.8 23.1 0 31.9l-90.7 90.7c-28.1 28.1-66.2 43.9-105.9 43.9s-77.8-15.8-105.9-43.9L122.5 77.1V128c0 12.5-10.1 22.6-22.6 22.6s-22.6-10.1-22.6-22.6V22.6C77.4 10.1 87.5 0 99.9 0zM408.6 368.9v46.4c0 3.6 2.6 6.8 6.2 7.4l80.8 14.7c3.5 .6 6.9-1.2 8.3-4.5l23.3-55.3c7-16.6 2.3-29.1-4.2-34.7c-46.6-40-128.7-86.9-234.8-86.9S100 302.9 53.3 342.9c-6.5 5.6-11.1 18.1-4.2 34.7l23.3 55.3c1.4 3.3 4.8 5.1 8.3 4.5l80.8-14.7c3.6-.7 6.2-3.8 6.2-7.4V368.9c0-18.5 11.2-35.1 28.4-41.9c59.1-23.6 125-23.6 184.1 0c17.2 6.9 28.4 23.5 28.4 41.9zm-45.2 46.4V368.9c-48.3-19.3-102.3-19.3-150.6 0v46.4c0 25.5-18.2 47.3-43.3 51.9L88.8 481.8c-24.3 4.4-48.4-8.6-58-31.4L7.5 395.1C-5.1 365-.9 329.9 23.9 308.6c52.5-45 144.6-97.8 264.3-97.8s211.8 52.8 264.3 97.8c24.8 21.3 29.1 56.4 16.4 86.5l-23.3 55.3c-9.6 22.8-33.7 35.8-58 31.4l-80.8-14.7c-25.1-4.6-43.3-26.4-43.3-51.9z"/></svg>