<svg xmlns="http://www.w3.org/2000/svg" viewBox="0 0 512 512"><!--! Font Awesome Pro 6.3.0 by @fontawesome - https://fontawesome.com License - https://fontawesome.com/license (Commercial License) Copyright 2023 Fonticons, Inc. --><path d="M368 88c0-13.3-10.7-24-24-24s-24 10.7-24 24V424c0 13.3 10.7 24 24 24s24-10.7 24-24V88zm144 0c0-13.3-10.7-24-24-24s-24 10.7-24 24V424c0 13.3 10.7 24 24 24s24-10.7 24-24V88zM48 381.8V130.2L199 256 48 381.8zM52.5 71.4c-9.5-7.9-22.8-9.7-34.1-4.4S0 83.6 0 96V416c0 12.4 7.2 23.7 18.4 29s24.5 3.6 34.1-4.4l192-160c7.3-6.1 11.5-15.1 11.5-24.6s-4.2-18.5-11.5-24.6l-192-160z"/></svg>