<svg xmlns="http://www.w3.org/2000/svg" viewBox="0 0 640 512"><!--! Font Awesome Pro 6.3.0 by @fontawesome - https://fontawesome.com License - https://fontawesome.com/license (Commercial License) Copyright 2023 Fonticons, Inc. --><path d="M96 24c0 26.5 10.5 38.7 25.9 56.1l.4 .4C138.8 99 160 122.9 160 168c0 13.3-10.7 24-24 24s-24-10.7-24-24c0-26.5-10.5-38.7-25.9-56.1l-.4-.4C69.2 93 48 69.1 48 24C48 10.7 58.7 0 72 0S96 10.7 96 24zm112 0c0 26.5 10.5 38.7 25.9 56.1l.4 .4C250.8 99 272 122.9 272 168c0 13.3-10.7 24-24 24s-24-10.7-24-24c0-26.5-10.5-38.7-25.9-56.1l-.4-.4C181.2 93 160 69.1 160 24c0-13.3 10.7-24 24-24s24 10.7 24 24zm208 88c50.7 0 93.6 33.7 107.4 80H308.6c13.8-46.3 56.6-80 107.4-80zM0 280c0-13.3 10.7-24 24-24H50.7c6.6-18.6 24.4-32 45.3-32H512c20.9 0 38.7 13.4 45.3 32H584c13.3 0 24 10.7 24 24s-10.7 24-24 24H557.7c-11 76.9-61.1 141.2-129.5 172.2c-8.1 21-28.4 35.8-52.3 35.8H232c-23.8 0-44.2-14.9-52.3-35.8C111.3 445.2 61.3 380.9 50.3 304H24c-13.3 0-24-10.7-24-24zM224.5 458.9c1.2 3.1 4.2 5.1 7.5 5.1H376c3.3 0 6.3-2 7.5-5.1c4.5-11.7 13.5-21.2 25-26.4C469.6 404.8 512 343.3 512 272H96c0 71.3 42.4 132.8 103.5 160.5c11.5 5.2 20.4 14.7 25 26.4z"/></svg>