<svg xmlns="http://www.w3.org/2000/svg" viewBox="0 0 448 512"><!--! Font Awesome Pro 6.3.0 by @fontawesome - https://fontawesome.com License - https://fontawesome.com/license (Commercial License) Copyright 2023 Fonticons, Inc. --><path d="M397.6 256L247.7 113.3c-.8-.8-2-1.3-3.2-1.3c-2.5 0-4.6 2-4.6 4.6l0 83.4c0 13.3-10.7 24-24 24L48 224l0 64 168 0c13.3 0 24 10.7 24 24l0 83.4c0 2.5 2 4.6 4.6 4.6c1.2 0 2.3-.5 3.2-1.3L397.6 256zm37.2-30.9c8.5 8.1 13.2 19.2 13.2 30.9s-4.8 22.8-13.2 30.9L280.8 433.5c-9.8 9.3-22.8 14.5-36.3 14.5c-29 0-52.6-23.5-52.6-52.6l0-59.4L48 336c-26.5 0-48-21.5-48-48l0-64c0-26.5 21.5-48 48-48l144 0 0-59.4c0-29 23.5-52.6 52.6-52.6c13.5 0 26.5 5.2 36.3 14.5L434.8 225.1z"/></svg>