<svg xmlns="http://www.w3.org/2000/svg" viewBox="0 0 576 512"><!--! Font Awesome Pro 6.3.0 by @fontawesome - https://fontawesome.com License - https://fontawesome.com/license (Commercial License) Copyright 2023 Fonticons, Inc. --><path d="M181.7 32c-30.4 0-57.5 19-67.7 47.6L4.6 383.6C-12.3 430.5 22.4 480 72.3 480H495.7c49.9 0 84.6-49.5 67.7-96.4L454 79.6C443.7 51 416.6 32 386.3 32H181.7zM159.2 95.9c3.4-9.5 12.5-15.9 22.6-15.9H260v24c0 13.3 10.7 24 24 24s24-10.7 24-24V80h78.3c10.1 0 19.2 6.3 22.6 15.9l109.4 304c5.6 15.6-6 32.1-22.6 32.1H308V408c0-13.3-10.7-24-24-24s-24 10.7-24 24v24H72.3c-16.6 0-28.2-16.5-22.6-32.1l109.4-304zM308 216c0-13.3-10.7-24-24-24s-24 10.7-24 24v80c0 13.3 10.7 24 24 24s24-10.7 24-24V216z"/></svg>