<svg xmlns="http://www.w3.org/2000/svg" viewBox="0 0 512 512"><!--! Font Awesome Pro 6.3.0 by @fontawesome - https://fontawesome.com License - https://fontawesome.com/license (Commercial License) Copyright 2023 Fonticons, Inc. --><path d="M78 187.1C104.8 124.1 167.3 80 240 80c39.7 0 77.8 15.8 105.9 43.9l4.1 4.1-35.7 35.7c-6.6 6.6-10.3 15.6-10.3 25c0 19.5 15.8 35.3 35.3 35.3H456c13.3 0 24-10.7 24-24V83.3C480 63.8 464.2 48 444.7 48c-9.4 0-18.3 3.7-25 10.3L384 94.1l-4.1-4.1C342.8 52.8 292.5 32 240 32C147.4 32 67.9 88.2 33.8 168.3c-5.2 12.2 .5 26.3 12.7 31.5s26.3-.5 31.5-12.7zm368 157c5.2-12.2-.4-26.3-12.6-31.5s-26.3 .4-31.5 12.6C375 388.1 312.6 432 240 432c-39.7 0-77.8-15.8-105.9-43.9l-4.1-4.1 35.7-35.7c6.6-6.6 10.3-15.6 10.3-25c0-19.5-15.8-35.3-35.3-35.3H24c-13.3 0-24 10.7-24 24V428.7C0 448.2 15.8 464 35.3 464c9.4 0 18.3-3.7 25-10.3L96 417.9l4.1 4.1C137.2 459.2 187.5 480 240 480c92.5 0 171.8-56 206-135.9zM432 176H369.9L432 113.9V176zM48 336h62.1L48 398.1V336z"/></svg>