<svg xmlns="http://www.w3.org/2000/svg" viewBox="0 0 512 512"><!--! Font Awesome Pro 6.3.0 by @fontawesome - https://fontawesome.com License - https://fontawesome.com/license (Commercial License) Copyright 2023 Fonticons, Inc. --><path d="M355.2 122.9C324.3 96.2 284 80 240 80C142.8 80 64 158.8 64 256s78.8 176 176 176c39.7 0 76.2-13.1 105.6-35.2c10.6-8 25.6-5.8 33.6 4.8s5.8 25.6-4.8 33.6C337 463.3 290.4 480 240 480C116.3 480 16 379.7 16 256S116.3 32 240 32c57.3 0 109.6 21.5 149.2 56.9l30.5-30.5c6.6-6.6 15.6-10.3 25-10.3C464.2 48 480 63.8 480 83.3V200c0 13.3-10.7 24-24 24H339.3c-19.5 0-35.3-15.8-35.3-35.3c0-9.4 3.7-18.3 10.3-25l40.8-40.8zm76.8-9L369.9 176H432V113.9z"/></svg>