<svg xmlns="http://www.w3.org/2000/svg" viewBox="0 0 512 512"><!--! Font Awesome Pro 6.3.0 by @fontawesome - https://fontawesome.com License - https://fontawesome.com/license (Commercial License) Copyright 2023 Fonticons, Inc. --><path d="M49 192H432.3c-3.3 42-12.4 79.6-27.6 113.3C376 369 323.9 421.2 240.5 461.7c-84.6-37.1-136.4-89.1-164.6-153.4C60.7 273.8 52 235.1 49 192zM257.6 6c-10.2-6.1-23-6.1-33.2 0c-53.2 31.8-107 33.5-178.8 20C27.9 22.7 10.6 34.7 8 52.9C-7 156.5-2.5 249.5 31.9 327.6c34.7 78.9 98.6 139.8 196.5 181.1c8.3 3.5 17.8 3.3 26-.5c95.4-44.7 158.9-105.4 194.1-183.2c34.9-77.2 40.4-168.5 25.5-272.2c-2.6-18.2-19.9-30.2-37.7-26.9C364.6 39.5 310.8 37.8 257.6 6z"/></svg>