<svg xmlns="http://www.w3.org/2000/svg" viewBox="0 0 512 512"><!--! Font Awesome Pro 6.3.0 by @fontawesome - https://fontawesome.com License - https://fontawesome.com/license (Commercial License) Copyright 2023 Fonticons, Inc. --><path d="M53.2 379.3c-6.2-6.2-6.2-16.4 0-22.6l39.4-39.4 30.1 30.1c6.2 6.2 16.4 6.2 22.6 0s6.2-16.4 0-22.6l-30.1-30.1 41.4-41.4 30.1 30.1c6.2 6.2 16.4 6.2 22.6 0s6.2-16.4 0-22.6l-30.1-30.1 41.4-41.4 30.1 30.1c6.2 6.2 16.4 6.2 22.6 0s6.2-16.4 0-22.6l-30.1-30.1 41.4-41.4 30.1 30.1c6.2 6.2 16.4 6.2 22.6 0s6.2-16.4 0-22.6l-30.1-30.1 39.4-39.4c6.2-6.2 16.4-6.2 22.6 0l69.5 69.5c6.2 6.2 6.2 16.4 0 22.6L145.3 448.8c-6.2 6.2-16.4 6.2-22.6 0L53.2 379.3zM88.7 482.7c25 25 65.5 25 90.5 0L472.7 189.3c25-25 25-65.5 0-90.5L403.3 29.3c-25-25-65.5-25-90.5 0L19.3 322.7c-25 25-25 65.5 0 90.5l69.5 69.5z"/></svg>