<svg xmlns="http://www.w3.org/2000/svg" viewBox="0 0 640 512"><!--! Font Awesome Pro 6.3.0 by @fontawesome - https://fontawesome.com License - https://fontawesome.com/license (Commercial License) Copyright 2023 Fonticons, Inc. --><path d="M541.9 16.7c4 12.6-2.9 26.1-15.5 30.2L398.6 87.7c-3.1 32.4-25.5 59.2-55.6 68.6V464H519c13.3 0 24 10.7 24 24s-10.7 24-24 24H319c-13.3 0-24-10.7-24-24V156.3c-14.2-4.5-26.8-12.8-36.4-23.8L126.3 174.9c-12.6 4-26.1-2.9-30.2-15.5s2.9-26.1 15.5-30.2L239.4 88.3c-.3-2.7-.4-5.5-.4-8.3c0-44.2 35.8-80 80-80c29.8 0 55.8 16.3 69.6 40.5L511.7 1.1c12.6-4 26.1 2.9 30.2 15.5zM511 163.8L438.6 288H583.4L511 163.8zM385 305.1c-2.6-11 1-22.3 6.7-32.1l95.2-163.2c5-8.6 14.2-13.8 24.1-13.8s19.1 5.3 24.1 13.8l95.2 163.2c5.7 9.8 9.3 21.1 6.7 32.1C626.2 350 573.9 384 511 384s-115.2-34-126-78.9zM55.7 416H200.6L128.2 291.8 55.7 416zm72.4 96C65.3 512 13 478 2.2 433.1c-2.6-11 1-22.3 6.7-32.1l95.2-163.2c5-8.6 14.2-13.8 24.1-13.8s19.1 5.3 24.1 13.8l95.2 163.2c5.7 9.8 9.3 21.1 6.7 32.1C243.3 478 191 512 128.2 512zM319 112a32 32 0 1 0 0-64 32 32 0 1 0 0 64z"/></svg>