<svg xmlns="http://www.w3.org/2000/svg" viewBox="0 0 640 512"><!--! Font Awesome Pro 6.3.0 by @fontawesome - https://fontawesome.com License - https://fontawesome.com/license (Commercial License) Copyright 2023 Fonticons, Inc. --><path d="M96.1 16.7c-4 12.6 2.9 26.1 15.5 30.2L239.4 87.7c3.1 32.4 25.5 59.2 55.6 68.6V464H119c-13.3 0-24 10.7-24 24s10.7 24 24 24H319c13.3 0 24-10.7 24-24V156.3c14.2-4.5 26.8-12.8 36.4-23.8l132.3 42.3c12.6 4 26.1-2.9 30.2-15.5s-2.9-26.1-15.5-30.2L398.6 88.3c.3-2.7 .4-5.5 .4-8.3c0-44.2-35.8-80-80-80c-29.8 0-55.8 16.3-69.6 40.5L126.3 1.1c-12.6-4-26.1 2.9-30.2 15.5zM127 163.8L199.4 288H54.6L127 163.8zM253 305.1c2.6-11-1-22.3-6.7-32.1L151.1 109.8c-5-8.6-14.2-13.8-24.1-13.8s-19.1 5.3-24.1 13.8L7.7 273.1C2 282.8-1.6 294.1 1 305.1C11.8 350 64.1 384 127 384s115.2-34 126-78.9zM582.3 416H437.4l72.4-124.2L582.3 416zm-72.4 96c62.9 0 115.2-34 126-78.9c2.6-11-1-22.3-6.7-32.1L533.9 237.8c-5-8.6-14.2-13.8-24.1-13.8s-19.1 5.3-24.1 13.8L390.6 401.1c-5.7 9.8-9.3 21.1-6.7 32.1C394.7 478 447 512 509.8 512zM319 48a32 32 0 1 1 0 64 32 32 0 1 1 0-64z"/></svg>