<svg xmlns="http://www.w3.org/2000/svg" viewBox="0 0 448 512"><!--! Font Awesome Pro 6.3.0 by @fontawesome - https://fontawesome.com License - https://fontawesome.com/license (Commercial License) Copyright 2023 Fonticons, Inc. --><path d="M24 32C10.7 32 0 42.7 0 56V456c0 13.3 10.7 24 24 24s24-10.7 24-24V80H168c39.8 0 72 32.2 72 72V336c0 13.3 10.7 24 24 24s24-10.7 24-24V152c0-66.3-53.7-120-120-120H24zM296 480c66.3 0 120-53.7 120-120V56c0-13.3-10.7-24-24-24s-24 10.7-24 24V360c0 39.8-32.2 72-72 72H176V184c0-13.3-10.7-24-24-24s-24 10.7-24 24V456c0 13.3 10.7 24 24 24H296z"/></svg>