<svg xmlns="http://www.w3.org/2000/svg" viewBox="0 0 512 512"><!--! Font Awesome Pro 6.3.0 by @fontawesome - https://fontawesome.com License - https://fontawesome.com/license (Commercial License) Copyright 2023 Fonticons, Inc. --><path d="M57 127c-5.9 2.5-9.1 7.8-9 12.8c.1 17.9 1.6 38.4 5.1 60.3H216V59.6L57 127zm6.7 121C84.7 321.9 129.6 401.7 216 450.3V248H63.7zM264 248V450.4C350.4 401.8 395.4 322 416.3 248H264zm162.9-48c3.5-21.9 5-42.3 5.1-60.3c0-5-3.1-10.2-9-12.8L264 59.6V200H426.9zM253.4 2.9L441.7 82.8c22 9.3 38.4 31 38.3 57.2c-.5 99.2-41.3 280.7-213.6 363.2c-16.7 8-36.1 8-52.8 0C41.3 420.7 .5 239.2 0 140c-.1-26.2 16.3-47.9 38.3-57.2L226.7 2.9C230.8 1 235.4 0 240 0s9.2 1 13.4 2.9z"/></svg>