<svg xmlns="http://www.w3.org/2000/svg" viewBox="0 0 512 512"><!--! Font Awesome Pro 6.3.0 by @fontawesome - https://fontawesome.com License - https://fontawesome.com/license (Commercial License) Copyright 2023 Fonticons, Inc. --><path d="M216 59.6V450.3C83.2 375.7 48.4 227.3 48 139.7c0-5 3.1-10.2 9-12.8L216 59.6zm48 390.8V59.6L423 127c5.9 2.5 9.1 7.8 9 12.8c-.4 87.5-35.2 236-168 310.6zM441.7 82.8L253.4 2.9C249.2 1 244.7 0 240 0s-9.2 1-13.4 2.9L38.3 82.8C16.3 92.1-.1 113.8 0 140c.5 99.2 41.3 280.7 213.6 363.2c16.7 8 36.1 8 52.8 0C438.8 420.7 479.5 239.2 480 140c.1-26.2-16.3-47.9-38.3-57.2z"/></svg>