<svg xmlns="http://www.w3.org/2000/svg" viewBox="0 0 512 512"><!--! Font Awesome Pro 6.3.0 by @fontawesome - https://fontawesome.com License - https://fontawesome.com/license (Commercial License) Copyright 2023 Fonticons, Inc. --><path d="M57 127L240 49.4 423 127c5.9 2.5 9.1 7.8 9 12.8c-.4 91.4-38.4 249.3-186.3 320.1c-3.6 1.7-7.8 1.7-11.3 0C86.4 389 48.5 231.2 48 139.7c0-5 3.1-10.2 9-12.8zM441.7 82.8L253.4 2.9C249.2 1 244.7 0 240 0s-9.2 1-13.4 2.9L38.3 82.8C16.3 92.1-.1 113.8 0 140c.5 99.2 41.3 280.7 213.6 363.2c16.7 8 36.1 8 52.8 0C438.8 420.7 479.5 239.2 480 140c.1-26.2-16.3-47.9-38.3-57.2zM144 154.4V272c0 53 43 96 96 96s96-43 96-96V154.4c0-5.8-4.7-10.4-10.4-10.4h-.2c-3.4 0-6.5 1.6-8.5 4.3l-40 53.3c-3 4-7.8 6.4-12.8 6.4H216c-5 0-9.8-2.4-12.8-6.4l-40-53.3c-2-2.7-5.2-4.3-8.5-4.3h-.2c-5.8 0-10.4 4.7-10.4 10.4zM200 256a16 16 0 1 1 0 32 16 16 0 1 1 0-32zm64 16a16 16 0 1 1 32 0 16 16 0 1 1 -32 0z"/></svg>