<svg xmlns="http://www.w3.org/2000/svg" viewBox="0 0 512 512"><!--! Font Awesome Pro 6.3.0 by @fontawesome - https://fontawesome.com License - https://fontawesome.com/license (Commercial License) Copyright 2023 Fonticons, Inc. --><path d="M57 127L240 49.4 423 127c5.9 2.5 9.1 7.8 9 12.8c-.4 91.4-38.4 249.3-186.3 320.1c-3.6 1.7-7.8 1.7-11.3 0C86.4 389 48.5 231.2 48 139.7c0-5 3.1-10.2 9-12.8zM441.7 82.8L253.4 2.9C249.2 1 244.7 0 240 0s-9.2 1-13.4 2.9L38.3 82.8C16.3 92.1-.1 113.8 0 140c.5 99.2 41.3 280.7 213.6 363.2c16.7 8 36.1 8 52.8 0C438.8 420.7 479.5 239.2 480 140c.1-26.2-16.3-47.9-38.3-57.2zM240 96c-8.8 0-16 7.2-16 16c0 33-39.9 49.5-63.2 26.2c-6.2-6.2-16.4-6.2-22.6 0s-6.2 16.4 0 22.6C161.5 184.1 145 224 112 224c-8.8 0-16 7.2-16 16s7.2 16 16 16c33 0 49.5 39.9 26.2 63.2c-6.2 6.2-6.2 16.4 0 22.6s16.4 6.2 22.6 0C184.1 318.5 224 335 224 368c0 8.8 7.2 16 16 16s16-7.2 16-16c0-33 39.9-49.5 63.2-26.2c6.2 6.2 16.4 6.2 22.6 0s6.2-16.4 0-22.6C318.5 295.9 335 256 368 256c8.8 0 16-7.2 16-16s-7.2-16-16-16c-33 0-49.5-39.9-26.2-63.2c6.2-6.2 6.2-16.4 0-22.6s-16.4-6.2-22.6 0C295.9 161.5 256 145 256 112c0-8.8-7.2-16-16-16zm-24 96a24 24 0 1 1 0 48 24 24 0 1 1 0-48zm40 80a16 16 0 1 1 32 0 16 16 0 1 1 -32 0z"/></svg>