<svg xmlns="http://www.w3.org/2000/svg" viewBox="0 0 512 512"><!--! Font Awesome Pro 6.3.0 by @fontawesome - https://fontawesome.com License - https://fontawesome.com/license (Commercial License) Copyright 2023 Fonticons, Inc. --><path d="M240 49.4L57 127c-5.9 2.5-9.1 7.8-9 12.8c.5 91.4 38.4 249.3 186.4 320.1c3.6 1.7 7.8 1.7 11.3 0C393.7 389 431.6 231.2 432 139.7c0-5-3.1-10.2-9-12.8L240 49.4zM253.4 2.9L441.7 82.8c22 9.3 38.4 31 38.3 57.2c-.5 99.2-41.3 280.7-213.6 363.2c-16.7 8-36.1 8-52.8 0C41.3 420.7 .5 239.2 0 140c-.1-26.2 16.3-47.9 38.3-57.2L226.7 2.9C230.8 1 235.4 0 240 0s9.2 1 13.4 2.9z"/></svg>