<svg xmlns="http://www.w3.org/2000/svg" viewBox="0 0 640 512"><!--! Font Awesome Pro 6.3.0 by @fontawesome - https://fontawesome.com License - https://fontawesome.com/license (Commercial License) Copyright 2023 Fonticons, Inc. --><path d="M38.8 5.1C28.4-3.1 13.3-1.2 5.1 9.2S-1.2 34.7 9.2 42.9l592 464c10.4 8.2 25.5 6.3 33.7-4.1s6.3-25.5-4.1-33.7l-70.1-54.9C590.6 368.8 608 314.4 608 256c0-69.7-24.8-133.6-66-183.4c-8.4-10.2-23.6-11.6-33.8-3.2s-11.6 23.6-3.2 33.8c34.3 41.5 55 94.7 55 152.8c0 47.3-13.6 91.3-37.2 128.4l-50.7-39.8c15.2-26 23.9-56.4 23.9-88.7c0-40.7-13.8-78.2-37-108c-8.1-10.5-23.2-12.3-33.7-4.2s-12.3 23.2-4.2 33.7C438 199.2 448 226.4 448 256c0 21.2-5.1 41.1-14.2 58.7L360 256.9c0-.3 0-.6 0-.9c0-22.1-17.9-40-40-40c-3.6 0-7.1 .5-10.4 1.4L38.8 5.1zM56.2 140.3C40.6 175.7 32 214.9 32 256c0 69.7 24.8 133.6 66 183.4c8.4 10.2 23.6 11.6 33.8 3.2s11.6-23.6 3.2-33.8C100.6 367.3 80 314.1 80 256c0-29.9 5.4-58.5 15.4-84.8L56.2 140.3zm93 73.2c-3.4 13.6-5.2 27.8-5.2 42.5c0 40.7 13.8 78.2 37 108c8.1 10.5 23.2 12.3 33.7 4.2s12.3-23.2 4.2-33.7C202 312.8 192 285.6 192 256c0-2.9 .1-5.7 .3-8.5l-43.1-34z"/></svg>