<svg xmlns="http://www.w3.org/2000/svg" viewBox="0 0 512 512"><!--! Font Awesome Pro 6.3.0 by @fontawesome - https://fontawesome.com License - https://fontawesome.com/license (Commercial License) Copyright 2023 Fonticons, Inc. --><path d="M228 24c0-13.3 10.7-24 24-24s24 10.7 24 24v8H436.3c4.9 0 9.5 2.2 12.5 6L500 102c4.7 5.8 4.7 14.1 0 20l-51.2 64c-3 3.8-7.6 6-12.5 6H276v32H444c17.7 0 32 14.3 32 32v96c0 17.7-14.3 32-32 32H276V488c0 13.3-10.7 24-24 24s-24-10.7-24-24V384H67.7c-4.9 0-9.5-2.2-12.5-6L4 314c-4.7-5.8-4.7-14.1 0-20l51.2-64c3-3.8 7.6-6 12.5-6H228V192H60c-17.7 0-32-14.3-32-32V64c0-17.7 14.3-32 32-32H228V24zM76 80v64H420.9l25.6-32L420.9 80H76zM428 336V272H83.1L57.5 304l25.6 32H428z"/></svg>