<svg xmlns="http://www.w3.org/2000/svg" viewBox="0 0 512 512"><!--! Font Awesome Pro 6.3.0 by @fontawesome - https://fontawesome.com License - https://fontawesome.com/license (Commercial License) Copyright 2023 Fonticons, Inc. --><path d="M0 416c0-13.3 10.7-24 24-24l59.7 0c10.2-32.5 40.5-56 76.3-56s66.1 23.5 76.3 56L488 392c13.3 0 24 10.7 24 24s-10.7 24-24 24l-251.7 0c-10.2 32.5-40.5 56-76.3 56s-66.1-23.5-76.3-56L24 440c-13.3 0-24-10.7-24-24zm192 0a32 32 0 1 0 -64 0 32 32 0 1 0 64 0zM384 256a32 32 0 1 0 -64 0 32 32 0 1 0 64 0zm-32-80c35.8 0 66.1 23.5 76.3 56l59.7 0c13.3 0 24 10.7 24 24s-10.7 24-24 24l-59.7 0c-10.2 32.5-40.5 56-76.3 56s-66.1-23.5-76.3-56L24 280c-13.3 0-24-10.7-24-24s10.7-24 24-24l251.7 0c10.2-32.5 40.5-56 76.3-56zM192 64a32 32 0 1 0 0 64 32 32 0 1 0 0-64zm76.3 8L488 72c13.3 0 24 10.7 24 24s-10.7 24-24 24l-219.7 0c-10.2 32.5-40.5 56-76.3 56s-66.1-23.5-76.3-56L24 120C10.7 120 0 109.3 0 96S10.7 72 24 72l91.7 0c10.2-32.5 40.5-56 76.3-56s66.1 23.5 76.3 56z"/></svg>