<svg xmlns="http://www.w3.org/2000/svg" viewBox="0 0 640 512"><!--! Font Awesome Pro 6.3.0 by @fontawesome - https://fontawesome.com License - https://fontawesome.com/license (Commercial License) Copyright 2023 Fonticons, Inc. --><path d="M108.5 48c-3.8 0-7.1 2.7-7.9 6.5L80.5 160H197.1L208.3 48H108.5zm83.8 160H71.4L48.8 326.5c-.9 4.9 2.8 9.5 7.9 9.5H179.5l12.8-128zm48.2 0L227.7 336H400.3L387.5 208h-147zm142.2-48L371.5 48h-115L245.3 160H382.7zm53 48l12.8 128H571.3c5 0 8.8-4.6 7.9-9.5L556.6 208H435.7zm111.8-48L527.4 54.5c-.7-3.8-4-6.5-7.9-6.5H419.7l11.2 112H547.5zM53.5 45.5C58.5 19.1 81.6 0 108.5 0h411c26.9 0 50 19.1 55 45.5l51.8 272c6.6 34.5-19.9 66.5-55 66.5H338v80h80c13.3 0 24 10.7 24 24s-10.7 24-24 24H210c-13.3 0-24-10.7-24-24s10.7-24 24-24h80V384H56.7c-35.1 0-61.6-32-55-66.5l51.8-272z"/></svg>