<svg xmlns="http://www.w3.org/2000/svg" viewBox="0 0 576 512"><!--! Font Awesome Pro 6.3.0 by @fontawesome - https://fontawesome.com License - https://fontawesome.com/license (Commercial License) Copyright 2023 Fonticons, Inc. --><path d="M288 92.1c21.2 24.9 52.1 69.7 68.6 134.5c13.3-10.3 27.4-19.5 42.2-27.6c-27.3-91.6-79.3-145.6-96.8-161.8c-3.8-3.5-8.8-5.2-13.9-5.2s-10.1 1.7-13.9 5.2c-17.5 16.2-69.5 70.1-96.8 161.8c14.8 8.1 28.9 17.3 42.2 27.6c16.5-64.8 47.3-109.7 68.6-134.5zM0 212.1C0 358.7 117.8 477.9 264 480v0h3.9 40.2H312v0c146.2-2.1 264-121.2 264-267.9c0-11.1-9-20.1-20.1-20.1H552c-118.1 0-219.5 71-264 172.7C243.5 263 142.1 192 24 192H20.1C9 192 0 201 0 212.1zM259.2 431.8C238.5 330.6 154.2 252.6 49.9 241.4C63.9 346.2 151.6 427.6 259.2 431.8zm57.7 0c20.6-101.2 104.9-179.2 209.2-190.4C512.1 346.2 424.4 427.6 316.8 431.8z"/></svg>