<svg xmlns="http://www.w3.org/2000/svg" viewBox="0 0 576 512"><!--! Font Awesome Pro 6.3.0 by @fontawesome - https://fontawesome.com License - https://fontawesome.com/license (Commercial License) Copyright 2023 Fonticons, Inc. --><path d="M148.7 48C93.7 48 49 92.7 49 147.7s44.7 99.7 99.7 99.7c22.4 0 40 19.2 38 41.5l-.7 7.7c-1 11-5.9 20.4-12 27.3c-13.1 14.9-21.1 34.4-21.1 55.8c0 39.1 26.6 72 62.8 81.5c-14.3-20-22.8-44.4-22.8-70.9c0-25 7.7-49.3 22-69.8l35-49.9C285.8 219.5 305 158.5 305 96V75.2C305 69 310 64 316.2 64c15.2 0 28.7 7.6 36.8 19.2C361.1 71.6 374.6 64 389.8 64C396 64 401 69 401 75.2V96h7.6c53.4 0 98.2 40.5 103.5 93.7l.8 8c.5 4.5-.4 9.1-2.4 13.1l-4.1 8.2c-14.4 28.8-42 48.1-73.4 52.3V326c24.3 19 40 48.7 40 82c0 20.6-6 39.8-16.3 56h33.4c13.3 0 24 10.7 24 24s-10.7 24-24 24H369 353 314.7 237.3c-73 0-132.3-59.2-132.3-132.3c0-32.3 11.6-61.9 30.8-84.8C60.3 288.3 1 225 1 147.7C1 66.1 67.1 0 148.7 0C208.3 0 259.6 35.3 283 86c5.5 12 .3 26.3-11.8 31.8s-26.3 .3-31.8-11.8c-15.8-34.3-50.5-58-90.6-58zM353 464h16c30.9 0 56-25.1 56-56s-25.1-56-56-56c-5.9 0-11.5 .9-16.8 2.6c-12.6 4-26.1-3.1-30.1-15.7s3.1-26.1 15.7-30.1c9.9-3.1 20.4-4.8 31.2-4.8c5.4 0 10.8 .4 16 1.2V248c0-13.3 10.7-24 24-24h11.5c18.2 0 34.8-10.3 42.9-26.5l1-2-.1-1.1c-2.9-28.6-27-50.4-55.7-50.4H401 353h-3.3c-7.6 55.2-28.2 108.1-60.4 154.2l-35 49.9c-8.7 12.4-13.3 27.1-13.3 42.2c0 40.7 33 73.7 73.7 73.7H353zm32-288a16 16 0 1 1 32 0 16 16 0 1 1 -32 0z"/></svg>