<svg xmlns="http://www.w3.org/2000/svg" viewBox="0 0 512 512"><!--! Font Awesome Pro 6.3.0 by @fontawesome - https://fontawesome.com License - https://fontawesome.com/license (Commercial License) Copyright 2023 Fonticons, Inc. --><path d="M163 64c0-35.3 28.7-64 64-64h16c35.3 0 64 28.7 64 64v67.3l58.3-33.6c30.6-17.7 69.8-7.2 87.4 23.4l8 13.9c17.7 30.6 7.2 69.8-23.4 87.4L379 256l58.3 33.6c30.6 17.7 41.1 56.8 23.4 87.4l-8 13.9c-17.7 30.6-56.8 41.1-87.4 23.4L307 380.7V448c0 35.3-28.7 64-64 64H227c-35.3 0-64-28.7-64-64V380.7l-58.3 33.6C74.1 432 35 421.5 17.3 390.9l-8-13.9c-17.7-30.6-7.2-69.8 23.4-87.4L91 256 32.7 222.4C2.1 204.7-8.4 165.5 9.3 134.9l8-13.9C35 90.5 74.1 80 104.7 97.6L163 131.3V64zm64-16c-8.8 0-16 7.2-16 16V172.9c0 8.6-4.6 16.5-12 20.8s-16.6 4.3-24 0L80.7 139.2c-7.7-4.4-17.4-1.8-21.9 5.9l-8 13.9c-4.4 7.7-1.8 17.4 5.9 21.9L151 235.2c7.4 4.3 12 12.2 12 20.8s-4.6 16.5-12 20.8L56.7 331.2c-7.7 4.4-10.3 14.2-5.9 21.9l8 13.9c4.4 7.7 14.2 10.3 21.9 5.9L175 318.4c7.4-4.3 16.6-4.3 24 0s12 12.2 12 20.8V448c0 8.8 7.2 16 16 16h16c8.8 0 16-7.2 16-16V339.1c0-8.6 4.6-16.5 12-20.8s16.6-4.3 24 0l94.3 54.4c7.7 4.4 17.4 1.8 21.9-5.9l8-13.9c4.4-7.7 1.8-17.4-5.9-21.9L319 276.8c-7.4-4.3-12-12.2-12-20.8s4.6-16.5 12-20.8l94.3-54.4c7.7-4.4 10.3-14.2 5.9-21.9l-8-13.9c-4.4-7.7-14.2-10.3-21.9-5.9L295 193.6c-7.4 4.3-16.6 4.3-24 0s-12-12.2-12-20.8V64c0-8.8-7.2-16-16-16H227z"/></svg>