<svg xmlns="http://www.w3.org/2000/svg" viewBox="0 0 512 512"><!--! Font Awesome Pro 6.3.0 by @fontawesome - https://fontawesome.com License - https://fontawesome.com/license (Commercial License) Copyright 2023 Fonticons, Inc. --><path d="M392.9 301.9L362.2 352h61.5l-30.8-50.1zM364.8 256l-58.9-96H174.1l-58.9 96 58.9 96H305.9l58.9-96zm56.3 0l53.4 87c3.6 5.9 5.5 12.7 5.5 19.6c0 20.7-16.8 37.4-37.4 37.4H332.7l-56.2 91.5C268.8 504.3 254.9 512 240 512s-28.8-7.7-36.6-20.5L147.3 400H37.4C16.8 400 0 383.2 0 362.6c0-6.9 1.9-13.7 5.5-19.6l53.4-87L5.5 169C1.9 163.1 0 156.3 0 149.4C0 128.8 16.8 112 37.4 112H147.3l56.2-91.5C211.2 7.7 225.1 0 240 0s28.8 7.7 36.6 20.5L332.7 112H442.6c20.7 0 37.4 16.8 37.4 37.4c0 6.9-1.9 13.7-5.5 19.6l-53.4 87zm-58.9-96l30.7 50.1L423.7 160H362.2zm-85.8-48L240 52.7 203.6 112h72.8zM117.8 160H56.3l30.8 50.1L117.8 160zM87.1 301.9L56.3 352h61.5L87.1 301.9zM203.6 400L240 459.3 276.4 400H203.6z"/></svg>