<svg xmlns="http://www.w3.org/2000/svg" viewBox="0 0 576 512"><!--! Font Awesome Pro 6.3.0 by @fontawesome - https://fontawesome.com License - https://fontawesome.com/license (Commercial License) Copyright 2023 Fonticons, Inc. --><path d="M126.5 15.6c4.7 12.4-1.6 26.2-14 30.9L69.2 62.7c-3.1 1.2-5.2 4.2-5.2 7.5V200c0 57.4 46.6 104 104 104h8 8c57.4 0 104-46.6 104-104V70.2c0-3.3-2.1-6.3-5.2-7.5L239.6 46.5c-12.4-4.7-18.7-18.5-14-30.9s18.5-18.7 30.9-14l43.2 16.2C321.5 25.9 336 46.8 336 70.2V200c0 78.5-59.5 143.1-135.8 151.1C203.9 414.1 256.1 464 320 464c66.3 0 120-53.7 120-120V268.3c-32.5-10.2-56-40.5-56-76.3c0-44.2 35.8-80 80-80s80 35.8 80 80c0 35.8-23.5 66.1-56 76.3V344c0 92.8-75.2 168-168 168c-90.4 0-164.1-71.4-167.8-160.8C75.7 343.3 16 278.6 16 200V70.2c0-23.3 14.5-44.2 36.3-52.4L95.6 1.5c12.4-4.7 26.2 1.6 30.9 14zM464 160a32 32 0 1 0 0 64 32 32 0 1 0 0-64z"/></svg>