<svg xmlns="http://www.w3.org/2000/svg" viewBox="0 0 448 512"><!--! Font Awesome Pro 6.3.0 by @fontawesome - https://fontawesome.com License - https://fontawesome.com/license (Commercial License) Copyright 2023 Fonticons, Inc. --><path d="M128 24c0-13.3 10.7-24 24-24H264c13.3 0 24 10.7 24 24s-10.7 24-24 24H232V97.4c43.4 5 82.8 23.3 113.8 50.9L375 119c9.4-9.4 24.6-9.4 33.9 0s9.4 24.6 0 33.9l-31 31c24 33.9 38.1 75.3 38.1 120c0 114.9-93.1 208-208 208S0 418.9 0 304C0 197.2 80.4 109.3 184 97.4V48H152c-13.3 0-24-10.7-24-24zm80 440a160 160 0 1 0 0-320 160 160 0 1 0 0 320zm24-248V320c0 13.3-10.7 24-24 24s-24-10.7-24-24V216c0-13.3 10.7-24 24-24s24 10.7 24 24z"/></svg>