<svg xmlns="http://www.w3.org/2000/svg" viewBox="0 0 448 512"><!--! Font Awesome Pro 6.3.0 by @fontawesome - https://fontawesome.com License - https://fontawesome.com/license (Commercial License) Copyright 2023 Fonticons, Inc. --><path d="M48 64c0-13.3-10.7-24-24-24S0 50.7 0 64V448c0 13.3 10.7 24 24 24s24-10.7 24-24V64zm128 0c0-13.3-10.7-24-24-24s-24 10.7-24 24V448c0 13.3 10.7 24 24 24s24-10.7 24-24V64zM280 40c-13.3 0-24 10.7-24 24V448c0 13.3 10.7 24 24 24s24-10.7 24-24V64c0-13.3-10.7-24-24-24zM432 64c0-13.3-10.7-24-24-24s-24 10.7-24 24V448c0 13.3 10.7 24 24 24s24-10.7 24-24V64z"/></svg>