<svg xmlns="http://www.w3.org/2000/svg" viewBox="0 0 320 512"><!--! Font Awesome Pro 6.3.0 by @fontawesome - https://fontawesome.com License - https://fontawesome.com/license (Commercial License) Copyright 2023 Fonticons, Inc. --><path d="M80 112c0-35.3 28.7-64 64-64s64 28.7 64 64V273.9c0 14.5 5.7 27.1 12.8 36.6c12 16 19.2 35.9 19.2 57.5c0 53-43 96-96 96s-96-43-96-96c0-21.6 7.1-41.5 19.2-57.5C74.3 301 80 288.4 80 273.9V112zM144 0C82.1 0 32 50.2 32 112V273.9c0 1.7-.7 4.4-3.2 7.8C10.7 305.7 0 335.7 0 368c0 79.5 64.5 144 144 144s144-64.5 144-144c0-32.4-10.7-62.3-28.8-86.4c-2.5-3.4-3.2-6.1-3.2-7.8V112C256 50.2 205.9 0 144 0zm0 416a48 48 0 1 0 0-96 48 48 0 1 0 0 96z"/></svg>