<svg xmlns="http://www.w3.org/2000/svg" viewBox="0 0 576 512"><!--! Font Awesome Pro 6.3.0 by @fontawesome - https://fontawesome.com License - https://fontawesome.com/license (Commercial License) Copyright 2023 Fonticons, Inc. --><path d="M201.8 111.9c-8.9-9.9-24-10.7-33.9-1.8l-39.9 36L128 24c0-13.3-10.7-24-24-24S80 10.7 80 24l0 122.1-39.9-36c-9.9-8.9-25-8.1-33.9 1.8s-8.1 25 1.8 33.9l80 72c9.1 8.2 23 8.2 32.1 0l80-72c9.9-8.9 10.7-24 1.8-33.9zm352 0c-8.9-9.9-24-10.7-33.9-1.8l-39.9 36V24c0-13.3-10.7-24-24-24s-24 10.7-24 24V146.1l-39.9-36c-9.9-8.9-25-8.1-33.9 1.8s-8.1 25 1.8 33.9l80 72c9.1 8.2 23 8.2 32.1 0l80-72c9.9-8.9 10.7-24 1.8-33.9zM294.7 165c-8.6-6.7-20.7-6.7-29.4 0L99.6 293.1c-11.5 8.9-19.1 22-21.2 36.4L61.5 448.1C56.6 481.8 82.8 512 116.9 512H443.1c34.1 0 60.3-30.2 55.4-63.9L481.6 329.5c-2.1-14.4-9.7-27.5-21.2-36.4L294.7 165zM129 331l127-98.2V464H116.9c-4.9 0-8.6-4.3-7.9-9.1l16.9-118.6c.3-2.1 1.4-3.9 3-5.2zm175 29V232.9L431 331c1.6 1.3 2.7 3.1 3 5.2L451 454.9c.7 4.8-3.1 9.1-7.9 9.1H366.4L304 360z"/></svg>