<svg xmlns="http://www.w3.org/2000/svg" viewBox="0 0 384 512"><!--! Font Awesome Pro 6.3.0 by @fontawesome - https://fontawesome.com License - https://fontawesome.com/license (Commercial License) Copyright 2023 Fonticons, Inc. --><path d="M48 256c0-55 16.6-103.9 42.1-138.4S149.2 64 184 64s68.3 19 93.9 53.6S320 201 320 256s-16.6 103.9-42.1 138.5S218.8 448 184 448s-68.3-19-93.9-53.5S48 311 48 256zM184 16C130.4 16 83.9 45.4 51.6 89S0 191.7 0 256s19.3 123.4 51.6 167s78.9 73 132.4 73s100.1-29.4 132.4-73S368 320.3 368 256s-19.3-123.4-51.6-167S237.6 16 184 16zM112 232c-13.3 0-24 10.7-24 24s10.7 24 24 24H256c13.3 0 24-10.7 24-24s-10.7-24-24-24H112z"/></svg>