<svg xmlns="http://www.w3.org/2000/svg" viewBox="0 0 192 512"><!--! Font Awesome Pro 6.3.0 by @fontawesome - https://fontawesome.com License - https://fontawesome.com/license (Commercial License) Copyright 2023 Fonticons, Inc. --><path d="M48 104c0-13.3 10.7-24 24-24s24 10.7 24 24v1.9c0 1.4-.1 2.8-.4 4.3c0 0 0 0 0 0L72 252 48.4 110.1c-.2-1.4-.4-2.8-.4-4.3V104zm95 14c.7-4 1-8.1 1-12.1V104c0-39.8-32.2-72-72-72S0 64.2 0 104v1.9C0 110 .3 114 1 118L25.4 264.5C29.2 287.3 48.9 304 72 304s42.8-16.7 46.6-39.5L143 118z"/></svg>