<svg xmlns="http://www.w3.org/2000/svg" viewBox="0 0 640 512"><!--! Font Awesome Pro 6.3.0 by @fontawesome - https://fontawesome.com License - https://fontawesome.com/license (Commercial License) Copyright 2023 Fonticons, Inc. --><path d="M4.5 463.6C.2 470.9-1 479.4 .9 487.4c.7 2.9 1.8 5.7 3.3 8.4C9.8 505.8 20.5 512 32 512H317.9c22.3 0 45.4-12.1 55.4-36.1c9.6-23.2 23.9-66.4 33.3-134.5c0-.3 .1-.6 .1-.8c5.5-40.5 9.3-89.7 9.3-148.6c0-76 26.2-138.3 59.4-143.6c1.5-.2 3.1-.4 4.6-.4c35.3 0 64 64.5 64 144s-28.7 144-64 144c-14 0-26.9-10-37.4-27.1c-2.2 22.3-4.9 42.5-7.9 60.8C447 378 462.2 384 480 384c24.5 0 44.1-11.4 58-24.5c13.6-13 23.7-29.4 31.1-46.1C584 279.8 592 236.9 592 192s-8-87.8-22.9-121.3C561.7 54 551.6 37.5 538 24.5C524.1 11.4 504.5 0 480 0c-1.3 0-2.6 0-3.8 .1l0-.1H144C91 0 48 86 48 192c0 77.6-.4 174.5-32.9 250c-3.2 7.4-6.7 14.6-10.5 21.6l0 .1zM403 48c-4.7 7.3-8.6 15-12.1 22.7C376 104.2 368 147.1 368 192c0 153.2-26.3 235-39 265.5c-.9 2.1-2.1 3.5-3.8 4.5c-2 1.2-4.6 2-7.3 2H57.8C76 423.1 85.2 378.5 90.1 336.1C95.9 285.4 96 234.3 96 192c0-47.2 9.7-87.5 23.1-114.3c6.7-13.4 13.4-21.6 18.6-26c2.5-2.1 4.3-3 5.2-3.4c.5-.2 .8-.3 .9-.3s.2 0 .3 0H403zm77 192c13.3 0 24-21.5 24-48s-10.7-48-24-48s-24 21.5-24 48s10.7 48 24 48z"/></svg>