<svg xmlns="http://www.w3.org/2000/svg" viewBox="0 0 640 512"><!--! Font Awesome Pro 6.3.0 by @fontawesome - https://fontawesome.com License - https://fontawesome.com/license (Commercial License) Copyright 2023 Fonticons, Inc. --><path d="M.9 487.4c-1.9-8-.7-16.5 3.6-23.7l0-.1c3.8-7 7.3-14.2 10.5-21.6C47.6 366.5 48 269.6 48 192C48 86 91 0 144 0H476.2l0 .1c1.3-.1 2.6-.1 3.8-.1c24.5 0 44.1 11.4 58 24.5c13.6 13 23.7 29.4 31.1 46.1C584 104.2 592 147.1 592 192s-8 87.8-22.9 121.3c-7.4 16.7-17.5 33.2-31.1 46.1c-13.9 13.2-33.5 24.5-58 24.5c-17.8 0-33-6-45.3-14.3c3-18.3 5.8-38.5 7.9-60.8C453.1 326 466 336 480 336c35.3 0 64-64.5 64-144s-28.7-144-64-144c-1.6 0-3.1 .1-4.6 .4C442.2 53.7 416 116 416 192c0 58.9-3.8 108.1-9.3 148.6l-.1 .8c-9.4 68.1-23.7 111.3-33.3 134.5c-10 24-33.2 36.1-55.4 36.1H32c-11.5 0-22.2-6.2-27.8-16.2c-1.5-2.7-2.6-5.5-3.3-8.4zM144 48c-.1 0-.1 0-.3 0s-.4 .1-.9 .3c-.9 .4-2.7 1.3-5.2 3.4c-5.2 4.4-11.9 12.6-18.6 26C105.7 104.5 96 144.8 96 192c0 42.3-.1 93.4-5.9 144.1C85.2 378.5 76 423.1 57.8 464H317.9c2.7 0 5.3-.8 7.3-2c1.7-1 3-2.4 3.8-4.5C341.7 427 368 345.2 368 192c0-44.9 8-87.8 22.9-121.3C394.3 63 398.3 55.3 403 48H144zM504 192c0 26.5-10.7 48-24 48s-24-21.5-24-48s10.7-48 24-48s24 21.5 24 48zm-344 0a16 16 0 1 1 0 32 16 16 0 1 1 0-32zm64 0a16 16 0 1 1 0 32 16 16 0 1 1 0-32zm48 16a16 16 0 1 1 32 0 16 16 0 1 1 -32 0z"/></svg>