<svg xmlns="http://www.w3.org/2000/svg" viewBox="0 0 448 512"><!--! Font Awesome Pro 6.3.0 by @fontawesome - https://fontawesome.com License - https://fontawesome.com/license (Commercial License) Copyright 2023 Fonticons, Inc. --><path d="M158 24c0-13.3 10.7-24 24-24h40 40c13.3 0 24 10.7 24 24s-10.7 24-24 24H246V96h40c17.7 0 32 14.3 32 32h93.2c21.4 0 36.8 20.7 30.6 41.2L400.7 306.5c7.9 3.9 13.3 12.1 13.3 21.5c0 13.3-10.7 24-24 24H366V488c0 13.3-10.7 24-24 24s-24-10.7-24-24V352l-192 0V488c0 13.3-10.7 24-24 24s-24-10.7-24-24V352H54c-13.3 0-24-10.7-24-24c0-9.4 5.4-17.6 13.3-21.5L2.1 169.2C-4.1 148.7 11.3 128 32.8 128H126c0-17.7 14.3-32 32-32h40V48H182c-13.3 0-24-10.7-24-24zM92.7 304H126V176H54.3L92.7 304zm81.3 0l96 0V176H174V304zM318 176V304h33.3l38.4-128H318z"/></svg>