<svg xmlns="http://www.w3.org/2000/svg" viewBox="0 0 640 512"><!--! Font Awesome Pro 6.3.0 by @fontawesome - https://fontawesome.com License - https://fontawesome.com/license (Commercial License) Copyright 2023 Fonticons, Inc. --><path d="M51.7 31.9C40.2 26.9 26.9 32.2 22 43.7C7.9 76.5 .1 112.7 .1 150.6s7.8 74.1 21.9 106.9c4.9 11.5 18.2 16.8 29.7 11.8s16.8-18.2 11.8-29.7c-11.7-27.3-18.2-57.4-18.2-89.1s6.5-61.8 18.2-89.1c4.9-11.5-.4-24.7-11.8-29.7zm439 0c-11.5 4.9-16.8 18.2-11.8 29.7c11.7 27.3 18.2 57.4 18.2 89.1s-6.5 61.8-18.2 89.1c-4.9 11.5 .4 24.7 11.8 29.7s24.7-.4 29.7-11.8c14.1-32.8 21.9-69 21.9-106.9s-7.8-74.1-21.9-106.9c-4.9-11.5-18.2-16.8-29.7-11.8zM293.8 206.4c22.1-8.9 37.6-30.6 37.6-55.9c0-33.3-27-60.2-60.2-60.2s-60.2 27-60.2 60.2c0 25.3 15.6 46.9 37.6 55.9v283c0 12.5 10.1 22.6 22.6 22.6s22.6-10.1 22.6-22.6v-283zM156.8 112.5c3.9-11.8-2.5-24.6-14.3-28.6S117.9 86.4 114 98.3c-5.5 16.5-8.4 34.1-8.4 52.3s3 35.8 8.4 52.3c3.9 11.8 16.7 18.2 28.6 14.3s18.2-16.7 14.3-28.6c-4-11.9-6.1-24.7-6.1-38s2.2-26.1 6.1-38zM428.4 98.3C424.5 86.4 411.7 80 399.8 84s-18.2 16.7-14.3 28.6c4 11.9 6.1 24.7 6.1 38s-2.2 26.1-6.1 38c-3.9 11.8 2.5 24.6 14.3 28.6s24.6-2.5 28.6-14.3c5.5-16.5 8.4-34.1 8.4-52.3s-3-35.8-8.4-52.3z"/></svg>