<svg xmlns="http://www.w3.org/2000/svg" viewBox="0 0 576 512"><!--! Font Awesome Pro 6.3.0 by @fontawesome - https://fontawesome.com License - https://fontawesome.com/license (Commercial License) Copyright 2023 Fonticons, Inc. --><path d="M214.6 64.1c4.5-12.5-2-26.2-14.5-30.7s-26.2 2-30.7 14.5L152.1 96H104c-13.3 0-24 10.7-24 24s10.7 24 24 24h30.8L106 224H64c-13.3 0-24 10.7-24 24s10.7 24 24 24H88.7L59.9 352H24c-13.3 0-24 10.7-24 24s10.7 24 24 24H42.7L25.4 447.9c-4.5 12.5 2 26.2 14.5 30.7s26.2-2 30.7-14.5L93.7 400H466.3l23.1 64.1c4.5 12.5 18.2 18.9 30.7 14.5s18.9-18.2 14.5-30.7L517.3 400H536c13.3 0 24-10.7 24-24s-10.7-24-24-24H500.1l-28.8-80H496c13.3 0 24-10.7 24-24s-10.7-24-24-24H454l-28.8-80H456c13.3 0 24-10.7 24-24s-10.7-24-24-24H407.9L390.6 47.9c-4.5-12.5-18.2-18.9-30.7-14.5s-18.9 18.2-14.5 30.7L356.9 96H203.1l11.5-31.9zM185.8 144H374.2L403 224H157l28.8-80zM449.1 352H110.9l28.8-80H420.3l28.8 80z"/></svg>