<svg xmlns="http://www.w3.org/2000/svg" viewBox="0 0 576 512"><!--! Font Awesome Pro 6.3.0 by @fontawesome - https://fontawesome.com License - https://fontawesome.com/license (Commercial License) Copyright 2023 Fonticons, Inc. --><path d="M101.9 91.4l30.3 50.5c-4 3.5-8 7.2-12 11.2c-71 71-60.2 151-32.7 191.3c5 7.3 15.2 7.3 21.4 1L235 219.3c2.3 9.3 4.3 20.3 5.6 32.9c4.9 46.6 .5 115.1-26.4 208.3c-7.3 25.3 11.3 51.5 38.5 51.5h84.1c20 0 37.6-15 39.6-35.7c9.2-95.5-5.9-202-34.3-284.3H445.7c2.8 0 5.4-1.5 6.9-3.9l19.6-32.7c3.1-5.2 10.6-5.2 13.7 0l19.6 32.7c1.4 2.4 4.1 3.9 6.9 3.9H559c8.8 0 16.1-7.2 14.4-15.9C564.3 128.2 515.4 64 415 64c-43.7 0-77.6 12.2-102.8 29.8C295.5 49.4 247 0 159 0C58.6 0 9.7 64.2 .6 112.1C-1.1 120.8 6.2 128 15 128H61.7c2.8 0 5.4-1.5 6.9-3.9L88.1 91.4c3.1-5.2 10.6-5.2 13.7 0zM291 192c28.6 74.1 46 177.9 38.3 272H263.1c25.8-92.9 30.7-164.5 25.2-216.8c-2.2-21.5-6.2-39.9-11.4-55.2H291z"/></svg>