<svg xmlns="http://www.w3.org/2000/svg" viewBox="0 0 640 512"><!--! Font Awesome Pro 6.3.0 by @fontawesome - https://fontawesome.com License - https://fontawesome.com/license (Commercial License) Copyright 2023 Fonticons, Inc. --><path d="M272 48h88.2c2.5 0 4.8 1.2 6.3 3.1L413.4 112H264V56c0-4.4 3.6-8 8-8zm202 64L404.6 21.9C394 8.1 377.6 0 360.2 0H272c-30.9 0-56 25.1-56 56v56H112c-48.6 0-88 39.4-88 88v30.3c-6.1 5.1-12 10.6-17.5 16.4c-9.1 9.6-8.7 24.8 1 33.9s24.8 8.7 33.9-1C69.2 250.3 108.4 232 152 232c53.3 0 100.3 27.5 127.4 69.1c4.4 6.8 12 10.9 20.1 10.9h24.9c8.1 0 15.7-4.1 20.1-10.9C371.7 259.5 418.7 232 472 232c43.6 0 82.8 18.3 110.5 47.7c9.1 9.6 24.3 10.1 33.9 1s10.1-24.3 1-33.9c-5.5-5.8-11.3-11.3-17.5-16.4V200c0-48.6-39.4-88-88-88H474zm78 88.6c-24.5-10.7-51.6-16.6-80-16.6c-65.4 0-123.5 31.5-160 80c-36.5-48.5-94.5-80-160-80c-28.4 0-55.5 5.9-80 16.6V200c0-22.1 17.9-40 40-40H512c22.1 0 40 17.9 40 40v.6zM144 256c-12.1 0-22.1 8.9-23.8 20.6c-7.6 2.2-14.9 5.3-21.7 9c-9.4-7.1-22.8-6.3-31.3 2.3L55.8 299.1c-8.6 8.6-9.3 21.9-2.3 31.3c-3.7 6.9-6.8 14.1-9 21.8C32.9 353.9 24 363.9 24 376v16c0 12.1 8.9 22.1 20.6 23.8c2.2 7.6 5.3 14.9 9 21.8c-7 9.4-6.3 22.8 2.3 31.3l11.3 11.3c8.6 8.6 21.9 9.3 31.3 2.2c6.8 3.7 14.1 6.8 21.7 9c1.7 11.6 11.7 20.6 23.8 20.6h16c12.1 0 22.1-8.9 23.8-20.6c7.6-2.2 14.9-5.3 21.7-9c9.4 7 22.8 6.3 31.3-2.2l11.3-11.3c8.6-8.6 9.3-21.9 2.3-31.3c3.7-6.8 6.8-14.1 9-21.7c11.6-1.7 20.6-11.7 20.6-23.8V376c0-12.1-8.9-22.1-20.6-23.8c-2.2-7.6-5.3-14.9-9-21.7c7-9.4 6.3-22.8-2.3-31.3l-11.3-11.3c-8.6-8.6-21.9-9.3-31.3-2.3c-6.8-3.7-14.1-6.8-21.7-9C182.1 264.9 172.1 256 160 256H144zm8 80a48 48 0 1 1 0 96 48 48 0 1 1 0-96zm312-80c-12.1 0-22.1 8.9-23.8 20.6c-7.6 2.2-14.9 5.3-21.7 9c-9.4-7.1-22.8-6.3-31.3 2.3l-11.3 11.3c-8.6 8.6-9.3 21.9-2.2 31.3c-3.7 6.9-6.8 14.1-9 21.8C352.9 353.9 344 363.9 344 376v16c0 12.1 8.9 22.1 20.6 23.8c2.2 7.6 5.3 14.9 9 21.8c-7 9.4-6.3 22.8 2.2 31.3l11.3 11.3c8.6 8.6 21.9 9.3 31.3 2.2c6.8 3.7 14.1 6.8 21.7 9c1.7 11.6 11.7 20.6 23.8 20.6h16c12.1 0 22.1-8.9 23.8-20.6c7.6-2.2 14.9-5.3 21.8-9c9.4 7 22.8 6.3 31.3-2.2l11.3-11.3c8.6-8.6 9.3-21.9 2.2-31.3c3.7-6.8 6.8-14.1 9-21.7c11.6-1.7 20.6-11.7 20.6-23.8V376c0-12.1-8.9-22.1-20.6-23.8c-2.2-7.6-5.3-14.9-9-21.7c7-9.4 6.3-22.8-2.2-31.3l-11.3-11.3c-8.6-8.6-21.9-9.3-31.3-2.3c-6.9-3.7-14.1-6.8-21.8-9C502.1 264.9 492.1 256 480 256H464zm8 80a48 48 0 1 1 0 96 48 48 0 1 1 0-96z"/></svg>