<svg xmlns="http://www.w3.org/2000/svg" viewBox="0 0 512 512"><!--! Font Awesome Pro 6.3.0 by @fontawesome - https://fontawesome.com License - https://fontawesome.com/license (Commercial License) Copyright 2023 Fonticons, Inc. --><path d="M255 0c13.3 0 24 10.7 24 24v9.1c119.6 11.1 215.3 104.5 230 223c2.2 17.5-12.4 31.9-30 31.9H31c-17.7 0-32.2-14.4-30-31.9C15.7 137.6 111.4 44.2 231 33.1V24c0-13.3 10.7-24 24-24zM457.4 240C435.8 148.3 353.3 80 255 80S74.2 148.3 52.6 240H457.4zM279 438.6c0 40.6-32.9 73.4-73.4 73.4c-27.8 0-53.2-15.7-65.7-40.6l-2.3-4.7c-5.9-11.9-1.1-26.3 10.7-32.2s26.3-1.1 32.2 10.7l2.3 4.7c4.3 8.6 13.1 14.1 22.8 14.1c14.1 0 25.4-11.4 25.4-25.4V320h48V438.6z"/></svg>