<svg xmlns="http://www.w3.org/2000/svg" viewBox="0 0 384 512"><!--! Font Awesome Pro 6.3.0 by @fontawesome - https://fontawesome.com License - https://fontawesome.com/license (Commercial License) Copyright 2023 Fonticons, Inc. --><path d="M192 82.4L49.3 232.3c-.8 .8-1.3 2-1.3 3.2c0 2.5 2 4.6 4.6 4.6H136c13.3 0 24 10.7 24 24V432h64V264c0-13.3 10.7-24 24-24h83.4c2.5 0 4.6-2 4.6-4.6c0-1.2-.5-2.3-1.3-3.2L192 82.4zM161.1 45.2C169.2 36.8 180.3 32 192 32s22.8 4.8 30.9 13.2L369.5 199.2c9.3 9.8 14.5 22.8 14.5 36.3c0 29-23.5 52.6-52.6 52.6H272V432c0 26.5-21.5 48-48 48H160c-26.5 0-48-21.5-48-48V288H52.6C23.5 288 0 264.5 0 235.4c0-13.5 5.2-26.5 14.5-36.3L161.1 45.2z"/></svg>