<svg xmlns="http://www.w3.org/2000/svg" viewBox="0 0 448 512"><!--! Font Awesome Pro 6.3.0 by @fontawesome - https://fontawesome.com License - https://fontawesome.com/license (Commercial License) Copyright 2023 Fonticons, Inc. --><path d="M96 128V70.2c0-13.3 8.3-25.3 20.8-30l96-36c7.2-2.7 15.2-2.7 22.5 0l96 36c12.5 4.7 20.8 16.6 20.8 30V128h-.3c.2 2.6 .3 5.3 .3 8v24 11c0 33.9 13.5 66.5 37.5 90.5l3.9 3.9c4.2 4.2 6.6 10 6.6 16c0 12.5-10.1 22.6-22.6 22.6H224 70.6C58.1 304 48 293.9 48 281.4c0-6 2.4-11.8 6.6-16l3.9-3.9c24-24 37.5-56.6 37.5-90.5V160 136c0-2.7 .1-5.4 .3-8H96zm200 32c-20.5 0-38.7-9.6-50.4-24.5C231.9 159.7 205.8 176 176 176l-32 0c0 44.2 35.8 80 80 80s80-35.8 80-80V160h-8zM126.4 384.2c-38.5 8.4-68.6 39-76.4 77.7H398c-7.8-38.7-38-69.3-76.4-77.7l-52.3 52.3c-25 25-65.5 25-90.5 0l-52.3-52.3zm27.3-40.5l58.9 58.9c6.2 6.2 16.4 6.2 22.6 0l58.9-58.9c6.2-6.2 14.7-9.8 23.4-8.7C391.1 343.6 448 406 448 481.8c0 15.6-12.6 28.2-28.2 28.2H28.2C12.6 509.9 0 497.3 0 481.8C0 406 56.9 343.6 130.4 335c8.7-1 17.2 2.5 23.4 8.7zM213.3 40V53.3H200c-4.4 0-8 3.6-8 8v5.3c0 4.4 3.6 8 8 8h13.3V88c0 4.4 3.6 8 8 8h5.3c4.4 0 8-3.6 8-8V74.7H248c4.4 0 8-3.6 8-8V61.3c0-4.4-3.6-8-8-8H234.7V40c0-4.4-3.6-8-8-8h-5.3c-4.4 0-8 3.6-8 8z"/></svg>