<svg xmlns="http://www.w3.org/2000/svg" viewBox="0 0 640 512"><!--! Font Awesome Pro 6.3.0 by @fontawesome - https://fontawesome.com License - https://fontawesome.com/license (Commercial License) Copyright 2023 Fonticons, Inc. --><path d="M210.8 45.2a75.3 75.3 0 1 1 0 150.6 75.3 75.3 0 1 1 0-150.6zm0 195.8A120.5 120.5 0 1 0 210.8 0a120.5 120.5 0 1 0 0 240.9zM46.4 436.7c8.4-59.6 59.5-105.4 121.4-105.4h86.1c7 0 13.9 .6 20.6 1.7c-2.2-10.3-3.4-20.9-3.4-31.8c0-4.8 .2-9.5 .7-14.1c-5.9-.6-11.8-.9-17.9-.9h-43-43C75.1 286.1 0 361.2 0 453.9c0 15.4 12.5 28 28 28H393.7c15.4 0 28-12.5 28-28c0-.7 0-1.4 0-2.2c-23.6 0-45.9-5.4-65.7-15.1H46.4zM421.6 226a75.3 75.3 0 1 1 0 150.6 75.3 75.3 0 1 1 0-150.6zm0 195.8c25.1 0 48.4-7.7 67.7-20.8l74.4 74.4c8.8 8.8 23.1 8.8 31.9 0s8.8-23.1 0-31.9L521.3 369c13.1-19.3 20.8-42.6 20.8-67.7c0-66.5-53.9-120.5-120.5-120.5s-120.5 53.9-120.5 120.5s53.9 120.5 120.5 120.5z"/></svg>