<svg xmlns="http://www.w3.org/2000/svg" viewBox="0 0 448 512"><!--! Font Awesome Pro 6.3.0 by @fontawesome - https://fontawesome.com License - https://fontawesome.com/license (Commercial License) Copyright 2023 Fonticons, Inc. --><path d="M96 128h.3c-.2 2.6-.3 5.3-.3 8v40c0 70.7 57.3 128 128 128s128-57.3 128-128V136c0-2.7-.1-5.4-.3-8h.3V70.2c0-13.3-8.3-25.3-20.8-30l-96-36c-7.2-2.7-15.2-2.7-22.5 0l-96 36C104.3 44.9 96 56.8 96 70.2V128zm200 32h8v16c0 44.2-35.8 80-80 80s-80-35.8-80-80l32 0c29.8 0 55.9-16.3 69.6-40.5C257.3 150.4 275.5 160 296 160zM117.1 374.9l61.7 61.7c25 25 65.5 25 90.5 0l61.7-61.7c35.5 15.1 61.7 47.8 67.7 87.1H49.3c6-39.3 32.2-72 67.7-87.1zm25.8-42.1c-7.5-7.5-18.3-11-28.4-7.9C48.2 344.9 0 406.4 0 479.2c0 17 13.8 30.7 30.7 30.7H417.3c17 0 30.7-13.8 30.7-30.7c0-72.8-48.2-134.3-114.4-154.4c-10.1-3.1-20.9 .4-28.4 7.9l-69.8 69.8c-6.2 6.2-16.4 6.2-22.6 0l-69.8-69.8zM213.3 40c0-4.4 3.6-8 8-8h5.3c4.4 0 8 3.6 8 8V53.3H248c4.4 0 8 3.6 8 8v5.3c0 4.4-3.6 8-8 8H234.7V88c0 4.4-3.6 8-8 8h-5.3c-4.4 0-8-3.6-8-8V74.7H200c-4.4 0-8-3.6-8-8V61.3c0-4.4 3.6-8 8-8h13.3V40z"/></svg>