<svg xmlns="http://www.w3.org/2000/svg" viewBox="0 0 640 512"><!--! Font Awesome Pro 6.3.0 by @fontawesome - https://fontawesome.com License - https://fontawesome.com/license (Commercial License) Copyright 2023 Fonticons, Inc. --><path d="M38.8 5.1C28.4-3.1 13.3-1.2 5.1 9.2S-1.2 34.7 9.2 42.9l592 464c10.4 8.2 25.5 6.3 33.7-4.1s6.3-25.5-4.1-33.7L381.9 274c1.4-.7 2.8-1.3 4.1-2c46.3-23.9 78-72.3 78-128C464 64.5 399.5 0 320 0C250.4 0 192.4 49.3 178.9 114.9L38.8 5.1zM224.2 150.4c-.1-2.1-.2-4.3-.2-6.4c0-53 43-96 96-96s96 43 96 96c0 47.3-34.3 86.7-79.3 94.6L224.2 150.4zM284.3 320H243.1 225.3C136.2 320 64 392.2 64 481.3c0 17 13.8 30.7 30.7 30.7H528l-60.9-48H113.3c8.3-54.4 55.3-96 112-96H345.2l-60.9-48z"/></svg>