<svg xmlns="http://www.w3.org/2000/svg" viewBox="0 0 384 512"><!--! Font Awesome Pro 6.3.0 by @fontawesome - https://fontawesome.com License - https://fontawesome.com/license (Commercial License) Copyright 2023 Fonticons, Inc. --><path d="M48 176a128 128 0 1 1 256 0A128 128 0 1 1 48 176zM200 350.4c85.8-11.7 152-85.3 152-174.4C352 78.8 273.2 0 176 0S0 78.8 0 176c0 89.1 66.2 162.7 152 174.4V400H104c-13.3 0-24 10.7-24 24s10.7 24 24 24h48v40c0 13.3 10.7 24 24 24s24-10.7 24-24V448h48c13.3 0 24-10.7 24-24s-10.7-24-24-24H200V350.4z"/></svg>