<svg xmlns="http://www.w3.org/2000/svg" viewBox="0 0 640 512"><!--! Font Awesome Pro 6.3.0 by @fontawesome - https://fontawesome.com License - https://fontawesome.com/license (Commercial License) Copyright 2023 Fonticons, Inc. --><path d="M176 304a128 128 0 1 0 0-256 128 128 0 1 0 0 256zM352 176c0 89.1-66.2 162.7-152 174.4V400h48c13.3 0 24 10.7 24 24s-10.7 24-24 24H200v40c0 13.3-10.7 24-24 24s-24-10.7-24-24V448H104c-13.3 0-24-10.7-24-24s10.7-24 24-24h48V350.4C66.2 338.7 0 265.1 0 176C0 78.8 78.8 0 176 0s176 78.8 176 176zM328 318c10.9-11.7 20.5-24.6 28.5-38.6C377.7 294.9 403.8 304 432 304c70.7 0 128-57.3 128-128s-57.3-128-128-128c-28.2 0-54.3 9.1-75.5 24.6c-8-14-17.6-26.9-28.5-38.6C357.1 12.6 393.1 0 432 0c97.2 0 176 78.8 176 176c0 89.1-66.2 162.7-152 174.4V400h48c13.3 0 24 10.7 24 24s-10.7 24-24 24H456v40c0 13.3-10.7 24-24 24s-24-10.7-24-24V448H360c-13.3 0-24-10.7-24-24s10.7-24 24-24h48V350.4c-29.7-4-57-15.5-80-32.4z"/></svg>