<svg xmlns="http://www.w3.org/2000/svg" viewBox="0 0 576 512"><!--! Font Awesome Pro 6.3.0 by @fontawesome - https://fontawesome.com License - https://fontawesome.com/license (Commercial License) Copyright 2023 Fonticons, Inc. --><path d="M22.8 30.1C10.3 30.1 .2 40.2 .2 52.7s10.1 22.6 22.6 22.6h7.5V361.4c0 49.9 40.5 90.4 90.4 90.4c26.4 0 50.1-11.3 66.6-29.3c-.2-13.8 4.9-27.6 15.4-38.1c.1-.1 .2-.2 .3-.3l0 0c0-.1 0-.3-.1-.5s-.2-.4-.3-.5l-.1 0c-.1 0-.2 0-.4 0c-14.3 0-27.3-5.7-36.8-15c-3.2 21.8-22 38.6-44.7 38.6c-25 0-45.2-20.2-45.2-45.2V225.9h90.4v66.2c9.5-9 22.3-14.5 36.3-14.5c.2 0 .3 0 .4 0l.1 0c.1-.1 .2-.2 .3-.5s.1-.4 .1-.5l0 0c0-.1-.1-.2-.3-.3c-20.6-20.6-20.6-54 0-74.5c2.6-2.6 5.4-4.8 8.3-6.8V75.3h7.5c12.5 0 22.6-10.1 22.6-22.6s-10.1-22.6-22.6-22.6h-7.5H165.9 75.5 30.4 22.8zM75.5 180.7V75.3h90.4V180.7H75.5zm255.8-2.2c-12.5 0-22.6 10.1-22.6 22.6c0 27.5-33.3 41.3-52.8 21.9c-8.8-8.8-23.1-8.8-31.9 0s-8.8 23.1 0 31.9c19.5 19.5 5.7 52.8-21.9 52.8c-12.5 0-22.6 10.1-22.6 22.6s10.1 22.6 22.6 22.6c27.5 0 41.3 33.3 21.9 52.8c-8.8 8.8-8.8 23.1 0 31.9s23.1 8.8 31.9 0c19.5-19.5 52.8-5.7 52.8 21.9c0 12.5 10.1 22.6 22.6 22.6s22.6-10.1 22.6-22.6c0-27.5 33.3-41.3 52.8-21.9c8.8 8.8 23.1 8.8 31.9 0s8.8-23.1 0-31.9c-19.5-19.5-5.7-52.8 21.9-52.8c12.5 0 22.6-10.1 22.6-22.6s-10.1-22.6-22.6-22.6c-27.5 0-41.3-33.3-21.9-52.8c8.8-8.8 8.8-23.1 0-31.9s-23.1-8.8-31.9 0c-19.5 19.5-52.8 5.7-52.8-21.9c0-12.5-10.1-22.6-22.6-22.6zm-30 92.6a30.1 30.1 0 1 1 0 60.2 30.1 30.1 0 1 1 0-60.2zm37.6 90.4a22.6 22.6 0 1 1 45.2 0 22.6 22.6 0 1 1 -45.2 0z"/></svg>