<svg xmlns="http://www.w3.org/2000/svg" viewBox="0 0 640 512"><!--! Font Awesome Pro 6.3.0 by @fontawesome - https://fontawesome.com License - https://fontawesome.com/license (Commercial License) Copyright 2023 Fonticons, Inc. --><path d="M38.8 5.1C28.4-3.1 13.3-1.2 5.1 9.2S-1.2 34.7 9.2 42.9l592 464c10.4 8.2 25.5 6.3 33.7-4.1s6.3-25.5-4.1-33.7l-88-69C582.8 365 608 313.4 608 256c0-60.1-27.7-113.8-70.9-149c-10.3-8.4-25.4-6.8-33.8 3.5s-6.8 25.4 3.5 33.8C539.3 170.7 560 210.9 560 256s-20.7 85.3-53.2 111.8c-.9 .7-1.7 1.5-2.4 2.2l-43.6-34.2c5.5 .1 11.1-1.6 15.7-5.4C498.1 312.9 512 286.1 512 256s-13.9-56.9-35.4-74.5c-10.3-8.4-25.4-6.8-33.8 3.5s-6.8 25.4 3.5 33.8C457.1 227.6 464 241 464 256s-6.9 28.4-17.7 37.3c-7.6 6.2-10.4 16-8 24.9L384 275.7V61.8C384 45.3 370.7 32 354.2 32c-7.3 0-14.3 2.7-19.8 7.5L216.5 144.4 38.8 5.1zM254.9 174.5L336 102.3V238l-81.1-63.6zM120 208h22.2L91.3 167.9C74.9 177.7 64 195.6 64 216v80c0 30.9 25.1 56 56 56h78.9L334.4 472.5c5.5 4.8 12.5 7.5 19.8 7.5c16.5 0 29.8-13.3 29.8-29.8V398.5l-48-37.8v48.9L223.9 310.1c-4.4-3.9-10.1-6.1-15.9-6.1H120c-4.4 0-8-3.6-8-8V216c0-4.4 3.6-8 8-8z"/></svg>