<svg xmlns="http://www.w3.org/2000/svg" viewBox="0 0 640 512"><!--! Font Awesome Pro 6.3.0 by @fontawesome - https://fontawesome.com License - https://fontawesome.com/license (Commercial License) Copyright 2023 Fonticons, Inc. --><path d="M568.8 4.1c45.9-3.1 79.9 41.8 64.6 85.2L566.8 278c5 4.4 8.2 10.9 8.2 18c0 12.9-10.2 23.5-23 24l0 0H541.4c20.7 20.3 33.6 48.7 33.6 80c0 61.9-50.1 112-112 112c-56.4 0-103.1-41.7-110.9-96H285.9c-7.8 54.3-54.4 96-110.9 96c-61.9 0-112-50.1-112-112c0-31.3 12.9-59.7 33.6-80H86l0 0c-12.8-.5-23-11.1-23-24c0-7.2 3.2-13.6 8.2-18L4.6 89.3C-10.7 45.9 23.3 1 69.2 4.1l119.7 8c21.6 1.4 41 10.6 55.5 24.7C257.4 23.9 275.3 16 295 16h48c19.7 0 37.6 7.9 50.6 20.8c14.5-14.1 33.9-23.3 55.5-24.7l119.7-8zM518 272L588.2 73.3C592 62.4 583.5 51.2 572 52L452.3 60c-21 1.4-37.3 18.9-37.3 39.9L415 272H518zM185.7 60L66 52c-11.5-.8-20 10.5-16.2 21.3L120 272H223V99.9c0-21.1-16.3-38.5-37.3-39.9zM367 272V88c0-13.3-10.7-24-24-24H295c-13.3 0-24 10.7-24 24V99.9 272h96zM159 416H113c5.8 22.5 23.5 40.2 46 46V416zm0-32V338c-22.5 5.8-40.2 23.5-46 46h46zm32 78c22.5-5.8 40.2-23.5 46-46H191v46zm0-124v46h46c-5.8-22.5-23.5-40.2-46-46zM447 462V416H401c5.8 22.5 23.5 40.2 46 46zm-46-78h46V338c-22.5 5.8-40.2 23.5-46 46zm124 32H479v46c22.5-5.8 40.2-23.5 46-46zm0-32c-5.8-22.5-23.5-40.2-46-46v46h46z"/></svg>