<svg xmlns="http://www.w3.org/2000/svg" viewBox="0 0 640 512"><!--! Font Awesome Pro 6.3.0 by @fontawesome - https://fontawesome.com License - https://fontawesome.com/license (Commercial License) Copyright 2023 Fonticons, Inc. --><path d="M38.8 5.1C28.4-3.1 13.3-1.2 5.1 9.2S-1.2 34.7 9.2 42.9l592 464c10.4 8.2 25.5 6.3 33.7-4.1s6.3-25.5-4.1-33.7L457.5 333.3l32.4-32.4c5.5-5.5 6.2-14.1 1.9-20.3c15.9-4.2 30.9-12.5 43.3-24.9l33.9-33.9c6.2-6.2 6.2-16.4 0-22.6l-22.6-22.6c-11.6-11.6-24.8-20.4-38.9-26.7C546.8 140.9 576 105.9 576 64V16c0-8.8-7.2-16-16-16H512c-41.9 0-76.9 29.3-85.8 68.5C420 54.3 411 41 399.4 29.4L376.8 6.8c-6.2-6.2-16.4-6.2-22.6 0L320.3 40.7C307.8 53.1 299.5 68.2 295.3 84c-6.2-4.2-14.8-3.6-20.3 1.9l-33.9 33.9c-8.5 8.5-15 18.1-19.7 28.4L38.8 5.1zM261.7 179.8c1.6-9.5 6.1-18.6 13.4-26l11.3-11.3c19.9 20 27.1 47.8 21.6 73.5l-46.3-36.3zM372 266.3c22-1.3 44.5 6.4 61.3 23.3l-11.3 11.3c-.9 .9-1.8 1.7-2.7 2.5L372 266.3zM512 48h16V64c0 22.1-17.9 40-40 40H472V88c0-22.1 17.9-40 40-40zM350.7 372.3l-7.8 7.8c-18.7 18.7-49.1 18.7-67.9 0l-21.5-21.5c20.1-13.3 44.8-16.6 67.2-9.8l-90.2-71.1c.1 15.6-4.3 31.2-13.2 44.7l-21.5-21.5c-15.4-15.4-18.2-38.8-8.2-57l-38-29.9c-24.7 37.3-20.6 88 12.2 120.9l22.6 22.6 0 0L71 471c-9.4 9.4-9.4 24.6 0 33.9s24.6 9.4 33.9 0L218.5 391.4 241.1 414c37.5 37.5 98.3 37.5 135.8 0l11.8-11.8-38-29.9zm3.6-297.6l11.3-11.3c27.3 27.4 30.7 69.6 10.2 100.6l-21.5-21.5c-18.7-18.7-18.7-49.1 0-67.9zM512.5 210.4l-11.3 11.3c-18.7 18.7-49.1 18.7-67.9 0l-21.5-21.5c31-20.5 73.3-17.2 100.6 10.2z"/></svg>