<svg xmlns="http://www.w3.org/2000/svg" viewBox="0 0 640 512"><!--! Font Awesome Pro 6.3.0 by @fontawesome - https://fontawesome.com License - https://fontawesome.com/license (Commercial License) Copyright 2023 Fonticons, Inc. --><path d="M38.8 5.1C28.4-3.1 13.3-1.2 5.1 9.2S-1.2 34.7 9.2 42.9l592 464c10.4 8.2 25.5 6.3 33.7-4.1s6.3-25.5-4.1-33.7L454.5 331c.3-3.6-.6-7.3-2.7-10.4c15.9-4.2 30.9-12.5 43.3-24.9l33.9-33.9c6.2-6.2 6.2-16.4 0-22.6l-22.6-22.6c-1.9-1.9-3.9-3.7-5.9-5.5l68-68c9.4-9.4 9.4-24.6 0-33.9s-24.6-9.4-33.9 0l-77 77c-9-3.1-18.3-5.2-27.7-6.2L568.7 41.1c9.4-9.4 9.4-24.6 0-33.9s-24.6-9.4-33.9 0L396.1 145.8c-1-9.4-3.1-18.7-6.2-27.7l77-77c9.4-9.4 9.4-24.6 0-33.9s-24.6-9.4-33.9 0l-68 68c-1.8-2-3.6-3.9-5.5-5.8L336.8 46.8c-6.2-6.2-16.4-6.2-22.6 0L280.3 80.7c-12.4 12.4-20.8 27.5-24.9 43.3c-6.2-4.2-14.8-3.6-20.3 1.9l-18.5 18.5L38.8 5.1zm83.1 233.9c-37.5 37.5-37.5 98.3 0 135.8l22.6 22.6 0 0L71 471c-9.4 9.4-9.4 24.6 0 33.9s24.6 9.4 33.9 0l73.5-73.5 0 0L201.1 454c37.5 37.5 98.3 37.5 135.8 0l33.9-33.9c5.5-5.5 6.2-14.1 1.9-20.3c3.1-.8 6.1-1.8 9.2-2.9L148.2 212.8l-26.3 26.3zM314.2 114.6l11.3-11.3c27.3 27.4 30.7 69.6 10.2 100.6l-21.5-21.5c-18.7-18.7-18.7-49.1 0-67.9zm0 294.1L302.9 420c-18.7 18.7-49.1 18.7-67.9 0l-21.5-21.5c31-20.5 73.3-17.2 100.6 10.2zm-147-147c27.3 27.4 30.7 69.6 10.2 100.6l-21.5-21.5c-18.7-18.7-18.7-49.1 0-67.9l11.3-11.3zm305.4-11.3l-11.3 11.3c-18.7 18.7-49.1 18.7-67.9 0l-21.5-21.5c31-20.5 73.3-17.2 100.6 10.2z"/></svg>