<svg xmlns="http://www.w3.org/2000/svg" viewBox="0 0 320 512"><!--! Font Awesome Pro 6.3.0 by @fontawesome - https://fontawesome.com License - https://fontawesome.com/license (Commercial License) Copyright 2023 Fonticons, Inc. --><path d="M232 464H168V348.5c72.6-12.5 126.3-78.7 119.4-155.9L271.5 14.5C270.8 6.2 263.9 0 255.8 0H32.2c-8.1 0-15 6.2-15.8 14.5L.6 192.6C-6.3 269.8 47.4 336 120 348.5V464H56c-13.2 0-24 10.7-24 24s10.8 24 24 24H232c13.2 0 24-10.7 24-24s-10.8-24-24-24zM48.4 197.1L61.7 48H226.3l13.3 149.2c5 56.5-37.8 106.8-95.6 106.8c-57.9 0-100.6-50.4-95.6-106.9zM40 0C27.5 0 17.1 9.6 16.1 22.1L2.1 198.5C-3.7 273.1 48.8 337.9 120 350V464H56c-13.3 0-24 10.7-24 24s10.7 24 24 24h88 88c13.3 0 24-10.7 24-24s-10.7-24-24-24H168V350c71.2-12.1 123.7-76.9 117.8-151.5L271.9 22.1C270.9 9.6 260.5 0 248 0H40zM50 202.3L62.2 48H225.8L238 202.3c4.3 54.8-39 101.7-94 101.7s-98.3-46.9-94-101.7z"/></svg>