<svg xmlns="http://www.w3.org/2000/svg" viewBox="0 0 320 512"><!--! Font Awesome Pro 6.3.0 by @fontawesome - https://fontawesome.com License - https://fontawesome.com/license (Commercial License) Copyright 2023 Fonticons, Inc. --><path d="M168 464V350c44.4-7.5 81.5-35.5 101.7-73.6c13.6-24.4 20.4-53.2 17.7-83.7L271.5 14.5C270.8 6.2 263.9 0 255.8 0H248 40 32.2c-8.1 0-15 6.2-15.8 14.5L.6 192.6c-2.7 30.5 4 59.3 17.7 83.7C38.5 314.5 75.6 342.5 120 350V464H56c-1 0-2.1 .1-3.1 .2C41.1 465.7 32 475.8 32 488c0 12.2 9.1 22.2 20.8 23.8c.9 .1 1.9 .2 2.9 .2l.3 0h88 88c1 0 2.1-.1 3.1-.2c11.8-1.5 20.9-11.6 20.9-23.8c0-12.2-9.1-22.3-20.9-23.8c-.9-.1-1.9-.2-2.8-.2l-.3 0H168zM62.2 48H225.8l6.3 80H55.9l6.3-80zM52.1 176H235.9l2.1 26.3c4.3 54.8-39 101.7-94 101.7s-98.3-46.9-94-101.7L52.1 176z"/></svg>