<svg xmlns="http://www.w3.org/2000/svg" viewBox="0 0 320 512"><!--! Font Awesome Pro 6.3.0 by @fontawesome - https://fontawesome.com License - https://fontawesome.com/license (Commercial License) Copyright 2023 Fonticons, Inc. --><path d="M168 464V350c44.4-7.5 81.5-35.5 101.7-73.6c13.6-24.4 20.4-53.2 17.7-83.7L271.5 14.5C270.8 6.2 263.9 0 255.8 0H248 178.9h-29H40 32.2c-8.1 0-15 6.2-15.8 14.5L.6 192.6c-2.7 30.5 4 59.3 17.7 83.7C38.5 314.5 75.6 342.5 120 350V464H56c-1 0-2.1 .1-3.1 .2C41.1 465.7 32 475.8 32 488c0 12.2 9.1 22.2 20.8 23.8c.9 .1 1.9 .2 2.9 .2l.3 0h88 88c1 0 2.1-.1 3.1-.2c11.8-1.5 20.9-11.6 20.9-23.8c0-12.2-9.1-22.3-20.9-23.8c-.9-.1-1.9-.2-2.8-.2l-.3 0H168zM147.3 48c-.4 3.4-2 6.7-4.6 9.3L90.4 109.6c-5.9 5.9-6.3 15.3-.9 21.6l76 89.8c1.6 1.9 3.9 3 6.4 3c5.8 0 9.9-5.9 7.8-11.3l-30.9-80.4c-2.7-7.2 0-15.3 6.5-19.3l43.4-27.1c5.6-3.5 8.5-10.2 7.2-16.7L201.6 48h24.2L238 202.3c4.3 54.8-39 101.7-94 101.7s-98.3-46.9-94-101.7L62.2 48h85.1z"/></svg>